<?xml version="1.0" standalone="no"?>
<!DOCTYPE svg PUBLIC "-//W3C//DTD SVG 20010904//EN"
 "http://www.w3.org/TR/2001/REC-SVG-20010904/DTD/svg10.dtd">
<svg version="1.0" xmlns="http://www.w3.org/2000/svg"
 width="848.000000pt" height="1390.000000pt" viewBox="0 0 848.000000 1390.000000"
 preserveAspectRatio="xMidYMid meet">
<metadata>
Created by potrace 1.16, written by Peter Selinger 2001-2019
</metadata>
<g transform="translate(0.000000,1390.000000) scale(0.100000,-0.100000)"
fill="#000000" stroke="none">
<path d="M5025 13561 c-3 -6 3 -9 14 -8 11 0 17 5 15 9 -7 11 -22 10 -29 -1z"/>
<path d="M5110 13568 c-1 -5 -3 -13 -4 -20 -1 -16 -39 -17 -114 -3 -53 10 -70
10 -90 -1 -20 -10 -63 -12 -186 -7 -89 3 -172 6 -186 6 -37 -1 -211 -1 -240
-1 -14 0 -78 -2 -142 -5 -65 -3 -120 -2 -122 2 -3 4 -58 6 -123 4 -155 -4
-398 -7 -448 -5 -53 2 -66 2 -165 1 -47 -1 -92 -1 -100 0 -75 7 -92 7 -96 -1
-3 -4 -14 -4 -24 2 -18 10 -1191 6 -1395 -5 -113 -6 -264 -8 -470 -6 -307 3
-630 -2 -652 -10 -51 -18 -53 -37 -50 -446 2 -208 0 -394 -4 -412 -4 -19 -5
-39 -2 -45 4 -5 8 -147 9 -315 1 -168 3 -355 3 -416 1 -60 -1 -171 -5 -245 -3
-74 -4 -155 -3 -180 4 -72 3 -422 -4 -1015 -8 -682 -19 -2965 -16 -3060 4 -84
-1 -958 -7 -1170 -2 -82 -7 -530 -11 -995 -4 -465 -8 -892 -9 -950 -1 -58 -4
-645 -8 -1305 -3 -660 -7 -1344 -10 -1520 -4 -285 -9 -930 -7 -962 1 -7 20
-22 43 -34 40 -20 58 -22 348 -25 168 -1 440 -3 605 -3 1158 1 1280 -1 1318
-16 10 -4 33 -4 50 2 21 6 54 6 97 -1 36 -6 81 -10 100 -9 115 5 646 4 875 -2
149 -4 279 -7 290 -7 151 2 316 -1 335 -8 11 -4 250 -1 257 3 5 2 19 3 33 2
44 -5 130 -5 330 1 255 7 281 7 530 3 149 -2 216 -1 298 6 69 5 88 3 109 -10
19 -13 31 -14 51 -7 44 17 140 21 146 6 3 -8 21 -12 48 -11 24 1 53 -2 66 -6
17 -7 22 -5 22 8 0 12 5 15 18 10 15 -7 54 -7 182 -1 25 1 61 -2 80 -6 19 -4
39 -3 46 3 7 6 15 6 18 1 3 -5 54 -8 113 -6 231 9 939 10 954 3 49 -24 85 30
94 141 3 41 8 431 10 865 3 435 9 869 14 965 5 96 9 409 10 695 0 286 2 535 5
552 3 18 -1 55 -8 83 -9 36 -10 63 -4 93 8 36 10 89 7 172 -1 11 2 101 6 200
10 263 17 962 15 1490 -5 1357 -4 2204 3 2490 4 176 9 435 12 575 3 140 8 316
12 390 4 74 7 142 6 150 -1 8 -4 98 -7 200 -3 102 -9 228 -12 280 -3 52 -6
100 -6 105 1 6 3 289 6 630 3 341 7 692 10 780 3 88 1 201 -5 250 -13 123 -14
178 -1 183 8 2 6 11 -4 27 -9 13 -13 28 -10 33 8 13 18 143 18 232 0 94 -1
428 -2 495 -5 468 -10 625 -21 657 -11 36 -10 93 7 269 8 84 -2 155 -23 163
-8 3 -32 1 -53 -5 -30 -9 -47 -8 -87 5 -43 14 -102 17 -394 17 -189 0 -362 -2
-384 -5 -22 -3 -94 -5 -160 -4 -66 1 -145 1 -175 0 -82 -2 -1027 -1 -1160 1
-106 2 -307 -10 -321 -19 -15 -9 -68 9 -72 25 -3 9 -6 13 -7 9z m2640 -111 c8
-3 29 -7 45 -9 l30 -3 8 -110 c4 -60 9 -272 12 -470 3 -198 6 -380 9 -405 3
-41 4 -262 3 -540 -1 -195 1 -504 4 -625 3 -119 3 -420 -1 -935 -1 -146 -2
-339 -2 -430 1 -91 -1 -262 -3 -380 -5 -217 -5 -316 0 -380 4 -55 4 -336 -1
-425 -2 -44 -5 -217 -8 -385 -3 -185 -9 -325 -16 -355 -7 -29 -14 -162 -17
-315 -2 -146 -6 -314 -8 -375 -4 -99 -5 -185 -7 -570 0 -60 -1 -141 -1 -180
-1 -38 2 -149 6 -245 10 -227 8 -419 -7 -665 -3 -49 -8 -162 -11 -250 -4 -88
-8 -162 -10 -165 -5 -9 13 -283 26 -380 15 -121 12 -490 -5 -736 -9 -115 -15
-266 -15 -334 0 -69 -5 -170 -12 -225 -12 -101 -12 -102 21 -355 12 -92 14
-318 5 -550 -9 -242 -9 -232 3 -360 10 -106 9 -296 -1 -306 -9 -9 -115 20
-157 44 -25 13 -65 36 -90 49 -25 13 -49 29 -55 36 -5 7 -26 19 -45 28 -19 9
-59 29 -87 43 -67 33 -110 32 -198 -3 -56 -23 -71 -34 -76 -55 -11 -39 -87
-105 -122 -106 -16 0 -48 11 -72 25 -54 30 -109 34 -152 12 -43 -23 -47 -22
-133 22 -41 21 -100 46 -130 55 -30 10 -68 24 -85 31 -150 66 -168 64 -265
-31 l-65 -63 -75 -7 c-41 -4 -84 -6 -95 -6 -27 0 -99 17 -113 26 -18 11 -14
47 9 86 20 33 21 42 15 245 -8 269 -31 658 -39 672 -3 5 -9 124 -12 264 -4
140 -10 308 -15 374 -4 66 -6 124 -3 128 3 4 4 128 3 275 -1 147 -2 380 -2
517 0 144 -5 255 -10 262 -5 7 -6 18 -2 24 4 7 7 86 6 175 -1 90 3 175 8 188
5 14 5 28 0 31 -4 3 -7 182 -4 408 2 221 4 440 5 487 0 47 4 114 8 150 6 44 4
79 -5 110 -22 79 -28 249 -25 670 1 47 -4 183 -9 302 -10 211 -8 260 20 458 5
36 6 178 3 315 -8 308 -7 481 2 605 11 139 13 980 3 986 -5 3 -6 10 -3 15 6 8
10 106 22 547 4 112 1 195 -6 233 -12 61 -10 80 36 237 10 36 13 73 9 115 -8
89 -23 183 -30 195 -3 6 -11 34 -16 62 -13 67 -67 178 -96 197 -13 8 -28 31
-35 51 -20 65 -49 102 -91 119 -25 10 -48 29 -62 52 -13 20 -41 45 -62 56 -21
11 -47 30 -57 43 -10 12 -24 22 -32 22 -7 0 -18 7 -25 15 -16 19 -79 27 -214
29 -106 1 -111 2 -121 24 -8 17 -16 21 -33 17 -23 -6 -25 -3 -36 45 -3 14 -26
47 -51 75 -25 27 -45 53 -45 58 0 4 -16 15 -35 23 -31 13 -35 18 -35 52 0 39
-27 75 -77 101 -19 10 -20 14 -10 41 10 26 8 32 -11 50 -28 26 -28 54 1 93 42
60 49 78 33 96 -10 12 -12 36 -9 87 2 51 0 74 -10 82 -8 7 -90 12 -222 14
l-210 3 -47 -28 c-26 -16 -53 -27 -60 -24 -7 2 -28 -2 -46 -9 -30 -12 -36 -12
-62 8 -24 17 -38 20 -77 15 -39 -5 -155 -52 -235 -97 -10 -6 -23 -10 -30 -10
-19 0 -107 -48 -157 -87 -24 -18 -50 -33 -57 -33 -7 0 -22 -16 -34 -35 -25
-40 -29 -41 -72 -19 -16 9 -27 11 -23 5 3 -6 -6 -16 -21 -21 -15 -6 -34 -20
-41 -30 -23 -32 -30 -24 -36 40 -8 73 -19 95 -66 137 -39 34 -78 41 -127 23
-61 -24 -77 -68 -81 -230 -2 -74 -5 -151 -5 -170 -2 -43 26 -245 46 -331 8
-35 20 -104 26 -154 7 -49 20 -120 31 -157 23 -80 24 -97 4 -104 -19 -8 -45
13 -45 35 0 27 -24 53 -49 55 -16 1 -28 12 -40 35 -18 38 -84 81 -112 74 -13
-4 -25 9 -46 44 -37 63 -80 124 -124 178 -21 24 -39 47 -40 52 -2 4 -20 20
-40 35 -21 15 -47 47 -58 71 -25 52 -58 85 -70 71 -5 -5 -14 -26 -21 -46 -11
-36 -23 -47 -34 -30 -2 4 9 35 25 69 22 47 27 67 20 85 -9 24 -82 88 -100 88
-13 0 -36 45 -46 88 -3 17 -10 32 -15 32 -4 0 -10 10 -14 23 -5 21 -57 51 -83
48 -6 -1 -14 7 -18 18 -7 22 -25 30 -70 31 -43 2 -115 -11 -121 -21 -9 -16
-33 -9 -39 10 -3 12 -25 26 -53 36 -26 10 -60 23 -77 30 -95 40 -187 57 -315
57 -94 0 -185 -12 -215 -29 -11 -7 -32 -14 -47 -18 -15 -3 -32 -11 -38 -18
-44 -52 -64 -69 -89 -78 -38 -13 -70 -71 -52 -93 18 -21 57 -20 73 2 7 9 32
32 56 50 l42 33 10 -26 c15 -41 13 -54 -10 -48 -28 7 -27 -31 1 -55 11 -9 25
-26 31 -36 9 -17 8 -18 -23 -11 -19 4 -47 7 -62 6 -16 -1 -46 8 -68 21 -44 24
-54 21 -45 -16 4 -17 18 -31 39 -40 31 -12 33 -16 29 -50 -5 -41 18 -76 50
-76 11 0 18 -7 18 -19 0 -39 41 -71 98 -78 42 -5 52 -9 52 -24 0 -11 5 -19 10
-19 6 0 10 -7 10 -15 0 -8 -4 -15 -9 -15 -5 0 -14 -13 -20 -30 -5 -16 -16 -30
-24 -30 -8 0 -22 -9 -32 -20 -14 -16 -17 -30 -12 -75 5 -54 5 -55 -21 -56 -50
-3 -68 -6 -120 -23 -29 -10 -52 -22 -52 -27 0 -5 -9 -9 -20 -9 -10 0 -25 -7
-32 -15 -7 -8 -25 -28 -40 -45 -31 -33 -34 -50 -16 -68 9 -9 4 -12 -25 -12
-34 0 -40 -5 -67 -47 -17 -26 -30 -57 -30 -69 0 -13 -8 -24 -20 -27 -11 -3
-26 -20 -34 -38 -11 -27 -11 -41 0 -88 18 -81 32 -113 45 -106 6 4 17 -2 25
-14 8 -12 24 -21 34 -21 10 0 22 -5 26 -11 3 -6 8 -187 9 -403 1 -215 5 -401
10 -413 5 -17 0 -29 -23 -53 -31 -30 -62 -40 -62 -18 0 6 11 26 25 44 32 42
32 58 0 50 -25 -6 -25 -6 -25 64 0 46 -4 70 -11 70 -9 0 -10 -26 -6 -92 l7
-93 -65 -54 c-62 -51 -77 -71 -55 -71 10 0 92 69 98 83 2 4 8 5 13 1 5 -3 9
-57 9 -120 0 -69 4 -114 10 -114 6 0 10 28 10 65 0 74 18 128 48 144 18 10 21
7 27 -19 5 -22 1 -37 -14 -56 -14 -18 -21 -41 -21 -72 0 -38 5 -50 38 -83 21
-21 52 -41 68 -44 16 -4 36 -9 44 -13 61 -24 335 -34 460 -16 19 2 53 6 75 7
22 2 46 6 53 11 7 4 20 5 30 2 17 -5 69 21 150 76 32 22 40 34 46 69 6 35 3
46 -16 66 -19 21 -24 39 -28 114 -3 49 -4 94 -2 99 2 6 15 10 28 10 17 0 24 6
24 20 0 13 -7 20 -20 20 -26 0 -32 26 -34 142 -1 90 0 93 22 96 28 4 24 26 -6
30 -20 3 -22 9 -22 70 0 37 -5 129 -10 206 -11 147 -7 166 33 166 11 0 35 17
55 37 19 21 42 38 51 38 13 0 16 11 13 60 -3 79 -43 161 -89 183 -18 9 -36 27
-42 43 -27 79 -151 210 -220 234 -25 9 -61 24 -78 32 -26 13 -35 13 -48 3 -22
-18 -32 15 -11 39 20 22 21 79 0 102 -29 32 12 175 44 155 5 -3 6 -24 2 -48
-5 -23 -6 -47 -3 -54 2 -7 -1 -22 -7 -34 -13 -25 -10 -32 8 -21 7 4 15 32 17
63 2 30 9 66 14 80 9 23 12 24 82 21 46 -2 75 1 80 8 10 16 92 30 104 18 7 -7
5 -14 -5 -22 -16 -13 -32 -37 -51 -74 -10 -18 -7 -30 20 -72 17 -28 31 -57 31
-63 0 -24 34 -48 66 -48 30 0 34 -3 39 -37 4 -21 11 -60 17 -88 5 -27 12 -61
13 -74 2 -13 14 -38 26 -54 13 -18 22 -46 23 -71 1 -32 6 -43 24 -51 23 -10
42 -58 42 -108 0 -37 22 -88 49 -111 11 -11 21 -24 21 -29 0 -6 10 -31 22 -55
l21 -45 -21 -18 c-21 -16 -22 -25 -22 -181 0 -104 4 -168 11 -175 6 -6 11 -46
11 -89 0 -44 0 -88 0 -99 1 -11 1 -162 2 -335 1 -173 5 -328 9 -345 5 -18 21
-39 41 -51 28 -19 34 -20 42 -7 9 14 12 14 27 -1 9 -10 17 -29 17 -43 0 -20 4
-24 20 -20 32 8 44 -24 31 -84 -15 -70 -14 -124 4 -139 8 -6 29 -12 47 -13 30
-2 33 -4 30 -32 -2 -16 -11 -48 -19 -70 -34 -90 -46 -224 -45 -492 1 -143 20
-166 156 -186 42 -6 79 -18 92 -29 11 -10 34 -18 51 -18 17 0 37 -8 48 -20 18
-20 58 -26 102 -14 27 7 51 56 60 125 10 68 30 76 35 14 6 -83 -20 -382 -45
-505 -8 -38 -20 -414 -17 -515 4 -95 4 -118 2 -175 -1 -19 -1 -48 0 -65 0 -16
-2 -104 -6 -195 -9 -192 -9 -163 0 -271 4 -53 2 -99 -4 -120 -6 -19 -14 -74
-17 -124 -4 -49 -9 -93 -11 -97 -2 -3 0 -18 6 -32 7 -21 16 -26 42 -26 18 0
38 -4 44 -8 24 -17 44 -59 45 -97 0 -22 8 -65 18 -95 17 -52 20 -55 51 -55
l32 0 3 -205 c4 -260 21 -534 34 -559 7 -11 11 -133 12 -316 1 -189 6 -338 15
-409 8 -61 16 -126 18 -144 3 -19 11 -41 19 -50 8 -10 22 -34 30 -54 19 -45
50 -66 111 -74 41 -6 51 -4 65 12 9 11 28 30 42 42 26 22 28 23 57 8 24 -12
37 -32 60 -93 27 -71 31 -95 40 -268 6 -104 11 -282 12 -395 0 -113 5 -243 11
-290 11 -98 17 -234 23 -590 2 -140 6 -271 9 -290 3 -19 8 -87 12 -150 3 -63
10 -142 15 -175 6 -37 6 -83 -1 -125 -5 -36 -9 -85 -7 -110 3 -43 3 -44 -37
-53 -28 -7 -40 -7 -43 2 -4 13 -55 41 -86 46 -11 3 -37 6 -56 9 -56 7 -151 52
-169 79 -16 25 -108 104 -142 122 -9 5 -27 26 -39 47 -27 49 -49 60 -100 52
-46 -8 -76 -41 -67 -74 3 -11 2 -20 -2 -20 -4 0 -18 -18 -30 -41 -13 -22 -39
-55 -59 -72 -20 -18 -58 -55 -85 -84 -57 -61 -80 -71 -104 -48 -15 16 -18 15
-34 -7 -10 -12 -19 -17 -19 -10 0 24 -109 -17 -147 -56 -33 -33 -123 -92 -141
-92 -10 0 -22 -4 -27 -9 -15 -13 -142 -40 -209 -45 -64 -4 -181 26 -202 51 -6
7 -20 12 -30 11 -11 -1 -64 1 -120 6 -98 8 -102 7 -155 -19 l-53 -28 -56 19
c-30 10 -66 25 -80 34 -37 24 -187 90 -204 90 -9 0 -30 9 -48 20 -18 11 -46
20 -63 20 -42 -1 -118 -40 -130 -67 -7 -17 -18 -23 -43 -23 -19 0 -48 -6 -65
-14 -18 -7 -64 -27 -103 -45 -39 -17 -77 -31 -85 -31 -12 0 -14 35 -12 217 1
120 4 319 8 443 8 277 14 570 19 1020 3 190 10 557 17 815 7 259 12 479 12
490 0 11 -3 259 -7 550 -9 651 -9 593 2 870 5 127 9 736 8 1355 -1 619 1 1155
4 1191 3 37 2 118 -1 180 -4 63 -10 231 -13 374 -4 143 -9 298 -11 345 -3 66
-6 386 -6 775 0 38 3 160 4 195 l2 35 74 0 c48 0 76 4 78 12 3 8 -17 12 -68
12 -48 0 -75 4 -81 13 -5 7 -7 60 -5 118 3 58 2 114 -2 124 -4 10 -4 44 1 75
7 51 10 475 5 746 -2 61 1 164 5 230 8 115 12 298 24 975 2 168 6 332 7 364
l3 60 154 -3 c85 -2 196 -3 245 -2 50 1 183 3 296 5 113 2 211 6 218 10 20 13
153 16 174 4 38 -20 378 -15 502 8 17 3 57 5 90 4 86 -3 154 -2 378 2 109 2
200 1 202 -2 2 -4 102 -5 222 -3 241 5 220 5 1108 -2 642 -6 767 -9 783 -19 5
-3 33 -1 62 3 30 5 67 5 83 0 17 -5 35 -5 41 -1 6 4 29 8 51 8 22 1 74 6 115
13 51 7 172 9 375 6 545 -11 1199 -12 1260 -3 33 5 103 12 155 15 52 3 96 6
97 6 5 5 521 -1 533 -6z m-3310 -873 l95 -3 0 -50 c-1 -58 -6 -66 -32 -53 -10
5 -35 12 -56 16 -37 7 -38 6 -35 -21 l3 -28 -71 0 c-43 0 -77 -5 -86 -13 -13
-10 -19 -10 -32 4 -19 19 -49 11 -44 -12 3 -16 126 -74 156 -74 59 -1 46 -53
-15 -63 -36 -6 -128 13 -163 34 -95 57 -310 76 -310 28 0 -30 86 -67 166 -73
64 -4 117 -20 234 -73 52 -23 141 -83 147 -99 8 -21 31 -17 55 11 28 32 56 32
97 -2 l33 -28 -16 -68 c-9 -38 -16 -80 -16 -94 0 -26 0 -26 -25 8 -13 19 -29
44 -34 55 -5 12 -16 24 -25 27 -21 8 -66 -30 -66 -58 0 -18 -7 -24 -30 -27
-37 -6 -53 11 -48 49 2 20 9 29 26 31 27 4 37 23 28 56 -9 37 -34 56 -73 56
-20 0 -44 6 -52 13 -9 7 -36 20 -61 27 -25 7 -65 22 -90 33 -48 22 -86 33
-165 48 -27 6 -65 19 -83 30 -25 14 -49 18 -100 17 -85 -3 -251 12 -274 24
-10 5 -18 18 -18 28 0 15 7 20 28 20 20 0 35 9 50 29 11 16 43 39 69 51 26 12
93 44 148 70 107 51 169 65 207 46 27 -14 132 2 190 28 25 12 53 14 113 10 44
-4 123 -8 175 -10z m-2793 -139 c34 -8 109 -37 166 -65 56 -27 108 -50 115
-50 7 0 12 -5 12 -11 0 -5 13 -15 29 -20 37 -13 54 -52 42 -99 -14 -53 -53
-164 -63 -176 -23 -31 -98 -20 -98 14 -1 22 -28 56 -58 71 -25 13 -27 13 -71
-26 -18 -16 -54 -33 -84 -40 -47 -10 -54 -10 -73 8 -12 11 -28 20 -35 19 -29
-5 -40 1 -49 25 -5 14 -14 25 -20 25 -5 0 -17 16 -25 36 -24 59 -17 92 13 62
8 -8 15 -8 25 0 13 11 56 1 104 -26 36 -20 103 -12 211 26 54 19 60 29 33 55
-19 19 -24 20 -70 8 -28 -7 -56 -14 -63 -15 -7 -1 -28 -8 -45 -15 -38 -16
-105 -3 -162 30 -27 16 -43 19 -75 13 -77 -14 -140 6 -171 52 -14 21 -15 31
-6 51 13 28 12 28 121 53 94 21 190 19 297 -5z m1434 2 c28 -19 36 -32 45 -77
7 -30 17 -68 24 -85 6 -16 16 -97 20 -180 5 -82 16 -190 24 -240 9 -49 16
-144 16 -210 1 -66 8 -154 16 -195 8 -41 17 -117 19 -167 5 -91 5 -93 -19 -99
-13 -3 -33 -1 -44 5 -12 6 -33 11 -47 11 -20 0 -26 4 -23 18 2 12 14 18 41 20
39 3 55 32 16 32 -25 0 -59 17 -59 31 0 5 16 19 35 30 40 24 38 39 -5 39 -16
0 -31 4 -34 9 -10 16 5 41 24 41 11 0 22 5 26 11 8 14 -14 29 -44 29 -19 0
-23 5 -20 27 2 22 9 29 32 33 44 8 45 30 2 30 -37 0 -56 20 -56 59 0 22 14 28
25 11 11 -18 34 -11 51 15 24 37 13 55 -30 45 -24 -5 -39 -4 -46 5 -5 6 -7 14
-4 18 3 3 -6 43 -20 88 -14 45 -26 90 -26 100 0 10 -5 29 -11 42 -9 20 -7 28
14 50 13 15 32 27 41 27 9 0 16 7 16 16 0 14 -7 15 -44 10 -42 -7 -43 -6 -50
25 -7 35 -1 49 20 49 8 0 14 7 14 15 0 8 9 15 20 15 28 0 25 19 -5 30 -31 12
-34 54 -5 70 25 14 26 40 1 40 -30 0 -35 29 -6 40 15 6 25 17 25 30 0 16 -7
20 -35 20 -34 0 -40 7 -35 40 3 22 31 50 50 50 9 0 32 -10 51 -23z m1406 -8
c43 -21 49 -39 12 -39 -26 0 -69 29 -69 46 0 18 6 18 57 -7z m-2444 -86 c10
-6 9 -43 -2 -43 -30 0 -71 24 -71 42 0 17 4 19 33 13 17 -4 35 -9 40 -12z m84
-35 c-3 -8 -6 -5 -6 6 -1 11 2 17 5 13 3 -3 4 -12 1 -19z m1215 -49 c11 -6 55
-13 97 -16 42 -2 90 -6 106 -8 17 -2 66 -7 109 -10 44 -3 88 -11 99 -17 24
-13 110 -35 186 -49 138 -25 220 -101 92 -85 -31 4 -65 7 -76 7 -11 0 -28 9
-38 19 -24 26 -64 26 -72 0 -5 -15 -15 -20 -44 -20 -38 0 -61 -14 -61 -37 0
-11 16 -12 75 -7 51 5 84 3 105 -6 23 -9 37 -10 58 -1 20 8 38 8 72 -3 43 -13
45 -15 50 -57 6 -55 32 -64 54 -20 20 38 20 62 1 87 -33 44 -4 46 44 3 29 -27
33 -35 28 -68 -2 -21 1 -52 10 -71 25 -60 -3 -78 -65 -40 -18 11 -41 20 -51
20 -10 0 -24 6 -30 14 -7 8 -38 17 -69 21 -31 3 -77 12 -102 20 -39 13 -200
18 -200 7 0 -2 5 -12 11 -23 7 -14 16 -18 27 -14 57 23 71 23 117 -1 25 -14
84 -33 130 -44 84 -18 94 -23 176 -91 24 -20 78 -51 119 -70 41 -18 88 -43
103 -56 37 -30 65 -30 69 0 3 20 10 22 63 25 79 4 93 0 143 -49 59 -58 55 -80
-7 -35 -27 20 -56 36 -66 36 -20 0 -75 -31 -75 -42 0 -12 32 -26 51 -21 12 3
32 -7 54 -26 42 -37 58 -39 77 -9 l15 22 24 -26 c13 -14 56 -38 94 -53 97 -38
153 -64 161 -76 9 -16 -14 -36 -71 -64 -62 -31 -85 -69 -63 -104 11 -18 9 -27
-12 -67 -32 -59 -45 -66 -36 -20 8 41 3 43 -59 21 -22 -8 -41 -15 -42 -15 -7
-1 -73 101 -73 114 0 9 -11 28 -25 42 -14 14 -25 37 -25 52 0 36 -9 48 -44 56
-16 4 -42 20 -58 37 -65 64 -138 116 -180 128 -25 7 -62 29 -84 48 -38 34 -89
60 -108 55 -5 -2 -21 9 -36 23 -15 14 -40 28 -56 31 -60 10 -70 16 -143 76
-21 18 -102 57 -153 73 -25 9 -49 23 -52 31 -4 11 -20 15 -58 14 -29 0 -60 0
-68 1 -8 1 -49 -6 -90 -15 -41 -9 -89 -16 -105 -16 -17 0 -41 -7 -53 -16 -48
-33 -99 15 -72 67 7 11 10 55 9 97 -1 49 3 89 12 110 11 26 11 36 1 52 -6 11
-12 26 -12 33 0 34 51 48 92 26z m-2066 -56 c19 -86 40 -144 70 -194 20 -33
34 -70 34 -88 0 -18 5 -42 11 -53 9 -18 8 -24 -7 -35 -45 -33 -83 1 -45 41
l22 23 -21 47 c-11 26 -24 45 -29 41 -5 -3 -12 -1 -16 5 -3 5 -17 10 -31 10
-35 0 -27 44 9 45 11 0 10 6 -7 64 -18 61 -21 121 -6 121 5 0 12 -12 16 -27z
m3222 10 c-4 -22 -38 -30 -38 -10 0 14 13 24 33 26 5 1 7 -7 5 -16z m-2393
-33 c6 -10 -70 -166 -86 -176 -17 -10 -9 26 20 88 17 35 32 71 35 81 6 19 21
23 31 7z m2532 -32 c27 -30 39 -68 21 -68 -25 1 -82 56 -75 74 9 22 30 20 54
-6z m-3408 -13 c11 -11 -12 -35 -33 -35 -28 0 -40 14 -32 37 5 11 13 13 34 8
15 -4 29 -8 31 -10z m951 -15 c0 -10 -6 -23 -14 -27 -18 -11 -36 -47 -36 -72
0 -13 8 -23 24 -27 45 -11 42 -52 -10 -113 l-27 -33 26 -24 c23 -21 25 -28 16
-53 -6 -16 -19 -37 -29 -46 -10 -9 -16 -23 -13 -31 9 -25 -6 -60 -32 -72 -29
-13 -30 -21 -12 -47 14 -18 21 -18 90 10 26 11 22 -21 -8 -56 -28 -34 -24 -56
13 -70 21 -8 24 -14 19 -45 -3 -19 -3 -42 0 -50 6 -16 53 -19 53 -3 0 6 6 9
13 7 8 -3 14 -50 18 -164 4 -87 10 -182 14 -210 5 -38 4 -54 -6 -59 -8 -6 -17
-2 -23 10 -6 10 -32 40 -58 66 -37 38 -49 58 -58 102 -8 39 -18 60 -35 71 -25
17 -33 53 -39 186 -3 67 -26 129 -49 131 -6 1 -20 0 -30 -1 -36 -3 -72 155
-42 180 13 11 19 11 32 -3 14 -13 14 -19 3 -32 -11 -13 -9 -19 10 -40 13 -14
29 -25 36 -25 19 0 23 24 8 45 -16 22 -19 55 -4 55 5 0 17 12 26 26 16 23 16
28 1 60 -21 42 -34 43 -75 3 -20 -20 -39 -30 -51 -26 -10 2 -25 0 -34 -4 -10
-6 -21 -4 -31 6 -32 32 10 65 81 65 50 0 114 20 141 43 26 24 28 56 6 103 -16
33 -16 36 9 72 14 20 33 54 42 75 16 40 35 49 35 17z m-790 -10 c22 -14 -1
-32 -36 -28 -40 4 -47 38 -7 38 15 0 35 -5 43 -10z m895 -124 c-8 -42 -24 -50
-18 -8 7 39 13 56 19 49 3 -3 2 -21 -1 -41z m-865 14 c0 -11 -6 -20 -14 -20
-18 0 -29 16 -21 30 11 18 35 11 35 -10z m3312 -81 c20 -16 42 -29 48 -29 13
0 41 -62 32 -71 -4 -4 -19 -9 -33 -13 -20 -4 -32 0 -49 19 -13 14 -34 25 -46
25 -33 0 -62 41 -56 80 4 29 7 31 36 25 17 -4 48 -20 68 -36z m-2712 16 c0 -9
-8 -18 -17 -21 -10 -3 -26 -10 -35 -15 -31 -16 -50 -11 -46 13 5 33 98 54 98
23z m-210 -50 c10 -12 10 -18 0 -30 -16 -19 -30 -10 -30 21 0 27 12 31 30 9z
m598 -112 c66 -77 51 -97 -19 -27 -36 36 -49 57 -49 79 0 16 4 25 8 20 5 -6
32 -38 60 -72z m1185 66 c40 -6 79 -17 88 -25 8 -8 23 -14 31 -14 9 0 39 -11
66 -25 28 -14 57 -25 66 -25 35 0 132 -45 170 -80 25 -22 55 -39 76 -43 45 -7
200 -80 222 -104 28 -31 32 -66 8 -81 -18 -11 -22 -9 -41 23 -19 32 -63 55
-105 55 -6 0 -17 6 -23 14 -21 25 -70 30 -92 10 -23 -21 -38 -10 -55 39 -14
42 -93 97 -141 97 -38 0 -62 10 -113 50 -39 31 -144 66 -137 47 2 -7 24 -23
49 -37 25 -14 62 -38 82 -53 27 -21 44 -27 61 -23 50 13 125 -38 186 -125 16
-23 88 -41 163 -39 34 1 45 -6 94 -55 43 -43 62 -55 81 -53 38 4 36 -37 -2
-60 -29 -17 -29 -17 -54 15 -22 28 -28 31 -48 21 -21 -9 -27 -7 -50 21 -17 19
-36 31 -51 31 -24 0 -23 -2 16 -38 43 -42 48 -53 26 -71 -11 -9 -24 -1 -64 39
-67 66 -94 76 -132 49 -46 -35 -77 -9 -50 42 8 15 7 23 -5 35 -20 21 -19 29 8
47 21 14 21 17 7 43 -19 34 -31 41 -101 54 -32 6 -77 25 -104 43 -27 18 -60
40 -75 50 -24 15 -172 32 -268 30 -18 -1 -22 4 -20 21 3 19 9 21 85 21 88 0
102 5 77 26 -11 9 -39 13 -86 11 -59 -2 -76 -6 -113 -32 -24 -16 -45 -35 -48
-42 -9 -25 -19 1 -12 31 5 23 14 33 33 37 15 3 36 9 47 14 49 22 143 25 248 9z
m954 -62 c7 -7 9 -18 4 -25 -7 -12 -18 -11 -64 0 -49 13 -58 13 -70 0 -17 -17
-57 -8 -57 13 0 8 15 17 38 20 20 4 44 8 52 10 25 5 84 -6 97 -18z m53 -17 c0
-5 -4 -10 -9 -10 -6 0 -13 5 -16 10 -3 6 1 10 9 10 9 0 16 -4 16 -10z m-2360
-50 c-5 -10 -10 -30 -10 -44 0 -14 -4 -26 -9 -26 -17 0 -22 18 -12 42 5 13 12
31 15 41 3 10 10 15 16 12 7 -4 7 -12 0 -25z m1290 -2 c85 -3 86 -3 136 -46
49 -43 152 -94 186 -94 28 1 32 -17 13 -52 -23 -42 -15 -75 30 -125 19 -21 35
-43 35 -49 0 -16 -27 -22 -62 -11 -49 14 -89 11 -110 -8 -35 -32 -19 -55 24
-32 37 20 91 17 134 -8 22 -13 46 -23 52 -23 6 0 12 21 14 47 2 37 7 49 22 51
30 6 42 -15 21 -38 -16 -18 -17 -25 -6 -60 9 -29 18 -41 37 -46 28 -7 54 10
54 37 0 23 -16 25 -24 4 -3 -8 -10 -15 -16 -15 -15 0 -12 26 5 40 9 7 15 20
13 29 -1 9 2 18 7 21 6 3 20 -28 33 -67 23 -72 24 -73 55 -70 47 3 50 -34 5
-78 -45 -45 -78 -109 -78 -150 0 -30 8 -44 80 -137 17 -22 19 -31 10 -48 -15
-27 -20 -26 -63 18 -38 39 -57 84 -57 134 0 53 -34 27 -45 -34 -7 -35 -4 -41
39 -82 43 -43 59 -76 36 -76 -23 0 -68 30 -85 56 -23 35 -32 151 -16 183 10
17 10 26 0 37 -16 20 -37 1 -45 -42 -7 -39 -29 -45 -40 -11 -4 12 -12 25 -18
29 -20 14 -63 8 -86 -10 -28 -23 -22 -44 25 -94 41 -43 44 -52 11 -44 -34 8
-73 -8 -81 -35 l-7 -22 -18 23 c-17 22 -21 23 -44 11 -18 -10 -34 -11 -58 -5
-34 10 -52 44 -24 44 16 0 23 19 9 21 -75 7 -85 49 -12 49 24 0 40 5 41 13 1
15 2 21 12 72 5 31 2 49 -14 80 -25 49 -25 59 1 102 26 42 14 64 -22 39 -37
-26 -75 -21 -88 12 -7 15 -23 47 -36 72 -13 25 -24 57 -24 72 -1 41 -11 58
-35 58 -29 0 -66 27 -66 49 0 9 -18 35 -41 56 -50 50 -73 95 -65 132 l7 28 77
-2 c42 -2 115 -4 162 -5z m1260 -38 c19 -26 26 -50 16 -50 -35 0 -95 58 -82
79 10 16 45 0 66 -29z m280 10 c0 -5 -7 -10 -15 -10 -8 0 -15 5 -15 10 0 6 7
10 15 10 8 0 15 -4 15 -10z m-3686 -32 c16 -26 -1 -36 -69 -40 -51 -3 -60 0
-63 15 -2 10 2 25 9 33 17 21 108 15 123 -8z m1076 -58 c13 -24 23 -25 44 -5
21 22 31 0 16 -36 -12 -28 -14 -29 -36 -14 -13 8 -30 15 -38 15 -14 0 -26 20
-26 46 0 21 28 17 40 -6z m2852 -72 c37 -14 78 -45 78 -59 0 -4 -17 -6 -37 -5
-28 1 -48 11 -75 36 -21 18 -38 38 -38 43 0 10 10 8 72 -15z m-2661 -28 c22
-12 26 -40 5 -40 -19 0 -48 29 -41 41 8 11 12 11 36 -1z m2531 -32 c27 -8 38
-16 36 -27 -2 -10 -12 -15 -23 -13 -11 2 -44 6 -72 9 -58 6 -73 29 -25 36 15
2 31 5 36 6 5 0 26 -4 48 -11z m-3927 -27 c0 -18 -40 -29 -135 -36 -108 -8
-212 -26 -235 -42 -25 -17 -35 -17 -35 0 0 24 34 46 85 57 28 5 79 16 115 24
84 19 205 17 205 -3z m285 0 c22 -4 36 -13 38 -25 3 -16 -6 -17 -127 -13 -133
3 -159 11 -148 42 6 13 20 15 104 9 54 -3 114 -9 133 -13z m198 -38 c64 -26
27 -54 -47 -34 -54 14 -66 24 -58 45 7 17 46 13 105 -11z m3828 -29 c34 -53
35 -57 20 -79 -19 -29 -20 -52 -3 -58 9 -3 9 -8 -2 -18 -8 -8 -15 -10 -17 -4
-2 6 -17 37 -34 69 -21 44 -26 64 -19 77 5 10 9 29 9 43 0 14 2 26 5 26 3 0
21 -25 41 -56z m-2978 2 c3 -12 -1 -17 -10 -14 -7 3 -15 13 -16 22 -3 12 1 17
10 14 7 -3 15 -13 16 -22z m2599 3 c24 -11 43 -25 43 -29 0 -15 -20 -22 -38
-15 -43 19 -127 -9 -201 -67 -13 -10 -30 -18 -37 -18 -22 0 -27 21 -10 38 13
13 180 108 195 111 3 1 24 -8 48 -20z m-2781 -326 c-2 -184 -8 -329 -13 -330
-5 -2 -10 27 -10 64 -1 38 -6 88 -12 113 -5 25 -7 95 -5 155 3 61 7 146 8 190
2 84 12 135 27 135 4 0 6 -147 5 -327z m905 287 c13 -22 27 -40 33 -40 5 0 20
-10 33 -22 13 -12 31 -23 39 -24 35 -5 74 -27 79 -44 3 -10 17 -25 30 -34 14
-9 25 -26 25 -38 l0 -21 -22 21 c-15 13 -46 25 -85 31 -68 11 -104 29 -145 74
-23 26 -26 37 -23 81 5 72 5 72 36 16z m2052 18 c30 -16 46 -39 47 -65 0 -14
6 -23 15 -23 8 0 15 -4 15 -9 0 -5 18 -26 39 -47 22 -20 50 -57 63 -81 15 -30
34 -49 57 -59 23 -10 31 -18 27 -29 -3 -9 -1 -48 4 -88 9 -62 14 -76 42 -99
l31 -27 -28 -66 c-31 -75 -33 -109 -20 -331 4 -78 5 -150 1 -160 -17 -42 -29
-667 -14 -716 8 -29 8 -41 -2 -53 -8 -9 -11 -39 -9 -82 5 -131 2 -439 -5 -558
-5 -66 -9 -163 -11 -215 -1 -52 -8 -128 -15 -168 -8 -52 -9 -86 -2 -120 22
-100 12 -453 -18 -647 -15 -96 -10 -319 7 -349 3 -4 7 -187 9 -405 2 -218 6
-434 10 -481 4 -47 8 -285 9 -530 2 -367 -1 -453 -13 -490 -8 -24 -15 -53 -17
-65 -6 -50 -18 -76 -28 -66 -35 35 -61 -3 -73 -109 -7 -65 -3 -62 -84 -64 -24
-1 -25 -4 -22 -49 2 -26 -1 -53 -6 -60 -5 -7 -9 -30 -8 -52 1 -39 2 -40 38
-43 20 -2 46 2 57 7 20 11 31 -2 31 -39 0 -17 -6 -18 -71 -13 l-71 6 7 -49 c4
-27 11 -53 16 -58 12 -14 76 -11 94 4 22 18 35 3 35 -40 0 -39 -13 -60 -25
-40 -3 5 -32 10 -63 10 -55 0 -58 2 -69 30 -11 30 -11 30 -82 26 -39 -2 -73
-5 -75 -7 -2 -2 -1 -19 1 -37 6 -39 31 -52 99 -52 24 0 44 -4 44 -10 0 -10
-42 -19 -115 -23 l-50 -3 4 -40 c4 -52 6 -54 54 -54 46 0 120 29 133 52 5 8
38 21 72 30 70 17 76 13 70 -39 -3 -27 -6 -28 -73 -36 -85 -11 -98 -20 -89
-61 10 -50 25 -59 83 -51 28 4 53 11 57 16 3 5 12 9 20 9 10 0 14 -13 14 -46
l0 -45 -59 2 c-75 3 -93 -9 -80 -54 13 -47 11 -57 -11 -57 -12 0 -24 10 -29
24 -10 26 -37 41 -46 26 -4 -6 -33 -10 -65 -10 -32 0 -61 -4 -64 -8 -2 -4 -2
-27 1 -50 5 -38 9 -42 39 -48 21 -4 53 0 83 10 63 20 61 20 61 -7 0 -38 -19
-47 -96 -47 -40 0 -75 -4 -79 -9 -3 -6 0 -28 7 -50 13 -41 13 -41 63 -41 27 0
62 6 76 14 30 15 100 8 107 -12 2 -7 -2 -10 -10 -7 -25 10 -68 -13 -68 -35 0
-40 34 -60 105 -60 l65 0 0 -30 c0 -35 -6 -37 -40 -10 -17 14 -41 20 -78 20
-58 0 -66 -8 -54 -55 8 -29 11 -30 85 -39 70 -8 78 -12 83 -33 8 -29 -2 -41
-18 -25 -7 7 -43 12 -90 12 l-78 0 -14 35 c-16 38 -26 40 -99 28 -38 -6 -39
-6 -32 -42 10 -55 24 -65 75 -51 46 12 54 9 74 -32 10 -19 20 -23 61 -24 28 0
65 5 82 12 31 12 33 12 39 -12 4 -14 5 -26 3 -28 -2 -2 -44 -6 -94 -9 l-90 -6
-15 31 c-14 29 -18 31 -75 32 -58 1 -60 0 -57 -24 1 -14 7 -35 14 -48 10 -18
9 -24 -6 -35 -14 -10 -17 -21 -12 -45 4 -17 13 -35 20 -41 19 -16 114 7 127
31 11 21 39 24 39 4 0 -7 -9 -16 -21 -19 -15 -4 -19 -12 -17 -34 3 -28 3 -28
-52 -25 -73 3 -82 -3 -64 -49 14 -34 17 -35 62 -35 35 1 47 -3 47 -14 0 -11
-11 -14 -47 -11 -52 3 -57 -4 -38 -55 9 -23 15 -26 40 -20 17 3 30 1 30 -4 0
-19 -43 -91 -61 -104 -21 -14 -17 -42 9 -61 8 -7 12 -24 10 -45 -3 -30 -7 -35
-29 -36 -44 -2 -58 -11 -52 -33 6 -22 11 -24 55 -21 55 3 39 -35 -17 -42 -22
-2 -30 -8 -30 -23 0 -16 8 -21 38 -23 29 -3 37 -7 35 -20 -2 -12 -18 -19 -52
-24 -57 -8 -64 -13 -49 -36 11 -18 24 -20 59 -8 27 8 56 -18 52 -48 -2 -16
-10 -21 -33 -22 -89 -2 -95 -4 -95 -23 0 -20 25 -31 71 -31 15 0 37 -9 50 -19
30 -24 20 -28 -72 -33 l-66 -4 -7 91 c-3 49 -8 218 -11 375 -7 434 -14 687
-20 769 -6 79 -26 141 -45 141 -16 0 -49 -41 -50 -60 0 -12 -9 -15 -38 -12
-42 4 -66 -14 -60 -45 3 -17 10 -19 86 -22 20 -1 23 -6 20 -33 -3 -31 -6 -33
-50 -38 -53 -7 -63 -13 -55 -34 4 -9 22 -16 48 -18 72 -5 57 -24 -18 -24 -53
1 -68 -2 -70 -14 -6 -30 13 -40 83 -43 67 -3 69 -4 66 -27 -6 -40 -21 -50 -73
-50 -26 0 -51 -4 -54 -10 -10 -16 14 -50 35 -50 11 0 20 -5 20 -11 0 -8 -14
-10 -44 -6 -32 5 -47 2 -56 -8 -18 -21 5 -45 42 -45 35 0 121 -48 112 -62 -5
-7 -35 -8 -84 -4 -66 5 -79 4 -84 -10 -3 -8 -1 -24 5 -35 8 -17 18 -19 60 -15
27 2 52 0 55 -5 3 -5 14 -9 25 -9 11 0 19 -7 19 -16 0 -13 -6 -15 -27 -10 -28
7 -155 8 -162 1 -2 -2 0 -16 3 -30 6 -23 11 -26 46 -23 27 1 46 -4 57 -15 16
-16 13 -17 -55 -17 -57 0 -74 -3 -79 -16 -10 -26 15 -39 77 -40 33 -1 66 -6
74 -13 7 -6 24 -10 37 -9 21 3 24 -2 27 -31 3 -31 2 -33 -20 -27 -13 4 -51 8
-85 10 -76 5 -93 -9 -63 -47 17 -21 27 -25 50 -20 18 3 36 0 45 -7 30 -25 15
-32 -55 -26 -73 5 -86 -1 -75 -34 5 -17 15 -20 58 -20 62 0 126 -21 139 -45
17 -29 -5 -39 -43 -19 -40 21 -199 27 -206 8 -7 -20 27 -44 63 -44 19 0 62 -9
95 -20 43 -15 65 -18 73 -11 10 9 15 -10 24 -84 15 -115 15 -185 2 -185 -5 0
-10 4 -10 10 0 35 -214 58 -226 25 -10 -26 15 -46 50 -40 42 7 90 -7 94 -29 3
-16 -3 -17 -60 -14 -61 3 -63 2 -63 -22 0 -23 4 -25 63 -30 58 -5 81 -17 82
-43 0 -4 -30 -5 -66 -1 l-66 6 4 -29 c3 -24 7 -28 35 -28 17 0 35 -3 39 -7 4
-5 15 -8 25 -8 10 0 22 -6 26 -13 4 -8 16 -17 26 -20 10 -4 16 -11 12 -16 -3
-6 -18 -5 -38 3 -49 20 -125 26 -138 10 -16 -19 6 -54 35 -54 12 0 36 -11 52
-25 16 -14 39 -28 52 -31 20 -6 22 -12 22 -83 0 -42 3 -93 7 -115 5 -31 3 -38
-8 -34 -10 3 -14 23 -14 69 -1 129 -65 189 -201 189 -35 0 -73 -5 -84 -12 -32
-20 -37 1 -6 26 40 31 30 51 -25 51 -43 0 -44 1 -47 35 l-3 36 39 -4 c48 -5
56 6 69 88 12 79 2 183 -22 230 -22 43 -31 50 -72 50 l-33 0 0 53 c0 63 6 72
47 81 30 7 32 11 38 59 4 29 5 68 3 87 -3 33 -5 35 -38 36 -38 1 -37 -4 -24
80 7 45 -15 79 -46 71 -9 -2 -22 3 -27 12 -13 20 -95 41 -140 35 -37 -4 -44
10 -14 26 29 15 63 12 91 -9 18 -15 29 -17 43 -9 12 6 28 6 47 0 39 -14 65 6
79 64 11 42 10 50 -7 73 -16 22 -18 35 -11 91 8 74 1 90 -42 90 -15 0 -43 9
-61 19 -18 10 -59 22 -91 26 -47 5 -58 10 -55 23 3 13 12 16 43 14 22 -2 50
-10 62 -18 16 -10 29 -11 48 -4 50 19 19 41 -104 74 -46 12 -56 22 -43 43 6
10 22 10 72 1 54 -10 66 -16 79 -42 29 -54 48 -67 76 -54 20 9 25 18 25 50 0
22 -7 62 -17 90 l-16 50 -40 -5 c-26 -4 -47 -14 -58 -28 -9 -13 -21 -19 -28
-15 -7 4 -33 11 -59 14 -42 6 -47 10 -50 35 -4 37 15 42 82 23 64 -19 92 -20
102 -4 15 24 -41 55 -115 62 -65 7 -71 9 -71 30 0 33 6 35 55 20 38 -11 47
-11 59 2 29 28 -7 57 -84 66 -19 2 -26 10 -28 31 -3 26 -2 27 48 27 43 0 51 3
48 17 -3 18 -32 35 -83 50 -20 6 -31 16 -33 31 -5 31 19 37 74 18 51 -17 64
-14 64 13 0 27 -19 39 -75 48 -42 7 -51 12 -53 32 -3 20 -1 22 20 16 13 -4 31
-13 41 -20 21 -15 67 -8 74 12 11 29 -27 53 -84 53 -47 0 -54 3 -51 18 3 13
12 16 37 14 59 -4 81 38 41 78 -26 26 -25 30 4 30 45 0 46 73 3 89 -61 23 -67
23 -75 0 -6 -14 -13 50 -22 182 -7 112 -15 222 -16 244 -2 22 -6 123 -8 224
-4 173 -6 184 -26 198 -30 21 -46 10 -54 -37 l-7 -42 -43 6 c-54 8 -65 -9 -39
-63 14 -27 24 -36 43 -36 24 0 25 -3 22 -50 -2 -28 -11 -58 -20 -68 -13 -15
-14 -23 -3 -53 9 -26 10 -38 1 -49 -8 -10 -6 -24 9 -57 21 -46 25 -96 37 -458
3 -102 8 -188 10 -191 2 -4 1 -21 -2 -38 -6 -27 -10 -30 -38 -28 -25 2 -31 -2
-31 -18 0 -14 8 -21 28 -23 29 -4 60 -42 33 -42 -7 0 -27 7 -42 15 -26 13 -30
13 -41 -2 -7 -9 -13 -25 -13 -36 0 -15 5 -18 21 -14 39 10 67 -11 71 -57 6
-48 3 -53 -17 -36 -9 8 -13 21 -9 36 5 20 2 24 -17 24 -13 0 -33 3 -44 6 -18
4 -20 0 -21 -37 -1 -23 -7 -45 -14 -49 -36 -23 45 -80 86 -61 13 6 24 18 24
27 0 8 5 14 12 12 21 -7 19 -26 -6 -54 -14 -16 -30 -35 -36 -42 -17 -20 -34
-14 -72 23 -33 34 -36 40 -41 118 -3 45 -6 223 -6 395 0 173 -3 333 -6 355
-13 102 -29 432 -25 532 2 39 3 97 2 130 0 33 -1 123 -2 199 0 77 -5 160 -11
186 -5 26 -11 64 -13 86 -6 75 -19 126 -33 131 -9 4 -25 -6 -39 -23 l-24 -29
5 -235 c3 -129 7 -365 10 -525 3 -271 9 -377 20 -396 3 -4 8 -223 11 -486 3
-263 7 -483 9 -490 2 -7 33 -31 70 -53 36 -23 65 -45 65 -49 0 -13 -87 -3
-118 13 -28 14 -32 14 -46 0 -21 -21 -20 -67 2 -87 34 -31 161 -67 249 -71 48
-2 78 -21 50 -32 -9 -3 -31 -1 -49 4 -50 16 -141 23 -156 14 -20 -13 -33 -83
-20 -100 15 -17 -5 -32 -44 -32 -16 0 -28 -5 -28 -11 0 -24 36 -70 67 -84 42
-20 48 -32 23 -45 -17 -9 -27 -8 -45 4 -14 9 -37 16 -53 16 -15 0 -37 6 -47
14 -17 12 -19 30 -21 170 -1 86 -7 170 -12 188 -6 18 -13 85 -17 148 -4 63 -9
133 -11 155 -1 22 -5 186 -8 365 -7 365 -13 489 -26 540 -7 30 -12 90 -25 300
-2 19 -6 116 -9 215 -8 209 -13 329 -21 475 -4 58 -6 133 -5 167 0 35 -5 91
-11 125 -7 35 -13 110 -15 168 -9 323 -22 516 -38 554 -9 22 -19 69 -21 105
-3 36 -10 117 -16 179 -11 106 -10 150 7 281 7 59 -18 224 -42 276 -9 19 -14
65 -14 125 -1 52 -3 136 -6 186 l-5 91 30 6 c28 6 31 10 30 44 -1 21 -4 52 -8
68 -8 37 6 125 23 143 15 16 43 6 51 -18 9 -29 23 -212 19 -245 -4 -31 9 -278
27 -515 6 -74 14 -196 19 -270 5 -74 12 -153 15 -175 3 -22 12 -96 20 -165 8
-69 19 -161 25 -205 5 -44 12 -114 14 -155 7 -103 34 -250 51 -277 14 -21 69
-43 107 -43 16 0 38 27 38 48 0 5 -12 21 -26 35 -26 26 -50 107 -59 202 -23
225 -30 293 -60 531 -18 146 -18 144 -1 144 7 0 19 7 27 16 10 13 9 24 -6 66
-10 30 -18 81 -19 122 -1 58 3 78 23 109 19 32 22 45 16 80 -4 23 -9 65 -11
92 -2 28 -8 82 -12 120 -5 39 -7 99 -5 135 2 36 4 99 6 140 l2 75 39 0 c22 0
41 5 43 10 13 39 41 80 56 83 37 7 48 -16 42 -92 -12 -156 -12 -183 6 -287 18
-103 36 -326 44 -548 2 -57 9 -126 15 -155 5 -28 14 -109 20 -181 14 -202 37
-334 70 -410 5 -11 16 -38 26 -60 51 -123 64 -144 92 -147 29 -3 31 -10 61
-209 15 -94 57 -261 74 -295 30 -58 79 -78 121 -48 11 7 24 14 27 14 4 0 10
-28 14 -62 8 -68 66 -256 109 -352 14 -32 26 -62 26 -66 0 -19 101 -218 125
-245 14 -17 31 -43 38 -58 7 -15 42 -47 79 -72 57 -39 70 -44 92 -35 35 13 33
33 -8 83 -38 48 -168 310 -187 377 -7 25 -16 50 -19 55 -17 23 -105 236 -127
305 -38 122 -75 210 -88 210 -6 0 -22 -11 -35 -25 -28 -30 -50 -32 -50 -6 0
11 -9 41 -21 68 -22 49 -37 121 -65 298 -9 55 -24 129 -34 165 -11 36 -33 121
-50 190 -16 69 -41 167 -55 219 -13 51 -31 150 -40 220 -8 69 -18 144 -21 166
-3 22 -7 78 -10 125 -3 47 -9 103 -14 124 -5 22 -7 43 -5 47 3 4 -7 69 -21
145 -14 77 -29 169 -34 206 -5 37 -18 95 -29 130 -27 84 -52 240 -40 252 14
16 30 -7 36 -52 5 -34 10 -42 32 -47 37 -8 113 -4 134 7 31 16 17 49 -27 65
-22 7 -42 16 -45 19 -3 3 -6 66 -7 140 -1 120 -3 136 -20 149 -31 23 -44 18
-65 -30 -23 -52 -39 -58 -39 -15 0 45 -31 60 -108 53 -68 -6 -79 -15 -68 -59
6 -22 10 -25 36 -19 42 9 47 -12 18 -71 -21 -44 -27 -49 -59 -52 -33 -3 -37 0
-49 30 -20 48 -71 99 -97 96 -25 -3 -63 28 -63 53 0 13 9 19 37 21 20 2 38 8
40 14 7 21 -28 45 -61 43 -60 -4 -81 1 -94 22 -12 18 -12 24 0 35 10 10 22 10
56 1 36 -10 45 -9 52 3 6 8 10 17 10 20 0 8 -60 40 -75 40 -7 0 -15 6 -18 14
-3 7 -19 16 -36 19 -27 6 -31 11 -31 38 l0 31 61 -4 61 -4 -8 25 c-3 14 -7 50
-7 79 0 60 -14 71 -19 15 l-3 -38 -47 0 c-32 -1 -49 4 -53 13 -5 13 -25 215
-25 255 0 9 -11 22 -24 29 -31 14 -38 29 -41 101 -2 32 -8 64 -15 72 -6 8 -9
27 -5 47 3 18 6 42 5 53 0 11 -4 130 -9 265 -4 135 -11 255 -14 266 -3 12 -10
39 -16 60 -13 45 -15 124 -3 124 4 0 29 -20 55 -45 33 -33 47 -54 47 -73 0
-15 4 -43 10 -62 5 -19 17 -129 25 -245 20 -265 38 -415 59 -485 9 -30 16 -80
16 -110 0 -42 6 -64 25 -92 14 -20 25 -44 25 -52 0 -8 9 -17 20 -21 10 -3 29
-22 40 -41 56 -89 98 9 46 106 -13 25 -27 65 -31 90 -4 25 -13 48 -19 52 -8 6
-8 12 0 25 8 14 8 20 -3 28 -9 7 -13 30 -13 70 1 93 1 103 -10 171 -12 73 -24
306 -24 469 0 82 4 118 16 143 14 28 15 32 1 32 -8 0 -27 8 -41 19 -17 11 -54
21 -97 25 -94 10 -150 37 -178 88 -38 70 -43 76 -78 113 -37 38 -48 41 -112
23 -34 -9 -49 -8 -72 3 -35 18 -54 44 -39 59 18 18 127 41 179 38 39 -2 50 0
50 12 0 12 -22 15 -125 18 -68 1 -128 6 -133 11 -5 5 -6 26 -3 45 l7 36 77 1
c42 1 88 3 102 4 14 2 33 -2 44 -7 26 -14 42 5 21 26 -20 19 -43 20 -151 4
-64 -9 -89 -9 -109 0 -28 13 -48 51 -34 66 20 22 91 38 182 41 54 1 101 5 104
9 3 3 3 13 -1 22 -5 14 -16 15 -74 9 -37 -4 -92 -7 -124 -6 -40 1 -61 -3 -73
-15 -12 -13 -19 -14 -28 -5 -8 8 -8 22 3 53 14 40 18 43 70 55 102 23 182 26
221 9 73 -31 183 -168 214 -266 14 -43 135 -190 161 -195 13 -3 35 -7 49 -10
37 -8 45 -32 29 -90 -18 -67 -17 -158 1 -202 11 -27 15 -78 15 -212 1 -97 5
-196 10 -221 6 -34 4 -52 -7 -74 -10 -20 -13 -43 -9 -75 4 -25 9 -115 12 -199
5 -138 8 -153 26 -163 26 -14 341 -17 359 -3 8 6 33 16 57 24 63 20 66 28 41
106 -12 38 -23 74 -24 80 -2 7 -25 10 -61 8 -31 -2 -64 1 -73 5 -9 5 -29 11
-46 14 -16 3 -43 8 -60 12 -16 3 -66 7 -110 8 l-80 2 0 90 c0 53 4 90 10 90 6
0 9 -15 7 -32 -3 -26 0 -33 15 -33 10 0 30 -6 44 -14 39 -20 114 -34 212 -39
76 -4 89 -3 97 13 13 24 -17 50 -57 50 -58 0 -94 12 -91 29 2 9 14 16 28 17
14 0 38 4 53 8 17 4 34 2 42 -4 10 -8 16 -7 24 7 15 28 26 7 40 -76 6 -41 14
-77 17 -80 3 -3 17 1 31 9 18 10 31 31 40 63 29 100 49 31 39 -139 -3 -61 -11
-136 -17 -165 -22 -101 10 -432 44 -466 8 -9 23 -13 32 -10 14 6 14 9 0 37
-22 43 -36 120 -41 239 -4 103 0 141 16 141 4 0 11 -12 15 -27 8 -30 26 -197
30 -276 3 -59 11 -69 26 -31 11 29 3 146 -21 324 -4 36 -5 103 -2 150 12 150
7 273 -13 306 -16 28 -16 35 -1 115 9 50 14 110 11 146 -5 60 -43 165 -65 178
-5 3 -24 -7 -41 -24 -27 -27 -30 -35 -25 -73 18 -136 16 -258 -4 -258 -24 0
-55 399 -33 421 4 4 26 2 48 -6 22 -8 48 -14 57 -15 10 0 22 -9 28 -20 6 -11
29 -32 51 -46 22 -13 44 -36 49 -49 10 -26 24 -32 35 -15 4 6 15 8 25 5 24 -8
79 56 82 95 1 17 2 43 3 59 4 53 22 64 55 31 30 -30 41 -28 55 10 8 22 18 34
28 34 18 -2 26 18 23 56 -7 84 -21 149 -37 176 -30 49 -24 77 31 150 57 76 63
100 25 90 -14 -4 -30 -4 -35 -1 -12 8 14 55 50 89 32 30 70 95 70 120 0 27 34
74 65 90 16 9 48 27 70 40 23 14 72 30 113 37 56 9 75 17 81 31 5 15 56 58 69
58 2 0 13 -5 25 -12z m-935 -66 c2 -14 -2 -22 -12 -22 -19 0 -29 17 -22 36 8
22 30 12 34 -14z m-1912 7 c10 -17 -13 -36 -27 -22 -12 12 -4 33 11 33 5 0 12
-5 16 -11z m1761 -45 c3 -49 -17 -120 -55 -198 -21 -43 -18 -79 7 -74 9 2 18
17 22 38 3 19 13 50 23 68 20 39 38 121 38 175 0 42 4 44 30 20 27 -24 23 -82
-9 -129 -44 -65 -72 -136 -66 -167 6 -31 25 -41 104 -58 42 -9 47 -13 52 -42
3 -18 1 -36 -3 -41 -15 -15 -40 3 -40 29 0 14 -4 25 -10 25 -5 0 -10 -4 -10
-10 0 -17 -21 -11 -52 15 -26 22 -36 25 -77 19 -37 -5 -49 -2 -63 13 -15 16
-15 23 -3 71 9 35 27 68 51 94 35 40 36 42 34 117 -3 93 -3 94 13 89 7 -3 13
-25 14 -54z m-3357 27 c0 -14 -18 -23 -30 -16 -6 4 -8 11 -5 16 8 12 35 12 35
0z m3257 -13 c-3 -8 -6 -5 -6 6 -1 11 2 17 5 13 3 -3 4 -12 1 -19z m326 -42
c9 -19 14 -36 11 -38 -2 -3 -20 0 -39 6 -36 11 -47 40 -24 63 17 17 34 6 52
-31z m-1433 14 c0 -5 -5 -10 -11 -10 -5 0 -7 5 -4 10 3 6 8 10 11 10 2 0 4 -4
4 -10z m-1747 -9 c11 -2 8 -146 -4 -158 -16 -16 -51 -4 -44 16 3 10 -11 35
-39 66 -38 44 -45 48 -60 36 -14 -12 -13 -17 14 -48 35 -40 38 -59 9 -66 -16
-4 -26 5 -50 44 -17 27 -37 49 -45 49 -19 0 -30 -28 -15 -43 16 -16 14 -44 -4
-51 -19 -7 -35 23 -35 66 0 51 17 66 85 74 33 3 61 9 63 13 2 6 90 7 125 2z
m227 -30 c0 -10 -7 -24 -14 -31 -8 -6 -20 -27 -26 -46 -18 -55 -38 -44 -33 19
6 73 9 77 43 77 23 0 30 -5 30 -19z m1436 9 c34 0 43 -4 52 -25 10 -23 9 -29
-11 -48 -13 -12 -29 -32 -36 -45 -11 -21 -13 -21 -41 -7 -16 8 -36 15 -45 15
-9 0 -15 6 -13 13 3 6 25 13 50 15 36 2 47 7 51 23 7 28 -26 43 -79 35 -25 -3
-44 -2 -44 4 0 15 33 30 55 25 11 -3 38 -5 61 -5z m-1956 -29 c0 -5 -7 -12
-16 -15 -14 -5 -15 -4 -4 9 14 17 20 19 20 6z m570 -46 c0 -49 -19 -75 -56
-75 -29 0 -30 13 -6 48 10 15 24 39 31 54 19 37 31 26 31 -27z m968 25 c28
-23 21 -46 -9 -29 -11 6 -33 7 -50 4 -23 -5 -29 -3 -29 10 0 14 30 33 55 34 6
0 20 -8 33 -19z m-771 -6 c7 -18 -12 -64 -27 -64 -11 0 -14 63 -3 73 11 12 23
8 30 -9z m991 -9 c14 -31 16 -65 3 -65 -5 0 -11 12 -14 28 -3 15 -9 35 -12 45
-11 27 10 20 23 -8z m1636 -14 c18 -40 19 -72 1 -78 -13 -4 -63 88 -58 105 9
26 40 12 57 -27z m-3464 19 c0 -5 -4 -10 -10 -10 -5 0 -10 5 -10 10 0 6 5 10
10 10 6 0 10 -4 10 -10z m3601 -37 c17 -45 8 -67 -28 -70 -18 -2 -34 1 -37 5
-7 12 31 92 44 92 6 0 15 -12 21 -27z m-3557 2 c-4 -8 -12 -15 -20 -15 -8 0
-14 7 -14 15 0 8 9 15 20 15 13 0 18 -5 14 -15z m3756 -52 c22 -28 19 -37 -17
-48 -21 -6 -23 -3 -23 34 0 48 10 51 40 14z m-372 -17 c2 -10 -1 -23 -6 -28
-12 -12 -36 27 -27 43 10 15 29 5 33 -15z m-3152 -13 c-10 -10 -19 5 -10 18 6
11 8 11 12 0 2 -7 1 -15 -2 -18z m1312 7 c6 0 12 -7 12 -15 0 -8 -6 -15 -12
-16 -7 0 -25 -3 -40 -5 -22 -4 -28 -1 -28 14 0 26 11 34 35 28 11 -3 26 -6 33
-6z m412 -35 c0 -16 -12 -18 -47 -9 -27 7 -30 31 -5 37 23 5 52 -10 52 -28z
m-1650 0 c0 -15 -6 -25 -14 -25 -22 0 -30 19 -16 35 18 22 30 18 30 -10z m229
11 c9 -10 5 -20 -16 -45 -35 -39 -43 -39 -43 2 0 50 33 74 59 43z m-292 -47
c15 -45 15 -46 -17 -98 -18 -29 -43 -56 -55 -61 -31 -12 -62 -2 -68 20 -3 13
-11 17 -26 13 -16 -4 -21 -1 -22 13 0 11 -2 38 -5 62 -3 23 -2 42 3 42 6 0 27
-22 49 -50 21 -27 45 -49 52 -50 19 0 14 17 -10 35 -13 8 -22 18 -20 20 6 14
0 34 -17 54 -33 38 -18 50 56 48 l66 -2 14 -46z m1623 26 c0 -14 -4 -25 -10
-25 -5 0 -10 11 -10 25 0 14 5 25 10 25 6 0 10 -11 10 -25z m1474 -2 c4 -9 4
-18 1 -21 -7 -8 -35 19 -35 34 0 17 27 7 34 -13z m128 2 c-3 -20 0 -25 15 -25
27 0 34 -9 21 -30 -9 -14 -7 -25 10 -52 26 -41 28 -68 7 -68 -9 0 -27 -7 -41
-16 -31 -21 -41 -12 -21 20 15 22 15 28 -1 73 -10 27 -23 48 -29 46 -24 -8
-22 17 4 46 35 37 42 38 35 6z m-2862 -29 c0 -13 -12 -31 -30 -44 -35 -26 -41
-57 -10 -47 27 9 39 -1 33 -26 -5 -17 -11 -19 -37 -13 -17 4 -42 7 -56 8 -39
2 -31 28 30 95 56 61 70 67 70 27z m560 13 c0 -11 -4 -17 -10 -14 -5 3 -10 13
-10 21 0 8 5 14 10 14 6 0 10 -9 10 -21z m601 -36 c2 -86 0 -94 -33 -127 l-31
-31 33 -6 c39 -8 50 -23 50 -66 0 -38 -3 -40 -30 -13 -11 11 -29 20 -41 20
-11 0 -34 12 -50 28 -23 21 -28 33 -24 54 7 31 -20 62 -72 79 -58 19 -33 47
32 35 21 -4 36 -14 40 -26 8 -25 54 -38 66 -19 5 8 9 28 9 46 0 44 16 83 35
83 12 0 15 -13 16 -57z m849 42 c41 -21 38 -29 -7 -21 -56 10 -73 16 -73 27 0
14 48 11 80 -6z m302 -53 c10 -15 27 -39 39 -54 18 -22 22 -38 20 -85 -2 -64
-12 -83 -35 -64 -11 10 -13 18 -6 31 6 10 10 34 10 53 0 28 -8 42 -45 76 -50
46 -58 71 -22 71 13 0 29 -11 39 -28z m-2580 -94 c0 -51 -1 -176 -1 -277 -1
-112 3 -188 9 -196 7 -8 5 -24 -6 -50 -8 -21 -14 -54 -13 -74 5 -84 -6 -81
-70 19 l-52 80 -63 0 c-39 0 -68 5 -74 13 -16 19 -19 170 -4 175 7 2 19 11 28
19 14 15 13 18 -12 38 -25 20 -29 30 -32 91 -5 93 8 111 69 96 56 -14 96 6
123 63 28 59 77 118 89 106 5 -5 9 -51 9 -103z m857 74 c1 -35 -2 -244 -5
-347 -1 -78 7 -163 26 -255 9 -43 13 -108 10 -178 -1 -18 -11 -48 -23 -66 -12
-19 -27 -42 -33 -52 -8 -14 -12 45 -17 230 -4 137 -12 279 -17 315 -5 36 -11
121 -14 189 -4 113 -3 123 15 132 10 6 19 21 19 35 0 22 17 37 32 28 4 -2 7
-16 7 -31z m783 -19 c3 -41 6 -48 28 -53 29 -7 39 -37 16 -46 -25 -9 -19 -42
11 -68 l28 -24 -18 -37 c-23 -48 -48 -44 -66 13 l-13 43 -47 -3 c-44 -3 -46
-4 -46 -33 0 -27 4 -30 33 -33 23 -2 32 -8 32 -22 0 -10 -7 -20 -15 -24 -46
-17 11 -57 75 -53 32 2 35 6 40 36 4 31 6 33 19 18 21 -27 30 -20 24 18 -8 51
11 43 25 -10 7 -25 15 -45 20 -45 4 0 8 -42 9 -94 l3 -94 -55 -7 c-31 -3 -69
-4 -85 0 -22 5 -31 2 -39 -12 -5 -11 -6 -25 -2 -31 10 -16 66 -32 112 -32 43
0 72 -20 67 -46 -3 -17 -13 -19 -97 -19 -75 0 -96 -3 -104 -16 -19 -29 -1 -48
53 -55 28 -4 53 -11 56 -16 3 -4 26 -6 51 -2 43 6 44 5 41 -18 -3 -22 -8 -23
-85 -26 -56 -2 -85 -7 -93 -17 -22 -27 5 -42 88 -49 99 -9 112 -13 112 -36 0
-28 -17 -35 -110 -40 -79 -5 -85 -7 -88 -27 -5 -31 33 -45 123 -47 l70 -1 0
-35 0 -35 -78 -5 c-77 -5 -101 -17 -90 -46 2 -7 41 -18 90 -25 90 -13 112 -30
77 -56 -14 -11 -39 -14 -101 -10 -87 5 -108 -3 -101 -40 4 -22 57 -33 156 -33
l72 1 0 -35 c0 -19 -5 -38 -10 -41 -6 -4 -34 -1 -64 6 -69 15 -129 -1 -124
-34 3 -19 12 -23 62 -29 33 -4 64 -12 70 -18 5 -5 22 -10 38 -10 23 0 28 -5
33 -34 4 -18 5 -44 3 -57 -3 -22 -9 -24 -59 -27 -44 -2 -61 -8 -79 -27 -20
-21 -21 -27 -9 -41 10 -12 25 -15 63 -11 74 7 84 1 92 -50 9 -59 -1 -65 -99
-60 -72 3 -76 3 -62 -13 9 -10 13 -25 9 -34 -3 -9 -1 -16 4 -16 6 0 14 -9 17
-20 4 -13 15 -20 31 -20 33 0 31 -28 -3 -36 -14 -4 -39 -2 -55 4 -24 9 -28 8
-28 -8 0 -10 5 -22 10 -25 6 -3 10 -15 10 -25 0 -11 10 -25 23 -32 27 -14 125
-14 140 1 21 21 28 11 25 -31 l-3 -43 -80 0 c-84 0 -85 -1 -85 -39 0 -30 36
-46 115 -49 46 -2 61 -6 63 -19 5 -24 -21 -28 -85 -13 -32 8 -64 14 -70 15
-24 0 -13 -38 18 -64 33 -28 52 -34 114 -38 37 -3 40 -5 40 -33 0 -22 -5 -31
-20 -34 -11 -2 -22 -7 -25 -11 -4 -7 -48 -2 -100 11 -10 3 -15 -4 -15 -20 0
-38 46 -66 108 -66 45 0 52 -3 52 -20 0 -26 -44 -34 -121 -24 -33 4 -63 4 -68
-1 -4 -4 -2 -21 6 -37 16 -33 87 -61 161 -62 41 -1 48 -4 45 -18 -3 -15 -16
-18 -91 -19 -48 0 -90 -3 -93 -7 -12 -11 35 -72 70 -91 27 -14 46 -17 81 -13
44 7 45 6 45 -23 0 -19 -6 -30 -17 -34 -21 -6 -128 -9 -163 -4 -21 2 -26 -2
-28 -24 -3 -25 2 -30 50 -51 29 -13 65 -27 81 -31 15 -3 27 -11 27 -17 0 -8
-27 -10 -82 -8 l-83 4 3 -25 c4 -43 8 -47 76 -70 36 -13 66 -27 66 -31 0 -8
-91 -20 -130 -16 -19 1 -26 -3 -28 -19 -3 -24 40 -57 91 -69 49 -13 29 -36
-38 -45 -35 -4 -40 -8 -40 -30 0 -17 8 -29 26 -37 32 -16 156 -23 187 -12 17
7 24 5 29 -7 3 -8 1 -20 -5 -26 -9 -9 -103 -11 -227 -4 -25 1 -30 -3 -33 -25
-3 -23 3 -28 43 -43 25 -10 87 -21 138 -25 86 -6 92 -8 95 -28 4 -26 12 -25
-150 -24 l-108 1 0 -25 c0 -40 34 -62 113 -73 40 -6 92 -8 116 -5 38 5 43 4
39 -13 -5 -25 -61 -34 -157 -23 -60 7 -79 6 -90 -5 -20 -21 -7 -43 34 -60 34
-15 40 -36 11 -36 -15 0 -27 -33 -17 -47 14 -23 58 -35 125 -36 39 0 78 1 86
4 11 3 15 -3 15 -21 0 -25 -1 -25 -92 -28 -95 -3 -111 -11 -98 -51 7 -24 116
-54 164 -46 31 5 40 3 45 -11 4 -11 0 -24 -11 -35 -15 -14 -26 -16 -62 -9 -53
10 -67 5 -74 -21 -10 -38 47 -69 124 -69 16 0 29 -4 29 -8 0 -10 -88 -42 -117
-42 -32 0 -47 -33 -25 -52 33 -30 57 -36 100 -28 80 14 58 -28 -25 -49 -23 -6
-55 -11 -71 -11 -33 0 -49 -24 -31 -46 19 -23 80 -37 135 -31 30 3 54 1 54 -3
0 -18 -48 -41 -100 -47 -43 -5 -53 -10 -61 -30 -13 -34 -6 -40 56 -58 42 -13
59 -14 76 -5 15 9 24 9 32 1 21 -21 -12 -36 -84 -37 -73 -1 -96 -12 -86 -38
11 -28 61 -51 122 -56 l60 -5 3 -37 c3 -33 0 -37 -25 -42 -15 -4 -43 -2 -60 3
-20 6 -35 6 -39 0 -9 -15 6 -52 34 -81 20 -22 35 -28 69 -28 46 0 53 -8 26
-32 -26 -23 -92 -28 -130 -10 -70 33 -86 -19 -23 -79 22 -21 40 -43 40 -49 0
-6 -16 -18 -35 -27 -27 -13 -35 -23 -35 -44 0 -31 21 -52 44 -43 9 3 16 1 16
-5 0 -9 17 -10 60 -5 38 4 60 3 60 -3 0 -6 -28 -14 -62 -17 -77 -9 -98 -20
-98 -50 0 -32 77 -71 138 -70 34 1 42 -2 42 -17 0 -26 -30 -39 -91 -37 -81 2
-111 -20 -93 -67 15 -39 126 -63 160 -34 19 15 34 2 34 -29 0 -49 -12 -56 -80
-49 -82 7 -110 -3 -110 -42 0 -45 22 -56 117 -55 53 0 83 -3 82 -10 -2 -31
-18 -50 -45 -53 -16 -2 -54 -5 -84 -8 -73 -7 -85 -12 -72 -28 6 -7 9 -22 6
-33 -8 -31 69 -58 141 -49 57 7 71 -1 60 -34 -5 -15 -20 -21 -78 -27 -40 -4
-82 -6 -93 -5 -25 3 -38 -23 -24 -49 15 -27 87 -61 115 -54 14 3 36 3 50 0 20
-5 25 -13 25 -37 l0 -30 -86 4 c-106 5 -122 1 -130 -30 -13 -49 64 -93 163
-93 28 0 55 -5 58 -10 8 -13 -37 -30 -81 -30 -30 0 -34 -3 -34 -27 0 -14 8
-35 17 -45 26 -29 5 -38 -53 -23 -83 21 -111 40 -124 82 -7 21 -19 48 -26 61
-11 17 -16 88 -20 320 -3 163 -12 362 -19 442 -7 80 -11 148 -8 153 2 4 -3 58
-12 119 -9 62 -16 146 -15 188 3 134 -7 334 -20 400 -16 81 -17 92 -24 270 -3
80 -8 168 -11 195 -12 122 -17 221 -19 374 -1 112 -5 166 -12 168 -13 4 -54
-73 -54 -101 0 -9 -5 -26 -10 -37 -7 -13 -8 -45 -1 -102 6 -45 13 -149 16
-232 3 -82 8 -196 11 -252 3 -57 2 -103 -1 -103 -18 0 -47 24 -61 52 -13 26
-15 46 -8 107 10 92 13 282 18 896 2 266 8 516 15 575 9 83 23 307 23 365 0
119 -15 802 -17 806 -2 3 -7 37 -11 75 -3 38 -10 71 -14 74 -5 3 -12 21 -17
40 -9 35 -9 35 -69 35 l-59 0 0 35 c0 34 0 35 42 32 42 -3 103 20 103 39 0 40
-39 60 -78 40 -9 -4 -32 -11 -49 -14 -29 -6 -33 -4 -33 16 0 31 11 45 53 66
30 15 45 17 78 10 23 -6 44 -7 47 -4 3 2 0 22 -6 44 -7 21 -9 46 -6 55 9 22
-21 64 -48 68 -13 2 -23 10 -23 18 0 11 10 14 44 12 36 -2 42 0 37 14 -3 8 -6
33 -6 55 0 30 -7 47 -26 66 -22 22 -25 30 -15 45 15 24 14 67 -2 74 -10 4 -12
31 -9 117 3 95 -8 298 -20 347 -2 12 9 15 52 16 61 1 76 19 44 55 -22 24 -36
24 -59 -1 -26 -29 -45 -25 -45 8 0 47 19 61 85 65 33 2 63 4 67 5 4 1 8 -19
10 -45z m-472 13 c0 -3 -4 -8 -10 -11 -5 -3 -10 -1 -10 4 0 6 5 11 10 11 6 0
10 -2 10 -4z m2244 -27 c17 -33 8 -59 -19 -59 -19 0 -30 57 -15 75 16 20 16
20 34 -16z m-472 -4 c15 -33 -15 -101 -54 -121 -15 -8 -28 -12 -28 -9 0 16 22
45 35 45 16 0 24 18 17 43 -3 10 -14 17 -28 17 -17 0 -24 6 -24 19 0 38 65 43
82 6z m82 -41 c13 -34 6 -73 -17 -91 -31 -25 -77 -106 -77 -136 0 -24 -41 -62
-54 -50 -13 13 -5 53 19 101 14 28 25 59 25 71 0 11 13 30 29 42 17 12 35 35
42 50 13 32 24 37 33 13z m-464 -4 c0 -5 -4 -10 -10 -10 -5 0 -10 5 -10 10 0
6 5 10 10 10 6 0 10 -4 10 -10z m696 -37 c-10 -10 -19 5 -10 18 6 11 8 11 12
0 2 -7 1 -15 -2 -18z m-3031 1 c24 -4 39 -14 45 -28 13 -34 0 -158 -19 -180
-15 -17 -14 -19 7 -33 19 -14 22 -24 22 -87 0 -95 -11 -111 -74 -104 -26 3
-52 10 -57 15 -6 6 -10 96 -10 213 0 206 4 228 38 215 6 -2 28 -7 48 -11z
m2161 -19 c16 -13 17 -16 4 -25 -23 -15 -45 -7 -48 18 -4 26 15 29 44 7z m141
-7 c24 -22 31 -58 12 -58 -17 0 -71 59 -64 70 10 16 27 12 52 -12z m-1216 -29
c29 -15 23 -29 -13 -30 -18 0 -50 -1 -71 -3 -45 -4 -62 18 -31 41 20 15 80 11
115 -8z m1419 1 c14 -11 31 -20 38 -20 6 0 12 -7 12 -15 0 -24 -37 -17 -65 12
-40 44 -31 59 15 23z m515 -78 c0 -50 -2 -93 -5 -95 -3 -3 -26 -8 -52 -12 -37
-6 -49 -4 -53 7 -8 19 32 124 54 146 10 9 21 25 24 35 4 10 13 17 20 14 8 -3
12 -31 12 -95z m-738 49 c13 -14 34 -21 68 -22 28 -2 73 -10 100 -20 28 -9 74
-20 103 -24 58 -8 75 -26 50 -52 -13 -12 -20 -13 -38 -3 -28 15 -39 4 -14 -15
18 -14 18 -16 2 -26 -24 -13 -23 -29 1 -29 11 0 21 -9 24 -21 3 -12 10 -18 15
-15 15 9 46 -19 37 -34 -10 -16 -145 -9 -217 11 -58 16 -67 43 -13 37 38 -4
48 7 15 17 -36 11 -21 23 21 18 55 -8 49 16 -9 37 -23 9 -47 22 -54 29 -13 14
-2 13 96 -6 20 -4 27 -3 22 5 -6 11 -130 52 -155 52 -20 0 -12 -51 12 -71 l22
-19 -22 -18 c-18 -16 -22 -33 -27 -113 -8 -119 -26 -194 -46 -194 -10 0 -15 9
-14 30 8 148 4 366 -6 384 -10 19 -17 21 -61 15 -45 -6 -49 -5 -49 14 0 45
103 70 137 33z m576 -31 c5 -19 -11 -44 -33 -52 -6 -2 -13 -21 -16 -43 -7 -48
-33 -115 -46 -115 -5 0 -4 -9 2 -21 14 -26 11 -29 -17 -18 -26 9 -29 25 -10
48 7 9 23 48 35 86 23 73 55 135 71 135 5 0 11 -9 14 -20z m282 -36 c-8 -58
-14 -74 -27 -74 -7 0 -8 17 -4 46 3 26 6 53 6 60 0 8 7 14 16 14 14 0 15 -7 9
-46z m-1977 7 c18 -11 5 -62 -13 -55 -17 7 -26 30 -19 49 7 17 13 18 32 6z
m-51 -66 c20 -20 18 -22 -42 -28 -27 -3 -70 -9 -95 -12 -36 -6 -49 -4 -59 9
-11 13 -10 17 5 22 11 3 28 9 39 14 35 15 135 12 152 -5z m-269 -145 c3 -161
-1 -189 -23 -147 -18 34 -9 300 9 294 7 -2 12 -55 14 -147z m850 132 c28 -4
33 -8 28 -24 -4 -19 -1 -20 34 -14 22 3 41 2 45 -4 14 -23 35 -181 36 -281 1
-70 7 -118 16 -135 8 -17 10 -31 4 -38 -16 -19 -1 -605 19 -746 9 -61 20 -248
26 -425 2 -44 7 -134 12 -200 6 -66 9 -169 7 -230 -1 -60 2 -131 7 -157 10
-49 -15 -222 -33 -234 -5 -3 -9 -29 -9 -59 0 -43 5 -58 23 -75 21 -20 21 -22
5 -34 -11 -8 -18 -26 -18 -44 0 -24 5 -31 22 -34 31 -4 34 -26 4 -38 -19 -7
-26 -17 -26 -35 0 -22 4 -25 34 -25 19 0 38 -5 41 -10 11 -18 -14 -38 -40 -32
-22 4 -25 1 -25 -22 0 -25 8 -31 38 -27 21 3 42 -19 35 -36 -4 -10 -14 -13
-34 -9 -19 4 -29 1 -33 -11 -9 -21 10 -41 42 -45 37 -4 35 -31 -3 -38 -16 -3
-30 -11 -29 -18 1 -6 2 -19 3 -27 0 -8 10 -15 21 -15 11 0 20 -6 20 -14 0 -7
-9 -16 -20 -19 -13 -3 -20 -14 -20 -31 0 -15 8 -30 20 -36 24 -13 27 -40 4
-40 -14 0 -16 -9 -10 -67 3 -38 6 -69 6 -70 0 -2 9 -3 19 -3 31 0 35 -19 7
-30 -32 -12 -34 -37 -4 -42 13 -2 24 -11 26 -21 3 -13 -2 -17 -14 -15 -25 4
-30 -22 -5 -29 24 -6 29 -33 6 -33 -19 0 -19 -18 1 -65 8 -21 17 -74 19 -118
3 -60 7 -83 19 -89 20 -11 21 -34 1 -42 -23 -9 -18 -53 7 -67 l22 -12 -22 -15
c-29 -19 -28 -40 3 -52 30 -11 33 -30 5 -37 -18 -5 -20 -14 -20 -87 0 -106 27
-331 43 -358 9 -16 9 -22 0 -25 -7 -3 -13 -20 -13 -39 0 -28 5 -36 25 -44 30
-11 33 -30 5 -37 -23 -6 -29 -53 -6 -53 7 0 19 -7 26 -15 10 -12 8 -16 -14
-25 -34 -12 -38 -69 -6 -77 11 -3 20 -11 20 -19 0 -7 -9 -18 -20 -24 -27 -14
-27 -60 -1 -67 27 -7 35 -32 13 -40 -37 -14 -42 -44 -9 -58 23 -11 22 -30 -3
-30 -27 0 -23 -34 4 -45 33 -12 33 -28 0 -40 -22 -9 -25 -15 -22 -52 2 -30 8
-43 18 -43 25 0 18 -40 -8 -43 -20 -3 -23 -8 -20 -40 3 -34 5 -37 31 -34 23 3
28 0 25 -15 -2 -10 -13 -19 -26 -21 -16 -3 -22 -10 -22 -28 0 -14 6 -24 14
-24 7 0 19 -7 26 -15 10 -12 8 -16 -14 -25 -36 -13 -36 -57 -1 -70 30 -11 32
-26 5 -40 -24 -13 -27 -40 -5 -40 23 0 29 -27 10 -46 -22 -23 -15 -46 19 -63
l28 -13 -24 -23 c-23 -22 -25 -28 -21 -102 2 -43 9 -88 15 -101 9 -17 9 -25 0
-34 -7 -7 -12 -36 -12 -65 0 -42 4 -55 20 -65 19 -12 19 -12 -1 -44 -17 -28
-17 -33 -4 -44 17 -14 20 -40 5 -40 -14 0 -12 -44 3 -59 10 -10 9 -15 -5 -25
-23 -17 -13 -95 14 -116 21 -17 16 -50 -8 -50 -21 0 -17 -37 7 -54 21 -15 23
-51 2 -51 -26 0 -25 -17 2 -39 29 -23 28 -50 -3 -39 -11 4 -8 -4 11 -24 32
-35 34 -47 6 -40 -19 5 -21 3 -15 -25 3 -17 6 -39 6 -49 0 -13 7 -19 23 -19
12 0 28 -4 36 -9 20 -13 -4 -24 -35 -17 -30 8 -30 5 2 -45 30 -48 25 -58 -18
-41 -21 8 -36 8 -42 2 -6 -6 -2 -12 10 -16 64 -24 102 -84 53 -84 -10 0 -19
-3 -19 -6 0 -12 24 -50 37 -57 12 -8 12 -12 -3 -28 -16 -18 -16 -19 14 -19 22
0 32 -5 32 -15 0 -8 -6 -15 -12 -15 -7 0 -5 -5 5 -11 20 -12 23 -39 4 -39 -7
0 -30 9 -50 19 l-38 19 -16 -25 c-13 -19 -14 -29 -6 -42 6 -9 16 -15 22 -14
17 4 61 -16 61 -28 0 -8 -13 -9 -42 -5 -48 8 -45 1 15 -29 27 -14 42 -28 42
-41 0 -16 -7 -19 -42 -17 -24 1 -43 0 -43 -3 0 -12 41 -43 62 -46 33 -4 37
-38 4 -38 -21 0 -25 -5 -28 -32 -2 -28 -8 -34 -31 -36 -36 -4 -30 -24 10 -34
35 -9 48 -22 56 -59 9 -36 2 -40 -51 -24 -25 8 -48 12 -51 9 -11 -10 38 -59
62 -62 47 -6 75 -74 42 -102 -9 -7 -25 -10 -41 -6 -22 6 -25 4 -22 -16 2 -19
11 -24 52 -30 54 -7 70 -22 55 -50 -13 -23 -52 -33 -79 -18 -20 11 -21 10 -14
-27 10 -58 26 -87 54 -93 36 -8 40 -47 6 -60 -14 -5 -26 -14 -26 -20 0 -9 12
-13 65 -23 18 -3 17 -5 -7 -17 -15 -7 -25 -17 -22 -21 2 -5 -5 -18 -17 -30
-18 -18 -19 -25 -10 -46 6 -13 11 -32 11 -41 0 -9 16 -37 35 -61 19 -24 35
-47 35 -50 -1 -14 -17 -28 -48 -40 -21 -9 -39 -26 -49 -50 -10 -20 -19 -40
-21 -44 -2 -5 16 -7 39 -5 60 4 65 -15 7 -26 -37 -7 -57 -5 -91 8 -40 15 -46
21 -51 54 -14 87 -38 1195 -35 1647 0 55 -4 132 -10 170 -6 39 -13 183 -16
320 -4 167 -12 277 -22 330 -9 45 -17 133 -17 200 -1 66 -5 126 -9 132 -4 7
-8 124 -8 260 0 137 -5 318 -10 403 -16 231 -28 391 -33 430 -7 64 -11 409 -3
416 4 4 0 12 -7 18 -14 11 -20 95 -32 485 -3 96 -7 178 -10 182 -4 7 -21 232
-30 399 -5 102 -14 172 -25 207 -6 18 -8 37 -5 42 4 5 1 31 -5 58 -6 26 -12
89 -13 139 0 50 -6 97 -12 105 -8 10 -9 58 -4 154 5 103 3 158 -7 209 -8 38
-18 144 -23 235 -11 185 -26 373 -39 463 -4 32 -9 138 -10 235 -1 98 -4 180
-6 183 -2 3 -6 91 -9 195 -4 105 -9 231 -12 280 -3 50 -7 134 -9 188 -2 79 -6
102 -21 118 -18 20 -18 21 -1 34 16 11 17 20 7 76 -11 72 -14 262 -3 273 4 3
14 4 22 0 9 -4 31 -9 49 -12z m1492 -58 c0 -23 -5 -34 -14 -34 -22 0 -27 15
-15 49 14 39 29 31 29 -15z m-2053 -44 c6 -33 -11 -42 -61 -29 -36 9 -56 9
-91 -1 -46 -13 -67 -8 -48 11 33 33 195 49 200 19z m1272 -39 c9 -5 46 -10 81
-12 76 -3 90 -6 90 -24 0 -9 -20 -14 -69 -17 -74 -3 -147 12 -145 30 2 27 5
32 15 32 6 0 18 -4 28 -9z m-1399 -16 c0 -8 -4 -15 -9 -15 -13 0 -22 16 -14
24 11 11 23 6 23 -9z m85 1 c36 -16 46 -44 25 -76 -9 -13 -11 -13 -20 0 -5 8
-10 21 -10 28 0 7 -13 12 -30 12 -31 0 -39 17 -18 38 15 15 12 15 53 -2z
m-140 -38 c-4 -13 -8 -27 -9 -31 -1 -11 22 -24 57 -32 34 -7 36 -25 2 -25 -26
0 -49 -30 -43 -57 2 -13 19 -16 83 -17 l80 -1 3 -94 c3 -100 -8 -132 -32 -98
-17 22 -33 22 -46 -3 -6 -10 -26 -22 -45 -26 -43 -8 -55 -22 -44 -51 7 -19 16
-23 49 -23 33 0 40 -3 40 -20 0 -15 -7 -20 -27 -21 -60 -2 -68 -5 -71 -22 -5
-25 15 -46 52 -55 49 -13 42 -45 -12 -54 -57 -10 -62 -14 -62 -54 0 -22 -6
-37 -15 -40 -17 -7 -20 -41 -5 -64 7 -11 24 -14 60 -13 56 2 68 -14 24 -37
-18 -10 -30 -11 -42 -4 -16 11 -86 -7 -106 -27 -23 -22 -34 -8 -34 44 0 99 0
100 -22 94 -23 -6 -25 2 -8 38 10 22 8 29 -12 50 -28 30 -37 31 -45 5 -3 -11
-12 -20 -19 -20 -17 0 -51 75 -41 90 4 7 9 52 10 101 2 69 8 97 24 125 17 29
20 46 15 80 -7 48 11 63 22 20 7 -28 43 -56 73 -56 26 0 37 -19 20 -36 -10
-10 -24 -11 -52 -4 -30 6 -40 5 -44 -7 -19 -48 39 -259 75 -271 15 -5 42 62
35 88 -3 12 1 28 11 39 9 10 18 41 20 69 3 28 12 65 22 84 13 26 18 67 21 183
5 168 6 175 28 175 12 0 15 -6 10 -22z m2074 -32 c25 -30 18 -88 -8 -72 -17
11 -43 65 -36 76 9 14 31 12 44 -4z m-499 -11 c17 -20 -8 -29 -61 -22 -46 6
-54 11 -44 26 10 17 91 13 105 -4z m-2474 -20 c3 -6 1 -21 -4 -34 l-8 -22 -26
20 c-32 26 -54 27 -63 4 -8 -22 39 -63 73 -63 21 0 23 -4 20 -42 -4 -52 -32
-66 -42 -21 -3 15 -15 38 -25 51 -16 19 -24 21 -40 13 -17 -10 -19 -7 -23 37
-3 26 -3 52 0 59 5 15 132 14 138 -2z m2522 3 c-3 -7 -8 -13 -13 -13 -5 0 -10
6 -12 13 -3 6 3 12 12 12 9 0 15 -6 13 -12z m-2932 -54 c33 -39 81 -121 74
-127 -3 -3 -16 -8 -28 -12 -22 -6 -24 -4 -22 27 3 51 1 58 -15 58 -15 0 -45
-49 -45 -75 0 -8 -4 -15 -9 -15 -5 0 -16 -3 -25 -6 -24 -9 -19 13 14 63 30 44
37 68 22 77 -11 7 -23 -3 -55 -46 -15 -21 -32 -38 -38 -38 -19 0 -8 29 21 57
17 15 30 34 30 40 0 8 -13 13 -30 13 -29 0 -38 9 -22 24 4 4 27 5 52 2 35 -5
51 -13 76 -42z m2841 21 c75 -7 111 -23 99 -44 -9 -13 -51 -10 -139 11 -42 11
-49 10 -62 -8 -17 -21 -12 -118 7 -141 12 -15 57 -17 91 -4 37 14 97 -4 97
-29 0 -18 -7 -20 -62 -19 -87 0 -188 -11 -188 -21 0 -18 25 -23 130 -24 74 -1
112 -5 123 -15 25 -20 21 -27 -25 -40 -24 -7 -53 -17 -66 -23 -18 -10 -28 -8
-51 5 -16 9 -37 17 -46 17 -20 0 -102 37 -110 50 -3 5 1 23 10 39 12 24 13 35
4 55 -7 15 -8 35 -3 53 4 15 8 33 9 40 0 6 13 21 28 33 15 12 24 26 21 31 -8
14 28 48 46 44 8 -2 47 -7 87 -10z m46 -69 c30 -23 19 -32 -38 -28 -64 3 -109
18 -100 32 9 15 117 12 138 -4z m-2589 -62 c4 -9 4 -19 2 -21 -8 -8 -26 8 -26
23 0 19 16 18 24 -2z m2592 5 c86 -15 104 -30 104 -84 0 -52 -26 -64 -36 -17
-14 69 -18 72 -88 72 -70 0 -121 14 -111 30 8 13 56 13 131 -1z m-2700 -91 c3
-5 -3 -12 -14 -15 -11 -2 -22 -13 -25 -24 -5 -20 -32 -26 -42 -9 -12 19 22 58
50 58 14 0 28 -5 31 -10z m2794 -63 c0 -8 -4 -15 -9 -15 -13 0 -22 16 -14 24
11 11 23 6 23 -9z m45 -64 c3 -5 1 -12 -4 -15 -5 -3 -11 1 -15 9 -6 16 9 21
19 6z m195 -32 c0 -5 -4 -9 -10 -9 -5 0 -10 7 -10 16 0 8 5 12 10 9 6 -3 10
-10 10 -16z m-2064 -24 c8 -21 -6 -41 -17 -24 -12 19 -11 39 1 39 6 0 13 -7
16 -15z m1519 -25 c3 -5 1 -10 -4 -10 -6 0 -11 5 -11 10 0 6 2 10 4 10 3 0 8
-4 11 -10z m-1287 -212 c-4 -29 -38 -38 -38 -10 0 22 8 32 27 32 9 0 13 -8 11
-22z m1437 -79 c44 -6 102 -12 128 -13 35 -1 53 -7 63 -21 21 -28 17 -44 -13
-52 -37 -9 -159 -8 -203 2 -19 4 -67 8 -107 7 -40 -1 -75 3 -78 8 -3 5 -3 27
1 49 7 45 17 50 84 39 25 -4 81 -12 125 -19z m-1195 -58 c0 -17 -26 -30 -76
-36 -43 -6 -52 -4 -58 10 -3 9 -4 21 0 26 7 12 134 12 134 0z m-325 -104 c0
-22 41 -46 67 -39 10 2 25 -1 33 -8 30 -25 16 -35 -52 -37 -74 -1 -98 -18 -84
-56 6 -16 17 -22 42 -23 19 0 51 -10 71 -21 29 -16 47 -19 83 -13 58 9 95 2
95 -17 0 -13 -16 -15 -102 -11 -97 5 -158 -4 -158 -22 0 -16 49 -39 90 -42 24
-2 45 -9 48 -16 6 -20 -96 -5 -130 19 -34 24 -38 24 -38 1 0 -21 30 -37 87
-48 72 -13 84 -51 12 -40 -33 5 -42 3 -61 -19 -28 -33 -38 -32 -38 4 0 38 -16
48 -24 16 -6 -25 25 -91 37 -79 3 4 14 3 24 0 15 -6 13 -10 -15 -32 -22 -18
-32 -34 -32 -52 0 -37 14 -56 35 -48 9 3 26 1 37 -5 12 -6 35 -12 52 -13 27
-1 33 -7 46 -43 17 -50 11 -60 -22 -39 -34 22 -116 46 -160 46 -50 0 -53 15
-43 194 5 78 8 166 6 196 -2 52 14 214 26 253 7 26 68 20 68 -6z m274 -93 c34
5 41 3 46 -15 4 -11 5 -22 3 -25 -10 -9 -128 19 -128 30 0 20 12 27 27 15 8
-7 29 -9 52 -5z m31 -202 c26 -3 -4 -21 -47 -28 -35 -5 -43 -4 -43 9 0 22 21
26 90 19z m390 -101 c0 -24 -18 -31 -47 -18 -37 17 -25 34 25 36 15 1 22 -5
22 -18z m-402 -8 c2 -9 -8 -13 -32 -13 -37 0 -49 15 -18 23 26 7 45 3 50 -10z
m262 -53 c0 -5 -4 -10 -10 -10 -5 0 -10 5 -10 10 0 6 5 10 10 10 6 0 10 -4 10
-10z m-350 -218 c0 -13 -12 -22 -22 -16 -10 6 -1 24 13 24 5 0 9 -4 9 -8z
m-142 -23 c26 -10 28 -27 5 -45 -22 -16 -60 -18 -102 -3 -33 12 -37 20 -21 50
9 16 17 18 53 13 23 -4 52 -11 65 -15z m580 -468 c3 -8 -1 -12 -9 -9 -7 2 -15
10 -17 17 -3 8 1 12 9 9 7 -2 15 -10 17 -17z m107 -241 c-3 -5 -11 -10 -16
-10 -6 0 -7 5 -4 10 3 6 11 10 16 10 6 0 7 -4 4 -10z m22 -126 c-3 -3 -12 -4
-19 -1 -8 3 -5 6 6 6 11 1 17 -2 13 -5z m-7 -114 c0 -5 -5 -10 -11 -10 -5 0
-7 5 -4 10 3 6 8 10 11 10 2 0 4 -4 4 -10z m947 -782 c-3 -7 -5 -2 -5 12 0 14
2 19 5 13 2 -7 2 -19 0 -25z m23 -48 c0 -5 -4 -10 -10 -10 -5 0 -10 5 -10 10
0 6 5 10 10 10 6 0 10 -4 10 -10z m-1273 -412 c5 -14 6 -38 2 -58 -5 -19 -6
-48 -3 -64 5 -21 3 -27 -7 -24 -14 5 -30 128 -21 156 6 18 18 15 29 -10z m651
-126 c2 -7 -3 -12 -12 -12 -9 0 -16 7 -16 16 0 17 22 14 28 -4z m315 -707 c-3
-8 -9 -15 -14 -15 -10 0 -12 24 -3 33 11 11 24 -3 17 -18z m1667 -500 c0 -14
-8 -29 -19 -35 -29 -15 -31 -13 -31 25 0 31 3 35 25 35 20 0 25 -5 25 -25z m0
-76 c0 -5 -7 -9 -15 -9 -15 0 -20 12 -9 23 8 8 24 -1 24 -14z m-2490 -305 c0
-38 51 -122 83 -135 16 -7 48 -12 70 -11 40 2 108 -16 124 -32 11 -11 -16 -24
-67 -31 -54 -7 -130 14 -173 48 -40 33 -83 167 -61 190 12 11 24 -3 24 -29z
m2490 -54 c0 -5 -4 -10 -10 -10 -5 0 -10 5 -10 10 0 6 5 10 10 10 6 0 10 -4
10 -10z m-2136 -49 c3 -5 -1 -14 -9 -21 -13 -10 -15 -9 -15 9 0 21 14 28 24
12z m-256 -139 c3 -9 -2 -13 -14 -10 -9 1 -19 9 -22 16 -3 9 2 13 14 10 9 -1
19 -9 22 -16z m1122 -42 c0 -5 -2 -10 -4 -10 -2 0 -12 -3 -20 -6 -12 -5 -15
-2 -10 10 7 17 34 22 34 6z m1289 -22 c12 -31 -3 -58 -29 -51 -25 7 -27 48 -2
62 23 14 21 14 31 -11z m9 -190 c3 -25 0 -28 -27 -28 -31 0 -38 11 -25 45 11
27 48 14 52 -17z m-134 -11 c-7 -20 -54 -23 -54 -4 0 17 42 38 53 28 4 -4 5
-15 1 -24z m136 -137 c0 -16 -7 -20 -30 -20 -49 0 -37 37 13 39 11 1 17 -6 17
-19z m-140 -93 c0 -16 -3 -18 -12 -9 -7 7 -22 12 -35 12 -13 0 -23 4 -23 9 0
5 8 7 19 4 10 -3 22 0 26 6 10 16 25 3 25 -22z m133 -61 c7 -18 -1 -26 -25
-26 -11 0 -18 7 -18 20 0 23 35 28 43 6z m7 -150 c0 -28 -33 -41 -51 -20 -17
20 -3 44 26 44 20 0 25 -5 25 -24z m-1452 -60 c-2 -2 -22 -1 -45 2 -28 3 -43
9 -43 18 0 8 8 14 18 14 9 1 28 7 42 15 24 13 25 12 28 -17 2 -16 2 -31 0 -32z
m1462 -183 c0 -33 -19 -48 -57 -44 -16 1 -17 33 -1 49 19 19 58 15 58 -5z
m-144 -4 c13 -21 -13 -30 -69 -23 -85 10 -72 30 20 33 23 0 45 -4 49 -10z
m-1090 -44 c26 -11 33 -21 44 -65 7 -28 10 -54 6 -57 -3 -3 -18 0 -34 6 -16 7
-49 11 -73 9 -42 -3 -44 -5 -44 -33 0 -28 3 -30 40 -33 39 -3 65 -16 65 -33 0
-9 -32 -10 -92 -2 -38 5 -38 5 -38 51 0 93 15 107 89 81 27 -10 35 -9 49 5 16
16 16 18 -2 32 -11 8 -39 14 -62 14 -43 0 -62 18 -41 39 11 11 42 7 93 -14z
m-228 -68 c3 -16 1 -17 -16 -8 -12 6 -34 11 -51 11 -16 0 -32 4 -36 9 -3 6 17
9 47 8 42 -2 53 -6 56 -20z m1320 -24 c-2 -21 -8 -27 -23 -25 -11 1 -38 5 -60
8 -66 9 -85 14 -85 24 0 10 39 16 118 18 53 2 53 2 50 -25z m130 -32 c-2 -9
-13 -17 -26 -19 -18 -3 -22 1 -22 21 0 21 4 23 25 19 17 -3 25 -10 23 -21z
m-122 -74 c3 -2 2 -15 -1 -29 -6 -22 -9 -23 -82 -21 -79 2 -118 18 -109 43 5
12 25 15 97 14 49 -1 92 -4 95 -7z m114 -61 c0 -11 -19 -15 -25 -6 -3 5 1 10
9 10 9 0 16 -2 16 -4z m-1518 -27 c9 -5 30 -9 46 -9 18 0 32 -6 36 -16 10 -26
-1 -29 -43 -9 -29 13 -54 16 -99 12 -67 -6 -76 -3 -61 24 8 16 17 18 57 12 26
-3 55 -10 64 -14z m-240 -65 c9 -85 28 -499 31 -689 2 -142 13 -188 47 -210
28 -18 85 -35 134 -41 27 -3 53 -7 58 -10 5 -3 15 0 23 6 23 19 34 3 28 -39
l-5 -40 51 -15 c44 -13 54 -13 78 -1 33 18 69 19 79 4 4 -7 21 -9 40 -6 29 5
34 3 34 -14 0 -10 -6 -19 -13 -19 -7 0 -31 -13 -53 -29 -22 -16 -52 -33 -67
-36 -15 -4 -32 -15 -37 -25 -6 -11 -17 -16 -28 -13 -10 2 -38 -7 -63 -21 -24
-13 -62 -34 -84 -44 -52 -26 -151 -123 -159 -156 -8 -32 20 -90 61 -127 34
-32 82 -40 149 -28 98 18 130 22 189 23 77 2 142 15 156 32 6 8 20 14 30 14
10 0 21 5 24 10 4 7 13 6 26 -1 16 -8 26 -7 46 6 15 10 34 14 48 11 13 -3 27
-1 31 5 3 6 15 9 25 6 10 -3 22 -1 25 4 3 5 19 9 36 9 29 0 69 14 131 46 16 8
53 14 82 14 30 0 57 4 60 10 3 5 20 10 36 10 19 0 39 9 55 25 14 14 29 25 33
25 11 0 35 29 37 44 0 6 2 17 2 25 2 10 11 11 35 7 17 -4 54 -9 80 -11 44 -4
50 -2 65 24 9 16 25 29 37 29 40 1 85 14 96 28 13 16 39 19 39 4 0 -5 10 -10
22 -10 12 0 29 -6 37 -13 9 -8 43 -20 76 -27 78 -18 185 -99 185 -140 0 -31
-17 -50 -44 -50 -29 0 -106 -33 -106 -45 0 -5 16 -27 35 -49 37 -41 53 -82 39
-96 -5 -5 -40 7 -80 26 l-71 35 -47 -22 -46 -21 -46 19 c-71 31 -189 30 -284
-2 -103 -35 -140 -53 -140 -70 0 -23 43 -45 111 -56 34 -5 67 -13 73 -16 6 -4
33 -11 61 -15 27 -4 68 -12 90 -16 l40 -9 -26 -11 c-16 -6 -65 -9 -120 -6
-249 11 -484 12 -502 2 -14 -7 -22 -7 -27 2 -4 7 -13 9 -19 6 -16 -10 -810
-16 -835 -7 -12 5 -61 5 -109 2 -66 -5 -91 -3 -101 7 -11 11 -16 11 -27 -1 -9
-9 -46 -16 -102 -19 -78 -5 -88 -4 -85 10 7 37 105 56 143 28 18 -13 20 -11
30 17 7 22 17 33 33 35 28 4 28 18 1 33 -30 16 -103 3 -177 -32 l-63 -30 -60
50 c-63 53 -74 58 -84 41 -13 -21 -35 -9 -50 26 -13 31 -19 36 -40 32 -21 -4
-25 -1 -25 17 0 42 22 86 55 108 96 65 147 97 207 129 68 37 76 37 90 -2 7
-18 120 -55 146 -47 47 15 138 51 149 59 6 5 13 23 15 41 4 37 23 44 139 51
86 5 122 19 117 44 -4 22 -76 26 -176 10 -52 -8 -76 -8 -84 0 -6 6 -14 62 -18
126 -5 63 -11 119 -14 124 -3 5 -10 112 -16 238 -5 126 -12 267 -15 314 -3 47
-10 152 -15 233 -5 81 -6 155 -3 163 12 32 28 4 35 -62z m1178 20 c0 -8 -4
-12 -10 -9 -5 3 -10 10 -10 16 0 5 5 9 10 9 6 0 10 -7 10 -16z m438 -21 c-3
-14 -14 -18 -58 -18 -70 0 -81 18 -15 26 28 3 56 7 63 7 8 1 12 -5 10 -15z
m-1022 -38 c20 13 24 13 24 2 0 -8 -9 -22 -19 -31 -15 -14 -24 -15 -40 -7 -11
6 -38 11 -60 11 -21 0 -46 3 -55 6 -15 6 -22 44 -10 57 3 3 35 -8 71 -24 61
-27 67 -28 89 -14z m1144 15 c0 -5 -4 -10 -10 -10 -5 0 -10 5 -10 10 0 6 5 10
10 10 6 0 10 -4 10 -10z m-233 -92 c-3 -7 -5 -2 -5 12 0 14 2 19 5 13 2 -7 2
-19 0 -25z m138 -3 c0 -6 -10 -11 -22 -13 -22 -3 -30 8 -16 22 10 9 38 3 38
-9z m-1124 -15 c44 -23 70 -63 52 -81 -7 -7 -17 -8 -25 -3 -7 5 -35 14 -63 19
-41 9 -51 15 -53 33 -8 56 21 66 89 32z m-366 -20 c3 -5 2 -10 -4 -10 -6 0 -8
-6 -5 -14 6 -17 -12 -31 -21 -16 -8 13 3 50 15 50 5 0 12 -4 15 -10z m1643
-27 c-2 -13 -11 -17 -28 -15 -30 5 -34 8 -25 21 3 6 17 11 31 11 19 0 25 -5
22 -17z m-1480 -32 c3 -8 -1 -12 -9 -9 -7 2 -15 10 -17 17 -3 8 1 12 9 9 7 -2
15 -10 17 -17z m1339 -37 c-1 -2 -36 -4 -77 -6 -61 -2 -75 0 -75 12 0 11 15
15 58 16 32 1 61 5 65 8 3 4 12 -1 19 -10 7 -10 12 -19 10 -20z m-465 -30 c-3
-27 -16 -43 -34 -44 -12 0 -10 38 3 61 15 28 35 17 31 -17z m-669 4 c61 -21
48 -40 -25 -35 -62 5 -75 14 -64 43 7 17 20 16 89 -8z m-350 -3 c3 -7 -2 -24
-11 -36 -16 -19 -19 -19 -31 -6 -7 9 -10 25 -6 37 7 23 40 27 48 5z m1629 -30
c4 -36 4 -36 -31 -33 -42 4 -49 20 -22 47 31 31 48 26 53 -14z m-157 -36 c-4
-5 -16 -9 -28 -9 -21 1 -21 1 -3 15 20 15 41 11 31 -6z m-1121 -35 c22 -11 36
-26 39 -41 6 -33 -9 -37 -74 -21 -50 12 -54 15 -57 46 -3 30 -1 32 27 32 17 0
46 -7 65 -16z m1126 -19 c0 -23 -3 -24 -52 -24 -29 -1 -62 -2 -72 -3 -31 -5
-30 21 1 27 15 3 39 10 53 14 49 17 70 13 70 -14z m-1500 -10 c0 -8 -4 -15
-10 -15 -5 0 -10 7 -10 15 0 8 5 15 10 15 6 0 10 -7 10 -15z m140 -15 c0 -5
-4 -10 -10 -10 -5 0 -10 5 -10 10 0 6 5 10 10 10 6 0 10 -4 10 -10z m1520 -47
c0 -34 -1 -35 -18 -20 -10 10 -28 17 -40 17 -21 0 -30 19 -15 33 3 4 21 7 40
7 31 0 33 -2 33 -37z m-285 -13 c3 -5 1 -10 -4 -10 -6 0 -11 5 -11 10 0 6 2
10 4 10 3 0 8 -4 11 -10z m-1030 -15 c25 -6 71 -52 61 -62 -4 -4 -29 0 -55 10
-27 9 -56 17 -65 17 -17 0 -20 9 -10 35 5 11 13 15 28 10 11 -3 30 -8 41 -10z
m-335 -20 c0 -8 -4 -15 -10 -15 -5 0 -10 7 -10 15 0 8 5 15 10 15 6 0 10 -7
10 -15z m1490 -20 c0 -9 -7 -18 -16 -22 -18 -7 -39 11 -30 26 11 17 46 13 46
-4z m-1341 -22 c0 -5 -3 -9 -9 -11 -5 -2 -10 4 -10 13 0 16 16 14 19 -2z
m1518 -89 c-13 -13 -27 10 -27 45 0 56 14 60 24 6 4 -25 6 -48 3 -51z m-555
70 c4 -3 31 -7 62 -9 30 -2 60 -6 66 -10 22 -14 -4 -26 -51 -24 -53 3 -73 -8
-63 -34 5 -15 38 -23 68 -18 10 2 36 -19 36 -29 0 -12 -103 -21 -114 -10 -15
15 -32 81 -28 113 3 26 12 34 24 21z m-780 -34 c23 -11 48 -20 55 -20 9 0 13
-19 13 -67 0 -38 7 -99 15 -137 16 -75 15 -81 -15 -89 -28 -7 -35 9 -15 40 17
25 17 27 -1 40 -10 7 -32 13 -48 13 -50 0 -76 11 -76 31 0 26 17 33 43 17 12
-7 33 -12 45 -10 21 3 23 7 18 37 -4 19 -2 36 4 40 16 10 12 52 -6 59 -9 3
-27 6 -40 6 -39 0 -63 17 -57 40 7 25 14 25 65 0z m-567 -50 c3 -5 -3 -10 -14
-10 -12 0 -21 5 -21 10 0 6 6 10 14 10 8 0 18 -4 21 -10z m1191 -47 c-3 -3
-12 -3 -21 1 -14 5 -14 9 2 33 l18 27 3 -28 c2 -15 1 -30 -2 -33z m455 47 c5
0 9 -4 9 -10 0 -16 -26 -12 -41 7 -12 15 -12 16 4 10 10 -4 23 -7 28 -7z m78
1 c18 -11 7 -41 -14 -41 -9 0 -23 6 -31 14 -12 13 -12 16 3 25 22 13 25 13 42
2z m-1714 -40 c3 -5 1 -12 -4 -15 -12 -8 -41 3 -41 15 0 12 37 12 45 0z m533
-8 c2 -8 -5 -13 -17 -13 -21 0 -35 13 -24 24 10 10 36 3 41 -11z m-278 -8 c0
-8 -9 -15 -20 -15 -20 0 -26 11 -13 23 12 13 33 7 33 -8z m1638 -28 c3 -27 -3
-31 -43 -27 -34 3 -37 17 -9 39 33 26 48 23 52 -12z m-410 -51 c36 -32 18 -41
-93 -44 l-105 -2 0 24 c0 36 26 47 107 44 52 -3 77 -8 91 -22z m262 -2 c0 -3
-5 -14 -11 -25 -9 -18 -17 -20 -67 -13 -61 7 -78 16 -68 33 7 11 146 16 146 5z
m-560 -8 c0 -11 -19 -15 -25 -6 -3 5 1 10 9 10 9 0 16 -2 16 -4z m275 -100
c31 -11 40 -19 40 -38 0 -21 -4 -23 -35 -18 -53 7 -129 6 -187 -4 -52 -8 -53
-8 -53 17 0 22 7 28 48 40 61 19 137 20 187 3z m263 -33 c-3 -14 -15 -18 -56
-20 -46 -2 -52 0 -52 17 0 18 7 20 56 20 47 0 55 -3 52 -17z m180 -36 l3 -37
-43 0 c-49 0 -68 13 -68 45 0 30 2 31 57 30 48 -1 48 -1 51 -38z m-2739 -30
c25 -23 57 -51 71 -62 14 -12 34 -33 45 -49 27 -38 54 -48 289 -104 38 -9 71
-21 72 -27 3 -10 -82 -55 -103 -55 -5 0 -28 -13 -51 -30 -22 -16 -58 -36 -78
-45 -59 -25 -74 -43 -74 -90 0 -48 -10 -59 -58 -70 -18 -4 -45 -13 -60 -21
-15 -8 -33 -14 -39 -14 -26 0 -136 -65 -145 -86 -6 -12 -31 -37 -57 -56 l-46
-33 -440 4 c-242 2 -510 5 -595 6 -85 2 -382 6 -660 10 -277 3 -506 8 -508 10
-2 2 -5 60 -5 129 l-2 124 62 17 c78 21 100 15 51 -15 -42 -24 -44 -28 -25
-54 12 -16 16 -16 67 10 30 15 61 36 68 46 11 15 23 18 63 14 45 -4 52 -2 84
28 27 26 35 41 35 69 0 36 22 56 44 38 6 -5 39 -19 74 -31 34 -12 88 -37 119
-56 31 -19 63 -34 70 -34 8 0 39 -9 71 -19 52 -18 99 -25 144 -22 9 1 28 13
41 27 16 17 34 25 58 25 41 1 70 -4 87 -15 7 -4 34 -9 60 -12 26 -2 56 -8 67
-13 66 -31 234 -35 315 -8 25 8 78 23 119 32 100 22 170 55 209 99 31 35 55
45 67 27 3 -6 34 -9 70 -7 62 3 66 5 122 56 32 29 63 61 68 71 6 11 28 31 48
45 20 13 37 29 37 34 0 5 13 24 29 42 16 18 36 50 44 71 9 20 19 37 23 37 4 0
28 -19 53 -43z m2255 -23 c45 -15 59 -15 99 1 15 6 17 1 17 -44 0 -28 -4 -51
-9 -51 -11 0 -37 25 -50 48 -11 19 -106 23 -203 8 -47 -7 -58 -6 -58 5 0 15
85 46 131 48 14 0 47 -6 73 -15z m300 -27 c-2 -7 -14 -18 -26 -26 -17 -11 -22
-11 -29 1 -14 21 -11 26 19 36 31 11 43 7 36 -11z m763 -29 c15 -7 43 -28 61
-46 38 -37 86 -59 157 -73 77 -15 126 -27 172 -40 37 -11 47 -11 79 4 32 16
39 16 59 3 35 -23 90 -29 147 -16 63 14 178 68 178 83 0 6 14 25 30 43 29 29
35 31 83 26 35 -3 60 -12 77 -27 27 -24 82 -55 99 -55 6 0 32 -15 58 -34 66
-47 92 -53 229 -57 34 -1 66 -4 70 -8 5 -3 9 -115 9 -248 l0 -242 -145 -1
c-80 -1 -154 -2 -165 -3 -11 0 -114 3 -230 7 -115 4 -248 7 -295 7 -72 -1 -94
3 -140 25 -30 14 -77 34 -105 44 -27 10 -87 31 -132 48 -63 24 -88 29 -111 23
-48 -14 -182 22 -182 49 0 5 -10 12 -22 16 -13 4 -59 35 -103 69 -44 34 -91
67 -103 74 -23 12 -30 45 -12 56 14 9 12 32 -6 71 -19 40 -9 59 36 69 16 3 34
13 41 21 6 8 16 14 21 14 16 0 71 50 90 81 20 33 18 33 55 17z m-1631 -40 c4
-5 2 -8 -5 -8 -9 0 -11 -9 -6 -29 5 -24 2 -30 -14 -36 -28 -9 -26 -25 7 -52
25 -21 25 -22 6 -23 -12 0 -35 -5 -53 -11 -25 -9 -31 -17 -31 -39 0 -21 -6
-29 -25 -34 -14 -4 -25 -11 -25 -16 0 -6 -6 -10 -14 -10 -7 0 -20 -9 -27 -21
-14 -21 -21 -22 -189 -38 -41 -5 -95 -14 -119 -21 -43 -14 -44 -13 -67 14
l-24 27 20 39 c11 22 25 40 30 40 5 0 22 12 37 26 47 44 143 105 166 106 12 1
39 14 59 30 41 31 75 37 126 20 30 -10 36 -8 64 17 29 26 68 34 84 19z m498 3
c4 -5 -17 -15 -45 -22 -36 -10 -55 -20 -62 -36 -6 -13 -14 -23 -19 -23 -16 0
-21 31 -9 56 8 19 16 23 34 19 12 -3 34 -2 47 4 32 13 47 13 54 2z m-1284 -90
c0 -18 -18 -41 -32 -41 -11 0 -10 28 3 51 11 22 29 17 29 -10z m1335 9 c-3 -5
-25 -10 -48 -9 -33 0 -38 2 -22 9 28 12 78 12 70 0z m795 -315 c47 -42 103
-85 125 -97 22 -11 42 -24 45 -28 3 -5 31 -20 64 -34 42 -19 76 -26 119 -26
74 0 177 -34 177 -59 0 -3 -150 -5 -332 -3 -421 4 -427 4 -465 -4 -30 -6 -31
-5 -30 26 3 45 -34 71 -106 75 -30 2 -63 8 -74 13 -10 5 -49 12 -87 16 -75 7
-156 26 -156 36 0 4 24 12 53 18 64 14 125 4 193 -32 55 -27 103 -33 121 -15
20 20 85 18 130 -4 39 -19 43 -19 67 -4 14 9 32 14 40 11 23 -9 66 40 66 74 0
16 -11 46 -25 66 -48 70 -29 63 75 -29z m-2909 -145 c5 0 14 -11 19 -25 12
-32 50 -41 88 -21 27 14 34 14 66 1 26 -11 42 -12 62 -5 21 8 31 7 45 -6 11
-10 19 -20 19 -24 0 -5 -458 -7 -483 -2 -16 4 14 42 46 59 36 19 95 33 115 27
8 -2 18 -4 23 -4z m-1813 -163 c359 -2 655 -1 657 1 2 3 98 3 212 2 114 -2
224 -1 243 1 49 5 1020 2 1395 -5 171 -3 427 -6 570 -5 335 0 408 -1 595 -6
193 -6 291 -5 303 2 5 3 79 4 165 3 87 -1 360 -4 607 -5 248 -1 601 -5 785 -9
184 -4 480 -6 658 -7 l322 0 -2 -440 c-2 -345 -6 -443 -16 -451 -12 -11 -264
-14 -280 -4 -5 3 -46 6 -93 7 -50 1 -92 7 -103 15 -13 9 -25 10 -38 3 -10 -5
-18 -6 -18 -2 0 4 -4 3 -8 -4 -4 -7 -23 -12 -42 -13 -119 -1 -133 0 -145 17
-12 16 -14 16 -40 -1 -21 -14 -37 -16 -78 -11 -76 11 -208 13 -238 4 -15 -4
-31 -3 -36 2 -5 5 -21 5 -35 1 -15 -4 -67 -5 -115 -2 -48 3 -224 5 -390 3
-263 -2 -303 -1 -303 12 0 18 -1 18 -34 1 -18 -9 -38 -11 -61 -6 -19 4 -37 5
-40 1 -4 -3 -157 -6 -341 -6 -279 0 -335 2 -339 14 -4 11 -8 12 -17 3 -17 -17
-79 -15 -105 3 -17 12 -23 12 -32 1 -12 -15 -64 -19 -55 -5 8 14 -14 11 -39
-5 -16 -10 -37 -12 -73 -7 -28 4 -64 3 -80 -1 -29 -8 -401 -3 -544 7 -41 3
-76 9 -78 14 -1 5 -34 6 -72 4 -41 -2 -71 0 -75 7 -9 15 -25 12 -25 -4 0 -11
-34 -13 -187 -11 -104 1 -200 6 -215 10 -18 5 -28 3 -28 -4 0 -10 -66 -11
-445 -13 -11 0 -139 3 -285 6 -146 3 -558 8 -917 10 -428 3 -659 8 -672 15
-12 7 -36 8 -65 2 -51 -9 -207 -5 -334 9 -45 5 -89 7 -97 4 -36 -14 -42 11
-39 163 6 334 16 679 21 686 3 4 23 5 46 2 23 -3 336 -7 695 -8z"/>
<path d="M1640 13408 c0 -4 14 -8 30 -8 17 0 30 2 30 4 0 2 -13 6 -30 8 -16 3
-30 1 -30 -4z"/>
<path d="M5383 13413 c9 -2 23 -2 30 0 6 3 -1 5 -18 5 -16 0 -22 -2 -12 -5z"/>
<path d="M4659 13296 c-5 -5 -191 -19 -221 -17 -37 3 -77 2 -238 -4 -200 -8
-276 -7 -357 6 -72 11 -95 5 -91 -25 3 -18 12 -22 78 -28 41 -5 80 -10 86 -12
12 -5 22 -87 29 -257 l5 -107 -26 -6 c-14 -4 -52 -4 -85 0 -67 7 -89 -3 -89
-44 l0 -25 93 6 c398 27 527 29 787 12 90 -5 134 5 138 33 5 33 -37 45 -131
38 l-78 -5 -17 31 c-9 17 -34 48 -54 69 -56 57 -57 79 -11 139 94 126 99 130
164 130 73 0 132 22 127 47 -2 14 -15 19 -53 21 -28 2 -53 1 -56 -2z m-207
-79 c8 -13 -50 -87 -69 -87 -7 0 -17 8 -20 18 -4 9 -15 28 -25 41 -11 15 -15
28 -9 35 11 14 113 8 123 -7z m-236 -23 c19 -19 34 -40 34 -45 0 -5 18 -28 40
-50 45 -47 47 -56 22 -90 -10 -13 -24 -37 -32 -52 -8 -16 -28 -45 -46 -65 -29
-33 -37 -37 -100 -43 -38 -3 -73 -2 -79 3 -9 8 -12 64 -16 310 -1 25 2 51 5
57 4 6 36 11 73 11 62 0 67 -2 99 -36z m190 -275 c18 -36 13 -44 -39 -53 -48
-9 -58 11 -27 54 27 38 45 38 66 -1z"/>
<path d="M690 11067 c27 -15 36 -14 25 2 -3 6 -16 11 -28 11 -21 0 -21 -1 3
-13z"/>
<path d="M778 11042 c-4 -13 7 -29 34 -51 22 -18 42 -31 45 -28 6 7 -26 54
-55 80 -19 17 -20 17 -24 -1z"/>
<path d="M1944 11024 c-27 -19 -59 -39 -71 -44 -13 -5 -23 -14 -23 -19 0 -22
19 -19 64 9 26 17 49 30 52 30 13 0 63 44 58 52 -10 15 -30 8 -80 -28z"/>
<path d="M617 11023 c-8 -7 11 -33 25 -33 5 0 27 -9 48 -19 30 -15 40 -16 40
-6 0 7 -13 16 -29 20 -16 3 -37 15 -47 26 -18 20 -27 23 -37 12z"/>
<path d="M780 10938 c1 -17 35 -58 49 -58 16 0 14 8 -10 41 -21 30 -39 38 -39
17z"/>
<path d="M1787 10933 c-10 -10 -8 -33 3 -33 5 0 14 9 20 20 8 15 8 20 -3 20
-8 0 -17 -3 -20 -7z"/>
<path d="M1912 10896 c-17 -7 -38 -18 -45 -25 -10 -11 -6 -13 22 -7 18 3 42 6
52 6 12 0 19 7 19 20 0 22 -2 22 -48 6z"/>
<path d="M624 10889 c-3 -5 1 -11 8 -13 7 -1 28 -8 46 -14 17 -5 32 -7 32 -3
0 13 -79 40 -86 30z"/>
<path d="M1800 10850 c0 -5 5 -10 10 -10 6 0 10 5 10 10 0 6 -4 10 -10 10 -5
0 -10 -4 -10 -10z"/>
<path d="M787 10843 c-14 -13 -6 -23 18 -23 28 0 34 15 9 24 -19 7 -19 7 -27
-1z"/>
<path d="M780 10661 c0 -93 8 -120 34 -113 39 10 44 42 6 42 -31 0 -37 46 -11
74 21 22 21 23 3 39 -10 9 -22 17 -25 17 -4 0 -7 -26 -7 -59z"/>
<path d="M1891 10696 c-19 -7 -37 -18 -39 -24 -6 -18 63 -15 78 3 20 24 0 34
-39 21z"/>
<path d="M1806 10661 c-4 -7 -5 -15 -2 -18 9 -9 19 4 14 18 -4 11 -6 11 -12 0z"/>
<path d="M1888 10592 c-21 -2 -38 -7 -38 -13 0 -9 5 -10 55 -11 94 -2 125 3
125 16 0 14 -43 17 -142 8z"/>
<path d="M590 10555 c0 -20 95 -20 130 0 23 13 20 14 -52 15 -63 0 -78 -3 -78
-15z"/>
<path d="M790 10471 c0 -35 10 -38 45 -15 30 20 33 38 5 29 -12 -4 -27 -1 -35
5 -13 10 -15 7 -15 -19z"/>
<path d="M1807 10474 c-8 -8 1 -24 14 -24 5 0 9 7 9 15 0 15 -12 20 -23 9z"/>
<path d="M1865 10459 c-10 -15 26 -50 49 -47 31 5 30 25 -3 42 -36 19 -38 19
-46 5z"/>
<path d="M710 10434 c-14 -7 -42 -14 -62 -14 -27 0 -38 -4 -38 -15 0 -9 9 -15
25 -15 28 0 135 41 135 53 0 11 -32 7 -60 -9z"/>
<path d="M704 10238 c-58 -33 -100 -65 -92 -73 6 -6 145 71 154 87 10 15 -21
8 -62 -14z"/>
<path d="M1862 10223 c2 -10 18 -21 38 -26 19 -5 44 -17 55 -27 20 -17 59 -40
69 -40 3 0 6 8 6 18 0 12 -23 30 -69 55 -75 41 -104 47 -99 20z"/>
<path d="M1803 10204 c-6 -16 22 -52 33 -41 9 9 -5 57 -17 57 -5 0 -12 -7 -16
-16z"/>
<path d="M1870 10156 c0 -16 114 -119 143 -129 32 -12 18 22 -22 51 -22 16
-52 43 -66 60 -28 33 -55 42 -55 18z"/>
<path d="M617 10055 c-20 -14 -37 -30 -37 -36 0 -12 2 -11 47 16 18 11 33 26
33 33 0 16 1 16 -43 -13z"/>
<path d="M722 10025 c-25 -24 -41 -49 -37 -55 10 -16 18 -10 59 38 61 74 45
86 -22 17z"/>
<path d="M1870 10038 c0 -18 7 -44 15 -58 8 -14 19 -35 24 -47 12 -27 25 -35
45 -27 19 7 21 28 3 43 -8 6 -22 35 -32 66 -14 39 -24 55 -37 55 -14 0 -18 -8
-18 -32z"/>
<path d="M1640 6741 c0 -6 5 -13 10 -16 6 -3 10 1 10 9 0 9 -4 16 -10 16 -5 0
-10 -4 -10 -9z"/>
<path d="M7261 3744 c-16 -13 -38 -24 -49 -24 -26 0 -33 -29 -20 -81 12 -47 3
-59 -47 -59 -42 0 -105 -44 -105 -74 0 -30 36 -46 105 -46 56 0 69 -8 59 -33
-4 -11 -19 -15 -53 -13 -38 1 -56 -5 -90 -28 -36 -25 -41 -33 -36 -55 13 -52
31 -61 105 -55 42 4 70 3 74 -4 13 -21 -6 -40 -46 -46 -29 -5 -52 -18 -80 -45
-35 -35 -38 -43 -38 -92 0 -62 10 -82 36 -77 15 2 18 14 20 65 2 35 6 72 9 83
7 23 42 40 81 40 21 0 25 -4 24 -32 -1 -72 9 -328 17 -408 4 -47 8 -116 8
-155 0 -64 2 -70 25 -82 14 -7 29 -8 33 -4 15 15 8 197 -12 331 -11 76 -16
338 -6 348 4 4 34 8 68 9 198 6 287 22 328 59 29 26 23 43 -21 60 -36 15 -39
19 -37 52 l2 36 -115 -4 c-236 -8 -225 -10 -228 28 -2 21 1 33 10 34 33 4 59
5 146 7 75 1 94 4 99 17 10 27 -18 34 -137 29 -103 -3 -113 -2 -95 11 11 8 26
12 34 9 17 -7 130 15 137 26 5 8 -79 13 -154 9 -21 -1 -34 4 -38 15 -8 21 -3
25 48 36 114 26 118 116 6 132 -31 5 -44 1 -67 -19z m77 -56 c-7 -20 -68 -23
-68 -4 0 12 10 16 36 16 24 0 34 -4 32 -12z m-159 -157 c7 -5 9 -11 5 -14 -13
-7 -74 4 -74 14 0 11 51 11 69 0z m-3 -171 c15 0 24 -6 24 -15 0 -12 -13 -15
-58 -15 -65 0 -78 6 -60 27 8 10 22 13 41 9 16 -3 40 -6 53 -6z m136 -18 c-37
-4 -47 1 -38 17 4 6 17 6 39 -2 l32 -12 -33 -3z m188 8 c0 -5 -11 -10 -25 -10
-14 0 -25 5 -25 10 0 6 11 10 25 10 14 0 25 -4 25 -10z m70 0 c0 -5 -9 -10
-20 -10 -11 0 -20 5 -20 10 0 6 9 10 20 10 11 0 20 -4 20 -10z m45 -52 c15
-14 -23 -38 -64 -40 -20 0 -47 -2 -61 -3 -141 -11 -217 -8 -224 10 -14 38 1
43 137 44 72 1 133 3 135 6 7 6 66 -6 77 -17z"/>
<path d="M7362 3120 c-27 -26 -27 -35 -2 -60 26 -26 32 -25 59 4 49 53 -5 104
-57 56z"/>
<path d="M1410 12420 c-41 -11 -85 -19 -97 -20 -39 0 -25 -17 18 -23 25 -3 54
0 73 8 17 7 54 17 81 22 52 8 68 27 25 30 -14 1 -59 -7 -100 -17z"/>
<path d="M3037 12114 c-13 -13 -7 -24 14 -24 11 0 19 5 17 12 -5 14 -22 21
-31 12z"/>
<path d="M3062 11978 c-6 -7 -13 -27 -17 -43 -6 -27 -5 -28 8 -12 21 25 25 22
29 -20 3 -41 23 -51 42 -21 8 13 7 29 -4 60 -15 44 -39 59 -58 36z"/>
<path d="M3101 11821 c-8 -5 -11 -16 -8 -25 8 -21 43 -21 51 0 11 30 -13 44
-43 25z"/>
<path d="M4683 11390 c-29 -12 -30 -51 -2 -68 17 -11 20 -20 15 -44 -11 -56
25 -74 69 -36 26 23 32 47 15 64 -6 6 -13 24 -16 40 -9 57 -26 66 -81 44z"/>
<path d="M3490 11632 c-63 -44 -70 -66 -22 -70 26 -3 36 -11 53 -43 23 -46 42
-57 66 -38 13 11 17 11 20 2 9 -25 25 -13 19 12 -4 15 0 37 9 55 8 16 15 34
15 40 0 19 -28 10 -48 -15 -22 -28 -48 -31 -75 -10 -30 22 -17 48 33 66 55 20
64 39 18 39 -22 0 -51 -13 -88 -38z"/>
<path d="M3635 11316 c-26 -26 -31 -41 -16 -50 11 -7 76 41 76 57 0 22 -34 18
-60 -7z"/>
<path d="M3780 11245 c-7 -8 -23 -15 -36 -15 -29 0 -32 -26 -5 -35 11 -3 31
-3 46 1 25 6 26 4 23 -22 -2 -20 -14 -36 -40 -53 -35 -23 -36 -24 -21 -47 35
-53 124 -12 94 44 -16 30 -14 42 8 42 57 0 67 31 23 73 -31 30 -73 35 -92 12z
m70 -35 c0 -5 -2 -10 -4 -10 -3 0 -8 5 -11 10 -3 6 -1 10 4 10 6 0 11 -4 11
-10z"/>
<path d="M3946 11174 c-8 -32 13 -84 34 -84 9 0 21 -5 27 -11 15 -15 28 30 19
65 -14 56 -69 76 -80 30z"/>
<path d="M3697 11174 c-8 -8 1 -24 14 -24 5 0 9 7 9 15 0 15 -12 20 -23 9z"/>
<path d="M4076 11148 c-19 -62 -7 -92 32 -77 33 13 38 37 12 65 -26 27 -39 30
-44 12z"/>
<path d="M3700 10994 c-6 -14 -10 -35 -10 -48 0 -23 37 -66 58 -66 20 0 14 45
-8 65 -16 14 -19 26 -15 47 8 36 -12 38 -25 2z"/>
<path d="M4547 10142 c-18 -20 -17 -27 33 -232 38 -158 41 -177 40 -276 -1
-55 -1 -104 -1 -110 1 -6 13 -16 27 -22 36 -17 62 0 70 45 9 48 -4 343 -15
357 -13 16 -61 156 -61 178 0 11 -7 32 -15 48 -18 35 -53 40 -78 12z"/>
<path d="M3903 9330 c-15 -6 -23 -18 -23 -32 0 -35 11 -43 60 -44 25 -1 65 -6
90 -13 48 -13 113 -7 129 13 7 9 6 19 -4 33 -11 16 -22 20 -54 16 -23 -3 -51
1 -67 10 -39 19 -104 27 -131 17z"/>
<path d="M4200 9306 c-5 -13 -12 -40 -15 -60 -6 -32 -5 -36 13 -36 26 0 42 20
49 65 4 26 2 40 -8 46 -22 14 -29 11 -39 -15z"/>
<path d="M3916 9164 c-10 -27 5 -66 24 -61 9 2 48 -1 86 -9 90 -17 139 -7 139
26 0 23 -4 25 -60 31 -33 3 -73 11 -88 17 -41 17 -94 15 -101 -4z"/>
<path d="M3837 9102 c-17 -30 -16 -65 4 -91 19 -25 20 -35 12 -88 -11 -72 -8
-83 22 -83 28 0 45 26 45 67 0 59 16 67 124 60 58 -3 106 -11 119 -20 70 -45
106 -26 100 55 -6 71 -9 78 -32 78 -13 0 -21 -9 -26 -30 -8 -35 -21 -46 -38
-32 -24 19 -121 32 -193 26 l-72 -7 -16 30 c-15 30 -42 49 -49 35z"/>
<path d="M3985 8909 c-35 -10 -55 -34 -55 -66 0 -32 24 -39 57 -18 23 15 33
16 82 5 91 -19 93 -19 113 -9 14 7 20 6 24 -6 9 -22 51 -19 64 5 23 43 -16 78
-59 51 -13 -9 -49 0 -106 25 -44 19 -86 24 -120 13z"/>
<path d="M4233 8283 c-37 -19 -41 -39 -18 -84 9 -16 13 -34 10 -38 -3 -5 -2
-17 1 -26 5 -13 14 -15 38 -10 17 3 45 8 63 12 18 3 37 11 43 18 17 21 -5 55
-36 55 -22 0 -24 3 -22 43 3 38 1 42 -22 44 -14 1 -40 -5 -57 -14z"/>
<path d="M4267 8073 c-10 -9 -8 -55 2 -71 12 -20 99 -5 106 18 9 30 -5 47 -43
54 -48 8 -57 7 -65 -1z"/>
<path d="M4328 7943 c-26 -4 -28 -8 -28 -49 0 -40 2 -44 25 -44 31 0 95 30 95
45 0 6 -7 21 -16 33 -15 22 -22 23 -76 15z"/>
<path d="M4367 7733 c-14 -14 -7 -81 9 -87 37 -14 47 -7 41 30 -8 49 -32 76
-50 57z"/>
<path d="M4342 7607 c-7 -8 -10 -29 -8 -48 3 -19 5 -38 5 -42 1 -8 38 -4 84 9
20 6 24 66 5 81 -21 15 -74 15 -86 0z"/>
<path d="M4348 7462 c-7 -8 -8 -23 -2 -45 l10 -32 88 -3 89 -3 -6 41 c-3 23
-8 44 -11 48 -13 12 -157 7 -168 -6z"/>
<path d="M4388 7333 c-13 -3 -18 -14 -18 -36 0 -50 12 -61 58 -53 73 11 94 23
87 49 -4 12 -14 28 -23 35 -15 12 -69 14 -104 5z"/>
<path d="M4360 7170 c0 -22 6 -43 13 -47 8 -4 18 -28 23 -53 8 -41 12 -45 42
-48 46 -5 40 -22 -9 -22 -41 0 -41 0 -34 -32 11 -53 23 -61 77 -55 88 11 135
50 100 85 -15 15 -16 23 -8 41 9 20 6 27 -23 50 -33 27 -33 41 1 41 14 0 18 8
18 34 0 42 -9 46 -116 46 l-84 0 0 -40z"/>
<path d="M4470 6870 c-22 -5 -25 -11 -22 -40 5 -43 19 -62 42 -55 33 11 43
-21 38 -120 -1 -25 20 -180 38 -272 3 -14 14 -25 29 -29 16 -4 25 -13 25 -25
0 -39 141 -62 164 -26 9 15 7 21 -14 37 -14 11 -32 20 -40 20 -8 0 -29 9 -47
19 -28 17 -32 27 -39 78 -4 32 -15 83 -25 113 -10 30 -19 66 -19 80 0 14 -7
35 -14 48 -10 19 -10 33 2 79 20 78 8 102 -50 100 -24 0 -54 -3 -68 -7z"/>
<path d="M4468 6734 c-5 -4 -8 -19 -8 -33 0 -18 3 -22 11 -14 6 6 9 21 7 33
-1 12 -6 18 -10 14z"/>
<path d="M4743 6567 c-12 -15 -44 -80 -41 -82 9 -5 114 -25 134 -25 31 0 64
33 64 65 0 23 -4 25 -45 25 -26 0 -59 7 -74 15 -23 11 -31 12 -38 2z"/>
<path d="M4175 6390 c-26 -50 -20 -63 36 -82 58 -19 66 -12 55 44 -13 68 -65
89 -91 38z"/>
<path d="M3955 6325 c-40 -60 -46 -101 -21 -139 18 -28 28 -31 56 -16 16 9 19
18 13 55 -4 31 0 59 11 90 32 83 -7 90 -59 10z"/>
<path d="M4838 6345 c-9 -19 -8 -31 1 -49 11 -20 22 -24 94 -30 45 -3 101 -6
125 -6 41 0 42 1 42 33 0 34 0 34 -67 46 -38 6 -87 12 -110 11 -23 0 -44 4
-48 10 -11 17 -25 11 -37 -15z"/>
<path d="M4153 6255 c-18 -38 -11 -57 24 -61 10 -1 33 -5 51 -9 32 -7 32 -7
32 29 0 30 -5 40 -32 56 -45 27 -56 25 -75 -15z"/>
<path d="M4699 6239 c-14 -3 -22 -12 -20 -20 2 -8 6 -26 9 -41 4 -28 5 -28 86
-28 108 0 156 -9 149 -26 -3 -9 -26 -13 -80 -12 -41 0 -79 -4 -84 -9 -9 -9 13
-77 28 -86 5 -3 31 -1 60 4 31 6 74 6 110 0 92 -14 325 21 363 56 12 11 12 15
-3 30 -12 13 -35 17 -84 18 -38 1 -116 2 -175 3 -67 1 -108 6 -108 12 0 7 25
10 64 8 70 -2 109 15 119 52 8 31 -9 34 -150 27 -89 -5 -131 -3 -146 5 -24 13
-100 17 -138 7z"/>
<path d="M4182 6143 c-7 -3 -19 -18 -28 -35 -21 -41 -5 -58 57 -58 39 0 49 4
54 20 3 10 1 28 -4 39 -11 20 -58 41 -79 34z"/>
<path d="M5509 6043 c-1 -4 -2 -19 -3 -33 l-1 -25 -102 4 c-56 1 -132 -2 -170
-9 -55 -9 -83 -9 -148 3 -79 15 -80 15 -98 -7 -17 -21 -22 -22 -83 -13 -76 11
-98 1 -88 -42 4 -14 10 -30 15 -35 12 -13 291 -17 306 -4 8 6 56 7 135 2 181
-12 235 -9 259 12 11 10 17 25 14 35 -3 10 0 21 8 26 11 6 13 18 8 48 -5 31
-11 41 -29 43 -12 2 -23 0 -23 -5z"/>
<path d="M4166 6011 c-9 -10 -18 -31 -19 -46 -2 -32 24 -42 68 -25 29 11 34
49 9 74 -20 21 -37 20 -58 -3z"/>
<path d="M4200 5903 c-1 -32 -29 -58 -63 -58 -31 0 -32 -2 -29 -35 5 -45 11
-51 60 -53 53 -2 72 15 53 45 -12 19 -11 23 6 37 28 23 35 48 17 66 -21 20
-44 19 -44 -2z"/>
<path d="M4888 5842 c-44 -4 -51 -27 -17 -58 18 -16 39 -19 137 -20 119 -2
136 -4 184 -22 39 -16 135 -32 224 -38 43 -3 94 -10 111 -16 37 -13 49 -7 38
19 -5 10 -7 25 -6 34 4 34 -31 47 -159 58 -69 7 -170 18 -225 27 -100 16 -218
22 -287 16z"/>
<path d="M4081 5716 c-8 -9 -10 -27 -6 -46 l7 -30 74 0 c55 0 76 4 80 14 11
28 -14 53 -58 59 -24 4 -52 9 -64 13 -12 3 -25 -1 -33 -10z"/>
<path d="M4938 5706 c-52 -10 -60 -26 -34 -62 13 -17 28 -19 133 -21 65 -1
162 -5 215 -9 87 -6 98 -5 104 10 10 26 -12 40 -96 64 -86 24 -251 33 -322 18z"/>
<path d="M4446 5639 c-26 -31 -33 -54 -18 -63 5 -3 34 -8 65 -10 54 -5 57 -4
58 17 2 39 -2 52 -23 70 -29 25 -53 21 -82 -14z"/>
<path d="M5467 5648 c-37 -13 -24 -30 19 -22 22 4 34 2 34 -5 0 -6 -11 -11
-25 -11 -33 0 -40 -21 -20 -59 17 -34 30 -37 70 -19 28 13 34 48 10 68 -8 7
-13 16 -10 20 7 11 -23 40 -38 39 -7 0 -24 -5 -40 -11z"/>
<path d="M4086 5581 c-4 -6 -2 -29 4 -51 11 -41 34 -52 57 -29 6 6 34 11 62
11 28 0 51 3 51 7 0 4 -13 20 -29 35 -21 20 -42 29 -83 33 -35 3 -58 2 -62 -6z"/>
<path d="M5003 5573 c-49 -5 -58 -20 -33 -60 l18 -30 168 -7 c93 -3 180 -8
194 -10 14 -2 49 -7 78 -10 49 -6 52 -5 52 16 0 13 -4 28 -8 35 -15 23 -97 51
-167 57 -119 9 -258 14 -302 9z"/>
<path d="M4473 5523 c-7 -3 -13 -13 -13 -23 0 -10 -4 -22 -10 -25 -16 -10 -11
-43 8 -49 9 -3 37 -6 62 -8 41 -2 45 0 54 25 8 21 6 31 -5 42 -19 19 -81 43
-96 38z"/>
<path d="M5512 5465 c0 -19 6 -40 14 -46 8 -7 12 -20 9 -30 -4 -13 -1 -19 8
-19 18 0 40 57 26 65 -5 4 -9 19 -9 36 0 24 -4 29 -24 29 -21 0 -24 -5 -24
-35z"/>
<path d="M5085 5429 c-54 -13 -60 -22 -45 -59 l13 -31 86 2 c96 2 216 -9 244
-23 14 -7 15 -13 8 -22 -12 -15 13 -76 30 -76 24 0 48 22 54 50 5 24 1 37 -19
61 -14 17 -26 37 -26 45 0 8 -12 19 -27 25 -25 10 -63 15 -230 32 -27 3 -66 1
-88 -4z"/>
<path d="M4523 5368 c-21 -27 -22 -48 -3 -70 24 -30 42 -14 44 38 1 41 -21 58
-41 32z"/>
<path d="M5162 5282 c-23 -7 -24 -11 -15 -42 18 -59 19 -60 86 -60 54 0 68 4
91 25 27 25 35 54 14 56 -7 1 -27 0 -44 -1 -17 -1 -38 6 -47 14 -16 16 -45 19
-85 8z"/>
<path d="M5118 5115 c-10 -13 -18 -30 -18 -38 0 -17 37 -43 74 -53 14 -3 28
-14 31 -24 8 -26 -5 -70 -21 -70 -11 0 -13 -10 -8 -42 8 -50 14 -55 73 -64 66
-10 91 14 77 72 -6 22 -10 24 -41 18 -36 -6 -50 8 -19 20 12 5 15 14 10 37 -5
26 0 38 25 66 43 50 36 67 -31 74 -30 4 -68 12 -83 18 -40 16 -50 14 -69 -14z"/>
<path d="M4311 5101 c-29 -52 2 -86 40 -45 18 20 21 29 13 42 -16 25 -41 26
-53 3z"/>
<path d="M4304 4988 c-4 -7 -9 -25 -11 -40 -5 -49 57 -63 84 -19 16 26 7 50
-24 62 -32 12 -40 11 -49 -3z"/>
<path d="M4330 4864 c-14 -36 -5 -58 27 -73 23 -11 29 -10 41 6 7 10 10 29 7
43 -8 30 -13 36 -42 45 -19 5 -25 1 -33 -21z"/>
<path d="M4324 4735 c-3 -8 -3 -19 1 -24 3 -6 1 -19 -4 -30 -12 -21 3 -32 51
-38 64 -7 69 74 6 96 -41 14 -48 14 -54 -4z"/>
<path d="M5271 4509 c-14 -5 -44 -7 -68 -3 -35 5 -44 3 -49 -11 -4 -9 -2 -21
5 -28 6 -6 11 -24 11 -40 l0 -29 60 4 c39 3 66 11 80 23 22 20 27 64 8 83 -14
14 -15 14 -47 1z"/>
<path d="M4964 4466 c-4 -9 -1 -23 6 -31 11 -13 9 -20 -10 -40 -18 -20 -21
-28 -12 -37 7 -7 12 -22 12 -33 0 -31 8 -35 42 -23 28 10 30 14 25 45 -4 20
-1 43 6 54 10 15 9 25 -3 47 -18 31 -57 42 -66 18z"/>
<path d="M4945 4240 c-3 -5 -3 -21 1 -35 4 -15 2 -25 -5 -25 -6 0 -11 -10 -11
-22 0 -39 12 -68 27 -68 22 0 63 31 63 49 1 9 7 27 14 40 22 40 2 71 -45 71
-21 0 -40 -4 -44 -10z"/>
<path d="M5187 4033 c-16 -4 -18 -11 -12 -41 9 -49 21 -62 57 -62 38 0 98 26
98 42 -1 7 -7 24 -14 37 -11 20 -22 25 -62 27 -27 1 -57 -1 -67 -3z"/>
<path d="M4706 2831 c-8 -13 4 -41 18 -42 6 -1 20 0 32 0 11 1 55 -10 98 -24
42 -15 83 -24 91 -21 22 8 18 44 -7 60 -44 28 -219 48 -232 27z"/>
<path d="M4720 2720 c0 -35 21 -50 71 -50 30 0 65 -8 90 -20 30 -16 44 -18 59
-10 33 18 25 49 -17 67 -47 19 -203 30 -203 13z"/>
<path d="M1160 10966 c0 -15 50 -60 57 -52 3 2 -3 18 -12 35 -16 32 -45 42
-45 17z"/>
<path d="M3029 10514 c-8 -10 -22 -12 -44 -8 -23 4 -37 1 -48 -11 -38 -37 -14
-54 86 -61 76 -6 87 -5 93 10 16 43 -59 103 -87 70z"/>
<path d="M3290 10449 c-18 -32 12 -159 37 -159 13 0 15 8 9 46 -3 26 -6 66 -6
90 0 49 -21 60 -40 23z"/>
<path d="M3310 10231 c0 -17 6 -21 31 -21 24 0 30 4 27 18 -2 10 -14 18 -31
20 -22 3 -27 -1 -27 -17z"/>
<path d="M3312 10148 c2 -18 10 -24 36 -26 30 -3 33 -1 30 20 -2 18 -10 24
-36 26 -30 3 -33 1 -30 -20z"/>
<path d="M3314 10058 c3 -13 6 -28 6 -34 0 -7 8 -14 18 -18 9 -3 23 -9 30 -12
9 -4 12 7 12 40 l0 46 -36 0 c-33 0 -36 -2 -30 -22z"/>
<path d="M3357 9972 c-18 -4 -18 -4 0 -18 23 -17 33 -17 33 0 0 18 -10 24 -33
18z"/>
<path d="M3335 9921 c-3 -6 3 -16 15 -23 25 -16 26 -28 3 -28 -15 0 -16 -2 -3
-10 26 -17 40 -11 40 18 0 15 -4 32 -8 37 -10 14 -39 18 -47 6z"/>
<path d="M3340 9791 c0 -19 8 -38 20 -48 24 -21 26 -35 5 -27 -21 8 -19 -13 3
-25 16 -9 16 -11 -3 -25 -22 -16 -20 -20 13 -30 21 -7 22 -5 21 41 0 26 -4 68
-7 93 -6 37 -11 46 -29 48 -20 3 -23 -1 -23 -27z"/>
<path d="M3365 9599 c-4 -5 0 -18 9 -28 20 -22 20 -31 1 -31 -18 0 -22 -75 -4
-86 6 -4 9 -19 5 -36 -5 -24 -3 -29 12 -26 10 2 17 12 16 26 0 12 -1 60 -2
107 -2 67 -5 85 -16 85 -8 0 -18 -5 -21 -11z"/>
<path d="M3382 9349 c2 -7 10 -15 17 -17 8 -3 12 1 9 9 -2 7 -10 15 -17 17 -8
3 -12 -1 -9 -9z"/>
<path d="M3380 9295 c0 -8 7 -15 15 -15 8 0 15 4 15 9 0 5 -7 11 -15 15 -9 3
-15 0 -15 -9z"/>
<path d="M3377 9233 c-3 -5 -4 -19 -2 -33 1 -14 3 -35 4 -47 1 -16 7 -23 21
-23 18 0 20 7 20 55 0 48 -3 55 -19 55 -11 0 -22 -3 -24 -7z"/>
<path d="M3380 9081 c0 -11 4 -22 8 -25 14 -9 35 12 29 28 -9 23 -37 20 -37
-3z"/>
<path d="M3386 9024 c-4 -9 -2 -22 4 -29 5 -7 7 -26 4 -44 -4 -19 -2 -37 6
-46 10 -12 10 -19 2 -27 -22 -22 -7 -152 18 -168 9 -6 9 -12 -1 -28 -11 -18
-10 -24 5 -41 13 -15 15 -24 7 -39 -11 -21 -4 -65 10 -56 5 3 9 45 9 94 0 79
-2 91 -20 100 -23 12 -27 30 -6 30 20 0 23 14 15 79 -4 31 -8 82 -8 113 -1 46
-5 59 -20 67 -15 8 -20 7 -25 -5z"/>
<path d="M3426 8491 c-4 -6 -1 -21 6 -33 l13 -23 3 24 c4 26 -12 49 -22 32z"/>
<path d="M3432 8374 c2 -15 9 -29 16 -32 10 -3 13 4 10 24 -2 15 -9 29 -16 32
-10 3 -13 -4 -10 -24z"/>
<path d="M3446 8301 c-4 -7 -5 -15 -2 -18 9 -9 19 4 14 18 -4 11 -6 11 -12 0z"/>
<path d="M3451 6594 c0 -11 3 -14 6 -6 3 7 2 16 -1 19 -3 4 -6 -2 -5 -13z"/>
<path d="M3550 4511 c0 -11 5 -23 10 -26 6 -4 10 5 10 19 0 14 -4 26 -10 26
-5 0 -10 -9 -10 -19z"/>
<path d="M3617 2728 c8 -46 13 -48 13 -5 0 21 -4 37 -10 37 -5 0 -7 -14 -3
-32z"/>
<path d="M3643 2233 c-13 -43 -1 -147 17 -151 12 -2 15 10 14 65 0 94 -3 113
-13 113 -5 0 -13 -12 -18 -27z"/>
<path d="M2574 10172 c-14 -9 -37 -52 -31 -58 2 -2 30 -11 62 -19 47 -13 60
-13 67 -3 4 7 6 19 3 26 -3 8 -5 17 -5 22 0 4 -18 15 -40 24 -47 18 -42 18
-56 8z"/>
<path d="M1661 1257 c-46 -16 -58 -55 -33 -115 9 -23 25 -45 35 -48 24 -7 47
13 47 41 0 29 22 47 52 43 26 -3 24 15 19 -249 -3 -116 -4 -126 -24 -135 -35
-16 -45 -41 -22 -59 15 -11 39 -14 98 -10 42 2 82 7 87 10 5 3 19 1 30 -5 14
-8 26 -8 40 0 25 13 26 49 3 56 -45 14 -45 11 -45 202 -1 128 2 186 10 191 27
17 81 -1 107 -35 29 -38 49 -43 64 -15 14 26 4 93 -16 109 -18 13 -22 13 -238
16 -77 1 -149 5 -160 8 -11 4 -35 1 -54 -5z"/>
<path d="M3943 1260 c-29 -12 -31 -53 -4 -72 17 -12 19 -32 25 -198 5 -161 3
-186 -11 -202 -14 -16 -14 -22 -3 -43 18 -34 80 -37 138 -7 35 18 40 36 17 62
-9 10 -18 45 -21 81 -6 56 -4 66 14 83 14 12 30 17 47 13 15 -2 42 -1 61 3 20
5 37 4 40 -2 4 -5 6 -56 5 -113 -2 -98 -1 -105 21 -119 27 -17 128 -11 128 8
0 6 -7 30 -15 52 -10 29 -15 93 -16 208 -1 147 1 169 16 186 27 30 4 50 -54
50 -78 0 -86 -12 -84 -122 l2 -94 -77 1 -77 2 -2 58 c-2 40 2 67 13 83 14 21
14 26 -1 48 -8 13 -25 25 -38 26 -59 4 -73 6 -87 11 -8 3 -25 2 -37 -3z"/>
<path d="M2164 1241 c-10 -10 -3 -35 13 -46 14 -10 16 -36 17 -186 1 -190 -4
-224 -34 -234 -22 -7 -28 -45 -7 -46 85 -4 211 1 219 9 16 16 2 40 -24 44 -22
3 -23 7 -26 98 -4 131 -1 134 110 125 l86 -7 7 -98 c4 -54 4 -103 0 -109 -3
-6 -19 -11 -36 -11 -29 0 -36 -13 -20 -38 8 -14 189 -26 218 -15 21 8 16 41
-7 45 -20 3 -21 10 -21 183 0 99 0 190 0 202 1 14 11 27 29 35 16 8 27 21 27
33 0 19 -6 20 -105 17 -58 -2 -108 -7 -113 -11 -4 -4 2 -18 13 -31 21 -24 24
-50 14 -113 -7 -37 -8 -38 -38 -30 -17 4 -60 7 -96 8 l-65 0 -3 55 c-2 30 2
64 9 77 8 14 9 27 3 32 -9 9 -162 20 -170 12z"/>
<path d="M2798 1243 c-22 -6 -23 -17 -2 -48 20 -31 28 -208 13 -303 -20 -127
-21 -149 -12 -155 5 -3 38 -9 74 -12 214 -19 283 -11 301 34 6 14 14 34 19 43
12 24 11 55 -2 63 -21 14 -67 -16 -84 -55 -15 -33 -22 -39 -54 -42 -20 -2 -50
-1 -66 2 l-30 5 -1 90 c-1 53 3 93 9 97 21 13 44 -12 51 -52 7 -45 27 -60 52
-39 14 12 16 29 11 108 -3 51 -10 98 -15 103 -5 5 -21 6 -36 2 -22 -5 -26 -12
-26 -40 0 -27 -4 -34 -19 -34 -11 0 -22 8 -24 18 -10 35 -7 131 4 137 6 4 40
4 75 0 58 -6 66 -9 80 -36 23 -45 55 -36 73 20 13 42 13 45 -7 61 -14 12 -50
19 -119 24 -151 11 -246 14 -265 9z"/>
<path d="M4463 1243 c-18 -6 -16 -23 4 -45 14 -15 17 -48 19 -206 4 -196 1
-222 -21 -222 -26 0 -26 -19 0 -36 20 -13 28 -14 40 -4 15 13 221 9 263 -5 19
-6 24 -3 33 23 6 17 19 34 30 37 13 5 19 16 19 38 0 40 -8 51 -41 55 -31 4
-53 -20 -54 -56 0 -26 -3 -27 -57 -30 -65 -3 -62 -8 -72 101 -5 48 -3 59 10
64 11 4 24 -2 38 -19 27 -33 51 -40 67 -22 10 12 10 27 1 72 -14 66 -22 77
-56 68 -19 -5 -26 -13 -26 -31 0 -18 -5 -25 -19 -25 -25 0 -28 12 -27 102 2
93 10 105 63 92 34 -8 38 -12 38 -41 1 -22 10 -42 30 -63 28 -30 30 -30 48
-12 11 11 20 38 23 69 3 42 1 53 -19 71 -22 20 -36 23 -173 26 -82 2 -155 2
-161 -1z"/>
<path d="M4968 1232 c-43 -4 -51 -27 -19 -54 17 -14 20 -30 20 -110 0 -51 2
-132 5 -181 3 -75 1 -91 -15 -111 -26 -33 -14 -39 88 -42 66 -2 86 1 99 14 15
15 15 17 -5 30 -18 13 -21 24 -21 92 0 81 14 110 44 93 24 -14 94 -108 101
-136 7 -26 48 -67 67 -67 6 0 23 -9 39 -21 40 -28 83 -23 87 11 2 19 -9 37
-49 75 -28 27 -62 66 -75 87 -13 21 -28 38 -33 38 -5 0 -12 8 -15 17 -5 11 5
28 29 53 32 33 35 41 34 90 -3 73 -26 98 -109 115 -60 12 -184 16 -272 7z
m230 -59 c36 -33 55 -129 29 -151 -18 -15 -97 -9 -107 9 -4 8 -6 47 -3 87 6
71 6 72 33 72 15 0 37 -8 48 -17z"/>
<path d="M5463 1214 c-10 -26 5 -44 37 -44 l30 0 0 -75 c2 -319 2 -316 -16
-336 -27 -29 -2 -47 77 -54 54 -5 68 -3 79 10 17 21 3 47 -29 55 -22 5 -23 11
-27 128 -6 139 3 152 42 70 28 -61 37 -76 78 -138 34 -52 53 -70 77 -70 20 0
69 47 69 68 0 16 15 51 74 172 l36 75 -5 -149 c-3 -81 -10 -157 -16 -167 -5
-11 -7 -29 -4 -39 7 -21 39 -27 50 -10 4 6 12 7 18 3 6 -4 35 -8 64 -10 45 -3
52 0 58 17 8 27 -12 52 -39 48 -21 -3 -21 0 -21 179 0 171 1 183 22 211 32 43
15 53 -83 49 l-79 -3 0 -35 c0 -24 -18 -65 -60 -136 -33 -56 -63 -103 -67
-103 -6 0 -48 70 -108 181 -59 110 -53 106 -158 112 -75 5 -94 3 -99 -9z"/>
<path d="M6253 1213 c-30 -6 -33 -53 -4 -53 11 0 22 -4 25 -9 3 -4 7 -102 8
-216 2 -201 3 -208 23 -217 14 -6 34 -6 56 0 20 5 44 5 58 1 12 -5 27 -7 32
-3 13 8 11 48 -3 62 -8 8 -11 75 -11 217 0 113 -3 207 -6 209 -11 7 -156 14
-178 9z"/>
<path d="M6549 1209 c-7 -4 -13 -32 -15 -63 -4 -92 39 -113 102 -50 23 23 43
34 57 32 25 -3 24 6 14 -188 -3 -63 -6 -127 -7 -141 0 -18 -8 -29 -25 -37 -51
-24 -20 -65 48 -63 23 1 80 5 127 9 76 6 85 9 85 27 0 14 -8 21 -26 23 -22 3
-28 9 -32 40 -9 53 -10 298 -2 311 12 20 45 12 57 -14 15 -33 53 -43 87 -22
21 12 27 25 29 60 5 68 -10 77 -126 79 -289 4 -363 4 -373 -3z"/>
<path d="M7111 824 c-36 -30 -40 -63 -12 -88 23 -21 49 -15 80 18 l23 24 -21
21 c-12 12 -21 28 -21 36 0 22 -14 19 -49 -11z"/>
<path d="M7961 11734 c0 -11 3 -14 6 -6 3 7 2 16 -1 19 -3 4 -6 -2 -5 -13z"/>
</g>
</svg>
