<?xml version="1.0" standalone="no"?>
<!DOCTYPE svg PUBLIC "-//W3C//DTD SVG 20010904//EN"
 "http://www.w3.org/TR/2001/REC-SVG-20010904/DTD/svg10.dtd">
<svg version="1.0" xmlns="http://www.w3.org/2000/svg"
 width="826.000000pt" height="1418.000000pt" viewBox="0 0 826.000000 1418.000000"
 preserveAspectRatio="xMidYMid meet">
<metadata>
Created by potrace 1.16, written by Peter Selinger 2001-2019
</metadata>
<g transform="translate(0.000000,1418.000000) scale(0.100000,-0.100000)"
fill="#000000" stroke="none">
<path d="M7895 13811 c-10 -10 -89 -13 -240 -11 -44 0 -168 0 -275 -1 -107 -1
-265 -1 -350 0 -85 2 -200 0 -255 -4 -55 -4 -183 -8 -285 -9 -102 0 -190 -4
-196 -8 -6 -4 -18 2 -27 13 -9 10 -21 19 -27 19 -12 0 -14 -16 -2 -23 4 -2 1
-2 -7 0 -7 2 -20 -2 -27 -8 -10 -8 -14 -8 -14 0 0 6 5 11 10 11 6 0 10 4 10 9
0 14 -197 8 -212 -7 -17 -17 -29 -15 -22 3 4 10 0 15 -11 15 -11 0 -15 -5 -11
-15 4 -11 -2 -15 -21 -15 -26 0 -26 1 -7 15 21 16 5 20 -24 6 -58 -29 -131
-34 -115 -7 3 6 -3 3 -15 -8 -17 -15 -29 -17 -59 -11 -54 11 -147 12 -154 2
-3 -5 -13 -2 -21 6 -8 8 -31 15 -52 15 -30 0 -35 -2 -25 -14 9 -11 7 -14 -14
-14 -19 0 -25 4 -21 15 5 12 -3 15 -37 15 -32 0 -40 -3 -29 -10 19 -12 30 -12
-209 -16 -138 -2 -196 -7 -202 -15 -5 -9 -11 -8 -24 4 -14 15 -44 16 -268 12
-139 -3 -292 -8 -342 -11 -49 -4 -99 -6 -110 -6 -90 4 -187 2 -197 -5 -14 -8
-545 -17 -652 -10 -30 2 -41 -2 -53 -20 -19 -28 -30 -29 -38 -3 -6 17 -15 20
-83 19 -42 0 -134 2 -204 5 -114 5 -127 4 -131 -12 -4 -16 -5 -16 -6 1 -1 18
-38 23 -151 20 -176 -4 -236 -5 -245 -3 -5 1 -13 2 -16 2 -3 -1 -66 -3 -140
-6 -74 -3 -163 -8 -199 -11 -91 -9 -457 -26 -505 -25 -44 2 -70 2 -130 0 -22
-1 -58 -1 -80 -1 -59 0 -88 -3 -102 -12 -7 -5 -18 -5 -24 -1 -9 5 -87 6 -256
2 -13 0 -23 -4 -23 -9 0 -5 -7 -9 -15 -9 -8 0 -15 3 -15 8 0 4 -35 7 -77 7
l-77 0 -13 -34 c-19 -47 -8 -52 102 -47 192 9 217 12 231 31 13 18 15 18 27 2
11 -15 39 -17 252 -18 132 -1 287 2 345 5 58 4 168 9 245 11 166 5 282 13 306
20 10 3 20 1 24 -4 7 -12 163 -5 180 8 5 5 19 6 30 4 34 -8 335 -10 335 -2 0
8 122 5 288 -6 91 -7 105 -6 122 10 19 18 21 18 33 1 11 -15 28 -18 91 -17 42
0 82 4 88 7 6 4 113 7 237 6 253 0 307 5 303 30 -1 9 2 19 8 23 5 3 10 -3 10
-13 0 -17 6 -19 53 -17 28 1 104 8 167 15 84 9 143 10 220 3 58 -6 112 -6 121
-2 24 12 105 13 404 5 149 -4 302 -6 340 -5 39 1 81 1 95 0 14 0 66 -3 115 -5
50 -2 98 -8 109 -12 10 -4 93 -2 185 4 91 5 332 10 536 11 203 1 395 5 425 10
30 5 175 9 323 10 147 0 271 2 275 5 15 9 447 16 461 7 10 -7 11 -16 3 -42 -6
-19 -10 -101 -10 -182 1 -86 -3 -152 -9 -158 -11 -11 -74 -14 -138 -6 -25 2
-49 -1 -63 -10 -21 -13 -26 -13 -41 1 -28 25 -94 20 -129 -9 -44 -37 -60 -33
-64 17 -3 48 -26 62 -56 35 -9 -9 -21 -16 -27 -16 -5 0 -31 -26 -57 -58 -37
-45 -48 -66 -48 -93 0 -21 -7 -42 -17 -51 -10 -9 -22 -23 -28 -32 -8 -13 -34
-17 -131 -21 -67 -2 -130 -8 -140 -14 -12 -6 -38 -7 -69 -2 -28 5 -101 4 -168
-2 -65 -5 -128 -7 -139 -4 -25 6 -55 -9 -78 -37 -20 -24 -40 -15 -40 16 0 12
-4 28 -9 35 -13 21 -62 43 -81 37 -25 -8 -44 19 -31 44 15 27 14 144 -1 159
-18 18 -43 15 -63 -8 -9 -10 -32 -24 -51 -30 -18 -6 -44 -24 -58 -40 -28 -34
-60 -123 -53 -150 2 -10 1 -24 -4 -31 -7 -11 -12 -11 -26 4 -14 14 -18 34 -18
85 0 65 -1 67 -27 70 -15 2 -48 -6 -73 -17 -36 -16 -49 -29 -64 -63 -10 -24
-26 -49 -35 -57 -9 -7 -16 -24 -16 -36 0 -35 -24 -49 -60 -36 -32 11 -86 5
-96 -10 -10 -17 -43 -9 -49 11 -8 25 -20 25 -38 0 -12 -18 -22 -20 -73 -16
-32 3 -86 14 -119 24 -43 13 -76 17 -110 13 -47 -6 -185 -6 -230 -1 -11 2 -56
2 -100 1 -44 -2 -116 1 -160 5 -95 9 -109 9 -198 -1 l-68 -8 -27 32 c-33 40
-101 57 -142 36 -19 -10 -37 -10 -76 -2 -45 9 -58 8 -103 -11 -42 -17 -63 -20
-119 -15 -53 4 -77 2 -105 -12 -20 -9 -37 -20 -37 -24 0 -4 -60 -8 -132 -9
-73 -1 -168 -4 -210 -6 -62 -2 -78 0 -78 11 0 19 -27 28 -45 13 -10 -8 -28
-10 -52 -5 -21 4 -175 8 -343 10 -463 4 -843 14 -958 23 -81 7 -107 13 -125
29 -12 11 -46 32 -76 46 -51 24 -57 25 -89 11 -35 -14 -127 -17 -172 -5 -15 4
-32 21 -42 41 -25 49 -58 75 -122 95 -59 19 -86 15 -86 -11 0 -9 -21 -40 -46
-70 l-47 -54 17 -43 c23 -60 21 -77 -9 -77 -13 0 -36 -5 -49 -12 -35 -15 -66
12 -66 57 0 45 -75 115 -122 115 -18 0 -40 -4 -47 -9 -16 -10 -51 3 -51 19 0
5 -8 19 -18 30 -9 11 -29 50 -43 87 -28 74 -70 113 -118 113 -41 0 -51 -12
-61 -75 -5 -32 -14 -63 -19 -68 -11 -11 -36 14 -68 66 -12 18 -26 27 -43 27
-29 0 -47 -25 -59 -81 -7 -36 -28 -39 -24 -4 2 11 5 65 8 120 10 171 5 161 78
169 34 4 81 7 104 6 l42 -1 -14 28 c-8 15 -12 30 -9 33 6 5 30 -23 37 -44 7
-18 18 -1 20 30 2 28 0 29 -47 32 -44 3 -48 2 -36 -13 7 -8 10 -19 6 -23 -4
-4 -16 3 -25 14 -17 22 -61 29 -146 25 -45 -2 -77 -67 -75 -152 1 -35 0 -253
-3 -484 -3 -231 -3 -469 1 -530 4 -60 3 -146 -2 -190 -11 -89 -11 -111 -6
-375 2 -102 0 -215 -3 -252 -5 -43 -3 -68 3 -68 6 0 10 7 10 16 0 14 2 14 15
0 19 -19 19 -32 0 -40 -8 -3 -15 -1 -15 4 0 6 -4 10 -9 10 -6 0 -8 -63 -5
-152 3 -84 6 -208 8 -275 2 -67 7 -127 11 -133 4 -7 9 -238 11 -514 3 -275 7
-532 9 -571 9 -141 11 -541 2 -585 -16 -81 -6 -875 12 -1004 6 -38 8 -73 5
-77 -8 -13 -6 -735 2 -974 9 -249 9 -269 4 -530 -1 -104 0 -206 3 -225 7 -41
19 -263 18 -335 0 -27 0 -122 1 -210 4 -473 -6 -2131 -15 -2480 -4 -128 -2
-194 5 -203 8 -9 8 -16 0 -24 -14 -14 -16 -259 -2 -363 5 -41 5 -126 0 -205
-11 -165 -13 -300 -10 -630 1 -140 2 -496 2 -790 0 -732 2 -907 9 -915 7 -6
150 -16 234 -17 93 0 456 12 525 17 105 9 539 10 635 2 44 -4 186 -6 315 -6
257 1 257 1 315 -6 101 -11 133 -11 170 -2 42 10 152 10 665 2 173 -2 407 -5
520 -5 113 0 216 -1 230 -2 41 -1 221 0 285 2 33 1 128 -1 211 -5 107 -5 154
-3 159 4 3 6 10 9 15 6 11 -7 94 -18 130 -18 31 0 399 13 500 17 41 2 158 4
260 5 102 1 210 2 240 3 55 2 347 0 385 -2 11 0 85 -1 165 -1 80 -1 177 -3
215 -4 39 -2 124 -4 190 -3 66 0 127 0 135 0 168 -3 482 -2 489 2 5 3 63 7
130 7 79 1 130 7 147 15 14 8 31 11 37 7 5 -3 20 -7 31 -9 12 -2 30 -6 41 -9
14 -4 27 1 40 15 20 22 23 97 16 500 -2 102 -3 250 -2 330 0 80 1 258 1 395 2
436 5 699 14 1105 7 347 10 742 9 1340 0 96 0 274 2 395 1 163 -2 227 -11 246
-8 17 -10 29 -3 36 6 6 9 421 8 1139 -2 621 -1 1284 0 1474 3 435 4 1262 2
1525 -1 110 1 272 4 360 9 236 8 383 -4 750 -7 182 -12 454 -11 605 0 151 -3
433 -7 625 -7 334 -9 683 -5 790 1 28 1 59 1 70 0 11 3 32 7 48 5 21 3 27 -10
27 -18 0 -22 16 -6 22 7 2 11 57 10 148 0 80 0 177 1 215 0 39 0 84 0 100 0
17 0 149 0 295 0 146 0 276 0 290 -1 92 -1 348 0 360 5 39 -2 170 -9 170 -4 0
-12 -4 -17 -9z m-7059 -521 c18 -30 33 -67 34 -82 0 -37 -29 -108 -45 -108 -7
0 -35 19 -61 43 -35 32 -46 48 -41 61 5 12 14 17 27 13 11 -3 23 -1 26 5 3 5
-4 12 -16 15 -20 5 -22 11 -17 51 9 80 46 81 93 2z m6549 40 c16 -18 17 -25 6
-61 -12 -38 -14 -40 -49 -37 -34 3 -37 6 -40 36 -4 39 21 82 47 82 10 0 26 -9
36 -20z m-6762 -51 c24 -36 37 -89 22 -89 -17 0 -66 33 -75 49 -11 22 -13 64
-3 74 14 15 31 5 56 -34z m6895 -12 c4 -35 -13 -57 -44 -57 -30 0 -37 14 -29
56 6 32 9 35 38 32 27 -2 33 -8 35 -31z m266 27 c43 -6 47 -9 44 -33 -3 -22
-7 -26 -32 -23 -29 3 -81 -17 -128 -49 -28 -20 -128 -27 -128 -9 0 6 4 10 8
10 5 0 31 22 59 49 30 29 63 51 79 54 16 2 34 5 40 6 6 0 32 -2 58 -5z m-6337
-76 c11 -13 29 -36 39 -52 l18 -29 -43 -38 c-23 -21 -48 -36 -54 -33 -17 7
-57 72 -57 92 0 28 38 82 58 82 10 0 28 -10 39 -22z m4776 -14 c-1 -17 -13
-38 -28 -51 -18 -16 -25 -32 -25 -58 0 -28 -4 -35 -19 -35 -16 0 -18 6 -14 48
7 71 21 108 46 120 32 15 42 9 40 -24z m-5713 -16 c0 -24 -17 -23 -25 2 -8 26
4 48 16 29 5 -8 9 -22 9 -31z m7350 12 c0 -5 -4 -10 -9 -10 -6 0 -13 5 -16 10
-3 6 1 10 9 10 9 0 16 -4 16 -10z m-438 -44 l17 -21 21 23 c11 12 24 22 28 22
17 0 32 -26 32 -56 0 -18 6 -34 13 -37 28 -10 -6 -18 -94 -22 -284 -13 -349
-14 -349 -6 0 5 21 12 48 16 53 7 92 29 92 50 0 15 45 42 90 55 37 11 83 0
102 -24z m376 -2 c16 -11 22 -24 20 -42 -4 -32 -34 -40 -80 -21 -20 8 -32 9
-40 1 -6 -6 -17 -8 -24 -5 -28 11 -12 35 39 58 62 29 57 29 85 9z m-6861 -51
c-18 -36 -29 -96 -21 -117 11 -28 47 -18 72 19 25 40 48 47 38 13 -4 -13 -10
-42 -13 -65 -5 -42 -4 -43 30 -58 20 -8 38 -19 42 -25 9 -14 45 -12 50 3 2 6
6 28 9 48 6 35 8 36 59 43 28 3 74 9 100 12 41 6 51 3 71 -15 13 -12 26 -35
29 -51 6 -27 37 -48 56 -36 4 3 11 23 15 45 3 22 14 46 24 53 9 7 24 26 32 42
41 81 44 82 97 55 21 -11 44 -17 52 -14 11 5 13 -9 9 -79 -6 -88 0 -106 35
-106 34 0 67 137 37 155 -21 13 -9 44 24 64 45 28 70 19 61 -23 -3 -17 -10
-65 -15 -106 -8 -66 -7 -78 9 -100 10 -14 26 -26 35 -28 13 -3 16 6 16 50 0
122 31 177 44 79 12 -88 59 -96 71 -12 4 27 12 52 19 54 7 3 46 1 87 -4 74 -8
517 -4 704 7 107 7 116 7 185 5 25 -1 63 0 85 1 22 1 65 1 96 0 l57 -2 23 -46
c19 -37 32 -50 62 -60 21 -6 44 -20 51 -29 23 -31 50 -14 60 38 5 26 12 47 16
47 10 0 32 -51 36 -84 4 -31 30 -57 54 -53 8 1 23 19 33 40 21 45 39 47 69 7
30 -42 61 -37 68 9 3 19 11 36 19 39 10 3 12 -1 9 -16 -7 -25 14 -58 30 -48 7
4 12 20 12 35 l0 29 123 -4 c67 -2 136 -6 152 -10 23 -4 35 -1 49 15 20 22 60
28 71 11 3 -5 19 -10 36 -10 19 0 29 -5 29 -15 0 -11 -7 -14 -23 -10 -22 6
-67 -24 -67 -45 0 -15 36 -30 74 -30 28 0 41 -8 70 -42 20 -23 36 -44 36 -48
0 -3 -34 -6 -75 -7 -42 -1 -107 -10 -146 -20 -67 -17 -71 -17 -80 -1 -15 27
-104 23 -122 -6 -26 -40 -26 -54 -1 -87 27 -38 31 -64 9 -73 -21 -8 -43 3 -50
25 -9 26 -23 24 -47 -6 -22 -28 -40 -32 -58 -10 -6 8 -19 14 -28 13 -36 -3
-52 3 -52 17 0 10 15 15 58 17 55 3 57 4 55 31 -1 20 3 27 17 27 11 0 23 8 28
17 8 13 4 21 -13 35 -35 27 -77 23 -113 -12 -39 -37 -60 -38 -68 -2 -10 48
-13 52 -33 52 -13 0 -26 -12 -37 -35 -9 -20 -20 -37 -23 -40 -13 -8 -256 -8
-318 0 -60 7 -62 9 -65 39 -2 26 -7 31 -28 31 -21 0 -26 -5 -28 -32 -2 -25 -8
-33 -22 -33 -15 0 -19 9 -22 42 -3 35 -7 43 -31 51 -38 12 -49 0 -37 -42 5
-19 7 -38 4 -42 -9 -15 -144 -11 -144 4 0 7 -7 22 -15 34 -19 27 -53 20 -66
-13 -14 -38 -58 -23 -73 24 -4 12 -13 22 -19 22 -7 0 -22 3 -34 6 -22 6 -23 5
-17 -55 6 -52 4 -61 -9 -61 -18 0 -33 74 -22 109 8 26 -15 37 -44 21 -18 -9
-21 -20 -21 -81 l0 -70 -27 3 c-24 3 -29 9 -35 43 -4 22 -7 63 -7 91 -1 42 -5
53 -20 57 -30 8 -46 -9 -46 -50 0 -31 -4 -39 -21 -41 -24 -3 -34 19 -34 76 0
27 -4 32 -24 32 -37 0 -50 -23 -43 -79 5 -39 3 -51 -9 -55 -40 -15 -45 -8 -43
59 1 36 0 68 -4 71 -3 4 -18 3 -33 0 -26 -7 -26 -8 -23 -79 l4 -72 -38 -2 -38
-3 6 70 c5 65 4 70 -14 70 -45 0 -62 -53 -37 -111 10 -23 -9 -28 -74 -18 -99
14 -287 11 -327 -6 -19 -8 -43 -15 -52 -15 -9 0 -45 -14 -79 -31 -60 -29 -65
-30 -88 -15 -26 18 -30 36 -13 68 25 47 -24 99 -60 64 -12 -13 -15 -33 -13
-90 1 -41 -1 -77 -6 -80 -5 -3 -24 10 -42 29 -31 32 -32 35 -22 76 14 57 -6
99 -46 99 -15 0 -38 1 -51 2 -21 3 -26 -4 -41 -47 -19 -57 -54 -78 -48 -28 3
26 0 28 -29 28 -19 0 -37 7 -45 18 -23 31 -43 11 -56 -58 -6 -35 -12 -78 -12
-95 0 -16 -3 -31 -7 -31 -5 -1 -23 -3 -42 -5 -60 -5 -69 -44 -10 -44 21 0 29
-5 29 -18 0 -10 -5 -23 -11 -29 -16 -16 -2 -33 25 -33 12 0 35 -13 50 -29 24
-25 26 -31 15 -49 -11 -18 -10 -29 4 -69 20 -56 22 -94 5 -111 -15 -15 -48
-16 -49 -2 -1 6 -3 15 -4 20 -1 6 -3 15 -4 20 0 6 -17 18 -37 27 -34 17 -36
19 -30 57 4 21 13 48 21 59 23 33 19 48 -9 41 -21 -5 -28 0 -46 35 -23 46 -26
48 -52 24 -17 -15 -20 -15 -41 4 -12 11 -35 23 -52 26 -25 4 -35 -1 -65 -33
-29 -31 -124 -90 -145 -90 -3 0 -5 24 -5 53 0 52 2 55 60 114 52 52 60 65 60
97 l0 38 -49 -5 c-61 -6 -84 8 -79 48 2 21 10 31 31 38 22 7 32 4 58 -17 40
-34 54 -33 73 8 21 44 20 95 -1 118 -21 23 -11 33 16 16 18 -11 23 -11 31 2
24 37 1 88 -49 115 -26 13 -32 12 -74 -11 -66 -35 -87 -32 -87 10 0 50 19 65
77 59 26 -3 52 -9 58 -14 16 -16 44 -10 55 11 9 17 17 20 48 14 49 -9 72 -30
73 -68 2 -58 13 -81 39 -81 23 0 25 5 35 75 10 68 30 123 58 158 19 24 30 -13
14 -45z m5017 15 c4 -23 3 -45 -1 -49 -14 -14 -73 -23 -73 -12 0 16 51 103 60
103 4 0 10 -19 14 -42z m-4884 7 c9 -11 10 -19 3 -26 -13 -13 -63 9 -63 28 0
18 45 17 60 -2z m5260 -55 c46 -65 -4 -103 -63 -50 l-31 27 27 27 c33 33 41
33 67 -4z m-2042 -25 c16 -14 37 -41 46 -60 29 -61 46 -38 20 29 -12 31 26 30
54 -2 15 -17 43 -35 63 -42 34 -10 39 -17 64 -85 14 -41 32 -79 39 -84 24 -20
58 -168 45 -193 -16 -30 -25 -21 -43 43 -21 77 -43 111 -66 104 -13 -4 -21 3
-31 27 -31 75 -115 142 -193 153 -30 5 -50 14 -57 26 -5 11 -15 19 -21 19 -18
0 -48 32 -48 51 0 43 82 52 128 14z m2510 9 c12 -4 22 -14 22 -23 0 -22 -86
-49 -103 -32 -6 6 -33 11 -59 11 -26 0 -48 4 -48 8 0 5 33 15 73 24 88 19 87
19 115 12z m-2716 -28 c4 -5 5 -13 2 -17 -6 -11 -73 -21 -94 -14 -28 9 -26 43
3 48 31 5 81 -4 89 -17z m-2972 -7 c0 -5 -7 -9 -15 -9 -15 0 -20 12 -9 23 8 8
24 -1 24 -14z m5446 4 c13 -17 13 -17 14 1 0 11 3 16 7 13 7 -8 -16 -58 -32
-69 -19 -14 -35 -8 -47 17 -20 44 29 76 58 38z m-543 -36 c16 -35 16 -39 1
-62 -21 -32 -35 -31 -68 2 -52 52 -42 107 18 101 25 -2 35 -11 49 -41z m1839
15 c3 -4 8 -81 10 -172 3 -141 1 -165 -12 -165 -19 0 -25 41 -9 61 16 19 9 24
-18 13 -16 -6 -23 -17 -23 -34 0 -20 -5 -25 -24 -25 -13 0 -29 -7 -36 -15 -11
-13 -15 -12 -38 6 -18 14 -34 18 -53 14 -15 -3 -30 -1 -34 4 -11 18 -49 12
-63 -9 l-12 -20 -39 20 c-22 11 -42 24 -46 30 -11 18 -50 9 -125 -29 -22 -11
-61 -91 -55 -111 8 -25 -5 -29 -42 -14 -28 12 -33 19 -33 49 0 26 -4 35 -17
36 -32 2 -58 -3 -85 -17 -25 -13 -27 -19 -26 -72 1 -31 5 -67 9 -79 5 -14 3
-25 -5 -32 -18 -15 -40 -5 -56 25 -7 13 -17 24 -22 24 -17 0 -7 -32 18 -57
l26 -26 -21 -44 c-31 -64 -66 -58 -105 17 l-26 49 33 43 c28 37 39 43 75 46
49 4 64 24 38 50 -15 15 -41 16 -219 14 -348 -6 -335 -7 -358 14 -28 26 -182
27 -302 3 -49 -10 -95 -15 -103 -12 -22 8 -28 -26 -11 -63 11 -22 26 -35 44
-40 48 -10 53 -13 53 -29 0 -27 -26 -27 -65 -1 -21 14 -44 26 -51 26 -8 0 -14
5 -14 10 0 6 -12 22 -27 36 -25 23 -25 25 -8 44 52 58 -71 77 -137 22 -16 -13
-22 -12 -53 12 -42 32 -87 29 -107 -7 -6 -12 -11 -23 -10 -24 1 -2 2 -8 2 -14
0 -12 -108 -2 -125 11 -6 5 -66 11 -135 13 -69 3 -145 10 -170 16 -47 11 -204
33 -230 32 -8 -1 -35 -4 -58 -7 -39 -6 -44 -4 -40 12 3 16 14 20 63 22 33 2
65 8 70 12 13 11 0 10 285 14 232 3 290 11 290 38 0 21 -14 34 -35 35 -275 17
-485 14 -525 -7 -8 -4 -60 -11 -115 -14 -55 -4 -108 -9 -118 -12 -10 -3 -24
-1 -31 5 -9 8 -21 7 -43 -4 -42 -21 -61 -10 -74 40 -6 24 -22 54 -35 66 -13
12 -24 31 -24 41 0 15 8 18 50 18 28 0 50 4 50 9 0 12 -60 35 -83 33 -24 -3
-57 16 -57 31 0 10 36 13 145 13 113 0 145 -3 145 -13 0 -7 -8 -13 -18 -13
-10 0 -38 -10 -62 -21 -41 -20 -43 -22 -26 -35 20 -14 118 -11 163 7 37 14 41
12 68 -31 32 -51 62 -63 112 -46 33 11 39 18 46 54 7 35 12 42 32 42 26 0 85
-45 85 -64 0 -7 9 -21 21 -32 20 -18 21 -18 35 1 8 11 17 31 20 45 3 14 7 31
10 38 2 8 26 12 73 12 60 0 74 -3 100 -26 21 -17 31 -35 31 -54 0 -55 49 -65
72 -15 15 34 30 27 46 -21 17 -50 27 -60 47 -44 19 16 19 72 0 125 -29 82 11
49 64 -52 26 -49 42 -68 56 -68 38 0 31 35 -33 163 -13 28 -14 35 -2 42 19 12
40 1 40 -20 0 -25 101 -140 122 -140 11 0 25 15 35 38 23 48 63 56 81 17 9
-19 18 -25 35 -23 18 2 23 10 25 44 l3 41 55 7 c47 5 63 3 112 -21 49 -24 57
-32 60 -59 4 -40 39 -76 52 -54 6 8 10 32 10 53 0 43 15 48 32 12 15 -33 34
-32 53 5 9 17 20 28 25 25 6 -4 10 -1 10 4 0 6 -4 11 -10 11 -13 0 -13 27 0
35 6 4 7 -1 3 -11 -4 -12 -3 -15 5 -10 7 4 12 2 12 -6 0 -9 3 -9 10 2 19 30 9
-2 -12 -40 -23 -39 -20 -68 8 -77 16 -5 34 43 34 92 0 53 10 61 52 41 48 -22
84 -26 142 -16 31 6 58 18 69 31 16 20 23 21 89 14 40 -3 85 -14 102 -22 27
-14 31 -14 42 2 13 18 52 22 240 25 131 3 141 -3 150 -80 7 -65 16 -79 39 -60
10 8 15 32 15 71 0 32 5 61 10 64 13 8 31 -37 39 -95 5 -38 10 -46 30 -48 23
-4 24 -3 17 55 -10 97 22 113 45 23 9 -37 18 -50 31 -50 21 0 30 31 26 91 l-3
44 -52 -3 c-42 -3 -53 0 -53 12 0 9 12 16 33 19 41 6 170 -2 179 -11z m-2508
-11 c21 -24 13 -41 -18 -41 -28 0 -50 24 -42 45 8 21 40 19 60 -4z m1066 -95
c0 -16 -3 -16 -20 7 -11 14 -20 30 -20 36 0 6 9 3 20 -6 11 -10 20 -26 20 -37z
m-1990 -93 c51 -66 73 -111 88 -180 8 -40 13 -75 10 -78 -2 -3 -19 -2 -36 1
-26 5 -32 11 -32 33 0 41 -36 170 -53 189 -8 9 -17 27 -20 40 -7 31 16 28 43
-5z m-3380 -127 c0 -18 -27 -39 -40 -31 -11 7 -14 48 -4 58 10 9 44 -12 44
-27z m165 -36 c0 -48 4 -63 22 -79 13 -13 19 -28 16 -40 -7 -29 14 -59 52 -76
27 -11 35 -20 35 -39 0 -29 -31 -50 -60 -41 -15 5 -20 15 -20 43 0 39 -23 82
-43 82 -7 0 -21 -10 -31 -21 l-18 -22 -26 28 c-22 24 -30 27 -72 22 -53 -6
-74 2 -64 27 5 12 13 16 28 12 11 -4 40 -9 63 -12 37 -6 45 -3 62 17 11 13 20
34 21 47 0 32 21 112 29 112 3 0 6 -27 6 -60z m3140 14 c14 -15 25 -38 25 -50
0 -21 -5 -24 -37 -24 -58 0 -87 36 -63 81 15 27 47 24 75 -7z m-143 -11 c15
-15 28 -34 28 -43 0 -16 -38 -40 -64 -40 -18 0 -37 69 -25 92 13 25 28 23 61
-9z m598 -14 c0 -5 -8 -9 -19 -9 -10 0 -30 -9 -44 -20 -23 -19 -57 -27 -57
-14 0 16 24 46 42 53 25 9 78 2 78 -10z m2630 -8 c0 -19 -43 -61 -61 -61 -15
0 -10 43 8 62 22 24 53 24 53 -1z m-5160 0 c0 -16 -95 -42 -156 -43 -33 -1
-79 2 -104 6 -25 3 -67 7 -95 9 -27 1 -52 6 -55 12 -3 6 63 10 187 11 106 0
196 3 200 7 9 10 23 9 23 -2z m1800 -1 c0 -5 -4 -10 -10 -10 -5 0 -10 5 -10
10 0 6 5 10 10 10 6 0 10 -4 10 -10z m-720 -22 c47 0 72 -8 67 -23 -9 -23 17
-35 75 -34 60 2 107 -16 90 -33 -6 -6 -37 -9 -73 -6 -54 4 -68 1 -97 -19 -47
-31 -62 -30 -62 7 0 42 -33 59 -48 25 -19 -42 -77 -29 -151 33 -25 20 -33 34
-28 46 6 16 17 17 105 11 53 -4 108 -7 122 -7z m4330 -34 c0 -18 -22 -64 -30
-64 -31 0 -35 65 -7 98 9 11 13 11 24 -4 7 -10 13 -24 13 -30z m-4590 27 c0
-5 -7 -11 -15 -15 -9 -3 -15 0 -15 9 0 8 7 15 15 15 8 0 15 -4 15 -9z m-400
-25 c0 -9 -10 -13 -25 -12 -25 1 -31 7 -18 19 12 12 43 7 43 -7z m1407 -8 c13
-13 23 -33 23 -50 0 -24 -4 -28 -26 -28 -25 0 -26 -2 -20 -32 15 -76 18 -108
12 -133 -7 -29 -22 -33 -30 -7 -10 33 -27 252 -21 262 10 16 37 11 62 -12z
m923 -18 c30 3 96 -1 145 -9 50 -7 140 -13 200 -12 112 1 145 -4 145 -19 0 -5
-18 -28 -40 -52 -60 -65 -66 -80 -50 -128 21 -64 30 -72 85 -72 40 0 53 5 68
23 18 23 19 23 33 4 8 -10 14 -22 14 -27 0 -14 94 -56 143 -63 l46 -7 -6 -58
c-5 -54 -4 -60 21 -85 54 -54 112 -13 102 73 -6 46 10 59 19 15 15 -72 22 -89
43 -99 13 -6 36 -24 52 -39 23 -22 31 -25 49 -16 23 13 27 26 36 118 3 35 10
76 16 91 15 43 -16 102 -79 152 -29 23 -52 45 -52 49 0 18 15 18 68 0 84 -29
118 -20 144 38 20 45 20 48 3 80 -10 18 -24 33 -32 33 -18 0 -17 26 2 34 9 3
15 0 15 -10 0 -13 12 -15 88 -9 74 6 95 4 142 -14 30 -11 76 -20 101 -19 26 0
51 -2 56 -5 5 -3 31 0 58 8 67 21 69 20 60 -22 -16 -82 3 -123 57 -123 27 0
39 -22 19 -34 -17 -11 -21 -73 -8 -112 8 -21 17 -59 21 -84 7 -50 42 -117 68
-133 24 -16 46 7 79 81 16 34 34 62 41 62 7 -1 31 -23 53 -51 22 -27 48 -59
58 -71 22 -28 22 -34 -9 -66 -30 -32 -84 -145 -84 -178 0 -12 -4 -33 -9 -46
-14 -37 17 -154 45 -169 19 -10 26 -9 39 1 22 18 29 6 26 -43 -1 -23 5 -59 13
-79 9 -21 16 -50 16 -66 0 -35 42 -160 65 -196 39 -59 70 -20 79 96 8 120 35
178 83 178 22 0 33 -24 15 -32 -4 -1 -18 -19 -30 -39 -23 -39 -21 -67 10 -111
23 -34 23 -55 -3 -103 -18 -36 -19 -46 -9 -100 14 -75 33 -105 65 -105 32 0
32 -20 2 -57 -13 -15 -29 -42 -36 -59 -11 -27 -9 -36 15 -82 15 -29 30 -52 33
-52 3 0 31 -20 61 -45 60 -49 74 -53 101 -29 16 14 20 14 48 -1 31 -15 39 -38
23 -63 -7 -10 -23 -10 -80 -2 -81 13 -98 8 -136 -43 -41 -54 -41 -75 -2 -151
21 -39 41 -97 47 -135 6 -36 18 -73 26 -83 23 -26 52 -29 64 -7 7 13 16 18 29
14 14 -4 26 5 48 38 17 24 37 49 46 56 22 19 20 42 -11 105 -29 60 -26 86 11
86 21 0 27 7 36 43 5 23 15 56 21 72 6 17 18 48 26 70 8 22 19 87 24 144 4 57
11 118 15 135 8 31 9 40 13 86 2 25 2 25 15 -5 19 -45 37 -1482 21 -1720 -11
-156 -3 -558 15 -767 2 -23 2 -63 0 -113 -1 -22 -1 -65 -1 -95 2 -74 -8 -456
-14 -500 -2 -19 -3 -159 -3 -310 1 -151 0 -392 -1 -535 -1 -143 -1 -330 0
-415 2 -85 1 -301 0 -480 -4 -400 -4 -389 -3 -1460 0 -481 -1 -1354 -4 -1940
-3 -586 -5 -1306 -5 -1601 -1 -303 -5 -542 -10 -550 -8 -12 -10 -12 -18 0 -7
11 -47 12 -217 6 -204 -7 -550 -10 -984 -8 -118 1 -224 1 -235 1 -11 0 -56 3
-100 8 -111 11 -435 7 -450 -6 -8 -6 -22 -7 -36 -2 -13 5 -85 5 -159 1 -184
-11 -453 -20 -507 -19 -10 0 -54 -1 -98 -4 -84 -5 -326 -10 -335 -7 -9 3 -393
11 -480 10 -47 -1 -103 -1 -125 -2 -22 0 -109 1 -192 3 -84 2 -155 1 -159 -2
-3 -4 -16 -3 -28 1 -11 5 -95 9 -186 11 -91 1 -203 4 -250 6 -116 5 -111 5
-234 4 -69 -1 -104 -5 -95 -11 11 -7 11 -9 -3 -9 -10 0 -18 7 -18 15 0 12 -13
14 -77 8 -43 -3 -85 -10 -95 -14 -9 -5 -108 -6 -220 -2 -221 7 -225 7 -313 4
-138 -4 -483 9 -510 19 -16 6 -59 8 -99 5 -113 -8 -480 -20 -739 -25 -86 -1
-160 -6 -163 -11 -3 -5 -13 -5 -24 1 -10 5 -48 10 -83 10 l-65 0 -6 53 c-7 58
-12 835 -5 841 2 3 79 7 169 11 199 7 164 6 293 2 70 -2 107 1 107 7 0 6 4 5
9 -3 12 -19 334 -29 806 -24 204 2 480 2 615 1 388 -3 414 -3 625 6 110 5 209
8 220 8 11 0 126 0 255 0 129 0 244 0 255 -1 207 -13 2929 -27 3530 -18 102 1
312 -10 325 -18 6 -3 26 -1 46 5 33 11 35 15 32 48 -3 36 -4 37 -43 38 -22 0
-71 4 -110 8 -38 4 -108 6 -155 6 -181 -1 -527 -10 -560 -14 -19 -2 -118 -4
-220 -4 -102 0 -215 -1 -252 -2 -37 0 -77 4 -88 10 -12 6 -29 9 -38 5 -9 -4
-116 -9 -237 -12 -258 -7 -245 -7 -360 0 -129 8 -330 9 -475 1 -69 -4 -134 -6
-145 -5 -11 0 -193 3 -404 5 -210 3 -386 7 -389 11 -3 3 4 8 16 12 12 3 22 10
22 17 1 6 3 85 6 176 3 91 9 181 13 201 5 20 4 81 -1 135 -5 55 -11 152 -12
218 -2 101 -5 120 -20 128 -10 6 -22 6 -26 2 -5 -5 -11 -72 -15 -149 -3 -77
-7 -156 -8 -175 -3 -54 -21 -51 -27 4 -5 52 -25 74 -54 63 -14 -6 -16 -28 -15
-182 2 -170 -4 -207 -29 -191 -5 3 -13 23 -17 43 -9 51 -22 65 -46 52 -14 -7
-19 -21 -19 -49 0 -27 -6 -43 -19 -52 -10 -7 -21 -23 -25 -34 -5 -16 -17 -23
-44 -27 -20 -2 -51 -10 -69 -18 -18 -7 -35 -10 -39 -7 -3 4 3 32 15 63 42 112
22 201 -63 284 -34 33 -37 34 -76 22 -48 -14 -55 -34 -46 -124 4 -37 3 -74 -4
-91 -14 -38 5 -76 50 -98 33 -17 35 -21 36 -70 0 -29 4 -72 8 -96 6 -35 5 -42
-8 -42 -9 0 -16 7 -16 15 0 8 -8 30 -17 50 -14 30 -22 35 -50 35 -39 0 -58
-27 -54 -83 2 -35 0 -38 -21 -35 -13 2 -24 11 -26 23 -2 11 -15 29 -28 40 -22
18 -24 27 -25 114 -1 69 5 113 22 172 l23 79 -22 20 c-34 32 -18 54 34 46 41
-5 44 -4 50 20 8 31 -2 41 -40 46 -47 5 -45 28 3 28 30 0 43 5 51 20 7 13 21
20 38 20 32 0 52 16 52 42 0 12 -8 18 -23 18 -34 0 -65 25 -50 41 8 8 29 9 80
1 75 -11 83 -9 83 17 0 28 -21 41 -70 42 -85 2 -105 11 -105 44 0 27 -4 31
-42 39 -32 7 -43 14 -43 27 0 16 8 19 55 19 50 0 57 3 67 25 16 36 -1 49 -62
46 l-50 -2 0 41 c0 36 3 42 28 51 23 8 39 30 78 109 39 80 53 99 69 97 29 -3
29 -29 2 -70 -31 -46 -43 -115 -23 -135 21 -21 33 -8 51 53 8 30 20 55 25 55
13 0 13 -23 -2 -55 -18 -40 5 -55 28 -19 10 16 26 38 35 49 10 12 23 54 30
103 8 45 17 82 21 82 12 0 10 -95 -3 -127 -6 -15 -15 -52 -20 -82 -8 -54 -8
-54 27 -88 38 -35 42 -37 62 -24 9 5 11 17 6 37 -5 16 -7 38 -6 49 5 42 25
105 34 105 14 0 26 -44 17 -62 -14 -25 -11 -71 7 -113 8 -20 13 -42 11 -48 -7
-19 26 -67 45 -67 9 0 21 8 26 18 13 23 44 183 38 189 -3 3 -12 3 -21 0 -14
-6 -16 -17 -19 -132 -1 -42 -28 -39 -43 5 -15 45 -16 113 -1 162 9 32 9 44 -5
74 -9 19 -17 49 -17 65 0 23 -4 30 -14 26 -8 -3 -20 0 -26 8 -8 10 -1 20 35
46 50 36 49 31 35 116 -12 72 0 176 25 225 24 47 35 152 24 216 -15 78 -7 96
18 42 20 -43 21 -43 21 -15 0 17 -3 44 -7 60 -5 24 -11 29 -29 27 -12 -2 -22
2 -22 7 0 6 -7 11 -15 11 -11 0 -15 -13 -16 -52 0 -29 -1 -106 -2 -170 -1 -70
-7 -122 -13 -128 -7 -7 -9 -31 -7 -58 5 -45 5 -46 -13 -30 -14 14 -18 33 -18
80 0 71 14 259 19 269 2 3 1 19 -4 35 -7 28 -8 28 -15 7 -9 -28 -26 -30 -26
-4 0 20 -29 43 -70 56 -14 4 -30 14 -35 22 -6 8 -26 18 -45 22 -28 5 -35 13
-43 40 -5 20 -16 35 -28 38 -15 4 -19 14 -19 49 0 24 -7 64 -15 89 -17 50 -14
65 16 65 22 0 22 1 9 69 -7 36 -6 59 2 79 6 15 14 52 18 82 9 71 28 147 46
183 8 16 14 36 14 44 0 14 -3 13 -21 -3 l-21 -19 3 50 c2 28 2 98 1 158 -2
104 -14 138 -27 77 -9 -39 -28 -38 -54 3 -38 62 -66 80 -112 74 l-41 -5 5 39
c3 22 13 51 22 66 14 21 22 24 50 20 39 -6 170 14 203 32 12 7 27 9 32 6 14
-9 90 26 101 46 7 13 21 19 45 19 45 0 83 -22 111 -64 21 -33 21 -33 102 -32
44 1 83 5 87 9 4 3 18 -3 32 -13 13 -11 33 -20 43 -20 19 0 49 -35 49 -57 0
-7 -6 -13 -13 -13 -7 0 -31 -13 -53 -29 l-39 -29 -33 39 c-51 59 -74 52 -47
-15 7 -15 5 -17 -12 -12 -32 10 -37 -20 -12 -71 l21 -44 -27 -39 c-21 -30 -25
-45 -20 -69 5 -25 3 -32 -12 -37 -10 -3 -31 -12 -47 -20 -21 -11 -32 -12 -42
-3 -15 12 -100 4 -109 -11 -8 -14 6 -18 93 -29 119 -15 162 -43 197 -126 23
-52 25 -67 16 -79 -14 -17 -7 -36 14 -36 21 0 35 -33 35 -79 0 -25 6 -43 15
-48 10 -6 17 -31 21 -68 8 -85 20 -88 27 -5 6 72 -8 136 -37 170 -20 22 -27
53 -16 70 7 12 10 11 15 -5 3 -11 20 -47 38 -80 31 -58 32 -64 29 -160 -2 -55
-4 -134 -5 -176 -2 -69 -5 -79 -34 -112 -17 -20 -42 -63 -54 -97 -12 -33 -26
-60 -30 -60 -5 0 -9 -7 -9 -15 0 -27 19 -16 40 24 11 22 24 42 29 46 6 3 23
25 39 49 39 57 64 194 49 261 -7 30 -7 52 0 67 10 23 10 23 25 -7 9 -17 19
-56 23 -88 7 -55 4 -74 -26 -190 -11 -41 -4 -62 11 -37 20 32 60 173 60 211 0
47 -23 106 -51 132 -14 13 -17 23 -10 30 19 19 77 -37 90 -87 21 -83 14 -134
-29 -226 -45 -96 -46 -100 -24 -141 14 -28 14 -35 -10 -107 -26 -78 -35 -174
-21 -224 6 -22 4 -28 -9 -28 -9 0 -16 5 -16 10 0 6 -4 10 -10 10 -5 0 -10 -9
-10 -20 0 -10 -9 -24 -20 -30 -12 -7 -20 -21 -20 -38 0 -15 -7 -45 -15 -67 -9
-26 -12 -58 -8 -92 6 -51 5 -53 -19 -53 -28 0 -48 17 -48 41 0 9 -7 22 -15 29
-15 12 -18 80 -3 80 13 0 9 33 -7 54 -8 11 -15 30 -15 43 0 29 35 100 52 105
7 3 13 30 14 74 2 38 6 87 9 109 5 36 4 37 -6 15 -6 -14 -16 -36 -21 -50 -22
-57 -35 -75 -56 -85 -25 -11 -26 -19 -11 -62 16 -46 -12 -150 -57 -215 -24
-33 -34 -56 -28 -63 43 -57 46 -66 40 -100 -4 -21 -19 -47 -37 -62 -22 -20
-29 -35 -29 -63 0 -20 -5 -41 -10 -46 -12 -12 15 -73 37 -81 22 -9 25 1 28
100 2 73 8 103 25 137 18 35 20 47 11 67 -12 27 -4 76 12 70 18 -6 19 -128 2
-171 -19 -46 -23 -179 -7 -219 12 -27 39 -43 97 -56 l30 -7 -2 -69 c-1 -39 -5
-138 -9 -221 -8 -181 -2 -227 29 -222 38 5 43 58 43 420 -1 186 2 338 5 338
17 0 36 -45 53 -123 4 -18 13 -27 26 -27 23 0 33 29 24 75 -6 34 -5 35 25 35
29 0 31 3 31 34 0 19 -3 41 -6 50 -8 21 -64 22 -64 1 0 -22 -17 -18 -34 8 -17
27 -28 78 -28 129 1 21 -6 54 -14 73 -30 72 -13 113 41 99 33 -8 41 15 39 111
-1 51 5 106 17 152 22 84 23 117 8 178 -10 41 -9 48 19 97 61 109 58 269 -7
329 -10 10 -38 24 -62 32 -40 14 -44 19 -55 62 -7 26 -17 52 -23 58 -6 6 -11
26 -11 45 0 26 -8 42 -35 67 -49 47 -65 91 -47 128 9 17 12 41 8 60 -15 76
-20 72 75 74 62 1 94 6 112 18 17 11 34 14 48 10 18 -6 28 -2 43 18 19 23 23
24 40 11 18 -13 18 -15 3 -32 -19 -20 -22 -48 -8 -57 16 -10 120 35 126 54 3
11 16 21 28 24 12 3 69 22 127 42 86 30 112 44 146 78 44 45 70 57 239 106 61
18 137 46 170 62 34 16 69 29 79 29 26 0 56 19 56 35 0 8 5 15 11 15 5 0 7 -4
4 -10 -7 -12 50 -2 80 14 43 24 65 41 65 51 0 6 16 11 36 11 22 0 41 6 48 16
7 9 31 26 54 38 23 12 42 26 42 30 0 4 9 10 20 13 11 3 20 12 20 19 0 10 9 13
29 10 24 -3 32 2 50 31 11 19 38 46 59 61 22 15 45 38 53 53 18 34 16 102 -3
133 -9 14 -19 52 -23 85 -14 123 -109 245 -189 245 -14 0 -28 5 -31 10 -4 6
-33 24 -65 40 -58 29 -58 29 -53 68 5 34 2 41 -23 60 -16 12 -34 26 -40 31
-26 21 -56 31 -93 31 -23 0 -49 4 -59 10 -20 11 -160 35 -181 31 -8 -1 -17 2
-20 8 -8 12 -75 15 -144 5 -43 -5 -52 -3 -75 19 -29 27 -91 60 -192 102 -36
15 -75 32 -87 37 -12 6 -33 8 -47 4 -41 -10 -111 13 -141 46 -15 16 -42 36
-60 44 -36 15 -34 9 -55 164 -7 47 -16 93 -21 102 -16 29 -10 46 21 65 39 22
53 67 45 140 -7 66 2 84 84 158 143 130 171 164 171 200 0 20 -13 62 -30 95
-16 33 -30 67 -30 76 0 9 -7 28 -15 42 -49 91 -76 172 -81 252 -8 112 -26 246
-36 265 -6 11 -25 38 -43 60 -31 39 -32 44 -45 195 -16 180 -18 431 -4 544 l9
79 70 4 c82 5 132 -12 164 -54 32 -43 53 -63 65 -61 6 0 19 -2 29 -7 9 -4 23
-3 30 3 11 8 48 21 87 28 14 3 22 11 72 72 24 30 68 118 68 137 0 8 5 15 10
15 6 0 18 15 27 34 9 21 26 37 40 41 29 7 123 92 123 111 0 7 18 23 40 35 22
13 40 26 40 31 0 4 11 18 25 30 14 12 25 26 25 31 0 5 16 27 35 48 19 22 35
48 35 58 0 11 4 22 9 26 5 3 17 28 26 56 16 48 16 55 0 118 -24 88 -35 111
-54 111 -27 -1 -96 -36 -133 -69 -20 -17 -42 -31 -50 -31 -25 0 -152 -69 -175
-95 -12 -14 -24 -25 -27 -25 -18 0 -97 -66 -119 -99 -26 -39 -58 -58 -192
-117 -21 -9 -78 -21 -125 -26 -142 -16 -135 -16 -133 12 4 47 -18 405 -28 460
-12 61 -12 63 -5 105 13 73 33 361 25 370 -4 6 -3 33 2 60 6 28 9 127 8 220
-2 109 1 177 8 190 9 15 8 22 -5 31 -13 9 -17 30 -18 86 -1 40 -6 91 -12 113
-6 22 -13 74 -17 115 -4 41 -13 97 -21 124 -19 68 -18 105 4 113 23 9 40 32
51 71 11 38 5 62 -15 62 -8 0 -14 5 -14 11 0 5 5 7 10 4 6 -3 10 -1 10 4 0 6
-4 11 -8 11 -4 0 -8 32 -9 71 -1 65 1 71 23 81 34 16 31 54 -7 106 -28 38 -29
42 -12 48 41 13 48 22 55 73 4 33 14 61 27 75 12 13 23 42 27 72 4 31 15 58
30 74 27 30 44 71 44 110 0 18 8 34 22 44 14 10 25 35 34 73 6 32 19 87 28
123 44 180 43 170 16 242 -18 46 -27 56 -69 76 -26 12 -55 22 -64 22 -27 0
-20 17 11 28 21 7 32 6 47 -7 15 -12 33 -15 75 -11z m2852 -72 c2 -119 1 -153
-11 -290 -1 -5 -8 -8 -17 -8 -15 0 -16 10 -10 81 5 49 3 114 -5 167 -11 77
-10 91 5 120 9 17 21 32 26 32 6 0 11 -44 12 -102z m-6194 80 c8 -8 9 -15 1
-25 -22 -26 -55 -10 -43 21 7 19 25 21 42 4z m288 -6 c31 -3 36 -27 13 -56
-26 -33 -27 -80 -3 -107 18 -20 46 -22 86 -5 15 7 16 2 11 -46 -3 -36 0 -73
10 -109 13 -45 26 -63 76 -106 33 -29 62 -53 65 -53 3 0 21 25 41 55 19 31 50
65 68 75 19 11 40 32 48 46 19 35 18 169 -1 211 -8 18 -11 35 -7 39 3 4 57 6
119 5 62 -1 120 -1 128 -1 50 5 176 0 240 -9 156 -23 165 -25 174 -47 6 -13
33 -31 65 -45 31 -12 67 -30 81 -39 14 -10 52 -31 85 -48 33 -17 67 -41 75
-53 8 -13 36 -45 62 -70 48 -49 66 -95 54 -143 -4 -16 1 -32 14 -49 11 -14 20
-29 20 -35 0 -12 36 -91 52 -114 17 -24 6 -31 -27 -18 -21 8 -36 8 -55 0 -23
-10 -34 -7 -78 19 -44 26 -61 30 -114 29 -56 -1 -66 -4 -85 -28 l-22 -27 36
-24 c25 -17 41 -37 51 -66 7 -24 33 -63 58 -88 24 -25 44 -52 44 -60 0 -7 11
-27 25 -43 14 -17 25 -33 25 -36 0 -4 -16 -23 -36 -43 -31 -31 -35 -40 -31
-71 4 -19 14 -43 24 -54 10 -11 22 -34 28 -51 11 -34 47 -49 68 -28 18 18 27
13 41 -21 9 -21 12 -57 9 -98 -10 -147 -9 -487 2 -531 14 -56 10 -69 -19 -69
-12 0 -30 -6 -40 -13 -13 -10 -31 -10 -75 -3 -32 5 -65 7 -73 3 -21 -8 -68
-94 -68 -125 0 -22 3 -24 31 -18 38 7 87 -16 99 -48 6 -17 19 -25 49 -30 50
-8 65 -40 32 -67 -26 -21 -27 -35 -3 -48 10 -5 24 -32 31 -63 8 -29 22 -68 32
-86 28 -53 25 -258 -7 -702 -3 -30 -6 -98 -8 -150 -2 -52 -5 -94 -7 -94 -14 4
-92 16 -134 19 -27 3 -75 7 -105 10 -235 22 -342 25 -430 13 -36 -5 -99 -11
-140 -14 -41 -3 -92 -12 -113 -20 -20 -8 -59 -19 -85 -25 -30 -6 -58 -22 -78
-42 -18 -18 -48 -45 -68 -60 -19 -16 -47 -54 -62 -85 -25 -52 -26 -63 -20
-140 7 -91 36 -168 85 -226 35 -40 59 -82 176 -311 54 -104 104 -202 112 -216
7 -15 20 -32 28 -39 8 -6 19 -27 25 -46 6 -19 18 -34 26 -34 8 0 14 -8 14 -17
0 -10 9 -33 20 -51 11 -18 20 -38 20 -45 0 -7 11 -29 25 -47 35 -47 52 -105
36 -123 -16 -20 -7 -103 13 -126 9 -9 16 -27 16 -38 0 -26 25 -47 46 -39 14 5
16 1 11 -23 -5 -25 -1 -32 31 -55 20 -14 52 -39 71 -55 33 -29 34 -31 18 -49
-9 -10 -17 -25 -16 -33 0 -10 2 -11 6 -1 9 22 23 2 17 -24 -4 -17 -1 -26 10
-30 9 -3 16 -14 16 -23 0 -9 14 -33 31 -54 23 -28 34 -35 47 -28 12 7 19 3 29
-16 7 -14 13 -33 13 -42 0 -10 16 -35 36 -57 35 -38 35 -40 29 -104 -3 -36 -5
-98 -5 -138 1 -53 -4 -84 -17 -110 -14 -30 -17 -57 -15 -148 l3 -111 -62 -44
c-33 -24 -78 -57 -98 -74 -21 -16 -73 -48 -116 -70 -56 -29 -81 -48 -92 -71
-9 -18 -36 -44 -60 -60 -24 -15 -49 -36 -54 -46 -6 -10 -21 -18 -36 -18 -35 0
-167 -61 -303 -139 -24 -14 -49 -26 -55 -26 -5 0 -31 -13 -57 -30 -35 -22 -46
-35 -42 -47 5 -18 -11 -26 -18 -10 -5 13 -58 24 -58 12 0 -5 -5 -9 -12 -8 -6
2 -22 -13 -35 -31 -13 -19 -31 -36 -41 -37 -9 -2 -23 -11 -30 -21 -7 -10 -18
-17 -24 -15 -14 4 -39 -18 -49 -45 -6 -16 -17 -23 -36 -23 -18 0 -38 -11 -56
-30 -18 -19 -39 -30 -56 -30 -45 0 -103 -86 -116 -170 -5 -37 -2 -53 19 -93
14 -26 26 -59 26 -71 0 -13 18 -59 40 -103 35 -70 46 -83 89 -106 27 -15 83
-36 124 -46 41 -10 86 -26 98 -35 13 -9 33 -16 44 -16 12 0 41 -13 66 -28 24
-16 69 -36 99 -46 30 -10 82 -30 115 -45 56 -26 93 -38 140 -47 71 -14 117
-24 170 -40 72 -20 176 -24 197 -7 14 12 18 12 128 -18 44 -11 155 -24 309
-35 70 -5 79 -9 140 -55 82 -62 101 -63 101 -9 0 43 9 48 52 31 13 -5 35 -12
51 -15 17 -4 27 -13 27 -25 0 -10 14 -36 31 -57 28 -36 30 -42 24 -95 -4 -34
-2 -65 4 -76 7 -15 4 -31 -14 -69 -14 -27 -25 -63 -25 -80 0 -20 -13 -47 -36
-77 -22 -28 -48 -82 -68 -144 -32 -95 -33 -101 -26 -200 5 -70 13 -111 25
-129 24 -38 39 -17 20 29 -18 44 -19 83 -2 91 10 5 10 7 0 12 -33 15 11 242
44 230 30 -12 59 36 66 106 7 73 29 138 48 138 12 0 10 -12 -17 -100 -10 -30
-18 -72 -18 -92 -1 -27 -10 -46 -33 -70 -17 -18 -36 -44 -44 -58 -17 -33 -18
-185 -2 -201 19 -19 28 -2 14 27 -8 18 -9 30 -2 37 7 7 17 -6 32 -36 21 -43
22 -48 6 -65 -14 -15 -15 -29 -9 -77 8 -65 32 -89 32 -32 0 57 19 99 44 95 26
-4 36 -55 12 -64 -23 -9 -20 -24 14 -68 17 -22 30 -46 30 -53 0 -20 17 -15 23
7 3 12 14 20 26 20 31 0 27 28 -14 96 -19 32 -35 66 -35 75 0 27 18 32 25 8 4
-11 19 -35 35 -52 15 -18 37 -52 48 -77 l22 -45 -6 60 -5 60 30 1 c35 1 49
-23 32 -55 -15 -28 -14 -74 4 -119 13 -30 14 -54 7 -111 -5 -39 -5 -74 0 -77
4 -3 8 -21 8 -40 0 -27 -4 -34 -20 -34 -23 0 -22 -4 -25 120 -2 98 -12 160
-25 160 -15 0 -42 -40 -55 -84 l-14 -45 29 5 c24 5 29 3 32 -17 2 -13 -2 -41
-10 -62 -16 -43 -9 -105 14 -114 7 -3 14 -16 14 -28 0 -13 9 -44 20 -70 11
-26 20 -56 20 -67 0 -16 -5 -19 -20 -14 -11 3 -29 9 -40 12 -17 5 -20 0 -26
-35 -5 -32 -11 -41 -26 -41 -18 0 -19 4 -13 33 18 87 17 116 -4 150 -25 41
-28 69 -5 60 13 -5 15 1 9 43 -3 27 -12 67 -20 89 -8 22 -15 51 -17 65 -4 34
-30 32 -47 -4 -12 -25 -12 -36 1 -75 9 -27 15 -77 14 -120 -1 -89 -14 -103
-73 -82 l-37 14 -38 -44 c-33 -38 -38 -41 -43 -24 -4 11 -11 28 -16 37 -5 9
-6 30 -3 46 8 39 -14 54 -34 24 -18 -27 -32 -28 -32 -2 0 10 -9 24 -20 30 -11
6 -20 20 -20 30 0 36 -27 21 -83 -45 -35 -41 -59 -79 -63 -100 -3 -20 -11 -39
-18 -43 -9 -6 -24 -32 -54 -94 -2 -5 4 -8 13 -8 20 0 74 53 103 100 11 20 32
46 45 58 35 33 45 10 13 -29 -14 -16 -34 -49 -44 -73 -11 -23 -36 -59 -57 -79
-29 -29 -36 -40 -27 -49 9 -9 22 -6 55 10 25 12 47 22 51 22 5 0 16 10 27 23
15 17 20 19 28 8 13 -20 5 -100 -13 -120 -21 -23 -20 -50 1 -73 13 -14 17 -41
19 -112 1 -52 7 -103 13 -115 9 -16 9 -27 -1 -43 -8 -15 -13 -77 -15 -178 -4
-240 -18 -362 -47 -399 -6 -7 -11 -66 -12 -134 l-1 -120 -107 -2 c-59 -1 -109
-5 -112 -8 -3 -2 -20 -1 -39 3 -19 4 -70 4 -112 0 -104 -11 -1009 -23 -1615
-21 -416 1 -498 4 -560 18 -54 12 -116 16 -236 15 l-162 -1 7 947 c4 521 8
1406 10 1967 1 561 5 1084 9 1163 3 87 1 182 -5 241 -15 129 -15 368 0 436 9
43 9 84 -2 202 -14 151 -16 315 -8 573 2 80 1 231 -4 335 -4 105 -7 300 -6
435 1 460 -1 585 -13 945 -15 408 -16 599 -6 700 4 39 2 144 -4 235 -17 265
-18 252 17 262 17 4 41 22 54 39 33 45 25 125 -19 187 -29 41 -34 72 -11 72 6
0 26 -16 45 -36 30 -31 41 -35 85 -36 63 -2 88 18 97 78 7 52 -14 95 -83 162
-30 30 -43 51 -43 70 0 37 -23 67 -51 67 -32 0 -34 18 -5 51 18 21 25 24 26
13 0 -26 30 -78 50 -89 57 -30 121 9 125 76 3 52 -15 105 -42 117 -12 5 -30
21 -38 34 -9 14 -25 23 -40 23 -36 0 -33 41 6 102 18 27 29 56 26 67 -5 20 9
51 23 51 5 0 9 -19 8 -42 0 -28 9 -60 26 -92 14 -27 26 -57 26 -66 0 -38 92
-90 159 -90 31 0 38 4 47 28 14 38 7 87 -17 108 -26 23 -24 63 7 117 23 42 24
49 12 74 -7 16 -23 29 -35 31 -12 2 -32 17 -45 34 -57 76 -65 81 -124 74 -50
-6 -54 -5 -54 14 0 23 -51 50 -95 50 -29 0 -35 27 -8 36 10 3 33 13 50 22 26
13 35 14 45 4 32 -32 70 12 47 54 -18 35 2 55 31 29 15 -14 20 -31 20 -72 0
-86 39 -141 117 -163 37 -11 45 -11 75 8 38 24 58 58 58 102 0 22 -12 38 -52
73 -49 43 -52 48 -53 93 0 39 -4 49 -18 52 -11 2 -28 -6 -38 -17 -11 -12 -27
-21 -35 -21 -12 0 -14 8 -9 44 6 36 4 46 -11 54 -11 6 -16 14 -12 17 4 4 22
-2 41 -14 19 -11 41 -21 50 -21 21 0 77 48 77 66 0 18 4 17 39 -1 16 -8 34
-27 40 -42 13 -29 139 -126 153 -117 4 3 8 19 8 36 0 21 12 43 39 74 54 61 63
120 27 175 -14 21 -26 45 -26 53 0 9 -7 36 -15 61 l-16 45 38 38 c21 20 45 53
53 72 7 19 14 36 15 37 1 2 19 -6 41 -16 31 -15 49 -17 89 -10 28 4 56 8 64 8
7 1 28 17 47 37 l33 37 -37 45 c-82 100 -94 108 -177 121 -125 18 -143 16
-179 -24 -47 -51 -84 -45 -70 10 5 21 12 25 41 25 47 0 73 16 73 45 0 25 4 29
54 67 16 12 34 35 42 53 11 28 20 33 86 48 40 10 102 17 137 17 63 0 65 1 103
42 32 35 47 43 86 48 44 5 100 5 148 2z m-562 -8 c25 -9 19 -33 -10 -40 -30
-8 -47 6 -38 29 6 18 22 21 48 11z m3436 -4 c0 -6 -12 -16 -27 -22 -16 -7 -36
-20 -46 -30 -23 -23 -50 -24 -45 -1 6 30 118 81 118 53z m-1200 -15 c0 -8 -9
-15 -20 -15 -20 0 -26 11 -13 23 12 13 33 7 33 -8z m556 7 c7 -4 14 -29 17
-57 3 -27 9 -76 13 -107 4 -40 3 -58 -5 -58 -6 0 -11 5 -11 12 0 7 -11 21 -24
33 -20 17 -25 30 -27 80 -4 105 2 120 37 97z m430 -17 c7 -28 0 -55 -16 -55
-5 0 -9 18 -8 40 1 45 14 53 24 15z m-654 -113 c3 -42 12 -96 19 -120 17 -57
2 -73 -39 -42 -27 20 -32 21 -58 7 -16 -8 -38 -24 -48 -36 -34 -37 -86 -22
-86 26 0 12 -5 34 -12 48 -10 22 -8 28 10 48 12 13 22 29 22 35 0 19 -42 31
-68 19 -18 -8 -25 -7 -37 9 -35 46 -16 55 96 43 46 -5 101 -6 122 -3 32 5 37
9 37 33 0 15 3 31 7 35 16 15 30 -27 35 -102z m3333 92 c51 -21 33 -39 -29
-30 -46 7 -62 18 -51 36 9 14 37 12 80 -6z m-1550 -34 c14 -22 43 -52 64 -66
47 -31 61 -72 37 -109 -21 -32 -68 -27 -132 12 l-49 30 -3 73 c-4 89 0 100 33
100 18 0 31 -11 50 -40z m1775 5 c0 -15 -10 -31 -26 -42 -14 -9 -44 -41 -65
-70 -57 -77 -93 -67 -63 18 19 55 28 65 88 99 55 32 66 31 66 -5z m-1630 4 c0
-5 -7 -9 -15 -9 -15 0 -20 12 -9 23 8 8 24 -1 24 -14z m1860 -10 c0 -52 21
-116 46 -140 30 -28 31 -43 1 -35 -40 10 -92 -47 -100 -109 -8 -52 -27 -82
-47 -70 -7 5 -10 19 -6 40 4 20 1 43 -9 61 -8 16 -15 46 -15 66 0 41 19 58 63
58 37 0 51 23 44 73 -7 47 0 87 14 87 5 0 9 -14 9 -31z m-3399 14 c6 -32 4
-564 -1 -574 -14 -22 -28 1 -34 58 -4 32 -8 127 -11 212 -3 107 -9 162 -20
183 -21 43 -10 115 19 121 37 7 46 7 47 0z m-2313 -36 c2 -10 -3 -17 -12 -17
-10 0 -16 9 -16 21 0 24 23 21 28 -4z m2652 2 c-7 -11 -14 -18 -17 -15 -8 8 5
36 17 36 7 0 7 -6 0 -21z m248 -16 c22 -57 22 -123 -2 -212 -13 -47 -21 -100
-19 -117 4 -23 -2 -38 -22 -62 -15 -18 -35 -53 -45 -79 -20 -54 -68 -170 -79
-192 -12 -24 -39 -37 -51 -25 -18 18 58 264 81 264 11 0 29 59 22 76 -7 18
-47 36 -65 29 -15 -6 -58 -78 -58 -96 0 -6 -11 -33 -24 -59 -13 -26 -27 -60
-30 -76 -4 -16 -15 -38 -24 -49 -28 -33 -89 -75 -110 -75 -25 0 -46 -45 -32
-69 21 -41 110 -23 133 26 12 27 25 30 34 6 4 -10 16 -30 29 -45 14 -17 22
-41 22 -63 0 -32 -2 -35 -21 -28 -29 10 -71 9 -132 -5 -41 -8 -51 -8 -58 4
-12 21 -44 17 -61 -7 -17 -24 -36 -17 -36 13 0 22 -25 71 -52 103 -12 15 -16
37 -15 83 2 58 3 63 22 58 28 -8 72 26 132 102 44 55 58 85 89 181 41 132 93
248 123 275 16 14 23 15 41 6 17 -9 29 -6 69 18 81 50 124 54 139 15z m-2644
-33 c18 -31 18 -34 2 -87 -19 -58 -54 -103 -81 -103 -8 0 -15 9 -15 20 0 16
-7 20 -30 20 -23 0 -31 5 -35 23 -9 33 11 75 40 89 22 10 25 16 20 40 -6 23
-3 30 17 37 32 12 60 -1 82 -39z m5356 35 c16 -19 1 -39 -40 -54 -42 -14 -48
4 -14 40 32 33 37 35 54 14z m-4115 -20 c17 -7 51 -35 78 -63 41 -45 47 -56
47 -95 0 -51 21 -84 75 -117 34 -21 37 -21 80 -7 l45 16 0 -30 c0 -40 27 -50
52 -20 10 13 18 36 18 52 0 29 14 46 25 29 3 -5 3 -30 0 -54 -5 -31 -13 -46
-25 -49 -10 -3 -32 -23 -48 -46 -42 -58 -51 -129 -23 -194 22 -50 47 -67 102
-67 22 0 29 -5 29 -20 0 -28 -28 -40 -63 -27 -26 9 -33 7 -49 -13 -34 -41 -21
-123 23 -146 16 -8 29 -20 29 -27 0 -13 -67 -87 -80 -87 -4 0 -15 -16 -25 -34
-18 -34 -18 -37 -2 -90 23 -73 49 -105 74 -90 24 15 28 65 8 104 -13 26 -14
34 -4 48 24 32 54 52 77 52 29 0 79 48 88 86 5 18 1 45 -8 71 l-16 43 44 20
c55 24 65 46 34 70 -15 11 -21 23 -17 34 8 20 21 20 41 1 13 -14 16 -12 22 20
6 34 3 41 -41 101 -6 9 -4 29 7 61 29 84 40 157 28 188 -7 19 -7 32 -1 38 7 7
14 1 21 -17 6 -16 19 -30 29 -33 16 -4 19 -20 25 -136 4 -72 11 -138 15 -145
4 -8 2 -30 -5 -51 -16 -45 -9 -76 25 -121 24 -30 27 -43 26 -97 -1 -34 -8 -69
-14 -77 -14 -16 -10 -48 17 -130 12 -38 13 -58 5 -87 -5 -20 -8 -68 -6 -104 3
-61 -16 -186 -47 -310 -5 -22 -14 -69 -20 -105 -8 -58 -37 -173 -72 -283 -8
-27 -9 -44 -2 -55 7 -10 7 -29 2 -47 -10 -37 -28 -165 -32 -226 -2 -25 -9 -63
-16 -84 -8 -25 -10 -65 -6 -119 4 -59 2 -92 -9 -121 -8 -22 -14 -64 -15 -93 0
-50 -27 -239 -35 -253 -3 -4 -9 -35 -15 -70 -5 -35 -19 -97 -30 -138 -17 -61
-19 -79 -9 -102 10 -26 8 -32 -17 -59 -28 -30 -32 -31 -109 -30 -147 1 -159 1
-160 3 -1 2 7 100 23 297 12 133 -2 326 -24 351 -10 11 -12 19 -5 24 7 4 10
83 10 230 -1 212 2 245 20 245 13 0 25 -114 26 -250 0 -69 7 -151 14 -183 8
-38 12 -110 9 -204 -2 -104 0 -147 9 -150 11 -4 24 125 23 222 -4 263 -6 287
-23 296 -15 9 -16 13 -2 39 18 35 19 73 4 103 -7 12 -12 51 -13 88 -1 70 -15
99 -47 99 -16 0 -19 8 -19 54 0 29 -3 68 -6 85 -8 39 11 42 22 4 l8 -28 6 35
6 35 16 -30 c14 -24 17 -26 17 -10 1 11 -5 38 -13 60 -18 54 -4 198 24 237 22
30 19 73 -8 120 -14 24 -14 35 -4 74 8 31 11 84 7 162 -3 65 -2 172 2 238 10
149 3 187 -43 239 -31 34 -35 44 -30 75 4 23 1 43 -8 56 -21 29 -36 120 -23
133 6 6 25 11 43 11 20 0 34 6 38 16 11 28 6 44 -13 44 -21 0 -31 19 -31 55 0
35 -28 46 -69 29 -19 -8 -36 -12 -38 -10 -9 8 9 47 29 66 21 19 21 20 3 40
-13 15 -26 19 -42 15 -24 -6 -24 -4 -37 72 -4 22 1 39 16 58 l20 26 -22 6
c-17 4 -20 11 -16 29 6 23 4 25 -56 38 -24 6 -27 10 -22 36 6 25 3 30 -21 36
-15 4 -36 1 -50 -6 -13 -7 -31 -10 -40 -6 -15 5 -15 9 -4 22 29 35 93 39 164
9z m1028 -15 c-10 -103 -33 -123 -33 -29 0 52 2 60 18 57 11 -3 16 -12 15 -28z
m2602 20 c3 -5 15 -10 25 -10 11 0 25 -7 32 -16 7 -9 24 -27 37 -40 36 -37 22
-51 -59 -59 -53 -5 -73 -11 -77 -24 -18 -56 -27 -71 -45 -71 -30 0 -33 28 -10
99 35 106 75 157 97 121z m-6470 -40 c0 -13 -6 -25 -12 -27 -16 -6 -27 21 -19
43 9 23 31 11 31 -16z m3755 -4 c0 -8 -4 -18 -10 -21 -5 -3 -10 3 -10 14 0 12
5 21 10 21 6 0 10 -6 10 -14z m1066 -13 c-10 -10 -19 5 -10 18 6 11 8 11 12 0
2 -7 1 -15 -2 -18z m1377 -48 c17 -34 26 -67 23 -80 -5 -21 -51 -53 -61 -43
-12 12 -27 120 -21 153 9 49 25 41 59 -30z m641 8 c-2 -27 -3 -51 -4 -55 0 -3
-12 -9 -27 -13 -38 -8 -68 -35 -76 -67 -9 -35 -36 -44 -60 -20 -28 29 -14 56
47 92 29 16 66 48 81 70 15 22 31 40 35 40 4 0 6 -21 4 -47z m-6728 -11 c-1
-39 5 -55 31 -88 36 -45 34 -54 -9 -54 -16 0 -40 -7 -54 -16 -20 -14 -24 -22
-19 -45 5 -22 2 -31 -10 -35 -21 -8 -37 14 -29 39 3 10 6 49 5 87 0 66 0 69
34 95 19 14 35 35 35 46 0 10 4 19 8 19 5 0 8 -22 8 -48z m464 9 c12 -24 -3
-43 -31 -39 -27 3 -37 32 -19 53 13 16 37 10 50 -14z m-166 10 c8 -13 -20 -45
-32 -37 -20 12 -14 46 7 46 11 0 22 -4 25 -9z m-546 -32 c3 -18 -58 -89 -77
-89 -20 0 -12 62 11 87 25 26 61 27 66 2z m5480 -19 c27 0 26 -88 -2 -139
l-14 -25 -21 42 c-20 40 -29 130 -14 145 3 4 14 0 23 -8 9 -8 22 -15 28 -15z
m-1585 -57 c10 -100 8 -173 -3 -173 -5 0 -11 17 -11 38 -6 150 -6 202 1 202 4
0 10 -30 13 -67z m-3802 1 c22 -19 14 -44 -13 -44 -11 0 -36 -17 -54 -37 -33
-36 -34 -36 -34 -12 0 15 12 37 30 54 17 16 30 35 30 42 0 18 20 16 41 -3z
m469 -34 c0 -10 -7 -23 -15 -30 -41 -34 3 -79 100 -99 72 -16 85 -25 85 -61 0
-34 -35 -69 -52 -52 -7 7 -22 12 -33 12 -14 0 -26 10 -33 25 -7 14 -20 25 -31
25 -11 0 -24 7 -29 17 -16 27 -44 9 -36 -23 7 -26 6 -27 -31 -20 -45 9 -85 33
-85 52 0 19 -17 18 -28 -1 -5 -10 -15 -13 -25 -9 -21 8 -22 24 -2 24 11 0 15
12 15 45 l0 45 48 0 c37 0 53 6 75 25 15 14 27 34 27 44 0 10 3 21 7 24 10 10
43 -23 43 -43z m6159 23 c10 -21 9 -28 -1 -34 -37 -24 -87 7 -72 45 10 27 59
20 73 -11z m271 -58 c0 -68 -33 -74 -46 -9 -4 22 -1 36 11 47 24 24 35 12 35
-38z m-3479 -1 c10 -46 10 -114 0 -114 -9 0 -41 95 -41 122 0 39 32 33 41 -8z
m-2591 10 c21 -6 82 -92 75 -104 -3 -5 -23 -15 -45 -21 -49 -15 -88 -1 -112
41 -13 22 -25 30 -45 30 -64 0 -95 22 -51 36 12 3 29 13 37 21 11 11 28 13 70
8 31 -3 63 -8 71 -11z m5868 -43 c2 -13 -1 -28 -6 -33 -13 -13 -36 28 -28 49
8 21 30 11 34 -16z m-160 7 c17 -17 15 -77 -3 -84 -17 -7 -54 32 -55 57 0 17
19 39 35 39 6 0 16 -5 23 -12z m-6328 -47 c0 -5 -7 -12 -16 -15 -24 -9 -28 -7
-14 9 14 17 30 20 30 6z m-336 -43 c3 -13 2 -26 -3 -31 -11 -11 -34 20 -27 38
8 22 23 18 30 -7z m204 -14 c50 -29 55 -56 13 -73 -19 -8 -34 -26 -45 -53 -14
-36 -17 -39 -32 -27 -20 16 -54 93 -54 120 0 11 7 31 16 45 19 28 34 26 102
-12z m6761 16 c34 -16 42 -24 36 -37 -4 -10 -11 -33 -17 -50 -11 -39 -20 -41
-45 -10 -10 13 -26 26 -35 30 -12 4 -18 17 -18 40 0 54 11 57 79 27z m216 -15
c0 -25 -4 -31 -27 -33 -38 -4 -51 -23 -38 -56 10 -27 8 -32 -39 -116 -4 -8
-12 -24 -18 -35 -12 -24 -29 -18 -25 10 1 11 6 47 11 80 9 71 29 113 73 155
40 37 63 36 63 -5z m-445 -47 c0 -74 -20 -111 -99 -185 -42 -40 -79 -73 -83
-73 -13 0 -9 63 7 116 17 57 95 147 119 138 9 -3 20 3 28 15 18 30 28 26 28
-11z m-6396 -4 c9 -25 7 -49 -6 -62 -9 -9 -15 -5 -25 19 -7 17 -13 38 -13 45
0 19 36 18 44 -2z m3104 4 c11 -13 16 -54 14 -99 -3 -38 -37 -45 -51 -10 -21
57 -23 72 -7 96 18 28 29 31 44 13z m3871 -62 c14 -74 14 -96 1 -96 -26 0 -50
112 -34 155 10 26 21 5 33 -59z m-6721 42 c30 -30 -11 -78 -53 -62 -32 13 -11
74 25 74 9 0 21 -5 28 -12z m6228 -37 c-12 -19 -24 -12 -19 10 4 13 9 17 15
11 6 -6 7 -15 4 -21z m-6162 -10 c10 -11 13 -22 8 -25 -6 -3 -17 5 -26 19 -19
29 -7 33 18 6z m-204 -26 c0 -16 -43 -31 -59 -20 -18 10 -12 23 12 28 41 8 47
7 47 -8z m-88 -83 c9 -10 25 -13 60 -9 41 5 49 3 58 -14 9 -15 7 -21 -6 -26
-10 -4 -26 -15 -35 -24 -10 -10 -31 -21 -46 -24 -16 -4 -38 -10 -49 -15 -21
-8 -22 -7 -22 98 -1 104 0 106 14 68 8 -21 19 -46 26 -54z m6852 45 c7 -19 5
-32 -8 -52 -25 -38 -40 -19 -32 40 8 50 25 56 40 12z m-7130 -19 c20 -23 36
-45 36 -49 0 -5 -10 -27 -21 -49 -17 -33 -24 -38 -35 -29 -8 6 -14 21 -14 32
0 28 -28 57 -56 57 -33 0 -47 31 -28 58 10 15 26 22 49 22 27 0 40 -8 69 -42z
m170 1 c11 -57 7 -119 -8 -119 -18 0 -66 46 -66 63 0 14 51 86 61 87 4 0 9
-14 13 -31z m372 0 c53 -22 64 -33 64 -64 0 -11 7 -33 16 -50 47 -86 47 -86
34 -110 -10 -19 -20 -24 -52 -22 -33 1 -42 6 -54 29 -11 22 -22 28 -47 28 -52
0 -71 19 -63 66 3 21 9 63 12 92 7 61 16 63 90 31z m6304 -18 c-1 -9 -7 -33
-14 -54 -14 -39 -6 -108 16 -134 14 -18 3 -43 -20 -43 -13 0 -31 21 -55 61
-39 66 -43 88 -26 138 17 49 100 76 99 32z m-164 -8 c-4 -16 -10 -51 -13 -80
-5 -45 -3 -53 16 -65 30 -19 26 -38 -8 -38 -19 0 -40 10 -59 30 -17 17 -40 30
-52 30 -12 0 -20 4 -18 10 5 15 122 140 132 140 4 0 5 -12 2 -27z m524 -101
c0 -18 -5 -23 -22 -20 -29 4 -44 52 -28 92 l11 29 19 -39 c11 -21 20 -49 20
-62z m-4370 18 c58 -46 70 -65 79 -120 10 -62 28 -79 53 -49 19 22 51 20 44
-3 -3 -7 -7 -25 -10 -40 -8 -35 -35 -36 -66 -3 -13 14 -29 25 -36 25 -7 0 -18
8 -23 18 -5 10 -21 24 -35 31 -14 8 -33 30 -42 50 -18 38 -70 90 -91 91 -21 0
-15 20 10 30 32 13 77 2 117 -30z m4265 -56 c23 -39 55 -168 55 -220 0 -39
-23 -58 -63 -50 -24 4 -37 12 -37 22 0 9 -8 29 -17 44 -15 27 -15 30 1 55 10
16 14 34 10 47 -5 17 -12 19 -40 15 -27 -5 -40 -1 -61 17 -32 28 -27 56 9 49
29 -5 40 7 58 65 l13 42 24 -22 c13 -12 35 -41 48 -64z m-7160 -18 c12 -13 27
-25 35 -28 10 -3 11 -11 0 -42 -14 -44 -107 -159 -121 -150 -10 6 -11 197 -2
221 3 8 13 11 23 8 10 -3 21 -1 25 5 9 15 15 13 40 -14z m420 -25 c0 -8 -8
-19 -17 -25 -22 -13 -44 5 -34 29 7 20 51 16 51 -4z m-245 -20 c0 -24 -37 -71
-56 -71 -17 0 -17 5 -3 33 27 52 59 73 59 38z m3245 -31 c3 -5 1 -10 -4 -10
-6 0 -11 5 -11 10 0 6 2 10 4 10 3 0 8 -4 11 -10z m3245 -22 c18 -22 19 -23
52 -6 18 9 43 19 56 23 35 10 28 -22 -10 -41 -43 -22 -66 -46 -84 -91 -18 -41
-25 -36 -48 31 -30 93 -11 139 34 84z m-2617 -23 c9 -23 -10 -28 -71 -19 -31
4 -61 8 -66 8 -5 1 -11 7 -13 14 -7 19 143 17 150 -3z m2914 -12 c9 -16 34
-47 55 -70 21 -24 38 -47 38 -53 0 -24 -21 -48 -37 -45 -11 3 -29 -9 -46 -30
-31 -38 -37 -95 -23 -212 8 -65 4 -73 -29 -49 -26 19 -33 112 -11 154 20 38 9
73 -35 116 -16 15 -29 34 -29 42 0 7 18 32 41 54 41 41 45 54 24 103 -12 29
32 21 52 -10z m-3828 -9 c3 -16 1 -17 -13 -5 -19 16 -21 34 -3 29 6 -3 14 -13
16 -24z m705 -47 c12 -19 3 -32 -19 -24 -17 7 -21 51 -3 45 6 -2 16 -12 22
-21z m-3774 -54 c0 -26 -12 -35 -34 -27 -20 8 -20 23 0 53 13 18 18 20 25 10
5 -8 9 -24 9 -36z m2886 13 c8 -21 -18 -70 -39 -74 -23 -5 -57 25 -57 50 0 12
7 18 24 18 14 0 28 5 31 10 9 15 35 12 41 -4z m1128 -44 c-7 -35 -33 -49 -63
-33 -11 6 -37 11 -58 12 -62 2 -88 12 -91 38 -4 23 -3 23 70 17 40 -4 87 -2
103 2 38 12 47 4 39 -36z m-4080 -34 c20 -39 20 -38 -6 -38 -40 0 -53 15 -40
44 15 34 27 33 46 -6z m7166 -3 c19 -20 22 -31 17 -66 -4 -34 -15 -49 -61 -90
-30 -27 -58 -59 -61 -70 -5 -15 -14 -19 -33 -17 -26 3 -27 6 -27 60 0 55 3 60
46 105 25 27 53 60 62 76 21 33 27 34 57 2z m100 -99 c10 -107 3 -156 -21
-156 -20 0 -34 16 -20 24 5 3 9 54 9 113 1 145 0 142 14 118 6 -10 15 -55 18
-99z m-4201 68 c20 -33 20 -42 11 -122 -13 -118 -20 -212 -26 -374 -5 -112 -2
-161 16 -272 21 -126 22 -153 14 -364 -5 -125 -7 -234 -6 -242 1 -8 5 -69 8
-135 3 -66 10 -137 15 -158 11 -43 9 -280 -2 -299 -4 -7 -10 -10 -13 -8 -5 6
-24 221 -23 273 0 25 -6 43 -21 57 -18 17 -19 23 -9 49 8 22 7 64 -3 168 -7
76 -13 158 -13 183 0 106 13 452 17 459 3 4 -2 27 -10 52 -14 41 -26 147 -27
244 0 64 24 248 36 273 16 33 10 192 -8 222 -7 11 2 30 15 30 4 0 18 -16 29
-36z m-2681 -4 c17 -16 38 -30 46 -30 17 0 21 -27 7 -49 -14 -22 -77 -6 -85
22 -7 25 -8 87 -2 87 3 0 18 -13 34 -30z m3502 -41 c0 -6 -9 -8 -22 -3 -29 8
-31 10 -23 23 7 13 45 -4 45 -20z m190 -14 c0 -8 -4 -15 -8 -15 -16 0 -32 -51
-27 -88 3 -20 7 -81 9 -134 3 -53 10 -106 16 -117 6 -12 10 -40 9 -64 -2 -58
17 -263 26 -277 6 -10 12 -80 17 -200 0 -8 -3 -58 -7 -110 -4 -52 -8 -131 -8
-175 -2 -68 -5 -80 -19 -80 -9 0 -28 -10 -41 -21 -22 -20 -24 -30 -30 -154 -3
-83 -2 -141 4 -153 6 -11 8 -40 4 -67 -6 -41 -3 -55 19 -93 14 -24 26 -52 26
-62 0 -10 7 -26 16 -36 11 -12 19 -63 29 -188 19 -217 18 -388 -3 -571 -18
-159 -19 -292 -5 -475 5 -66 7 -126 4 -132 -4 -8 -26 13 -56 54 -61 80 -143
165 -185 189 -16 10 -30 21 -30 25 0 4 -17 13 -37 19 -21 6 -47 15 -58 20 -36
16 -212 60 -240 60 -15 0 -40 -8 -56 -17 -26 -16 -31 -16 -39 -3 -5 8 -10 27
-10 43 0 24 4 27 38 28 20 1 40 1 44 1 3 -1 12 5 18 13 12 15 -4 18 -81 19
-24 0 -12 25 15 31 11 2 36 6 55 8 60 6 49 27 -13 27 -49 0 -56 2 -56 19 0 17
8 20 52 23 42 2 54 7 56 22 4 16 -1 17 -47 11 -43 -6 -52 -4 -57 10 -9 23 12
35 64 35 31 0 42 4 42 15 0 11 -12 15 -50 15 -47 0 -50 2 -50 25 0 25 1 25 55
19 47 -6 55 -4 55 10 0 15 -31 22 -82 17 -13 -2 -18 5 -18 22 0 27 16 37 61
37 18 0 29 5 29 14 0 9 -12 14 -36 14 -44 0 -50 6 -36 37 10 21 19 25 53 25
46 0 51 23 6 28 -18 2 -27 9 -27 21 0 28 20 40 58 34 27 -5 34 -3 30 8 -2 8
-15 16 -29 17 -32 5 -49 20 -42 39 5 11 15 14 44 9 31 -5 39 -3 39 9 0 8 -14
18 -32 23 -18 4 -33 15 -33 23 0 9 12 15 33 17 40 4 41 20 2 33 -36 13 -39 29
-6 29 30 0 42 16 26 35 -9 11 -6 14 17 17 41 4 37 32 -5 36 -28 3 -33 7 -30
25 3 19 9 22 47 22 28 0 46 5 49 14 6 17 -16 31 -50 31 -37 0 -37 28 -1 32 35
4 46 38 13 38 -31 0 -19 24 13 28 30 4 35 23 12 42 -20 16 -19 49 1 57 13 5
15 15 9 50 -6 40 -4 47 21 69 25 24 26 29 20 82 -4 32 -15 86 -26 121 -10 36
-17 68 -14 73 3 4 21 8 40 8 24 0 34 5 34 15 0 10 -10 15 -32 15 -66 0 -76 33
-15 45 58 12 67 16 67 32 0 11 -7 14 -22 10 -89 -20 -86 -20 -93 2 -9 30 0 39
50 47 29 4 45 11 45 20 0 18 -16 20 -63 9 -24 -6 -27 -4 -27 18 0 46 10 57 51
57 32 0 39 3 39 20 0 17 -7 20 -40 20 -27 0 -40 4 -40 14 0 17 24 38 42 35 28
-3 38 2 38 20 0 13 -10 20 -31 25 -25 5 -30 10 -27 28 2 16 11 24 32 28 39 7
44 27 11 42 -31 14 -29 39 3 53 18 8 22 16 19 34 -3 17 2 30 15 41 20 16 20
17 3 43 -17 27 -17 27 13 54 25 21 29 30 21 45 -5 10 -7 46 -3 82 l7 65 46 3
c39 3 47 7 49 25 3 18 -2 22 -30 25 -28 2 -33 7 -33 28 0 22 4 25 29 22 50 -6
78 6 74 31 -2 17 -11 23 -42 27 -59 7 -56 27 5 32 54 6 85 29 74 56 -2 7 1 22
8 32 9 16 9 24 -1 40 -6 11 -12 22 -12 25 0 3 27 5 60 5 47 0 60 -3 60 -15z
m-895 -72 c-4 -32 -6 -96 -4 -143 9 -199 -3 -495 -21 -529 -4 -8 -13 13 -21
55 -18 96 -16 328 3 444 9 52 20 125 23 163 4 37 11 67 17 67 7 0 8 -19 3 -57z
m-3235 22 c0 -8 -7 -15 -15 -15 -8 0 -15 7 -15 15 0 8 7 15 15 15 8 0 15 -7
15 -15z m143 -88 c8 -51 -3 -53 -44 -7 -44 49 -43 45 -28 72 11 20 11 20 39
-7 15 -15 30 -41 33 -58z m3815 76 c18 -4 20 -8 10 -14 -22 -15 -68 -11 -68 6
0 16 20 19 58 8z m3299 -99 c11 -47 12 -73 3 -124 -7 -36 -10 -106 -8 -157 2
-50 0 -95 -4 -99 -5 -4 -8 -22 -8 -40 0 -33 -14 -52 -24 -35 -4 5 -15 56 -26
113 -11 57 -25 128 -31 158 -6 30 -9 84 -6 118 4 55 9 68 38 98 18 19 38 33
43 31 5 -2 16 -30 23 -63z m-6923 10 c24 -9 19 -24 -9 -24 -14 0 -35 -12 -50
-27 -21 -24 -27 -26 -35 -13 -18 28 -4 49 41 60 19 4 35 8 36 9 1 1 8 -2 17
-5z m-249 -83 c55 -32 59 -93 10 -145 -25 -27 -27 -27 -45 -11 -11 10 -28 36
-39 59 -19 37 -19 57 -5 104 5 17 43 14 79 -7z m306 -1 c21 -12 26 -49 8 -67
-13 -13 -16 -70 -6 -100 7 -20 5 -23 -17 -23 -20 0 -29 9 -46 46 -28 64 -26
98 7 129 32 29 29 28 54 15z m6704 -108 c20 -47 19 -65 -7 -105 -13 -19 -28
-43 -34 -53 -11 -18 -15 -16 -54 21 -50 48 -63 76 -50 110 16 43 44 62 89 62
38 0 43 -3 56 -35z m-7042 -146 c20 -15 23 -52 4 -59 -16 -6 -80 20 -74 30 2
5 7 16 10 26 7 20 35 22 60 3z m174 -118 c18 -14 16 -55 -2 -61 -16 -7 -65 46
-65 70 0 12 6 14 27 8 16 -4 34 -11 40 -17z m6877 -87 c8 -13 -14 -71 -27 -71
-21 0 -47 -33 -47 -60 0 -15 9 -53 20 -86 23 -69 26 -118 8 -112 -7 3 -16 27
-20 55 -4 28 -17 75 -29 105 -35 87 -39 107 -27 134 6 13 23 27 37 30 14 3 31
7 36 9 20 7 44 5 49 -4z m-7002 -151 c9 0 22 -9 28 -19 5 -11 23 -28 40 -37
32 -19 59 -70 44 -84 -18 -17 -67 4 -120 52 -52 49 -73 85 -59 108 4 7 13 5
28 -5 12 -8 29 -15 39 -15z m7018 -9 c0 -11 5 -23 10 -26 13 -8 13 -62 -1 -71
-18 -11 -29 10 -36 64 -5 44 -3 52 11 52 9 0 16 -8 16 -19z m-4090 -67 c0 -8
-5 -12 -10 -9 -6 4 -8 11 -5 16 9 14 15 11 15 -7z m-2990 -260 c0 -23 -15 -41
-23 -27 -3 5 -8 28 -11 53 l-7 45 21 -24 c11 -13 20 -34 20 -47z m5152 -611
c39 -37 38 -94 -2 -177 -41 -86 -155 -201 -245 -249 -66 -34 -155 -107 -155
-126 0 -5 -7 -14 -15 -21 -8 -7 -15 -23 -15 -37 0 -25 -44 -97 -88 -145 -35
-38 -89 -55 -109 -35 -14 13 -10 21 28 73 100 132 96 124 151 275 21 60 46 88
166 190 47 40 71 67 68 76 -4 8 -6 19 -6 24 0 28 -92 -28 -195 -117 -52 -46
-65 -52 -65 -31 0 27 193 207 222 207 7 0 58 27 112 60 55 33 104 60 110 60 5
0 23 -12 38 -27z m-2134 -159 c8 -55 14 -66 41 -75 30 -11 41 -32 41 -86 0
-41 -9 -46 -63 -32 l-44 12 0 104 c0 73 3 103 11 100 6 -2 12 -12 14 -23z
m1591 -193 c10 -7 11 -13 2 -30 -7 -12 -9 -26 -6 -31 6 -10 -9 -68 -26 -102
-5 -10 -9 -25 -9 -33 0 -8 -9 -24 -19 -34 -10 -10 -31 -40 -46 -65 -42 -71
-63 -60 -25 14 12 24 16 41 10 45 -17 10 -27 -2 -40 -50 -11 -40 -16 -45 -41
-45 -38 0 -44 15 -20 46 23 29 27 49 11 59 -6 3 -19 -14 -30 -39 -13 -32 -25
-46 -39 -46 -23 0 -34 25 -21 50 13 24 13 40 0 40 -5 0 -18 -20 -29 -45 -14
-32 -26 -45 -40 -45 -27 0 -33 14 -20 44 9 19 9 32 0 54 -14 33 -5 102 13 106
6 2 31 8 56 15 25 6 71 12 102 14 48 3 67 11 115 45 60 42 78 48 102 33z
m-1849 -51 c111 -15 219 -22 371 -24 85 -1 141 -5 150 -12 8 -7 33 -15 57 -19
23 -4 42 -12 43 -18 2 -20 0 -50 -6 -109 -5 -48 -10 -58 -26 -58 -14 0 -19 -7
-19 -29 0 -29 -25 -60 -38 -46 -4 4 -7 23 -7 43 0 19 -6 37 -12 39 -9 3 -13
-9 -13 -40 0 -31 -6 -49 -19 -61 -28 -25 -41 -12 -41 40 0 66 -24 52 -28 -16
-3 -58 -17 -93 -35 -87 -7 2 -13 17 -15 33 -5 54 -12 74 -28 74 -12 0 -14 -10
-8 -60 6 -56 5 -60 -15 -62 -54 -4 -56 -3 -57 22 -1 14 -2 40 -3 58 -1 21 -6
32 -16 32 -11 0 -14 -13 -14 -59 1 -33 -2 -64 -5 -69 -8 -13 -118 -26 -145
-17 -17 5 -21 15 -21 48 0 23 -5 59 -11 80 -13 47 -36 44 -30 -4 10 -81 8 -94
-19 -94 -23 0 -25 3 -25 52 0 56 -19 91 -31 59 -4 -10 -2 -33 4 -52 11 -37 3
-49 -28 -39 -12 4 -24 21 -30 46 -15 56 -43 54 -34 -2 7 -39 6 -41 -13 -31
-11 6 -36 13 -55 15 -19 2 -40 7 -46 11 -17 10 -52 -12 -52 -34 0 -20 32 -45
92 -72 34 -16 36 -20 31 -51 -7 -46 11 -98 53 -148 35 -42 38 -59 36 -192 -1
-44 -31 -155 -43 -163 -5 -3 -9 -14 -9 -25 0 -11 -11 -42 -25 -69 -14 -27 -25
-54 -25 -61 0 -6 -9 -22 -20 -36 -11 -14 -20 -34 -20 -43 0 -10 -6 -23 -14
-29 -11 -10 -17 -8 -25 6 -11 20 -25 12 -45 -29 -8 -16 -22 -24 -44 -26 -43
-4 -42 15 3 51 20 16 33 32 30 38 -10 15 -22 11 -57 -20 -27 -23 -38 -27 -56
-20 -32 12 -24 29 26 57 40 22 53 44 33 56 -5 4 -23 -5 -39 -19 -36 -30 -58
-32 -72 -6 -16 30 -12 39 20 56 17 9 30 22 30 30 0 18 -4 18 -46 3 -26 -9 -36
-9 -49 2 -16 13 -15 15 4 31 35 28 27 49 -16 46 -36 -2 -38 0 -38 28 0 38 -11
55 -35 55 -23 0 -54 54 -47 81 3 11 -2 24 -12 32 -9 6 -49 78 -89 158 -39 80
-79 152 -88 160 -45 37 -90 127 -109 220 l-14 67 30 56 c17 31 36 56 43 56 7
0 29 11 48 24 20 13 53 29 74 36 22 7 48 18 59 25 23 14 76 23 183 31 42 3 78
7 79 8 7 6 425 -5 483 -14z m572 -466 c-4 -93 -24 -162 -49 -173 -46 -21 -138
-177 -138 -236 0 -43 -23 -42 -72 4 -42 38 -43 40 -43 105 0 36 -5 86 -12 111
-10 37 -10 52 3 87 32 86 79 74 79 -21 0 -59 19 -101 46 -101 8 0 14 8 14 18
0 9 9 40 19 67 17 44 22 50 45 47 23 -3 26 0 26 29 0 30 -2 31 -31 25 -25 -5
-30 -3 -27 11 3 18 114 83 133 78 6 -1 9 -24 7 -51z m-570 -165 c16 -30 47
-72 68 -94 43 -44 48 -56 26 -75 -8 -6 -16 -21 -18 -33 -2 -14 -10 -22 -22
-22 -19 0 -29 -13 -40 -47 -6 -20 -46 -25 -46 -6 0 7 6 36 12 65 9 38 17 53
29 53 23 0 33 30 15 48 -8 8 -29 15 -45 14 -17 0 -31 4 -31 9 0 6 -16 44 -35
85 -20 41 -33 79 -30 84 3 5 24 1 46 -10 32 -14 48 -31 71 -71z m203 81 c4 -6
4 -17 1 -25 -4 -12 -10 -13 -31 -3 -25 11 -30 19 -18 31 10 11 41 8 48 -3z
m-86 -56 c31 -19 79 -92 88 -136 6 -30 -13 -78 -30 -78 -17 0 -47 32 -47 49 0
9 -11 32 -23 51 -33 48 -45 130 -19 130 2 0 16 -7 31 -16z m801 -156 c118 -34
221 -92 258 -144 9 -14 36 -50 60 -81 23 -31 42 -61 42 -66 0 -5 10 -20 23
-31 12 -12 36 -38 52 -57 17 -19 48 -48 68 -66 43 -36 51 -70 15 -58 -60 18
-76 18 -83 -5 -4 -12 -4 -32 -1 -45 4 -14 -1 -39 -10 -58 -16 -34 -16 -35 17
-92 37 -64 61 -81 57 -43 -3 19 1 23 22 20 46 -4 50 -10 50 -60 0 -50 -13 -71
-54 -86 -14 -5 -17 -14 -14 -44 4 -31 -1 -46 -34 -91 -21 -30 -38 -60 -38 -67
0 -7 -11 -23 -24 -36 -33 -31 -40 -62 -21 -82 9 -9 20 -16 25 -16 14 0 68 61
108 122 20 32 40 58 44 58 3 0 18 -20 32 -45 15 -25 34 -45 42 -45 9 0 14 3
12 8 -2 4 -10 19 -17 35 -12 23 -12 31 -1 55 12 24 14 25 17 7 13 -79 29 -134
45 -157 24 -34 23 -43 -6 -56 -27 -12 -36 -6 -66 51 -21 40 -44 42 -48 4 -2
-19 6 -42 23 -67 15 -22 25 -44 23 -51 -4 -11 -26 9 -67 61 -15 19 -22 22 -32
13 -19 -19 -2 -79 31 -110 17 -15 30 -34 30 -40 0 -25 -45 -12 -81 23 -40 39
-54 39 -61 -1 -4 -19 3 -32 33 -59 22 -19 39 -40 39 -46 0 -16 -28 -24 -44
-11 -11 9 -15 6 -20 -14 -4 -14 -10 -25 -15 -25 -12 0 -31 48 -31 79 0 42 -88
151 -122 151 -9 0 -22 8 -27 18 -17 31 -84 70 -134 77 -27 3 -79 20 -115 38
-52 24 -86 32 -150 36 -180 13 -371 -2 -432 -34 -16 -8 -51 -18 -77 -22 -27
-3 -55 -11 -63 -19 -8 -7 -35 -20 -60 -30 -25 -9 -57 -26 -72 -36 -40 -28 -65
-24 -73 13 -10 45 10 63 53 47 29 -11 34 -10 59 13 31 29 133 64 164 56 23 -6
51 19 47 42 -3 13 -18 16 -85 17 l-82 1 -27 -38 c-30 -43 -29 -43 -71 -29 -28
10 -43 29 -57 73 -3 9 -16 21 -28 26 -33 13 -55 56 -38 76 7 8 17 15 23 15 19
0 97 -83 97 -103 0 -18 25 -46 42 -47 10 0 52 80 73 138 19 52 19 52 62 52 36
0 43 3 43 20 0 12 -12 26 -30 35 -34 18 -31 35 5 35 13 0 25 6 28 13 6 18 -11
47 -28 47 -20 0 -19 20 5 110 11 41 20 86 20 98 0 13 9 35 20 49 12 15 20 41
20 63 0 60 19 102 44 98 18 -3 21 -9 19 -40 -1 -20 -13 -59 -27 -85 -13 -26
-27 -65 -30 -85 -6 -31 -3 -40 21 -62 l27 -25 -12 -83 c-7 -46 -21 -112 -31
-146 -21 -68 -15 -112 13 -112 51 0 106 291 106 560 0 87 12 116 35 86 16 -21
17 -60 16 -372 -1 -125 1 -154 14 -164 29 -24 37 5 46 157 4 81 8 151 8 156 1
4 11 5 24 2 28 -7 52 17 43 41 -6 15 -9 15 -52 -2 -7 -3 -13 43 -18 143 -10
193 -12 178 34 274 22 46 40 89 40 95 0 23 191 11 290 -18z m-376 13 c9 -13
-19 -32 -38 -25 -17 6 -20 16 -9 27 9 10 41 9 47 -2z m-70 -97 c16 -6 23 -34
9 -34 -5 0 -18 -3 -30 -6 -18 -5 -23 -2 -23 13 0 31 13 39 44 27z m-344 -106
c0 -21 -8 -22 -44 -8 -28 10 -34 38 -14 58 9 9 17 7 35 -10 13 -12 23 -30 23
-40z m169 18 c7 -8 11 -27 9 -43 -2 -22 -10 -30 -38 -39 -27 -9 -35 -18 -36
-35 0 -13 -4 -32 -9 -42 -4 -11 -3 -34 3 -53 8 -28 7 -43 -5 -72 -20 -48 -18
-47 -40 -25 -41 41 -47 77 -29 166 24 115 25 117 45 117 10 0 26 9 36 20 21
24 48 26 64 6z m-270 -56 c20 -15 45 -30 56 -32 25 -4 34 -55 11 -64 -9 -3
-41 4 -72 17 -57 24 -84 56 -84 100 0 18 4 20 26 15 15 -4 43 -20 63 -36z
m435 31 c9 -14 -4 -41 -19 -41 -18 0 -26 15 -19 34 7 17 29 21 38 7z m-528
-95 c3 -8 41 -36 84 -62 44 -27 80 -54 80 -61 0 -19 -18 -25 -39 -13 -26 13
-49 3 -53 -23 -2 -12 -7 -20 -13 -17 -5 3 -9 14 -7 26 2 15 -11 29 -48 53 -55
36 -55 35 -39 80 12 33 26 40 35 17z m-16 -156 c11 -11 20 -27 20 -34 0 -8 16
-27 36 -42 33 -26 35 -29 18 -41 -10 -7 -28 -13 -41 -13 -13 0 -29 -10 -39
-25 -22 -33 -37 -32 -51 6 -11 27 -15 30 -28 19 -21 -17 -19 -42 5 -73 28 -35
25 -59 -13 -104 -84 -99 -109 -110 -143 -58 -17 26 -15 31 27 85 15 19 40 60
56 90 56 106 53 102 105 96 34 -3 48 -1 52 9 5 15 -38 55 -60 55 -20 0 -27 19
-14 35 17 21 46 19 70 -5z m136 -54 c10 -8 17 -16 14 -19 -8 -8 -50 11 -50 23
0 14 13 13 36 -4z m81 -31 c14 -10 24 -12 28 -5 3 5 13 10 22 10 13 0 15 -9
10 -49 -3 -27 -13 -65 -21 -85 l-15 -36 -53 32 c-65 39 -63 37 -56 44 4 3 23
1 44 -5 68 -19 85 26 24 61 -30 17 -41 48 -17 48 7 0 22 -7 34 -15z m1337 -1
c3 -9 9 -40 12 -70 7 -59 -3 -72 -51 -60 -29 8 -34 26 -6 26 27 0 37 37 16 60
-14 15 -14 21 -3 39 15 25 24 26 32 5z m-1805 -75 c-19 -12 -24 -2 -8 17 9 11
14 13 17 4 3 -7 -2 -16 -9 -21z m345 -63 c54 -71 81 -83 118 -49 24 21 32 12
24 -29 -11 -57 -18 -62 -62 -47 -22 7 -44 17 -50 21 -7 5 -22 11 -35 13 -46 9
-71 64 -49 106 15 27 24 24 54 -15z m-64 -101 c22 -26 98 -74 133 -83 17 -4
33 -15 35 -23 4 -23 -16 -69 -30 -69 -19 1 -70 50 -97 93 -17 29 -28 36 -42
32 -24 -8 -59 3 -59 17 0 13 30 48 40 48 4 0 13 -7 20 -15z m-148 -132 c16
-14 18 -25 13 -59 -6 -45 2 -54 51 -54 14 0 24 -6 24 -14 0 -13 -7 -13 -71 -7
-4 1 -32 27 -63 59 -51 52 -66 79 -51 94 12 11 78 -1 97 -19z m1744 -8 c8 -21
-15 -75 -32 -75 -10 0 -12 9 -8 38 3 20 8 40 11 45 7 12 23 8 29 -8z m-91 -94
c-3 -12 -11 -21 -16 -21 -6 0 -8 3 -6 8 2 4 7 16 11 26 9 25 20 13 11 -13z
m-1541 -92 c14 -17 27 -38 27 -47 9 -107 4 -121 -38 -103 -17 7 -39 31 -55 60
-15 26 -34 54 -43 61 -25 21 -18 48 13 53 60 9 71 7 96 -24z m666 -75 c0 -9
-7 -14 -17 -12 -25 5 -28 28 -4 28 12 0 21 -6 21 -16z m65 -3 c3 -5 1 -13 -5
-16 -15 -9 -43 3 -35 15 8 13 32 13 40 1z m-205 -15 c0 -12 -73 -36 -110 -36
-22 0 -8 22 23 35 42 19 87 19 87 1z m278 2 c-3 -7 -11 -13 -18 -13 -7 0 -15
6 -17 13 -3 7 4 12 17 12 13 0 20 -5 18 -12z m143 0 c42 -12 75 -41 65 -57 -5
-7 -25 -3 -59 11 -29 11 -65 24 -81 27 -16 4 -31 12 -34 19 -5 16 57 16 109 0z
m-621 -46 c0 -7 -28 -20 -91 -40 -44 -15 -49 -15 -49 -2 0 6 19 19 43 30 43
19 97 26 97 12z m794 -34 c14 -24 3 -32 -36 -24 -44 8 -62 21 -55 39 7 19 76
8 91 -15z m-200 -33 c18 -14 41 -25 50 -25 10 0 33 -12 52 -27 31 -23 35 -31
30 -58 -5 -24 0 -39 20 -65 27 -37 63 -107 64 -126 0 -6 -14 -11 -30 -11 -48
0 -53 -13 -29 -69 12 -27 28 -53 36 -57 8 -5 11 -16 8 -28 -4 -11 0 -41 8 -67
9 -26 18 -69 21 -96 3 -27 10 -54 15 -60 8 -11 10 -26 36 -326 9 -96 18 -181
20 -189 3 -8 6 -65 6 -127 1 -97 4 -117 20 -138 12 -16 26 -23 35 -19 13 5 15
18 10 72 -3 36 -10 124 -15 194 -11 143 -18 211 -31 307 -5 36 -12 92 -15 125
-6 56 -27 183 -39 230 -2 11 -16 65 -30 120 -14 55 -26 104 -26 110 0 5 16
-13 36 -40 31 -44 39 -50 72 -50 l36 0 12 -72 c7 -40 15 -77 19 -83 3 -5 8
-26 10 -47 10 -83 17 -120 30 -163 17 -53 35 -193 35 -266 0 -28 9 -77 20
-109 11 -32 20 -67 20 -77 0 -24 26 -34 45 -18 28 23 28 21 40 -240 4 -80 11
-163 17 -185 6 -22 10 -65 9 -95 -1 -74 36 -200 59 -200 33 0 42 24 29 74 -6
26 -9 67 -6 91 4 25 2 47 -3 50 -6 3 -10 19 -10 35 0 16 -5 41 -10 55 -6 15
-13 73 -15 128 -3 56 -8 131 -10 167 -3 36 -1 71 4 79 17 26 39 3 49 -51 21
-103 29 -133 40 -155 7 -12 12 -41 12 -66 0 -51 15 -142 35 -212 7 -27 17 -74
20 -103 5 -37 13 -55 26 -63 10 -5 19 -18 19 -29 0 -25 10 -50 20 -50 10 0 50
63 50 79 0 6 -9 11 -20 11 -13 0 -20 7 -20 20 0 13 7 20 19 20 25 0 48 27 34
41 -7 7 -19 6 -37 -2 -14 -7 -28 -10 -31 -7 -21 20 -65 278 -48 278 11 0 40
-67 48 -113 4 -20 9 -37 12 -37 2 0 15 12 28 28 13 15 27 24 31 20 4 -4 9 -30
12 -58 5 -52 24 -65 30 -21 2 12 14 26 28 31 28 11 29 17 9 94 -9 33 -13 61
-11 63 12 12 26 -12 36 -62 8 -37 16 -55 26 -55 12 0 14 13 12 63 -2 50 0 62
12 62 9 0 16 -11 18 -25 6 -45 34 -110 48 -110 18 0 18 17 -3 90 -22 79 -8 98
36 49 17 -18 31 -41 31 -50 0 -25 11 -49 21 -49 5 0 18 9 29 20 24 24 34 25
54 5 19 -19 35 -19 42 0 4 8 13 15 20 15 8 0 25 6 37 14 24 16 87 14 130 -3
19 -7 34 -8 47 -1 29 15 53 12 103 -15 50 -26 71 -18 36 14 -16 15 -21 31 -21
66 1 42 -1 45 -18 40 -28 -9 -34 14 -15 58 13 30 20 37 44 37 15 0 40 -10 55
-21 25 -19 26 -23 11 -39 -14 -15 -13 -18 3 -33 46 -42 98 2 71 59 -16 32 -88
75 -134 79 -16 2 -34 3 -39 4 -5 1 -6 17 -3 36 7 46 -10 55 -37 20 -28 -35
-51 -26 -42 16 11 56 -28 43 -44 -15 -10 -36 -30 -30 -30 8 0 44 -14 46 -35 6
-17 -34 -45 -40 -45 -11 0 11 -5 23 -10 26 -19 11 -40 -16 -40 -51 0 -22 -6
-37 -19 -43 -25 -14 -31 -5 -31 50 0 52 -11 67 -30 44 -9 -10 -11 -34 -7 -71
6 -55 6 -56 -28 -69 -18 -8 -53 -16 -76 -17 -39 -3 -44 -1 -41 17 9 51 7 70
-8 70 -11 0 -15 -11 -16 -40 0 -38 -2 -40 -30 -37 -16 2 -44 10 -63 18 l-33
14 45 45 c38 39 49 45 71 39 14 -3 32 -2 39 4 27 22 129 72 147 72 10 0 26 8
35 17 16 16 16 18 -3 33 -11 9 -22 25 -24 36 -3 16 -11 19 -53 16 -57 -3 -110
-18 -128 -36 -14 -14 -101 -66 -110 -66 -15 0 -5 20 24 50 66 66 206 112 284
94 33 -8 41 -15 45 -38 7 -41 45 -65 110 -70 88 -7 143 -18 181 -37 19 -9 62
-27 95 -38 32 -11 69 -32 81 -45 16 -19 33 -26 66 -27 62 -4 96 -40 118 -128
22 -87 8 -117 -41 -91 -22 12 -38 -6 -21 -23 6 -6 11 -19 11 -29 0 -10 6 -17
12 -16 16 4 21 -32 9 -52 -9 -12 -14 -11 -40 8 -17 12 -34 22 -40 22 -18 0
-18 -25 -1 -50 9 -14 20 -40 23 -57 9 -47 -13 -43 -57 12 -32 39 -39 43 -52
31 -19 -20 -19 -21 21 -65 38 -41 38 -63 2 -82 -18 -10 -19 -9 -13 16 5 21 1
32 -25 56 -49 45 -63 51 -77 29 -10 -16 -6 -24 30 -58 28 -27 39 -45 35 -56
-10 -25 -23 -19 -46 18 -12 18 -29 36 -39 40 -9 3 -25 11 -35 18 -14 11 -19
10 -26 -1 -12 -19 -6 -33 28 -55 61 -41 59 -76 -5 -79 -37 -2 -39 -1 -39 28 0
33 -49 105 -71 105 -22 0 -17 -45 7 -66 12 -10 28 -32 36 -47 13 -26 13 -31
-3 -48 -20 -22 -40 -25 -47 -6 -4 9 -8 8 -17 -3 -8 -12 -9 -9 -5 11 6 22 -1
34 -36 68 -36 34 -45 39 -56 28 -19 -18 -9 -38 32 -66 35 -24 51 -53 40 -71
-11 -18 -35 -11 -44 13 -13 32 -78 100 -93 95 -23 -8 -19 -29 11 -57 16 -15
33 -39 36 -53 9 -37 -14 -47 -37 -17 -77 99 -102 117 -114 84 -4 -10 -14 -13
-29 -9 -38 9 -40 -24 -5 -73 33 -46 36 -76 8 -81 -12 -2 -22 8 -31 30 -8 18
-24 41 -35 51 -20 18 -21 18 -32 -3 -10 -18 -8 -26 10 -45 14 -15 20 -30 16
-40 -9 -25 -28 -13 -41 25 -6 19 -17 36 -23 38 -19 6 -26 -27 -12 -53 14 -26
7 -59 -12 -53 -6 2 -16 18 -22 36 -16 45 -42 70 -58 54 -10 -10 -8 -22 11 -57
13 -25 22 -48 19 -51 -3 -3 -18 -6 -33 -7 -23 -2 -29 3 -38 33 -18 53 -43 46
-40 -11 2 -43 0 -48 -28 -59 -35 -15 -46 -7 -51 35 -4 42 -32 40 -36 -2 -2
-18 1 -40 7 -51 12 -23 -1 -45 -25 -40 -12 2 -20 13 -22 28 -6 56 -13 71 -30
68 -14 -3 -17 -15 -17 -63 0 -53 -2 -60 -20 -60 -15 0 -19 6 -17 25 4 37 -7
70 -23 70 -8 0 -15 -8 -16 -17 0 -10 -2 -31 -2 -48 -1 -19 -7 -30 -17 -30 -12
0 -14 12 -12 58 3 37 0 57 -7 57 -16 0 -33 -50 -26 -77 7 -31 -24 -48 -54 -27
-19 14 -20 17 -6 37 22 31 19 71 -10 128 -20 39 -23 54 -15 69 23 42 -30 81
-60 45 -14 -17 -60 -12 -117 12 -37 15 -40 24 -17 58 13 20 14 28 4 39 -18 23
-40 7 -46 -35 -7 -39 -23 -49 -52 -30 -11 6 -11 17 -2 51 12 44 7 90 -10 90
-19 0 -32 -43 -25 -86 5 -39 4 -44 -13 -44 -18 0 -19 6 -14 95 4 82 3 95 -11
95 -9 0 -20 -8 -26 -17 -12 -22 -21 -13 -30 29 -10 46 -35 43 -39 -4 -3 -38
-4 -38 -47 -38 -24 0 -46 -4 -49 -9 -8 -13 -8 -51 0 -83 5 -24 3 -28 -15 -28
-11 0 -21 6 -21 14 0 8 -7 17 -16 20 -14 5 -16 17 -11 75 6 77 1 89 -51 118
-45 24 -71 67 -55 91 6 11 13 75 14 149 l4 130 -47 58 c-37 44 -46 61 -38 74
5 10 7 67 4 127 -3 60 -4 141 -3 179 5 150 0 461 -14 830 l-2 40 65 5 c40 3
75 12 90 23 31 22 69 16 114 -18z m-442 -306 c-2 -162 -3 -312 -4 -334 0 -22
1 -60 2 -85 2 -32 -5 -61 -24 -100 -14 -30 -26 -70 -26 -88 0 -18 -6 -61 -14
-95 -52 -227 -54 -250 -61 -488 -4 -165 -3 -178 15 -194 20 -19 50 -14 50 7 2
134 12 378 19 428 12 87 59 348 71 385 31 105 33 130 35 407 1 158 3 290 6
292 12 12 48 -8 51 -27 2 -12 2 -161 1 -332 -2 -170 -3 -368 -3 -438 1 -71 -4
-161 -10 -201 -10 -66 -9 -76 11 -121 18 -41 23 -70 24 -158 0 -83 4 -110 15
-117 20 -12 22 -108 4 -135 -20 -28 -17 -73 6 -102 29 -37 26 -53 -10 -53 -36
0 -37 -6 -8 -65 27 -55 48 -59 48 -10 0 19 4 35 9 35 15 0 32 -28 37 -58 6
-39 -30 -69 -94 -77 -53 -7 -94 -20 -134 -41 -16 -9 -38 -12 -53 -8 -39 10
-58 -11 -50 -59 10 -53 -9 -64 -52 -31 -21 16 -43 24 -60 22 -22 -2 -29 -12
-45 -58 -10 -30 -18 -68 -17 -85 2 -50 -1 -65 -10 -65 -11 0 -31 78 -31 119 0
16 -5 33 -11 37 -21 12 -30 -21 -23 -84 5 -58 4 -64 -13 -60 -20 4 -30 37 -32
106 0 23 -5 42 -11 42 -18 0 -31 -40 -28 -87 2 -30 -1 -47 -9 -50 -16 -6 -33
38 -33 83 0 58 -25 36 -28 -25 -5 -77 -26 -61 -32 25 -3 38 -9 75 -13 82 -18
27 -29 -3 -25 -72 2 -57 0 -71 -12 -71 -18 0 -30 57 -23 113 3 23 2 42 -2 42
-18 0 -34 -38 -35 -82 0 -40 -3 -48 -19 -48 -24 0 -34 38 -25 97 6 40 5 45
-12 41 -16 -3 -20 -14 -22 -66 -2 -44 -7 -62 -15 -59 -8 2 -12 32 -13 88 -2
107 -1 104 -19 89 -10 -8 -15 -37 -17 -98 -3 -97 -17 -114 -53 -64 -16 21 -20
42 -19 95 1 63 -6 81 -22 56 -4 -7 -7 -46 -8 -88 -1 -59 -5 -75 -16 -73 -27 6
-39 37 -40 100 0 99 -26 77 -32 -28 -4 -61 -32 -68 -55 -13 -13 31 -14 47 -5
88 6 30 6 54 1 59 -18 19 -29 -11 -34 -89 -3 -43 -7 -80 -9 -82 -2 -3 -14 0
-25 7 -26 13 -28 58 -5 106 18 39 12 67 -13 62 -14 -3 -20 -18 -26 -73 -8 -71
-18 -87 -52 -83 -27 4 -25 57 3 93 12 15 18 33 15 41 -12 31 -32 11 -53 -51
-19 -56 -25 -65 -46 -65 -30 0 -30 14 -4 76 20 46 20 74 1 74 -15 0 -41 -60
-41 -97 0 -30 -3 -33 -30 -33 -25 0 -30 4 -30 24 0 14 11 38 25 54 29 35 32
55 8 50 -10 -2 -30 -28 -46 -61 -25 -51 -47 -74 -47 -47 0 6 -6 10 -14 10 -26
0 -27 18 -3 47 35 41 47 67 37 82 -6 10 -16 2 -36 -30 -16 -24 -29 -45 -29
-46 -1 -2 -25 8 -53 22 -58 28 -64 45 -27 79 14 13 25 31 25 40 0 30 -28 16
-52 -26 -27 -48 -40 -55 -62 -32 -19 19 -14 46 15 75 23 23 25 39 5 39 -8 0
-25 -19 -38 -42 -27 -48 -40 -55 -62 -33 -15 15 -15 19 4 45 11 15 20 33 20
38 0 5 7 12 15 16 18 6 21 40 3 34 -7 -3 -22 -22 -33 -43 -11 -21 -25 -40 -31
-42 -20 -6 -78 87 -89 142 -10 51 -10 54 9 57 27 4 33 28 7 28 -24 0 -24 -1
-11 36 6 16 24 38 40 49 17 11 33 28 35 37 3 9 24 35 45 57 35 36 46 41 84 41
31 0 46 -5 50 -16 9 -24 19 -10 25 38 4 27 14 46 28 55 21 14 23 13 39 -26 22
-57 38 -52 32 9 -3 32 -1 54 7 60 16 13 29 -3 45 -57 19 -61 34 -42 26 32 -5
49 -3 65 9 75 20 16 40 0 48 -38 3 -15 13 -36 22 -47 17 -21 17 -16 3 95 -2
21 2 26 25 28 24 3 27 0 27 -27 0 -21 5 -31 15 -31 12 0 15 9 13 38 -3 31 0
37 16 37 14 0 22 -10 28 -31 4 -17 15 -37 23 -44 22 -19 30 13 16 62 -7 22
-11 41 -9 42 2 1 39 15 83 32 44 16 78 32 75 35 -8 9 21 39 37 39 8 0 11 -5 7
-11 -4 -8 0 -8 15 0 11 7 27 24 35 40 20 37 64 67 79 52 8 -8 8 -14 -1 -23
-31 -31 0 -64 45 -47 32 12 38 44 14 83 -12 18 -21 38 -21 43 0 10 98 38 106
30 3 -3 7 -36 8 -74 2 -55 -2 -77 -21 -115 -26 -52 -40 -60 -45 -25 -4 28 -34
30 -31 2 1 -11 5 -40 8 -65 4 -25 2 -56 -3 -70 -8 -22 -11 -15 -23 53 -7 42
-16 77 -20 77 -15 0 -17 -31 -7 -98 12 -77 4 -127 -14 -82 -5 14 -16 56 -23
93 -13 68 -34 99 -65 94 -17 -3 -28 -49 -32 -134 -2 -35 -5 -63 -8 -63 -22 1
-50 47 -50 84 0 34 -29 34 -61 0 -22 -23 -24 -33 -24 -130 l-1 -104 -37 -25
c-42 -29 -58 -55 -66 -105 l-6 -35 -110 -6 c-61 -3 -115 -4 -122 -2 -6 3 -11
17 -10 31 2 23 -2 27 -23 24 -14 -1 -32 -9 -40 -17 -13 -13 -12 -19 4 -50 22
-40 36 -46 106 -47 27 0 50 -3 50 -7 0 -4 -18 -14 -41 -21 -48 -16 -55 -25
-38 -47 11 -12 27 -14 79 -10 76 7 188 36 245 63 36 18 40 23 37 53 -3 40 12
61 44 61 20 0 24 5 24 29 0 40 9 61 27 61 11 0 13 -7 7 -32 -11 -49 -10 -60 3
-65 11 -4 15 4 27 60 10 42 32 28 28 -18 -3 -28 0 -36 10 -33 7 3 14 14 16 26
5 32 27 46 43 26 12 -14 10 -19 -14 -38 -33 -27 -34 -46 -3 -75 22 -21 24 -29
19 -72 -6 -51 4 -63 25 -29 19 32 42 14 42 -34 0 -30 3 -37 10 -26 5 8 10 43
10 78 0 34 4 62 8 62 5 0 19 -9 31 -19 19 -17 22 -30 23 -110 1 -60 5 -90 12
-88 11 4 26 100 26 175 1 40 2 42 32 42 l30 0 -6 -47 c-4 -27 -14 -63 -23 -82
-9 -20 -12 -44 -8 -60 3 -14 8 -37 9 -51 2 -14 4 -27 5 -30 1 -3 8 9 17 25 9
17 18 62 21 102 4 55 9 70 19 66 8 -3 14 -18 14 -33 0 -43 36 -82 74 -78 35 3
33 -15 21 193 -5 75 -3 158 4 220 6 55 13 141 16 190 8 134 24 269 46 370 11
50 29 135 40 190 12 55 25 107 29 115 12 23 24 91 22 130 -3 51 6 80 24 80 28
0 28 31 -1 54 -34 27 -29 53 12 58 41 4 43 36 4 51 -42 15 -41 44 2 55 35 9
37 20 25 94 -6 32 -3 40 13 49 12 6 23 8 27 5 3 -3 7 -42 10 -86 4 -69 2 -80
-12 -80 -9 0 -16 -8 -16 -19 0 -29 11 -52 22 -45 5 3 3 -9 -5 -28 -7 -18 -14
-55 -16 -83 -5 -89 -19 -178 -41 -260 -12 -44 -28 -118 -35 -165 -13 -87 -18
-109 -55 -240 -50 -182 -63 -348 -51 -675 5 -135 12 -165 39 -165 10 0 27 -9
37 -20 22 -24 51 -26 59 -4 10 26 -3 53 -28 60 -20 5 -24 14 -30 62 -4 31 -9
66 -12 79 -5 18 -1 23 20 29 46 11 50 26 58 213 3 97 14 241 23 321 9 80 17
168 18 195 2 28 11 93 20 145 34 193 46 288 57 430 9 122 9 169 -1 238 -1 4
-1 38 0 75 1 67 2 68 34 82 26 11 35 11 52 1 19 -13 20 -23 17 -307z m788 256
c23 -19 46 -35 50 -35 5 0 21 -25 35 -55 15 -30 33 -59 40 -65 16 -13 39 -115
31 -135 -10 -27 -34 -4 -55 56 -22 60 -49 87 -68 68 -15 -15 -77 46 -69 67 4
11 -7 29 -35 54 -45 41 -47 65 -7 73 13 2 26 5 30 6 3 0 25 -15 48 -34z
m-1015 -95 c3 -5 1 -10 -4 -10 -6 0 -11 5 -11 10 0 6 2 10 4 10 3 0 8 -4 11
-10z m945 -59 c6 -22 26 -59 46 -82 58 -69 20 -88 -46 -23 -32 31 -35 40 -35
89 0 66 19 74 35 16z m305 -57 c18 -28 13 -75 -11 -95 -20 -16 -25 -8 -31 45
-9 75 10 98 42 50z m-1345 -200 c0 -14 -4 -24 -10 -22 -5 2 -10 6 -10 11 0 4
0 14 0 22 0 8 5 15 10 15 6 0 10 -12 10 -26z m-17 -119 c-5 -13 -23 -22 -23
-11 0 15 14 35 21 31 4 -3 6 -12 2 -20z m1252 -56 c11 -17 -1 -21 -15 -4 -8 9
-8 15 -2 15 6 0 14 -5 17 -11z m-1280 -68 c-7 -32 -25 -43 -25 -15 0 19 20 57
27 51 3 -3 2 -19 -2 -36z m-48 -169 c-9 -16 -15 -42 -14 -58 1 -20 -3 -29 -13
-29 -11 0 -15 14 -17 58 -1 51 1 59 20 67 33 12 44 -5 24 -38z m1388 30 c0
-20 -19 -18 -23 2 -3 12 1 17 10 14 7 -3 13 -10 13 -16z m131 -17 c8 -21 -6
-41 -17 -24 -12 19 -11 39 1 39 6 0 13 -7 16 -15z m204 -48 c26 -2 36 -7 38
-22 5 -24 31 -55 46 -55 19 0 146 -43 146 -49 0 -4 -16 -21 -35 -40 -19 -18
-35 -37 -35 -41 0 -5 -9 -14 -21 -21 -20 -10 -21 -9 -14 30 6 38 5 41 -22 53
-15 7 -42 23 -59 35 -17 13 -34 23 -38 23 -4 0 -19 14 -33 30 -18 22 -33 30
-58 30 -35 0 -51 12 -39 31 4 7 21 9 48 4 22 -3 57 -7 76 -8z m-316 -47 c-6
-6 -15 -6 -24 0 -13 9 -13 11 0 20 18 11 39 -5 24 -20z m-1588 -87 c-11 -11
-17 4 -9 23 7 18 8 18 11 1 2 -10 1 -21 -2 -24z m349 -110 c-9 -76 -23 -178
-31 -227 -7 -49 -14 -127 -14 -173 0 -49 -4 -83 -10 -83 -23 0 -13 274 15 446
9 52 36 167 42 177 14 23 13 -14 -2 -140z m1423 131 c27 -18 26 -57 0 -62 -18
-4 -53 52 -43 68 8 14 17 13 43 -6z m-178 -20 c0 -8 -7 -14 -15 -14 -15 0 -21
21 -9 33 10 9 24 -2 24 -19z m256 -95 c-12 -27 -15 -29 -16 -12 0 30 22 83 27
62 2 -8 -3 -31 -11 -50z m98 -1 c-4 -24 -12 -52 -18 -63 -10 -18 -11 -16 -14
16 -3 39 12 89 28 89 6 0 8 -16 4 -42z m781 11 c44 -21 63 -45 28 -35 -10 2
-34 8 -53 11 -45 9 -50 13 -43 30 7 20 15 19 68 -6z m-3415 -99 c0 -5 -4 -10
-10 -10 -5 0 -10 5 -10 10 0 6 5 10 10 10 6 0 10 -4 10 -10z m630 -50 c0 -36
-4 -52 -15 -57 -9 -3 -18 -3 -22 0 -7 8 19 107 29 107 4 0 8 -23 8 -50z m1900
37 c0 -7 9 -23 21 -36 17 -18 24 -20 35 -10 19 15 30 4 38 -39 6 -36 4 -38
-58 -46 -64 -7 -82 5 -89 61 -4 35 -1 53 10 66 19 20 43 23 43 4z m216 -32 c4
-8 -1 -26 -9 -38 -8 -13 -17 -34 -19 -48 -2 -14 -11 -25 -22 -27 -15 -3 -18 0
-13 19 4 13 7 43 7 67 0 38 2 42 25 42 14 0 28 -7 31 -15z m-2343 -30 c-7 -21
-13 -19 -13 6 0 11 4 18 10 14 5 -3 7 -12 3 -20z m287 -108 c-4 -21 -11 -41
-14 -44 -9 -9 -66 18 -66 32 0 15 72 65 82 56 4 -3 3 -23 -2 -44z m2650 30
c50 -16 54 -21 39 -61 -10 -28 -18 -36 -34 -34 -15 2 -21 12 -23 41 -4 43 -8
45 -39 15 -19 -18 -23 -19 -23 -5 0 27 -20 30 -42 8 -11 -12 -25 -20 -31 -18
-40 13 29 68 83 66 19 -1 51 -6 70 -12z m-3030 -68 c0 -20 -15 -26 -25 -9 -9
15 3 43 15 35 5 -3 10 -15 10 -26z m2287 -35 c8 -21 -13 -42 -28 -27 -13 13
-5 43 11 43 6 0 13 -7 17 -16z m483 -47 c70 -9 95 -17 95 -27 0 -33 -153 -36
-202 -4 -27 17 -30 44 -5 43 9 0 60 -6 112 -12z m-436 -26 c3 -4 3 -11 0 -14
-8 -8 -34 3 -34 14 0 11 27 12 34 0z m54 -29 c3 -9 -2 -13 -14 -10 -9 1 -19 9
-22 16 -3 9 2 13 14 10 9 -1 19 -9 22 -16z m-2141 -20 c9 -5 1 -12 -23 -21
-39 -14 -50 -10 -41 14 7 16 44 20 64 7z m128 -41 c-6 -5 -36 -11 -67 -13 -45
-4 -58 -1 -58 9 0 14 2 15 65 30 30 7 44 6 55 -4 9 -8 11 -16 5 -22z m-157
-99 c2 -7 -6 -12 -17 -12 -21 0 -27 11 -14 24 9 9 26 2 31 -12z m1020 -1 c23
-20 31 -74 12 -86 -13 -8 -63 73 -56 91 7 18 16 17 44 -5z m272 -139 c0 -29 3
-33 23 -30 16 2 22 -2 22 -17 0 -16 -6 -19 -30 -17 -16 2 -35 8 -42 14 -14 11
-18 84 -6 113 5 15 8 14 19 -6 7 -13 13 -39 14 -57z m-72 -18 c-5 -28 -28 -29
-28 -1 0 13 3 27 7 31 10 10 25 -10 21 -30z m-108 -48 c0 -3 -4 -8 -10 -11 -5
-3 -10 -1 -10 4 0 6 5 11 10 11 6 0 10 -2 10 -4z m103 -32 c11 -11 -5 -34 -24
-34 -12 0 -19 7 -19 20 0 19 28 28 43 14z m1360 -82 c-25 -18 -47 -11 -51 17
-5 35 18 44 46 18 22 -20 22 -22 5 -35z m-2005 -174 c-3 -36 -30 -46 -36 -15
-5 26 5 47 23 47 12 0 15 -8 13 -32z m222 -797 c0 -12 -20 -25 -27 -18 -7 7 6
27 18 27 5 0 9 -4 9 -9z m57 -163 c17 -36 34 -133 27 -151 -17 -46 -41 1 -58
117 -7 53 12 74 31 34z m341 -739 c4 -31 -32 -79 -59 -79 -17 0 -20 6 -17 33
2 27 7 31 26 29 18 -3 22 2 22 23 0 34 24 28 28 -6z m-343 -151 c-3 -13 -10
-37 -15 -55 -4 -18 -17 -47 -28 -65 -11 -18 -35 -61 -52 -95 -18 -35 -37 -63
-42 -63 -15 0 4 104 23 129 11 13 19 32 19 41 0 10 7 21 16 24 8 3 24 28 36
56 12 28 27 50 35 50 11 0 13 -6 8 -22z m730 -67 c3 -5 -7 -22 -21 -36 -25
-25 -26 -31 -21 -91 7 -71 -3 -82 -29 -33 -16 32 -15 48 7 109 6 19 13 41 15
48 4 14 40 16 49 3z m-87 -19 c2 -7 -3 -12 -12 -12 -9 0 -16 7 -16 16 0 17 22
14 28 -4z m-808 -22 c0 -5 -9 -10 -21 -10 -11 0 -17 5 -14 10 3 6 13 10 21 10
8 0 14 -4 14 -10z m14 -524 c-6 -26 -34 -37 -34 -14 0 13 31 50 37 44 2 -2 1
-15 -3 -30z m225 -353 c35 -52 42 -124 17 -158 -14 -19 -15 -19 -39 5 -22 22
-25 35 -27 105 -1 44 -2 83 -1 88 3 18 22 3 50 -40z m461 17 c-6 -11 -10 -86
-9 -186 1 -154 -6 -202 -27 -181 -13 12 -1 356 13 380 2 4 11 7 19 7 12 0 12
-4 4 -20z m-168 -272 c12 -105 33 -135 69 -102 16 14 18 14 29 -5 7 -15 8 -27
0 -40 -9 -18 -21 -20 -105 -20 -56 0 -95 5 -95 10 0 6 5 20 12 32 7 12 15 44
18 72 4 42 9 50 30 56 37 10 40 10 42 -3z m-152 -77 c0 -10 -7 -22 -15 -25
-20 -7 -32 23 -14 35 21 13 29 11 29 -10z m-3005 -1081 c3 -5 -1 -10 -9 -10
-9 0 -16 5 -16 10 0 6 4 10 9 10 6 0 13 -4 16 -10z"/>
<path d="M7347 13142 c-23 -5 -18 -36 6 -40 19 -4 35 25 21 37 -5 4 -17 6 -27
3z"/>
<path d="M1576 13022 c-3 -5 -8 -40 -12 -78 -7 -87 15 -137 64 -142 39 -4 48
21 27 72 -10 23 -15 59 -13 94 l3 57 -32 3 c-17 2 -34 -1 -37 -6z"/>
<path d="M867 12743 c-4 -3 -7 -19 -7 -35 0 -30 -23 -39 -34 -13 -7 19 -26 19
-73 -1 -104 -45 -112 -54 -113 -108 0 -11 -9 -30 -21 -42 -26 -28 -17 -46 19
-38 39 10 51 22 62 65 6 21 17 45 25 53 18 18 52 10 60 -15 8 -24 50 -25 63
-3 8 14 13 14 32 4 20 -11 25 -10 37 6 17 23 8 85 -13 97 -8 4 -14 15 -14 22
0 16 -12 20 -23 8z"/>
<path d="M725 12559 c-10 -15 25 -49 50 -49 32 0 39 26 12 45 -25 17 -53 20
-62 4z"/>
<path d="M4260 12989 c0 -5 5 -7 10 -4 6 3 10 8 10 11 0 2 -4 4 -10 4 -5 0
-10 -5 -10 -11z"/>
<path d="M5052 4520 c-18 -4 -41 -15 -52 -25 -10 -9 -32 -24 -49 -33 -56 -31
-141 -97 -141 -110 0 -22 29 -25 58 -6 26 18 61 37 172 95 31 16 71 29 92 29
36 0 58 19 58 49 0 13 -88 13 -138 1z"/>
<path d="M5130 4438 c-25 -11 -52 -24 -60 -28 -8 -4 -14 -18 -12 -31 2 -20 -6
-28 -45 -47 -38 -17 -131 -42 -160 -42 -2 0 -3 -12 -1 -27 2 -22 9 -29 31 -31
34 -4 114 21 187 59 30 16 61 29 68 29 7 0 15 13 18 30 6 26 31 59 41 53 23
-18 51 20 32 43 -16 19 -46 17 -99 -8z"/>
<path d="M5207 4320 c-18 -14 -27 -31 -27 -49 0 -24 -7 -30 -52 -48 -29 -12
-77 -27 -106 -33 -73 -17 -99 -48 -73 -89 7 -11 16 -10 53 8 24 11 50 21 56
21 7 0 40 9 74 21 67 22 108 57 108 90 0 11 7 27 16 36 19 19 15 57 -7 61 -8
1 -27 -7 -42 -18z"/>
<path d="M4052 4180 c-45 -28 -38 -50 21 -67 43 -12 55 -12 105 3 31 10 59 18
62 18 39 7 30 41 -13 51 -83 18 -141 16 -175 -5z"/>
<path d="M5330 4186 c0 -9 5 -16 10 -16 6 0 10 4 10 9 0 6 -4 13 -10 16 -5 3
-10 -1 -10 -9z"/>
<path d="M5182 4105 c-73 -11 -129 -28 -182 -55 -21 -10 -25 -39 -5 -46 8 -4
46 3 83 15 37 12 105 27 152 34 82 12 85 13 88 40 4 32 -4 33 -136 12z"/>
<path d="M4084 4018 c3 -13 6 -29 6 -35 0 -9 13 -11 48 -6 49 6 62 16 62 46 0
14 -10 17 -61 17 -59 0 -61 -1 -55 -22z"/>
<path d="M5265 3954 c-22 -8 -65 -19 -95 -23 -61 -10 -157 -35 -166 -44 -3 -3
-3 -15 1 -27 6 -20 12 -21 44 -15 20 4 66 12 102 19 36 6 73 17 82 25 10 7 44
14 79 15 35 1 69 5 76 9 20 13 14 37 -14 47 -34 13 -61 12 -109 -6z"/>
<path d="M4084 3929 c-3 -6 -3 -37 0 -69 6 -53 5 -60 -16 -74 -34 -24 -50 -21
-42 9 6 24 4 25 -36 25 -23 0 -50 -5 -61 -10 -20 -11 -26 -45 -9 -55 16 -10
12 -28 -5 -21 -29 11 -15 -14 18 -31 20 -10 55 -17 94 -17 52 -1 66 3 85 22
21 21 23 31 21 113 -2 84 -12 119 -34 119 -4 0 -11 -5 -15 -11z m-24 -199 c0
-5 -4 -10 -10 -10 -5 0 -10 5 -10 10 0 6 5 10 10 10 6 0 10 -4 10 -10z"/>
<path d="M4312 3844 c-24 -16 -21 -37 3 -27 9 3 15 -1 15 -11 0 -10 -9 -16
-25 -16 -34 0 -32 -16 4 -35 22 -11 37 -12 56 -5 30 11 85 51 85 61 0 13 -67
49 -91 49 -14 0 -35 -7 -47 -16z m98 -30 c0 -11 -5 -14 -17 -9 -10 4 -24 8
-30 8 -28 1 -11 17 17 17 21 0 30 -5 30 -16z"/>
<path d="M5156 3778 c-10 -6 -41 -7 -70 -4 -64 8 -86 1 -86 -29 0 -32 23 -37
105 -26 38 6 119 7 180 4 100 -5 112 -4 118 11 4 10 5 22 2 26 -10 16 -225 32
-249 18z"/>
<path d="M4405 3749 c-36 -15 -64 -19 -102 -15 -61 5 -69 -8 -18 -30 28 -11
44 -12 80 -3 25 6 45 15 45 19 0 5 14 13 30 19 17 5 30 15 30 20 0 15 -6 13
-65 -10z"/>
<path d="M4497 3734 c-10 -10 -9 -52 2 -58 12 -8 24 45 13 56 -4 4 -11 5 -15
2z"/>
<path d="M4990 3658 c0 -14 6 -30 13 -35 6 -5 64 -19 127 -31 188 -36 195 -37
235 -12 51 31 47 53 -7 45 -46 -7 -159 8 -205 26 -16 7 -37 13 -48 15 -123 18
-115 19 -115 -8z"/>
<path d="M4429 3602 c-6 -18 -15 -29 -20 -26 -5 3 -6 -2 -3 -10 3 -9 9 -16 13
-16 10 0 34 70 27 77 -3 4 -11 -8 -17 -25z"/>
<path d="M4976 3561 c-10 -16 6 -41 35 -57 16 -8 42 -28 59 -44 17 -17 39 -30
49 -30 10 0 48 -16 85 -35 72 -37 111 -43 141 -22 23 18 13 34 -27 42 -34 8
-172 76 -197 99 -46 40 -132 68 -145 47z"/>
<path d="M4340 3540 c0 -5 5 -10 10 -10 6 0 10 5 10 10 0 6 -4 10 -10 10 -5 0
-10 -4 -10 -10z"/>
<path d="M4277 3523 c-10 -10 -8 -63 2 -63 11 0 21 25 21 51 0 19 -11 25 -23
12z"/>
<path d="M4553 3454 c-28 -30 -28 -36 -2 -60 17 -16 22 -16 29 -4 6 8 10 25
11 38 1 12 2 27 3 34 2 20 -18 16 -41 -8z"/>
<path d="M4964 3416 c-13 -35 3 -52 93 -97 60 -30 109 -48 142 -51 65 -6 68
13 6 36 -25 10 -45 21 -45 25 0 9 -164 101 -180 101 -6 0 -13 -6 -16 -14z"/>
<path d="M4351 3389 c-11 -32 3 -109 20 -109 7 0 17 112 11 130 -7 19 -20 10
-31 -21z"/>
<path d="M4498 3373 c-14 -23 -17 -65 -6 -87 13 -30 28 -34 29 -8 4 62 -10
119 -23 95z"/>
<path d="M4246 3338 c-3 -7 -6 -40 -8 -73 -3 -38 -14 -82 -32 -120 -23 -51
-26 -68 -21 -112 3 -28 13 -57 21 -64 8 -6 16 -10 17 -8 9 14 29 98 27 119 -3
47 -2 65 4 100 15 78 18 157 7 164 -6 4 -13 1 -15 -6z"/>
<path d="M4902 3328 c-24 -24 -12 -47 45 -82 32 -20 61 -36 66 -36 5 0 32 -18
59 -40 28 -22 56 -40 63 -40 7 0 31 -13 53 -30 44 -31 66 -37 77 -19 9 13 -21
46 -49 55 -11 4 -57 37 -101 73 -132 110 -190 142 -213 119z"/>
<path d="M4498 3183 c-27 -29 -48 -61 -48 -71 0 -10 -5 -23 -11 -29 -8 -8 -5
-22 9 -49 l20 -39 11 28 c6 16 11 40 11 55 0 15 16 54 36 86 19 32 31 62 27
66 -4 4 -29 -17 -55 -47z"/>
<path d="M4837 3223 c-24 -23 21 -82 121 -158 35 -26 66 -53 69 -61 5 -13 57
-44 75 -44 15 0 8 19 -17 44 -14 14 -25 34 -25 46 0 11 -5 20 -11 20 -6 0 -48
36 -93 80 -76 74 -102 90 -119 73z"/>
<path d="M4302 3208 c-14 -14 -17 -148 -3 -148 14 0 32 101 23 133 -6 22 -10
25 -20 15z"/>
<path d="M4751 3158 c-11 -28 -8 -34 54 -100 28 -29 81 -88 118 -131 41 -45
77 -77 88 -77 29 0 23 18 -23 71 -67 75 -102 122 -118 152 -18 36 -84 107 -99
107 -6 0 -15 -10 -20 -22z"/>
<path d="M4682 3098 c-25 -25 -13 -66 33 -120 58 -68 58 -67 89 -116 31 -50
108 -132 123 -132 26 0 21 33 -10 68 -50 56 -86 105 -115 160 -39 71 -93 152
-101 152 -4 0 -12 -5 -19 -12z"/>
<path d="M4596 3004 c-5 -17 0 -36 13 -57 11 -18 34 -55 50 -83 32 -54 58 -81
67 -71 12 11 -49 167 -78 201 -36 43 -44 44 -52 10z"/>
<path d="M4205 2858 c-25 -92 -28 -118 -17 -118 5 0 13 15 16 33 10 52 19 61
45 45 18 -11 23 -11 31 2 14 21 12 27 -8 47 -11 10 -22 26 -25 36 -12 32 -24
18 -42 -45z"/>
<path d="M6863 2827 c-13 -5 -23 -14 -23 -19 0 -15 40 -9 47 7 8 22 2 24 -24
12z"/>
<path d="M7331 2371 c-40 -40 -21 -95 37 -110 65 -16 141 -22 159 -12 10 5 26
12 36 15 9 3 20 12 23 21 9 23 -15 73 -40 82 -43 14 -53 16 -123 20 -62 4 -74
2 -92 -16z m176 -55 c8 -7 -12 -13 -64 -19 -45 -5 -56 5 -25 22 17 11 78 9 89
-3z m40 -18 c-3 -8 -6 -5 -6 6 -1 11 2 17 5 13 3 -3 4 -12 1 -19z"/>
<path d="M7078 2205 c-2 -3 -32 -5 -67 -6 -75 -2 -115 -25 -91 -54 17 -21 60
-43 119 -61 55 -17 64 -17 56 -4 -10 17 7 11 20 -6 10 -14 20 -15 66 -7 59 9
115 4 113 -12 -1 -12 -47 -21 -178 -35 -105 -10 -146 -27 -146 -61 0 -47 205
-87 273 -52 39 20 70 2 61 -35 -11 -46 -22 -52 -88 -51 -104 3 -185 -2 -219
-13 -18 -5 -52 -12 -76 -14 -76 -8 -89 -34 -44 -84 34 -39 58 -39 69 1 13 45
62 59 214 62 l124 2 9 -55 c16 -97 15 -99 -48 -124 -25 -10 24 -35 75 -38 l55
-3 -2 45 c-1 25 -7 64 -14 87 -6 23 -8 54 -5 69 8 29 1 28 136 9 14 -2 61 -7
105 -10 44 -4 82 -8 86 -10 16 -11 77 17 87 40 6 14 18 25 27 25 8 0 15 6 15
13 0 21 -54 67 -78 67 -12 0 -22 4 -22 8 0 13 -53 39 -95 47 -22 4 -81 8 -132
10 -103 4 -120 9 -101 32 10 12 24 14 68 8 30 -4 84 -9 120 -11 36 -2 80 -5
99 -8 44 -7 77 10 60 30 -14 17 -169 21 -169 3 0 -6 -12 -9 -27 -7 -20 2 -27
8 -25 21 2 13 -4 17 -28 17 -16 0 -30 4 -30 9 0 9 80 15 163 14 34 -1 47 2 47
12 0 15 -34 21 -175 30 -93 7 -118 16 -98 36 9 9 37 9 105 2 94 -10 128 -4
128 21 0 33 -27 37 -283 41 -140 2 -257 2 -259 0z m209 -67 c11 -12 13 -18 5
-19 -21 -2 -27 -4 -40 -13 -7 -4 -18 -3 -25 3 -7 5 -35 12 -62 15 -64 7 -95
16 -95 28 0 6 39 9 100 6 78 -2 103 -7 117 -20z m103 -58 c0 -5 -4 -10 -10
-10 -5 0 -10 5 -10 10 0 6 5 10 10 10 6 0 10 -4 10 -10z m-135 -90 c3 -5 15
-10 26 -10 10 0 19 -7 19 -15 0 -13 -15 -15 -92 -13 -107 3 -126 20 -41 35 81
14 81 14 88 3z m330 -81 c4 -5 16 -9 28 -9 12 0 45 -13 72 -28 39 -21 50 -32
50 -52 0 -19 -6 -26 -25 -28 -14 -2 -31 -9 -37 -14 -9 -7 -13 -7 -13 0 0 12
-91 29 -207 38 l-83 7 0 33 c0 19 1 34 3 34 1 0 18 6 37 13 43 15 167 19 175
6z"/>
<path d="M4483 1893 c-7 -17 -8 -156 -1 -298 3 -68 5 -72 37 -66 18 2 33 71
26 119 -4 26 -8 94 -9 152 -1 101 -2 105 -24 108 -14 2 -25 -3 -29 -15z"/>
<path d="M7526 1681 c-20 -22 -12 -48 17 -57 14 -4 25 -1 34 12 17 23 16 29
-3 48 -20 21 -27 20 -48 -3z"/>
<path d="M2985 1300 c-3 -5 -1 -10 4 -10 6 0 11 5 11 10 0 6 -2 10 -4 10 -3 0
-8 -4 -11 -10z"/>
<path d="M673 1263 c-29 -11 -1 -133 30 -133 19 0 29 18 31 53 1 19 8 22 45
25 24 2 49 -2 55 -8 11 -11 11 -102 1 -320 -4 -87 -9 -116 -20 -123 -50 -27
46 -65 133 -52 63 9 67 13 42 41 -20 20 -23 37 -28 146 -3 68 -6 164 -6 213
l-1 90 31 3 c49 5 84 -13 91 -49 3 -17 12 -33 20 -36 20 -8 42 15 42 45 0 15
3 42 7 60 l6 32 -56 2 c-31 1 -68 3 -83 4 -63 6 -329 11 -340 7z"/>
<path d="M1227 1238 c-2 -7 0 -23 4 -36 12 -33 2 -453 -11 -466 -22 -22 -9
-34 48 -38 31 -3 63 -3 70 0 10 3 11 34 6 142 -8 159 -18 146 116 145 l85 0 6
-120 c5 -99 4 -123 -8 -137 -28 -32 -10 -48 49 -42 78 8 81 10 67 36 -8 15
-13 100 -15 265 -1 133 -5 246 -9 252 -3 6 -33 11 -66 11 -50 0 -59 -3 -59
-18 0 -9 9 -23 20 -30 17 -10 20 -23 20 -86 l0 -73 -100 -1 c-71 -1 -102 2
-105 11 -3 6 -1 46 4 87 4 41 5 82 0 91 -10 20 -115 26 -122 7z m60 -310 c-3
-8 -6 -5 -6 6 -1 11 2 17 5 13 3 -3 4 -12 1 -19z m-23 -84 c-5 -21 -3 -25 12
-22 13 2 20 -4 22 -19 3 -17 -2 -23 -16 -23 -25 0 -44 48 -30 73 13 25 19 21
12 -9z"/>
<path d="M1695 1237 c-4 -9 5 -26 21 -42 l27 -27 -8 -223 c-9 -275 -22 -256
167 -249 72 3 141 9 154 14 24 9 54 66 54 102 0 15 -6 19 -27 16 -20 -2 -32
-12 -43 -36 -17 -38 -39 -45 -129 -46 l-64 -1 -4 97 c-3 91 -2 97 18 103 15 5
28 0 48 -19 15 -14 32 -26 39 -26 23 0 36 120 15 141 -19 19 -53 0 -60 -32 -6
-29 -25 -37 -51 -21 -15 10 -5 187 12 201 6 4 34 11 62 14 63 7 90 -8 81 -44
-8 -33 5 -53 32 -44 34 10 45 84 17 113 -8 8 -65 14 -184 18 -148 6 -172 4
-177 -9z m122 -449 c-3 -8 -6 -5 -6 6 -1 11 2 17 5 13 3 -3 4 -12 1 -19z"/>
<path d="M3352 1240 c-50 -12 -62 -27 -36 -48 20 -15 21 -23 14 -72 -7 -50 -7
-92 3 -303 l3 -67 -35 6 c-20 4 -38 9 -41 11 -3 2 -17 52 -32 111 -16 59 -30
114 -32 122 -3 8 -13 51 -24 95 -34 135 -34 136 -89 134 -27 -1 -68 1 -93 5
-61 9 -78 -3 -63 -45 7 -18 10 -35 8 -39 -5 -8 -10 -35 -25 -135 -13 -83 -29
-182 -35 -210 -17 -85 -17 -105 0 -111 9 -4 38 -3 64 2 36 7 47 14 49 31 2 14
-3 23 -17 28 -17 5 -20 14 -19 66 1 86 11 94 100 91 93 -4 104 -15 113 -117 7
-70 10 -77 36 -90 15 -8 45 -15 67 -15 21 0 43 -5 49 -11 16 -16 199 8 219 29
25 24 10 37 -52 42 l-59 5 -5 75 c-3 42 -3 116 0 164 6 105 2 107 95 -51 95
-162 118 -190 182 -220 88 -42 88 -42 89 193 1 228 6 261 40 274 58 22 4 52
-82 46 -30 -2 -58 -7 -61 -10 -4 -3 3 -16 15 -29 17 -18 22 -38 25 -107 2 -47
-1 -123 -7 -170 l-11 -85 -41 65 c-23 36 -44 76 -49 88 -4 13 -27 52 -51 87
-24 34 -44 66 -44 70 0 4 -8 14 -17 21 -15 11 -16 16 -5 34 16 27 8 39 -26 38
-15 0 -40 2 -57 5 -16 3 -45 2 -63 -3z m-257 -171 c38 -112 29 -123 -71 -97
l-46 13 8 45 c9 56 12 81 13 98 1 15 40 32 58 25 7 -3 24 -40 38 -84z"/>
<path d="M4070 1241 c-19 -4 -44 -12 -55 -18 -11 -6 -33 -17 -50 -23 -42 -17
-86 -73 -96 -123 -35 -183 24 -324 153 -362 32 -9 63 -13 70 -8 15 9 67 15
126 14 28 0 45 5 48 14 3 7 12 11 20 8 11 -4 14 7 14 57 0 34 4 69 9 79 5 9 6
23 1 31 -9 14 -84 28 -157 29 -37 1 -43 -2 -43 -20 0 -15 11 -25 40 -36 22 -9
40 -21 40 -27 0 -6 3 -21 6 -34 6 -21 4 -22 -19 -13 -16 6 -37 6 -60 -1 -42
-13 -88 2 -110 36 -23 35 -47 119 -43 151 6 41 39 114 68 147 30 35 109 58
138 40 32 -20 70 -15 70 8 0 45 -80 69 -170 51z"/>
<path d="M4403 1242 c-17 -2 -37 -10 -44 -18 -10 -12 -9 -16 9 -21 24 -6 35
-42 32 -106 -2 -23 -3 -116 -4 -207 l-1 -165 56 -6 c31 -3 61 -9 67 -13 6 -3
21 -2 34 4 13 6 54 14 93 18 80 8 88 17 100 108 5 43 4 52 -11 58 -23 9 -74
-40 -74 -70 0 -13 -4 -25 -9 -28 -15 -10 -122 -9 -131 0 -11 11 -16 171 -6
181 4 5 16 -2 26 -14 34 -42 70 -22 70 38 0 51 -18 63 -59 38 -18 -11 -36 -17
-41 -14 -5 3 -8 43 -7 88 l2 82 67 3 c79 3 103 -12 93 -59 -8 -37 15 -48 51
-24 24 15 26 22 21 62 -2 25 -9 49 -14 54 -10 10 -251 18 -320 11z"/>
<path d="M2591 1227 c-7 -9 -8 -24 -1 -46 16 -55 15 -131 -1 -142 -13 -9 -124
-3 -142 8 -11 7 0 118 14 141 7 12 10 25 5 29 -10 10 -149 17 -182 9 -19 -5
-25 -12 -22 -29 2 -12 12 -23 23 -25 39 -8 41 -16 38 -184 -5 -251 -5 -251
-42 -260 -17 -5 -31 -15 -31 -23 0 -11 13 -13 62 -10 34 2 65 9 68 16 6 8 9 8
14 0 12 -18 45 -12 57 11 7 14 9 41 4 77 -15 117 -16 179 -2 184 7 2 41 4 77
3 l65 -1 0 -132 c0 -91 4 -136 12 -144 16 -16 170 -16 185 -1 15 15 1 32 -27
32 -32 0 -33 5 -40 247 -4 181 -3 203 12 211 9 6 14 16 10 26 -8 21 -138 23
-156 3z"/>
<path d="M4833 1225 c-3 -9 3 -25 13 -36 16 -17 16 -26 7 -72 -8 -36 -8 -56 0
-65 17 -22 3 -254 -19 -291 -22 -37 -10 -56 27 -43 13 4 69 7 124 6 55 0 105
2 110 6 6 4 26 11 45 15 46 10 135 86 162 138 17 34 20 54 16 112 -4 65 -9 77
-46 127 -57 77 -88 94 -204 107 -141 16 -227 15 -235 -4z m322 -107 c31 -33
55 -103 55 -159 0 -24 -30 -80 -61 -114 -35 -37 -66 -51 -133 -59 l-58 -6 6
162 c3 90 5 173 6 186 0 30 28 39 97 32 47 -5 61 -12 88 -42z"/>
<path d="M6867 1233 c-14 -13 -6 -24 22 -34 15 -6 33 -20 38 -32 11 -26 -2
-354 -16 -390 -10 -25 -51 -40 -79 -30 -14 6 -42 57 -112 203 -22 47 -49 101
-59 120 -10 19 -24 53 -31 75 -26 80 -33 85 -121 85 -84 0 -106 -12 -71 -39
l20 -16 -24 -95 c-13 -52 -24 -110 -24 -128 0 -55 -31 -186 -48 -205 -23 -26
-2 -41 54 -41 52 1 71 19 49 44 -12 13 -12 30 -2 103 l11 87 46 0 c25 0 62 3
82 6 31 6 39 3 43 -12 4 -11 22 -52 40 -91 25 -52 33 -81 29 -102 -3 -16 -2
-31 4 -35 5 -3 59 -5 118 -5 60 1 132 1 161 1 71 -2 102 38 38 50 -18 3 -21
14 -28 113 -7 112 -4 155 12 155 8 0 32 -36 98 -145 7 -11 17 -29 22 -40 6
-11 30 -42 54 -69 l43 -48 57 12 c85 19 85 18 61 343 -6 75 -4 87 9 87 21 0
60 51 48 63 -7 7 -95 12 -153 8 -24 -1 -23 -26 3 -42 18 -13 20 -26 24 -161 4
-126 2 -148 -10 -148 -8 0 -15 4 -15 9 0 5 -16 32 -36 61 -20 29 -45 72 -56
94 -10 23 -34 61 -54 86 -19 25 -40 57 -46 72 -8 17 -22 28 -41 32 -40 8 -152
8 -160 -1z m-312 -101 c4 -15 17 -51 31 -80 13 -29 24 -55 24 -57 0 -3 -27 -4
-60 -4 -56 2 -60 3 -60 26 0 13 4 43 9 66 6 23 13 55 16 70 5 23 9 26 19 17 8
-6 17 -23 21 -38z"/>
<path d="M5620 1215 c0 -9 11 -20 25 -25 30 -11 30 -7 5 -72 -28 -76 -100
-314 -100 -331 0 -16 -21 -27 -51 -27 -22 0 -26 -29 -7 -48 17 -17 110 -15
133 2 17 12 18 17 6 39 -12 22 -9 40 27 162 22 76 45 142 51 148 7 7 23 -17
51 -79 85 -183 133 -274 147 -274 25 0 73 40 73 61 0 10 5 19 10 19 13 0 38
58 92 212 23 65 46 118 50 118 5 0 5 -24 1 -52 -4 -29 -6 -62 -5 -73 6 -90 1
-228 -8 -245 -18 -34 -5 -48 14 -15 l17 30 -6 -27 -5 -28 73 0 c48 0 80 5 93
14 24 18 11 33 -31 38 l-30 3 -3 193 c-3 159 -1 198 12 224 9 17 14 33 12 36
-3 2 -53 7 -111 10 -101 5 -107 4 -103 -14 2 -10 8 -19 15 -19 24 0 25 -16 3
-62 -12 -26 -36 -91 -52 -143 -33 -107 -49 -130 -72 -111 -8 7 -18 23 -22 34
-7 25 -34 88 -69 162 -12 28 -29 68 -36 90 -19 58 -32 65 -121 65 -63 0 -78
-3 -78 -15z"/>
<path d="M7478 793 c-20 -5 -33 -44 -24 -68 3 -8 16 -20 30 -26 21 -10 29 -7
60 17 41 33 44 44 18 67 -18 16 -48 20 -84 10z"/>
<path d="M1423 12363 c-22 -8 -15 -30 18 -58 35 -29 53 -28 57 2 2 13 -7 29
-24 42 -28 22 -31 23 -51 14z"/>
<path d="M3323 4473 c-24 -9 -13 -28 31 -56 87 -55 136 -59 136 -12 0 20 -9
29 -42 44 -45 20 -104 31 -125 24z"/>
<path d="M3188 4429 c-30 -17 -21 -29 50 -61 37 -18 69 -35 72 -38 3 -4 20
-15 38 -26 29 -16 34 -17 42 -4 25 39 12 59 -71 104 -67 37 -101 43 -131 25z"/>
<path d="M3049 4274 c-16 -19 -3 -29 56 -44 22 -6 74 -22 115 -36 121 -41 120
-41 120 -8 0 51 -19 64 -124 88 -87 21 -150 21 -167 0z"/>
<path d="M2977 4162 c-20 -22 -23 -54 -4 -51 6 1 21 -1 32 -5 60 -23 122 -40
177 -50 14 -2 36 -10 48 -16 29 -16 50 -6 50 24 0 29 -22 54 -53 60 -21 4
-168 40 -212 52 -13 3 -27 -2 -38 -14z"/>
<path d="M2896 3988 c-10 -8 -17 -23 -14 -34 2 -14 13 -19 43 -21 33 -2 135
-19 286 -50 31 -6 43 9 35 41 -9 35 -35 44 -186 60 -19 2 -60 7 -90 11 -40 5
-60 3 -74 -7z"/>
<path d="M2865 3842 c-11 -29 -4 -50 18 -56 12 -3 72 -9 132 -13 61 -3 127
-12 147 -19 43 -15 62 -2 56 38 -5 34 -49 50 -137 50 -42 -1 -106 2 -143 6
-53 6 -69 5 -73 -6z"/>
<path d="M2852 3623 c-1 -38 0 -38 41 -42 64 -6 199 -4 250 3 50 8 69 34 46
62 -10 13 -24 14 -68 9 -62 -9 -202 -8 -242 1 -25 5 -27 3 -27 -33z"/>
<path d="M3095 3521 c-124 -35 -239 -83 -242 -102 -2 -8 1 -20 6 -28 8 -12 26
-9 113 18 158 51 159 51 190 51 41 0 68 17 68 43 0 21 -17 48 -29 46 -4 0 -51
-13 -106 -28z"/>
<path d="M3214 3433 c-120 -65 -207 -103 -236 -103 -19 -1 -45 -10 -61 -24
-23 -18 -27 -28 -22 -49 8 -31 8 -31 43 -13 15 7 42 16 60 19 18 4 48 18 66
32 19 14 40 23 49 20 18 -7 153 61 161 81 15 39 -19 59 -60 37z"/>
<path d="M3682 3393 c-11 -19 5 -100 28 -143 9 -17 9 -24 1 -30 -8 -4 -5 -12
9 -25 11 -10 23 -36 26 -57 4 -21 11 -41 17 -45 17 -10 -1 59 -24 90 -30 41
-16 45 21 5 l32 -33 -7 30 c-4 17 -17 41 -30 55 -17 18 -24 40 -27 83 -5 67
-29 103 -46 70z"/>
<path d="M3199 3296 c-96 -65 -169 -127 -169 -144 0 -30 33 -23 79 17 27 22
73 50 103 61 75 28 123 69 114 98 -11 34 -42 26 -127 -32z"/>
<path d="M3763 3305 c-3 -9 -3 -18 0 -21 9 -9 27 6 27 22 0 19 -19 18 -27 -1z"/>
<path d="M3260 3185 c-41 -37 -87 -73 -102 -81 -32 -17 -50 -46 -42 -68 9 -23
27 -20 52 9 22 25 30 28 68 26 13 -1 34 13 57 41 57 67 63 72 83 84 15 10 17
16 8 30 -21 36 -47 27 -124 -41z"/>
<path d="M3439 3163 c-13 -9 -59 -52 -102 -95 -43 -43 -82 -78 -86 -78 -12 0
-51 -45 -51 -58 0 -17 42 -15 66 3 10 8 30 15 44 15 36 1 190 158 190 193 0
28 -34 38 -61 20z"/>
<path d="M3950 3017 c0 -8 9 -22 20 -32 19 -18 20 -17 20 3 0 12 -9 26 -20 32
-16 8 -20 8 -20 -3z"/>
<path d="M3895 11109 c-4 -5 1 -19 11 -30 15 -17 19 -18 32 -5 8 8 12 22 9 30
-7 18 -42 22 -52 5z"/>
<path d="M3863 10717 c-6 -13 -16 -58 -23 -100 -14 -94 -8 -483 7 -498 23 -23
33 3 33 87 0 60 5 92 16 109 15 23 37 128 35 175 0 14 2 32 6 40 12 31 20 -37
12 -91 -11 -63 -22 -193 -23 -264 -1 -44 2 -50 19 -50 17 0 21 9 28 55 8 65
15 150 23 321 7 120 6 127 -13 138 -27 14 -33 6 -33 -40 0 -28 -4 -37 -13 -33
-17 6 -37 -57 -37 -115 0 -45 -19 -58 -21 -13 -1 15 -1 30 0 34 0 4 3 31 6 60
3 31 11 58 20 64 10 8 16 31 18 64 2 41 -2 54 -17 66 -26 19 -31 18 -43 -9z"/>
<path d="M4360 10825 c0 -20 4 -26 18 -23 9 2 17 12 17 23 0 11 -8 21 -17 23
-14 3 -18 -3 -18 -23z"/>
<path d="M4308 9933 c-42 -49 -43 -68 -8 -148 40 -89 36 -141 -13 -166 -27
-14 -32 -22 -30 -48 0 -17 7 -38 13 -46 26 -32 112 -3 137 46 27 53 10 158
-42 262 -25 48 -28 61 -17 77 6 11 12 24 12 30 0 16 -36 11 -52 -7z"/>
<path d="M4381 9344 c0 -11 3 -14 6 -6 3 7 2 16 -1 19 -3 4 -6 -2 -5 -13z"/>
<path d="M3410 8716 c0 -45 13 -86 26 -86 15 0 18 28 8 79 -8 36 -34 42 -34 7z"/>
<path d="M3070 8700 c0 -5 5 -10 10 -10 6 0 10 5 10 10 0 6 -4 10 -10 10 -5 0
-10 -4 -10 -10z"/>
<path d="M4218 8159 c-53 -30 11 -140 106 -186 36 -17 39 -17 51 0 7 9 17 17
22 17 13 0 25 -82 14 -93 -4 -4 -32 1 -62 13 -86 33 -114 48 -134 70 -21 23
-65 27 -65 6 0 -21 87 -81 184 -127 85 -40 98 -54 77 -87 -6 -11 -19 -8 -61
12 -30 14 -64 26 -77 26 -12 0 -46 9 -75 20 -63 24 -88 25 -88 6 0 -22 40 -46
75 -46 17 0 63 -16 104 -35 40 -19 79 -35 86 -35 7 0 15 -7 19 -15 7 -19 -3
-45 -18 -45 -27 0 -120 30 -152 49 -42 25 -94 28 -94 6 0 -19 32 -39 95 -61
28 -9 62 -25 77 -35 14 -11 31 -19 37 -19 6 0 11 -7 11 -14 0 -22 -103 -12
-145 14 -38 23 -55 25 -55 7 0 -22 54 -67 80 -67 13 0 44 -7 67 -16 40 -15 43
-19 43 -53 0 -43 -11 -63 -31 -57 -8 2 -26 7 -41 10 -25 6 -28 11 -28 46 0 46
-14 51 -51 21 -22 -17 -24 -27 -24 -100 0 -63 4 -84 18 -98 28 -28 52 -6 52
48 0 38 3 44 20 41 11 -2 32 -13 47 -24 23 -15 28 -27 28 -59 0 -38 -1 -39
-35 -39 -48 0 -49 -33 -1 -55 18 -9 44 -27 57 -41 28 -30 63 -31 83 -2 22 31
20 46 -6 50 -20 3 -24 10 -29 65 -7 75 10 204 46 338 15 55 32 136 38 180 7
44 16 80 22 80 5 0 20 -19 33 -42 22 -40 23 -47 12 -116 -7 -51 -8 -87 -1
-118 15 -63 15 -65 -24 -87 -39 -24 -55 -58 -74 -154 -16 -80 -10 -112 25
-135 25 -16 26 -16 49 13 28 34 31 57 10 74 -8 7 -15 23 -15 36 0 41 31 105
56 115 15 5 24 17 24 29 0 17 4 19 27 14 l27 -7 -33 57 c-17 31 -29 61 -25 67
3 6 10 42 15 81 5 39 16 79 24 88 21 24 19 30 -22 71 -21 20 -46 48 -56 62
-15 23 -21 25 -38 17 -28 -15 -36 13 -16 54 14 31 14 35 -6 67 -46 73 -76 77
-106 14 -22 -47 -27 -50 -50 -36 -11 7 -11 13 3 32 23 34 21 41 -28 72 -46 29
-70 33 -98 16z"/>
<path d="M3917 7664 c-26 -26 29 -75 68 -60 19 7 31 35 19 46 -13 12 -78 23
-87 14z"/>
<path d="M3927 7544 c-14 -14 -7 -43 13 -54 27 -14 15 -32 -16 -24 -32 8 -43
-20 -18 -47 25 -28 88 -23 92 7 2 11 -4 26 -12 33 -13 11 -12 15 5 32 30 30
21 53 -21 57 -20 2 -39 0 -43 -4z"/>
<path d="M4042 7488 c-7 -7 -12 -32 -13 -57 0 -26 -4 -67 -8 -93 -7 -43 -5
-51 17 -78 53 -64 70 -33 64 123 -4 112 -5 117 -26 117 -12 0 -27 -5 -34 -12z"/>
<path d="M3538 7323 c-43 -11 2 -67 49 -61 39 4 42 33 4 52 -16 9 -31 15 -33
15 -2 -1 -11 -3 -20 -6z"/>
<path d="M3925 7290 c-16 -25 22 -69 46 -54 16 9 10 43 -10 54 -24 13 -28 13
-36 0z"/>
<path d="M4130 6906 c-10 -20 -18 -24 -39 -20 -18 4 -32 0 -40 -10 -19 -22
-17 -120 3 -207 31 -134 36 -159 36 -185 0 -41 22 -104 36 -104 30 0 31 66 4
215 -21 112 -27 255 -11 255 18 0 32 -30 66 -143 33 -110 35 -123 34 -254 -1
-188 7 -251 37 -287 43 -49 71 -9 42 61 -6 15 -12 87 -14 158 -2 141 -16 261
-39 340 -8 27 -24 83 -35 123 -11 39 -25 72 -29 72 -5 0 -16 2 -23 5 -8 3 -20
-5 -28 -19z"/>
<path d="M4092 6243 c-5 -11 -4 -52 4 -103 12 -78 27 -245 25 -280 -3 -63 -1
-158 5 -183 6 -31 14 -97 15 -132 1 -11 -2 -38 -6 -60 -6 -35 -4 -43 19 -64
l25 -24 12 29 c13 34 12 219 -1 244 -5 10 -10 87 -11 171 -1 85 -8 192 -15
239 -7 47 -15 106 -19 133 -5 37 -10 47 -25 47 -11 0 -23 -8 -28 -17z"/>
<path d="M5397 5652 c-22 -24 -23 -72 -2 -72 20 0 37 44 27 70 -8 21 -8 21
-25 2z"/>
<path d="M5915 5640 c-20 -22 -15 -36 10 -27 8 4 15 16 15 27 0 25 -2 25 -25
0z"/>
<path d="M5037 5185 c-8 -18 11 -31 25 -17 11 11 3 32 -12 32 -4 0 -10 -7 -13
-15z"/>
<path d="M4581 5006 c-9 -11 -9 -16 0 -21 10 -7 28 10 29 28 0 12 -17 8 -29
-7z"/>
<path d="M2042 5431 c-10 -6 -10 -10 2 -20 10 -9 16 -9 21 -1 10 16 -7 31 -23
21z"/>
<path d="M1952 5168 c-14 -14 -16 -48 -2 -48 10 0 30 32 30 49 0 14 -13 14
-28 -1z"/>
<path d="M3751 5066 c-15 -18 10 -86 33 -86 22 0 29 36 14 67 -16 32 -31 39
-47 19z"/>
<path d="M3672 5027 c-14 -16 6 -60 30 -65 21 -4 32 31 18 58 -12 23 -33 26
-48 7z"/>
<path d="M3620 4934 c0 -9 5 -14 12 -12 18 6 21 28 4 28 -9 0 -16 -7 -16 -16z"/>
<path d="M4565 13636 c-119 -10 -271 -12 -338 -3 -27 4 -57 3 -66 -3 -10 -5
-58 -10 -107 -10 -52 -1 -106 -8 -130 -17 -33 -12 -47 -12 -63 -3 -32 17 -251
16 -262 -2 -16 -25 -9 -48 17 -58 30 -12 91 -12 119 -1 14 6 28 2 46 -13 90
-73 109 -91 109 -102 0 -7 -26 -38 -57 -68 -49 -47 -60 -54 -87 -49 -34 5
-112 -23 -120 -43 -3 -7 1 -20 8 -30 11 -15 19 -16 57 -7 24 6 130 11 234 12
105 0 255 5 335 11 80 6 226 13 325 16 187 6 225 15 225 52 0 15 -11 17 -102
14 -57 -2 -116 -4 -133 -5 l-30 -2 3 105 c3 82 7 108 20 118 10 7 50 12 109
12 90 0 94 1 105 25 8 18 8 29 1 36 -18 18 -114 25 -218 15z m-565 -93 c0 -25
-12 -39 -38 -45 -18 -5 -23 -1 -28 19 -7 28 7 43 44 43 14 0 22 -6 22 -17z
m248 5 c5 -7 9 -62 8 -123 l-1 -110 -39 -3 c-22 -2 -49 1 -60 7 -12 6 -30 10
-40 8 -13 -1 -22 6 -25 20 -3 12 -18 31 -33 43 -16 12 -28 25 -28 29 0 4 17
25 38 47 21 21 46 51 55 67 15 23 24 27 66 27 27 0 53 -6 59 -12z m190 0 c7
-7 12 -26 12 -43 0 -17 5 -36 12 -43 9 -9 9 -21 0 -50 -7 -22 -12 -48 -12 -59
0 -18 -6 -20 -55 -19 l-54 0 -6 41 c-3 23 0 56 9 79 10 31 11 44 2 59 -9 15
-7 21 8 33 24 17 68 18 84 2z m-428 -245 c0 -10 -10 -12 -37 -8 -96 16 -97 17
-55 63 l27 30 33 -36 c17 -19 32 -42 32 -49z"/>
</g>
</svg>
