<?xml version="1.0" standalone="no"?>
<!DOCTYPE svg PUBLIC "-//W3C//DTD SVG 20010904//EN"
 "http://www.w3.org/TR/2001/REC-SVG-20010904/DTD/svg10.dtd">
<svg version="1.0" xmlns="http://www.w3.org/2000/svg"
 width="822.000000pt" height="1402.000000pt" viewBox="0 0 822.000000 1402.000000"
 preserveAspectRatio="xMidYMid meet">
<metadata>
Created by potrace 1.16, written by Peter Selinger 2001-2019
</metadata>
<g transform="translate(0.000000,1402.000000) scale(0.100000,-0.100000)"
fill="#000000" stroke="none">
<path d="M5134 13641 c-2 -2 -226 -5 -498 -7 -272 -1 -499 -4 -504 -8 -5 -3
-32 -2 -60 3 -29 4 -52 5 -52 2 0 -3 -21 -5 -47 -3 -27 2 -94 -1 -151 -5 -57
-5 -106 -5 -108 -1 -7 11 -109 10 -156 -1 -20 -5 -40 -6 -43 -3 -7 7 -600 9
-688 2 -38 -3 -71 -2 -74 2 -2 5 -30 6 -61 3 -32 -4 -147 -8 -257 -9 -267 -4
-255 -3 -256 -23 0 -16 -1 -16 -8 1 -7 18 -17 20 -151 18 -88 -1 -146 -6 -150
-13 -4 -6 -5 -21 -2 -34 l4 -25 539 4 c451 2 539 1 543 -11 4 -11 10 -11 25
-3 22 11 209 19 471 19 142 0 807 -8 835 -10 18 -1 628 11 845 16 194 5 651 4
805 -1 33 -1 130 -2 215 -2 85 -1 209 -1 275 -2 160 -2 324 -2 358 -1 19 1 27
6 27 19 0 22 17 48 25 40 4 -3 1 -15 -6 -27 -23 -36 -59 -34 533 -28 l417 5 0
-62 c1 -33 3 -142 7 -241 3 -99 8 -331 10 -515 2 -184 6 -436 9 -560 2 -124 4
-650 4 -1170 -1 -520 0 -967 1 -995 2 -27 3 -169 2 -315 -4 -799 -3 -3271 1
-3870 6 -809 6 -1029 0 -1465 -5 -329 -4 -392 3 -845 5 -328 7 -371 18 -389 6
-9 5 -12 -1 -8 -15 9 -22 -111 -18 -286 3 -124 1 -149 -11 -154 -8 -3 -23 2
-34 12 -25 23 -57 14 -98 -25 -18 -16 -37 -30 -43 -30 -6 0 -25 16 -42 35 -40
46 -68 46 -90 -1 -11 -22 -29 -40 -47 -47 -17 -6 -30 -17 -30 -24 0 -17 -20
-17 -34 1 -6 8 -22 17 -35 21 -20 6 -23 4 -17 -10 3 -9 3 -22 -1 -28 -4 -7 -9
-2 -13 13 -6 22 -11 25 -43 22 -30 -2 -37 0 -37 16 0 26 -37 62 -71 69 -16 3
-32 10 -35 14 -3 5 -15 9 -28 9 -46 0 -81 -21 -111 -65 -17 -24 -37 -46 -45
-47 -23 -5 -162 11 -187 22 -13 5 -44 12 -70 15 -27 3 -68 8 -93 12 -25 3 -57
5 -72 4 -15 -1 -38 5 -50 13 -12 9 -30 16 -38 16 -9 0 -27 11 -40 25 -31 33
-55 32 -94 -7 -57 -58 -104 -98 -115 -98 -6 0 -19 -4 -29 -9 -75 -40 -100 -45
-217 -47 -66 -1 -158 -5 -205 -10 -47 -4 -120 -7 -162 -6 -48 2 -79 -2 -84 -9
-4 -8 -9 -7 -15 2 -7 12 -9 12 -9 0 0 -11 -3 -11 -17 0 -11 10 -14 10 -9 1 4
-6 3 -12 -3 -12 -5 0 -15 8 -20 18 -6 9 -11 13 -11 8 0 -5 -7 -3 -15 4 -8 7
-15 9 -15 6 0 -4 -7 0 -16 8 -18 18 -34 21 -34 5 0 -5 -4 -7 -10 -4 -10 6 -53
-18 -45 -26 2 -3 -27 -6 -65 -7 -40 -2 -71 1 -75 7 -10 17 -43 13 -54 -6 -6
-10 -11 -13 -11 -7 0 16 -46 23 -180 30 -63 3 -138 12 -165 19 -28 8 -89 17
-138 21 -71 5 -91 3 -111 -10 -23 -14 -28 -14 -63 1 -68 29 -168 63 -188 63
-11 1 -38 12 -60 26 -66 40 -148 76 -187 81 -43 6 -83 -14 -93 -47 -5 -15 -12
-19 -31 -14 -15 4 -24 2 -24 -6 0 -6 -6 -10 -12 -7 -7 2 -26 -3 -43 -13 -37
-22 -173 -36 -415 -44 -72 -2 -240 15 -291 30 -30 8 -74 19 -99 23 -24 5 -46
13 -48 20 -2 6 -11 20 -21 32 -16 21 -19 21 -49 5 -46 -24 -144 -32 -184 -15
-18 7 -64 35 -102 62 -38 27 -75 50 -82 51 -19 3 -54 37 -71 69 -15 30 -33 52
-75 93 -15 15 -25 30 -23 34 2 4 -17 14 -43 22 l-47 15 -1 89 c-1 76 -5 96
-27 138 -14 28 -37 55 -49 62 -21 11 -23 19 -23 98 0 68 -4 89 -17 103 -16 16
-18 16 -18 1 0 -9 -5 -20 -11 -24 -8 -5 -10 1 -5 19 5 23 3 27 -26 32 -18 3
-54 -1 -81 -9 -35 -10 -49 -11 -55 -3 -4 7 -14 59 -22 117 l-15 105 -35 5 -35
5 0 55 c0 63 -18 101 -74 161 -46 48 -52 46 -112 -26 -26 -32 -38 -54 -33 -64
4 -9 8 -39 9 -68 3 -51 2 -52 -24 -47 -33 7 -71 -27 -71 -63 0 -16 -12 -37
-34 -57 -48 -44 -57 -68 -63 -157 l-6 -79 -38 -22 c-40 -22 -51 -41 -54 -96
-1 -18 -12 -43 -25 -57 -19 -20 -25 -41 -31 -107 -4 -46 -14 -101 -22 -123 -9
-22 -18 -51 -21 -65 -3 -15 -21 -35 -45 -49 -22 -14 -37 -30 -34 -35 3 -6 0
-5 -8 2 -16 15 -49 16 -49 2 0 -6 -15 -4 -36 5 -45 19 -121 19 -164 1 -35 -14
-73 -9 -127 19 -15 8 -34 15 -41 15 -7 0 -29 12 -47 26 -42 32 -66 26 -99 -23
-14 -19 -38 -44 -55 -54 -57 -35 -32 -60 29 -29 30 15 40 26 40 45 0 30 18 42
33 22 7 -8 33 -22 60 -32 26 -10 47 -21 47 -24 0 -3 18 -12 40 -19 33 -10 46
-9 80 4 22 9 40 20 40 25 0 6 7 6 18 0 10 -5 24 -6 32 -1 17 11 50 -5 50 -24
0 -18 -64 -74 -104 -91 -17 -7 -51 -18 -76 -25 -25 -7 -55 -16 -68 -21 -13 -5
-42 -9 -65 -9 -24 0 -47 -4 -52 -8 -19 -16 -86 -33 -104 -27 -11 3 -22 1 -26
-5 -3 -5 -9 -10 -13 -10 -4 0 -7 402 -6 893 1 490 -3 953 -7 1027 -5 74 -8
254 -7 400 1 146 1 283 1 305 1 22 0 209 0 415 0 479 1 501 10 527 5 12 3 48
-2 79 -6 31 -13 242 -15 468 -8 718 -19 2268 -17 2351 1 44 2 166 0 270 -1
105 -2 226 -2 270 0 44 3 314 8 600 10 621 10 560 2 720 -6 121 -7 348 -3 780
1 99 6 189 10 199 7 13 5 22 -6 30 -12 9 -13 23 -5 86 11 90 11 68 1 365 -10
262 -10 1002 0 1039 l6 24 317 -1 c175 0 476 3 668 7 193 5 371 8 398 8 51 -1
54 3 33 43 l-14 27 -534 3 c-293 2 -596 5 -673 5 -189 3 -262 -6 -278 -34 -12
-21 -13 -111 -17 -1056 -1 -184 0 -340 1 -345 1 -6 -1 -26 -5 -45 -4 -19 -3
-67 2 -107 5 -42 5 -79 -1 -88 -12 -22 -16 -278 -5 -334 5 -25 10 -170 12
-321 2 -151 7 -376 11 -500 4 -124 7 -247 6 -275 -1 -27 -2 -72 -2 -100 0 -27
0 -61 -1 -75 0 -14 0 -38 -1 -55 -1 -75 7 -172 17 -194 9 -20 7 -26 -12 -39
-23 -15 -29 -38 -12 -44 11 -3 20 -117 10 -123 -3 -2 -5 -37 -4 -77 5 -150 6
-281 6 -573 0 -165 1 -313 1 -330 0 -16 0 -55 -1 -85 -2 -30 0 -171 2 -312 10
-489 17 -1449 21 -2683 2 -682 6 -1350 10 -1485 3 -135 8 -591 10 -1015 2
-423 7 -1242 10 -1820 l7 -1050 21 2 c44 3 100 3 467 -2 862 -11 1400 -12
1400 -2 0 6 4 6 13 0 16 -13 106 -14 128 -2 10 5 20 5 23 1 3 -5 28 -8 56 -7
27 1 50 -2 50 -7 0 -4 23 -8 50 -8 33 0 50 4 50 13 0 8 3 9 8 1 9 -14 112 -16
129 -2 8 7 17 7 26 1 17 -14 150 -17 142 -3 -3 5 1 10 10 10 9 0 13 -4 10 -10
-4 -6 18 -9 55 -9 33 1 60 6 60 11 0 6 5 6 14 -1 16 -14 301 -14 327 0 9 5 19
5 23 2 6 -6 105 -5 246 3 25 1 135 5 245 7 110 3 202 6 205 6 34 3 1440 12
2288 15 601 2 1095 6 1099 9 3 4 13 2 23 -3 10 -5 20 -7 23 -4 3 3 73 5 156 5
138 -1 151 0 152 16 1 10 3 56 4 103 2 46 7 95 10 108 3 13 2 38 -4 56 -11 38
-19 234 -27 667 -3 178 -7 387 -9 464 -2 77 -3 183 -2 235 5 241 -4 1116 -13
1270 -1 14 1 61 5 105 3 44 5 292 5 550 0 259 1 499 2 535 5 113 -2 327 -11
351 -4 13 -4 37 0 54 10 32 22 160 19 185 -2 8 -2 51 -1 95 1 44 2 103 2 130
1 28 -1 322 -5 655 -3 333 -5 619 -5 635 3 85 -5 415 -15 640 -2 39 1 80 7 93
8 16 7 26 -1 34 -15 15 -15 60 0 93 9 21 9 28 0 34 -10 6 -10 25 -1 87 8 52
13 315 14 784 2 388 3 714 4 725 0 11 0 335 -1 720 -1 385 2 813 7 950 9 263
9 341 1 415 -10 83 -19 966 -12 1055 3 28 7 77 9 110 3 33 1 82 -4 109 -5 27
-11 178 -13 335 -3 157 -9 354 -15 436 -5 83 -8 182 -5 220 8 101 -1 110 -102
106 -74 -3 -200 -3 -234 -1 -8 1 -168 1 -355 0 -324 -2 -403 -2 -835 0 -102 0
-192 0 -200 0 -31 -2 -759 1 -873 3 -65 1 -121 0 -123 -2z m1271 -31 c3 -5 1
-10 -4 -10 -6 0 -11 5 -11 10 0 6 2 10 4 10 3 0 8 -4 11 -10z m115 -4 c0 -3
-4 -8 -10 -11 -5 -3 -10 -1 -10 4 0 6 5 11 10 11 6 0 10 -2 10 -4z m707 -18
c-3 -8 -6 -5 -6 6 -1 11 2 17 5 13 3 -3 4 -12 1 -19z m-6707 2 c0 -5 -4 -10
-10 -10 -5 0 -10 5 -10 10 0 6 5 10 10 10 6 0 10 -4 10 -10z m3380 0 c0 -5 -2
-10 -4 -10 -3 0 -8 5 -11 10 -3 6 -1 10 4 10 6 0 11 -4 11 -10z m2750 -11 c0
-11 -4 -17 -10 -14 -5 3 -10 13 -10 21 0 8 5 14 10 14 6 0 10 -9 10 -21z
m-4495 1 c3 -5 1 -10 -4 -10 -6 0 -11 5 -11 10 0 6 2 10 4 10 3 0 8 -4 11 -10z
m-451 -9575 c3 -8 12 -15 20 -15 21 0 26 -37 25 -177 -1 -71 1 -138 5 -151 10
-29 43 -47 60 -33 17 15 26 4 26 -32 0 -37 25 -67 55 -67 12 0 32 -11 45 -25
18 -19 26 -22 37 -14 7 6 13 20 13 30 0 12 10 21 26 25 41 11 54 -18 40 -88
-10 -47 11 -126 37 -140 10 -5 21 -7 25 -4 11 12 33 -59 39 -125 5 -63 4 -66
-17 -72 -13 -3 -31 -2 -41 4 -10 5 -27 9 -37 9 -12 0 -33 17 -51 42 -36 48
-37 56 -14 73 15 12 15 16 -3 61 -17 41 -25 49 -50 52 -42 4 -94 -31 -94 -63
0 -27 -6 -28 -132 -30 -20 0 -40 -3 -44 -7 -4 -5 -19 -8 -34 -8 -16 0 -58 -22
-106 -55 -43 -30 -89 -59 -101 -64 -12 -6 -26 -17 -31 -27 -7 -12 -11 -13 -17
-5 -4 7 2 22 14 35 40 42 17 50 -34 11 -39 -29 -76 -95 -68 -123 7 -27 -48
-140 -84 -174 -15 -14 -45 -30 -66 -33 -21 -4 -41 -14 -44 -21 -3 -8 -9 -14
-14 -14 -4 0 -34 -16 -66 -35 -32 -19 -66 -35 -75 -35 -9 0 -29 -5 -45 -12
-39 -16 -50 -18 -113 -23 -98 -9 -139 -16 -145 -26 -4 -5 -25 -9 -49 -9 -23 0
-46 -4 -51 -9 -14 -12 -87 -1 -82 12 2 6 26 12 53 14 27 2 66 10 87 18 20 8
50 15 65 15 15 0 67 11 116 25 76 21 102 34 168 85 62 47 86 60 114 60 24 0
43 8 60 25 14 14 36 28 50 31 31 8 74 63 74 95 0 14 6 33 14 44 7 11 14 27 14
35 1 8 8 40 17 70 8 30 15 62 15 71 0 9 8 25 18 37 10 11 24 50 31 86 7 36 17
66 21 66 5 0 15 3 24 6 14 5 16 -3 16 -55 0 -46 3 -61 14 -61 37 0 65 110 32
123 -10 4 -13 18 -10 49 9 80 13 88 39 88 14 0 25 3 26 8 0 4 2 18 5 31 3 19
1 22 -13 16 -48 -20 -53 -18 -53 13 0 34 15 44 43 30 24 -12 47 7 47 38 0 26
10 30 27 13 9 -9 16 -7 29 6 14 13 15 18 4 25 -19 12 -5 38 25 46 24 6 26 10
20 41 -3 19 -7 66 -8 103 -2 62 0 70 18 73 11 2 23 5 26 6 4 0 9 -6 13 -14z
m131 -280 c0 -10 -6 -20 -12 -22 -8 -3 -13 5 -13 22 0 17 5 25 13 23 6 -3 12
-13 12 -23z m10 -519 c22 -10 50 -23 62 -28 12 -6 36 -32 54 -59 27 -38 39
-47 61 -47 15 1 37 -7 47 -16 15 -13 28 -16 51 -11 29 6 31 5 25 -14 -8 -25
21 -78 47 -84 13 -4 23 3 34 24 19 38 29 32 93 -53 49 -64 170 -168 196 -168
7 0 27 -16 46 -36 82 -87 100 -103 115 -97 17 6 84 -53 84 -75 0 -7 8 -12 18
-10 9 1 38 -10 65 -26 34 -20 54 -26 74 -21 14 3 49 1 77 -6 99 -23 156 -40
161 -48 2 -5 24 -5 47 -1 24 5 45 4 48 0 3 -5 43 -8 88 -7 46 1 86 -3 90 -8
24 -34 88 -62 157 -70 41 -4 85 -22 85 -34 0 -6 6 -8 14 -5 8 3 23 1 33 -4 10
-6 93 -13 186 -16 146 -6 167 -5 167 9 0 18 3 17 -75 19 -34 1 -65 5 -70 8 -6
3 -34 6 -64 7 -46 1 -52 -2 -47 -17 5 -13 2 -12 -11 4 -22 26 -73 47 -105 43
-12 -2 -34 3 -48 10 -13 8 -37 14 -52 13 -15 0 -28 4 -28 9 0 5 -7 9 -16 9 -8
0 -34 13 -57 29 -55 37 -78 44 -162 46 -96 3 -198 16 -212 27 -21 17 -137 48
-178 48 -22 0 -57 9 -78 20 -20 11 -42 20 -48 20 -15 0 -99 72 -94 80 3 4 28
10 57 14 39 6 55 4 63 -7 10 -13 45 -24 115 -34 19 -2 58 -11 85 -18 28 -8 97
-16 155 -20 58 -3 125 -7 150 -8 25 -2 88 1 140 5 52 5 120 11 150 13 76 7
155 24 188 41 15 8 40 14 56 14 18 0 35 9 48 25 11 14 27 25 37 25 10 0 39
-11 65 -25 26 -14 53 -25 60 -25 8 0 19 -7 26 -15 7 -8 28 -17 49 -21 41 -7
158 -47 199 -68 17 -9 49 -13 87 -11 140 8 215 5 283 -10 40 -9 84 -14 97 -11
24 6 75 -11 75 -24 0 -26 -33 -80 -48 -80 -10 0 -36 -15 -58 -34 -36 -32 -39
-37 -37 -85 1 -55 -1 -57 -56 -41 -19 5 -84 12 -145 15 -61 2 -133 11 -160 20
-58 18 -68 13 -35 -14 24 -20 73 -35 100 -30 27 5 189 -14 195 -22 3 -5 16 -9
29 -9 29 0 35 -15 23 -59 -6 -22 -6 -41 0 -55 6 -12 14 -31 17 -43 3 -12 28
-42 55 -66 48 -44 51 -44 140 -51 l90 -8 0 -29 c0 -16 -3 -29 -7 -29 -5 -1
-117 -1 -250 -1 -159 -1 -243 -5 -243 -11 0 -6 -6 -5 -15 2 -9 7 -27 10 -44 7
-18 -4 -31 -2 -33 5 -5 14 -440 15 -507 2 -46 -9 -73 -36 -56 -53 11 -10 59
-23 163 -42 34 -6 62 -15 62 -19 0 -4 -39 -10 -87 -13 -49 -4 -133 -11 -188
-17 -55 -6 -239 -13 -410 -16 -170 -2 -319 -5 -330 -6 -11 0 -47 -1 -80 0
-133 2 -319 -9 -331 -19 -7 -6 -10 -17 -7 -25 4 -11 19 -13 67 -9 50 5 353 17
406 17 8 0 69 -5 135 -11 185 -16 319 -20 368 -10 24 4 98 11 163 14 66 4 122
9 126 11 4 2 40 6 80 9 40 3 96 7 124 10 39 5 54 2 64 -9 18 -23 39 -19 52 9
9 20 8 28 -5 43 -10 10 -17 28 -17 39 0 25 -4 27 -98 44 -39 7 -72 17 -72 22
0 11 305 -1 355 -14 22 -6 49 -10 60 -10 123 7 382 0 525 -14 24 -2 43 -16 33
-25 -13 -13 -190 -41 -217 -34 -13 3 -27 1 -30 -5 -4 -6 -21 -11 -37 -11 -60
0 -95 -66 -53 -101 33 -27 12 -35 -148 -52 -90 -10 -185 -20 -212 -22 -28 -3
-64 -9 -80 -14 -60 -18 -274 -34 -458 -35 -154 -1 -188 -4 -188 -15 0 -12 -3
-12 -17 0 -22 18 -218 18 -250 0 -13 -6 -23 -7 -25 -2 -5 16 -318 15 -318 0 0
-6 -6 -7 -12 -2 -14 8 -203 14 -403 12 -143 -1 -175 -1 -690 8 -388 6 -497 7
-560 3 -94 -5 -828 11 -843 19 -23 12 -27 64 -6 82 18 15 53 16 464 10 325 -5
340 -4 341 17 0 16 1 16 7 -1 7 -16 22 -18 142 -18 74 -1 185 2 245 6 184 11
315 15 415 13 52 -1 127 -1 165 0 150 3 390 10 393 11 1 0 -2 10 -8 21 -9 18
-21 20 -100 20 -79 0 -90 -2 -91 -17 -1 -15 -2 -16 -6 -2 -3 14 -19 16 -116
12 -62 -3 -130 -4 -152 -2 -86 6 -149 2 -153 -9 -6 -18 -22 -14 -22 4 0 12 -7
14 -30 9 -17 -4 -86 -9 -153 -12 -123 -6 -180 -7 -427 -5 -74 0 -146 0 -160
-1 -15 -1 -24 3 -23 11 4 17 -7 15 -28 -4 -16 -14 -46 -16 -204 -16 -102 1
-191 5 -198 9 -6 4 -78 7 -159 8 l-148 0 -5 340 c-3 187 -6 369 -8 405 -1 36
1 76 6 89 7 21 9 22 25 9 11 -10 24 -13 37 -8 20 7 28 6 63 -6 9 -4 41 -6 71
-5 41 1 57 -3 67 -16 7 -10 14 -15 14 -11 0 4 21 1 47 -7 41 -13 53 -12 93 1
81 26 76 24 60 35 -12 7 -9 8 9 7 13 -2 26 3 28 10 6 17 -41 16 -76 -3 -37
-18 -86 -7 -86 21 0 28 -11 32 -68 22 -29 -5 -75 -9 -104 -8 -28 0 -68 -6 -89
-15 -27 -11 -40 -12 -50 -4 -21 18 -7 29 37 29 22 0 49 5 60 10 11 6 34 13 52
15 89 11 118 16 182 32 39 9 74 20 80 25 5 4 15 8 23 8 18 0 90 36 132 66 22
16 42 23 56 20 26 -7 118 60 129 93 3 10 13 22 21 25 8 3 23 23 32 43 25 55
60 99 103 129 21 14 41 34 44 45 3 10 23 23 43 30 20 6 51 24 67 40 51 48 112
70 180 66 33 -2 78 -11 100 -21z m-558 -11 c0 -8 -4 -15 -9 -15 -10 0 -11 14
-1 23 9 10 10 9 10 -8z m5092 -508 c32 -29 93 -47 160 -47 31 0 67 -8 89 -19
23 -12 49 -17 69 -14 24 4 34 1 39 -11 3 -9 10 -13 15 -11 17 11 49 -35 49
-69 0 -30 9 -43 70 -98 82 -73 95 -104 78 -182 -15 -66 -23 -76 -64 -76 -40 0
-51 -14 -33 -47 14 -26 7 -48 -24 -67 -25 -16 -70 12 -81 51 -18 59 -89 59
-98 0 -4 -28 -55 -40 -80 -19 -23 19 -23 70 -1 95 17 18 17 19 -2 33 -10 8
-25 14 -34 14 -29 0 -51 32 -51 76 0 23 3 49 6 58 10 27 69 56 100 51 39 -7
79 41 65 77 -5 13 -7 36 -4 51 4 19 0 29 -11 33 -24 9 -47 -25 -40 -58 4 -20
0 -29 -16 -38 -11 -6 -24 -9 -29 -6 -14 9 -81 -44 -106 -84 -26 -42 -61 -55
-120 -46 -16 2 -68 9 -115 16 -65 8 -91 17 -110 34 -14 13 -35 27 -47 31 -21
6 -23 3 -23 -28 0 -53 28 -65 177 -78 71 -6 147 -10 171 -10 37 -1 42 -3 42
-23 0 -24 18 -53 56 -91 25 -25 31 -50 14 -60 -5 -3 -10 -17 -10 -30 0 -35 68
-69 136 -68 l50 0 1 -65 c2 -119 23 -110 -264 -106 -136 1 -261 5 -278 7 -67
11 -214 18 -475 22 -151 3 -288 7 -303 10 -15 3 -66 -1 -113 -9 -96 -17 -114
-14 -114 20 0 35 50 63 101 57 35 -5 42 -2 71 31 17 20 37 36 43 36 20 0 69
118 59 145 -8 19 29 39 99 55 32 7 60 17 63 22 3 4 13 8 23 8 11 0 21 9 24 22
8 29 2 34 -17 15 -14 -13 -43 -22 -173 -54 -16 -4 -29 2 -43 18 -37 45 -19 61
68 61 55 0 95 13 138 45 17 13 40 23 51 23 23 0 39 26 21 32 -16 6 -88 -14
-88 -24 0 -4 -6 -8 -14 -8 -7 0 -34 -12 -60 -26 -28 -16 -46 -21 -46 -14 0 14
-59 8 -141 -15 -26 -6 -27 -5 -43 65 -20 92 -21 89 9 100 14 5 25 15 25 22 0
7 9 19 20 25 16 10 21 10 28 -2 11 -20 97 -41 107 -26 2 4 30 4 62 -1 58 -8
260 -2 298 9 10 3 67 7 125 8 139 3 227 14 241 31 6 8 17 14 24 14 22 0 96 60
117 96 24 40 33 42 67 11z m793 -23 c9 -3 22 -19 28 -34 14 -34 7 -153 -9
-158 -15 -5 -14 -37 3 -51 7 -6 11 -21 9 -34 -3 -16 4 -26 26 -39 16 -9 34
-25 40 -37 9 -17 6 -26 -17 -53 -16 -18 -35 -51 -42 -73 -7 -22 -26 -55 -41
-74 -22 -27 -27 -41 -22 -64 5 -22 1 -33 -12 -44 -25 -18 -30 -17 -32 9 -2 27
-19 38 -60 38 -39 0 -123 39 -123 56 0 7 8 15 18 18 31 10 63 64 74 124 10 52
8 62 -13 107 -17 36 -35 55 -63 70 -45 23 -86 78 -86 115 0 14 -5 31 -12 38
-9 9 -8 12 4 12 9 0 19 -4 23 -9 3 -6 18 -6 35 -1 26 8 33 5 46 -16 24 -35 44
-31 44 10 0 26 5 36 20 41 11 3 20 14 20 24 0 46 56 56 142 25z m627 -37 c14
-27 22 -217 9 -234 -6 -7 -5 -20 2 -32 6 -13 10 -68 8 -143 l-3 -123 -99 -5
c-68 -3 -104 -1 -115 7 -29 21 1 31 101 35 132 4 122 34 -12 38 -30 1 -64 5
-75 10 -17 6 -15 9 16 15 20 3 42 5 50 4 33 -6 78 13 81 34 8 54 -3 76 -50 98
-25 13 -47 18 -49 13 -3 -9 -134 -9 -160 1 -7 2 -35 -2 -63 -9 -53 -14 -118
-12 -135 5 -6 6 -6 16 1 27 15 23 -2 60 -30 64 -11 2 -27 15 -36 31 -14 25
-13 30 5 63 18 33 25 37 65 40 28 2 49 9 57 20 12 16 13 16 13 1 0 -19 44 -24
55 -7 3 6 14 10 23 10 9 0 34 12 55 27 l39 27 19 -23 c11 -13 19 -30 19 -38 0
-13 3 -13 15 -3 8 7 25 10 39 6 18 -4 31 1 53 22 47 47 83 54 102 19z m-7329
-44 c-1 -24 -2 -26 -11 -10 -5 9 -7 22 -4 27 10 17 15 11 15 -17z m4671 -99
c29 -18 46 -40 64 -81 29 -65 31 -80 9 -105 -13 -14 -14 -21 -5 -32 22 -26 31
-76 19 -102 -9 -19 -8 -28 1 -37 19 -19 49 29 53 83 4 57 26 60 51 7 17 -36
17 -42 2 -93 -10 -35 -23 -58 -38 -65 -26 -14 -47 -41 -41 -51 5 -9 -12 -10
-118 -13 -59 -1 -68 1 -68 16 0 30 -20 32 -48 7 -21 -19 -33 -23 -52 -17 -37
11 -62 10 -55 -1 9 -14 -2 -12 -33 4 -15 8 -34 17 -43 19 -22 7 -69 103 -69
142 0 19 7 35 19 42 23 15 41 71 41 129 0 43 19 70 42 62 26 -10 51 10 67 53
15 41 20 44 59 50 23 3 44 8 48 11 10 11 54 -2 95 -28z m2387 -187 c6 -7 7
-18 2 -26 -4 -8 -6 -35 -3 -61 l5 -47 -50 -7 c-27 -3 -64 -13 -81 -22 -26 -13
-30 -20 -25 -37 3 -12 11 -27 16 -34 12 -15 75 -36 86 -29 16 10 34 -11 28
-32 -6 -17 -13 -20 -36 -16 -23 5 -34 0 -57 -26 l-29 -32 -132 -4 c-109 -2
-132 0 -132 12 0 8 7 15 15 15 8 1 18 2 23 3 35 7 77 66 67 95 -3 12 2 39 13
63 10 24 22 56 26 72 4 16 26 47 49 68 39 35 46 38 102 38 33 0 67 5 75 10 20
13 26 12 38 -3z m150 -26 c40 -2 25 -27 -18 -29 -24 -2 -40 2 -40 8 0 6 -6 8
-12 4 -10 -6 -10 -4 0 8 7 9 21 15 30 13 9 -2 27 -4 40 -4z m-163 -166 c0 -14
-9 -21 -32 -26 -30 -6 -33 -4 -33 17 0 13 7 24 18 27 30 8 47 2 47 -18z m-549
-90 c19 -19 39 -35 44 -35 6 0 10 -14 10 -31 0 -31 0 -32 -42 -26 -57 8 -128
-12 -128 -35 0 -19 -34 -32 -71 -26 -21 3 -24 9 -27 55 -3 45 0 54 20 66 13 8
40 18 61 21 21 4 46 15 55 26 25 27 39 24 78 -15z m694 -15 c0 -5 -9 -6 -20
-3 -11 3 -17 9 -15 14 7 10 35 1 35 -11z m153 3 c18 -11 -7 -23 -41 -19 -60 6
-102 18 -96 27 5 8 121 2 137 -8z m5 -87 c3 -38 3 -38 -25 -31 -15 4 -57 9
-93 10 -88 3 -112 11 -108 38 3 20 10 22 88 27 120 7 134 2 138 -44z m-290 21
c2 -11 -3 -17 -16 -17 -15 0 -19 5 -15 20 6 24 26 21 31 -3z m-508 -116 c0
-58 -7 -62 -109 -64 -50 -1 -91 0 -91 3 0 3 -12 6 -27 5 -23 0 -28 4 -28 25 0
21 6 26 40 33 22 4 60 9 85 11 25 2 58 10 74 19 39 21 56 12 56 -32z m453 31
c38 -16 25 -33 -26 -32 -77 1 -87 0 -87 -14 0 -34 -32 -43 -140 -40 l-105 4 0
42 c0 41 1 43 35 48 68 10 295 4 323 -8z m291 -12 c43 -16 20 -32 -51 -34 -47
-2 -115 9 -132 20 -27 19 137 32 183 14z m-2352 -14 c87 -6 250 -12 518 -20
63 -2 171 0 240 4 69 4 137 4 151 0 14 -4 34 -3 44 2 9 6 20 6 24 2 3 -5 65
-9 136 -10 104 -1 130 -4 130 -15 0 -11 -23 -14 -110 -15 -60 -1 -120 -5 -132
-10 -12 -5 -105 -6 -210 -2 -393 15 -503 17 -503 9 0 -9 -6 -8 135 -16 61 -3
151 -8 200 -11 125 -8 261 -12 460 -14 115 -1 172 -6 177 -14 15 -22 7 -45
-19 -58 -56 -27 -40 -38 56 -38 83 0 91 2 91 19 0 11 -9 23 -21 26 -15 5 -19
14 -17 33 3 30 -5 28 173 23 79 -2 87 -8 79 -58 -4 -30 -13 -44 -36 -57 -37
-22 -31 -41 13 -42 19 -1 52 -3 74 -5 l40 -4 -3 45 c-4 77 5 110 32 110 13 0
37 5 55 11 19 7 54 8 87 4 50 -6 57 -10 81 -46 36 -54 59 -49 55 11 -4 66 4
87 38 99 39 13 40 13 43 -124 2 -104 3 -110 24 -113 29 -4 37 24 34 125 -2 73
0 83 18 92 14 8 28 8 48 0 15 -6 66 -13 113 -14 l85 -3 1 -117 0 -117 -100 2
c-56 1 -189 2 -296 1 -107 -1 -226 1 -263 4 -46 4 -73 3 -83 -6 -8 -6 -14 -7
-14 -2 0 8 -350 20 -490 16 -30 -1 -185 -4 -345 -6 -159 -3 -311 -7 -337 -10
-28 -3 -48 -1 -48 4 0 6 -63 8 -172 4 -177 -7 -327 -7 -337 -1 -3 2 -46 0 -96
-4 -54 -5 -94 -5 -101 1 -6 5 -22 9 -35 8 -29 0 -36 0 -313 4 -160 2 -221 6
-224 15 -2 8 10 12 35 13 72 2 158 9 183 15 14 4 34 9 45 11 24 4 45 30 45 54
0 24 -13 30 -59 31 -21 0 -45 4 -52 9 -26 16 6 29 98 38 51 5 100 14 110 20
26 13 44 0 41 -30 -3 -24 -2 -24 76 -24 80 0 105 12 64 30 -44 19 -27 39 37
47 65 8 459 1 488 -8 20 -6 23 6 5 24 -15 15 -55 16 -64 1 -5 -8 -8 -8 -14 0
-6 10 -133 16 -418 20 -30 1 -42 5 -40 14 3 6 15 13 27 13 12 1 23 3 25 5 5 5
97 3 218 -5z m-2602 -326 c0 -5 -4 -10 -10 -10 -5 0 -10 5 -10 10 0 6 5 10 10
10 6 0 10 -4 10 -10z m2937 -24 c40 -2 75 -1 77 3 3 4 29 5 58 1 59 -8 367
-11 878 -8 104 0 362 0 460 -1 159 -1 488 -11 533 -16 32 -4 60 -12 62 -19 8
-20 10 -646 3 -646 -4 0 -16 14 -28 30 -24 34 -57 39 -95 14 -27 -17 -31 -46
-15 -88 8 -21 16 -26 45 -26 20 0 44 4 54 9 9 5 22 7 28 3 9 -6 18 -105 14
-149 -1 -8 -36 -10 -128 -7 -248 9 -273 9 -273 3 0 -4 -24 -5 -52 -2 -45 3
-574 6 -955 4 -104 -1 -112 -2 -118 -22 -5 -15 -10 -17 -19 -10 -7 6 -16 8
-19 4 -4 -3 -7 1 -7 11 0 16 -19 17 -272 12 -150 -3 -282 -5 -293 -4 -58 5
-267 0 -273 -7 -4 -4 -1 -10 6 -12 17 -6 15 -20 -3 -27 -9 -3 -15 -1 -14 7 4
30 -2 37 -33 36 -18 -1 -25 -3 -15 -6 9 -2 17 -11 17 -19 0 -20 -17 -17 -33 7
-14 19 -22 20 -188 17 -127 -2 -173 -6 -177 -15 -5 -17 -31 -17 -37 -1 -4 10
-46 13 -173 11 -92 -1 -184 -4 -204 -7 -21 -2 -38 0 -38 6 0 5 -5 6 -12 2 -7
-4 -72 -7 -145 -6 -83 1 -131 -2 -128 -8 4 -6 1 -10 -4 -10 -6 0 -11 5 -11 10
0 13 -46 13 -71 0 -14 -8 -19 -7 -19 3 0 10 -25 12 -122 10 -292 -8 -685 -8
-707 -1 l-24 9 25 27 c48 51 60 87 57 173 -4 89 8 114 39 86 26 -24 39 -21 45
9 9 48 -20 124 -47 124 -20 0 -47 -24 -50 -45 -5 -31 -36 -32 -36 -1 0 16 -6
26 -14 26 -13 0 -26 28 -26 57 0 6 15 13 33 15 26 2 33 8 35 29 4 31 -41 89
-68 89 -27 0 -80 -69 -80 -104 0 -31 49 -179 76 -231 25 -47 30 -139 10 -170
-9 -14 -25 -25 -36 -25 -12 0 -20 -7 -20 -17 0 -15 -2 -15 -9 -4 -8 12 -14 11
-36 -5 -63 -44 -61 -44 -280 -38 -266 7 -308 8 -375 6 -30 -1 -100 -2 -155 -3
-62 0 -101 -4 -104 -11 -2 -7 -6 -7 -10 0 -10 16 -253 20 -246 5 2 -7 -2 -13
-9 -13 -8 0 -16 6 -19 13 -3 9 -41 11 -153 10 -82 -1 -153 -2 -159 -3 -31 -2
-946 11 -975 14 -19 2 -72 7 -118 11 -73 7 -83 10 -87 29 -12 63 -22 816 -11
835 5 8 116 16 196 14 219 -6 1782 -23 2195 -24 198 0 842 7 1505 17 212 3
441 5 510 4 69 0 137 3 152 7 29 8 592 8 715 -1z m1658 -936 c-3 -5 -10 -10
-16 -10 -5 0 -9 5 -9 10 0 6 7 10 16 10 8 0 12 -4 9 -10z m-5326 -75 c1 -18 0
-18 -15 -3 -11 11 -14 23 -9 39 8 23 8 23 16 4 4 -11 8 -29 8 -40z m176 35 c3
-5 -1 -10 -10 -10 -9 0 -13 5 -10 10 3 6 8 10 10 10 2 0 7 -4 10 -10z m1065 2
c0 -4 -9 -13 -20 -20 -19 -12 -20 -11 -8 8 13 20 28 27 28 12z m-1635 -11 c3
-5 1 -12 -5 -16 -5 -3 -10 1 -10 9 0 18 6 21 15 7z m435 -7 c0 -8 -4 -12 -10
-9 -5 3 -10 10 -10 16 0 5 5 9 10 9 6 0 10 -7 10 -16z m267 -6 c-3 -8 -6 -5
-6 6 -1 11 2 17 5 13 3 -3 4 -12 1 -19z m333 -28 c0 -5 -5 -10 -11 -10 -5 0
-7 5 -4 10 3 6 8 10 11 10 2 0 4 -4 4 -10z"/>
<path d="M1688 3929 c-20 -11 -24 -34 -8 -44 15 -9 40 14 40 36 0 21 -7 23
-32 8z"/>
<path d="M1561 3621 c-15 -28 -14 -51 3 -51 21 0 48 30 44 49 -5 24 -35 25
-47 2z"/>
<path d="M1662 3625 c-28 -20 -28 -36 0 -54 19 -12 23 -11 35 5 16 22 16 26 0
47 -11 16 -14 16 -35 2z"/>
<path d="M1630 3014 c-106 -35 -168 -74 -174 -106 -5 -29 -59 -100 -129 -167
-40 -39 -87 -89 -103 -111 -16 -22 -42 -45 -59 -51 -44 -18 -105 -62 -105 -76
0 -17 6 -16 56 3 24 9 41 21 38 28 -2 6 7 12 21 12 28 2 86 39 143 91 34 31
35 34 17 46 -10 8 -15 19 -11 25 10 16 36 15 36 0 0 -7 11 -2 23 12 12 14 39
38 60 53 23 17 37 36 37 50 0 17 2 19 10 7 8 -12 14 -12 45 3 48 23 105 69
105 85 0 17 -25 15 -44 -3 -17 -17 -46 -20 -46 -5 0 9 17 26 60 63 9 7 35 11
66 9 41 -3 53 0 58 13 14 38 -25 45 -104 19z m-328 -376 c-7 -7 -12 -8 -12 -2
0 14 12 26 19 19 2 -3 -1 -11 -7 -17z"/>
<path d="M1838 3005 c-44 -23 -48 -35 -13 -35 14 0 25 5 25 10 0 6 24 10 54
10 47 0 59 -4 97 -35 23 -20 48 -34 56 -30 8 3 17 5 19 5 2 0 4 11 4 24 0 14
-12 33 -32 49 -28 23 -39 26 -102 25 -50 -2 -82 -8 -108 -23z"/>
<path d="M2243 2923 c-18 -6 -16 -33 1 -33 19 0 31 19 20 30 -5 4 -15 5 -21 3z"/>
<path d="M1007 2476 c-10 -10 -17 -12 -25 -4 -11 11 -72 1 -72 -12 0 -5 -6 -7
-14 -4 -8 3 -19 -3 -25 -15 -17 -30 -14 -34 22 -26 17 4 51 8 74 10 47 4 111
44 91 57 -19 12 -35 10 -51 -6z"/>
<path d="M570 2443 c-33 -6 -73 -44 -61 -56 7 -7 15 -6 23 1 22 17 92 30 117
20 22 -8 84 -11 162 -9 31 1 37 5 41 26 4 17 1 25 -8 25 -8 0 -14 -5 -14 -11
0 -5 -4 -7 -10 -4 -12 8 -216 14 -250 8z"/>
<path d="M4110 2350 c0 -5 5 -10 10 -10 6 0 10 5 10 10 0 6 -4 10 -10 10 -5 0
-10 -4 -10 -10z"/>
<path d="M4251 2326 c-39 -20 -78 -25 -126 -16 -22 5 -35 -1 -35 -14 0 -18 58
-29 108 -21 139 23 170 39 123 65 -24 12 -17 14 -70 -14z"/>
<path d="M5855 2420 c-32 -17 -64 -29 -72 -26 -7 3 -13 1 -13 -4 0 -6 -9 -1
-20 10 -21 21 -37 24 -64 14 -24 -9 -19 -21 15 -33 36 -12 37 -44 1 -49 -12
-2 -22 -7 -22 -11 0 -4 -13 -6 -30 -3 -27 4 -30 1 -30 -22 0 -29 3 -31 31 -16
13 8 25 7 39 0 29 -16 47 -7 115 55 33 30 65 55 70 55 6 0 4 4 -3 9 -8 4 8 7
39 5 33 -1 62 -10 80 -23 l28 -21 -1 30 c-1 38 -16 50 -66 56 -30 3 -52 -2
-97 -26z"/>
<path d="M7480 2405 c-9 -11 -32 -15 -83 -15 -56 0 -68 -3 -59 -12 17 -17 178
-16 220 1 36 15 133 18 195 6 21 -4 37 -3 37 2 0 19 -69 32 -181 33 -93 1
-118 -2 -129 -15z"/>
<path d="M7593 1685 c-7 -19 24 -55 48 -55 22 0 35 36 19 55 -16 20 -59 19
-67 0z"/>
<path d="M1679 1336 c-2 -3 -35 -10 -72 -16 -46 -7 -81 -20 -114 -42 -54 -37
-69 -52 -118 -124 -30 -45 -34 -60 -36 -120 -2 -51 4 -90 21 -143 22 -71 24
-73 95 -121 43 -29 85 -49 106 -51 19 -2 40 -7 46 -12 7 -5 19 -7 27 -4 7 3
17 2 22 -3 11 -9 134 10 134 22 0 4 10 8 23 8 27 0 60 35 55 58 -3 17 -92 41
-158 42 -46 0 -110 23 -125 44 -7 9 -17 16 -23 16 -5 0 -13 11 -16 25 -4 14
-10 25 -15 25 -5 0 -22 25 -36 57 -31 65 -30 90 8 173 20 44 33 58 59 68 53
19 112 15 152 -10 30 -19 35 -27 30 -48 -20 -91 -16 -97 45 -79 61 18 91 48
97 94 5 36 1 44 -35 84 -30 32 -46 42 -61 38 -19 -5 -51 1 -91 17 -8 4 -17 4
-20 2z m121 -546 c0 -5 -4 -10 -10 -10 -5 0 -10 5 -10 10 0 6 5 10 10 10 6 0
10 -4 10 -10z"/>
<path d="M5543 1319 c-25 -9 -26 -10 -17 -33 4 -10 18 -16 35 -16 l29 0 -5
-87 c-3 -49 -7 -152 -9 -229 -2 -78 -8 -149 -13 -159 -5 -9 -20 -22 -33 -28
-39 -20 -35 -35 12 -41 113 -14 127 -14 145 0 17 13 17 15 -9 37 -25 21 -27
28 -33 137 -6 128 -6 212 1 219 7 7 55 -42 71 -74 9 -16 19 -32 23 -35 14 -9
80 -100 80 -110 0 -5 15 -25 33 -43 17 -19 42 -50 55 -68 13 -19 29 -43 36
-53 12 -18 18 -18 71 -8 32 7 61 15 64 18 7 6 7 72 0 329 l-4 180 28 0 c17 0
34 8 43 19 13 18 12 21 -14 32 -16 6 -59 13 -97 15 -56 3 -70 1 -79 -13 -8
-13 -7 -21 3 -30 11 -11 14 -11 18 0 4 10 8 9 18 -4 8 -12 10 -28 4 -53 -5
-21 -4 -69 3 -117 12 -94 6 -137 -20 -132 -9 2 -26 18 -37 36 -11 18 -50 65
-87 105 -37 39 -70 84 -73 99 -4 15 -15 30 -26 33 -10 4 -22 17 -25 30 -7 29
-55 48 -100 39 -17 -3 -40 -1 -50 4 -11 6 -28 6 -41 1z"/>
<path d="M863 1312 c-31 -5 -51 -31 -32 -43 8 -5 22 -9 32 -9 19 0 22 -20 8
-48 -5 -9 -24 -55 -41 -102 -18 -47 -39 -101 -46 -120 -7 -19 -21 -62 -30 -95
-22 -79 -39 -112 -63 -120 -13 -4 -18 -11 -14 -22 4 -11 2 -14 -5 -9 -7 4 -12
3 -12 -3 0 -17 19 -23 82 -22 73 0 88 12 92 72 5 74 37 183 60 203 18 16 31
18 95 12 75 -6 101 -17 101 -42 0 -8 9 -40 20 -71 25 -70 25 -102 3 -142 -26
-45 -11 -53 107 -57 98 -3 101 -2 112 21 12 27 1 42 -41 61 -18 8 -29 27 -47
92 -13 45 -26 96 -28 114 -3 18 -9 47 -15 63 -5 17 -12 44 -15 60 -3 17 -11
48 -17 70 -7 22 -13 60 -13 84 -1 25 -6 46 -11 47 -16 4 -258 9 -282 6z m167
-114 c6 -24 18 -56 26 -71 10 -21 11 -34 3 -48 -9 -18 -17 -19 -72 -13 -75 8
-77 9 -77 38 0 63 46 136 86 136 19 0 25 -8 34 -42z"/>
<path d="M2039 1302 c-8 -2 -20 -11 -27 -20 -10 -13 -8 -20 14 -43 l26 -27 -9
-164 c-5 -90 -8 -181 -7 -203 1 -31 -4 -46 -23 -67 -48 -51 -35 -55 179 -54
185 1 194 2 225 24 18 13 36 35 39 50 4 15 15 35 25 45 23 22 24 37 3 37 -16
0 -63 -43 -80 -72 -8 -15 -26 -18 -106 -19 -66 -1 -102 2 -113 11 -12 10 -15
36 -15 121 0 101 1 109 20 109 14 0 21 -9 26 -34 6 -37 30 -54 48 -36 15 15
14 172 -1 177 -7 2 -22 -7 -34 -21 -13 -14 -31 -26 -41 -26 -15 0 -18 9 -18
64 0 39 5 68 13 74 12 10 132 10 143 0 2 -3 8 -23 11 -44 8 -49 31 -86 51 -82
24 5 42 88 30 143 -5 26 -15 48 -21 50 -16 6 -341 12 -358 7z"/>
<path d="M6319 1289 c-20 -20 -25 -48 -9 -50 6 -1 15 -2 21 -3 6 0 17 -12 24
-26 19 -35 9 -408 -11 -431 -8 -8 -14 -25 -14 -37 0 -23 11 -25 152 -27 25 0
50 -3 54 -7 16 -16 56 -8 61 12 6 24 23 27 23 4 0 -16 14 -14 79 12 18 8 37
11 42 9 4 -3 17 3 29 15 11 11 20 17 20 13 0 -5 6 -1 13 8 7 8 20 18 30 22 9
3 33 41 53 82 34 72 36 80 29 143 -5 48 -15 80 -35 112 -40 63 -102 121 -133
124 -14 1 -37 10 -52 20 -21 14 -55 18 -192 20 -151 3 -167 2 -184 -15z m388
-61 c41 -33 63 -225 39 -341 -13 -65 -37 -91 -93 -102 -17 -3 -34 -11 -37 -18
-3 -9 -7 -9 -14 2 -5 7 -20 14 -33 15 -17 1 -25 9 -31 31 -10 42 -24 287 -20
363 3 58 4 62 27 62 14 0 25 4 25 8 0 11 121 -7 137 -20z m93 -178 c0 -5 -5
-10 -11 -10 -5 0 -7 5 -4 10 3 6 8 10 11 10 2 0 4 -4 4 -10z"/>
<path d="M7255 1295 c-97 -33 -131 -77 -126 -162 1 -32 66 -100 107 -113 22
-7 58 -9 94 -5 85 10 113 1 138 -44 22 -40 22 -80 -1 -126 -14 -28 -27 -35
-69 -35 -24 0 -38 -5 -38 -12 0 -10 -2 -10 -8 -1 -4 6 -35 15 -69 18 -66 8
-73 15 -73 78 0 23 -4 27 -30 27 -38 0 -91 -46 -115 -100 -10 -22 -22 -40 -27
-40 -15 0 -8 -29 10 -39 19 -10 100 -7 137 6 27 9 102 5 123 -6 22 -12 171 -1
202 15 14 7 41 27 60 43 32 27 34 33 38 100 6 100 -4 113 -123 162 -26 11 -76
17 -151 20 l-62 2 -32 54 c-30 49 -32 56 -20 79 18 33 49 39 132 24 59 -10 75
-17 104 -49 18 -20 34 -41 34 -47 0 -18 37 -23 57 -9 13 9 18 29 19 76 4 95 7
93 -148 94 -73 0 -146 -5 -163 -10z"/>
<path d="M4537 1288 c-9 -5 -9 -10 -1 -18 17 -17 58 -8 62 12 3 14 -3 17 -23
16 -14 -1 -31 -6 -38 -10z"/>
<path d="M4613 1264 c4 -26 -1 -51 -18 -91 -14 -30 -24 -57 -23 -61 2 -9 -10
-40 -27 -72 -7 -14 -16 -40 -20 -57 -10 -49 -45 -45 -75 9 -41 73 -115 170
-136 178 -28 11 -74 -3 -74 -22 -1 -7 -14 -29 -30 -48 -17 -19 -30 -37 -30
-41 0 -4 -17 -25 -37 -46 -21 -22 -44 -48 -51 -57 -38 -48 -65 -11 -168 231
-8 17 -14 42 -14 56 0 42 -21 50 -105 42 -73 -7 -112 -25 -99 -46 3 -6 20 -9
37 -7 29 3 32 -1 73 -82 24 -47 53 -116 65 -155 30 -96 59 -166 78 -189 9 -10
16 -36 16 -60 l0 -41 90 -1 c50 -1 96 3 103 9 19 15 15 49 -5 47 -39 -4 -62
12 -69 47 -5 27 -2 38 14 53 11 11 23 28 27 39 3 10 12 22 20 25 8 3 15 15 15
26 0 11 7 23 15 26 8 4 15 12 15 18 0 17 43 56 62 56 9 0 30 -16 47 -35 17
-19 35 -35 41 -35 5 0 10 -5 10 -10 0 -12 44 -82 78 -124 31 -39 27 -81 -8
-82 -33 0 -52 -12 -48 -31 4 -21 172 -22 176 -1 2 8 -4 21 -13 28 -8 7 -15 22
-15 34 0 22 24 107 39 141 18 40 80 201 91 240 19 62 25 70 56 71 51 2 54 4
54 23 0 15 -10 19 -52 25 -29 3 -66 6 -82 6 -27 0 -28 -2 -23 -36z"/>
<path d="M4948 1293 c-27 -7 -21 -23 12 -34 43 -16 43 -33 -1 -131 -16 -36
-32 -75 -34 -86 -6 -33 -34 -112 -60 -169 -14 -29 -25 -60 -25 -67 0 -16 -32
-46 -49 -46 -9 0 -9 -5 -1 -20 6 -11 15 -18 20 -15 5 3 11 2 14 -3 3 -5 36 -9
75 -9 61 -1 70 1 74 18 4 15 -1 23 -19 29 -37 14 -32 65 20 184 l21 49 80 -6
c111 -9 123 -13 130 -51 3 -17 13 -61 22 -98 8 -37 12 -75 9 -85 -4 -10 -6
-20 -4 -23 2 -3 47 -5 100 -5 94 0 98 1 98 22 0 15 -7 23 -22 25 -20 3 -27 18
-55 128 -17 69 -32 125 -33 125 -1 0 -3 11 -6 25 -2 14 -11 63 -20 109 -12 60
-13 86 -5 94 6 6 11 17 11 24 0 15 -46 18 -55 3 -4 -6 -11 -8 -16 -4 -5 3 -51
7 -102 10 -51 2 -108 6 -127 8 -19 2 -43 2 -52 -1z m317 -33 c3 -5 1 -10 -4
-10 -6 0 -11 5 -11 10 0 6 2 10 4 10 3 0 8 -4 11 -10z m-126 -52 c11 -28 31
-136 31 -166 0 -19 -5 -21 -69 -20 -95 1 -99 4 -67 71 14 31 26 58 26 62 0 14
46 75 58 75 7 0 16 -10 21 -22z"/>
<path d="M3030 943 c-8 -2 -21 -7 -29 -9 -11 -4 -11 -7 0 -21 12 -15 12 -16
-3 -10 -42 15 -82 -75 -54 -118 36 -55 58 -67 113 -63 47 4 58 10 98 50 l44
45 -25 51 c-22 43 -31 53 -71 66 -50 17 -50 17 -73 9z m34 -72 c20 -22 18 -63
-4 -66 -8 -1 -25 1 -38 6 -19 7 -22 14 -16 31 7 26 23 48 34 48 4 0 15 -9 24
-19z"/>
<path d="M6305 760 c-3 -5 -1 -10 4 -10 6 0 11 5 11 10 0 6 -2 10 -4 10 -3 0
-8 -4 -11 -10z"/>
<path d="M2888 13258 c-20 -36 -31 -52 -65 -98 -18 -24 -33 -51 -33 -61 0 -34
19 -30 44 10 14 22 34 46 46 54 13 9 18 20 14 30 -5 15 -3 15 26 1 39 -20 65
-61 88 -136 17 -59 34 -72 51 -40 6 11 4 39 -7 82 -15 55 -25 73 -73 122 -32
32 -62 58 -68 58 -5 0 -16 -10 -23 -22z"/>
<path d="M3441 13163 c-19 -13 -46 -16 -119 -16 -90 1 -98 -1 -142 -30 -44
-29 -88 -87 -100 -132 -4 -15 -19 -22 -58 -29 -39 -7 -52 -14 -52 -27 0 -20
-36 -49 -61 -49 -9 0 -28 9 -41 20 -20 15 -27 32 -32 80 -5 41 -11 60 -21 60
-23 0 -32 -28 -28 -83 5 -64 21 -97 45 -97 10 0 18 -5 18 -11 0 -8 14 -9 44
-5 42 7 45 5 75 -31 34 -41 36 -50 20 -105 -6 -25 -19 -43 -37 -52 -16 -8 -37
-31 -48 -51 -10 -20 -31 -43 -47 -51 -24 -13 -30 -13 -52 3 -13 10 -25 23 -25
29 0 24 -64 23 -108 -2 -57 -33 -76 -66 -84 -144 -3 -36 -14 -94 -24 -129 -14
-50 -15 -67 -6 -82 9 -15 9 -19 0 -19 -6 0 -9 -3 -5 -6 3 -3 21 -1 39 5 18 6
64 13 101 16 46 3 78 11 97 25 15 11 32 20 37 20 18 0 60 56 76 100 21 57 22
94 2 110 -18 15 -20 46 -2 57 7 4 20 21 30 36 19 29 37 28 37 -1 0 -16 43 -86
114 -184 l33 -47 -20 -71 c-21 -69 -21 -73 -5 -152 12 -58 27 -95 49 -126 37
-51 50 -98 55 -197 2 -38 10 -124 18 -190 9 -66 18 -226 21 -355 4 -129 8
-237 10 -241 6 -9 7 -161 1 -186 -18 -80 -27 -870 -12 -1013 7 -61 9 -113 5
-116 -4 -2 -19 0 -34 6 -20 8 -34 7 -56 -4 -26 -13 -31 -13 -44 0 -8 9 -17 25
-19 37 -3 12 -7 33 -10 47 -10 52 -40 126 -63 153 -13 16 -23 32 -23 36 0 13
-96 111 -109 111 -9 0 -11 9 -6 29 3 17 2 32 -4 36 -20 12 -11 41 19 63 16 12
34 22 40 22 54 0 130 97 130 164 0 44 -40 180 -57 197 -14 14 -46 -3 -98 -52
-22 -20 -59 -55 -81 -76 -52 -48 -99 -150 -90 -198 4 -18 18 -45 31 -59 14
-15 25 -38 25 -51 0 -14 11 -31 27 -43 15 -11 23 -24 19 -30 -11 -19 -51 -14
-80 9 -17 13 -44 22 -70 23 -50 2 -77 19 -99 62 -9 18 -32 47 -51 65 -32 30
-35 36 -29 74 4 35 1 46 -22 74 l-28 32 -89 -6 c-49 -3 -100 -10 -112 -15 -26
-10 -66 -56 -66 -76 0 -16 -41 -39 -87 -49 -65 -13 -61 -64 10 -127 32 -29 58
-41 114 -54 96 -23 125 -14 256 78 14 11 19 10 27 -2 5 -8 10 -18 10 -21 0 -6
-73 -102 -97 -127 -20 -21 -16 -54 18 -139 16 -43 31 -96 33 -118 2 -38 4 -40
37 -40 39 0 101 34 94 52 -2 7 11 21 29 32 44 28 82 85 97 146 7 28 16 54 20
58 12 15 119 15 119 1 0 -7 9 -19 20 -27 67 -47 146 -219 121 -265 -6 -11 -11
-33 -11 -47 0 -34 45 -93 73 -97 19 -3 23 -11 27 -56 5 -49 8 -56 45 -81 45
-31 40 -5 50 -266 3 -77 7 -268 9 -425 7 -536 16 -942 21 -951 3 -5 6 -187 6
-406 0 -299 3 -399 12 -405 9 -6 9 -8 0 -8 -9 0 -13 -16 -13 -47 0 -43 -2 -48
-23 -49 -13 -1 -46 -16 -75 -34 -55 -33 -177 -88 -272 -121 -80 -28 -125 -62
-164 -123 -43 -67 -46 -85 -51 -261 -2 -77 -4 -143 -4 -146 -2 -11 -108 -79
-123 -79 -36 0 -64 -54 -77 -146 -13 -95 -27 -158 -42 -186 -5 -10 -6 -44 -3
-77 7 -58 9 -61 82 -135 l75 -75 -51 -49 c-68 -66 -84 -106 -86 -217 -1 -95 7
-199 19 -227 4 -9 30 -33 58 -52 44 -30 71 -40 120 -45 13 -2 8 -21 -14 -50
-27 -37 -42 -153 -29 -223 14 -74 81 -141 165 -167 33 -10 96 -33 140 -49 44
-17 91 -33 105 -36 36 -6 120 -26 155 -37 17 -4 40 -6 53 -2 23 6 23 5 21 -85
-1 -49 1 -95 5 -101 4 -6 2 -45 -3 -87 -18 -127 -14 -429 9 -649 8 -84 21
-312 21 -379 0 -33 17 -53 61 -74 67 -31 139 -35 204 -11 31 12 58 28 61 37 3
10 18 27 32 39 25 20 26 27 29 125 1 56 7 113 14 125 8 17 8 37 -2 82 -7 33
-10 79 -6 103 8 58 20 197 19 228 -1 14 4 86 9 161 7 93 7 161 0 215 -8 59 -7
97 2 152 7 40 16 75 19 79 8 8 286 7 294 -1 7 -7 53 3 69 15 5 4 20 6 32 2 17
-4 22 -1 22 16 0 20 -3 20 -92 15 -91 -6 -156 -7 -270 -5 -55 1 -57 2 -68 35
-10 31 -8 41 16 90 15 31 31 53 36 50 14 -9 38 62 34 103 -2 21 -8 48 -15 60
-15 28 -73 73 -94 73 -34 0 -15 28 32 49 54 23 107 79 116 122 7 31 -8 67 -37
87 -27 19 -7 52 32 52 62 0 76 36 70 177 -2 57 0 62 19 60 12 -1 21 -6 21 -12
0 -5 5 -2 11 8 8 13 0 34 -35 97 -53 95 -86 218 -92 345 -2 50 -7 119 -11 155
-4 36 -6 76 -5 90 2 22 -10 86 -35 188 -3 13 -34 80 -69 149 -35 69 -64 136
-64 148 0 13 -12 58 -27 101 -23 68 -27 96 -27 204 0 69 6 167 13 219 15 102
21 110 121 207 49 48 78 54 105 24 19 -21 14 -50 -8 -50 -17 0 -64 -24 -96
-49 -29 -22 -44 -111 -35 -201 9 -86 22 -119 51 -126 37 -10 155 5 174 22 8 7
24 14 35 14 17 0 19 -6 16 -44 -3 -34 3 -60 27 -111 17 -36 31 -69 31 -75 0
-5 6 -13 13 -17 7 -4 22 -22 33 -39 62 -98 80 -123 90 -124 6 0 24 -19 40 -42
16 -24 37 -52 47 -62 9 -11 17 -26 17 -33 0 -7 13 -19 29 -28 18 -9 35 -29 42
-49 8 -22 20 -36 33 -38 13 -2 24 -14 30 -35 5 -18 16 -35 25 -38 9 -3 35 -36
59 -73 42 -65 111 -152 123 -152 15 0 104 -95 137 -147 51 -79 61 -104 68
-171 4 -31 11 -65 16 -75 16 -31 33 -13 33 34 0 43 1 44 31 43 17 -1 46 -8 65
-17 45 -20 151 -40 213 -41 174 -2 376 9 376 20 0 9 -43 11 -177 8 -245 -6
-330 11 -469 93 -63 37 -73 48 -101 105 -22 43 -63 96 -132 168 -56 58 -132
150 -171 205 -38 55 -99 135 -135 179 -36 43 -65 82 -65 87 0 12 -96 127 -141
170 -22 20 -39 42 -39 48 0 7 -13 29 -29 49 -36 46 -78 151 -92 231 -6 34 -15
59 -19 56 -5 -3 -6 10 -3 28 3 18 0 51 -7 73 -6 21 -14 57 -17 79 -3 22 -7 42
-9 44 -22 23 -25 -140 -4 -213 12 -43 11 -47 -13 -75 -13 -16 -27 -27 -30 -24
-4 3 -27 6 -52 8 -57 3 -85 26 -85 71 0 18 -5 36 -10 39 -12 7 -3 129 11 157
12 22 57 31 107 20 40 -9 42 -9 57 20 13 26 13 34 0 58 -20 38 -61 62 -111 65
-55 4 -67 12 -60 39 9 35 10 331 1 345 -4 8 -2 17 6 22 11 6 15 48 17 181 2
137 6 176 18 189 10 11 17 42 19 86 3 64 32 164 65 223 35 62 60 124 60 150 0
47 29 112 66 148 32 31 36 39 31 74 -3 22 -14 46 -24 53 -17 14 -16 16 12 40
50 43 113 63 143 46 13 -7 17 -23 17 -66 0 -60 11 -75 54 -75 20 0 22 4 17 25
-3 14 -9 36 -12 49 -8 32 22 48 84 44 41 -3 47 -1 47 17 0 14 -10 23 -34 31
-34 11 -57 37 -46 53 3 5 21 8 39 6 67 -6 113 -58 121 -136 7 -68 -3 -87 -40
-71 -14 7 -38 12 -53 12 -15 0 -33 4 -41 9 -20 13 -51 1 -51 -20 0 -13 7 -19
24 -19 14 0 27 -4 31 -9 3 -5 30 -15 60 -21 30 -6 57 -16 60 -21 4 -5 15 -9
26 -9 15 0 19 7 19 39 0 21 6 54 14 72 16 39 8 117 -14 144 -30 37 -99 75
-137 77 -47 1 -75 -13 -103 -52 -20 -28 -26 -30 -81 -30 -35 0 -59 4 -59 11 0
20 45 93 73 117 22 19 27 32 27 68 0 37 3 44 19 44 33 0 29 23 -12 62 -22 21
-44 38 -48 38 -4 0 -15 -10 -23 -21 -9 -13 -21 -19 -30 -16 -12 5 -16 22 -16
75 0 77 22 124 73 152 26 14 29 14 47 -10 42 -54 55 -93 54 -162 -1 -49 2 -68
11 -68 17 0 29 18 45 67 11 35 11 51 1 85 -16 54 -93 178 -110 178 -4 0 -35
-26 -69 -58 -59 -56 -112 -143 -112 -184 0 -28 -26 -21 -59 15 -25 26 -34 30
-48 21 -11 -7 -19 -26 -21 -50 -2 -21 -14 -52 -26 -69 -12 -16 -25 -38 -29
-48 -16 -42 69 -157 116 -157 32 0 43 -15 50 -72 7 -51 5 -54 -37 -62 -16 -3
-36 -12 -46 -21 -9 -8 -21 -15 -26 -15 -5 -1 -25 -14 -44 -30 -46 -40 -64 -39
-58 2 3 18 -1 73 -8 122 -11 75 -16 185 -15 331 3 447 12 831 20 870 15 75 21
190 26 505 3 157 9 330 14 385 10 117 8 298 -7 440 -8 81 -7 110 5 153 8 29
12 61 8 70 -5 14 -11 12 -36 -15 -32 -37 -44 -40 -53 -17 -7 17 -49 13 -73 -8
-21 -17 -15 -29 12 -22 14 3 36 3 50 0 22 -6 25 -12 25 -51 0 -53 -9 -60 -55
-44 -26 10 -40 10 -60 1 -41 -19 -25 -36 46 -47 l64 -10 3 -44 3 -43 -27 21
c-29 23 -92 28 -125 11 -31 -17 -22 -27 34 -34 130 -17 124 -15 130 -49 6 -42
-8 -365 -16 -374 -7 -6 -37 57 -37 76 0 6 10 16 22 22 l22 12 -24 19 c-23 18
-23 18 -45 -2 -22 -20 -25 -21 -53 -6 -42 22 -105 20 -151 -4 -35 -18 -58 -46
-47 -58 3 -2 23 3 46 12 66 26 112 21 148 -15 17 -18 38 -47 47 -65 20 -43 30
-48 50 -28 22 23 26 15 25 -52 -1 -55 0 -78 3 -144 1 -25 -9 -271 -19 -465 -4
-96 -11 -152 -21 -167 -2 -4 -15 0 -29 9 -20 13 -30 14 -50 4 -40 -18 -27 -44
25 -53 25 -4 48 -13 53 -20 5 -7 6 -40 3 -73 -7 -64 -7 -640 0 -992 l4 -213
-22 0 c-23 0 -47 -17 -47 -32 0 -4 9 -8 19 -8 36 0 31 -18 -11 -44 -66 -39
-122 -91 -114 -104 11 -18 41 -14 61 8 10 11 24 20 32 20 22 0 15 -27 -15 -52
-16 -13 -37 -38 -47 -56 -18 -30 -18 -33 -3 -49 21 -21 42 -6 58 40 10 32 65
72 119 87 21 5 31 20 51 76 16 43 31 69 40 69 18 0 26 -41 11 -59 -16 -19 -25
-92 -12 -101 8 -4 3 -13 -14 -27 -14 -10 -25 -28 -25 -39 0 -10 -7 -19 -15
-19 -22 0 -38 -36 -25 -60 6 -11 15 -20 20 -20 6 0 10 -8 10 -19 0 -14 -6 -17
-25 -13 -32 6 -42 -19 -26 -64 10 -27 10 -41 0 -69 -7 -19 -18 -35 -24 -35
-21 0 -55 50 -61 90 -7 44 -22 50 -48 22 -11 -13 -14 -28 -10 -50 5 -26 3 -32
-10 -32 -9 0 -21 -10 -27 -23 -24 -52 50 -141 111 -135 22 3 25 -1 28 -29 3
-33 3 -33 -41 -33 -42 0 -75 -19 -60 -33 3 -4 23 -7 44 -7 43 0 46 -5 51 -94
l3 -59 -55 -1 c-63 -1 -75 -20 -15 -23 22 -1 45 -2 51 -2 11 -1 9 -269 -2
-280 -2 -3 -24 -4 -47 -2 -45 2 -105 -15 -92 -27 4 -4 37 -7 73 -7 l67 0 -2
-116 -1 -115 -34 -36 c-100 -108 -123 -170 -133 -348 -5 -110 -3 -143 9 -179
9 -24 16 -58 16 -75 0 -17 12 -67 26 -110 13 -44 23 -85 20 -91 -11 -29 -93
11 -98 48 -3 19 -9 22 -48 20 -25 -2 -61 -5 -81 -8 -27 -4 -38 -1 -43 10 -12
33 4 45 60 45 48 0 54 2 54 21 0 19 -4 20 -56 13 l-56 -7 4 29 c3 26 8 30 43
34 28 4 41 10 43 23 3 16 -1 18 -41 12 -41 -6 -46 -5 -52 15 -11 34 17 57 50
42 28 -13 55 -7 55 13 0 19 -21 32 -63 40 -31 6 -38 11 -35 29 2 16 9 20 28
18 73 -9 75 -8 75 18 0 21 -6 26 -34 30 -49 7 -49 26 0 33 83 11 76 46 -11 55
-80 7 -78 44 3 40 55 -3 67 16 26 41 -39 24 -50 26 -66 10 -17 -17 -33 -1 -33
31 0 28 20 44 80 63 10 3 6 8 -13 16 -32 13 -31 34 1 39 13 2 22 11 22 22 0
20 -23 33 -36 20 -13 -13 -46 16 -42 37 2 13 13 18 40 18 42 1 53 8 45 30 -4
9 -19 15 -41 15 -26 0 -36 5 -41 20 -10 33 13 51 59 48 35 -3 41 0 41 16 0 26
-51 43 -78 27 -26 -17 -38 -2 -29 34 6 22 15 31 34 33 47 6 42 44 -7 54 -14 2
-20 11 -20 28 0 20 5 25 27 25 15 0 32 5 39 12 12 12 9 14 -59 38 -22 8 -8 29
26 37 36 10 43 35 10 40 -35 5 -34 28 1 28 38 0 48 16 25 41 -13 14 -27 19
-46 17 -22 -4 -28 0 -28 13 0 10 8 23 18 29 12 8 13 13 5 16 -17 7 -16 24 1
24 7 0 19 6 25 14 17 20 -11 45 -43 39 -24 -5 -26 -2 -26 29 0 33 0 33 40 30
31 -3 40 -1 40 12 0 18 -28 35 -55 33 -15 -2 -21 5 -23 27 -5 37 11 51 53 47
25 -2 35 2 35 12 0 21 -28 41 -58 42 -24 0 -27 5 -30 38 -2 28 0 37 12 37 9 0
16 -4 16 -9 0 -13 57 -34 75 -28 23 10 -41 116 -66 110 -15 -4 -19 0 -19 21 0
21 5 26 24 26 33 0 46 38 20 57 -10 7 -26 13 -35 13 -25 0 -27 6 -30 103 -3
89 2 110 23 89 17 -17 48 -15 55 3 7 19 -23 44 -54 45 -19 0 -23 6 -23 29 0
33 17 43 59 35 34 -7 50 11 29 32 -17 17 -44 20 -71 9 -16 -7 -18 -4 -15 21 3
28 5 29 51 26 52 -3 62 11 28 42 -14 13 -28 16 -50 11 -29 -6 -31 -5 -31 24 0
33 0 33 80 35 20 1 25 6 25 26 0 22 -4 25 -30 22 -16 -2 -36 -9 -42 -14 -24
-19 -43 -1 -43 42 l0 41 34 -6 c41 -8 78 9 69 31 -5 13 -16 15 -55 11 l-49 -6
3 37 c3 39 1 38 76 41 15 1 22 7 22 22 0 19 -5 21 -44 17 -38 -3 -46 0 -50 17
-11 41 -6 65 17 76 25 11 81 105 72 120 -10 14 -33 11 -43 -7 -16 -28 -30 -7
-25 35 7 52 -12 63 -45 25 l-25 -28 -32 37 c-33 39 -52 104 -35 121 6 6 10 23
10 38 0 33 7 34 54 11 32 -15 36 -15 60 1 17 10 26 26 26 41 0 18 8 28 25 35
14 5 25 16 25 23 0 8 -11 19 -25 25 -17 8 -25 20 -25 37 0 22 4 25 35 25 23 0
38 6 42 16 8 20 -13 34 -53 34 -29 0 -32 3 -36 35 -3 28 -1 34 12 31 59 -17
80 -17 86 -2 9 24 -14 45 -57 52 -33 6 -39 10 -39 31 0 24 2 25 44 19 52 -8
67 5 40 35 -13 14 -28 19 -54 17 -34 -3 -35 -2 -35 32 l0 35 58 -3 c49 -2 57
0 57 16 0 20 -49 42 -94 42 -24 0 -27 3 -24 27 2 18 9 27 23 28 11 1 25 4 30
5 6 2 23 0 38 -5 42 -11 59 10 28 36 -29 23 -64 24 -86 2 -14 -14 -18 -14 -26
-2 -12 19 -11 22 5 44 10 14 27 18 72 19 47 1 59 4 62 18 5 25 -68 46 -104 30
-34 -16 -34 -16 -34 13 0 29 31 41 86 32 47 -8 56 15 18 49 l-27 26 23 18 23
17 -26 18 c-20 12 -37 15 -67 10 -37 -6 -40 -5 -40 17 0 40 12 49 47 36 33
-12 63 -6 63 14 0 19 -62 50 -83 42 -19 -7 -20 0 -17 111 2 76 11 95 45 95 27
0 35 8 28 26 -3 8 -19 14 -39 14 -26 0 -34 4 -34 18 0 32 16 45 48 39 41 -8
66 18 37 39 -11 8 -29 14 -40 13 -37 -2 -45 1 -45 20 0 21 41 41 80 38 16 -1
26 4 28 15 4 22 -26 30 -68 18 -25 -7 -36 -7 -42 3 -27 42 14 78 92 79 34 1
54 6 57 15 7 19 1 23 -42 33 -29 7 -44 4 -71 -12 -38 -23 -49 -20 -39 11 7 24
59 42 103 35 27 -4 32 -2 32 16 0 29 -45 45 -86 31 -42 -15 -44 -15 -44 17 0
35 30 65 67 66 21 1 28 6 28 21 0 11 -4 19 -10 19 -5 -1 -29 -5 -53 -9 -42 -7
-44 -6 -40 16 2 19 12 26 43 33 64 13 65 14 58 32 -5 13 -15 15 -53 10 -39 -5
-49 -3 -54 10 -10 26 4 36 48 33 22 -1 47 -1 54 0 19 2 14 29 -8 41 -36 19
-23 38 38 54 67 19 84 28 90 46 3 9 -4 11 -29 6 -46 -9 -47 -9 -101 4 -76 18
-60 35 33 35 59 0 83 4 87 14 8 20 -18 31 -75 31 -28 0 -55 5 -58 10 -3 6 -14
10 -25 10 -20 0 -80 63 -80 85 0 7 -8 16 -17 19 -10 3 -30 21 -45 40 -36 45
-57 186 -39 254 11 39 15 43 39 40 26 -3 27 -6 32 -76 3 -50 10 -76 20 -82 26
-16 39 -11 46 18 3 15 10 36 14 47 5 11 16 37 24 58 8 20 20 37 25 37 30 0 4
23 -54 50 -75 34 -75 41 -8 96 55 45 132 76 156 63 26 -15 21 -22 -27 -42 -53
-22 -83 -51 -65 -63 7 -4 17 -1 23 7 56 72 186 21 258 -102 42 -72 44 -85 23
-135 -16 -39 -13 -56 9 -48 20 8 34 45 41 111 6 48 3 67 -14 104 -26 54 -70
109 -91 112 -8 2 -21 6 -27 10 -7 5 -17 5 -23 2 -5 -3 -10 -2 -10 4 0 5 -14
11 -32 13 -49 5 -46 25 6 29 53 5 92 -10 125 -45 29 -31 38 -32 46 -6 5 15 15
20 38 20 31 -1 67 -19 67 -35 0 -4 22 -32 49 -60 36 -38 51 -63 55 -91 4 -22
13 -59 20 -83 10 -30 12 -50 5 -62 -5 -10 -9 -43 -9 -75 0 -76 -18 -132 -44
-140 -12 -3 -42 -26 -67 -50 -26 -25 -66 -52 -94 -62 -27 -10 -50 -23 -53 -30
-7 -23 27 -24 71 -3 24 12 49 21 55 21 7 0 12 5 12 12 0 6 3 8 7 5 11 -12 43
25 43 50 0 14 6 23 15 23 8 0 15 -2 15 -5 0 -17 -45 -114 -61 -131 -22 -24
-16 -54 11 -54 10 0 23 13 30 30 7 16 19 35 27 42 17 14 52 87 78 163 25 74
31 252 11 337 -16 68 -57 148 -76 148 -6 0 -19 15 -30 33 -30 50 -72 71 -133
64 -40 -5 -57 -2 -81 12 -18 12 -61 22 -103 26 -106 11 -189 -18 -280 -95 -37
-32 -73 -56 -79 -53 -16 6 -84 109 -84 127 0 8 20 26 44 40 47 27 62 26 106
-6 24 -17 61 -19 100 -5 8 3 27 8 42 11 34 8 168 136 168 161 0 10 7 23 16 30
22 16 10 53 -19 60 -46 10 -147 13 -153 4 -8 -13 -38 -11 -52 3 -9 9 1 25 43
69 30 32 55 64 55 71 0 7 11 30 26 51 22 32 24 43 17 79 -10 48 -20 54 -52 31z
m12 -49 c3 -4 -5 -27 -18 -53 -14 -25 -25 -51 -25 -56 0 -19 -73 -83 -112 -99
-21 -8 -38 -20 -38 -26 0 -6 -4 -8 -10 -5 -5 3 -19 1 -30 -5 -18 -9 -20 -8
-20 14 0 16 13 35 37 55 28 23 34 34 26 42 -16 16 -57 -11 -78 -51 -19 -36
-34 -38 -64 -6 -32 33 -22 69 32 119 51 48 81 60 127 52 19 -3 59 1 90 9 64
17 74 18 83 10z m-373 -189 c0 -14 6 -34 12 -45 11 -17 10 -25 -2 -48 -9 -15
-24 -28 -34 -30 -20 -4 -66 41 -66 65 0 21 20 54 29 49 5 -3 16 3 26 14 24 27
35 25 35 -5z m127 -110 c3 -9 -3 -25 -12 -35 -10 -11 -20 -42 -23 -69 -5 -57
-22 -78 -72 -87 l-33 -7 6 66 c6 64 16 92 46 130 18 22 79 23 88 2z m73 -3 c0
-4 37 -4 83 0 96 10 166 3 174 -18 3 -9 -8 -28 -29 -47 -18 -18 -43 -44 -53
-58 -18 -23 -49 -36 -133 -56 -26 -6 -68 12 -76 33 -7 18 23 47 40 40 16 -6
44 3 44 13 0 14 -46 29 -61 20 -8 -5 -22 -9 -32 -9 -14 0 -17 5 -11 23 13 40
54 86 54 59z m-524 -277 c4 -17 1 -32 -10 -44 -9 -10 -16 -32 -16 -49 0 -43
36 -46 46 -4 4 15 12 30 17 34 13 8 59 -9 69 -25 23 -37 -6 -108 -55 -133 -17
-9 -35 -21 -39 -27 -7 -11 -134 -14 -144 -4 -4 4 1 28 11 54 16 45 20 66 23
136 1 19 8 31 21 34 11 3 22 16 25 29 9 33 44 32 52 -1z m574 -1986 c0 -4 -9
-13 -20 -19 -17 -9 -20 -8 -20 8 0 10 3 21 6 25 8 8 34 -3 34 -14z m-352 -75
c19 -55 20 -147 2 -168 -15 -20 -80 -55 -122 -67 -34 -9 -55 8 -63 55 -5 26 0
47 24 95 17 33 35 61 39 61 4 0 25 16 47 35 21 20 44 34 50 32 5 -2 16 -21 23
-43z m-537 -125 c16 -25 10 -55 -16 -79 -26 -24 -26 -24 -5 -32 38 -14 21 -49
-40 -81 -48 -25 -62 -28 -108 -22 -74 9 -136 43 -140 76 -3 21 4 28 47 48 37
18 53 33 66 62 20 42 29 46 123 44 43 -1 67 -7 73 -16z m122 -294 c15 -19 35
-35 43 -35 11 0 13 -6 9 -20 -10 -32 5 -23 19 12 l14 32 16 -32 c18 -35 20
-69 7 -104 -12 -30 -128 -146 -139 -139 -5 3 -11 33 -14 67 -3 33 -15 79 -27
102 -12 23 -21 51 -21 63 0 22 44 89 58 89 4 0 20 -16 35 -35z m1657 -605 c0
-5 -4 -10 -10 -10 -5 0 -10 5 -10 10 0 6 5 10 10 10 6 0 10 -4 10 -10z m-284
-217 c14 -9 39 -36 55 -60 33 -47 33 -71 2 -109 -15 -17 -23 -20 -48 -13 -60
17 -100 126 -61 164 9 9 16 21 16 26 0 13 7 11 36 -8z m164 -137 c-14 -14 -24
0 -16 21 6 15 8 15 16 3 6 -9 5 -19 0 -24z m-170 -387 c0 -5 -4 -9 -10 -9 -5
0 -10 7 -10 16 0 8 5 12 10 9 6 -3 10 -10 10 -16z m-255 -89 c-3 -5 -10 -10
-16 -10 -5 0 -9 5 -9 10 0 6 7 10 16 10 8 0 12 -4 9 -10z m19 -468 c2 -4 -2
-16 -10 -26 -13 -19 -14 -19 -34 -1 -11 10 -20 22 -20 27 0 10 57 11 64 0z
m-397 -244 c-3 -8 -6 -5 -6 6 -1 11 2 17 5 13 3 -3 4 -12 1 -19z m9 -785 c-10
-10 -19 5 -10 18 6 11 8 11 12 0 2 -7 1 -15 -2 -18z m-82 -282 c6 -10 8 -186
4 -326 -3 -102 -13 -113 -62 -70 -34 29 -44 31 -53 9 -7 -18 33 -64 57 -64 31
0 43 -49 46 -192 3 -103 0 -138 -9 -140 -7 0 -16 -2 -22 -3 -5 -2 -27 -3 -47
-4 -25 -1 -38 -6 -38 -15 0 -18 29 -29 44 -18 6 5 24 12 39 14 23 4 31 1 39
-17 6 -13 55 -68 109 -124 117 -117 158 -191 167 -296 5 -63 -10 -125 -29
-125 -5 0 -9 -7 -9 -16 0 -11 5 -14 18 -9 55 22 76 16 184 -47 110 -65 138
-96 138 -153 0 -35 -14 -31 -36 10 -25 47 -101 77 -204 81 -116 4 -184 -34
-197 -110 -11 -69 47 -55 61 15 9 47 31 59 105 59 77 0 158 -23 184 -52 13
-15 17 -38 17 -89 0 -38 -1 -69 -2 -70 -2 0 -39 -3 -83 -5 -44 -3 -84 -9 -90
-15 -14 -14 13 -29 52 -29 17 0 42 -4 55 -9 45 -17 100 -121 64 -121 -10 0
-16 9 -16 23 0 36 -16 52 -49 49 -16 -2 -32 1 -36 7 -16 26 -135 4 -190 -36
-18 -13 -24 -27 -25 -55 0 -80 43 -122 55 -54 4 19 4 43 1 54 -5 15 1 23 31
38 71 34 163 14 163 -36 0 -9 6 -22 13 -29 10 -10 8 -15 -7 -27 -11 -8 -27
-14 -36 -14 -9 0 -20 -4 -25 -9 -17 -15 -123 -44 -140 -38 -8 4 -25 3 -38 -2
-12 -5 -47 -11 -77 -14 -30 -4 -69 -10 -86 -15 -31 -10 -80 -6 -99 8 -14 10
-62 22 -109 26 -21 2 -51 13 -66 24 -15 11 -34 20 -42 20 -8 0 -18 4 -23 9
-18 17 -85 17 -85 1 0 -16 149 -81 209 -90 30 -5 61 -16 70 -23 11 -9 39 -13
86 -12 81 3 191 18 201 28 4 4 12 3 19 -3 6 -5 55 -11 109 -14 103 -5 129 -17
158 -71 14 -25 12 -94 -3 -111 -23 -28 -36 -15 -41 39 -2 28 -13 65 -23 81
-19 28 -20 29 -94 23 -127 -9 -180 -52 -184 -149 -2 -41 1 -53 14 -56 19 -3
39 43 39 89 0 45 40 69 114 69 72 0 86 -10 86 -61 0 -21 7 -44 15 -53 14 -14
12 -17 -22 -34 -21 -10 -64 -24 -95 -31 -32 -7 -60 -17 -63 -22 -4 -5 -17 -9
-31 -9 -14 0 -38 -10 -54 -22 -26 -19 -32 -20 -55 -8 -20 11 -35 11 -75 2 -42
-10 -61 -9 -122 7 -143 37 -190 51 -210 62 -11 6 -29 9 -39 6 -10 -3 -19 -1
-19 4 0 12 -55 39 -80 39 -26 0 -108 78 -117 111 -3 13 -8 61 -10 106 -4 66
-1 87 13 108 27 41 50 44 115 18 57 -23 89 -22 89 2 0 13 -65 42 -107 48 -11
2 -27 8 -35 14 -7 5 -26 13 -43 17 -31 8 -75 26 -132 54 -34 17 -53 48 -53 87
0 13 -3 26 -8 28 -15 10 4 201 26 249 40 90 90 119 135 78 21 -21 39 -31 127
-75 25 -13 66 -41 92 -64 25 -23 49 -41 52 -41 4 0 16 -8 26 -18 21 -19 90
-55 128 -67 31 -9 29 15 -5 47 -40 36 -99 69 -108 60 -5 -4 -5 -2 -2 4 5 9
-42 54 -58 54 -6 0 -125 80 -135 90 -3 3 -24 14 -47 24 -23 10 -67 44 -98 75
-30 31 -73 73 -94 94 -55 54 -59 99 -25 269 35 177 38 184 102 214 28 14 60
24 70 22 18 -3 24 -32 37 -188 6 -73 21 -130 34 -130 3 0 33 -25 66 -55 32
-30 68 -55 80 -55 11 0 43 -22 71 -48 28 -26 64 -54 80 -62 43 -22 103 -60
160 -102 28 -21 58 -38 66 -38 8 0 41 -9 73 -19 41 -14 65 -17 82 -10 31 11
21 29 -17 29 -16 0 -32 4 -35 10 -3 5 -23 14 -44 20 -22 6 -65 27 -98 48 -32
21 -73 48 -91 58 l-32 20 30 42 c16 23 40 48 53 57 23 14 28 14 88 -13 42 -19
79 -46 107 -77 40 -44 43 -51 37 -86 -7 -41 0 -47 28 -26 32 24 26 82 -13 125
-16 18 -30 37 -30 41 0 15 -47 48 -98 69 -72 29 -142 17 -183 -31 -16 -17 -31
-40 -34 -49 -4 -10 -13 -18 -22 -18 -19 0 -73 32 -73 43 0 4 -4 6 -8 3 -5 -3
-19 8 -31 24 -12 17 -28 30 -36 30 -8 0 -39 12 -69 26 -68 32 -94 76 -97 161
-1 32 -8 112 -16 178 -16 144 -9 427 12 478 25 61 100 115 182 132 32 6 105
37 133 56 8 5 22 12 31 15 8 3 40 18 70 34 59 31 75 35 83 21z m134 -438 c2
-7 -3 -13 -12 -13 -22 0 -39 -37 -31 -68 3 -15 17 -39 31 -53 l24 -25 -51 -13
c-27 -7 -53 -11 -56 -8 -3 3 3 26 12 51 10 25 15 55 12 67 -3 12 -3 35 0 51 5
25 10 29 36 26 17 -2 32 -9 35 -15z m868 -30 c-7 -7 -26 7 -26 19 0 6 6 6 15
-2 9 -7 13 -15 11 -17z m-759 11 c28 -8 35 -28 21 -59 -12 -27 -34 -35 -24
-10 3 9 -3 24 -14 35 -33 33 -27 46 17 34z m175 -84 c9 0 4 -77 -6 -88 -3 -3
-18 -7 -32 -8 -19 -2 -28 3 -31 17 -7 24 -29 24 -71 -1 -18 -11 -41 -20 -52
-20 -24 0 -37 -20 -19 -31 16 -10 89 -1 104 12 16 16 35 10 35 -11 0 -16 7
-20 35 -20 44 0 45 -17 2 -35 -19 -8 -39 -21 -46 -29 -18 -22 21 -41 49 -24
14 9 22 10 31 1 17 -17 2 -32 -42 -39 -51 -8 -51 -37 1 -44 l35 -5 1 -115 c1
-63 7 -128 13 -143 17 -44 14 -57 -19 -63 -37 -8 -39 -21 -5 -30 19 -5 25 -13
25 -33 0 -37 -18 -57 -57 -65 l-33 -5 0 56 c0 59 -10 99 -41 171 -24 55 -24
61 6 72 14 5 25 17 25 26 0 14 -7 16 -45 11 -50 -7 -85 7 -85 34 0 10 11 20
25 23 25 6 34 30 15 41 -6 4 -28 -2 -50 -14 -31 -16 -40 -17 -49 -7 -18 22 -2
46 30 46 18 0 32 6 36 15 9 24 2 26 -66 14 -34 -6 -65 -9 -68 -5 -14 14 23 37
78 48 36 7 59 17 59 25 0 7 -4 13 -9 13 -6 0 -11 15 -13 33 -3 31 -5 32 -43
30 -22 -1 -52 -5 -67 -8 -24 -6 -28 -4 -28 12 0 17 9 21 50 26 62 8 70 12 70
42 0 21 3 23 39 18 34 -5 41 -2 56 20 9 15 25 29 36 32 11 4 26 19 34 35 l15
28 31 -29 c17 -16 35 -29 41 -29z m-362 -241 c0 -11 -4 -18 -10 -14 -5 3 -7
12 -3 20 7 21 13 19 13 -6z m455 -29 c8 0 15 -7 15 -16 0 -11 -5 -14 -16 -10
-14 5 -15 0 -10 -41 6 -44 14 -117 18 -153 3 -32 -3 -48 -18 -54 -9 -4 -19 -4
-22 -1 -8 8 -12 62 -12 184 0 116 7 151 21 113 5 -12 15 -22 24 -22z m5 -387
c0 -35 23 -151 40 -207 11 -34 -7 -56 -26 -31 -6 8 -23 19 -38 25 -25 9 -27
14 -21 38 4 15 9 50 11 77 2 28 6 68 8 90 3 22 5 44 5 48 1 5 6 5 11 2 6 -3
10 -22 10 -42z m54 -536 c-7 -19 -20 -22 -29 -7 -9 15 16 43 27 32 5 -5 6 -16
2 -25z m-294 -712 c15 -18 57 -20 62 -4 5 16 48 1 48 -17 0 -8 -15 -16 -40
-20 -46 -8 -62 -23 -31 -31 30 -8 26 -20 -10 -27 -34 -7 -30 -26 6 -26 61 0
103 -43 44 -46 -13 -1 -28 -2 -33 -3 -10 -1 28 -37 47 -45 17 -7 -13 -26 -41
-26 -20 0 -23 -4 -20 -32 2 -28 8 -34 33 -38 24 -4 31 -12 41 -45 13 -48 7
-115 -12 -122 -8 -3 -14 -13 -14 -22 0 -14 -2 -14 -10 -1 -5 8 -13 14 -17 13
-4 -2 -16 0 -27 3 -28 9 -45 -14 -22 -31 19 -15 14 -35 -10 -35 -8 0 -14 -5
-14 -11 0 -7 10 -9 25 -7 14 3 25 1 25 -5 0 -16 -31 -47 -47 -47 -17 0 -17
-19 1 -26 16 -6 56 12 68 30 4 6 8 21 8 32 0 13 8 24 20 27 11 3 20 1 20 -5 0
-6 7 -7 16 -4 14 5 15 4 5 -8 -8 -10 -9 -16 -1 -21 7 -4 5 -13 -4 -27 -11 -15
-12 -26 -6 -39 6 -11 6 -27 1 -42 -8 -19 -15 -23 -38 -20 -35 6 -67 -22 -43
-37 8 -5 18 -6 22 -4 16 10 50 -8 44 -22 -3 -9 -1 -12 4 -9 20 12 9 -13 -12
-29 -14 -11 -17 -15 -7 -12 13 3 16 -1 12 -17 -4 -18 -3 -19 6 -7 9 13 11 13
11 -2 0 -20 -11 -23 -27 -7 -8 8 -13 8 -17 0 -4 -6 -2 -11 3 -11 6 0 11 -5 11
-12 0 -9 -3 -9 -12 0 -21 21 -39 14 -32 -12 4 -19 1 -26 -15 -31 -12 -3 -21
-14 -21 -24 0 -9 -5 -22 -12 -29 -18 -18 0 -27 31 -15 34 12 66 0 41 -17 -8
-5 -23 -10 -32 -10 -27 0 -48 -11 -48 -26 0 -8 9 -14 20 -14 11 0 20 4 20 8 0
5 10 8 23 7 18 -1 22 -8 25 -42 3 -38 1 -42 -28 -52 -17 -6 -40 -21 -50 -33
-15 -19 -22 -21 -37 -12 -16 10 -18 28 -18 185 0 96 -3 179 -8 186 -4 6 4 24
18 41 41 49 29 68 -21 36 -17 -12 -23 -22 -18 -36 3 -11 -2 -36 -12 -56 -15
-31 -18 -62 -17 -184 2 -158 -3 -173 -49 -166 -32 4 -34 32 -3 46 33 15 33 42
0 42 -30 0 -32 10 -5 33 25 21 26 47 1 47 -33 0 -32 15 4 50 19 18 32 37 29
42 -3 4 -9 6 -14 3 -15 -9 -19 23 -4 36 20 16 0 39 -28 31 l-22 -5 23 31 c12
18 26 32 31 32 4 0 10 6 13 14 4 11 -3 13 -34 9 -55 -8 -54 22 1 45 22 9 40
23 40 30 0 14 -36 16 -45 2 -11 -17 -35 -11 -35 9 0 21 44 61 66 61 8 0 14 6
14 14 0 11 -8 12 -41 4 -33 -9 -41 -16 -46 -39 -3 -16 -9 -26 -14 -23 -5 3 -4
14 2 25 5 11 9 27 8 37 -1 9 -1 36 0 60 1 36 4 42 24 42 23 1 67 31 67 47 0
15 -38 13 -51 -3 -16 -19 -49 -18 -49 3 0 22 74 91 101 95 12 2 24 9 27 15 6
20 -27 27 -65 14 -44 -16 -61 -3 -47 36 11 31 95 81 137 82 18 1 27 6 27 17 0
13 -7 15 -42 9 -24 -4 -60 -14 -80 -21 -32 -11 -38 -11 -38 1 0 28 26 42 128
71 6 2 12 11 12 20 0 14 -7 16 -42 11 -24 -4 -55 -9 -70 -13 -22 -5 -28 -3
-28 10 0 9 2 16 4 16 2 0 27 5 57 10 62 12 77 28 48 51 l-21 15 24 16 c44 29
90 35 108 13z m160 -35 c0 -5 -2 -10 -4 -10 -3 0 -8 5 -11 10 -3 6 -1 10 4 10
6 0 11 -4 11 -10z m-53 -56 c-3 -3 -12 -4 -19 -1 -8 3 -5 6 6 6 11 1 17 -2 13
-5z m-17 -184 c0 -5 -5 -10 -11 -10 -5 0 -7 5 -4 10 3 6 8 10 11 10 2 0 4 -4
4 -10z m42 -12 c-5 -21 -32 -25 -32 -5 0 17 6 24 24 24 8 0 11 -8 8 -19z
m-252 -975 c5 -33 35 -73 65 -91 30 -16 8 -33 -33 -26 -85 14 -102 34 -102
114 0 34 8 42 40 38 20 -2 26 -10 30 -35z"/>
<path d="M3027 6043 c-4 -3 -7 -15 -7 -26 0 -15 5 -18 23 -13 12 3 25 6 30 6
4 0 7 9 7 20 0 14 -7 20 -23 20 -13 0 -27 -3 -30 -7z"/>
<path d="M3116 5311 c-9 -14 -10 -66 -2 -79 10 -17 33 -15 40 4 3 9 6 31 6 50
0 27 -4 34 -19 34 -11 0 -22 -4 -25 -9z"/>
<path d="M3097 5163 c-12 -11 -8 -40 7 -52 36 -30 410 -72 411 -46 1 17 -61
32 -182 45 -107 11 -183 30 -207 52 -12 10 -20 10 -29 1z"/>
<path d="M3116 4968 c-2 -7 -6 -20 -9 -29 -8 -26 20 -81 40 -77 10 2 16 11 14
19 -2 8 -4 33 -3 57 0 35 -3 42 -19 42 -11 0 -21 -6 -23 -12z"/>
<path d="M3136 4641 c-4 -5 -1 -32 6 -60 10 -44 9 -56 -6 -88 -13 -27 -14 -38
-5 -44 29 -18 55 18 64 86 4 37 1 54 -16 81 -21 34 -33 41 -43 25z"/>
<path d="M3375 3939 c-10 -15 1 -23 20 -15 9 3 13 10 10 16 -8 13 -22 13 -30
-1z"/>
<path d="M3315 3847 c-10 -8 -15 -19 -11 -25 8 -14 66 12 66 28 0 14 -33 12
-55 -3z"/>
<path d="M3520 3545 c14 -16 40 -20 40 -6 0 9 -24 21 -42 21 -6 0 -6 -6 2 -15z"/>
<path d="M2923 12997 c-19 -23 -22 -45 -9 -63 18 -24 36 -9 36 31 0 37 -12 52
-27 32z"/>
<path d="M3720 12455 c-6 -8 -4 -25 7 -53 21 -54 49 -57 59 -7 3 19 4 41 1 49
-7 18 -54 26 -67 11z"/>
<path d="M3762 12318 c-7 -7 -12 -33 -12 -59 0 -26 -4 -51 -10 -54 -14 -9 -12
-25 3 -25 16 0 59 114 51 135 -7 18 -16 19 -32 3z"/>
<path d="M3665 11737 c-11 -7 -22 -13 -25 -15 -14 -9 31 -21 65 -16 65 9 71
12 49 29 -23 17 -62 18 -89 2z"/>
<path d="M2482 11597 c-28 -29 -28 -58 -1 -83 12 -10 30 -36 40 -57 18 -35 23
-38 58 -36 49 3 93 -27 120 -84 25 -51 19 -83 -18 -95 -22 -8 -31 -5 -58 21
-27 25 -35 28 -48 17 -24 -20 -18 -47 15 -67 36 -21 38 -31 6 -43 -56 -21
-126 26 -151 100 -17 50 -17 170 0 233 10 38 -11 35 -29 -5 -8 -18 -20 -51
-26 -73 -7 -22 -16 -50 -21 -61 -15 -42 -4 -109 27 -156 46 -71 68 -83 147
-82 l68 1 75 77 76 78 -4 50 c-5 43 -12 56 -49 94 -33 32 -54 45 -83 48 -55 7
-98 51 -100 102 -1 45 -15 52 -44 21z"/>
<path d="M3586 11325 c-25 -18 -14 -32 31 -38 21 -3 53 -9 71 -13 25 -5 32 -3
32 10 0 35 -99 66 -134 41z"/>
<path d="M3600 11215 c-10 -12 -10 -16 1 -19 8 -2 29 -9 48 -15 49 -16 67 1
35 33 -20 20 -68 21 -84 1z"/>
<path d="M4507 11001 c-26 -54 -47 -108 -47 -119 0 -47 32 -138 60 -173 16
-21 30 -43 30 -48 0 -6 7 -11 15 -11 8 0 15 -5 15 -10 0 -16 51 -32 78 -25 12
3 20 10 17 15 -3 6 1 7 9 4 9 -4 18 1 22 10 3 9 20 23 38 31 40 20 89 84 82
108 -2 10 2 21 10 24 8 3 14 12 14 20 0 9 -5 11 -12 7 -9 -5 -9 -2 1 9 19 24
-2 72 -52 119 -32 30 -51 38 -94 44 -62 7 -103 35 -103 70 0 16 -6 24 -18 24
-13 0 -31 -28 -65 -99z m83 -16 c9 -8 37 -19 62 -23 25 -5 65 -20 89 -33 38
-21 46 -31 56 -72 10 -42 9 -53 -8 -91 -18 -42 -34 -56 -64 -56 -7 0 -25 25
-39 55 -26 57 -48 69 -66 36 -7 -15 -6 -23 4 -34 24 -23 56 -81 56 -99 0 -12
-8 -18 -24 -18 -48 0 -117 108 -136 212 -9 46 -8 63 6 97 17 43 36 51 64 26z"/>
<path d="M3451 10969 c-23 -24 -45 -58 -50 -76 -5 -18 -16 -40 -25 -49 -24
-23 -20 -41 18 -78 54 -52 87 -62 140 -42 43 16 62 38 50 57 -3 5 -18 2 -34
-6 -38 -20 -50 -19 -50 3 0 24 19 42 37 35 13 -5 32 11 33 28 0 4 -12 15 -27
24 -25 17 -27 17 -43 -5 -22 -29 -40 -18 -40 24 0 22 8 40 24 56 l25 23 33
-33 c18 -18 38 -47 44 -64 24 -69 73 -24 53 48 -5 20 -14 36 -19 36 -5 0 -22
11 -38 25 -17 14 -43 28 -60 31 -25 5 -35 0 -71 -37z"/>
<path d="M3640 10752 c0 -5 -22 -21 -50 -36 -32 -17 -50 -34 -50 -45 0 -10 -7
-24 -15 -31 -8 -7 -15 -19 -15 -26 0 -34 60 -2 123 65 50 54 59 81 27 81 -11
0 -20 -4 -20 -8z"/>
<path d="M3613 10574 c-7 -3 -13 -15 -13 -25 0 -18 6 -20 48 -17 39 3 47 6 47
23 0 16 -7 20 -35 22 -19 1 -41 0 -47 -3z"/>
<path d="M4062 10568 c-7 -7 -12 -19 -12 -27 -1 -9 -9 -41 -20 -71 -21 -59
-25 -125 -11 -162 11 -29 62 -82 107 -113 42 -28 110 -25 132 6 8 12 25 19 46
19 42 0 83 32 106 83 50 112 -44 217 -193 217 -60 0 -69 3 -97 30 -34 33 -41
35 -58 18z m149 -102 c69 -2 90 -6 105 -21 54 -53 68 -110 38 -153 -20 -29
-43 -28 -104 8 -72 42 -114 19 -50 -28 40 -30 39 -52 -1 -52 -25 0 -43 11 -80
49 -49 48 -49 49 -49 114 0 84 6 101 34 92 11 -4 60 -8 107 -9z"/>
<path d="M3609 10481 l-24 -19 30 -12 c17 -6 35 -12 42 -15 6 -2 17 3 24 12
11 13 10 18 -10 34 -29 24 -33 24 -62 0z"/>
<path d="M3633 10397 c-25 -11 -30 -32 -10 -40 19 -7 57 11 57 27 0 19 -21 25
-47 13z"/>
<path d="M4413 10044 c-41 -21 -73 -85 -73 -148 0 -57 32 -118 91 -170 34 -31
46 -36 88 -36 38 0 50 4 53 16 2 13 18 18 63 21 52 4 65 9 96 39 50 49 66 101
48 156 -29 89 -90 122 -173 94 -33 -11 -46 -11 -87 2 -27 9 -49 22 -49 29 0
17 -18 16 -57 -3z m37 -42 c0 -5 21 -19 46 -32 41 -22 49 -23 77 -11 64 27 92
25 121 -5 14 -16 26 -33 27 -39 0 -5 2 -23 4 -39 4 -31 -14 -74 -39 -95 -27
-22 -71 4 -95 55 -24 50 -47 56 -61 18 -8 -21 -6 -34 12 -65 25 -45 21 -53
-21 -44 -40 9 -97 74 -111 126 -12 44 -6 105 12 127 12 14 28 16 28 4z"/>
<path d="M3620 9990 c-21 -17 -23 -21 -10 -30 18 -12 52 -9 57 5 2 6 -2 18 -9
28 -12 15 -15 15 -38 -3z"/>
<path d="M3348 9659 c-36 -21 -21 -39 32 -39 43 0 50 3 50 20 0 11 -6 20 -12
20 -7 0 -22 2 -33 5 -11 3 -28 0 -37 -6z"/>
<path d="M5540 9613 c-116 -9 -277 -84 -436 -202 -23 -17 -44 -31 -49 -31 -13
0 -89 -83 -141 -155 -51 -71 -62 -94 -84 -175 -7 -25 -16 -56 -21 -70 -5 -14
-14 -88 -19 -165 -14 -183 3 -342 46 -442 8 -17 14 -34 14 -38 0 -4 6 -21 14
-38 7 -18 21 -51 31 -75 11 -24 27 -50 38 -57 11 -7 25 -22 31 -33 51 -87 129
-162 215 -206 35 -19 40 -41 11 -56 -34 -18 -44 -76 -26 -150 8 -36 21 -81 30
-100 21 -50 83 -105 140 -124 63 -20 76 -20 76 2 0 12 -14 22 -45 31 -32 9
-55 25 -79 55 -43 52 -54 84 -29 82 13 -1 17 5 16 24 -6 70 -6 87 1 113 6 21
5 27 -6 27 -16 0 -38 -40 -38 -70 0 -11 -5 -20 -11 -20 -20 0 -5 99 19 122 20
20 22 21 109 5 48 -9 97 -14 109 -11 17 4 29 -5 58 -45 34 -46 109 -110 163
-138 12 -6 47 -18 77 -27 96 -28 85 -61 -22 -61 -51 -1 -81 -7 -125 -27 -85
-40 -212 -150 -223 -195 -3 -11 -13 -23 -22 -26 -19 -5 -79 -118 -117 -222
-31 -82 -48 -283 -26 -309 9 -10 9 -15 0 -18 -8 -3 -6 -18 6 -53 24 -73 84
-196 109 -224 62 -71 151 -145 185 -156 14 -4 29 -12 35 -17 6 -5 20 -15 31
-22 26 -19 9 -39 -53 -62 -52 -19 -92 -50 -92 -71 0 -7 -6 -13 -12 -13 -21 -1
-55 -90 -69 -177 -14 -93 -1 -204 29 -245 10 -13 25 -39 35 -58 11 -19 42 -56
70 -82 50 -45 51 -47 33 -66 -9 -11 -13 -23 -8 -26 18 -11 115 7 133 25 13 13
27 16 58 12 23 -3 44 -10 47 -15 7 -10 -37 -54 -63 -62 -28 -10 -73 -53 -73
-71 0 -19 19 -20 26 0 3 8 34 32 68 52 33 20 79 56 101 79 22 24 46 49 53 56
6 7 34 31 60 53 69 57 96 123 87 208 -7 60 -10 67 -65 127 -56 61 -59 63 -105
62 -51 -1 -84 -18 -128 -65 -20 -21 -27 -36 -23 -51 3 -12 6 -26 6 -33 0 -20
50 -61 82 -67 36 -7 88 20 88 46 0 17 -2 17 -40 2 -38 -15 -42 -15 -60 1 -65
59 31 140 119 101 50 -23 76 -72 73 -139 -2 -79 -6 -107 -14 -107 -5 0 -8 -5
-8 -10 0 -15 -42 -70 -53 -70 -14 0 -57 -37 -51 -43 3 -3 -3 -3 -14 0 -17 4
-20 1 -16 -19 5 -20 4 -21 -8 -8 -13 15 -71 20 -83 8 -10 -10 -132 29 -180 57
-24 14 -47 34 -50 45 -3 11 -13 20 -20 20 -23 0 -39 175 -21 229 7 21 6 23
-13 18 -29 -7 -37 14 -21 53 8 19 20 30 32 30 11 0 26 13 36 31 31 57 72 97
136 133 43 24 63 41 62 53 -1 15 8 18 59 19 33 1 89 7 125 14 186 36 311 -15
376 -155 13 -27 26 -40 39 -40 17 0 20 6 17 35 -2 34 -30 100 -42 100 -3 0
-23 16 -43 35 -21 20 -51 38 -67 42 -16 3 -35 12 -41 19 -6 8 -18 14 -25 14
-30 0 -11 27 46 63 66 42 116 98 148 168 31 64 30 177 0 256 -30 76 -108 157
-169 174 -24 7 -48 16 -54 21 -13 12 -66 10 -106 -4 -49 -16 -121 -68 -127
-90 -3 -14 -7 -16 -12 -8 -14 22 -45 -40 -44 -87 1 -49 37 -103 83 -126 52
-26 151 -4 151 33 0 18 -3 19 -20 10 -11 -6 -20 -16 -20 -22 0 -7 -5 -6 -15 2
-9 7 -18 10 -21 7 -3 -3 -19 -1 -35 5 -36 12 -61 58 -63 111 -1 35 5 45 47 83
40 36 56 44 103 49 46 6 62 4 101 -16 54 -28 60 -43 18 -46 -46 -3 -75 -12
-75 -23 0 -6 7 -10 16 -10 65 0 156 -60 169 -112 5 -21 3 -27 -14 -33 -24 -7
-26 -22 -6 -49 8 -11 15 -37 15 -58 0 -21 5 -47 12 -57 17 -27 -18 -84 -56
-91 -19 -3 -33 -15 -45 -38 -11 -23 -33 -43 -71 -62 -66 -34 -228 -75 -267
-67 -76 14 -146 36 -162 51 -21 19 -48 21 -53 4 -3 -7 -15 7 -28 30 -13 23
-28 42 -34 42 -17 0 -136 133 -153 173 -9 20 -20 37 -25 37 -4 0 -8 9 -8 20 0
11 -7 37 -16 58 -12 28 -16 69 -16 162 1 144 5 176 25 222 8 18 18 46 21 61 8
32 103 177 116 177 5 0 12 -4 15 -10 12 -20 35 -9 49 23 7 19 25 45 40 60 14
14 26 33 26 41 0 18 33 41 73 50 34 8 34 -3 2 -38 -26 -28 -33 -56 -15 -56 6
0 18 10 28 21 9 12 25 29 35 38 9 8 17 25 17 37 0 17 5 21 20 17 11 -3 27 0
35 7 8 7 37 17 63 22 26 6 64 13 85 18 23 5 61 2 100 -6 34 -8 98 -18 143 -23
140 -16 309 -116 377 -224 11 -17 25 -27 35 -25 17 4 18 11 6 60 -6 27 -5 28
27 22 154 -27 257 -101 362 -260 46 -71 77 -161 77 -231 0 -45 -16 -49 -30 -7
-8 25 -16 34 -27 30 -8 -3 -17 -6 -19 -6 -2 0 -4 -26 -4 -59 0 -135 -67 -295
-149 -356 -22 -16 -41 -33 -41 -37 0 -17 19 -16 53 2 27 15 37 17 37 7 0 -14
-60 -47 -84 -47 -8 0 -19 -6 -25 -14 -30 -36 59 -37 99 -1 9 8 24 15 32 15 9
0 31 16 50 36 18 20 40 44 49 53 28 29 58 77 64 104 10 37 32 47 95 41 49 -5
90 -24 128 -61 8 -7 29 -25 48 -40 40 -30 84 -99 84 -131 0 -30 -13 -27 -33 8
-10 16 -27 35 -38 40 -34 18 -34 -15 -1 -57 17 -21 34 -51 38 -66 5 -24 11
-28 37 -25 31 3 32 2 39 -47 4 -27 10 -65 13 -82 6 -31 4 -33 -25 -33 -27 0
-30 -3 -30 -34 0 -18 -7 -53 -15 -76 -8 -23 -15 -51 -15 -62 0 -29 -39 -109
-67 -140 -18 -18 -23 -32 -18 -47 5 -16 0 -27 -17 -41 -18 -15 -21 -21 -11
-31 32 -32 159 84 204 185 58 132 69 242 39 388 -25 123 -55 190 -113 249 -96
98 -193 152 -262 147 -39 -2 -40 -1 -38 27 6 106 3 237 -8 280 -22 90 -81 178
-190 281 -67 64 -100 87 -144 98 -16 4 -48 16 -72 27 -51 23 -96 25 -113 3
-12 -13 -19 -10 -59 29 -67 65 -230 133 -356 148 -174 21 -207 28 -229 48 -24
23 -138 71 -168 71 -10 0 -23 9 -30 20 -7 11 -21 20 -31 20 -25 0 -59 18 -79
44 -21 25 -24 43 -5 27 8 -6 17 -8 20 -4 13 12 7 32 -17 58 -37 39 -51 117
-40 215 8 62 7 80 -3 80 -18 0 -23 -13 -26 -73 -1 -30 -5 -53 -9 -50 -5 2 -8
-7 -8 -21 0 -36 -16 -32 -29 7 -11 34 -14 140 -5 170 6 18 6 18 19 0 21 -28
37 -3 36 58 0 70 15 127 44 161 27 32 40 66 30 76 -4 4 -14 -3 -22 -15 -9 -13
-20 -23 -25 -23 -18 0 2 53 33 87 28 33 33 44 30 72 -2 7 2 10 8 6 6 -3 11 1
11 10 0 11 5 15 15 11 9 -3 18 1 21 9 4 8 10 12 16 9 5 -3 36 10 68 30 44 27
69 36 103 36 37 0 47 4 52 20 6 18 15 20 89 20 54 0 97 6 122 16 66 28 171 5
269 -58 80 -52 144 -102 165 -130 107 -139 140 -313 84 -452 -46 -115 -125
-166 -260 -166 -39 0 -50 5 -80 36 -29 32 -34 44 -34 85 0 53 -4 57 -38 33
-44 -30 -22 -121 40 -165 27 -20 44 -23 113 -22 70 0 89 4 145 32 91 45 155
50 248 18 67 -23 72 -26 57 -41 -9 -9 -21 -16 -27 -16 -5 0 -8 -6 -5 -12 2 -7
9 -13 15 -13 6 0 17 -6 23 -12 7 -7 21 -13 32 -13 10 0 47 -16 81 -35 35 -19
72 -35 83 -35 11 0 25 -11 32 -24 23 -41 7 -47 -30 -11 -33 30 -39 32 -55 20
-18 -13 -18 -15 12 -47 59 -61 91 -148 100 -263 5 -69 3 -86 -15 -120 -26 -48
-26 -55 -2 -55 12 0 29 17 47 48 26 43 29 54 27 137 -2 72 0 84 8 60 19 -56
20 -166 2 -240 -14 -59 -24 -78 -65 -121 -52 -55 -56 -64 -32 -64 19 0 114 67
114 81 0 25 32 3 78 -55 55 -68 66 -98 32 -89 -29 8 -35 -21 -12 -54 33 -48
45 -160 21 -205 -9 -17 -7 -24 15 -45 30 -28 31 -32 11 -80 -19 -44 -19 -43 3
-43 38 0 65 61 90 200 13 75 -15 214 -47 234 -16 10 -41 67 -41 93 0 12 -5 23
-10 23 -6 0 -24 16 -41 35 -17 19 -37 35 -44 35 -21 0 -22 19 -7 85 9 40 11
82 7 125 -8 77 -41 210 -55 224 -6 6 -10 17 -10 25 0 15 -89 151 -99 151 -3 0
-23 15 -44 34 -21 19 -59 46 -85 60 -26 14 -63 34 -82 44 -19 11 -70 24 -113
30 -43 6 -81 13 -84 16 -3 3 9 33 27 67 66 124 48 291 -48 447 -29 47 -94 122
-106 122 -2 0 -41 25 -86 55 -45 30 -90 55 -100 55 -10 0 -22 5 -25 10 -3 6
-19 10 -35 10 -42 0 -80 17 -80 37 0 9 5 32 12 50 15 41 -2 154 -31 211 -26
52 -97 122 -122 122 -13 0 -23 10 -31 30 -7 23 -15 29 -28 25 -15 -5 -21 5
-36 52 -15 46 -32 71 -88 128 -40 41 -71 65 -73 58 -6 -18 -23 -16 -23 1 0 37
-135 68 -250 59z m55 -80 c9 -13 25 -23 38 -23 12 0 37 -9 55 -20 42 -26 50
-25 58 5 8 33 19 32 63 -7 21 -18 50 -43 65 -56 29 -24 79 -120 70 -134 -3 -4
-30 -8 -60 -8 -59 0 -147 -26 -191 -58 -16 -10 -40 -22 -56 -26 -46 -11 -139
-82 -198 -152 -68 -80 -112 -197 -112 -295 0 -68 8 -82 31 -54 10 12 24 24 32
27 8 3 32 57 54 119 21 63 52 133 67 156 16 23 29 53 29 66 0 19 13 33 53 60
28 19 68 42 87 51 19 8 42 19 50 24 45 26 66 33 118 38 99 11 219 -30 256 -86
33 -50 66 -149 66 -198 0 -74 -16 -99 -78 -123 -64 -25 -104 -27 -169 -8 -77
21 -104 97 -51 142 20 17 22 17 43 -3 32 -30 55 -26 55 9 0 67 -95 79 -157 19
-28 -27 -33 -39 -33 -77 0 -40 4 -49 47 -88 38 -36 44 -46 33 -53 -8 -6 -22
-10 -31 -10 -24 0 -152 -66 -182 -94 -16 -14 -31 -26 -35 -26 -12 -1 -91 -105
-115 -151 -72 -137 -101 -399 -58 -523 12 -33 21 -63 21 -69 0 -5 -19 -7 -42
-4 -100 12 -89 5 -223 149 -50 53 -85 127 -85 178 0 42 -11 70 -28 70 -13 0
-14 -12 -9 -82 6 -69 5 -80 -7 -67 -40 42 -90 226 -85 314 3 73 0 95 -16 95
-23 0 -28 -41 -23 -169 l5 -116 -28 59 c-33 68 -35 83 -14 106 11 13 12 24 4
52 -5 20 -8 86 -5 146 3 85 9 119 26 156 12 25 26 49 31 52 5 3 9 15 9 26 0
20 -1 21 -20 3 -35 -31 -71 -104 -84 -167 -15 -76 -25 -65 -21 22 6 135 61
291 126 354 30 29 38 56 17 56 -7 0 -32 -19 -55 -42 -46 -45 -56 -36 -25 23
39 75 58 100 82 106 14 3 43 21 65 38 22 18 77 50 122 71 57 27 83 45 83 57 0
24 -20 21 -86 -13 -55 -28 -73 -32 -60 -12 14 23 124 89 136 82 8 -5 36 2 69
17 46 20 67 24 116 20 33 -3 70 -8 82 -12 17 -5 25 -3 29 9 7 19 -21 45 -48
46 -10 0 -18 4 -18 9 0 12 26 19 68 18 22 -1 37 -8 47 -24z m-615 -1306 c0 -5
-4 -5 -10 -2 -5 3 -10 14 -10 23 0 15 2 15 10 2 5 -8 10 -19 10 -23z m134
-140 c41 -59 30 -78 -18 -33 -25 22 -34 55 -19 69 8 8 6 10 37 -36z m413 -69
c-3 -8 -6 -5 -6 6 -1 11 2 17 5 13 3 -3 4 -12 1 -19z m-39 -63 c-3 -3 -9 2
-12 12 -6 14 -5 15 5 6 7 -7 10 -15 7 -18z m1622 -236 c0 -6 -4 -7 -10 -4 -5
3 -10 11 -10 16 0 6 5 7 10 4 6 -3 10 -11 10 -16z m35 -97 c-9 -9 -25 19 -24
43 0 16 2 15 15 -8 9 -16 13 -32 9 -35z m-1288 -4 c-3 -8 -6 -5 -6 6 -1 11 2
17 5 13 3 -3 4 -12 1 -19z m1161 -831 c-3 -34 -16 -92 -28 -127 -26 -72 -76
-153 -90 -145 -8 5 20 65 55 119 16 24 55 164 55 199 0 9 3 17 6 17 4 0 4 -28
2 -63z m-1465 -570 c3 -8 -7 -18 -24 -24 -33 -13 -34 -11 -17 17 15 23 34 26
41 7z"/>
<path d="M5551 9204 c0 -11 3 -14 6 -6 3 7 2 16 -1 19 -3 4 -6 -2 -5 -13z"/>
<path d="M5794 9176 c-82 -22 -264 -169 -264 -212 0 -22 8 -17 79 44 92 80
142 112 198 126 37 9 49 17 51 34 4 24 -2 25 -64 8z"/>
<path d="M6005 9140 c-9 -14 23 -70 41 -70 23 0 27 26 9 54 -18 27 -39 34 -50
16z"/>
<path d="M2257 9034 c-11 -11 -8 -62 4 -70 7 -4 9 -21 4 -48 -28 -170 -21
-219 47 -292 l41 -45 70 2 c65 2 73 4 104 35 18 18 33 40 33 47 0 8 9 22 21
33 56 51 60 108 12 177 -30 43 -81 73 -142 83 -22 4 -46 13 -52 20 -6 8 -17
14 -25 14 -7 0 -16 9 -19 20 -4 12 -15 20 -28 20 -12 0 -31 3 -42 6 -11 3 -24
2 -28 -2z m116 -97 c18 -13 52 -30 77 -37 49 -15 107 -69 117 -109 4 -15 0
-36 -10 -53 -9 -16 -14 -36 -11 -46 4 -11 3 -13 -3 -5 -4 6 -17 11 -27 10 -18
-2 -29 11 -40 46 -7 21 -35 23 -42 2 -9 -22 15 -73 37 -80 10 -4 19 -15 19
-26 0 -15 -7 -19 -39 -19 -47 0 -82 26 -115 83 -32 56 -39 107 -26 175 20 96
16 93 63 59z"/>
<path d="M1694 8599 c-2 -5 1 -19 8 -31 8 -15 13 -63 13 -133 0 -120 2 -124
77 -206 23 -25 32 -29 70 -25 61 5 88 19 128 62 79 88 88 141 39 217 -27 42
-66 59 -137 59 -33 0 -59 8 -87 26 -44 28 -102 45 -111 31z m235 -107 c47 -23
73 -72 69 -130 -3 -40 -6 -47 -31 -53 -16 -4 -25 -3 -21 2 3 5 0 9 -6 9 -6 0
-18 7 -26 15 -21 21 -46 8 -42 -23 2 -20 19 -38 46 -48 1 -1 0 -9 -4 -18 -9
-23 -47 -20 -71 7 -47 51 -72 111 -74 173 -1 34 1 66 4 71 11 17 119 14 156
-5z"/>
<path d="M6215 8400 c-11 -5 -35 -9 -53 -9 -134 -3 -236 -227 -165 -361 59
-112 121 -156 233 -165 44 -3 81 -2 90 4 21 15 8 22 -47 25 -26 2 -61 8 -76
15 -16 6 -36 11 -46 11 -16 0 -75 69 -101 120 -7 13 -13 60 -14 106 0 73 4 90
29 139 35 67 57 80 147 90 82 9 108 -4 140 -69 24 -51 19 -76 -16 -76 -18 0
-27 8 -35 31 -10 30 -12 31 -33 17 -71 -47 30 -115 110 -74 23 12 33 25 38 52
4 21 2 39 -3 43 -6 3 -14 21 -18 39 -9 44 -55 72 -115 71 -25 0 -54 -4 -65 -9z"/>
<path d="M4095 8140 c-4 -6 -10 -8 -14 -5 -5 2 -24 -10 -43 -28 -28 -25 -40
-47 -53 -100 -21 -81 -15 -120 25 -176 33 -45 101 -85 129 -76 10 3 29 -4 44
-16 23 -18 32 -19 60 -10 39 13 97 64 97 85 0 9 5 16 11 16 7 0 8 19 3 58 -11
90 -18 101 -82 129 -48 20 -61 31 -71 59 -7 19 -22 43 -34 54 -22 21 -62 27
-72 10z m65 -98 c12 -20 38 -48 58 -62 91 -59 100 -83 56 -157 -19 -34 -31
-43 -47 -41 -21 3 -26 14 -42 91 -7 36 -42 37 -51 2 -3 -14 -4 -32 0 -40 6
-17 -2 -45 -14 -45 -4 0 -25 18 -47 40 -37 39 -38 42 -38 111 0 63 3 73 23 86
12 9 22 23 22 32 0 9 5 22 12 29 16 16 43 -1 68 -46z m169 -104 c10 -27 3 -88
-10 -88 -5 0 -9 18 -9 39 0 22 -3 46 -6 55 -3 9 -1 16 5 16 6 0 15 -10 20 -22z"/>
<path d="M4090 8050 c0 -5 5 -10 11 -10 5 0 7 5 4 10 -3 6 -8 10 -11 10 -2 0
-4 -4 -4 -10z"/>
<path d="M2391 8054 c-11 -14 -23 -42 -26 -63 -3 -20 -10 -44 -16 -53 -25 -47
1 -154 52 -210 29 -33 44 -41 80 -45 36 -4 50 0 79 21 19 14 47 32 63 38 16 7
27 20 27 31 0 12 5 17 14 14 15 -6 26 20 26 61 0 51 -59 102 -118 102 -40 0
-80 34 -103 87 -22 51 -47 56 -78 17z m62 -103 c19 -23 35 -31 81 -36 46 -6
60 -12 76 -35 22 -31 27 -100 8 -100 -7 1 -24 7 -38 15 -29 16 -66 19 -74 6
-4 -5 -1 -22 4 -37 25 -65 -32 -43 -75 29 -36 62 -47 187 -16 187 5 0 20 -13
34 -29z"/>
<path d="M3540 7876 c0 -21 14 -27 49 -20 46 10 40 34 -9 34 -28 0 -40 -4 -40
-14z"/>
<path d="M3542 7658 c-27 -27 -14 -39 36 -32 52 7 68 16 58 33 -10 15 -79 14
-94 -1z"/>
<path d="M5356 7612 c-3 -6 -4 -17 0 -25 6 -17 52 -40 65 -32 15 10 10 25 -8
32 -10 3 -25 12 -35 20 -9 9 -18 10 -22 5z"/>
<path d="M3521 7579 c-11 -5 -21 -14 -21 -20 0 -8 15 -10 53 -5 28 3 60 6 70
6 9 0 17 6 17 13 0 16 -82 19 -119 6z"/>
<path d="M3547 7434 c-13 -14 6 -24 44 -24 28 0 39 4 39 15 0 11 -11 15 -38
15 -21 0 -42 -3 -45 -6z"/>
<path d="M3540 7322 c0 -14 23 -32 42 -32 11 0 18 7 18 20 0 16 -7 20 -30 20
-16 0 -30 -4 -30 -8z"/>
<path d="M6845 7170 c-6 -10 46 -86 70 -102 5 -4 16 -1 24 6 11 12 9 21 -19
60 -32 44 -61 58 -75 36z"/>
<path d="M6617 7108 c-2 -7 4 -34 14 -60 37 -95 48 -168 43 -293 -7 -163 -38
-257 -108 -324 -42 -40 -45 -51 -14 -43 51 13 128 124 160 227 36 122 25 355
-22 443 -11 20 -20 42 -20 49 0 17 -47 17 -53 1z"/>
<path d="M6442 7010 c0 -14 2 -19 5 -12 2 6 2 18 0 25 -3 6 -5 1 -5 -13z"/>
<path d="M6510 6345 c-99 -27 -220 -99 -220 -130 0 -23 29 -26 43 -4 15 26
119 75 189 90 68 15 209 5 268 -18 99 -39 225 -157 277 -258 20 -38 41 -74 48
-80 6 -5 20 -39 30 -74 17 -57 18 -74 7 -183 -9 -87 -20 -138 -38 -182 -14
-33 -27 -70 -27 -81 -1 -11 -9 -24 -19 -30 -9 -5 -35 -31 -58 -57 -63 -72
-160 -115 -276 -122 -71 -5 -94 -3 -103 8 -9 10 -8 16 4 26 22 19 19 28 -18
43 -22 10 -38 27 -51 56 -11 22 -25 41 -31 41 -19 0 -26 -27 -13 -55 16 -35 0
-45 -24 -15 -23 29 -20 90 6 119 23 25 20 51 -4 51 -24 0 -68 -43 -82 -79 -22
-58 20 -130 112 -192 63 -42 67 -44 150 -45 66 -2 101 3 155 21 38 12 71 28
73 34 2 6 10 11 17 11 20 0 104 58 144 100 57 59 81 100 81 140 0 29 6 41 25
54 17 11 25 26 25 44 0 16 6 37 14 47 13 18 17 18 57 5 81 -26 157 -74 204
-128 40 -48 135 -219 135 -244 0 -6 -11 -19 -25 -30 -19 -14 -23 -24 -16 -36
5 -9 14 -52 21 -95 14 -84 25 -101 47 -71 10 14 12 33 8 69 -6 42 -5 48 6 37
16 -15 18 -169 5 -362 -8 -129 -36 -220 -93 -305 -18 -27 -33 -54 -33 -59 0
-5 -17 -32 -38 -60 -21 -28 -46 -64 -57 -81 -30 -48 -85 -103 -117 -116 -16
-6 -26 -14 -23 -17 8 -8 -26 -42 -42 -42 -7 0 -13 -4 -13 -10 0 -5 -7 -10 -15
-10 -9 0 -47 -18 -85 -39 -39 -22 -70 -38 -70 -35 0 2 -18 -5 -40 -16 -21 -11
-48 -20 -59 -20 -11 0 -22 -4 -26 -9 -5 -8 -56 -13 -142 -13 -54 0 -148 11
-181 21 -18 5 -47 21 -64 36 -17 14 -46 32 -65 40 -19 8 -32 18 -29 23 8 13
-50 168 -76 205 -40 57 -93 107 -111 107 -10 0 -16 4 -13 9 9 14 -55 49 -102
57 -23 4 -45 11 -48 16 -4 6 14 31 38 56 98 102 152 246 127 337 -12 44 -65
105 -89 105 -30 0 -31 -15 -4 -41 41 -38 55 -73 48 -121 -8 -58 -46 -178 -56
-178 -4 0 -8 -6 -8 -14 0 -24 -94 -113 -138 -130 -66 -25 -156 -24 -226 2 -32
13 -61 21 -63 18 -3 -3 -21 10 -40 27 -19 18 -47 39 -63 48 -40 22 -100 76
-100 90 0 6 -9 22 -20 36 -11 14 -20 33 -20 42 0 9 -9 42 -20 74 -12 35 -22
93 -25 150 -5 106 14 186 62 258 32 48 38 57 76 122 21 35 26 52 18 61 -6 7
-10 15 -8 17 1 2 -12 -12 -31 -31 -18 -19 -42 -55 -53 -79 -11 -25 -30 -59
-43 -76 -13 -16 -27 -46 -31 -65 -4 -19 -11 -39 -15 -45 -29 -37 -29 -234 -1
-344 30 -115 64 -165 176 -256 106 -86 262 -137 340 -112 24 8 50 -6 41 -22
-4 -6 -18 -11 -32 -11 -13 0 -24 -4 -24 -10 0 -5 -6 -10 -14 -10 -8 0 -17 -9
-21 -20 -3 -11 -11 -19 -18 -17 -6 1 -13 -8 -15 -20 -2 -13 -10 -23 -17 -23
-19 0 -35 -62 -26 -102 16 -69 53 -102 139 -124 67 -18 122 -6 147 32 27 42 1
104 -43 104 l-27 -1 23 -19 c22 -18 22 -21 8 -54 -18 -43 -31 -44 -99 -10 -29
15 -54 27 -57 27 -3 0 -11 13 -17 29 -19 44 -6 113 28 149 29 31 41 33 112 13
20 -6 23 16 5 34 -8 8 -8 15 3 28 11 13 24 15 66 10 98 -12 194 -101 243 -228
16 -43 30 -90 32 -105 4 -40 -20 -36 -41 7 -10 19 -23 34 -30 32 -7 -1 -10 2
-6 7 11 19 -19 51 -48 51 l-29 0 29 -33 c17 -20 36 -60 47 -100 20 -73 29 -85
52 -66 27 22 39 -4 24 -53 -39 -132 -53 -168 -66 -178 -8 -7 -14 -19 -14 -27
0 -7 -7 -16 -15 -19 -8 -4 -15 -10 -15 -14 0 -5 -26 -35 -59 -67 -65 -65 -173
-118 -227 -111 l-29 4 28 14 c15 7 26 18 24 24 -5 12 -11 12 -79 -4 -39 -9
-48 -16 -48 -33 0 -29 -15 -53 -24 -38 -12 19 -46 13 -46 -8 0 -10 -6 -23 -12
-28 -14 -9 -127 -9 -165 0 -16 4 -23 1 -23 -9 0 -8 -4 -14 -10 -14 -5 0 -7 7
-4 14 6 16 -36 38 -97 51 -123 26 -271 140 -325 250 -16 33 -34 65 -41 70 -7
6 -15 33 -19 61 -6 49 -5 52 25 73 47 33 40 101 -10 101 -13 0 -19 -10 -21
-37 -3 -34 -7 -39 -38 -47 -29 -7 -45 -3 -95 21 -51 24 -64 36 -88 81 -39 71
-49 185 -21 228 46 70 102 114 146 114 32 0 44 -15 53 -65 19 -100 78 -167
201 -228 67 -32 161 -64 177 -59 4 1 27 3 50 3 55 1 148 50 196 101 28 31 37
52 41 88 7 61 -4 57 -55 -20 -32 -49 -52 -67 -99 -90 -67 -34 -157 -41 -192
-15 -10 8 -31 15 -46 15 -30 0 -120 54 -154 92 -47 53 -65 96 -62 145 l3 48
80 7 c44 4 97 12 118 18 31 9 207 15 244 9 23 -4 33 3 33 26 l0 25 -87 -4
c-49 -3 -137 -10 -198 -16 -60 -6 -189 -13 -285 -16 -145 -5 -177 -8 -187 -22
-12 -14 -13 -14 -13 0 0 13 -12 15 -82 12 -46 -2 -95 -6 -110 -9 -37 -6 -58 3
-58 25 0 34 -21 32 -99 -8 -43 -22 -107 -46 -142 -53 -35 -6 -75 -14 -89 -16
-14 -3 -45 -4 -70 -4 -36 1 -48 -3 -58 -20 l-14 -22 114 6 c102 5 139 12 203
38 11 5 116 11 233 14 160 5 217 3 228 -6 12 -10 12 -14 1 -28 -8 -9 -17 -28
-21 -42 -3 -15 -14 -29 -25 -32 -11 -3 -24 -22 -33 -48 -14 -43 -16 -44 -67
-51 -29 -5 -73 -17 -99 -27 -26 -11 -75 -30 -110 -43 -188 -72 -334 -348 -333
-633 0 -55 3 -111 6 -125 4 -14 9 -46 12 -72 3 -27 9 -48 14 -48 5 0 9 -6 9
-13 0 -20 58 -134 101 -197 57 -85 222 -220 269 -220 6 0 35 -11 63 -24 29
-13 96 -31 150 -41 103 -19 171 -16 210 9 12 8 36 17 52 20 25 5 32 3 40 -16
9 -20 47 -44 134 -82 12 -6 58 -10 102 -10 74 1 85 4 174 49 73 36 105 59 133
94 20 25 42 49 49 53 10 7 34 77 48 141 3 15 12 27 19 27 19 0 133 65 162 93
77 72 113 176 88 257 -21 70 -30 59 103 123 51 25 97 61 137 105 12 13 32 37
46 52 51 58 91 138 112 226 27 115 35 123 85 97 47 -25 105 -44 146 -49 109
-14 157 -15 205 -4 30 6 57 9 60 5 14 -13 7 -111 -12 -168 -15 -47 -21 -56
-32 -46 -8 6 -14 18 -14 25 0 26 -27 14 -51 -23 -69 -106 -274 -179 -449 -161
-36 4 -38 -26 -3 -41 37 -15 66 -15 133 -2 30 6 72 14 93 17 20 4 37 11 37 15
0 5 7 9 15 9 24 0 95 39 143 78 23 19 45 32 48 29 9 -8 -28 -67 -42 -67 -6 0
-35 -16 -62 -35 -30 -20 -84 -44 -129 -56 -43 -12 -86 -24 -95 -26 -10 -3 -18
-9 -18 -15 0 -5 -8 -4 -19 2 -11 5 -38 10 -60 10 -23 0 -49 4 -59 9 -80 43
-101 50 -111 37 -14 -17 19 -48 81 -76 42 -18 55 -19 135 -11 151 16 266 54
335 111 25 22 58 45 72 51 14 7 26 19 26 27 0 9 6 23 14 31 7 9 32 52 55 95
40 74 42 85 39 145 l-3 66 40 9 c22 5 90 33 150 62 126 62 134 66 195 114 25
20 68 52 96 73 55 42 127 128 139 167 4 14 18 45 30 70 29 55 41 94 59 190 8
41 22 104 31 140 12 50 14 93 10 185 -7 136 -8 145 -40 235 -46 131 -126 278
-193 357 -47 55 -159 118 -228 128 -21 3 -44 8 -50 10 -7 2 -11 37 -11 98 1
100 4 89 -76 239 -32 61 -115 168 -136 176 -9 3 -24 16 -34 29 -10 13 -31 30
-47 38 -15 8 -35 21 -42 29 -8 8 -50 25 -94 39 -90 28 -208 33 -284 12z m1167
-1557 c-3 -8 -6 -5 -6 6 -1 11 2 17 5 13 3 -3 4 -12 1 -19z m-2905 -686 c9 -7
26 -41 39 -75 31 -86 82 -132 165 -148 59 -12 62 -14 67 -45 8 -46 53 -137 90
-182 18 -21 39 -49 48 -62 15 -22 18 -23 34 -10 16 14 17 13 11 -5 -12 -40 94
-118 224 -165 139 -49 260 -66 338 -46 31 8 82 17 113 21 l57 7 12 -51 c20
-82 -4 -156 -69 -218 -25 -23 -121 -78 -121 -69 0 3 -13 1 -30 -4 -16 -5 -30
-5 -30 0 0 4 -9 6 -21 3 -17 -5 -20 -11 -14 -32 16 -65 16 -90 0 -125 -19 -40
-114 -138 -149 -153 -11 -6 -39 -18 -61 -28 -26 -12 -66 -19 -115 -20 -41 0
-80 -4 -87 -8 -7 -4 -20 -1 -30 8 -10 9 -38 33 -62 53 l-43 38 45 36 c24 21
50 52 57 70 7 18 21 52 31 75 20 45 28 191 12 228 -17 42 -58 92 -82 102 -79
32 -93 35 -135 29 -25 -4 -56 -16 -69 -27 -14 -10 -30 -19 -35 -19 -5 0 -17
-19 -26 -41 -16 -39 -16 -43 0 -60 9 -11 23 -19 31 -19 22 0 40 23 35 43 -9
35 26 57 93 57 103 0 142 -52 132 -181 -10 -134 -29 -174 -99 -210 -20 -10
-45 -29 -55 -42 -10 -13 -34 -29 -53 -35 -39 -12 -127 -18 -150 -9 -8 3 -38 8
-67 11 -50 6 -157 48 -168 66 -3 5 -18 11 -34 15 -16 3 -37 15 -47 26 -9 10
-22 19 -28 19 -31 0 -215 244 -216 286 0 6 -7 25 -16 43 -19 37 -23 70 -31
212 -4 93 -2 118 22 209 36 141 79 240 123 283 60 59 123 107 140 107 10 0 30
7 46 15 15 8 34 15 41 15 7 0 17 6 23 13 14 16 94 16 114 -1z m1645 -54 c-3
-8 -6 -5 -6 6 -1 11 2 17 5 13 3 -3 4 -12 1 -19z m24 -48 c6 0 7 5 3 12 -5 7
-3 8 6 3 10 -6 9 -11 -5 -22 -20 -14 -35 -3 -35 27 1 12 3 11 11 -2 5 -10 15
-18 20 -18z"/>
<path d="M3930 5284 c-13 -33 -14 -29 20 -51 20 -12 42 -18 65 -15 43 5 45 17
6 25 -18 4 -36 18 -47 37 -22 37 -32 38 -44 4z"/>
<path d="M4104 5146 c-8 -20 38 -85 64 -92 36 -10 50 12 24 36 -12 12 -22 25
-22 30 0 14 -30 40 -46 40 -8 0 -17 -6 -20 -14z"/>
<path d="M7580 4804 c-27 -15 -38 -36 -39 -77 -1 -15 -10 -53 -21 -84 -17 -47
-18 -60 -7 -70 11 -11 16 -11 29 4 22 25 48 106 48 149 0 19 5 44 11 55 15 29
8 37 -21 23z"/>
<path d="M7424 4364 c-16 -20 -68 -77 -116 -125 -49 -48 -88 -93 -88 -98 0 -6
-7 -8 -15 -5 -14 6 -88 -32 -117 -59 -7 -6 -17 -12 -23 -12 -32 -1 -105 -17
-105 -24 0 -4 -46 -7 -102 -7 -115 1 -137 -12 -56 -32 42 -11 53 -11 59 0 5 7
9 8 9 3 0 -13 40 -17 55 -6 5 5 29 11 51 14 76 9 284 114 284 143 0 8 5 12 10
9 11 -7 171 147 189 183 7 13 8 28 3 38 -7 13 -14 9 -38 -22z"/>
<path d="M5711 4310 c0 -8 4 -22 9 -30 12 -18 12 -2 0 25 -6 13 -9 15 -9 5z"/>
<path d="M1300 3979 c0 -5 5 -7 10 -4 6 3 10 8 10 11 0 2 -4 4 -10 4 -5 0 -10
-5 -10 -11z"/>
<path d="M6282 3838 c-7 -7 -12 -18 -12 -26 0 -25 -45 -95 -86 -134 -52 -48
-123 -102 -147 -111 -19 -7 -19 -28 -1 -34 16 -5 136 90 193 154 56 62 74 91
85 136 7 29 -10 37 -32 15z"/>
<path d="M6620 3659 c-19 -10 -42 -18 -51 -19 -9 0 -19 -3 -22 -6 -6 -6 -64
-15 -97 -15 -65 -1 -89 -26 -38 -40 31 -8 170 23 176 39 2 7 10 12 17 12 25 0
65 23 65 37 0 16 -6 15 -50 -8z"/>
<path d="M6910 3571 c0 -12 6 -21 16 -21 9 0 14 7 12 17 -5 25 -28 28 -28 4z"/>
</g>
</svg>
