<?xml version="1.0" standalone="no"?>
<!DOCTYPE svg PUBLIC "-//W3C//DTD SVG 20010904//EN"
 "http://www.w3.org/TR/2001/REC-SVG-20010904/DTD/svg10.dtd">
<svg version="1.0" xmlns="http://www.w3.org/2000/svg"
 width="830.000000pt" height="1431.000000pt" viewBox="0 0 830.000000 1431.000000"
 preserveAspectRatio="xMidYMid meet">
<metadata>
Created by potrace 1.16, written by Peter Selinger 2001-2019
</metadata>
<g transform="translate(0.000000,1431.000000) scale(0.100000,-0.100000)"
fill="#000000" stroke="none">
<path d="M525 13845 c-88 -5 -166 -14 -172 -18 -7 -5 -13 -20 -13 -35 0 -15
-8 -47 -17 -72 -14 -38 -26 -159 -24 -250 0 -14 2 -308 5 -655 12 -1468 12
-1477 31 -1487 15 -9 15 -11 0 -22 -15 -11 -17 -60 -22 -480 -4 -346 -3 -467
6 -462 6 4 11 1 11 -8 0 -9 -4 -16 -10 -16 -14 0 -12 -27 3 -33 9 -4 9 -6 0
-6 -16 -1 -18 -231 -14 -1256 2 -479 7 -742 13 -746 7 -4 6 -9 -1 -13 -6 -4
-11 -30 -11 -57 0 -31 4 -48 10 -44 13 8 13 -1 -2 -25 -10 -16 -9 -25 5 -50
10 -16 14 -30 8 -30 -5 0 -11 5 -13 12 -2 6 -5 -180 -6 -413 -1 -233 -5 -448
-8 -477 -5 -37 -2 -57 7 -69 8 -9 10 -18 4 -20 -14 -4 -10 -410 5 -428 8 -10
8 -14 0 -17 -15 -5 -24 -318 -9 -318 6 0 6 -8 -2 -21 -6 -12 -13 -97 -16 -195
-6 -173 -6 -174 15 -174 13 0 22 -6 22 -15 0 -18 -12 -19 -28 -3 -9 9 -12 -7
-12 -74 0 -60 4 -88 13 -91 8 -4 9 -8 1 -14 -6 -5 -11 -56 -12 -128 -1 -66 -5
-132 -8 -147 -3 -16 -1 -28 4 -28 5 0 13 -7 16 -16 3 -8 2 -13 -3 -10 -10 7
-12 -111 -17 -1044 -1 -382 -3 -702 -3 -710 -1 -23 7 -1063 8 -1078 1 -6 4
-11 8 -10 5 2 8 -1 8 -7 0 -5 -3 -9 -7 -7 -9 2 -12 -116 -7 -253 2 -49 3 -169
1 -265 -1 -96 -4 -450 -7 -787 l-5 -611 27 -22 c18 -14 37 -20 55 -18 16 3 28
2 28 -2 0 -3 12 -6 28 -5 15 0 33 -6 39 -15 11 -12 14 -13 22 -1 7 11 9 11 13
0 4 -11 8 -11 19 -2 9 7 76 13 186 16 95 3 176 8 181 10 4 3 26 2 47 -3 25 -6
44 -5 52 1 8 7 18 7 31 0 32 -17 154 -21 181 -7 19 11 32 11 65 1 24 -8 73
-11 121 -8 44 2 164 6 266 7 102 2 191 6 198 10 15 10 300 -2 342 -14 18 -5
42 -7 53 -5 50 12 405 13 428 1 13 -6 43 -11 68 -9 25 1 52 -1 60 -4 26 -11
50 -11 50 1 0 6 7 3 14 -7 11 -14 15 -15 19 -3 6 14 18 14 570 5 64 -1 97 -5
97 -13 0 -7 3 -8 8 -1 9 14 65 18 57 5 -9 -14 4 -12 19 3 9 9 56 12 170 11 86
-1 159 -4 163 -8 3 -3 12 -1 19 5 7 5 32 10 56 9 24 -1 62 -1 85 0 24 0 52 -4
62 -10 12 -6 22 -6 26 -1 3 5 36 8 74 6 38 -2 132 -7 208 -11 76 -4 221 -6
323 -4 205 3 319 3 552 0 99 -1 165 3 178 10 11 6 25 8 31 4 6 -3 23 0 40 6
23 10 39 10 75 0 32 -9 48 -10 56 -2 7 7 21 7 47 -2 44 -16 533 -20 599 -5 30
6 49 6 64 -2 22 -12 113 -14 395 -9 83 1 156 -1 162 -4 14 -9 678 -10 726 -1
66 12 76 21 76 68 5 309 -4 1026 -13 1078 -6 36 -8 81 -5 100 3 19 0 72 -5
119 -6 47 -10 92 -9 100 2 31 11 1213 15 1960 2 467 8 814 15 872 6 54 11 180
12 280 0 101 1 194 2 208 0 14 -3 45 -8 70 -4 25 -7 59 -6 75 8 188 11 513 15
1860 2 864 7 1608 10 1655 3 47 5 150 5 230 0 80 1 156 1 170 0 14 2 243 4
510 2 267 7 645 11 840 4 195 5 445 3 555 -1 110 -2 232 -1 270 2 39 5 342 7
675 3 333 7 634 9 670 2 36 0 99 -5 140 -10 89 -13 628 -4 651 4 9 1 21 -6 27
-27 22 -180 64 -212 58 -34 -6 -404 -19 -501 -17 -33 0 -129 5 -213 10 -149
10 -180 8 -194 -12 -4 -6 -13 -4 -23 6 -20 20 -32 21 -107 3 -32 -8 -58 -10
-58 -6 0 5 6 11 13 13 6 3 -34 6 -91 6 -66 1 -101 -3 -97 -9 3 -5 2 -10 -4
-10 -5 0 -16 -3 -25 -6 -9 -3 -16 -1 -16 5 0 6 7 11 17 11 9 0 13 3 10 7 -9 8
-131 13 -517 18 -162 3 -306 7 -319 10 -15 4 -31 -1 -43 -12 -12 -11 -22 -14
-26 -7 -5 7 -121 11 -352 12 -334 1 -509 2 -540 3 -8 0 -87 -1 -175 -2 -198
-3 -501 -4 -575 -2 -30 1 -185 1 -345 1 -159 -1 -324 0 -365 2 -165 6 -643 -9
-650 -21 -6 -8 -9 -8 -11 0 -5 13 -241 17 -261 5 -14 -9 -245 -7 -290 2 -20 4
-30 0 -40 -15 -13 -22 -38 -29 -38 -11 0 6 5 10 12 10 9 0 9 3 -1 13 -9 9 -74
13 -239 15 -125 1 -238 3 -252 3 -14 0 -68 0 -120 -1 -52 -1 -102 0 -110 2 -8
1 -14 -2 -15 -9 0 -7 -6 -18 -14 -25 -9 -8 -11 -8 -7 -1 9 16 -32 43 -66 43
-19 0 -28 -5 -28 -16 0 -9 -6 -14 -12 -11 -7 2 -12 8 -11 13 1 5 -39 11 -89
12 -50 2 -109 5 -132 6 -22 1 -113 -3 -201 -9z m612 -37 c-3 -8 -6 -5 -6 6 -1
11 2 17 5 13 3 -3 4 -12 1 -19z m168 12 c3 -5 1 -10 -4 -10 -6 0 -11 5 -11 10
0 6 2 10 4 10 3 0 8 -4 11 -10z m335 -6 c0 -8 -5 -12 -10 -9 -6 4 -8 11 -5 16
9 14 15 11 15 -7z m-60 -4 c0 -5 -4 -10 -10 -10 -5 0 -10 5 -10 10 0 6 5 10
10 10 6 0 10 -4 10 -10z m-1090 -10 c0 -5 -5 -10 -11 -10 -5 0 -7 5 -4 10 3 6
8 10 11 10 2 0 4 -4 4 -10z m1210 -11 c0 -5 -4 -9 -10 -9 -5 0 -10 7 -10 16 0
8 5 12 10 9 6 -3 10 -10 10 -16z m-1284 -5 c-1 -11 9 -17 32 -19 18 -1 32 2
32 8 0 7 4 7 12 -1 14 -14 55 -16 60 -3 2 5 52 5 117 -1 97 -7 117 -6 138 7
13 9 29 12 36 8 6 -4 39 -8 72 -10 67 -3 119 -7 250 -22 81 -9 329 -25 380
-24 116 2 1496 15 1543 14 34 0 62 4 62 9 0 5 13 8 30 7 16 -1 30 -8 30 -14 0
-9 18 -11 68 -7 67 5 992 15 1347 14 105 0 255 -4 335 -9 80 -5 197 -6 260 -3
117 5 406 4 898 -1 159 -2 276 1 279 6 3 5 8 5 12 -1 7 -12 458 -22 881 -21
339 1 395 3 432 13 37 11 45 -12 24 -67 -18 -49 -21 -188 -6 -305 12 -89 13
-349 5 -937 -3 -247 -8 -652 -10 -900 -2 -247 -7 -567 -10 -710 -6 -245 -7
-739 -5 -1450 2 -475 -7 -1389 -14 -1490 -21 -285 -23 -454 -12 -1055 10 -486
10 -466 2 -620 -4 -74 -6 -268 -6 -430 4 -946 1 -1270 -10 -1270 -5 0 -38 30
-72 66 -73 77 -129 106 -180 95 -47 -11 -59 -19 -99 -66 -66 -78 -130 -142
-154 -155 -21 -11 -27 -10 -55 14 -17 14 -35 26 -39 26 -5 0 -33 29 -62 65
-30 36 -58 65 -62 65 -11 0 -28 15 -96 83 -113 113 -204 93 -307 -70 -19 -29
-39 -53 -44 -53 -6 0 -10 -7 -10 -15 0 -8 -37 -53 -82 -100 -46 -47 -96 -102
-113 -124 -32 -40 -135 -127 -172 -144 -16 -7 -27 -5 -47 9 -23 17 -25 26 -26
89 -2 153 -9 456 -14 560 l-6 110 25 -32 c44 -55 94 -61 172 -21 49 25 30 81
-31 92 -43 8 -46 21 -7 40 48 25 63 59 60 134 -3 53 1 77 19 112 17 35 19 47
9 56 -18 18 -54 0 -77 -38 -11 -18 -38 -46 -59 -62 -34 -25 -42 -38 -56 -97
-9 -37 -14 -72 -11 -78 4 -5 -2 -15 -13 -21 -13 -7 -22 -7 -26 0 -6 11 1 322
11 485 4 50 6 119 6 155 0 181 -27 728 -42 860 -11 86 -7 526 6 740 8 120 10
374 6 545 -3 106 7 395 14 407 3 4 7 45 9 93 3 52 11 95 20 109 18 28 10 83
-14 91 -9 2 -36 9 -61 14 -25 5 -54 12 -65 14 -69 16 -132 18 -143 4 -26 -31
-4 -45 98 -57 55 -7 107 -18 117 -25 15 -11 5 -13 -67 -8 -146 10 -192 5 -306
-32 -80 -25 -127 -35 -176 -35 -64 0 -67 1 -81 29 -12 25 -13 42 -2 113 14 94
29 138 46 138 7 0 27 11 45 25 18 14 37 25 42 25 5 0 20 8 33 19 13 10 56 36
94 56 107 58 109 59 127 74 38 30 191 -20 260 -86 15 -15 28 -33 28 -40 0 -20
-28 -16 -53 8 -39 38 -126 71 -168 64 -70 -12 -55 -65 19 -65 42 0 127 -28
143 -46 6 -8 17 -14 23 -14 6 -1 34 -21 61 -45 38 -33 47 -47 38 -55 -17 -18
-70 -3 -92 26 -10 13 -29 24 -43 24 -13 0 -32 6 -43 14 -52 35 -148 22 -143
-19 3 -17 11 -20 50 -21 25 0 58 -8 72 -17 14 -10 33 -17 43 -17 10 0 29 -9
43 -20 14 -11 31 -20 39 -20 8 0 22 -6 30 -14 9 -8 32 -16 51 -18 34 -3 35 -2
37 32 2 55 -27 152 -49 158 -13 3 -17 13 -16 42 1 26 -5 43 -20 58 -21 21 -29
66 -23 127 1 11 -3 31 -8 45 -11 28 -22 416 -19 655 1 88 1 201 -1 250 -3 108
8 132 53 115 39 -14 62 -5 75 30 12 36 21 37 58 7 70 -57 101 -55 128 9 21 51
7 87 -38 96 -21 4 -49 16 -64 25 -15 10 -45 18 -67 18 -51 0 -56 18 -12 47 19
13 37 31 40 41 4 15 11 18 35 12 46 -10 67 1 90 47 27 55 14 83 -35 75 -36 -6
-35 -8 -48 68 -2 17 0 47 6 68 20 67 -2 67 -71 -2 -64 -64 -77 -91 -68 -147 4
-24 1 -38 -9 -47 -38 -31 -45 -41 -42 -56 2 -9 13 -20 26 -26 28 -13 28 -16
-8 -56 -28 -32 -30 -32 -30 -11 0 12 -11 77 -24 145 -14 70 -24 160 -25 212 0
50 -3 150 -7 222 l-7 132 24 10 c37 14 56 41 74 106 30 107 37 166 24 197 -6
15 -12 81 -13 145 -2 141 -34 278 -67 286 -16 4 -19 15 -19 72 0 37 -5 85 -12
106 -10 34 -9 42 8 60 14 15 19 36 19 77 0 65 8 82 36 82 17 0 18 -5 13 -40
-7 -43 9 -95 31 -104 24 -9 68 10 89 37 23 31 24 98 1 131 -10 13 -15 45 -15
86 0 60 3 69 40 118 43 56 54 100 23 87 -10 -4 -29 -10 -43 -14 -51 -12 -63
-26 -64 -72 -1 -41 -2 -43 -31 -44 -21 0 -33 -7 -40 -22 -5 -13 -13 -23 -17
-23 -5 0 -8 -13 -8 -30 0 -19 -5 -30 -14 -30 -10 0 -17 24 -25 83 -20 158 -20
180 0 231 15 40 17 66 13 145 -9 142 -17 167 -64 191 -57 29 -115 26 -177 -10
-29 -17 -53 -35 -53 -41 0 -6 -22 -32 -49 -58 -37 -35 -53 -61 -65 -101 -20
-68 -20 -90 0 -119 12 -17 17 -50 19 -127 1 -57 0 -104 -1 -104 -6 0 -88 91
-98 107 -5 10 -1 28 13 53 32 58 27 105 -15 121 -35 13 -73 -8 -82 -45 -9 -34
-35 -42 -40 -12 -3 11 5 26 18 36 18 14 22 27 23 77 2 50 -4 71 -31 123 -17
34 -32 78 -32 96 0 26 -4 34 -17 34 -32 0 -40 -14 -45 -77 -3 -39 -10 -69 -21
-81 -26 -29 -22 -101 8 -146 l25 -37 -28 -9 c-80 -30 -112 -72 -105 -140 3
-25 10 -51 15 -57 12 -15 58 -18 58 -4 0 18 75 58 95 51 11 -4 30 -4 43 1 27
11 72 -5 72 -25 0 -9 -13 -22 -30 -31 -40 -21 -90 -71 -90 -90 0 -30 19 -52
51 -59 43 -8 108 13 126 41 18 27 30 28 61 5 26 -20 33 -64 57 -396 10 -145
11 -205 3 -219 -7 -14 -8 -48 -3 -101 10 -98 10 -156 0 -217 -7 -42 -5 -48 16
-63 26 -18 29 -51 14 -184 -7 -63 -11 -74 -33 -85 -15 -7 -33 -32 -46 -63 -35
-85 -89 -163 -111 -164 -11 0 -40 -20 -65 -44 -25 -24 -60 -52 -78 -63 -32
-20 -92 -88 -92 -105 0 -10 -7 -18 -70 -83 -24 -25 -47 -63 -59 -95 -14 -44
-22 -54 -37 -52 -11 2 -30 4 -44 4 -14 0 -34 8 -46 19 -20 19 -20 19 -54 -16
-37 -38 -50 -43 -50 -20 0 21 -18 19 -25 -4 -8 -28 -32 -33 -66 -16 -16 9 -39
13 -53 9 -16 -4 -27 -1 -33 9 -4 8 -17 16 -27 18 -10 2 -22 11 -26 19 -4 8
-12 25 -18 37 -7 13 -12 28 -12 35 0 21 -53 68 -76 68 -13 0 -47 13 -76 29
-42 23 -70 30 -133 34 -44 2 -89 1 -100 -3 -26 -10 -55 6 -55 30 0 10 -6 23
-12 27 -19 12 -52 63 -68 103 -20 51 -36 67 -85 79 -54 14 -65 14 -65 1 0 -5
7 -10 14 -10 8 0 28 -17 43 -37 15 -21 34 -42 40 -46 7 -4 13 -19 13 -32 0
-28 30 -95 42 -95 4 0 8 -5 8 -10 0 -7 -28 -10 -76 -8 -64 3 -78 0 -89 -15
-36 -49 23 -73 148 -61 51 5 142 8 202 8 106 -2 113 -3 160 -33 27 -17 56 -31
64 -31 9 -1 25 -8 37 -18 16 -13 20 -26 16 -54 -5 -42 17 -71 59 -81 17 -4 31
-18 39 -36 6 -16 45 -62 86 -101 77 -75 106 -85 112 -40 2 14 11 33 19 42 9
10 16 32 17 50 1 37 42 101 60 95 6 -3 10 -10 8 -18 -6 -25 9 -59 26 -59 9 0
25 14 35 31 23 42 43 33 37 -17 -11 -85 2 -902 15 -935 11 -30 32 -306 25
-331 -10 -32 9 -64 32 -55 37 14 38 216 3 475 -5 34 -3 42 9 42 19 0 21 36 3
43 -14 5 -20 99 -33 505 -6 207 4 261 62 311 37 33 60 36 58 8 -16 -205 -13
-284 17 -383 5 -17 12 -183 15 -370 l7 -339 -27 -49 c-15 -28 -24 -57 -20 -68
3 -10 7 -58 8 -107 4 -115 28 -149 71 -101 14 15 16 29 11 60 -5 31 -2 45 10
57 13 14 15 52 13 309 -1 189 1 298 8 306 6 7 13 26 17 41 4 16 34 57 66 92
l60 64 0 -32 c0 -18 -9 -59 -21 -91 -12 -36 -19 -76 -17 -105 3 -39 6 -46 26
-49 13 -2 22 2 23 10 2 40 11 88 30 150 16 51 20 87 17 136 -4 56 -1 72 16 95
11 15 23 27 26 27 13 0 19 -136 10 -215 -22 -175 -38 -274 -60 -350 -12 -44
-28 -105 -35 -135 -7 -30 -24 -84 -39 -119 -14 -36 -26 -68 -26 -73 0 -4 -13
-27 -30 -50 -35 -48 -38 -73 -10 -88 26 -14 40 -5 40 24 0 29 24 63 34 48 15
-25 -50 -132 -80 -132 -6 0 -17 -6 -23 -14 -6 -7 -40 -16 -79 -19 -96 -9 -224
-26 -242 -34 -8 -3 -21 -5 -29 -4 -7 1 -38 -8 -69 -20 -52 -21 -55 -22 -68 -5
-14 20 -55 32 -161 49 -40 7 -81 20 -92 29 -25 21 -110 51 -128 44 -19 -8 -16
-36 5 -42 41 -14 99 -50 128 -81 23 -23 41 -33 62 -33 25 0 62 -21 62 -35 0
-20 -17 -35 -41 -35 -22 0 -30 6 -35 25 -4 18 -13 25 -29 25 -13 0 -25 6 -28
13 -2 7 -21 12 -43 12 l-39 0 1 -43 c1 -49 16 -65 54 -58 17 3 34 -4 53 -19
34 -30 34 -35 -3 -35 -63 0 -113 34 -149 102 -21 38 -38 45 -65 25 -28 -20
-15 -56 42 -115 64 -67 97 -82 176 -82 36 0 68 -4 71 -10 4 -6 -6 -10 -22 -10
-15 -1 -53 -11 -83 -24 -51 -21 -55 -25 -56 -57 -1 -42 11 -59 41 -59 13 0 25
-6 28 -12 3 -10 9 -10 23 -2 15 9 19 22 17 57 l-1 45 54 7 c30 3 61 13 69 22
24 23 35 50 29 67 -3 9 6 25 25 42 17 14 37 48 46 74 11 33 23 50 38 54 11 3
23 4 24 2 2 -2 -6 -23 -17 -47 -11 -24 -20 -52 -20 -61 0 -9 -8 -23 -18 -30
-10 -7 -34 -42 -53 -78 -26 -50 -40 -66 -59 -68 -30 -5 -79 -45 -97 -79 -17
-33 -16 -97 2 -148 8 -21 12 -41 10 -43 -11 -11 -33 9 -39 35 -4 15 -12 45
-17 67 l-10 39 -44 -6 c-47 -7 -46 -8 -60 60 -11 54 -39 80 -101 94 -49 11
-62 10 -110 -6 -39 -13 -54 -23 -54 -36 0 -28 32 -41 69 -28 59 21 129 -7 115
-45 -9 -23 -22 -20 -26 6 -4 30 -23 33 -47 9 -12 -12 -25 -21 -30 -21 -5 0
-17 -7 -25 -16 -18 -17 -10 -41 26 -81 20 -21 20 -21 -4 -37 -13 -9 -38 -19
-56 -22 -29 -6 -32 -4 -32 19 0 14 12 49 26 77 14 28 24 54 21 57 -3 2 -20 13
-39 22 -32 18 -33 18 -80 -8 -57 -31 -61 -54 -17 -99 28 -29 31 -35 21 -57
-14 -30 -50 -33 -81 -7 -20 16 -21 21 -11 71 20 105 8 127 -51 97 -18 -9 -37
-16 -43 -16 -19 0 -40 -85 -26 -109 17 -33 1 -46 -26 -20 -19 18 -24 33 -24
73 0 72 -8 81 -56 66 -56 -18 -66 -24 -86 -51 -27 -36 -15 -54 58 -89 63 -29
82 -50 46 -50 -10 0 -41 11 -68 25 -27 14 -56 25 -64 25 -8 0 -28 13 -45 30
-16 16 -50 40 -75 53 -56 29 -60 57 -11 73 18 6 48 23 67 38 27 22 34 34 34
64 1 34 18 72 34 72 3 0 6 -12 6 -27 0 -27 25 -63 43 -63 6 0 26 -17 45 -37
32 -35 34 -36 44 -18 6 11 29 37 50 58 31 29 44 36 64 31 14 -4 38 1 58 10 39
18 96 32 96 22 0 -3 -6 -15 -12 -26 -10 -15 -10 -25 -2 -38 15 -23 46 -22 59
3 5 11 20 30 33 43 12 12 22 28 22 36 0 21 -28 46 -51 46 -33 0 -21 16 22 30
38 13 95 55 146 109 34 35 38 82 16 159 -20 72 -11 65 -119 87 -13 3 -27 18
-35 37 -7 18 -25 43 -39 55 -24 21 -24 23 -7 40 16 16 19 16 50 1 52 -26 113
-44 272 -83 87 -22 178 -51 218 -71 38 -19 75 -34 82 -34 7 0 18 -7 25 -15 19
-23 60 -19 60 5 0 30 -78 99 -120 105 -19 3 -48 12 -65 20 -34 15 -142 46
-230 65 -82 18 -243 80 -340 129 -104 54 -160 106 -168 157 -8 51 -31 68 -130
99 -45 14 -86 30 -92 34 -33 27 -241 39 -350 21 -33 -6 -76 -13 -95 -16 -19
-3 -48 -13 -64 -21 -37 -19 -105 -91 -112 -118 -3 -11 0 -78 5 -148 11 -127
30 -193 54 -184 14 5 14 9 -3 183 -13 144 -6 185 35 192 11 2 29 7 40 12 47
22 47 23 51 -125 4 -202 13 -375 18 -394 3 -9 10 -77 16 -151 6 -74 13 -151
15 -170 1 -19 6 -78 9 -130 4 -52 11 -129 16 -170 14 -124 17 -590 4 -611 -4
-7 -8 -134 -9 -283 -3 -222 0 -275 11 -294 8 -12 12 -27 9 -32 -4 -6 -8 -155
-9 -333 -2 -177 -9 -378 -16 -447 -15 -166 -17 -201 -26 -500 -8 -286 -6 -605
5 -665 10 -62 3 -84 -27 -91 -15 -3 -36 -9 -47 -13 -16 -6 -30 2 -68 40 l-48
47 28 14 c15 7 29 22 31 33 2 11 15 32 28 46 22 23 24 30 15 68 -5 23 -16 50
-25 60 -9 10 -13 21 -9 24 11 11 6 230 -7 290 -11 56 -8 741 5 972 15 279 15
273 -1 279 -12 4 -15 21 -15 68 0 35 -4 207 -10 383 -6 176 -12 453 -13 615
-2 162 -7 365 -12 450 -10 176 -10 231 -4 454 3 132 1 161 -11 167 -68 33 -69
33 -84 13 -8 -10 -20 -35 -26 -54 -6 -19 -18 -45 -25 -58 -18 -27 -30 -83 -50
-232 -15 -106 -15 -121 0 -185 9 -38 16 -80 16 -93 0 -40 27 -92 48 -92 11 0
22 -6 25 -13 8 -21 -4 -70 -23 -92 -10 -11 -20 -33 -23 -50 -2 -16 -15 -66
-27 -110 -12 -44 -24 -97 -27 -117 -3 -21 -9 -38 -13 -38 -5 0 -20 -33 -35
-72 -42 -110 -54 -137 -70 -145 -18 -11 -82 -140 -90 -184 -8 -43 16 -109 40
-109 9 0 25 5 37 11 18 10 19 17 13 70 -6 49 -3 66 15 104 12 25 27 48 34 53
14 8 60 101 76 155 13 42 36 52 26 10 -13 -49 -16 -343 -4 -343 16 0 -1 -350
-37 -770 -9 -102 -21 -286 -26 -410 -13 -277 -14 -292 -23 -360 -4 -31 -9 -78
-11 -105 -1 -28 -8 -122 -15 -210 -12 -158 -9 -226 12 -296 14 -50 60 -69 167
-69 97 0 111 -13 64 -63 -17 -18 -34 -41 -38 -52 -7 -17 -10 -13 -14 20 -5 29
-13 43 -33 55 -25 14 -28 13 -42 -5 -8 -11 -20 -42 -26 -70 -10 -48 -9 -70 6
-179 4 -31 1 -73 -9 -120 -14 -62 -35 -264 -36 -336 -2 -535 4 -690 26 -707 9
-7 19 -14 24 -15 12 -5 15 -161 3 -165 -5 -2 -27 12 -48 31 -31 29 -36 39 -29
58 15 43 8 99 -14 118 -28 22 -124 34 -136 17 -6 -8 -7 -7 -3 5 3 10 1 30 -5
46 -7 20 -7 71 0 158 14 171 24 221 49 245 25 23 27 44 8 90 -7 19 -16 64 -19
101 -5 54 -3 71 10 83 13 14 14 20 3 41 -11 20 -11 26 3 41 23 26 32 71 17 88
-11 13 -10 20 0 40 17 33 2 68 -39 89 -24 13 -31 24 -36 58 -6 43 18 235 33
266 5 10 7 44 6 77 -1 33 2 96 7 140 36 321 54 580 63 870 3 116 9 293 13 395
3 102 7 288 7 413 1 210 0 230 -17 245 -18 16 -20 15 -37 -5 -15 -19 -17 -39
-14 -135 1 -62 4 -129 5 -148 5 -73 -11 -648 -19 -720 -6 -41 -10 -140 -11
-219 -1 -80 -4 -147 -6 -150 -9 -15 -40 -412 -38 -480 1 -24 -3 -53 -9 -65 -6
-11 -12 -43 -14 -71 -3 -96 -23 -295 -33 -332 -12 -48 -6 -176 11 -205 11 -21
15 -109 20 -440 1 -75 -36 -102 -69 -51 -16 25 -18 55 -15 358 6 743 7 767 31
787 25 19 23 8 42 294 10 153 9 178 -6 229 -14 49 -16 103 -15 338 0 154 2
283 5 286 2 4 4 67 6 141 2 120 0 135 -15 134 -21 -2 -20 4 3 24 20 18 24 75
37 571 2 95 7 178 10 183 10 16 5 203 -5 232 -21 53 -23 226 -5 377 14 118 15
172 8 274 -5 70 -6 129 -2 131 10 6 48 -56 48 -77 0 -8 11 -26 25 -39 21 -20
28 -22 50 -12 32 15 32 33 -5 121 l-29 72 26 42 c71 110 67 85 43 327 -14 136
-14 163 5 253 8 41 13 82 9 90 -10 26 -36 29 -61 6 l-23 -22 0 39 c0 45 23 84
49 84 12 0 22 13 31 41 8 22 17 42 21 45 5 3 17 25 28 49 11 25 31 59 44 77
14 18 36 56 50 84 24 48 134 165 202 215 17 12 46 37 65 54 55 50 224 115 410
157 63 14 187 10 239 -8 24 -8 78 -17 120 -21 117 -9 106 -21 -19 -22 -61 -1
-115 -3 -120 -6 -4 -3 -25 -7 -46 -11 -22 -3 -43 -10 -49 -14 -5 -4 -32 -11
-60 -15 -144 -22 -231 -69 -356 -194 -36 -36 -98 -97 -137 -135 -40 -38 -72
-77 -72 -87 0 -31 -28 -90 -75 -160 -42 -63 -50 -78 -64 -134 -8 -27 -24 -81
-37 -118 -40 -115 -28 -203 27 -195 27 3 38 40 20 62 -26 31 38 259 105 376
23 41 46 88 50 104 11 47 51 109 90 141 20 17 48 40 63 53 14 12 47 30 74 40
38 13 47 21 47 40 0 13 11 33 24 46 28 26 127 76 150 76 9 0 33 7 53 15 21 7
52 16 68 19 17 3 52 12 78 20 125 40 451 10 575 -51 20 -10 38 -24 40 -30 6
-22 -40 -14 -106 17 -70 33 -126 38 -159 15 -19 -13 -33 -14 -85 -5 -49 9 -84
8 -158 -3 -52 -8 -119 -12 -147 -10 -29 3 -59 1 -65 -4 -7 -6 -29 -13 -49 -17
-21 -4 -43 -14 -50 -23 -8 -9 -33 -25 -57 -35 -24 -11 -48 -30 -54 -44 -6 -13
-15 -25 -20 -25 -4 -1 -12 -3 -18 -4 -5 -1 -14 -3 -20 -4 -5 0 -34 -22 -64
-48 -30 -27 -70 -59 -90 -73 -50 -35 -116 -121 -122 -162 -5 -25 -1 -38 15
-52 24 -22 77 -30 106 -17 11 5 28 12 38 15 11 3 21 15 24 26 3 12 14 19 32
20 14 0 80 2 146 5 66 2 197 7 291 11 153 6 183 4 290 -15 196 -37 257 -52
305 -76 25 -13 63 -27 85 -31 38 -7 144 -69 144 -84 0 -5 41 -52 90 -106 63
-69 96 -114 108 -147 12 -34 29 -58 56 -78 22 -16 44 -29 48 -29 5 0 8 23 6
52 -3 46 -6 53 -27 58 -15 3 -27 17 -35 38 -6 17 -46 68 -89 112 -42 44 -77
83 -77 86 0 4 -16 26 -35 49 -38 47 -120 98 -175 110 -19 4 -59 18 -88 31 -58
25 -180 59 -188 51 -3 -2 -37 2 -75 9 -39 7 -74 13 -77 12 -4 -1 -33 4 -65 11
-38 8 -94 10 -165 6 -59 -3 -190 -7 -292 -8 l-185 -3 -22 25 c-22 26 -22 26
-54 8 -17 -10 -34 -15 -37 -12 -8 7 29 45 61 61 30 16 47 11 47 -12 0 -19 33
-18 106 5 34 11 80 22 103 26 22 3 56 12 76 20 19 8 52 15 74 15 32 0 44 5 57
25 15 23 22 25 96 25 45 0 97 -4 117 -9 104 -27 195 -42 277 -45 50 -1 96 -6
102 -10 7 -4 43 -52 82 -106 89 -126 121 -140 134 -60 5 30 1 53 -14 87 -11
25 -20 47 -20 49 0 10 60 3 66 -8 4 -6 8 -36 8 -67 1 -59 32 -121 61 -121 21
0 65 -82 65 -121 0 -41 28 -79 59 -82 16 -1 29 -13 43 -43 35 -75 72 -61 49
18 -14 45 -54 88 -82 88 -21 0 -26 26 -7 32 17 6 22 123 8 187 -19 82 -15 185
9 284 12 48 19 91 16 97 -3 5 -19 10 -34 10 -15 0 -53 9 -83 19 -31 10 -88 21
-129 24 -42 2 -75 9 -77 16 -2 6 -10 11 -17 11 -8 0 -17 5 -21 11 -4 7 4 10
22 8 38 -4 53 6 47 31 -6 23 -49 38 -65 22 -8 -8 -18 -5 -36 8 -14 11 -33 20
-43 20 -10 0 -28 4 -41 9 -13 5 -48 14 -78 20 -200 39 -285 53 -318 53 -20 0
-55 8 -77 17 -50 22 -170 27 -257 11 -143 -27 -353 -108 -420 -162 -24 -19
-59 -45 -78 -58 -19 -13 -53 -41 -74 -63 -54 -54 -77 -66 -108 -60 l-26 5 26
37 c14 20 50 52 79 71 29 19 53 41 53 50 0 22 76 95 130 123 34 18 46 30 48
50 6 52 -48 25 -146 -74 -31 -30 -46 -39 -55 -31 -6 5 -26 7 -44 5 -24 -4 -47
-23 -95 -77 -139 -158 -171 -180 -129 -91 30 64 142 170 273 259 32 21 66 47
77 57 11 11 23 19 26 19 3 0 26 15 52 34 27 18 57 36 68 40 12 3 37 21 57 40
20 19 50 37 67 41 17 3 33 11 36 16 4 5 17 9 30 9 13 0 27 5 30 10 3 6 18 10
33 10 15 0 51 9 80 20 29 11 67 20 86 20 19 0 47 7 62 15 16 8 36 15 44 15 9
0 24 15 34 34 22 41 15 86 -12 86 -10 0 -22 4 -27 9 -6 5 -28 11 -50 13 -28 2
-41 8 -43 21 -3 14 4 17 37 17 48 0 55 18 11 27 -44 8 -37 18 28 37 69 19 137
66 150 104 15 43 3 92 -24 104 -18 8 -24 19 -24 42 0 36 -8 50 -32 59 -10 3
-18 14 -18 24 0 10 -6 30 -14 44 -12 23 -11 28 11 53 12 15 23 37 23 50 0 26
-91 116 -116 116 -9 0 -32 14 -51 30 -18 17 -40 30 -49 30 -16 0 -38 46 -30
66 3 7 25 22 48 33 55 25 94 63 124 123 29 57 30 93 4 135 -28 46 -68 64 -132
58 -90 -8 -115 1 -139 50 -19 38 -20 48 -10 73 16 39 0 72 -34 72 -24 0 -25 2
-19 43 4 23 11 52 15 65 16 41 10 90 -21 185 -24 72 -41 104 -77 146 -56 63
-74 71 -178 78 -48 3 -102 14 -135 27 -60 25 -80 24 -80 -4 0 -21 89 -130 106
-130 6 0 19 -9 29 -20 16 -17 17 -31 11 -113 -7 -96 8 -178 38 -202 23 -18 35
-50 25 -66 -8 -12 -10 -12 -18 0 -13 20 -100 26 -163 11 -29 -7 -75 -25 -103
-40 -27 -15 -67 -30 -89 -33 -21 -4 -46 -13 -56 -22 -19 -17 -46 -20 -55 -6
-8 13 -115 -32 -145 -61 -109 -107 -165 -179 -176 -226 -4 -15 -13 -49 -22
-75 -14 -47 -13 -129 4 -184 5 -17 2 -23 -10 -23 -9 0 -16 8 -16 19 0 36 -23
43 -71 18 -52 -26 -73 -45 -123 -110 -30 -41 -36 -57 -36 -98 0 -44 4 -54 43
-96 47 -51 98 -77 174 -88 58 -8 93 0 93 20 0 7 7 15 15 19 10 3 15 -1 15 -12
0 -10 4 -22 10 -28 5 -5 10 -31 11 -57 1 -26 8 -55 14 -64 10 -14 14 -12 33
12 14 18 20 35 16 50 -4 18 -1 25 15 30 12 3 21 13 21 21 0 8 7 14 15 14 11 0
15 -11 15 -35 0 -60 23 -100 68 -118 41 -16 59 -33 48 -45 -12 -11 -110 31
-132 57 l-21 25 -19 -40 c-10 -21 -22 -42 -27 -45 -13 -9 1 -29 19 -29 9 0 14
-11 14 -36 0 -28 8 -44 34 -70 19 -19 42 -34 51 -34 13 0 16 -5 10 -22 -16
-54 -16 -69 -1 -93 25 -38 106 -75 167 -75 45 0 50 -2 43 -17 -4 -10 -8 -49
-8 -86 -1 -50 -5 -72 -16 -80 -9 -7 -22 -27 -29 -45 -8 -18 -19 -36 -26 -40
-14 -8 -142 -120 -197 -173 -41 -39 -43 -53 -38 -202 1 -39 -3 -51 -22 -66
-25 -21 -25 -14 -26 -276 -1 -77 3 -157 9 -178 9 -34 7 -41 -14 -67 -27 -31
-29 -62 -42 -560 -2 -80 -8 -235 -14 -345 -5 -110 -10 -207 -10 -215 -2 -90
-15 -301 -31 -520 -10 -135 -25 -369 -35 -530 -3 -47 -10 -155 -15 -240 -25
-378 -29 -470 -35 -708 -3 -140 -10 -286 -16 -325 -5 -40 -10 -144 -10 -232 0
-304 -8 -509 -24 -581 -4 -18 -2 -40 4 -52 8 -14 7 -48 -3 -123 -7 -57 -14
-167 -15 -244 l-2 -140 34 -35 c48 -50 106 -99 137 -115 36 -18 40 -32 29 -89
-12 -67 18 -114 89 -139 33 -11 53 -25 57 -38 4 -11 4 -62 0 -113 l-7 -93 -97
-6 c-53 -4 -109 -9 -126 -12 -16 -3 -106 -7 -199 -9 -100 -3 -173 -9 -179 -15
-14 -14 -64 -14 -72 -1 -4 7 -70 10 -175 9 -93 0 -173 2 -178 5 -24 14 -694
23 -892 11 -47 -3 -166 -2 -264 1 l-179 7 7 229 c4 163 3 227 -5 223 -6 -4 -8
-13 -5 -21 3 -8 1 -14 -4 -14 -5 0 -12 9 -15 20 -3 11 -11 20 -16 20 -5 0 -9
6 -9 14 0 10 9 14 27 13 l28 -2 2 280 c1 206 -1 282 -10 287 -9 6 -9 8 1 8 9
0 12 93 12 438 0 240 3 721 6 1067 5 675 7 1327 5 1915 -1 201 0 393 1 428 3
56 1 63 -14 58 -12 -3 -18 1 -17 12 1 24 17 70 18 55 1 -7 4 -13 9 -13 4 0 7
189 6 421 0 345 -3 422 -14 429 -12 7 -11 11 1 26 11 14 14 65 14 268 1 303
-1 326 -26 326 -11 0 -19 5 -19 11 0 6 9 8 20 4 15 -5 20 -2 20 12 0 10 3 29
6 43 6 24 5 24 -16 -5 l-22 -30 4 32 c3 18 0 34 -6 36 -17 6 2 37 22 37 19 0
20 15 19 518 0 324 -4 519 -10 523 -6 5 -6 18 1 38 7 20 7 33 1 37 -6 4 -6 10
-1 17 14 17 14 597 0 614 -6 8 -6 13 -1 13 7 0 10 234 11 648 0 356 1 683 1
727 0 44 -2 108 -5 142 -5 52 -4 64 10 69 9 3 16 15 16 25 0 10 4 19 9 19 5 0
8 -7 7 -16z m5508 -1066 c20 -30 32 -108 18 -108 -6 0 -15 15 -20 33 -11 41
-41 43 -60 5 -7 -16 -20 -28 -28 -28 -28 0 -12 -91 20 -112 19 -13 35 -9 58
14 20 20 22 20 34 3 12 -16 12 -22 1 -39 -8 -12 -24 -25 -36 -31 -12 -6 -25
-22 -28 -37 -3 -16 -9 -28 -14 -28 -14 0 -29 -38 -22 -55 5 -14 14 -16 44 -11
l39 6 0 -64 c0 -50 -4 -65 -17 -70 -30 -12 -39 12 -13 39 22 24 23 26 7 42 -9
10 -29 18 -44 19 -31 1 -45 33 -31 72 11 31 10 85 -2 117 -14 36 -45 30 -45
-9 0 -33 -18 -44 -40 -26 -30 25 -42 5 -41 -72 l1 -73 35 -5 c19 -3 48 -14 63
-24 26 -18 28 -24 23 -59 -4 -21 -13 -52 -22 -68 -13 -26 -13 -35 0 -79 16
-53 13 -80 -9 -80 -22 0 -26 -16 -19 -70 8 -61 31 -90 71 -90 53 0 93 -12 93
-27 0 -10 -6 -13 -17 -8 -10 3 -40 11 -67 16 -60 11 -74 2 -60 -38 7 -21 18
-29 49 -36 22 -4 52 -6 68 -3 19 4 27 1 27 -8 0 -10 -14 -14 -50 -14 -44 0
-55 -4 -103 -46 -70 -60 -81 -60 -74 2 4 26 2 74 -3 107 -13 80 -30 285 -34
417 -2 59 -7 111 -10 117 -3 5 -1 33 5 61 10 47 9 56 -12 95 -21 39 -22 46
-10 86 14 48 39 89 52 89 5 0 14 -12 19 -26 7 -19 16 -25 33 -22 25 3 36 43
18 61 -28 28 2 72 54 80 68 10 84 7 99 -15z m-549 -112 c9 -56 4 -80 -16 -84
-10 -2 -21 9 -29 28 -11 27 -11 37 3 66 22 46 34 43 42 -10z m512 -48 c-3 -8
-6 -5 -6 6 -1 11 2 17 5 13 3 -3 4 -12 1 -19z m-2449 -125 c71 -76 126 -260
94 -319 -5 -10 -13 -40 -17 -65 -6 -42 -4 -48 24 -74 23 -22 30 -37 29 -62 -1
-22 6 -41 21 -57 26 -28 24 -61 -3 -61 -12 0 -24 14 -35 41 -21 54 -40 78 -76
97 -16 8 -42 26 -57 41 -24 21 -28 33 -28 77 0 47 -4 56 -35 85 l-35 32 6 114
c4 62 8 115 10 116 1 2 8 -7 15 -20 18 -33 28 -119 16 -145 -12 -26 16 -92 57
-136 50 -54 76 -5 29 55 -27 33 -28 40 -27 122 2 83 1 89 -32 137 -19 28 -34
53 -34 55 0 2 10 4 21 4 12 0 37 -17 57 -37z m2052 -13 c-6 -11 -12 -20 -14
-20 -2 0 -2 9 1 20 3 11 9 20 15 20 5 0 4 -9 -2 -20z m-135 -30 c20 -22 15
-32 -18 -37 -12 -2 -35 -8 -50 -14 -33 -14 -41 -8 -33 24 11 43 71 60 101 27z
m155 -179 c0 -28 -48 -63 -74 -55 -33 10 -33 14 2 45 38 34 72 39 72 10z m420
-88 c0 -4 -7 -15 -17 -25 -13 -15 -14 -23 -5 -44 16 -34 15 -41 -9 -47 -23 -6
-32 11 -42 79 l-7 42 40 0 c22 0 40 -2 40 -5z m220 -122 c0 -42 -6 -52 -26
-44 -17 6 -19 64 -2 81 18 18 28 4 28 -37z m-2874 -32 c3 -6 17 -9 30 -6 17 3
34 -6 61 -29 42 -37 48 -72 19 -116 -15 -22 -15 -30 -5 -50 7 -13 13 -45 13
-73 1 -43 4 -50 22 -53 27 -4 37 31 29 97 l-6 46 19 -36 c21 -40 36 -115 26
-130 -4 -6 -11 -5 -21 2 -16 14 -30 7 -129 -57 -29 -19 -63 -38 -75 -44 -13
-5 -31 -14 -39 -19 -19 -11 -74 -35 -127 -55 -24 -9 -60 -23 -80 -31 -21 -8
-65 -19 -98 -26 -33 -6 -68 -15 -78 -21 -24 -12 -57 -1 -57 21 0 10 -7 38 -16
64 -15 44 -15 51 2 102 9 31 14 58 11 62 -15 14 -57 -29 -68 -69 -11 -41 -8
-114 6 -150 4 -11 3 -18 -4 -18 -32 0 -41 119 -16 191 15 43 13 89 -4 89 -32
0 -76 -129 -69 -206 2 -24 0 -44 -4 -44 -11 0 -10 148 1 186 10 36 28 60 89
121 47 47 52 79 14 77 -36 -1 -22 26 30 58 33 20 62 30 100 32 29 1 66 8 81
14 16 7 36 12 46 12 9 0 22 5 27 10 6 6 37 21 70 34 64 26 187 35 200 15z
m2670 -4 c10 -26 -5 -67 -24 -63 -24 5 -16 78 9 78 5 0 12 -7 15 -15z m-5583
-140 c-7 -21 -13 -19 -13 6 0 11 4 18 10 14 5 -3 7 -12 3 -20z m2243 -152
c-18 -26 -26 -32 -26 -19 0 22 42 84 48 68 2 -6 -8 -28 -22 -49z m1039 11 c0
-29 -48 -31 -76 -3 -21 21 -21 23 -4 35 24 18 80 -4 80 -32z m222 6 c-14 -70
-54 -106 -207 -189 -52 -28 -75 -40 -160 -84 -52 -27 -128 -69 -167 -93 -40
-24 -76 -44 -80 -44 -4 0 -36 -18 -72 -40 -36 -21 -93 -46 -125 -54 -32 -9
-68 -22 -80 -29 -12 -8 -34 -17 -51 -20 -16 -4 -61 -14 -100 -22 -82 -18 -339
-37 -387 -29 -45 8 -78 23 -110 53 -22 19 -28 34 -28 66 0 23 6 49 13 58 10
15 12 11 9 -27 -3 -35 1 -49 17 -65 39 -39 53 -28 48 37 -3 31 -3 46 0 32 4
-24 40 -50 70 -50 17 0 16 6 -4 41 -19 31 -12 49 10 28 55 -52 110 -72 120
-45 10 25 -1 41 -36 52 -22 6 -33 16 -35 32 -4 25 15 30 24 7 4 -8 22 -22 41
-31 29 -15 42 -15 89 -5 29 7 63 10 74 6 20 -6 146 33 285 89 44 18 96 38 115
45 86 32 100 38 117 52 10 8 52 30 93 48 41 19 81 41 88 50 7 9 23 15 36 13
12 -2 29 4 36 13 10 11 16 13 26 4 13 -11 44 -9 92 6 14 5 22 3 22 -4 0 -6
-33 -27 -74 -47 -78 -36 -102 -56 -91 -74 9 -15 37 -12 65 7 14 10 25 16 25
13 0 -15 105 53 155 101 37 35 71 59 88 61 18 2 28 10 30 23 5 30 11 45 18 45
4 0 4 -13 1 -30z m-127 2 c0 -19 -18 -42 -32 -42 -13 0 -9 48 5 53 22 9 27 7
27 -11z m2225 -48 c21 -28 35 -58 35 -75 0 -15 5 -40 11 -56 6 -15 14 -59 19
-98 4 -38 14 -114 20 -168 9 -71 10 -108 2 -135 -5 -20 -18 -63 -27 -96 -11
-37 -20 -55 -26 -49 -6 6 -6 20 1 39 7 17 9 52 5 86 -4 36 -2 69 6 91 7 19 9
42 5 52 -5 15 -15 10 -61 -34 -29 -28 -60 -51 -68 -51 -8 0 -25 -11 -38 -24
-13 -13 -29 -22 -36 -19 -19 7 -16 41 5 52 28 15 169 154 175 173 14 40 -27
30 -81 -19 -16 -16 -36 -33 -43 -38 -8 -6 -27 -20 -43 -33 -16 -12 -33 -22
-37 -22 -26 0 2 39 91 127 99 97 113 120 86 142 -11 10 -26 0 -75 -50 -34 -34
-61 -67 -61 -75 0 -7 -20 -28 -44 -46 -24 -18 -50 -45 -59 -60 -16 -28 -41
-37 -51 -19 -3 5 4 27 17 48 26 46 185 233 198 233 16 0 38 45 32 68 -7 28
-24 28 -59 -2 -16 -14 -53 -43 -82 -66 -29 -23 -58 -52 -64 -65 -22 -48 -58
-34 -44 18 9 35 181 205 213 210 16 2 31 5 35 6 4 0 23 -20 43 -45z m-5602
-37 c-10 -16 -34 19 -27 37 6 17 8 16 20 -5 7 -13 10 -28 7 -32z m2213 -3 c-4
-9 -9 -15 -11 -12 -3 3 -3 13 1 22 4 9 9 15 11 12 3 -3 3 -13 -1 -22z m-25
-77 c-8 -8 -11 -5 -11 9 0 27 14 41 18 19 2 -9 -1 -22 -7 -28z m9 -77 c0 -5
-2 -10 -4 -10 -3 0 -8 5 -11 10 -3 6 -1 10 4 10 6 0 11 -4 11 -10z m1140 -34
c5 -14 43 -47 87 -76 89 -59 133 -98 133 -116 0 -7 -12 -25 -26 -39 -21 -21
-24 -29 -13 -41 10 -12 9 -17 -3 -27 -8 -7 -24 -28 -36 -47 -17 -29 -18 -38
-8 -52 15 -21 29 -22 54 -7 27 17 72 -5 72 -35 0 -16 11 -32 30 -46 30 -21 39
-53 20 -65 -6 -4 -27 -9 -46 -11 -50 -6 -121 -49 -172 -103 -40 -43 -43 -49
-37 -89 4 -23 1 -66 -5 -96 l-11 -53 -60 -17 c-34 -9 -66 -13 -73 -8 -6 4 -33
9 -60 10 -26 2 -77 14 -113 27 -36 14 -74 25 -84 25 -30 0 -22 15 16 29 39 14
97 78 120 133 13 32 13 42 1 83 -8 25 -20 52 -26 60 -9 11 -6 26 15 70 24 47
27 63 21 107 -8 62 -28 102 -60 123 -13 9 -26 28 -29 43 -7 36 -49 61 -72 42
-20 -17 -32 -5 -15 15 7 8 25 15 41 15 16 0 50 14 76 30 26 17 53 30 60 30 7
0 34 13 61 30 32 20 50 26 57 19 7 -7 3 -16 -13 -29 -20 -17 -52 -76 -52 -99
0 -5 11 -16 25 -25 24 -16 28 -16 58 0 17 9 38 20 46 24 8 3 17 12 19 19 3 10
-7 12 -47 6 -43 -6 -51 -4 -51 9 0 10 9 16 24 16 31 0 35 6 42 67 10 80 17 92
34 49z m-1045 -47 c0 -9 -12 -15 -35 -16 -19 -1 -28 0 -20 4 8 3 19 12 23 20
10 17 32 12 32 -8z m625 -113 c0 -15 -18 -31 -26 -23 -7 7 7 37 17 37 5 0 9
-6 9 -14z m15 -65 c-7 -22 5 -32 69 -57 39 -15 52 -27 67 -59 21 -45 24 -65 9
-65 -5 0 -10 6 -10 13 0 7 -15 28 -33 45 -31 30 -38 33 -95 31 -48 -2 -67 2
-82 16 -42 38 -10 93 53 94 23 1 27 -2 22 -18z m-2945 -42 c0 -6 -4 -7 -10 -4
-5 3 -10 11 -10 16 0 6 5 7 10 4 6 -3 10 -11 10 -16z m2798 -28 c4 -11 25 -33
46 -50 35 -28 45 -31 98 -29 49 2 62 -1 74 -17 29 -39 12 -125 -25 -125 -28 0
-32 11 -15 38 22 34 11 56 -23 47 -34 -8 -43 -21 -43 -60 -1 -30 -1 -30 -18
-10 -15 18 -43 36 -104 66 -9 5 -35 12 -57 15 -23 4 -52 17 -66 30 -22 20 -23
26 -14 53 16 44 27 47 45 9 18 -37 109 -97 162 -105 28 -5 32 -3 32 16 0 16
-15 27 -65 50 -65 30 -82 48 -71 76 8 21 35 19 44 -4z m2811 -20 c12 -22 -3
-130 -23 -170 -10 -18 -12 -51 -9 -113 l5 -88 -26 0 c-31 0 -30 6 -32 -145 -1
-66 -5 -141 -9 -167 -6 -41 -4 -48 14 -57 12 -7 21 -20 21 -30 0 -24 29 -36
36 -16 13 32 33 14 45 -39 11 -52 9 -177 -7 -318 -6 -56 -7 -58 -36 -58 -22 0
-29 -4 -27 -17 3 -33 -1 -41 -21 -46 -22 -6 -28 -45 -9 -64 8 -8 7 -16 -1 -29
-8 -14 -9 -27 -1 -46 8 -21 17 -27 48 -30 l37 -3 3 -100 c2 -55 5 -106 8 -113
8 -23 -14 -52 -40 -52 -29 0 -39 -13 -30 -41 5 -16 14 -20 38 -17 30 3 32 1
35 -31 2 -19 1 -50 -3 -68 -5 -30 -9 -33 -39 -33 -21 0 -36 -6 -40 -15 -8 -21
21 -45 55 -45 22 0 29 -5 29 -20 0 -20 -15 -25 -66 -21 -16 2 -27 -7 -38 -30
-26 -52 -21 -67 25 -79 47 -13 73 0 64 31 -4 13 -1 19 9 19 12 0 16 -10 16
-40 l0 -40 -42 0 -43 0 25 -20 c14 -11 33 -18 43 -16 12 3 17 -2 17 -15 0 -32
-27 -33 -77 -2 -27 16 -64 30 -82 31 -19 2 -36 4 -37 5 -5 6 -22 522 -24 737
-1 74 -6 158 -11 185 -6 28 -12 181 -15 340 -2 160 -9 317 -15 350 -15 92 -14
279 2 385 l15 95 46 5 c31 4 62 17 90 38 50 36 64 39 77 13z m-3022 -62 c7
-34 33 -55 95 -74 105 -32 158 -64 188 -112 29 -45 39 -83 22 -83 -4 0 -12
-15 -17 -32 -8 -26 -16 -34 -39 -36 -40 -5 -54 12 -32 37 20 22 15 51 -9 51
-9 0 -15 9 -15 23 0 33 -35 61 -105 86 -71 26 -96 45 -120 90 -13 26 -15 39
-6 57 15 33 30 30 38 -7z m-91 -38 c3 -25 11 -52 19 -61 16 -18 11 -30 -14
-30 -32 0 -67 91 -49 124 18 31 40 14 44 -33z m504 -154 c8 0 22 3 31 7 13 5
20 -3 33 -34 41 -104 -11 -220 -100 -220 -40 0 -44 17 -13 46 55 50 62 108 19
157 -36 42 -39 61 -7 51 12 -4 29 -7 37 -7z m-300 -7 c10 -5 22 -22 28 -38 10
-30 4 -132 -8 -132 -9 0 -20 36 -20 70 0 14 -7 38 -15 54 -15 29 -20 56 -9 56
3 0 14 -4 24 -10z m-78 -31 c12 -16 23 -54 29 -98 8 -68 7 -74 -17 -111 -14
-21 -27 -47 -28 -57 -7 -40 -136 0 -136 42 0 18 30 34 49 27 19 -6 41 25 41
60 0 30 -23 48 -64 48 -33 0 -76 20 -76 35 0 16 85 18 112 4 28 -15 43 3 39
47 -2 29 0 35 15 32 9 -1 26 -15 36 -29z m2686 -41 c0 -24 2 -83 6 -133 19
-261 28 -495 18 -495 -5 0 -12 9 -15 21 -4 13 -12 20 -24 17 -14 -2 -19 -14
-21 -49 -3 -51 -30 -86 -57 -75 -8 3 -25 21 -36 41 -12 19 -27 35 -34 35 -7 0
-27 -16 -45 -36 -29 -33 -31 -41 -25 -81 6 -39 3 -46 -24 -74 -39 -38 -41 -78
-6 -110 31 -30 31 -35 3 -42 -13 -2 -30 -7 -39 -11 -24 -10 -41 135 -39 334 1
181 11 249 41 276 10 9 19 21 19 27 0 5 12 23 26 41 14 17 35 44 47 59 12 16
41 47 64 69 22 22 44 51 48 65 3 14 17 42 31 62 13 19 24 40 24 46 0 11 28 55
35 55 2 0 4 -19 3 -42z m-2378 -84 c-7 -7 -22 -14 -34 -14 -20 0 -19 1 7 25
15 14 28 31 28 38 1 7 4 2 6 -11 3 -13 -1 -30 -7 -38z m2655 -43 c3 -5 1 -12
-5 -16 -5 -3 -10 1 -10 9 0 18 6 21 15 7z m-2840 -41 c10 -16 -41 -94 -56 -85
-9 6 5 61 22 81 13 16 25 18 34 4z m143 -33 c22 -24 23 -26 8 -50 -19 -28 -59
-33 -93 -11 -30 19 -29 42 3 76 30 30 42 28 82 -15z m183 -101 c19 -7 43 -16
54 -20 19 -7 19 -9 -8 -32 -34 -29 -47 -30 -47 -3 0 19 -4 20 -40 14 -27 -5
-46 -3 -55 5 -11 9 -19 9 -27 2 -7 -5 -35 -13 -63 -17 -65 -9 -118 -25 -127
-39 -4 -6 -5 -19 -2 -29 5 -17 -11 -47 -25 -47 -4 0 -5 16 -3 36 3 27 -1 41
-18 59 -26 28 -21 50 15 67 21 9 31 9 53 -4 29 -18 128 -16 145 1 6 6 23 7 38
4 18 -3 29 -1 29 6 0 15 40 14 81 -3z m2774 -46 c4 -32 2 -51 -8 -64 -14 -19
-15 -19 -31 12 -20 39 -20 61 0 91 20 29 31 18 39 -39z m-2886 -67 c0 -5 -3
-9 -9 -11 -5 -2 -10 4 -10 13 0 16 16 14 19 -2z m1957 -40 c-3 -10 -8 -30 -12
-45 -5 -23 -12 -28 -35 -28 -23 0 -27 3 -19 13 6 6 20 27 30 45 21 34 45 44
36 15z m-2028 -15 c-2 -13 -10 -23 -18 -24 -8 0 -28 -5 -43 -12 -34 -14 -37
-15 -37 -3 0 11 71 60 88 60 8 1 12 -8 10 -21z m-178 -88 c-4 -61 -8 -75 -22
-78 -23 -4 -24 27 -2 88 9 25 18 51 20 59 8 27 10 5 4 -69z m3146 -84 c11 -8
33 -16 49 -18 22 -2 31 -9 33 -24 5 -35 -25 -37 -50 -4 -11 16 -25 27 -30 24
-10 -6 -38 14 -38 27 0 13 13 11 36 -5z m-1353 -36 c10 -9 -2 -40 -16 -40 -13
0 -57 40 -57 51 0 9 61 0 73 -11z m1232 -30 c0 -7 -6 -15 -12 -17 -8 -3 -13 4
-13 17 0 13 5 20 13 18 6 -3 12 -11 12 -18z m-2905 -20 c0 -5 -7 -10 -16 -10
-8 0 -12 5 -9 10 3 6 10 10 16 10 5 0 9 -4 9 -10z m2470 -26 c0 -12 -82 -168
-101 -193 -11 -14 -40 -54 -64 -88 -48 -68 -71 -78 -81 -38 -7 30 -10 27 41
46 33 12 41 20 43 45 2 22 -5 37 -28 59 -47 45 -37 73 15 39 23 -15 25 -15 31
0 3 9 3 24 -1 34 -5 14 -4 15 6 5 7 -7 22 -13 32 -13 17 0 19 5 14 40 -5 39
-4 40 24 40 17 0 32 6 35 15 6 14 34 22 34 9z m-925 -133 c61 -6 124 -14 140
-19 34 -10 34 -8 16 -150 -10 -70 -10 -114 -2 -175 13 -98 14 -127 2 -127 -5
0 -13 10 -17 22 -3 11 -22 36 -42 54 l-35 32 16 54 c9 29 18 85 21 125 l4 72
-29 6 c-16 4 -33 4 -38 1 -5 -4 -12 3 -16 14 -3 11 -10 20 -14 20 -5 0 -24 11
-43 23 -19 13 -46 27 -61 31 -14 3 -39 11 -54 17 l-28 12 25 7 c14 4 30 3 35
-1 6 -4 60 -12 120 -18z m-526 -7 c12 -12 -27 -24 -81 -24 -31 0 -62 -2 -70
-5 -17 -6 -45 11 -34 22 17 18 169 24 185 7z m166 6 c15 -7 10 -9 -23 -9 -26
-1 -41 3 -37 9 7 12 32 12 60 0z m-4006 -52 c1 -5 -3 -8 -8 -8 -11 0 -21 37
-13 45 6 5 20 -19 21 -37z m3533 26 c17 -9 26 -19 22 -24 -12 -11 -187 -19
-176 -8 18 18 77 46 100 47 13 0 37 -6 54 -15z m1808 -19 c5 -14 12 -175 14
-358 5 -317 11 -452 22 -525 5 -30 2 -34 -30 -47 -19 -8 -38 -19 -41 -25 -5
-8 -81 -52 -119 -69 -5 -2 -6 12 -3 30 21 120 27 151 43 214 9 39 26 90 36
114 16 39 17 46 4 59 -13 13 -12 20 4 56 21 48 40 217 47 429 3 81 7 147 9
147 3 0 9 -11 14 -25z m-2950 -5 c0 -11 -7 -20 -15 -20 -15 0 -21 21 -8 33 12
13 23 7 23 -13z m1675 -21 c22 -5 61 -12 87 -14 54 -5 101 -26 137 -61 30 -30
39 -30 47 1 3 14 7 25 9 25 1 0 16 -5 34 -11 25 -9 31 -16 31 -40 l0 -30 -60
7 c-53 6 -64 4 -83 -13 -44 -40 -48 -39 -97 17 -40 45 -49 51 -66 42 -28 -15
-210 6 -337 39 -20 6 -42 7 -47 4 -14 -9 -54 5 -44 15 5 5 79 12 164 16 85 3
157 8 159 10 7 6 22 4 66 -7z m-735 -33 c0 -3 -4 -8 -10 -11 -5 -3 -10 -1 -10
4 0 6 5 11 10 11 6 0 10 -2 10 -4z m77 -32 c8 -22 -5 -31 -57 -38 l-45 -7 35
31 c38 33 58 38 67 14z m-131 -45 c5 -9 -13 -14 -78 -23 -21 -2 -38 -1 -38 3
0 14 29 33 40 26 5 -3 10 -2 10 3 0 11 58 3 66 -9z m-696 -122 l-22 -32 6 35
c4 18 12 37 19 42 21 13 20 -11 -3 -45z m448 -104 c-6 -7 -21 -13 -34 -13 -18
0 -24 5 -24 23 0 38 18 47 45 23 17 -15 21 -24 13 -33z m-568 -114 c0 -21 -16
-26 -23 -6 -6 17 3 38 14 31 5 -3 9 -14 9 -25z m895 -42 c11 -3 23 -6 26 -6
17 -2 26 -101 14 -157 -5 -22 -129 -94 -141 -81 -4 3 -7 23 -8 44 l-1 38 50 0
c28 1 56 4 63 9 19 12 14 47 -8 53 -14 4 -20 14 -20 34 0 32 -20 39 -40 14
-19 -23 -39 -18 -50 11 -12 30 -26 28 -53 -8 -18 -24 -19 -29 -5 -70 10 -28
13 -59 9 -83 l-6 -39 -38 34 c-49 43 -64 74 -65 135 -2 57 4 70 33 78 24 7
211 2 240 -6z m202 -73 c-3 -3 -12 -4 -19 -1 -8 3 -5 6 6 6 11 1 17 -2 13 -5z
m-62 -44 c3 -5 27 -19 52 -30 26 -11 67 -37 92 -58 l46 -37 -115 -5 c-108 -5
-115 -6 -118 -26 -2 -16 4 -24 27 -32 16 -6 31 -8 34 -6 2 2 45 7 95 10 73 5
97 3 126 -11 47 -22 47 -42 1 -37 -27 3 -35 1 -35 -11 0 -27 43 -65 90 -80 36
-11 51 -24 75 -61 24 -38 38 -49 73 -59 l43 -11 -7 -51 c-9 -70 -18 -88 -55
-119 -24 -21 -40 -26 -68 -24 -47 4 -50 27 -8 53 37 23 44 52 28 107 -12 38
-24 45 -50 29 -9 -6 -11 -18 -6 -41 l7 -32 -38 6 c-30 5 -47 2 -71 -14 -37
-22 -40 -35 -16 -62 9 -10 13 -21 9 -26 -8 -7 -76 66 -76 82 0 4 -13 24 -30
43 -29 33 -39 63 -21 63 6 0 13 -4 16 -10 20 -33 169 43 163 83 -4 30 -20 30
-62 2 -41 -28 -54 -30 -91 -13 -28 12 -34 38 -9 38 9 0 32 16 51 35 29 29 34
40 28 63 -10 43 -19 45 -79 17 -43 -21 -65 -39 -97 -86 -23 -32 -45 -59 -49
-59 -4 0 -12 -11 -18 -25 -6 -14 -18 -25 -27 -25 -11 0 -14 12 -13 51 1 54
-10 70 -43 62 -11 -3 -25 0 -33 6 -9 8 -32 10 -65 5 -28 -4 -51 -4 -51 -1 0
18 62 64 105 79 54 19 99 62 140 136 14 25 25 55 25 68 0 24 14 32 25 14z
m-1067 -345 c-4 -79 -11 -106 -23 -93 -3 3 -2 44 1 92 9 113 28 114 22 1z
m842 0 c0 -14 -96 -95 -111 -95 -38 0 -49 12 -49 51 0 41 8 46 42 28 14 -8 27
-8 42 -1 18 10 43 17 69 21 4 0 7 -1 7 -4z m80 -95 c18 -22 42 -40 52 -40 11
0 18 -7 18 -20 0 -28 26 -77 62 -119 16 -18 34 -44 41 -58 6 -13 31 -33 58
-46 57 -25 91 -75 70 -101 -11 -13 -18 -12 -58 10 -46 24 -61 22 -85 -11 -12
-16 -28 8 -35 51 -7 45 -38 94 -58 94 -8 0 -21 13 -29 29 -9 16 -34 45 -57 64
-43 37 -44 57 -3 57 38 0 39 24 5 80 -37 60 -27 65 19 10z m-907 -105 c-15
-13 -30 -24 -33 -25 -3 0 -6 20 -6 45 -2 49 0 52 23 30 22 -23 33 -9 35 43 2
44 2 44 5 -11 4 -52 2 -59 -24 -82z m703 36 c-10 -16 -36 -13 -36 3 0 17 21
27 34 16 4 -5 5 -13 2 -19z m94 9 c0 -5 -7 -10 -15 -10 -8 0 -15 5 -15 10 0 6
7 10 15 10 8 0 15 -4 15 -10z m-484 -127 c-3 -71 -5 -139 -6 -153 -1 -24 -1
-25 -16 -5 -12 16 -14 39 -10 112 3 50 8 97 10 105 2 7 7 25 10 41 13 58 17
22 12 -100z m2211 61 c3 -8 0 -48 -7 -87 -6 -40 -13 -81 -14 -91 -2 -26 -22
-31 -34 -9 -10 19 -17 85 -14 140 3 51 54 86 69 47z m-182 -26 c6 0 21 4 34 8
21 6 23 4 18 -10 -27 -70 -9 -178 36 -227 36 -37 49 -66 36 -75 -6 -4 -8 -20
-5 -39 7 -33 -4 -45 -40 -45 -10 0 -11 6 -4 25 6 16 6 34 0 50 -13 33 -48 33
-106 -1 -40 -24 -44 -29 -44 -66 0 -45 -24 -104 -47 -112 -12 -5 -14 6 -10 77
3 45 7 93 9 107 2 20 -1 25 -19 24 -17 0 -23 5 -23 20 1 35 18 100 28 104 6 2
8 11 5 21 -2 10 7 31 22 49 17 20 25 40 23 58 -2 22 2 29 22 35 14 4 32 5 40
2 8 -3 20 -5 25 -5z m-1655 -99 c0 -11 -4 -17 -10 -14 -5 3 -10 13 -10 21 0 8
5 14 10 14 6 0 10 -9 10 -21z m80 -9 c0 -5 -2 -10 -4 -10 -3 0 -8 5 -11 10 -3
6 -1 10 4 10 6 0 11 -4 11 -10z m600 -6 c0 -2 -9 -4 -21 -4 -11 0 -18 4 -14
10 5 8 35 3 35 -6z m1788 -89 c7 -3 12 -24 12 -59 0 -69 -7 -86 -35 -86 -23 0
-40 -24 -29 -41 3 -5 14 -9 24 -9 10 0 20 -6 23 -12 8 -24 -5 -38 -34 -38 -26
0 -29 -4 -29 -30 0 -28 3 -30 36 -30 31 0 35 -3 32 -22 -2 -19 -9 -23 -38 -23
-31 0 -35 -3 -35 -25 0 -20 7 -27 33 -35 31 -9 45 -34 20 -36 -7 -1 -24 -2
-38 -2 -18 -2 -26 -9 -28 -25 -3 -22 1 -25 51 -36 23 -5 27 -11 27 -40 0 -25
-7 -38 -25 -50 -32 -21 -33 -53 -2 -58 18 -2 22 -9 22 -38 0 -29 -4 -36 -22
-38 -33 -5 -32 -49 2 -62 33 -13 35 -61 3 -83 l-23 -15 24 -25 c32 -35 24 -53
-22 -49 -34 3 -37 1 -37 -22 0 -20 6 -27 28 -32 47 -10 52 -13 51 -31 -1 -22
-17 -63 -18 -45 -1 20 -69 15 -80 -6 -19 -35 16 -55 67 -38 22 7 23 6 20 -36
l-3 -43 -52 3 c-47 3 -53 2 -53 -16 0 -27 19 -40 65 -44 35 -3 40 -6 43 -30 3
-26 1 -28 -35 -28 -22 0 -48 -6 -58 -14 -19 -14 -19 -15 -2 -34 15 -16 24 -18
53 -12 46 11 48 3 40 -113 -4 -51 -6 -150 -6 -220 1 -89 -2 -133 -11 -143 -7
-8 -14 -28 -16 -45 -2 -23 1 -29 16 -29 24 0 39 -49 19 -61 -7 -5 -18 -9 -24
-9 -21 0 -32 -24 -23 -47 5 -15 17 -23 33 -23 48 0 46 -76 -2 -82 -19 -2 -28
-10 -30 -25 -3 -21 21 -43 42 -40 5 1 11 -4 14 -10 2 -8 -5 -13 -17 -13 -27 0
-35 -19 -22 -53 7 -17 18 -27 31 -27 33 0 26 -38 -7 -42 -25 -3 -28 -7 -28
-38 0 -32 3 -35 33 -38 33 -3 36 -10 26 -49 -5 -17 -14 -23 -35 -23 -35 0 -46
-21 -31 -56 9 -18 19 -24 42 -24 20 0 30 -5 30 -15 0 -10 -11 -15 -35 -15 -41
0 -58 -23 -42 -57 8 -18 18 -23 49 -23 43 0 52 -17 11 -22 -24 -3 -28 -8 -28
-33 0 -24 5 -31 25 -33 35 -5 40 -12 31 -52 -6 -29 -12 -36 -36 -40 -25 -4
-30 -10 -30 -35 0 -23 5 -30 25 -35 25 -6 53 -47 43 -63 -3 -4 -18 -5 -33 -2
-33 7 -44 -6 -36 -41 6 -20 12 -25 34 -22 17 2 27 -2 26 -9 -1 -7 -2 -26 -2
-42 -2 -25 -7 -30 -39 -36 -22 -4 -50 -20 -70 -40 -26 -26 -33 -41 -33 -73 0
-53 22 -75 69 -70 20 3 44 8 54 12 15 7 17 2 17 -35 0 -69 12 -149 21 -143 5
2 2 -10 -5 -28 -13 -29 -18 -32 -50 -30 -34 3 -36 2 -36 -27 0 -25 5 -32 28
-37 49 -11 52 -13 53 -46 0 -18 2 -58 4 -88 13 -252 16 -488 5 -515 -14 -34
-26 -485 -14 -513 4 -9 9 -89 11 -177 2 -88 5 -182 7 -210 10 -129 25 -483 26
-598 0 -85 5 -139 14 -161 7 -18 17 -69 21 -112 6 -70 4 -83 -12 -103 l-19
-23 -39 26 c-40 28 -45 28 -103 4 -30 -12 -34 -11 -43 5 -7 11 -17 16 -28 12
-10 -3 -23 1 -30 8 -8 11 -6 18 9 32 11 10 20 28 20 40 0 12 14 34 30 48 34
31 44 85 13 72 -51 -21 -55 -20 -51 21 3 37 5 39 34 36 39 -4 60 18 44 47 -7
14 -21 21 -40 21 -27 0 -30 3 -30 34 0 41 12 52 33 31 9 -8 27 -15 41 -15 22
0 26 4 26 29 0 34 -30 61 -67 61 -20 0 -23 5 -23 35 0 39 9 43 50 19 53 -32
83 13 39 57 -16 16 -29 20 -55 16 -32 -5 -34 -4 -34 24 0 31 16 37 50 19 26
-14 50 -2 50 25 0 28 -12 37 -60 45 -31 5 -35 9 -35 34 0 28 2 30 45 30 38 1
45 4 48 23 5 31 -35 55 -77 47 -31 -7 -32 -6 -29 22 3 25 7 29 32 27 34 -3 56
12 56 37 0 25 -23 41 -59 42 -22 1 -31 6 -31 18 0 20 26 34 42 24 16 -10 37
23 31 47 -6 20 -44 36 -62 25 -5 -4 -12 2 -15 11 -15 49 -5 2227 11 2278 5 18
6 88 1 175 -13 211 -12 284 2 700 l13 375 -24 90 c-23 87 -24 101 -22 415 1
179 4 404 8 500 4 96 7 229 6 295 -1 66 1 148 5 181 l5 62 67 -5 c37 -3 73 -6
80 -8z m-240 -128 c2 -72 4 -145 5 -162 0 -16 -4 -88 -11 -158 -6 -72 -7 -138
-3 -150 5 -12 5 -78 1 -147 -7 -126 -5 -589 4 -645 2 -16 12 -57 21 -90 16
-58 21 -205 10 -308 -2 -23 -7 -148 -10 -277 -3 -129 -8 -253 -11 -275 -3 -23
0 -70 6 -105 7 -39 11 -140 10 -250 -4 -344 -4 -624 1 -895 4 -263 3 -270 -16
-270 -15 0 -21 11 -30 56 -13 63 -93 184 -129 195 -24 8 -56 -27 -56 -62 0
-34 -17 -30 -41 11 -12 19 -25 35 -29 35 -4 0 -27 16 -50 35 -60 50 -85 47
-167 -22 -75 -64 -112 -103 -160 -170 -27 -38 -144 -155 -149 -150 -1 1 2 65
7 142 5 77 11 194 15 260 3 66 9 133 15 149 5 16 9 56 9 90 0 34 7 90 16 126
16 68 25 166 24 260 -1 44 4 64 25 94 19 28 23 41 14 46 -20 13 -13 62 11 82
27 22 57 23 96 4 37 -18 83 -10 93 17 5 14 10 17 15 8 5 -8 20 1 48 30 39 40
40 43 33 88 -14 88 -13 96 17 97 51 2 60 19 53 103 -4 43 -15 89 -25 106 -10
17 -23 53 -29 80 -7 28 -21 88 -32 135 -41 168 -42 176 -31 242 6 35 16 83 22
108 28 110 41 219 36 303 -5 84 -3 91 27 150 51 98 67 191 72 442 10 469 12
522 20 593 7 68 6 72 -12 72 -38 0 -51 -30 -62 -140 -6 -58 -11 -213 -12 -345
-3 -343 -30 -546 -81 -616 -20 -27 -23 -43 -25 -147 -1 -64 -5 -135 -8 -157
-3 -22 -9 -61 -12 -87 -3 -27 -9 -48 -14 -48 -17 0 -21 89 -6 137 27 87 37
380 15 455 -8 28 -8 41 1 52 17 20 41 114 34 132 -3 10 2 14 20 14 17 0 26 7
31 23 9 35 7 214 -4 281 -5 33 -15 90 -20 126 -6 36 -12 78 -14 93 -1 16 -8
32 -16 37 -10 6 -4 17 23 43 19 20 38 50 41 66 3 17 9 45 12 62 5 24 10 30 25
26 11 -3 27 2 37 12 22 23 40 29 145 52 48 10 96 23 105 28 44 26 47 18 50
-122z m-2208 108 c0 -8 -6 -15 -14 -15 -8 0 -16 7 -20 15 -4 10 1 15 14 15 11
0 20 -7 20 -15z m88 -27 c17 -17 15 -45 -4 -52 -28 -11 -44 -6 -44 13 0 46 23
64 48 39z m1336 -84 c9 -24 7 -127 -3 -143 -12 -19 -40 24 -41 64 -2 74 27
124 44 79z m-149 -83 c-8 -36 -25 -41 -25 -8 0 22 19 51 28 43 2 -3 1 -18 -3
-35z m-1272 7 c8 -13 31 -40 52 -61 36 -37 36 -39 21 -62 -22 -34 -36 -31 -36
5 0 23 -5 30 -19 30 -11 0 -23 -6 -28 -12 -5 -8 -10 2 -15 27 -16 89 -6 118
25 73z m1653 -69 c11 -18 -13 -34 -31 -19 -8 7 -15 16 -15 21 0 13 38 11 46
-2z m-178 -48 c11 -6 10 -11 -3 -25 -22 -22 -55 -21 -55 2 0 31 28 42 58 23z
m129 -33 c42 -15 42 -24 -2 -32 -48 -9 -78 -50 -70 -96 4 -19 12 -44 19 -55 8
-11 17 -36 21 -55 10 -49 46 -151 63 -177 17 -27 51 -31 53 -5 1 9 5 -14 10
-51 l9 -69 -45 -43 c-53 -52 -50 -56 -64 95 -18 182 -39 258 -108 377 l-18 33
45 44 c25 25 47 45 49 46 3 0 20 -5 38 -12z m-1383 -37 c3 -4 17 -6 31 -3 26
4 29 -2 25 -43 -3 -32 -16 -38 -54 -25 -32 10 -36 15 -36 46 0 32 20 48 34 25z
m876 -11 c0 -5 -4 -10 -10 -10 -5 0 -10 5 -10 10 0 6 5 10 10 10 6 0 10 -4 10
-10z m-1085 -17 c7 -9 47 -35 89 -57 42 -23 78 -45 79 -51 4 -19 -51 -17 -62
3 -8 14 -22 19 -66 20 -31 1 -60 4 -65 7 -6 4 -10 26 -10 51 0 46 13 57 35 27z
m520 -27 c16 -14 46 -32 67 -42 21 -9 38 -21 38 -25 0 -5 -28 -8 -62 -8 -35 0
-76 -1 -93 -3 -32 -3 -32 -3 -20 60 9 50 27 54 70 18z m744 -20 c60 -2 73 -15
51 -55 -8 -17 -5 -31 15 -70 14 -28 25 -61 25 -75 0 -14 4 -27 9 -30 17 -11
18 -55 1 -71 -21 -19 -30 -19 -30 -1 0 7 -11 48 -25 90 -14 43 -30 98 -36 124
-17 76 -36 84 -86 39 -22 -19 -26 -20 -85 -6 -62 14 -90 38 -46 40 13 0 39 6
58 13 19 8 48 12 64 9 16 -3 54 -6 85 -7z m391 -8 c6 -13 16 -63 23 -113 25
-174 10 -200 -34 -58 -15 50 -35 105 -43 122 -26 49 -21 71 14 71 22 0 33 -6
40 -22z m-2052 -96 c-3 -51 -5 -55 -37 -68 -31 -13 -33 -13 -28 3 3 10 10 41
17 68 7 28 17 61 22 75 l10 25 10 -25 c5 -13 8 -48 6 -78z m1302 37 c0 -16 4
-29 9 -29 5 0 12 -8 16 -17 8 -24 93 -64 146 -70 34 -3 56 1 94 21 27 14 50
24 52 22 3 -3 39 -134 49 -178 5 -20 3 -28 -7 -28 -29 0 -135 -58 -172 -93
-58 -57 -89 -49 -57 14 13 25 20 58 20 98 0 53 -2 59 -19 54 -10 -3 -22 0 -25
6 -13 20 -46 12 -56 -13 -5 -14 -19 -26 -32 -28 -34 -5 -32 -29 6 -71 32 -35
33 -40 23 -68 -11 -28 -10 -33 16 -55 15 -13 39 -24 53 -24 28 0 28 0 12 -51
-9 -30 -8 -49 1 -81 21 -69 42 -107 63 -114 39 -12 68 -46 68 -81 0 -38 27
-61 81 -67 19 -2 37 -4 42 -5 20 -3 2 -31 -38 -61 -39 -29 -45 -39 -43 -65 3
-26 7 -30 38 -33 19 -2 43 -10 52 -19 23 -21 62 -10 76 22 19 41 15 65 -9 65
-17 0 -20 4 -15 23 15 48 18 95 7 101 -19 12 -13 46 9 46 21 0 40 -50 40 -105
0 -17 7 -62 16 -100 8 -39 19 -104 23 -145 5 -41 13 -104 19 -140 6 -36 16
-117 22 -180 l11 -115 -45 -42 c-26 -23 -46 -50 -46 -58 0 -11 -7 -15 -22 -13
-24 3 -25 9 -10 71 14 51 -7 149 -38 182 -34 37 -90 51 -139 36 -22 -6 -42
-19 -46 -30 -3 -10 5 -42 19 -72 13 -30 26 -68 29 -85 5 -28 3 -32 -21 -37
-15 -3 -40 -9 -56 -13 l-29 -7 22 37 c20 32 22 40 11 66 -10 23 -19 30 -41 30
-15 0 -31 -5 -34 -10 -3 -6 -17 -7 -31 -4 -17 4 -26 1 -30 -10 -3 -9 -15 -16
-26 -16 -14 0 -19 6 -16 22 2 14 28 36 77 67 82 51 121 107 121 172 0 55 -24
57 -59 6 -16 -24 -49 -56 -73 -72 -42 -28 -158 -143 -158 -157 0 -3 -12 -20
-26 -37 -21 -26 -24 -34 -14 -46 10 -12 7 -18 -19 -32 -26 -15 -30 -22 -26
-44 4 -19 1 -28 -9 -32 -23 -9 -20 -27 10 -71 26 -37 26 -40 10 -66 -11 -20
-13 -35 -7 -52 5 -12 5 -33 0 -44 -10 -28 22 -65 50 -57 10 3 28 0 38 -5 37
-20 47 1 28 53 -15 38 -16 51 -6 67 10 16 8 25 -10 56 -13 20 -31 45 -41 55
-19 19 -24 47 -8 47 5 0 15 -10 21 -22 26 -52 125 -128 182 -140 122 -27 130
-27 177 -3 25 12 58 25 73 29 32 8 87 59 87 81 0 17 11 19 25 6 6 -5 20 -12
32 -15 19 -6 25 -1 37 29 14 32 18 35 43 29 36 -9 37 -9 39 -47 3 -40 20 -132
33 -176 14 -46 0 -71 -42 -71 -18 -1 -48 -10 -67 -20 -19 -11 -42 -22 -51 -25
-8 -4 -23 -22 -34 -41 -19 -35 -24 -38 -62 -34 -12 0 -48 -9 -81 -22 -54 -22
-66 -24 -153 -16 -52 5 -108 15 -126 23 -37 18 -65 19 -115 4 -31 -8 -38 -15
-38 -34 0 -14 -4 -26 -10 -26 -34 -6 -35 -3 -36 81 -1 47 -6 126 -12 175 -6
50 -16 146 -22 215 -6 69 -18 192 -27 273 -9 81 -13 151 -9 154 3 4 12 1 18
-5 29 -29 167 -4 213 37 11 10 35 26 53 35 17 9 32 24 32 34 0 9 7 26 15 36
28 37 12 203 -25 276 -10 19 -44 58 -74 87 -36 33 -56 60 -56 75 0 19 8 14 56
-35 64 -65 93 -77 130 -53 28 19 25 51 -7 74 -11 7 -19 23 -19 36 0 13 -12 36
-27 52 l-26 28 -15 -22 c-17 -25 -37 -29 -46 -7 -7 19 -85 20 -111 2 -18 -14
-18 -26 0 -84 6 -20 4 -23 -17 -23 -13 0 -43 -9 -66 -20 -22 -11 -45 -20 -50
-20 -12 0 -21 43 -28 144 l-7 81 35 13 c19 6 44 22 56 35 32 34 62 122 62 181
0 52 -29 138 -50 151 -6 4 -17 22 -25 41 -19 47 -97 84 -177 84 -51 0 -60 -3
-74 -25 -14 -21 -22 -24 -48 -19 -34 6 -64 -15 -51 -35 10 -17 76 -31 96 -21
10 6 22 10 28 10 13 0 14 -59 2 -79 -10 -16 -31 -6 -31 15 0 22 -35 17 -67
-10 -19 -16 -33 -42 -42 -74 -14 -56 -6 -84 42 -156 l26 -38 -25 -34 c-26 -33
-26 -35 -10 -69 9 -19 22 -37 28 -41 19 -12 40 28 33 64 -5 29 -4 33 12 30 14
-3 18 -12 16 -38 -8 -182 -9 -401 -1 -470 5 -47 10 -150 12 -230 1 -80 6 -164
10 -187 8 -37 6 -43 -19 -65 -51 -42 -85 -77 -85 -86 0 -19 42 -62 61 -62 14
0 21 9 26 30 6 34 18 46 28 30 6 -10 9 -34 19 -180 2 -25 5 -49 6 -55 8 -34
-2 -63 -24 -69 -13 -3 -30 -20 -39 -38 -14 -28 -14 -36 -1 -68 8 -19 32 -52
54 -73 31 -30 40 -46 40 -72 0 -18 -6 -37 -12 -42 -22 -17 -213 -31 -227 -17
-10 10 -16 205 -7 222 5 9 23 31 40 47 32 30 33 32 34 131 3 127 -19 186 -78
206 -13 5 -14 25 -8 134 3 71 6 196 7 277 1 157 7 183 56 237 34 37 50 145 30
202 -8 24 -15 51 -15 61 0 25 -27 32 -49 13 -10 -9 -21 -16 -25 -16 -11 0 -1
403 14 533 10 90 11 120 2 129 -9 9 -17 7 -35 -10 -19 -19 -22 -35 -24 -105
-1 -45 -5 -109 -7 -142 -3 -33 -6 -103 -7 -156 l-1 -97 -46 -5 c-26 -2 -55 -8
-66 -12 -18 -8 -18 -3 -14 77 4 74 9 95 43 161 21 43 41 77 45 77 11 0 30 49
30 78 0 15 -11 45 -25 67 -17 28 -24 55 -25 91 l0 50 68 -11 c37 -7 95 -22
130 -35 49 -18 69 -21 95 -13 19 5 50 5 78 0 42 -8 52 -6 91 17 33 19 62 27
105 29 33 1 67 8 75 14 19 16 61 32 71 26 4 -2 7 -17 7 -34z m579 -136 c22
-83 28 -168 12 -159 -5 3 -12 31 -16 62 -4 31 -20 94 -35 142 -16 47 -26 90
-23 95 10 16 40 -53 62 -140z m-1395 -65 c-1 -24 -8 -69 -14 -102 -6 -32 -9
-69 -5 -83 5 -21 3 -23 -19 -17 -17 4 -31 1 -41 -10 -9 -9 -20 -16 -24 -16
-19 0 -35 35 -32 73 3 49 9 63 24 48 16 -16 52 -14 67 4 7 8 14 41 16 73 5 65
10 85 22 78 5 -3 7 -24 6 -48z m-114 -35 c0 -20 -3 -24 -11 -16 -7 7 -9 19 -6
27 10 24 17 19 17 -11z m691 11 c35 -31 3 -184 -37 -184 -19 0 -18 89 1 114
13 17 13 22 0 42 -8 13 -15 28 -15 34 0 16 31 12 51 -6z m-108 -40 c-6 -16 -7
-16 -13 2 -10 26 0 52 12 31 4 -8 5 -23 1 -33z m-1403 -76 c0 -7 -5 -20 -10
-28 -8 -12 -10 -9 -10 13 0 15 5 27 10 27 6 0 10 -6 10 -12z m1406 -43 c1 -14
-2 -25 -7 -25 -5 0 -9 14 -9 32 0 36 12 31 16 -7z m-1415 -77 c-6 -24 -7 -59
-2 -78 9 -44 2 -172 -10 -164 -11 6 -12 297 -2 308 15 14 23 -25 14 -66z
m2177 30 c11 -42 8 -48 -29 -48 -39 0 -47 24 -18 55 31 32 37 31 47 -7z m327
-114 c14 -46 16 -73 10 -162 -7 -100 -9 -105 -21 -77 -7 17 -13 43 -14 58 0
16 -4 36 -10 46 -10 20 -1 191 10 191 4 0 15 -25 25 -56z m-1095 6 c0 -5 -4
-10 -10 -10 -5 0 -10 5 -10 10 0 6 5 10 10 10 6 0 10 -4 10 -10z m797 -7 c3
-7 0 -13 -5 -13 -6 0 -24 -12 -41 -26 -24 -20 -30 -31 -25 -49 8 -33 -11 -40
-45 -15 -29 20 -57 80 -48 103 6 17 159 17 164 0z m-1301 -30 c-11 -11 -19 6
-11 24 8 17 8 17 12 0 3 -10 2 -21 -1 -24z m518 -35 c20 -71 26 -104 30 -170
l6 -76 -45 -16 c-25 -8 -45 -12 -46 -8 -4 37 5 240 12 258 9 25 37 33 43 12z
m-582 -38 c-3 -29 -7 -34 -21 -25 -6 3 -11 17 -11 31 0 19 5 25 18 22 11 -3
16 -12 14 -28z m1391 -4 c6 -16 -19 -30 -28 -16 -7 11 2 30 15 30 4 0 10 -6
13 -14z m-762 -19 c-10 -9 -11 -8 -5 6 3 10 9 15 12 12 3 -3 0 -11 -7 -18z
m940 -38 c16 -17 27 -35 24 -39 -7 -11 20 -181 44 -280 27 -113 44 -210 37
-217 -8 -8 -26 43 -36 104 -5 28 -17 82 -28 120 -27 93 -51 193 -54 223 -2 17
-10 26 -26 28 -16 3 -22 8 -18 19 3 8 6 28 6 44 0 37 15 37 51 -2z m-1312 -13
c18 -21 -5 -96 -29 -96 -5 0 -7 96 -1 108 3 7 20 0 30 -12z m-110 -52 c-14
-18 -24 -11 -15 11 3 9 11 13 16 10 8 -5 7 -11 -1 -21z m186 -4 c3 -5 -1 -10
-9 -10 -9 0 -16 5 -16 10 0 6 4 10 9 10 6 0 13 -4 16 -10z m1005 -22 c0 -13
-23 -5 -28 10 -2 7 2 10 12 6 9 -3 16 -11 16 -16z m159 -30 c6 -24 13 -66 14
-95 2 -28 9 -59 17 -68 11 -14 11 -18 -3 -32 -9 -9 -18 -15 -21 -12 -2 2 -9
42 -15 89 -6 47 -14 105 -17 129 -9 56 9 48 25 -11z m-1426 -33 c4 -41 12 -84
19 -95 11 -17 10 -22 -2 -30 -25 -16 -43 9 -36 52 4 22 1 46 -5 56 -13 20 -4
92 10 92 4 0 11 -34 14 -75z m271 -12 c-7 -61 -11 -73 -24 -73 -13 0 -13 76 0
101 19 34 30 21 24 -28z m-100 -9 c14 -5 24 -34 12 -34 -16 0 -56 21 -56 30 0
11 20 13 44 4z m589 0 c4 -4 -8 -15 -26 -24 -39 -21 -45 -52 -17 -80 30 -30 9
-45 -52 -41 -25 2 -35 64 -15 94 23 35 93 67 110 51z m-1692 -47 c-13 -13 -15
1 -4 30 7 17 8 17 11 -1 2 -10 -1 -23 -7 -29z m1443 -28 c11 -58 6 -91 -19
-121 -14 -16 -25 -28 -26 -26 0 2 -2 12 -4 23 -1 11 -6 38 -10 60 -5 33 -3 45
15 68 28 35 36 34 44 -4z m327 11 c5 0 9 -8 9 -17 0 -9 5 -31 11 -48 18 -49 4
-95 -48 -154 l-46 -53 -13 39 c-20 58 -10 78 38 74 22 -3 48 37 48 73 0 21 -8
37 -27 51 -27 22 -24 52 4 41 8 -3 19 -6 24 -6z m416 -12 c-3 -8 -6 -5 -6 6
-1 11 2 17 5 13 3 -3 4 -12 1 -19z m-2190 -75 c-2 -16 -4 -5 -4 22 0 28 2 40
4 28 2 -13 2 -35 0 -50z m1107 47 c14 -5 26 -14 26 -19 0 -11 -75 -51 -95 -51
-19 0 -19 16 -1 27 7 4 18 18 25 31 14 25 12 25 45 12z m-622 -182 c6 -51 12
-139 14 -196 1 -60 7 -109 14 -117 7 -8 9 -28 5 -52 -8 -47 -15 -272 -17 -538
-1 -198 21 -474 42 -530 16 -42 13 -45 -37 -44 -94 3 -105 9 -120 64 -15 58
-9 339 12 530 23 220 31 338 40 635 4 129 11 245 16 258 5 13 9 40 9 59 0 62
11 29 22 -69z m1113 60 c-4 -13 -9 -39 -12 -59 -4 -33 -2 -38 26 -50 17 -8 31
-17 31 -21 0 -12 -78 -9 -86 3 -8 13 -15 130 -8 141 3 4 17 8 31 8 22 0 24 -3
18 -22z m-546 -24 c36 -3 69 -8 74 -11 5 -3 6 -52 1 -117 -5 -61 -7 -127 -6
-146 3 -57 -1 -61 -50 -46 -28 8 -64 10 -102 6 -45 -5 -59 -3 -63 8 -8 20 14
39 28 25 15 -15 66 25 103 80 32 47 26 61 -25 53 -21 -3 -40 -2 -44 4 -17 28
-75 -15 -75 -56 0 -22 -45 -60 -54 -45 -3 4 -5 52 -5 105 0 71 3 96 12 93 7
-2 12 -18 12 -35 1 -58 41 -67 98 -21 47 36 31 82 -38 107 -27 10 -25 11 20 7
27 -3 79 -8 114 -11z m-1063 -121 c-11 -11 -17 4 -9 23 7 18 8 18 11 1 2 -10
1 -21 -2 -24z m1465 -27 c15 -13 34 -26 40 -28 7 -2 13 -33 15 -78 2 -41 8
-106 14 -145 15 -116 16 -168 3 -172 -9 -3 -13 7 -13 31 0 52 -35 112 -68 119
-27 5 -27 6 -27 89 0 46 -4 111 -8 146 -9 70 -2 76 44 38z m1110 -47 c4 -24
12 -62 18 -84 6 -22 11 -51 11 -65 0 -44 -18 -2 -31 75 -7 38 -19 79 -26 91
-7 11 -10 24 -6 28 15 15 28 -3 34 -45z m-421 -123 c0 -8 -4 -18 -10 -21 -14
-9 -12 -19 9 -41 17 -19 34 -84 22 -84 -23 0 -61 107 -50 138 9 25 29 30 29 8z
m-2163 -48 c-4 -29 -7 -226 -7 -437 -1 -259 -4 -391 -12 -405 -11 -21 -28
-298 -28 -476 -1 -120 -1 -113 3 -240 4 -183 1 -415 -6 -434 -7 -19 -8 -18
-27 2 -11 12 -20 28 -20 36 0 8 -12 23 -27 34 l-28 20 3 179 c2 171 12 307 33
458 9 64 24 307 34 525 14 327 42 670 61 763 10 50 27 30 21 -25z m2627 -30
c20 -97 31 -141 47 -190 20 -61 25 -108 11 -108 -14 0 -50 127 -60 210 -6 41
-13 83 -17 93 -4 10 -3 17 4 17 6 0 13 -10 15 -22z m-107 -38 c28 -10 30 -14
30 -68 0 -31 5 -68 12 -80 7 -13 15 -36 17 -50 3 -15 12 -47 20 -70 8 -24 19
-77 25 -118 11 -71 11 -76 -11 -98 -12 -13 -32 -26 -45 -28 -22 -5 -23 -2 -22
51 1 31 -11 106 -25 166 -14 61 -31 146 -38 190 -6 44 -14 88 -16 98 -6 20 9
22 53 7z m-1552 -24 c59 -27 110 -32 139 -13 l25 17 -4 -176 c-2 -97 -5 -178
-7 -179 -2 -2 -15 -6 -29 -10 -22 -5 -27 -3 -32 17 -5 17 -1 28 18 41 28 21
32 53 12 81 -12 17 -16 17 -43 3 -17 -8 -43 -12 -62 -10 -18 3 -39 0 -48 -7
-23 -20 -49 10 -40 45 7 26 9 27 51 20 37 -5 45 -3 45 9 0 10 -9 16 -22 16
-28 0 -118 31 -118 41 0 4 21 7 46 6 33 -2 49 3 57 14 14 22 1 66 -23 74 -11
3 -20 13 -20 22 0 8 3 13 8 11 4 -2 25 -12 47 -22z m963 -3 c1 -5 -2 -19 -5
-32 -8 -34 41 -73 82 -65 16 4 37 11 46 17 17 10 49 4 49 -10 0 -4 -10 -20
-23 -34 -26 -32 -70 -44 -89 -26 -7 7 -31 24 -53 37 -69 42 -78 63 -42 104 20
24 33 27 35 9z m-93 -53 c3 -5 1 -10 -4 -10 -6 0 -11 5 -11 10 0 6 2 10 4 10
3 0 8 -4 11 -10z m-252 -85 c4 -8 2 -17 -3 -20 -6 -4 -10 3 -10 14 0 25 6 27
13 6z m-382 -40 c4 -42 -1 -85 -11 -85 -6 0 -10 27 -10 62 0 40 3 59 10 52 5
-5 10 -18 11 -29z m649 25 c0 -5 -7 -10 -15 -10 -8 0 -15 5 -15 10 0 6 7 10
15 10 8 0 15 -4 15 -10z m60 -16 c0 -16 -16 -19 -25 -4 -8 13 4 32 16 25 5 -4
9 -13 9 -21z m-350 0 c0 -8 -4 -12 -10 -9 -5 3 -10 10 -10 16 0 5 5 9 10 9 6
0 10 -7 10 -16z m390 -25 c0 -5 -4 -9 -10 -9 -5 0 -10 7 -10 16 0 8 5 12 10 9
6 -3 10 -10 10 -16z m-480 -95 c0 -8 -4 -12 -10 -9 -5 3 -10 10 -10 16 0 5 5
9 10 9 6 0 10 -7 10 -16z m120 -39 c0 -37 -10 -44 -29 -21 -9 11 -10 20 -1 35
16 32 30 25 30 -14z m-80 -65 c15 -28 1 -49 -17 -25 -15 22 -17 45 -3 45 5 0
14 -9 20 -20z m-20 -60 c0 -11 -7 -20 -15 -20 -17 0 -18 2 -9 24 9 23 24 20
24 -4z m-540 -18 c0 -14 -11 -21 -26 -15 -21 8 -17 23 6 23 11 0 20 -4 20 -8z
m180 -69 c0 -43 -4 -83 -8 -90 -4 -6 -47 -15 -97 -19 -84 -7 -89 -6 -76 10 8
9 26 16 40 16 46 -3 51 -1 51 30 0 21 -5 30 -16 30 -9 0 -14 3 -12 8 3 4 11
21 18 39 15 34 41 51 78 52 21 1 22 -3 22 -76z m423 37 c14 -11 30 -20 37 -20
8 0 10 -12 5 -39 -4 -24 -2 -42 4 -46 6 -3 11 -13 11 -21 0 -19 -49 -18 -78 2
-19 13 -22 24 -22 80 0 35 4 64 9 64 4 0 20 -9 34 -20z m-683 -15 c17 -9 30
-18 30 -21 0 -7 -66 -74 -72 -74 -9 0 -20 89 -13 100 9 14 21 13 55 -5z m1446
-112 c-3 -21 -15 -112 -25 -203 -11 -91 -26 -212 -35 -269 -9 -57 -19 -154
-22 -215 -3 -61 -7 -133 -9 -161 -2 -27 -8 -116 -14 -197 -7 -102 -15 -154
-25 -171 -9 -13 -18 -51 -20 -85 -1 -34 -8 -67 -13 -74 -6 -7 -23 -78 -38
-158 -27 -146 -64 -297 -91 -379 -8 -24 -13 -64 -12 -88 3 -44 2 -45 -44 -70
-69 -36 -235 -57 -346 -44 -47 6 -90 15 -95 20 -14 14 -12 259 3 321 7 30 30
86 51 125 21 38 39 76 39 84 0 8 6 22 14 30 17 19 86 222 86 254 1 12 7 33 15
47 19 34 19 99 0 106 -21 8 -42 -12 -50 -47 -4 -16 -10 -29 -14 -29 -4 0 -17
51 -29 113 -37 184 -70 349 -81 397 -6 25 -13 85 -17 134 -6 93 2 146 37 224
11 24 24 67 30 95 11 61 50 167 61 167 5 0 8 7 8 15 0 10 10 15 29 15 15 0 39
8 52 18 32 25 80 37 89 22 12 -19 237 -20 280 -1 32 14 129 36 174 40 16 1 17
-4 12 -36z m-1198 -82 c24 8 45 8 80 -1 60 -14 164 -8 236 15 48 15 62 16 101
5 25 -7 45 -16 45 -20 0 -5 -9 -30 -21 -57 -11 -26 -29 -79 -39 -118 -19 -73
-34 -118 -57 -172 -7 -17 -13 -42 -13 -55 0 -14 -7 -39 -16 -56 -8 -17 -17
-48 -20 -69 -3 -21 -12 -54 -19 -73 -7 -19 -19 -71 -25 -115 -7 -44 -16 -93
-21 -110 -4 -16 -10 -43 -13 -58 -3 -16 -9 -43 -15 -60 -14 -46 -22 -145 -22
-272 0 -98 -9 -153 -36 -220 -10 -25 -33 -59 -58 -85 -26 -27 -26 -29 -11 -53
13 -19 14 -30 7 -48 -11 -26 -43 -148 -70 -268 -10 -41 -22 -76 -28 -78 -17
-6 -161 26 -203 43 -128 57 -148 69 -213 137 l-68 72 7 50 c8 62 10 65 39 65
47 0 53 19 53 159 0 71 2 133 5 138 10 16 21 212 21 391 l1 172 28 0 c33 0 67
32 66 63 0 12 -5 47 -10 77 -5 30 -11 182 -14 338 -6 321 -16 292 90 267 87
-21 122 -20 130 6 l7 21 22 -21 c20 -18 27 -20 54 -10z m-538 -182 c0 -5 -4
-9 -8 -9 -5 0 -9 7 -9 15 0 8 4 12 9 9 4 -3 8 -9 8 -15z m2760 -213 c0 -29 -3
-33 -20 -29 -13 4 -26 -3 -39 -18 -16 -19 -22 -21 -32 -12 -19 19 4 60 43 77
47 20 48 20 48 -18z m220 -23 c0 -56 -11 -78 -34 -70 -20 8 -20 34 -1 81 21
50 35 45 35 -11z m-2029 -403 c6 -30 17 -77 24 -105 7 -27 21 -85 31 -128 9
-43 21 -80 26 -83 4 -3 8 -16 8 -30 0 -14 5 -35 11 -46 22 -41 -50 -235 -95
-256 -14 -6 -26 -16 -26 -22 0 -6 -10 -15 -22 -21 -13 -5 -40 -20 -60 -32 -21
-12 -64 -37 -98 -54 l-60 -33 0 24 c0 14 16 57 35 97 19 41 35 79 35 86 0 7 7
13 15 13 41 0 66 122 34 168 -22 30 -7 244 24 358 14 49 28 109 32 134 7 56
25 140 32 160 3 8 14 -28 24 -80 11 -52 24 -120 30 -150z m2015 192 c-22 -5
-30 3 -21 18 5 8 11 7 22 -2 15 -12 14 -13 -1 -16z m-5853 5 c2 -6 -1 -17 -8
-24 -10 -9 -12 -6 -12 13 0 25 12 32 20 11z m0 -78 c-4 -13 -9 -17 -16 -10
-12 12 -1 45 12 37 5 -3 7 -15 4 -27z m2814 -23 c16 -14 48 -31 71 -38 37 -11
47 -23 43 -50 0 -3 -3 -87 -7 -185 -3 -98 -7 -212 -9 -253 -1 -41 -4 -121 -5
-178 l-2 -102 -34 -16 c-18 -9 -49 -34 -69 -55 -29 -33 -35 -46 -35 -85 0 -26
5 -64 12 -86 10 -33 9 -41 -4 -55 -28 -28 -37 -6 -38 95 -1 53 -2 115 -2 137
-1 22 2 144 6 270 10 290 13 317 25 260 3 -16 11 -30 16 -30 14 0 19 204 5
220 -7 9 -7 21 0 39 10 28 4 76 -10 76 -12 0 -20 28 -14 45 8 21 18 19 51 -9z
m2223 -89 c42 -38 150 -163 150 -175 0 -6 11 -24 25 -40 18 -22 37 -31 72 -36
79 -11 82 -12 89 -19 4 -4 -13 -16 -38 -27 -25 -11 -60 -33 -77 -49 -26 -24
-31 -37 -31 -74 0 -54 14 -95 34 -103 8 -3 39 12 69 35 64 49 81 52 74 14 -3
-16 -1 -77 4 -138 6 -60 12 -207 15 -325 5 -217 7 -295 19 -585 14 -336 8
-726 -12 -758 -2 -4 -15 1 -28 11 -19 15 -43 20 -112 21 -262 4 -388 21 -398
52 -14 43 -77 48 -455 39 l-175 -5 2 69 c3 71 8 89 21 69 5 -7 32 -13 62 -13
64 -1 289 16 340 26 19 4 42 6 52 5 9 -1 58 5 110 14 51 9 103 18 114 20 37 6
65 29 71 58 3 15 10 30 15 33 9 6 251 6 333 1 23 -2 31 3 39 24 19 55 11 59
-151 60 -81 1 -151 1 -155 0 -4 0 -37 -3 -74 -7 -85 -7 -114 -25 -114 -70 0
-27 -5 -35 -22 -38 -22 -5 -137 -15 -224 -20 -22 -2 -45 -6 -50 -9 -6 -3 -77
-8 -158 -12 -82 -3 -160 -8 -174 -12 -24 -6 -25 -5 -19 33 4 21 7 53 7 69 0
17 4 36 9 44 8 12 12 12 26 -2 24 -24 40 -21 69 13 32 38 25 64 -14 55 -25 -5
-29 -3 -35 24 -3 16 -3 47 1 68 14 70 0 103 -35 82 -15 -10 -23 -11 -32 -2
-13 13 2 90 27 138 19 36 10 61 -28 81 -37 19 -62 14 -115 -25 -49 -36 -57
-60 -32 -108 23 -45 24 -53 4 -53 -26 0 -75 -30 -75 -45 0 -8 9 -29 20 -47 22
-37 26 -78 9 -95 -6 -6 -16 -21 -23 -34 -17 -35 -34 -34 -44 3 -7 27 -13 33
-34 30 -54 -5 -58 31 -15 137 16 41 19 55 10 58 -7 3 -13 11 -13 19 0 11 -9
13 -40 8 -35 -6 -40 -4 -40 12 0 11 12 37 26 58 26 38 26 39 10 73 -17 35 -17
35 -68 29 -81 -10 -113 -54 -91 -125 23 -74 23 -140 -1 -191 -25 -53 -38 -56
-51 -12 -6 21 -15 32 -27 32 -22 0 -22 9 -3 34 21 27 19 62 -6 114 l-22 44 22
38 c25 45 26 63 6 80 -8 7 -15 29 -15 49 0 20 -9 53 -19 73 -18 33 -22 80 -8
94 3 3 15 -13 27 -36 60 -117 188 -158 440 -141 129 8 199 28 229 64 7 10 20
17 27 17 7 0 28 16 45 35 18 19 35 35 39 35 10 0 38 -64 45 -104 6 -31 4 -37
-16 -45 -13 -5 -34 -20 -47 -34 -22 -23 -22 -27 -9 -60 8 -19 20 -38 26 -41
19 -12 12 -26 -24 -43 -39 -19 -43 -34 -23 -108 11 -40 10 -50 -6 -79 -40 -74
7 -104 49 -31 27 46 28 62 9 139 -7 28 -6 29 24 23 28 -6 32 -3 42 29 14 42 6
83 -21 102 -10 7 -19 20 -19 28 0 15 1 15 36 19 33 3 43 13 50 50 6 36 -15
121 -46 185 -10 19 -28 60 -40 90 -13 30 -29 70 -37 89 -13 29 -13 38 0 75 9
22 18 57 22 76 14 81 58 268 71 303 8 20 14 46 14 57 0 20 9 24 42 21 9 -1 24
10 32 26 21 38 41 60 109 117 39 33 57 56 57 72 0 18 5 22 23 19 16 -3 30 6
52 35 17 22 41 54 55 72 39 51 68 78 82 78 7 0 24 -11 38 -23z m259 -144 c15
-29 14 -53 -3 -53 -27 0 -53 64 -47 114 1 10 32 -28 50 -61z m1173 28 c13 -17
52 -53 88 -82 36 -28 82 -68 102 -89 20 -21 57 -51 81 -67 24 -16 73 -62 108
-102 104 -119 222 -235 254 -251 57 -27 150 -84 183 -112 18 -16 37 -26 43
-23 5 4 14 3 20 -1 8 -5 8 -9 -1 -14 -9 -5 -7 -13 6 -28 16 -19 18 -40 15
-204 -2 -101 -5 -187 -8 -191 -3 -5 -15 -6 -27 -2 -11 3 -31 8 -43 10 -51 8
-89 18 -101 27 -6 6 -49 14 -94 19 -76 7 -84 6 -104 -12 l-22 -20 -41 20 c-22
12 -56 21 -76 21 -31 0 -38 4 -46 28 -8 24 -25 35 -92 62 -45 19 -91 39 -102
46 -11 7 -54 22 -95 33 -41 11 -86 24 -100 28 -35 11 -120 63 -120 73 0 5 -15
18 -32 29 -18 11 -45 31 -59 43 -14 13 -45 40 -69 61 -23 20 -48 37 -55 37 -7
0 -37 16 -66 36 -30 20 -64 40 -77 45 -12 5 -25 16 -28 24 -4 8 -12 15 -20 15
-8 0 -14 5 -14 10 0 6 68 79 151 163 83 84 187 196 231 251 44 54 92 109 107
122 37 33 74 31 103 -5z m713 -71 c21 -16 47 -40 59 -52 12 -13 38 -37 58 -54
67 -58 72 -72 70 -208 0 -66 -1 -163 -1 -214 l-1 -93 -35 35 c-33 33 -152 116
-207 144 -28 14 -141 131 -195 201 -40 52 -34 72 43 127 29 21 59 51 65 66 16
40 59 75 95 77 6 1 28 -12 49 -29z m-1785 -170 c0 -23 -10 -36 -46 -65 -26
-19 -51 -35 -55 -35 -14 0 -11 64 4 84 15 21 56 44 80 45 12 1 17 -7 17 -29z
m-1719 -173 c-8 -8 -11 -7 -11 4 0 20 13 34 18 19 3 -7 -1 -17 -7 -23z m-3681
-27 c0 -5 -4 -10 -10 -10 -5 0 -10 5 -10 10 0 6 5 10 10 10 6 0 10 -4 10 -10z
m5773 -87 c49 -71 215 -201 317 -249 25 -12 68 -43 96 -70 28 -27 67 -60 87
-74 20 -14 40 -33 43 -42 7 -22 61 -68 80 -68 8 0 14 10 14 26 0 24 3 26 28
20 15 -4 38 -9 52 -12 46 -10 195 -67 211 -81 8 -7 20 -13 26 -13 5 0 20 -11
33 -25 13 -14 34 -25 46 -25 13 0 42 -10 65 -22 41 -21 82 -24 244 -15 25 1
56 -7 83 -21 37 -19 48 -21 89 -12 67 15 93 -4 93 -68 -1 -70 -17 -85 -82 -78
-185 21 -186 21 -194 -8 -7 -29 -16 -29 -79 0 -54 25 -363 43 -458 28 -29 -5
-39 -12 -43 -31 -8 -29 0 -35 71 -59 56 -18 75 -30 75 -50 0 -8 -12 -12 -32
-12 -18 0 -84 -4 -146 -8 -62 -5 -164 -6 -225 -1 -170 12 -283 4 -321 -24 -17
-12 -34 -28 -39 -35 -4 -7 -33 -16 -65 -19 -31 -4 -64 -14 -74 -22 -25 -22
-31 -2 -33 106 -1 53 -6 150 -10 216 -11 150 -13 744 -3 768 11 26 22 21 51
-20z m-1973 -137 c0 -2 -7 -20 -15 -39 -8 -20 -15 -49 -15 -65 0 -20 -12 -40
-42 -69 -24 -23 -56 -57 -71 -77 -29 -36 -47 -39 -47 -8 0 10 -13 32 -28 49
-22 23 -27 35 -20 47 6 11 6 22 -1 29 -16 21 4 39 53 48 28 5 69 24 103 49 48
34 83 50 83 36z m-908 -180 c38 -48 92 -109 113 -128 18 -16 134 -76 194 -100
48 -20 206 -47 215 -37 6 5 21 9 35 9 15 0 31 4 36 8 13 9 59 81 69 107 12 33
24 -1 28 -79 2 -62 0 -70 -20 -84 -14 -9 -22 -24 -22 -44 0 -17 -7 -57 -16
-91 -8 -33 -13 -69 -10 -80 3 -12 -1 -32 -8 -46 -7 -14 -21 -44 -32 -65 -20
-41 -48 -65 -61 -53 -7 7 -8 40 -3 120 1 21 -3 44 -9 51 -9 11 -9 25 0 60 10
39 9 50 -7 82 -24 48 -35 51 -70 21 -22 -20 -28 -32 -27 -63 1 -45 -13 -70
-32 -54 -18 15 -45 1 -56 -29 -8 -20 -5 -41 12 -92 13 -39 19 -73 15 -85 -7
-18 -8 -18 -25 4 -15 20 -21 22 -45 13 -37 -15 -46 -14 -46 5 0 8 -10 32 -22
53 l-21 37 27 58 c19 39 26 66 21 83 -5 22 -10 24 -40 19 -19 -4 -35 -4 -35
-1 0 3 18 35 41 70 35 56 39 68 28 83 -36 48 -74 54 -127 22 -29 -18 -32 -25
-30 -57 4 -49 -17 -53 -32 -6 -18 54 -23 57 -59 28 -37 -32 -38 -49 -8 -94 45
-69 44 -67 30 -133 -7 -35 -11 -78 -8 -96 6 -30 4 -32 -12 -24 -44 24 -55 48
-48 102 6 44 4 56 -18 89 -20 30 -27 58 -35 141 -11 120 0 160 50 181 15 6 28
19 29 28 3 37 -3 73 -16 98 -19 36 -6 52 16 22 10 -13 29 -37 41 -53z m-468
-8 c-9 -14 -23 2 -17 18 4 12 8 13 14 3 4 -7 5 -17 3 -21z m-1583 -42 c48 8
54 -11 7 -24 -35 -10 -59 6 -57 37 1 13 2 12 6 -2 4 -14 12 -16 44 -11z m1862
-6 c-7 -27 -13 -25 -11 4 1 14 5 23 9 20 4 -2 5 -13 2 -24z m-1496 -12 c-3 -7
-5 -2 -5 12 0 14 2 19 5 13 2 -7 2 -19 0 -25z m1140 10 c-3 -8 -6 -5 -6 6 -1
11 2 17 5 13 3 -3 4 -12 1 -19z m93 18 c0 -3 -4 -8 -10 -11 -5 -3 -10 -1 -10
4 0 6 5 11 10 11 6 0 10 -2 10 -4z m-948 -32 c-7 -12 -11 -13 -17 -4 -4 7 -2
16 6 21 18 11 23 4 11 -17z m-742 1 c11 -13 10 -14 -4 -9 -9 3 -16 10 -16 15
0 13 6 11 20 -6z m-746 -34 c-9 -10 -26 18 -18 30 5 9 9 8 14 -7 4 -10 6 -21
4 -23z m2355 19 c7 -4 11 -18 9 -31 l-3 -24 -130 5 c-164 6 -276 5 -542 -5
-170 -6 -213 -11 -213 -21 0 -18 -8 -18 -26 0 -12 13 -12 15 4 19 45 12 -456
-4 -616 -19 -29 -3 -68 -1 -87 5 -22 6 -37 6 -41 0 -3 -5 -9 -7 -14 -4 -5 3
-159 6 -342 6 -183 0 -335 2 -339 5 -4 2 -1 16 6 31 14 26 16 26 102 24 48 -1
97 -1 108 -1 26 0 1270 -3 1310 -3 50 -1 470 15 472 17 7 7 331 3 342 -4z
m-2353 -74 c18 -19 18 -26 -1 -26 -8 0 -15 2 -15 4 0 2 -3 11 -6 20 -8 20 3
21 22 2z m1489 -33 c22 -5 78 -8 125 -7 191 4 479 3 545 -2 39 -3 76 -6 83 -5
6 0 48 1 92 1 44 1 80 6 80 11 0 6 7 6 19 0 10 -6 36 -10 57 -8 33 2 39 -1 42
-19 3 -20 -2 -20 -165 -21 -92 -1 -224 -8 -293 -16 -69 -8 -156 -16 -195 -17
-38 -1 -90 -4 -115 -5 -71 -5 -431 -5 -470 -1 -19 3 -87 12 -150 20 -138 18
-244 20 -342 5 -71 -11 -82 -14 -141 -38 -46 -18 -166 -13 -216 9 -38 18 -65
20 -205 20 -88 -1 -176 0 -195 0 -29 1 -33 -2 -28 -20 6 -25 2 -25 -23 0 -26
26 -25 37 2 46 13 4 27 13 33 20 8 11 98 15 470 19 520 5 744 11 751 18 8 8
195 0 239 -10z m1558 -80 c4 -3 -2 -21 -13 -38 -24 -39 -48 -115 -42 -133 2
-6 17 -12 33 -12 33 0 36 -10 14 -44 -9 -13 -20 -39 -25 -57 -8 -28 -6 -39 16
-72 15 -23 26 -55 28 -82 2 -38 8 -49 40 -75 51 -40 76 -40 76 1 0 28 2 31 26
26 19 -3 35 3 58 23 28 25 31 34 29 79 0 29 -8 63 -18 78 -17 25 -16 26 11 49
16 13 32 23 36 24 18 1 26 -40 21 -105 l-6 -70 47 -55 c50 -59 59 -99 29 -133
-16 -17 -16 -19 -1 -28 14 -7 16 -19 12 -57 -3 -26 4 -116 15 -199 17 -126 26
-167 56 -234 40 -90 38 -98 -20 -138 -56 -38 -64 -56 -38 -82 19 -19 27 -21
70 -13 71 12 77 11 83 -15 3 -13 12 -27 20 -31 8 -5 53 -25 98 -45 66 -30 100
-53 155 -108 44 -43 93 -80 127 -95 30 -14 61 -31 68 -38 7 -8 26 -21 42 -31
30 -17 39 -33 20 -33 -5 0 -10 -6 -10 -13 0 -24 -34 -46 -80 -52 -25 -4 -55
-11 -67 -17 -21 -10 -42 -9 -118 10 -22 6 -76 13 -120 16 -170 10 -305 50
-416 122 -43 28 -60 34 -86 29 -58 -10 -153 49 -153 96 0 24 18 34 35 19 10
-9 15 -7 20 10 8 24 -12 53 -31 46 -21 -8 -24 22 -5 64 13 30 16 50 10 78 -4
20 -13 71 -19 112 -6 41 -15 79 -20 84 -18 18 -10 67 16 102 28 36 28 34 -4
95 -1 4 11 9 28 12 45 10 38 38 -26 108 -31 33 -62 76 -70 95 -25 59 -46 204
-39 267 5 44 3 58 -8 63 -11 4 -13 23 -11 87 8 173 10 184 43 226 17 21 31 48
31 58 0 28 17 42 33 26z m-604 -23 c47 8 94 -5 88 -24 -4 -12 -187 -21 -187
-9 0 14 36 40 45 33 6 -5 30 -5 54 0z m-1246 -20 c108 -21 807 -14 892 9 37
10 112 14 103 6 -4 -4 -21 -11 -40 -15 -79 -21 -153 -38 -153 -38 0 1 -36 -10
-80 -24 -177 -56 -350 -84 -635 -102 -41 -2 -116 -8 -166 -12 -62 -5 -102 -3
-125 5 -60 21 -193 26 -241 8 -37 -13 -103 -30 -118 -30 -3 0 -25 -6 -50 -13
-40 -13 -220 -42 -260 -42 -36 -1 -226 -44 -257 -59 -18 -8 -36 -13 -39 -11
-2 3 -5 69 -6 147 -2 109 1 144 11 150 23 14 286 24 323 12 109 -36 129 -39
184 -35 105 7 139 14 210 38 64 23 80 25 229 21 88 -1 186 -8 218 -15z m2416
-52 c0 -7 -4 -22 -9 -33 -7 -17 -9 -15 -9 13 -1 17 4 32 9 32 6 0 10 -6 9 -12z
m-1028 -25 c44 -33 74 -46 124 -57 47 -11 50 -13 47 -41 -7 -89 -6 -95 24
-126 16 -17 48 -40 72 -51 43 -19 43 -20 37 -61 -11 -70 25 -249 65 -328 4 -8
5 -37 2 -64 -4 -39 -1 -51 13 -61 11 -8 19 -30 21 -63 l4 -51 -38 0 c-21 0
-46 6 -57 13 -112 75 -547 115 -835 76 -55 -7 -67 -6 -77 8 -8 10 -41 20 -86
27 -87 14 -275 14 -285 0 -4 -5 -86 -10 -194 -10 -258 -2 -312 -10 -352 -49
-12 -13 -23 -14 -51 -6 -24 6 -46 6 -67 -1 -47 -17 -198 23 -198 52 0 5 17 13
38 18 167 41 209 49 224 41 9 -5 47 -5 87 0 39 5 87 5 108 1 32 -7 289 -24
318 -21 166 15 413 21 480 11 60 -8 126 -9 260 0 99 6 225 8 280 5 55 -4 134
-8 175 -10 42 -1 88 -10 104 -18 36 -20 68 -9 81 27 13 37 -3 45 -95 47 -41 0
-86 2 -100 5 -14 2 -72 6 -130 9 -57 3 -112 7 -121 10 -9 3 -58 -1 -110 -9
-113 -18 -189 -19 -278 -3 -42 8 -92 10 -136 5 -239 -25 -592 -25 -706 1 -58
14 -124 14 -173 0 -35 -10 -42 -9 -53 7 -25 34 -15 41 85 58 53 9 116 20 139
26 23 5 49 7 57 4 7 -3 33 0 56 6 30 8 47 20 62 46 11 19 24 34 29 34 5 0 9 5
9 11 0 19 -74 42 -130 39 -117 -4 -390 -5 -484 0 -73 3 -101 1 -104 -8 -5 -17
-59 -40 -107 -46 -22 -2 -65 -9 -95 -15 -43 -8 -88 -6 -214 9 -88 11 -183 20
-210 20 -70 0 -80 8 -77 68 1 36 -3 51 -14 56 -8 3 -15 12 -15 20 0 9 6 13 14
10 8 -3 15 4 18 20 4 17 1 23 -9 19 -8 -3 -13 2 -13 16 0 25 8 26 38 5 12 -8
31 -13 41 -9 11 3 28 7 38 9 10 2 36 9 58 14 22 6 87 16 145 22 113 12 286 50
347 75 46 19 179 23 288 7 44 -6 98 -10 120 -8 22 2 90 6 150 10 61 4 144 12
185 17 41 5 98 11 125 14 179 16 277 32 400 67 163 46 168 46 389 53 93 3 171
7 174 10 12 11 61 4 83 -12z m1289 -55 c-1 -7 -12 -26 -25 -43 -21 -25 -27
-28 -35 -15 -11 17 -13 54 -3 63 12 12 63 7 63 -5z m366 -35 c-3 -16 -11 -55
-16 -88 -10 -59 -9 -60 20 -87 26 -24 30 -35 30 -80 0 -43 -4 -56 -25 -73 -22
-18 -25 -32 -36 -140 -7 -66 -13 -164 -14 -219 -1 -96 -2 -99 -28 -112 -30
-16 -34 -35 -12 -54 8 -7 15 -23 15 -36 0 -33 31 -47 66 -30 61 29 69 28 125
-14 36 -27 64 -40 85 -40 17 0 44 -10 60 -22 22 -17 40 -22 75 -21 39 2 52 -3
85 -30 46 -39 217 -127 246 -127 11 0 28 -10 37 -22 24 -29 51 -18 51 20 0 37
-38 73 -79 74 -17 1 -36 7 -42 15 -6 7 -15 13 -20 13 -13 0 -52 18 -94 45 -94
58 -137 76 -175 74 -24 -2 -46 3 -57 13 -10 8 -40 24 -68 34 -27 10 -68 31
-90 47 -30 22 -48 27 -72 24 -25 -5 -32 -2 -37 16 -3 11 -3 24 -1 27 6 10 119
21 260 26 66 2 136 6 156 9 41 5 94 -16 109 -45 12 -22 54 -36 129 -44 29 -4
58 -9 63 -12 12 -8 41 -10 263 -19 94 -4 171 -8 173 -10 2 -1 -4 -39 -13 -83
-18 -89 -15 -100 36 -141 20 -16 42 -19 119 -20 144 -2 174 5 205 47 16 21 20
43 20 102 l0 75 53 3 c36 2 71 -4 109 -18 68 -25 163 -40 298 -47 54 -2 106
-8 115 -13 13 -7 100 -7 281 1 26 1 51 -1 56 -4 11 -7 25 -75 25 -117 0 -14
-1 -70 -1 -126 0 -124 -7 -133 -78 -111 -26 8 -93 18 -148 21 -55 3 -118 11
-140 17 -37 11 -333 17 -431 9 -29 -2 -49 3 -70 18 -26 19 -156 41 -229 39
-41 -1 -149 14 -159 22 -20 15 -110 31 -186 33 -102 2 -138 -2 -152 -19 -20
-25 11 -35 89 -28 81 6 141 -6 183 -37 21 -15 48 -21 121 -24 203 -10 289 -29
289 -66 0 -5 -33 -9 -72 -8 -40 0 -138 1 -217 1 -79 0 -188 4 -242 10 -127 13
-238 4 -288 -22 -26 -13 -58 -20 -97 -20 -90 1 -96 1 -149 11 -27 5 -90 14
-140 20 -76 10 -205 45 -205 56 0 2 9 8 21 14 15 9 24 8 35 0 8 -8 26 -10 46
-5 38 8 57 8 189 -1 96 -6 101 -5 215 36 35 12 49 43 29 60 -10 8 -19 8 -35 0
-40 -21 -163 -36 -245 -29 -44 3 -93 3 -110 -2 -50 -13 -270 7 -296 27 -41 32
-281 51 -312 25 -34 -27 -102 2 -143 61 -22 31 -25 44 -20 80 21 141 32 331
28 488 -9 309 -9 301 16 352 17 35 22 56 17 79 l-7 30 41 -21 c45 -22 49 -34
25 -69 -35 -49 -1 -147 58 -169 25 -9 28 -16 28 -53 0 -43 29 -89 56 -89 23 0
44 31 44 66 0 45 21 93 54 123 31 29 32 45 6 96 -11 22 -20 40 -20 41 0 1 13
4 28 7 17 4 33 16 40 31 12 27 6 82 -9 92 -14 8 -10 34 5 34 7 0 19 7 26 15
20 24 33 18 26 -12z m-633 -36 c10 -24 17 -68 17 -103 0 -80 32 -139 98 -184
20 -14 22 -24 25 -120 l2 -104 -55 -2 c-82 -2 -158 -15 -171 -30 -27 -33 25
-77 68 -59 10 5 51 9 91 10 l73 2 -5 -71 c-17 -237 -17 -236 -36 -236 -10 0
-39 9 -65 20 -26 11 -57 20 -71 20 -34 0 -52 34 -76 146 -17 83 -20 134 -19
308 1 206 1 210 26 248 14 20 25 44 25 51 0 8 11 26 25 41 21 23 24 33 19 67
-9 51 7 50 29 -4z m3202 -27 c66 -6 139 -18 163 -26 68 -22 121 -18 148 11 20
21 27 24 44 15 12 -6 57 -10 104 -8 47 2 88 0 92 -5 7 -7 9 -96 6 -312 -1 -55
-1 -140 -1 -190 2 -231 -2 -381 -9 -393 -7 -10 -21 -9 -73 3 -107 27 -137 30
-327 30 l-182 0 0 33 0 32 53 -5 c28 -3 99 -10 157 -15 107 -11 178 -4 233 21
21 10 27 19 27 45 0 28 -5 35 -42 52 -24 11 -55 23 -70 26 -31 7 -172 8 -270
2 -38 -2 -68 0 -68 4 0 13 69 22 160 21 97 -1 120 4 120 26 0 13 -19 15 -135
12 -88 -3 -138 0 -145 7 -24 24 18 33 180 39 91 3 169 10 174 15 5 5 6 16 3
25 -6 14 -20 15 -109 9 -179 -12 -238 -9 -238 10 0 20 47 26 107 13 56 -12 81
-3 70 26 -4 10 -30 17 -87 22 l-82 7 7 37 c4 20 11 40 16 45 5 5 40 10 79 11
59 1 74 5 95 25 29 27 31 42 10 74 -15 22 -23 24 -105 25 -84 1 -90 0 -90 -19
0 -18 7 -20 55 -20 40 0 55 -4 55 -14 0 -25 -65 -29 -107 -6 -30 16 -40 17
-49 7 -16 -17 -34 -75 -34 -109 0 -54 -14 -66 -75 -67 -31 0 -60 -3 -66 -7 -6
-3 -31 -8 -56 -10 -59 -6 -63 -9 -63 -48 0 -48 14 -56 106 -56 100 0 114 -5
114 -39 0 -14 -4 -21 -8 -16 -10 15 -239 1 -274 -15 -21 -10 -28 -20 -28 -41
0 -25 5 -30 43 -40 23 -7 90 -11 150 -11 92 1 107 -1 107 -14 0 -12 -6 -15
-26 -10 -54 14 -268 -41 -306 -78 -22 -21 -28 -22 -108 -14 -133 14 -186 27
-227 56 -33 23 -47 27 -115 26 -46 0 -83 -5 -92 -13 -19 -16 -32 -8 -51 29
-11 21 -16 83 -20 252 -3 123 -8 231 -11 241 -7 23 4 21 26 -5 17 -21 20 -21
76 -9 103 22 135 34 154 58 28 36 70 43 224 36 77 -4 183 -6 234 -6 81 1 96 4
116 22 18 17 36 21 92 22 80 1 109 10 116 36 9 35 -10 63 -59 84 -26 11 -49
22 -51 24 -6 6 9 26 16 21 4 -2 61 -9 127 -16z m-121 -66 c3 -8 2 -12 -4 -9
-6 3 -10 10 -10 16 0 14 7 11 14 -7z m-5297 -276 c-3 -8 -6 -5 -6 6 -1 11 2
17 5 13 3 -3 4 -12 1 -19z m-17 -4 c0 -7 -10 -15 -22 -19 -51 -17 -78 -22 -78
-14 0 5 7 9 15 9 8 0 19 9 24 19 11 20 61 24 61 5z m-80 -2 c0 -13 -79 -37
-159 -48 -14 -2 -75 -10 -136 -18 -159 -20 -172 -29 -129 -92 27 -40 21 -54
-22 -54 -26 0 -119 -27 -161 -47 -23 -10 -33 -22 -33 -37 0 -26 34 -66 56 -66
8 0 27 -9 42 -19 15 -11 56 -24 92 -30 100 -17 401 -21 541 -6 68 7 129 11
134 9 6 -1 68 -5 139 -8 180 -7 183 -17 17 -60 -106 -28 -152 -46 -183 -74
-20 -17 -105 -28 -288 -35 -122 -6 -195 -12 -275 -23 -22 -3 -83 -7 -135 -9
-52 -2 -126 -7 -165 -12 -38 -4 -77 -7 -85 -6 -8 2 -22 0 -30 -4 -21 -9 -19
-8 -80 -17 -50 -8 -209 -56 -249 -76 -55 -27 -75 -34 -97 -32 -15 1 -27 -6
-34 -19 -7 -11 -17 -18 -25 -16 -7 3 -18 0 -24 -6 -6 -6 -11 -7 -11 -1 0 6 5
15 11 21 14 14 24 127 10 119 -12 -8 -10 37 2 45 16 11 -4 30 -24 24 -10 -4
-19 -2 -19 3 0 6 11 13 25 16 l25 6 2 208 c1 114 2 230 2 257 1 39 4 49 16 46
8 -2 40 -9 70 -17 66 -16 160 -18 160 -4 0 7 7 7 21 -1 15 -8 33 -8 63 -1 38
10 92 17 211 28 27 2 103 15 170 28 97 20 145 24 250 22 72 -1 157 1 190 4 90
10 115 11 115 2z m-1190 -38 c0 -3 -7 -1 -15 6 -8 7 -15 17 -15 22 0 5 7 3 15
-6 8 -8 15 -18 15 -22z m6600 -139 c0 -12 -14 -15 -65 -15 -67 0 -90 16 -32
23 74 9 97 7 97 -8z m-3670 -86 c0 -5 -4 -9 -10 -9 -5 0 -10 7 -10 16 0 8 5
12 10 9 6 -3 10 -10 10 -16z m-1390 -60 c0 -5 18 -9 40 -9 55 0 51 -16 -6 -25
-51 -7 -82 10 -71 39 6 16 37 12 37 -5z m-450 1 c0 -5 -2 -10 -4 -10 -3 0 -8
5 -11 10 -3 6 -1 10 4 10 6 0 11 -4 11 -10z m5510 -15 c0 -8 -8 -16 -17 -17
-36 -3 -198 4 -207 9 -21 14 28 23 122 23 84 0 102 -3 102 -15z m-4817 -17
c76 -20 81 -20 93 -4 14 19 53 16 100 -9 16 -8 57 -11 132 -8 59 2 112 4 117
4 10 0 287 -27 365 -36 24 -3 51 -12 60 -20 9 -8 25 -15 36 -15 10 0 33 -9 49
-20 23 -16 39 -19 73 -14 27 4 47 2 57 -6 16 -13 47 -109 50 -155 1 -16 5 -56
9 -87 7 -47 5 -60 -8 -73 -11 -12 -16 -35 -16 -81 l0 -65 -30 16 c-16 8 -46
15 -67 15 -21 0 -60 7 -88 15 -27 9 -77 18 -110 21 -33 2 -80 9 -105 14 -25 6
-81 12 -125 14 -44 2 -125 7 -180 11 -124 8 -208 -3 -213 -28 -2 -10 10 -33
27 -53 52 -59 40 -67 -64 -47 -69 14 -135 24 -165 24 -8 0 -51 7 -95 14 -44 8
-141 17 -215 20 -186 7 -376 19 -468 30 -15 2 -153 6 -307 10 -267 6 -283 5
-328 -14 -27 -12 -49 -16 -52 -11 -10 16 -35 12 -35 -5 0 -8 -6 -15 -12 -16
-7 -1 -22 -2 -33 -3 -14 -1 -21 -9 -23 -28 -2 -19 -10 -30 -25 -33 -30 -6
-200 -35 -210 -35 -4 0 -17 -20 -28 -45 -11 -25 -22 -45 -24 -45 -3 0 0 273 4
276 0 1 13 1 29 2 25 1 54 10 192 60 30 11 74 26 98 33 23 7 47 19 54 26 6 8
14 10 17 4 4 -6 24 -6 56 1 80 17 104 18 430 18 268 0 324 3 420 21 139 25
196 44 231 74 33 29 103 51 189 59 33 4 72 11 87 17 29 12 68 68 68 99 0 27
-38 50 -82 50 -36 0 -54 11 -41 24 10 9 20 8 106 -16z m5260 -33 c22 -9 22
-32 -2 -44 -24 -13 -66 -15 -186 -7 -145 9 -185 16 -185 32 0 7 19 17 43 23
46 11 301 8 330 -4z m-5347 -102 c-7 -7 -26 7 -26 19 0 6 6 6 15 -2 9 -7 13
-15 11 -17z m4888 11 c19 -48 15 -50 -129 -51 -105 0 -135 3 -135 13 0 19 18
28 85 40 94 18 172 17 179 -2z m-3059 -104 c55 -13 75 -29 75 -59 0 -32 23
-83 46 -102 8 -7 20 -21 26 -32 9 -18 8 -19 -15 -13 -41 10 -107 58 -107 78 0
13 -8 18 -26 18 -19 0 -25 4 -20 15 4 11 -3 19 -19 25 -21 8 -25 16 -25 51 0
35 2 40 18 34 9 -4 31 -11 47 -15z m3502 -9 c34 -5 67 -12 73 -16 6 -4 38 -10
71 -15 91 -13 90 -11 87 -166 l-3 -133 -185 -5 c-102 -2 -230 -1 -285 2 l-100
7 0 164 c1 162 1 164 23 166 12 1 25 5 29 9 9 9 200 0 290 -13z m-5880 -28 c2
-6 -16 -11 -47 -12 -58 -1 -68 16 -12 22 47 4 55 3 59 -10z m-1257 -3 c0 -5
-2 -10 -4 -10 -3 0 -8 5 -11 10 -3 6 -1 10 4 10 6 0 11 -4 11 -10z m405 -70
c3 -5 1 -10 -4 -10 -6 0 -11 5 -11 10 0 6 2 10 4 10 3 0 8 -4 11 -10z m3650
-140 c3 -5 36 -10 73 -10 85 0 116 -15 117 -55 0 -32 -6 -29 115 -61 36 -10
77 -23 92 -31 14 -7 62 -15 105 -18 43 -4 98 -10 123 -15 113 -21 390 -7 390
20 0 13 178 10 265 -5 113 -19 387 -24 475 -7 87 16 259 22 290 10 14 -6 63
-11 110 -13 47 -2 139 -7 205 -11 132 -9 212 -9 263 -2 28 3 35 0 42 -17 13
-35 16 -140 4 -138 -102 19 -228 27 -419 26 -250 0 -584 -11 -627 -19 -18 -4
-36 1 -55 15 -39 29 -151 48 -338 57 -188 9 -180 9 -315 0 -99 -7 -107 -6
-124 13 -23 25 -36 27 -36 6 0 -11 -7 -14 -22 -11 -13 3 -81 15 -153 27 -71
11 -144 29 -161 38 -16 10 -55 24 -85 31 -30 7 -66 19 -81 26 -15 8 -34 14
-43 14 -9 0 -40 11 -69 24 -81 37 -231 72 -265 61 -10 -3 -28 2 -41 13 l-23
19 33 6 c22 5 41 2 55 -7 20 -13 24 -12 38 5 18 20 52 25 62 9z m2200 -86 c16
-1 33 -3 38 -3 4 -1 7 -5 7 -10 0 -10 -187 -14 -232 -5 -51 10 -29 23 45 26
39 2 81 2 92 0 10 -3 33 -6 50 -8z m-3750 -4 c70 -6 137 -16 148 -22 11 -6 63
-16 116 -23 53 -8 115 -19 138 -26 35 -11 47 -10 67 0 24 13 28 11 92 -48 l67
-61 69 0 c67 0 71 -1 101 -35 17 -19 38 -35 46 -35 9 0 30 -7 46 -16 50 -27
128 -43 239 -50 58 -4 106 -11 106 -15 0 -4 -55 -8 -122 -7 -68 0 -197 0 -288
-1 -174 -1 -590 5 -925 14 -387 9 -650 15 -662 15 -7 0 -23 0 -35 0 -13 0 -34
-1 -48 -2 -49 -2 -88 -2 -330 6 -239 8 -338 8 -700 1 -96 -2 -189 0 -205 4
-34 9 -253 -5 -288 -18 -21 -9 -21 -9 6 -16 21 -6 27 -13 25 -28 -5 -33 -22
-30 -48 10 -27 40 -54 53 -63 29 -4 -9 -1 -13 6 -10 7 2 17 -7 23 -20 9 -20 9
-23 -2 -19 -8 3 -14 0 -14 -6 0 -6 7 -11 15 -11 8 0 15 -5 15 -11 0 -15 141
-5 171 12 14 7 55 8 117 4 125 -8 370 -8 402 0 41 9 221 16 234 7 15 -10 189
-14 506 -12 146 1 344 -4 440 -11 96 -7 288 -14 425 -15 228 -1 568 -8 865
-18 63 -2 174 0 245 6 148 10 448 12 545 3 147 -14 449 -18 850 -9 179 3 334
6 345 6 143 -3 717 -10 800 -10 61 0 126 0 145 -1 19 0 74 0 122 0 48 -1 97 3
110 8 13 4 37 6 53 4 17 -2 55 0 86 5 30 4 87 5 125 1 38 -5 112 -11 164 -13
52 -3 111 -8 130 -11 50 -7 185 -7 257 1 34 3 79 3 98 0 l37 -7 -1 -112 c-1
-62 -1 -220 0 -352 3 -263 -3 -351 -24 -372 -23 -24 -476 -19 -772 8 -73 6
-281 9 -530 7 -225 -2 -428 0 -450 4 -80 18 -175 21 -191 7 -9 -7 -23 -15 -33
-17 -12 -3 -234 -12 -326 -13 -5 0 -44 3 -85 6 -65 5 -153 6 -430 2 -30 -1
-68 0 -85 1 -35 2 -598 5 -700 4 -38 -1 -140 -4 -225 -7 -86 -2 -183 -5 -215
-6 -53 -2 -290 -1 -367 1 -16 0 -28 -4 -28 -9 0 -12 -63 -21 -76 -10 -6 5 -31
9 -55 9 -42 -1 -69 1 -216 14 -38 3 -111 8 -163 12 -52 3 -103 10 -113 15 -10
6 -27 7 -37 4 -11 -4 -35 -1 -54 6 -27 10 -40 10 -64 0 -28 -12 -113 -13 -502
-9 -69 1 -163 1 -210 1 -47 -1 -107 -1 -135 -1 -736 -3 -1033 -7 -1029 -14 3
-4 0 -8 -5 -8 -6 0 -11 6 -11 13 0 9 -3 8 -9 -2 -6 -9 -11 -10 -15 -2 -4 6
-17 11 -29 10 -12 0 -16 -3 -9 -6 6 -2 12 -11 12 -19 0 -8 -6 -11 -15 -8 -8 4
-15 12 -15 19 0 8 -15 12 -42 12 -54 0 -78 28 -78 89 0 23 -4 45 -8 48 -5 3
-7 48 -4 101 3 67 1 95 -8 95 -6 0 -8 5 -3 13 10 17 12 388 2 381 -5 -3 -9 -1
-9 5 0 5 5 13 10 16 6 3 10 17 10 31 0 14 -4 22 -10 19 -11 -7 -14 18 -3 29 4
3 8 53 9 110 1 97 3 106 29 139 32 39 112 65 161 52 51 -13 102 -8 156 18 29
14 76 30 103 36 28 7 67 24 88 38 34 24 46 26 130 25 204 -2 489 -12 497 -17
5 -3 77 -7 162 -10 84 -2 178 -7 208 -9 30 -3 99 -8 152 -11 54 -3 155 -16
225 -29 173 -32 256 -33 314 -2 36 19 45 30 49 57 5 34 8 35 71 48 3 0 64 -4
134 -9z m1495 -25 c7 -8 27 -15 44 -15 17 0 58 -11 91 -24 33 -13 101 -37 150
-52 50 -15 113 -38 140 -50 34 -15 78 -24 140 -28 50 -3 124 -13 165 -22 61
-13 113 -15 280 -11 113 3 250 2 304 -2 94 -6 99 -7 101 -29 3 -38 21 -47 98
-47 86 0 673 16 737 20 118 7 291 4 345 -5 33 -5 61 -10 63 -10 1 0 2 -5 2
-11 0 -7 -11 -8 -29 -4 -16 3 -51 0 -78 -8 -45 -13 -387 -16 -818 -7 -55 1
-311 0 -570 -2 -318 -4 -474 -2 -483 5 -10 8 -20 7 -35 -3 -18 -12 -76 -14
-317 -12 -280 2 -371 11 -261 26 99 13 131 38 131 101 0 42 -67 112 -140 146
-85 39 -90 42 -90 51 0 13 16 9 30 -7z m3357 -27 c9 -7 13 -50 13 -149 l0
-139 -178 0 c-128 0 -183 4 -197 13 -28 18 -82 35 -135 42 l-46 7 -2 51 c-1
29 -4 72 -5 97 l-2 45 50 7 c28 5 94 6 147 3 58 -3 100 -1 103 5 3 6 39 10 78
10 48 1 79 6 92 16 21 15 59 12 82 -8z m-7227 -327 c0 -6 -4 -13 -10 -16 -5
-3 -10 1 -10 9 0 9 5 16 10 16 6 0 10 -4 10 -9z m2384 -6 c3 -9 0 -15 -8 -15
-8 0 -16 7 -20 15 -3 9 0 15 8 15 8 0 16 -7 20 -15z m-2514 -245 c0 -5 -4 -10
-10 -10 -5 0 -10 5 -10 10 0 6 5 10 10 10 6 0 10 -4 10 -10z m-7 -70 c3 -11 1
-23 -4 -26 -5 -3 -9 6 -9 20 0 31 6 34 13 6z m7 -208 c0 -21 -2 -24 -10 -12
-13 20 -13 53 0 45 6 -3 10 -18 10 -33z"/>
<path d="M1627 12462 c-22 -24 -22 -24 7 -56 14 -17 31 -27 42 -24 20 4 40 57
31 82 -9 22 -60 20 -80 -2z"/>
<path d="M6043 12320 c-26 -11 -28 -18 -9 -42 27 -36 63 -17 52 28 -7 26 -10
27 -43 14z"/>
<path d="M3930 11810 c0 -5 5 -10 11 -10 5 0 7 5 4 10 -3 6 -8 10 -11 10 -2 0
-4 -4 -4 -10z"/>
<path d="M3962 11670 c0 -14 2 -19 5 -12 2 6 2 18 0 25 -3 6 -5 1 -5 -13z"/>
<path d="M365 10380 c-3 -5 -1 -10 4 -10 6 0 11 5 11 10 0 6 -2 10 -4 10 -3 0
-8 -4 -11 -10z"/>
<path d="M3936 9387 c-38 -28 16 -60 119 -72 69 -8 238 -63 340 -111 39 -18
99 -57 135 -86 83 -68 108 -84 147 -92 37 -8 106 -40 143 -66 14 -9 42 -23 62
-29 55 -18 138 -112 138 -156 0 -24 7 -39 26 -54 33 -26 54 -13 54 30 0 107
-130 218 -364 312 -38 16 -110 59 -160 96 -50 37 -122 80 -161 96 -38 16 -96
41 -127 56 -77 36 -149 57 -233 68 -38 4 -77 11 -85 15 -9 3 -24 0 -34 -7z"/>
<path d="M361 8774 c0 -11 3 -14 6 -6 3 7 2 16 -1 19 -3 4 -6 -2 -5 -13z"/>
<path d="M2837 8235 c-9 -20 -17 -48 -17 -63 0 -15 -9 -59 -20 -97 -20 -69
-25 -140 -14 -182 7 -24 50 -43 98 -43 40 0 101 49 122 98 18 43 22 128 7 143
-16 16 -40 0 -53 -34 -21 -57 -44 -99 -58 -104 -7 -3 -21 2 -31 11 -15 14 -17
24 -10 64 4 26 17 71 28 100 25 63 26 90 5 120 -22 31 -38 27 -57 -13z"/>
<path d="M5733 12273 c-7 -2 -13 -18 -13 -34 0 -27 3 -30 28 -27 20 2 28 9 30
27 5 31 -16 46 -45 34z"/>
<path d="M3331 11666 c-19 -23 -10 -71 14 -71 17 0 20 7 20 39 0 42 -14 56
-34 32z"/>
<path d="M2801 11471 c-17 -31 -13 -59 9 -71 23 -13 31 -1 34 52 1 38 -26 51
-43 19z"/>
<path d="M5895 11026 c-21 -15 -15 -46 9 -46 18 0 40 36 31 50 -8 13 -18 13
-40 -4z"/>
<path d="M5805 10967 c-32 -50 -38 -83 -20 -121 20 -42 69 -86 95 -86 28 0 33
39 6 51 -13 6 -30 24 -40 40 -22 37 -10 61 14 29 19 -26 50 -22 50 6 0 27 -53
103 -72 104 -10 0 -24 -10 -33 -23z"/>
<path d="M5784 10665 c-19 -29 -11 -80 13 -90 21 -7 33 11 33 52 0 64 -19 80
-46 38z"/>
<path d="M5837 10283 c-4 -3 -7 -22 -7 -41 0 -28 5 -36 30 -45 19 -7 30 -19
32 -36 7 -54 70 -52 76 3 3 21 -1 26 -18 26 -15 0 -22 8 -26 30 -4 19 -18 37
-39 50 -36 22 -39 23 -48 13z"/>
<path d="M5837 10104 c-12 -13 -8 -51 8 -64 11 -9 25 -10 48 -4 27 8 32 15 32
39 0 28 -3 30 -40 33 -23 2 -44 0 -48 -4z"/>
<path d="M5894 9566 c-9 -24 4 -48 23 -44 12 2 18 12 18 28 0 29 -32 41 -41
16z"/>
<path d="M5103 8543 c-36 -7 -48 -29 -33 -58 18 -34 64 -34 86 0 30 46 8 71
-53 58z"/>
<path d="M5094 8420 c-30 -12 -37 -26 -25 -49 15 -28 49 -33 72 -10 20 20 22
28 13 53 -7 17 -27 19 -60 6z"/>
<path d="M5907 8363 c-4 -3 -7 -15 -7 -25 0 -12 7 -18 24 -18 24 0 41 23 30
41 -6 10 -38 12 -47 2z"/>
<path d="M5895 4920 c-11 -18 15 -50 40 -50 18 0 25 5 25 20 0 29 -51 53 -65
30z"/>
<path d="M5841 4616 c-9 -11 -8 -18 4 -30 9 -9 20 -16 25 -16 4 0 11 -7 14
-15 4 -11 -3 -19 -19 -25 -41 -16 -25 -60 21 -60 15 0 25 9 33 30 5 17 15 30
20 30 6 0 11 13 11 29 0 52 -79 93 -109 57z"/>
<path d="M5838 4408 l-22 -22 23 -10 c26 -11 57 13 48 38 -9 22 -23 20 -49 -6z"/>
<path d="M5882 4325 c-15 -19 -20 -42 -21 -106 -1 -45 -4 -86 -7 -91 -3 -4 6
-13 21 -20 42 -19 49 -1 54 127 3 98 1 115 -12 115 -9 0 -24 -11 -35 -25z"/>
<path d="M5851 3886 l-23 -25 7 -213 c4 -117 11 -221 17 -231 6 -11 18 -17 31
-15 17 2 21 9 19 28 -2 14 -6 124 -9 245 -2 121 -8 223 -12 228 -4 4 -18 -4
-30 -17z"/>
<path d="M3651 6209 c-15 -6 -21 -14 -17 -25 3 -9 6 -29 6 -44 0 -40 30 -56
59 -32 31 27 37 66 12 91 -23 23 -26 24 -60 10z"/>
<path d="M4685 4320 c-6 -9 0 -59 9 -67 3 -3 10 -2 16 2 9 6 9 10 -1 16 -11 6
-10 9 4 14 13 6 14 11 6 26 -11 21 -24 24 -34 9z"/>
<path d="M3936 2570 c-69 -12 -76 -16 -76 -44 0 -31 36 -44 70 -26 12 6 34 8
51 5 55 -12 104 41 60 65 -22 11 -35 11 -105 0z"/>
<path d="M7153 2273 c-7 -2 -13 -15 -13 -28 0 -12 6 -27 13 -33 22 -17 77 -25
92 -12 45 37 -32 98 -92 73z"/>
<path d="M1054 1382 c-40 -20 -39 -19 -19 -42 17 -19 17 -23 2 -57 -18 -44
-57 -182 -57 -202 0 -7 -11 -51 -26 -97 -20 -68 -30 -86 -52 -96 -45 -22 -34
-42 28 -49 30 -4 63 -10 72 -14 20 -8 78 23 78 42 0 15 -32 33 -59 33 -29 0
-29 26 -1 110 l25 74 75 1 c41 0 87 4 101 9 23 7 29 3 48 -27 11 -19 21 -42
21 -52 0 -9 12 -40 26 -68 l25 -52 -20 -16 c-12 -10 -21 -24 -21 -32 0 -21
159 -31 179 -11 13 12 12 16 -2 32 -21 22 -62 117 -70 160 -4 18 -17 56 -30
85 -13 28 -31 70 -39 92 -42 108 -72 171 -85 182 -21 17 -163 14 -199 -5z
m136 -143 c22 -45 39 -84 37 -86 -2 -2 -39 -4 -83 -6 -88 -2 -84 -7 -63 73 34
130 51 133 109 19z"/>
<path d="M2347 1394 c-1 -1 -62 -4 -136 -7 -149 -6 -173 -15 -129 -50 30 -24
30 -27 24 -197 -4 -100 -10 -171 -22 -251 -8 -52 10 -63 88 -53 35 4 71 8 80
9 10 1 21 4 24 8 3 3 28 -3 54 -13 l47 -19 37 25 c26 18 36 32 36 52 1 15 7
38 14 51 17 31 9 61 -16 61 -34 0 -55 -18 -72 -60 -16 -39 -18 -41 -49 -34
-77 16 -77 16 -77 97 0 50 5 79 15 93 15 18 16 18 44 -14 49 -56 78 -23 66 74
-6 51 -8 54 -35 54 -23 0 -33 -7 -45 -30 -28 -54 -39 -37 -31 48 6 82 19 102
62 102 37 0 54 -11 54 -35 0 -52 50 -42 72 13 11 27 12 44 5 60 -9 20 -17 23
-59 21 -26 -2 -49 -3 -51 -5z"/>
<path d="M6302 1388 c-7 -7 -43 -15 -80 -18 -55 -4 -67 -8 -70 -23 -2 -11 5
-27 17 -38 24 -23 20 -72 -10 -105 -16 -17 -18 -30 -13 -79 9 -77 -14 -223
-38 -247 -39 -39 -22 -45 133 -47 62 -1 117 -4 121 -7 5 -3 17 1 26 9 10 9 35
16 58 15 23 0 50 5 62 11 11 6 30 11 41 11 16 0 21 6 21 25 0 19 5 25 17 23
38 -7 91 145 78 225 -11 65 -59 161 -91 184 -74 50 -244 89 -272 61z m139 -70
c49 -14 81 -56 102 -133 11 -45 13 -73 7 -110 -5 -27 -9 -56 -9 -62 -1 -22
-73 -94 -110 -110 -53 -23 -97 -32 -112 -22 -16 10 -17 58 -5 244 5 72 9 139
8 150 -2 27 26 55 56 55 14 0 42 -5 63 -12z"/>
<path d="M6845 1391 c-116 -20 -166 -110 -123 -223 17 -44 52 -60 139 -62 68
-2 80 -5 98 -25 28 -32 28 -90 0 -125 -28 -35 -82 -36 -129 -1 -19 14 -41 25
-51 25 -9 0 -22 6 -28 14 -10 11 -19 12 -42 4 -16 -5 -29 -13 -29 -17 0 -4
-15 -33 -34 -64 l-35 -57 25 -17 c19 -12 36 -14 77 -8 74 11 101 11 197 -4 60
-9 86 -9 88 -2 2 6 17 11 33 11 16 0 29 4 29 9 0 5 17 18 38 28 31 15 39 25
49 66 16 65 -4 132 -55 185 -35 37 -102 70 -120 58 -12 -7 -74 16 -115 44 -36
25 -47 40 -27 40 6 0 10 7 10 15 0 15 25 25 70 27 60 4 79 -2 92 -29 31 -64
118 -45 118 26 0 20 -4 41 -8 47 -10 16 -67 33 -80 25 -12 -7 -102 1 -132 11
-8 3 -33 2 -55 -1z"/>
<path d="M483 1383 c-22 -8 -14 -33 13 -43 l25 -10 -5 -198 c-3 -108 -8 -212
-12 -229 -6 -29 -3 -34 19 -42 36 -14 110 -14 200 -2 13 2 7 41 -7 41 -24 0
-35 25 -38 84 l-3 58 65 17 c107 29 153 54 178 100 20 36 22 48 16 116 -4 41
-12 82 -18 90 -8 11 -38 15 -121 16 -60 1 -126 -2 -146 -6 -23 -4 -39 -3 -43
4 -7 11 -99 14 -123 4z m330 -102 c21 -36 22 -60 1 -89 -13 -19 -24 -22 -79
-22 l-64 0 1 53 c0 85 2 87 67 87 52 0 58 -2 74 -29z"/>
<path d="M1697 1376 c-48 -11 -68 -23 -109 -62 -51 -51 -73 -84 -82 -125 -3
-13 -10 -44 -16 -68 -20 -83 34 -202 110 -241 26 -13 78 -24 157 -31 103 -11
123 -10 156 4 l38 16 -3 88 -3 88 -75 3 c-99 4 -142 -4 -138 -26 2 -13 17 -18
58 -22 64 -6 78 -28 35 -56 -24 -16 -29 -16 -91 1 -85 23 -99 46 -90 154 4 42
7 87 7 101 1 50 61 90 130 88 24 -1 51 -7 60 -15 12 -10 23 -11 47 -2 33 11
47 37 38 67 -5 16 -67 40 -106 41 -8 0 -26 2 -40 5 -14 2 -51 -1 -83 -8z"/>
<path d="M4767 1376 c-30 -8 -37 -14 -35 -30 2 -17 11 -22 43 -24 54 -4 60
-13 30 -48 -14 -16 -25 -34 -25 -40 0 -6 -9 -23 -20 -37 -11 -14 -20 -30 -20
-36 0 -6 -13 -32 -29 -58 -16 -27 -36 -69 -46 -95 -10 -26 -22 -45 -26 -42
-11 6 -78 110 -87 133 -3 9 -21 41 -39 71 -18 30 -33 63 -33 72 0 21 29 58 45
58 7 0 22 11 35 25 39 42 18 49 -136 47 -167 -1 -182 -8 -126 -62 25 -25 43
-54 52 -85 12 -44 12 -49 -6 -62 -10 -7 -42 -55 -69 -106 -28 -50 -55 -92 -60
-92 -5 0 -20 36 -34 80 -14 44 -29 85 -32 90 -7 10 -31 107 -44 171 -11 56
-34 71 -106 68 -35 -2 -77 -3 -92 -4 -15 0 -30 -7 -34 -15 -9 -25 26 -55 63
-55 35 0 42 -12 60 -100 3 -19 10 -41 14 -50 26 -52 43 -99 46 -122 4 -32 43
-113 70 -146 11 -12 33 -25 51 -28 27 -5 37 -1 63 24 16 17 30 39 30 50 0 10
9 27 20 37 11 10 20 22 20 27 0 15 82 129 89 123 3 -4 44 -63 91 -132 47 -69
97 -132 112 -141 25 -15 28 -14 61 14 25 20 57 72 107 174 40 80 92 178 117
217 24 40 45 85 46 100 2 27 1 28 -63 33 -36 3 -82 1 -103 -4z"/>
<path d="M5051 1378 c-34 -18 -37 -36 -7 -44 14 -3 26 -8 26 -11 0 -13 -33
-136 -54 -198 -24 -74 -50 -162 -60 -207 -4 -17 -16 -29 -36 -36 -55 -20 -31
-62 35 -62 80 0 82 2 88 93 7 96 27 158 54 168 11 4 46 6 78 5 66 -3 69 -7 80
-87 3 -25 17 -61 30 -80 28 -37 30 -51 13 -79 -15 -24 -7 -33 29 -31 16 1 55
1 87 2 68 0 96 12 96 39 0 14 -7 20 -22 20 -61 1 -84 33 -124 170 -45 156 -58
199 -75 237 -11 24 -19 46 -19 51 0 15 -56 39 -105 45 -27 4 -59 9 -70 12 -11
3 -31 0 -44 -7z m135 -135 c33 -95 33 -95 -28 -91 -41 2 -52 6 -50 18 11 48
35 136 39 143 8 13 14 2 39 -70z"/>
<path d="M5652 1380 c-12 -5 -40 -7 -63 -4 -60 9 -91 -2 -87 -29 2 -18 10 -23
46 -25 23 -2 43 -6 43 -10 1 -4 3 -101 5 -217 3 -201 2 -211 -18 -232 -11 -12
-18 -28 -15 -36 6 -15 90 -33 107 -22 11 7 14 48 4 58 -4 3 -8 90 -9 192 -3
169 -2 186 13 183 9 -2 18 -12 20 -23 2 -11 10 -27 18 -36 21 -23 94 -165 94
-182 0 -8 7 -20 15 -27 9 -7 25 -34 36 -59 25 -59 75 -96 112 -82 31 12 34 23
36 138 0 51 6 114 12 140 5 26 10 78 10 116 0 48 4 71 15 80 63 51 67 63 27
78 -34 13 -138 6 -158 -11 -23 -19 -18 -40 10 -40 l24 0 -4 -137 c-2 -76 -4
-148 -4 -160 -2 -42 -20 -24 -57 55 -20 42 -43 93 -52 112 -28 61 -132 190
-152 189 -3 0 -15 -4 -28 -9z"/>
<path d="M3201 1259 c-54 -10 -87 -40 -95 -84 -6 -30 -1 -41 48 -102 55 -67
86 -143 86 -207 0 -35 -45 -113 -71 -121 -19 -6 -25 -25 -13 -38 10 -10 78 29
117 65 42 40 61 101 55 176 l-5 52 33 -6 c27 -5 35 -2 49 20 32 48 -8 126 -65
126 -36 0 -42 -9 -30 -50 12 -43 3 -52 -19 -20 -17 27 -30 40 -79 83 -28 24
-31 30 -21 48 9 17 17 20 45 16 27 -5 34 -2 39 14 12 38 1 43 -74 28z"/>
<path d="M2944 1043 c-36 -30 -45 -57 -35 -106 21 -116 149 -130 200 -22 40
85 12 131 -85 140 -48 5 -63 3 -80 -12z m80 -49 c21 -21 21 -73 0 -81 -23 -9
-44 23 -44 64 0 37 18 44 44 17z"/>
<path d="M7271 917 c-47 -16 -59 -38 -39 -70 30 -44 136 -45 165 -1 18 28 8
46 -38 70 -33 17 -43 17 -88 1z"/>
</g>
</svg>
