<?xml version="1.0" standalone="no"?>
<!DOCTYPE svg PUBLIC "-//W3C//DTD SVG 20010904//EN"
 "http://www.w3.org/TR/2001/REC-SVG-20010904/DTD/svg10.dtd">
<svg version="1.0" xmlns="http://www.w3.org/2000/svg"
 width="830.000000pt" height="1402.000000pt" viewBox="0 0 830.000000 1402.000000"
 preserveAspectRatio="xMidYMid meet">
<metadata>
Created by potrace 1.16, written by Peter Selinger 2001-2019
</metadata>
<g transform="translate(0.000000,1402.000000) scale(0.100000,-0.100000)"
fill="#000000" stroke="none">
<path d="M949 13605 c-4 -3 -105 -8 -225 -11 -121 -2 -229 -7 -241 -9 -14 -3
-24 -15 -28 -35 -4 -16 -13 -30 -21 -30 -11 0 -14 -24 -15 -122 0 -68 -2 -136
-4 -153 -1 -16 -2 -140 -2 -275 2 -527 0 -846 -7 -1110 -8 -299 -12 -1145 -9
-1790 2 -223 3 -733 3 -1135 0 -401 0 -784 0 -850 1 -66 1 -247 0 -403 0 -156
2 -287 4 -290 2 -4 -2 -84 -9 -177 -10 -116 -15 -359 -16 -760 0 -324 -3 -612
-5 -640 -5 -70 -16 -2526 -18 -4126 l-3 -1337 136 0 c154 0 201 -5 213 -24 6
-10 10 -10 16 -1 9 14 11 14 312 9 336 -6 1492 -7 1595 -1 141 7 263 7 275 0
14 -9 290 -9 815 0 226 4 417 7 425 7 8 0 44 0 80 -1 152 -4 1786 10 1905 16
169 8 450 8 805 -1 504 -12 811 -9 827 6 11 12 13 144 12 799 0 431 -3 820 -5
864 -2 44 -4 93 -4 109 0 16 3 237 5 490 2 254 3 520 2 591 -1 108 -1 1004 1
1140 0 22 -2 321 -4 665 -3 344 -4 650 -4 680 2 708 -3 1659 -9 1701 -4 31 -4
65 0 76 4 11 8 105 8 209 1 176 9 590 12 624 1 8 1 49 0 90 -1 41 1 143 6 225
7 137 9 748 4 1290 -1 121 1 301 5 400 8 228 7 255 -14 278 -10 12 -13 21 -6
25 21 14 25 50 25 231 1 158 -2 186 -15 193 -20 11 -22 42 -2 35 20 -8 23 86
20 628 -6 1034 -6 1289 1 1530 l8 250 -23 20 c-30 27 108 24 -1805 39 -2006
15 -2299 19 -2795 35 -388 12 -1215 23 -1515 20 -343 -4 -630 -2 -670 5 -22 4
-43 5 -46 1z m281 -64 c124 0 239 1 255 0 17 -1 44 -1 60 0 56 2 120 1 265 -6
80 -4 296 -8 480 -10 184 -1 407 -6 495 -10 263 -12 303 -14 470 -19 88 -4
189 -9 225 -13 36 -5 94 -6 130 -3 36 3 78 2 95 -2 16 -5 66 -3 111 4 62 9
112 9 213 0 93 -8 139 -9 158 -1 18 7 59 8 113 3 47 -4 177 -8 290 -10 113 -1
279 -5 370 -8 227 -8 370 -8 685 -2 320 7 281 7 330 1 22 -3 121 -7 220 -9 99
-3 185 -5 190 -6 6 0 264 1 575 4 474 4 574 3 621 -9 31 -8 75 -15 98 -15 l41
0 -5 -542 c-3 -299 -4 -631 -3 -738 1 -221 1 -244 -6 -796 -2 -226 -9 -419
-15 -440 -14 -54 -14 -101 -1 -234 6 -63 10 -231 8 -373 -2 -217 0 -260 12
-268 13 -8 13 -10 1 -18 -11 -7 -13 -40 -10 -162 2 -85 2 -233 1 -329 -7 -590
-11 -1475 -13 -2430 -1 -1111 -1 -1246 -3 -1425 0 -55 3 -348 8 -651 7 -496 6
-551 -8 -563 -13 -11 -22 -11 -44 -2 -18 8 -63 10 -128 6 -112 -6 -92 -13
-200 78 -50 43 -288 167 -320 167 -9 0 -42 9 -73 19 -117 40 -286 69 -396 70
-11 0 -45 2 -75 5 -209 22 -474 6 -572 -36 -67 -28 -81 -23 -91 37 -5 28 -9
210 -10 405 -2 243 -6 366 -14 390 -17 49 -44 264 -43 341 0 35 -4 107 -11
159 -6 52 -10 119 -10 148 1 29 -3 62 -9 73 -8 15 -8 24 0 34 6 7 8 24 5 37
-2 12 -7 109 -9 213 -3 105 -10 260 -15 345 -6 85 -13 225 -16 310 -2 85 -7
182 -10 215 -3 33 -12 137 -20 230 -14 154 -18 229 -30 550 -10 298 -22 380
-77 524 -73 193 -81 202 -238 282 -36 18 -81 34 -100 35 -19 0 -48 6 -63 13
-36 14 -59 14 -93 -1 -23 -11 -28 -10 -32 2 -3 7 -16 24 -28 37 -13 13 -24 30
-24 38 0 8 -5 17 -11 21 -6 4 -9 19 -5 36 4 23 0 35 -19 54 -13 13 -32 25 -42
25 -10 1 -29 3 -43 4 -14 2 -59 -10 -100 -26 -64 -24 -77 -27 -88 -15 -22 22
-6 35 37 29 45 -6 61 10 37 36 -9 10 -16 22 -15 27 5 30 -4 58 -27 79 -21 20
-25 29 -19 56 9 39 -4 49 -62 49 -36 0 -44 4 -60 30 -9 17 -21 30 -26 30 -4 0
-5 -4 -2 -10 3 -5 4 -10 1 -10 -3 0 -12 15 -20 33 -17 37 -68 93 -111 122 -47
30 -167 95 -177 95 -5 0 -21 9 -36 20 -23 17 -35 19 -82 12 -30 -5 -81 -8
-113 -7 -32 0 -61 -3 -63 -7 -3 -4 -16 -8 -29 -8 -13 0 -25 -4 -27 -8 -1 -4
-30 -23 -63 -41 -89 -50 -133 -87 -140 -121 -4 -20 -17 -36 -36 -45 -16 -9
-29 -19 -29 -24 0 -5 -13 -22 -30 -38 -22 -21 -31 -41 -34 -74 -3 -25 -10 -65
-17 -89 -6 -25 -14 -77 -16 -116 -4 -69 -4 -71 32 -114 34 -41 56 -60 115
-100 12 -8 33 -23 45 -32 13 -10 32 -18 44 -18 11 0 27 -10 36 -22 8 -13 30
-28 48 -34 26 -9 32 -16 34 -41 0 -17 6 -41 13 -53 10 -18 8 -25 -16 -48 -41
-41 -51 -61 -69 -136 -10 -38 -28 -84 -41 -104 -28 -41 -65 -154 -75 -232 -4
-30 -14 -111 -23 -180 -9 -69 -23 -146 -32 -173 -9 -26 -13 -55 -10 -63 3 -9
0 -25 -6 -37 -8 -14 -13 -73 -14 -157 -2 -191 -12 -489 -25 -735 -10 -210 -7
-887 7 -1145 4 -74 6 -230 5 -347 -2 -147 1 -218 9 -234 9 -15 9 -28 2 -43
-14 -28 -22 -250 -28 -746 -2 -228 -4 -425 -4 -437 0 -21 -3 -22 -49 -16 -27
3 -92 0 -143 -6 -51 -6 -111 -12 -133 -12 -22 0 -65 -5 -95 -10 -30 -5 -89
-11 -130 -15 -41 -3 -77 -8 -79 -10 -2 -2 -11 1 -20 5 -26 14 -88 -16 -100
-49 -11 -32 -23 -35 -146 -44 -38 -3 -113 -9 -165 -15 -155 -17 -258 -22 -375
-20 -155 2 -147 3 -285 -11 -69 -6 -201 -12 -295 -14 -178 -2 -209 -8 -255
-50 -14 -13 -36 -26 -50 -29 -14 -3 -43 -11 -65 -18 -22 -7 -76 -13 -120 -13
-44 -1 -98 -7 -120 -13 -22 -6 -87 -16 -145 -22 -58 -7 -149 -17 -203 -23 -54
-5 -100 -8 -103 -6 -2 3 -6 162 -9 355 l-5 350 41 26 41 27 24 -25 c28 -30 44
-28 114 15 25 15 59 33 77 39 30 12 43 34 43 77 0 11 11 31 25 44 14 13 25 27
25 31 0 5 15 24 34 42 19 19 41 48 50 65 9 17 26 37 38 43 18 10 24 8 40 -10
9 -13 20 -39 24 -59 6 -30 3 -38 -16 -51 -44 -31 -120 -104 -120 -116 0 -7 10
-15 21 -18 16 -4 33 6 66 39 25 24 53 44 63 44 17 0 53 36 63 63 2 7 8 9 12 5
13 -13 -12 -57 -44 -76 -42 -25 -200 -172 -206 -191 -9 -29 -86 -66 -140 -66
-58 0 -125 -35 -125 -65 0 -30 18 -33 69 -11 32 14 59 18 83 15 32 -6 42 0
117 60 59 47 86 64 95 57 17 -14 91 35 147 98 26 28 51 51 57 51 14 0 4 -57
-15 -85 -7 -11 -13 -29 -13 -40 0 -12 -11 -32 -25 -45 -29 -27 -32 -55 -8 -65
38 -14 143 144 143 217 0 18 13 57 29 86 16 29 32 66 36 82 4 16 11 32 16 35
20 13 69 -30 89 -77 11 -26 24 -48 28 -49 4 -1 29 -3 57 -5 27 -3 73 -16 101
-29 29 -14 58 -25 63 -25 6 0 16 -9 23 -20 7 -11 22 -20 34 -20 27 0 74 46 74
72 0 11 8 40 18 66 37 93 44 118 52 190 4 43 14 80 24 91 18 20 21 57 5 67 -7
4 -9 23 -5 52 5 34 2 50 -10 63 -22 25 -11 67 18 71 28 4 35 30 14 51 -18 17
-122 21 -143 4 -28 -21 -41 13 -49 133 -3 41 -9 81 -14 90 -5 9 -7 56 -5 106
l4 90 -35 28 c-20 15 -55 31 -82 35 -26 5 -59 15 -73 22 -19 11 -49 13 -125 8
-102 -6 -144 -20 -144 -50 0 -9 -7 -22 -15 -29 -10 -8 -15 -32 -16 -69 -1
-106 -14 -202 -29 -211 -24 -15 -36 6 -23 40 28 74 -35 181 -114 195 -26 4
-43 2 -48 -4 -3 -6 -14 -11 -23 -11 -10 0 -29 -11 -42 -25 -14 -14 -33 -33
-43 -43 -11 -9 -30 -41 -43 -71 -13 -29 -37 -68 -53 -86 -16 -18 -34 -56 -41
-84 -14 -58 -36 -84 -25 -30 4 19 12 49 18 66 14 43 -1 61 -40 47 -18 -6 -29
-19 -35 -42 -8 -29 -13 -33 -32 -28 -47 12 -80 -55 -79 -159 0 -16 -8 -39 -18
-51 -16 -17 -18 -31 -14 -80 7 -78 30 -110 78 -106 34 3 36 0 46 -35 13 -47
14 -223 2 -223 -19 0 -41 32 -43 63 -1 18 -3 61 -3 96 0 48 -4 66 -17 74 -13
9 -21 7 -36 -6 -10 -9 -21 -17 -24 -17 -2 0 -4 22 -4 49 1 59 -6 68 -40 52
-15 -6 -29 -9 -33 -6 -11 11 7 2033 19 2114 4 30 8 718 10 1530 1 812 3 1582
3 1711 1 129 0 465 -2 745 -5 505 0 750 20 1040 6 94 7 255 2 430 -10 354 -6
957 7 991 l10 26 98 -6 c53 -4 129 -2 167 2 39 5 106 7 150 5 44 -2 181 -3
305 -2z m2824 -3756 c41 -3 85 -14 110 -28 22 -12 46 -22 53 -22 13 0 53 -34
53 -45 0 -13 -34 -5 -61 12 -67 46 -269 86 -301 61 -7 -6 -28 -14 -46 -18 -25
-5 -33 -3 -38 10 -4 9 -3 19 0 23 9 8 103 19 136 16 14 -2 56 -6 94 -9z m3696
-29 c0 -8 -9 -16 -20 -19 -11 -3 -20 -1 -20 4 0 5 5 9 10 9 6 0 10 7 10 16 0
8 5 12 10 9 6 -3 10 -12 10 -19z m-3860 -76 c34 -1 -15 -20 -51 -20 -20 0 -49
-4 -65 -9 -65 -21 -84 -22 -78 -6 4 9 19 15 39 15 18 0 48 7 66 15 19 8 43 13
54 10 11 -3 27 -5 35 -5z m145 -4 c119 -20 155 -31 161 -49 8 -25 -5 -36 -17
-14 -7 11 -17 16 -28 12 -9 -3 -43 4 -75 15 -31 10 -76 20 -99 21 -23 1 -46 5
-51 7 -14 8 25 21 49 17 11 -2 38 -6 60 -9z m3719 -21 c-4 -8 -8 -15 -10 -15
-2 0 -4 7 -4 15 0 8 4 15 10 15 5 0 7 -7 4 -15z m-4074 -24 c0 -12 -20 -25
-27 -18 -7 7 6 27 18 27 5 0 9 -4 9 -9z m235 -57 c14 4 51 0 83 -7 31 -8 68
-15 82 -15 50 -2 105 -28 108 -50 5 -29 -23 -29 -85 2 -58 29 -135 47 -203 49
-28 1 -50 7 -50 13 0 18 13 24 26 13 8 -6 25 -8 39 -5z m639 -46 c11 -1 21 -9
24 -17 6 -19 -57 -5 -82 19 -27 26 -10 47 18 22 11 -11 30 -22 40 -24z m-232
15 c21 -18 23 -33 6 -33 -14 0 -48 30 -48 42 0 13 22 9 42 -9z m-462 -7 c54
-5 143 -25 154 -36 18 -18 1 -19 -46 -5 -47 14 -125 18 -207 11 -52 -5 -109
-29 -173 -73 -56 -39 -58 -39 -58 -14 0 11 9 23 20 26 11 4 40 21 64 40 25 19
62 36 87 40 24 4 53 11 64 16 11 4 29 6 40 3 11 -3 36 -7 55 -8z m3880 -30 c0
-8 -4 -18 -10 -21 -5 -3 -10 3 -10 14 0 12 5 21 10 21 6 0 10 -6 10 -14z
m-3328 -41 c17 -19 34 -32 38 -30 4 3 15 -4 25 -15 17 -19 17 -20 -1 -20 -10
0 -30 9 -44 20 -14 11 -30 20 -37 20 -13 0 -33 31 -33 49 0 21 22 11 52 -24z
m-522 -31 c19 -8 49 -22 65 -31 162 -87 269 -127 310 -117 13 3 37 -2 54 -11
17 -9 36 -13 41 -10 15 9 23 -15 10 -30 -11 -13 -15 -13 -33 0 -12 9 -44 15
-73 15 -28 0 -69 7 -90 15 -69 28 -148 68 -169 86 -49 42 -118 64 -202 64 -72
0 -84 -3 -102 -22 -26 -28 -53 -21 -42 10 6 15 25 27 62 39 58 19 111 16 169
-8z m690 11 c7 -8 24 -15 37 -15 27 0 27 -17 1 -33 -21 -14 -78 10 -78 33 0
31 20 39 40 15z m-495 -15 c81 -18 149 -42 166 -56 9 -8 19 -11 22 -7 4 3 7 1
7 -6 0 -18 -30 -26 -52 -12 -10 6 -22 9 -27 7 -8 -5 -121 32 -159 53 -12 6
-29 11 -39 11 -10 0 -27 7 -38 16 -19 14 -17 15 25 10 25 -2 68 -10 95 -16z
m-464 -79 c-11 -15 -27 -34 -36 -41 -8 -7 -15 -21 -15 -31 0 -12 -7 -19 -20
-19 -30 0 -26 38 6 50 19 8 24 15 19 30 -9 28 0 37 35 38 l30 1 -19 -28z m261
-21 c13 -6 32 -16 43 -23 138 -83 202 -108 290 -110 28 -1 55 -5 60 -8 9 -6
85 2 168 17 41 7 54 -12 15 -21 -161 -38 -391 -20 -461 36 -14 10 -28 19 -31
19 -3 0 -20 13 -37 30 -33 31 -41 34 -101 45 -21 3 -38 10 -38 15 0 13 63 13
92 0z m-74 -40 c6 0 12 -7 12 -15 0 -17 -65 -22 -75 -5 -10 17 6 32 29 26 11
-3 27 -6 34 -6z m1044 -39 c-2 -18 6 -52 17 -77 25 -52 25 -54 6 -54 -9 0 -20
11 -25 24 -12 32 -57 63 -113 78 -25 6 -44 15 -41 19 2 4 28 13 56 19 29 7 60
16 68 21 25 14 35 4 32 -30z m2898 9 c0 -5 -4 -10 -9 -10 -6 0 -13 5 -16 10
-3 6 1 10 9 10 9 0 16 -4 16 -10z m-4070 -9 c0 -12 -20 -25 -27 -18 -7 7 6 27
18 27 5 0 9 -4 9 -9z m870 -16 c0 -8 -9 -15 -20 -15 -20 0 -26 11 -13 23 12
13 33 7 33 -8z m120 -14 c0 -12 -20 -25 -27 -18 -7 7 6 27 18 27 5 0 9 -4 9
-9z m-808 -12 c76 -15 85 -18 70 -28 -18 -11 -145 12 -150 27 -5 15 11 15 80
1z m890 -33 c13 -29 5 -56 -17 -56 -19 0 -40 43 -32 64 9 24 36 19 49 -8z
m-92 -37 c0 -33 -23 -48 -49 -32 -26 16 -20 56 9 63 34 9 40 4 40 -31z m-190
25 c0 -9 -23 -30 -47 -42 -12 -7 -23 -22 -25 -34 -2 -16 -12 -24 -36 -29 -18
-4 -35 -3 -37 2 -3 4 -27 -1 -53 -12 -26 -11 -60 -21 -77 -21 -76 0 -186 -41
-262 -96 -40 -30 -67 -26 -71 10 -2 19 3 31 17 40 28 17 27 40 -1 34 -63 -14
-73 -12 -76 17 -2 16 1 27 9 27 7 0 21 8 31 17 22 20 153 30 174 12 18 -14
140 -5 187 15 21 8 58 15 82 14 25 0 52 6 61 13 9 8 38 19 63 25 59 15 61 15
61 8z m-787 -34 c15 -7 27 -17 27 -21 0 -12 -59 -4 -72 9 -10 10 -2 35 10 29
4 -2 19 -9 35 -17z m834 -37 c-3 -3 -11 -2 -17 2 -8 5 -7 11 2 22 12 15 13 14
16 -1 2 -10 1 -20 -1 -23z m163 -38 c0 -16 -27 -32 -37 -21 -7 7 16 36 28 36
5 0 9 -7 9 -15z m371 -15 c20 -6 48 -19 62 -30 14 -11 32 -17 40 -14 19 7 72
-39 92 -79 19 -38 12 -46 -18 -21 -96 85 -221 125 -291 93 -30 -14 -56 1 -56
33 0 36 71 44 171 18z m-549 -86 c5 -3 15 -1 23 6 16 13 105 3 105 -11 0 -14
-15 -17 -112 -23 -81 -6 -88 -5 -88 12 0 10 3 21 6 25 6 6 52 0 66 -9z m-170
-21 c9 -8 21 -12 26 -9 6 3 17 -6 27 -20 24 -36 7 -49 -38 -30 -20 8 -45 12
-56 9 -14 -4 -23 1 -28 13 -3 11 -11 22 -17 26 -35 24 -134 -9 -236 -78 -36
-24 -67 -39 -68 -34 -5 14 17 40 33 40 7 0 24 9 38 20 28 22 117 68 156 81 37
12 143 0 163 -18z m767 6 c26 -25 44 -67 36 -87 -4 -11 -12 -9 -39 12 -19 14
-39 26 -45 26 -15 0 -32 36 -25 54 9 22 46 20 73 -5z m-318 -94 c49 -49 75
-81 94 -117 11 -21 22 -38 26 -38 4 0 12 -20 18 -45 6 -25 15 -45 20 -45 5 0
11 -19 14 -42 2 -24 9 -56 15 -73 24 -67 34 -211 33 -480 0 -360 0 -339 -7
-332 -3 3 -7 98 -9 210 -1 113 -6 211 -11 218 -4 8 -7 28 -5 45 5 66 -31 348
-50 388 -10 22 -19 50 -19 61 0 46 -62 140 -142 216 -44 42 -78 82 -74 87 8
13 62 -16 97 -53z m-341 40 c0 -8 -4 -15 -10 -15 -5 0 -10 7 -10 15 0 8 5 15
10 15 6 0 10 -7 10 -15z m889 -84 c63 -123 102 -287 102 -423 0 -18 7 -60 14
-93 9 -37 16 -145 19 -285 5 -209 9 -272 23 -310 3 -8 7 -91 10 -185 2 -93 5
-176 8 -182 2 -7 15 -12 27 -10 20 2 23 -3 23 -32 0 -31 -3 -34 -32 -36 l-32
-3 -5 62 c-8 90 -35 467 -41 576 -3 52 -8 122 -10 155 -9 114 -15 190 -21 245
-3 30 -8 100 -13 155 -5 70 -13 108 -25 128 -10 15 -16 27 -13 27 11 0 -26
106 -56 160 -23 42 -29 62 -23 83 3 15 8 27 11 27 3 0 18 -26 34 -59z m-1046
-39 c4 -15 11 -52 17 -82 7 -30 16 -71 22 -90 7 -25 6 -43 -3 -65 -12 -29 -13
-26 -21 55 -6 53 -19 106 -34 139 -25 56 -25 102 1 81 7 -6 15 -23 18 -38z
m874 -1 c7 -11 17 -68 23 -128 12 -129 40 -481 49 -612 6 -99 -9 -374 -21
-387 -5 -4 -8 37 -9 92 -1 111 -6 242 -14 384 -4 52 -6 102 -6 110 0 8 -5 54
-10 102 -5 47 -14 146 -19 220 -6 73 -13 157 -16 186 -7 54 2 66 23 33z
m-1176 -97 c-1 -16 -10 -42 -18 -58 -18 -34 -33 -303 -21 -376 8 -55 -2 -207
-13 -188 -4 7 -12 9 -16 4 -4 -4 -1 -13 8 -19 9 -7 19 -25 24 -42 9 -37 6
-163 -4 -185 -5 -8 -7 -105 -5 -215 1 -117 -1 -205 -7 -211 -8 -10 -18 -127
-18 -209 1 -224 -1 -343 -6 -555 -4 -140 -8 -319 -8 -397 -1 -79 -5 -143 -9
-143 -5 0 -8 -19 -7 -42 1 -38 2 -40 10 -18 5 15 6 -24 3 -100 -3 -69 -6 -354
-6 -635 0 -280 -4 -515 -9 -521 -5 -6 -5 -33 -1 -60 5 -27 4 -65 0 -84 -5 -19
-8 -89 -7 -155 0 -66 1 -131 0 -145 0 -14 -1 -61 -1 -105 0 -44 -6 -156 -13
-250 -9 -113 -10 -180 -4 -199 6 -16 7 -63 3 -110 -7 -70 -13 -409 -14 -689
-1 -48 -6 -112 -12 -143 -7 -30 -13 -108 -14 -172 -5 -183 -5 -182 -21 -182
-10 0 -15 -10 -15 -34 0 -19 -5 -38 -11 -42 -8 -5 -10 12 -6 62 4 38 9 130 13
204 4 74 12 149 18 165 9 20 10 43 3 70 -4 22 -6 66 -2 99 3 32 8 228 11 435
2 207 9 435 16 506 14 158 14 163 22 550 8 380 16 718 22 930 9 303 9 855 0
858 -5 2 -4 18 2 37 8 25 10 217 7 675 -2 352 -1 687 3 745 5 62 4 121 -1 144
-7 28 -6 53 3 90 10 35 14 131 16 311 2 271 9 331 50 402 23 39 40 38 35 -3z
m276 -86 c-3 -8 -6 -5 -6 6 -1 11 2 17 5 13 3 -3 4 -12 1 -19z m1101 -98 c-2
-51 -18 -41 -18 11 0 24 4 38 10 34 5 -3 9 -24 8 -45z m-1089 -60 c-1 -55 -5
-102 -9 -105 -15 -9 -27 155 -14 189 16 40 24 8 23 -84z m81 30 c0 -5 -2 -10
-4 -10 -3 0 -8 5 -11 10 -3 6 -1 10 4 10 6 0 11 -4 11 -10z m1025 -141 c8 -57
19 -133 25 -169 13 -84 13 -190 0 -190 -10 0 -15 34 -11 83 1 16 -4 72 -13
125 -17 110 -30 269 -21 260 3 -3 13 -52 20 -109z m-1053 -47 c-7 -2 -12 -13
-12 -23 0 -11 5 -17 10 -14 14 9 13 -11 -2 -36 -11 -18 -10 -23 0 -26 10 -4
10 -8 1 -19 -8 -10 -8 -18 -1 -27 10 -11 7 -236 -4 -246 -13 -13 -16 28 -15
228 1 231 8 290 25 212 7 -33 6 -46 -2 -49z m-53 -165 c1 -130 -1 -197 -8
-202 -8 -4 -11 21 -12 77 0 46 -1 97 -1 113 -2 110 3 215 10 211 4 -2 9 -92
11 -199z m908 -205 c1 -15 2 -202 3 -417 1 -214 4 -384 7 -377 11 27 23 10 23
-33 0 -44 -14 -61 -23 -27 -4 14 -5 13 -6 -3 0 -12 4 -26 11 -33 9 -9 12 -142
14 -525 1 -283 6 -522 10 -533 8 -16 6 -120 -6 -394 -1 -30 2 -109 8 -175 19
-207 26 -481 13 -490 -9 -5 -11 -53 -10 -166 2 -143 8 -184 22 -146 9 25 19
-3 13 -37 -5 -25 -11 -34 -21 -29 -17 6 -18 -11 -5 -42 8 -18 9 -18 9 5 1 19
3 22 10 11 13 -21 12 -152 -1 -168 -8 -10 -8 -17 0 -25 15 -15 15 -61 1 -75
-9 -9 -8 -18 4 -36 8 -13 12 -29 8 -36 -5 -7 -4 -31 0 -54 12 -60 11 -235 -1
-242 -6 -4 -10 18 -10 59 0 43 -4 66 -12 66 -14 0 -3 -219 12 -234 14 -14 13
-46 -1 -46 -8 0 -8 -5 1 -15 7 -8 10 -21 7 -29 -3 -8 0 -20 8 -26 10 -8 12
-30 8 -86 -6 -72 0 -87 24 -63 7 7 12 6 16 -5 4 -11 -1 -18 -16 -21 -22 -6
-23 -8 -20 -153 8 -451 11 -525 24 -533 14 -8 18 -61 20 -269 0 -99 16 -287
24 -301 4 -5 8 -64 10 -132 6 -171 6 -178 -5 -196 -7 -12 -9 -4 -10 28 0 68
-21 175 -35 184 -10 5 -11 14 -2 36 8 22 8 36 0 53 -14 28 -24 216 -11 224 4
3 6 9 3 14 -3 5 -7 69 -10 142 -4 128 -18 224 -36 260 -4 9 -4 42 1 75 12 78
4 494 -10 563 -7 30 -12 71 -13 90 0 19 -4 96 -9 170 -5 74 -9 164 -8 200 0
36 0 156 0 268 0 140 4 202 11 202 8 0 8 4 1 13 -9 11 -24 177 -24 272 0 22 0
108 0 190 0 83 -1 195 -3 250 -1 55 -6 260 -10 455 -4 195 -11 375 -15 400 -5
24 -6 49 -2 55 10 16 1 159 -10 173 -8 9 -8 19 1 35 10 18 10 86 4 293 -7 230
-6 271 6 284 13 13 13 15 0 18 -12 2 -16 24 -17 109 -2 59 -5 110 -8 115 -3 4
-1 24 5 43 6 21 6 37 0 41 -12 7 -11 51 2 76 7 13 10 74 8 167 -1 80 -2 175
-1 211 0 36 1 132 2 214 0 82 4 145 8 141 4 -3 8 -19 9 -33z m253 -220 c11
-200 10 -246 -4 -231 -7 7 -17 156 -22 329 -7 231 11 163 26 -98z m-1160 113
c0 -8 -4 -17 -10 -20 -6 -4 -10 5 -10 20 0 15 4 24 10 20 6 -3 10 -12 10 -20z
m44 -60 c7 -27 1 -45 -15 -45 -5 0 -9 16 -9 35 0 41 15 47 24 10z m823 -7 c-3
-7 -5 -2 -5 12 0 14 2 19 5 13 2 -7 2 -19 0 -25z m-807 -88 c0 -11 -2 -20 -4
-20 -2 0 -6 9 -9 20 -3 11 -1 20 4 20 5 0 9 -9 9 -20z m-80 -16 c0 -8 -4 -12
-10 -9 -5 3 -10 10 -10 16 0 5 5 9 10 9 6 0 10 -7 10 -16z m60 -40 c0 -8 -4
-12 -10 -9 -5 3 -10 10 -10 16 0 5 5 9 10 9 6 0 10 -7 10 -16z m897 -6 c-3 -8
-6 -5 -6 6 -1 11 2 17 5 13 3 -3 4 -12 1 -19z m0 -70 c-3 -8 -6 -5 -6 6 -1 11
2 17 5 13 3 -3 4 -12 1 -19z m13 -52 c0 -38 -14 -55 -24 -30 -7 19 3 64 15 64
5 0 9 -15 9 -34z m229 -57 c13 -39 13 -39 2 -39 -5 0 -14 14 -20 31 -13 39
-13 39 -2 39 5 0 14 -14 20 -31z m101 5 c0 -14 -21 -19 -33 -7 -9 9 13 34 24
27 5 -3 9 -12 9 -20z m-338 -100 l-7 -49 -5 45 c-3 25 -3 56 -1 69 8 48 19
-11 13 -65z m318 -103 c0 -9 -5 -22 -11 -28 -15 -15 -3 -33 23 -33 18 0 20 -4
15 -36 -7 -40 -17 -56 -24 -36 -3 6 -8 12 -11 12 -9 0 -7 -90 3 -114 5 -10 9
-38 9 -62 1 -24 5 -43 11 -41 13 5 35 -18 35 -36 0 -8 -9 -22 -20 -32 -13 -11
-19 -29 -18 -49 1 -17 -2 -38 -6 -46 -4 -10 1 -24 13 -37 17 -18 19 -27 11
-50 -5 -15 -9 -41 -7 -58 2 -24 -2 -31 -20 -33 -28 -4 -35 19 -33 111 0 39 -1
117 -3 172 -7 168 -8 415 -1 426 8 14 34 -9 34 -30z m-550 -53 c0 -23 -3 -29
-11 -21 -6 6 -8 20 -4 32 9 30 15 26 15 -11z m8 -235 c0 -103 -4 -161 -10
-155 -10 10 -20 321 -11 336 15 23 21 -33 21 -181z m577 -3 c3 -5 1 -10 -4
-10 -6 0 -11 5 -11 10 0 6 2 10 4 10 3 0 8 -4 11 -10z m-1280 -39 c3 -5 1 -12
-5 -16 -5 -3 -10 1 -10 9 0 18 6 21 15 7z m15 -119 c0 -26 -5 -54 -10 -62 -7
-10 -10 5 -10 53 0 43 4 66 10 62 6 -3 10 -27 10 -53z m694 -208 c2 -87 1
-171 -2 -187 -4 -25 -6 -26 -17 -10 -9 12 -10 23 -4 35 6 11 7 72 3 148 -6
116 -1 190 11 178 3 -3 7 -76 9 -164z m-684 43 c0 -29 -4 -68 -10 -86 -5 -19
-6 -39 -1 -45 9 -11 8 -80 -4 -226 -3 -47 -6 -120 -7 -162 0 -43 -4 -81 -9
-84 -6 -4 -6 -10 0 -18 6 -7 13 -106 16 -227 3 -117 8 -222 11 -233 4 -10 2
-21 -4 -25 -6 -4 -8 -20 -4 -40 4 -18 5 -67 1 -108 -3 -41 -4 -177 -2 -301 7
-372 7 -478 1 -488 -9 -14 -8 -203 1 -208 4 -3 5 -74 2 -158 -2 -84 -4 -173
-4 -198 7 -380 7 -739 1 -795 -18 -155 -21 -267 -7 -275 19 -12 20 -763 1
-755 -11 4 -12 -7 -6 -53 4 -31 11 -60 16 -63 5 -3 4 -18 -2 -35 -11 -27 -12
-28 -22 -10 -17 30 -24 160 -16 291 4 66 5 224 2 350 -5 207 -6 383 -6 865 0
85 -1 267 -2 405 -1 175 3 256 11 272 10 19 9 23 -3 23 -15 0 -17 23 -14 189
1 58 6 88 16 98 17 18 19 63 2 63 -9 0 -14 25 -15 85 -2 51 1 85 7 85 6 0 10
7 10 16 0 8 -4 12 -10 9 -6 -4 -10 7 -10 27 0 25 3 29 10 18 9 -13 10 -13 11
0 3 39 -4 96 -12 104 -12 13 -12 29 1 21 6 -3 10 3 10 14 0 12 -4 21 -10 21
-15 0 -12 27 4 33 17 7 16 169 -2 175 -15 5 -16 78 -2 87 7 4 7 12 0 25 -6 12
-6 21 -1 25 5 3 9 19 9 35 -1 16 -5 27 -10 24 -4 -3 -8 9 -9 25 -1 17 -2 50
-3 73 0 23 4 46 10 52 14 15 28 100 14 91 -5 -3 -16 6 -22 21 -10 22 -10 28 0
32 6 2 12 13 12 23 0 13 -4 17 -11 13 -9 -5 -10 9 -4 52 4 32 10 65 14 71 4 7
1 61 -5 120 -10 86 -10 122 0 178 7 40 14 165 15 294 1 215 7 261 32 245 5 -3
9 -29 9 -57z m1320 -16 c0 -12 -28 -22 -34 -12 -3 5 -3 11 1 15 9 9 33 7 33
-3z m-62 -93 c4 -23 -43 -47 -59 -31 -6 6 -8 21 -4 33 8 26 58 25 63 -2z m9
-59 c13 0 27 -8 33 -18 13 -26 13 -39 -2 -38 -7 0 -26 -1 -41 -1 -34 -2 -32
-24 4 -32 40 -10 35 -36 -11 -54 -23 -9 -46 -14 -52 -10 -9 6 -2 138 9 157 3
5 12 5 22 1 9 -4 26 -6 38 -5z m-579 -236 c-1 -116 -2 -121 -8 -58 -11 107
-11 185 0 185 6 0 9 -48 8 -127z m535 21 c-4 -81 -13 -167 -17 -171 -3 -3 -9
-2 -15 2 -14 8 -14 102 -1 110 6 4 8 21 4 40 -3 19 -3 39 1 45 12 20 30 4 28
-26z m77 10 c0 -8 -5 -12 -10 -9 -6 4 -8 11 -5 16 9 14 15 11 15 -7z m13 -50
c-3 -8 -9 -14 -13 -14 -13 0 -22 19 -15 30 9 14 34 0 28 -16z m-43 -64 c0 -11
-7 -20 -15 -20 -17 0 -18 2 -9 24 9 23 24 20 24 -4z m58 8 c18 -18 15 -51 -4
-44 -9 3 -20 6 -25 6 -10 0 -12 33 -2 43 9 10 17 9 31 -5z m-630 -153 c1 -41
-3 -75 -8 -75 -16 0 -28 101 -16 138 13 40 23 14 24 -63z m632 36 c0 -48 13
-75 23 -49 3 7 3 -30 1 -82 -5 -100 -11 -113 -56 -124 -26 -6 -28 -4 -28 28 0
30 3 34 23 29 21 -5 21 -4 -5 21 -33 31 -36 56 -9 56 29 0 35 17 11 32 -26 16
-25 26 3 48 26 22 18 33 -23 32 -38 -1 -45 11 -20 33 15 14 20 15 20 4 0 -10
4 -9 17 4 31 30 43 21 43 -32z m-70 -80 c14 -28 13 -31 -15 -31 -18 0 -25 5
-25 18 0 35 24 43 40 13z m-30 -76 c0 -26 -14 -33 -25 -15 -9 14 1 40 15 40 5
0 10 -11 10 -25z m-490 -100 c0 -8 -4 -15 -10 -15 -5 0 -10 7 -10 15 0 8 5 15
10 15 6 0 10 -7 10 -15z m610 -40 c17 -21 5 -45 -24 -45 -40 0 -56 11 -56 36
0 21 5 24 34 24 18 0 39 -7 46 -15z m-4204 -41 c1 -16 7 -44 13 -63 7 -22 8
-87 4 -186 l-6 -153 27 -17 c19 -13 25 -23 20 -37 -11 -36 11 -46 97 -43 59 2
89 9 116 25 33 19 37 20 52 5 13 -13 16 -41 15 -168 -1 -160 -11 -249 -40
-332 -24 -72 -36 -79 -34 -20 3 71 2 75 -20 75 -30 0 -53 -43 -46 -85 8 -39
-6 -46 -40 -20 -10 8 -45 17 -76 21 -60 7 -70 14 -97 66 -9 17 -25 36 -36 42
-11 6 -22 12 -25 14 -2 2 -3 31 -2 66 3 50 -1 67 -17 87 -22 27 -38 21 -22 -9
14 -27 14 -85 0 -99 -8 -8 -22 -6 -52 5 -23 9 -43 16 -44 16 -1 1 3 24 8 51
13 64 20 175 13 198 -3 9 -18 24 -34 32 -27 14 -28 17 -19 50 6 19 7 40 4 45
-3 5 1 33 9 62 18 64 34 173 42 290 8 104 17 116 94 120 76 4 95 -3 96 -38z
m3534 36 c0 -5 -4 -10 -10 -10 -5 0 -10 5 -10 10 0 6 5 10 10 10 6 0 10 -4 10
-10z m540 -14 c0 -17 -14 -29 -23 -20 -8 8 3 34 14 34 5 0 9 -6 9 -14z m118
-73 c3 -21 -1 -23 -42 -23 -50 0 -51 1 -35 31 15 29 73 23 77 -8z m-113 -24
c0 -7 -8 -15 -17 -17 -18 -3 -25 18 -11 32 10 10 28 1 28 -15z m-1288 -31 c-3
-8 -6 -5 -6 6 -1 11 2 17 5 13 3 -3 4 -12 1 -19z m-3259 -6 c2 -6 -8 -17 -22
-23 -25 -12 -33 -28 -58 -108 -7 -25 -19 -47 -27 -49 -27 -9 6 78 66 176 14
24 34 25 41 4z m98 -47 c4 -8 3 -27 0 -41 l-7 -27 -16 22 c-11 16 -18 20 -26
12 -15 -15 -27 -14 -27 3 0 15 38 45 58 45 7 1 15 -6 18 -14z m4560 -5 c6 -8
14 -32 18 -52 5 -30 4 -38 -8 -38 -8 0 -16 10 -18 23 -2 14 -11 23 -25 25 -18
3 -23 10 -23 33 0 24 4 28 23 26 12 -1 27 -9 33 -17z m-626 -40 c0 -5 -4 -10
-10 -10 -5 0 -10 5 -10 10 0 6 5 10 10 10 6 0 10 -4 10 -10z m548 -12 c-2 -13
-11 -24 -21 -26 -22 -4 -35 27 -16 39 25 16 41 10 37 -13z m-4503 -81 c0 -65
-14 -105 -33 -93 -14 9 -5 90 15 129 7 15 15 27 16 27 1 0 2 -28 2 -63z m4561
13 c8 0 14 -6 14 -14 0 -8 6 -17 13 -20 8 -3 6 -9 -8 -21 -31 -25 -49 -14 -57
35 -10 56 0 88 14 48 5 -16 16 -28 24 -28z m-588 -41 c-1 -51 -13 -85 -22 -59
-2 8 -3 30 -2 48 1 17 3 44 4 60 4 47 22 3 20 -49z m592 -52 c0 -7 14 -18 30
-24 46 -17 37 -33 -20 -33 -54 0 -56 2 -37 43 13 28 27 36 27 14z m-4839 -86
c-12 -22 -21 -48 -21 -58 0 -10 -9 -45 -20 -78 l-20 -60 6 63 c5 59 32 140 56
169 20 25 20 5 -1 -36z m4238 -51 c-1 -49 -6 -90 -11 -90 -9 0 -11 164 -1 173
13 13 14 6 12 -83z m-4016 61 c-5 -20 -113 -154 -119 -148 -6 6 17 80 37 119
17 33 30 41 76 47 6 0 9 -7 6 -18z m4615 -46 c-7 -34 16 -53 43 -37 17 11 19
9 19 -23 0 -34 -1 -34 -32 -28 -51 9 -65 20 -70 53 -4 26 -2 29 15 24 13 -4
17 -2 13 5 -4 6 -4 16 -1 21 11 18 17 11 13 -15z m-4609 -108 c-57 -110 -100
-176 -121 -183 -9 -2 -33 -16 -52 -29 -34 -23 -36 -23 -36 -5 0 10 8 25 18 32
21 16 72 90 72 104 0 6 9 19 21 30 12 10 28 32 37 49 18 35 95 107 100 94 2
-5 -15 -47 -39 -92z m3237 27 c-4 -9 -9 -15 -11 -12 -3 3 -3 13 1 22 4 9 9 15
11 12 3 -3 3 -13 -1 -22z m805 -206 c-1 -21 -7 -35 -12 -32 -5 3 -9 -4 -9 -15
0 -10 -3 -26 -6 -35 -3 -9 -1 -16 5 -16 6 0 12 10 13 23 0 12 4 -25 8 -83 8
-111 4 -162 -11 -138 -7 10 -9 10 -9 -3 0 -8 5 -20 11 -26 6 -6 10 -30 9 -54
0 -24 -1 -109 -1 -189 -1 -98 -5 -147 -12 -152 -9 -6 -9 -12 1 -28 15 -24 16
-44 2 -35 -5 3 -10 1 -10 -4 0 -6 -4 -11 -10 -11 -13 0 -13 67 0 75 6 4 8 10
5 15 -15 24 -27 730 -13 730 4 0 8 -10 9 -22 2 -52 17 28 20 107 l2 80 6 -75
c3 -41 4 -92 2 -112z m625 135 c-11 -11 -19 6 -11 24 8 17 8 17 12 0 3 -10 2
-21 -1 -24z m-658 -33 c0 -33 -4 -57 -9 -54 -5 3 -9 30 -9 60 0 30 4 54 9 54
5 0 9 -27 9 -60z m-3969 -17 c-20 -62 -53 -118 -72 -121 -29 -6 -20 40 16 84
18 21 39 53 46 69 18 40 26 15 10 -32z m4636 -24 c4 -17 5 -32 3 -34 -2 -2
-23 1 -46 7 -54 13 -59 45 -9 51 17 2 35 5 39 5 3 1 9 -12 13 -29z m18 -186
c19 -134 22 -229 7 -238 -6 -4 -18 -4 -27 -1 -12 5 -14 9 -5 18 32 32 -10 68
-59 53 -28 -9 -41 2 -29 26 7 11 26 21 51 25 49 8 58 21 23 34 -25 10 -26 11
-9 30 21 24 13 50 -22 72 -18 11 -22 18 -12 18 24 0 51 34 38 47 -13 13 -4 33
15 33 8 0 18 -40 29 -117z m-459 33 c-3 -9 -10 -16 -15 -16 -11 0 -12 21 -3
45 6 15 8 15 16 2 4 -8 5 -22 2 -31z m1026 -9 c19 -4 89 -11 155 -17 133 -10
288 -34 329 -50 15 -5 42 -10 61 -10 18 0 46 -7 61 -15 16 -8 41 -15 56 -15
15 0 30 -5 33 -10 3 -6 50 -31 103 -56 53 -25 115 -60 137 -78 22 -17 52 -40
68 -49 44 -28 34 -44 -45 -67 -157 -46 -205 -64 -245 -91 -23 -16 -44 -29 -48
-29 -3 0 -10 12 -16 28 -15 44 -107 99 -180 107 -73 9 -158 -19 -213 -69 -36
-32 -83 -140 -66 -151 10 -6 1 -116 -11 -129 -5 -6 -9 -18 -9 -27 0 -22 -63
-59 -99 -59 -15 0 -54 -9 -87 -20 -36 -13 -71 -19 -90 -15 -28 5 -32 2 -38
-21 -4 -14 -5 -29 -2 -31 14 -14 96 -14 127 0 38 18 86 30 176 48 53 10 66 17
93 50 26 33 37 39 70 39 33 0 40 3 40 20 0 11 5 20 10 20 6 0 10 -7 10 -15 0
-18 11 -19 61 -3 45 13 56 48 17 48 -13 0 -30 5 -38 10 -13 8 -11 14 13 35 30
29 32 36 15 53 -9 9 -6 17 12 37 28 29 57 32 99 8 26 -15 34 -16 52 -5 11 7
23 11 27 8 7 -8 -27 -44 -49 -51 -10 -3 -28 -22 -40 -41 -18 -30 -20 -40 -10
-60 13 -29 25 -25 46 17 9 16 22 29 29 29 7 0 43 29 80 65 54 53 81 71 135 90
38 14 78 25 90 25 12 0 34 6 49 14 15 8 59 21 97 30 39 10 80 21 93 27 12 5
56 11 97 15 60 4 83 2 118 -14 l44 -19 -1 -353 -1 -353 -138 -4 c-76 -1 -146
-7 -157 -13 -16 -9 -20 -21 -20 -69 0 -61 -7 -71 -49 -71 -40 0 -75 -86 -45
-111 12 -10 23 -10 44 -2 23 9 32 8 40 -3 17 -19 5 -31 -38 -38 -22 -3 -45
-13 -53 -22 -12 -14 -9 -20 19 -45 18 -16 43 -29 57 -29 15 0 25 -6 25 -15 0
-10 -12 -14 -46 -13 -55 1 -81 -21 -86 -72 -3 -31 0 -35 22 -35 16 0 29 8 36
24 17 34 39 44 65 31 18 -10 20 -17 14 -43 -13 -53 -14 -303 -2 -342 10 -33
13 -36 46 -33 35 3 36 4 39 48 2 25 -1 68 -8 95 -8 38 -8 77 2 165 l14 114 42
9 c62 12 57 37 -8 37 -37 0 -50 4 -50 14 0 21 8 24 93 32 67 6 77 5 83 -10 4
-11 -2 -29 -15 -46 -11 -16 -21 -32 -21 -36 0 -4 24 -4 53 -1 l52 5 -2 -311
c-2 -172 -3 -317 -3 -323 0 -10 -87 -21 -232 -29 -45 -2 -48 -1 -65 33 -28 56
-121 97 -255 115 -73 9 -111 10 -118 3 -7 -7 -14 -6 -22 2 -8 8 -52 12 -130
12 -118 0 -119 0 -128 26 -12 30 17 102 48 121 20 12 66 102 79 152 3 14 31
76 60 136 94 192 103 211 109 244 4 17 11 34 15 37 5 3 9 14 9 25 0 11 9 39
20 62 29 58 37 123 18 145 -8 9 -19 29 -25 43 -25 59 -155 92 -408 104 -66 4
-142 10 -170 15 -74 13 -251 12 -293 -1 -45 -14 -79 -28 -155 -62 -31 -15 -66
-27 -77 -27 -10 0 -35 -16 -55 -37 -30 -31 -35 -43 -35 -83 0 -32 6 -53 20
-68 11 -12 20 -25 20 -30 0 -14 61 -145 76 -162 14 -17 50 -83 130 -240 30
-58 66 -116 81 -128 21 -19 24 -26 12 -33 -8 -5 -17 -9 -21 -9 -20 0 -4 -35
32 -72 42 -44 49 -58 27 -58 -15 0 -57 -81 -57 -109 0 -10 9 -30 20 -44 20
-26 25 -53 14 -81 -4 -12 -21 -16 -58 -17 -79 -2 -100 -10 -106 -44 -6 -37
-26 -30 -22 6 3 23 -2 28 -35 35 -21 5 -45 9 -53 9 -30 1 -40 17 -40 59 0 23
-3 46 -7 49 -3 4 -8 44 -9 88 -2 45 -8 105 -14 133 -5 28 -12 69 -14 91 -2 22
-7 72 -10 110 -4 39 -13 124 -21 190 -14 119 -20 273 -17 431 l2 82 31 6 c18
3 38 1 45 -5 27 -22 154 21 154 52 0 24 -123 26 -178 3 -19 -8 -37 -12 -39
-10 -2 2 -5 71 -6 154 -1 109 1 154 10 163 18 18 23 9 30 -49 3 -29 12 -53 19
-56 21 -8 80 21 98 49 9 14 23 25 30 25 7 0 20 10 28 22 14 20 17 21 33 8 32
-27 94 -14 120 26 l17 26 -44 -7 c-23 -4 -52 -12 -62 -17 -27 -14 -58 22 -47
55 27 83 28 84 89 90 31 3 58 4 60 2 3 -2 6 -32 8 -67 5 -89 36 -209 56 -222
32 -20 51 14 50 86 -1 103 -12 201 -27 233 -7 17 -18 42 -25 56 -15 34 -95 60
-187 62 -78 1 -119 -17 -125 -54 -2 -14 -14 -25 -38 -33 -27 -8 -41 -22 -60
-58 -28 -53 -35 -57 -49 -29 -19 35 -32 396 -15 422 8 14 118 31 198 32 51 0
91 6 112 16 34 17 94 20 154 8z m-5710 -175 c0 -12 -8 -9 -29 12 -27 26 -44
76 -34 103 5 14 63 -91 63 -115z m4682 67 c-12 -31 -26 -7 -17 29 6 23 8 24
16 10 5 -9 5 -26 1 -39z m378 11 c0 -12 -28 -25 -36 -17 -9 9 6 27 22 27 8 0
14 -5 14 -10z m-5143 -146 c-10 -11 -47 17 -47 36 0 10 -3 27 -6 37 -4 10 8
-1 26 -25 18 -24 30 -45 27 -48z m143 -18 c0 -20 -25 -37 -44 -30 -16 6 -21
25 -9 37 12 13 53 7 53 -7z m5010 4 c0 -5 -5 -10 -11 -10 -5 0 -7 5 -4 10 3 6
8 10 11 10 2 0 4 -4 4 -10z m88 -67 l3 -31 -60 -1 c-48 0 -61 3 -61 14 0 10
11 15 35 15 24 0 39 6 47 20 17 27 32 20 36 -17z m-151 -8 c3 -9 3 -19 -1 -22
-8 -9 -37 18 -30 28 8 14 24 11 31 -6z m172 -137 c22 -170 33 -398 24 -535 -5
-82 -7 -92 -27 -98 -17 -6 -18 -8 -5 -12 22 -6 30 -51 35 -209 l4 -131 -28
-12 c-15 -8 -34 -17 -42 -21 -27 -13 -57 6 -57 36 0 23 1 24 9 10 9 -16 11
-16 28 -1 10 9 16 24 14 33 -3 11 6 22 28 33 38 18 49 40 17 34 -12 -3 -27 -9
-33 -15 -5 -5 -14 -10 -18 -10 -14 0 -9 38 7 54 23 22 19 56 -6 56 -11 0 -29
-5 -40 -10 -16 -9 -19 -7 -19 8 0 10 5 23 12 30 9 9 9 15 0 24 -21 21 -13 31
12 14 28 -18 56 -12 56 11 0 9 -6 13 -15 9 -12 -4 -15 3 -15 29 0 24 -5 35
-15 35 -24 0 -17 17 9 24 29 7 34 20 28 69 -4 37 -5 38 -36 32 l-31 -6 40 35
c40 35 40 40 -2 36 -31 -2 -29 13 7 53 27 31 38 57 25 57 -3 0 -22 -7 -41 -15
-33 -13 -35 -13 -30 1 3 9 6 24 6 33 0 11 7 17 21 17 12 -1 26 7 33 17 9 15 7
21 -6 31 -24 17 -23 33 2 46 11 6 18 15 15 21 -4 5 -11 7 -16 4 -5 -4 -9 0 -9
8 0 8 7 17 15 21 8 3 15 10 15 16 0 13 -58 4 -78 -13 -7 -5 -16 -7 -20 -3 -4
4 5 17 21 28 18 13 27 29 27 48 0 16 7 30 16 34 26 10 14 59 -19 74 -29 14
-28 32 2 32 9 0 26 6 36 14 11 8 23 12 26 10 4 -2 12 -41 18 -86z m-149 -98
c0 -5 -4 -10 -10 -10 -5 0 -10 5 -10 10 0 6 5 10 10 10 6 0 10 -4 10 -10z
m-58 -22 c-7 -7 -12 -8 -12 -2 0 14 12 26 19 19 2 -3 -1 -11 -7 -17z m-498
-169 c-9 -15 -24 10 -17 29 5 12 7 12 15 -2 5 -9 6 -21 2 -27z m-1517 -15 c9
-24 -11 -36 -63 -40 -25 -2 -74 -9 -108 -15 -77 -13 -184 -29 -216 -33 -14 -1
-34 -7 -45 -13 -27 -14 -70 -23 -205 -42 -189 -27 -237 -32 -270 -27 -19 3
-53 1 -75 -5 -93 -24 -205 -39 -275 -37 -41 1 -109 -4 -150 -11 -41 -7 -100
-17 -131 -22 -32 -5 -110 -9 -175 -8 -66 1 -180 -6 -254 -15 -74 -9 -169 -21
-210 -26 -42 -5 -116 -23 -165 -40 -50 -18 -121 -43 -160 -56 -38 -13 -99 -29
-135 -35 -36 -6 -69 -12 -75 -13 -5 -2 -32 -6 -60 -10 -105 -15 -211 -39 -237
-52 -15 -8 -41 -14 -59 -14 l-31 0 7 48 c9 60 9 60 53 68 20 4 46 11 57 17 18
9 137 35 190 41 11 2 27 5 35 9 8 3 22 5 30 4 8 -1 53 4 100 11 47 7 101 14
120 17 19 2 35 4 35 5 0 1 19 4 43 6 65 6 182 43 224 71 36 25 40 25 280 28
134 2 288 8 343 14 139 16 179 19 349 26 82 4 172 11 200 17 28 5 62 9 76 9
52 -1 266 30 295 44 102 47 304 74 543 74 28 0 60 5 70 10 25 15 42 13 49 -5z
m1513 -30 c0 -8 -4 -12 -10 -9 -5 3 -10 10 -10 16 0 5 5 9 10 9 6 0 10 -7 10
-16z m4 -66 c3 -18 5 -46 5 -63 0 -16 1 -41 1 -55 1 -71 1 -137 1 -155 -1 -11
-1 -30 -1 -42 0 -27 -18 -31 -20 -5 -6 79 -6 352 1 352 4 0 10 -15 13 -32z
m-1520 -34 c-4 -16 -28 -25 -142 -52 -75 -17 -175 -39 -222 -47 -46 -9 -112
-26 -146 -40 -38 -15 -97 -28 -160 -34 -154 -15 -199 -43 -103 -66 60 -15 40
-22 -58 -22 l-82 -1 5 27 c8 40 -15 55 -77 48 -62 -8 -159 -30 -159 -37 0 -3
-37 -6 -83 -7 -230 -7 -344 -18 -374 -36 -7 -4 -67 -7 -135 -6 -172 1 -180 1
-210 -12 -32 -13 -34 -21 -12 -40 35 -29 335 -15 417 19 16 7 39 12 52 12 13
0 35 4 48 9 17 7 32 5 49 -3 23 -12 87 -12 133 0 11 2 43 7 70 10 28 3 65 10
83 16 47 14 129 15 143 1 9 -9 3 -13 -27 -18 -161 -25 -391 -78 -401 -92 -7
-9 -13 -12 -13 -6 0 16 -94 -16 -162 -54 -52 -30 -103 -46 -183 -60 -29 -5
-61 -20 -97 -45 -24 -17 -47 5 -54 54 -8 47 -61 108 -93 108 -23 0 -83 -17
-186 -53 -70 -25 -154 -106 -199 -190 -71 -135 -77 -141 -137 -148 -30 -4 -95
-18 -145 -32 -50 -14 -135 -33 -190 -42 -54 -9 -128 -23 -163 -30 -35 -8 -70
-11 -78 -8 -18 7 -13 33 10 44 9 5 25 13 35 19 43 24 88 43 97 40 84 -25 157
-15 278 36 43 19 83 34 87 34 20 0 110 46 115 59 9 23 -19 45 -42 33 -11 -6
-48 -21 -84 -33 -35 -12 -75 -29 -88 -37 -36 -24 -138 -39 -204 -30 -64 9
-127 -9 -151 -44 -12 -17 -17 -18 -35 -6 -17 10 -21 23 -21 65 0 58 0 57 48
44 27 -8 39 -6 67 11 19 11 50 22 68 23 17 2 57 9 86 15 40 7 71 7 114 -1 54
-11 60 -10 87 10 16 11 34 21 41 21 6 0 21 8 34 18 12 9 33 24 45 32 12 8 28
20 34 25 6 6 29 19 51 29 22 11 50 29 63 40 14 13 45 22 88 28 66 7 93 24 94
57 0 18 -94 7 -127 -15 -12 -8 -27 -14 -34 -14 -25 0 -176 -73 -204 -99 -16
-15 -47 -38 -68 -51 -33 -19 -43 -21 -78 -12 -23 6 -51 9 -62 7 -12 -2 -53 -6
-92 -10 -38 -4 -87 -16 -107 -26 -33 -17 -42 -18 -88 -6 -29 7 -56 20 -61 28
-22 35 3 79 46 79 14 0 41 9 62 20 21 10 87 26 148 35 60 9 113 19 119 22 5 3
23 7 40 9 68 6 226 40 238 52 6 6 18 12 25 12 7 0 21 4 31 9 75 36 96 42 163
46 41 2 87 8 103 14 16 7 50 14 75 17 25 3 62 8 81 11 45 7 109 11 245 17 116
5 281 23 295 31 4 3 80 7 168 10 122 4 175 10 223 25 45 15 93 21 168 21 58 1
113 5 121 10 9 4 54 13 100 19 81 11 116 19 185 42 17 5 78 18 136 28 59 10
126 24 150 30 24 7 64 9 89 6 25 -3 52 -1 60 4 19 12 31 0 24 -26z m2110 1
c-4 -8 -10 -15 -15 -15 -5 0 -9 7 -9 15 0 8 7 15 15 15 9 0 12 -6 9 -15z
m-369 -55 c3 -5 1 -10 -4 -10 -6 0 -11 5 -11 10 0 6 2 10 4 10 3 0 8 -4 11
-10z m-1739 -42 c-2 -23 -10 -45 -17 -49 -26 -12 -114 -32 -194 -43 -63 -9
-80 -15 -83 -28 -2 -13 3 -18 20 -19 43 -1 68 -6 75 -12 6 -6 -38 -12 -60 -8
-5 1 -49 -6 -99 -14 -55 -10 -111 -14 -142 -10 -58 7 -112 12 -174 16 -63 4
-60 16 6 23 127 15 143 19 178 47 20 16 42 30 48 30 6 1 20 3 31 5 11 2 52 8
90 13 39 6 108 22 154 36 47 14 92 25 102 25 9 0 22 7 29 15 25 30 40 18 36
-27z m2140 -44 c-3 -8 -10 -12 -16 -9 -7 4 -6 14 2 28 12 24 24 8 14 -19z
m953 11 c10 3 31 1 46 -5 26 -10 27 -12 10 -24 -33 -24 -8 -35 77 -32 73 2 87
0 135 -26 29 -15 62 -28 73 -28 24 0 37 27 21 43 -15 15 -14 27 3 27 20 0 46
-44 46 -78 0 -25 -7 -32 -52 -54 -134 -65 -399 -97 -727 -89 -53 2 -64 5 -68
22 -6 21 -14 24 -29 10 -13 -13 -54 5 -54 24 0 9 9 15 23 15 12 0 28 4 36 9
10 7 8 12 -9 24 -19 13 -20 18 -9 35 8 13 28 23 54 27 43 7 105 35 105 48 0 4
-6 7 -12 6 -25 -3 -38 1 -38 12 0 7 42 9 123 7 112 -2 126 0 157 19 25 16 39
19 52 12 10 -6 27 -7 37 -4z m322 -31 c11 -14 10 -15 -11 -12 -13 1 -25 9 -28
16 -5 17 23 15 39 -4z m-716 -14 c-3 -5 -17 -10 -31 -10 -14 0 -22 4 -19 10 3
6 17 10 31 10 14 0 22 -4 19 -10z m-79 -25 c-11 -8 -27 -15 -35 -15 -8 0 -28
-12 -43 -27 l-28 -27 0 25 c0 36 14 52 39 44 11 -3 29 -2 38 4 10 6 25 10 33
10 11 0 10 -3 -4 -14z m-2625 -22 c9 -25 14 -1061 5 -1118 -3 -19 -11 -20
-207 -22 -112 0 -209 0 -215 2 -7 2 -8 24 -2 72 5 37 11 84 13 103 19 166 21
196 13 206 -5 8 -50 12 -122 13 -128 1 -174 -10 -300 -69 -45 -20 -101 -42
-126 -48 -54 -13 -160 -16 -255 -7 -57 5 -74 11 -92 31 -13 14 -23 34 -23 45
0 30 -36 94 -65 117 -22 18 -36 20 -94 15 l-67 -6 -37 49 c-20 27 -80 92 -135
145 -89 86 -111 119 -79 119 6 0 20 8 31 19 12 10 59 30 106 45 47 15 121 44
165 65 111 53 110 53 200 61 44 5 116 18 160 30 195 52 323 59 624 34 47 -4
95 -2 130 6 33 8 114 12 194 12 138 -2 138 -2 135 21 -2 15 -11 23 -28 25 -39
6 -46 20 -14 28 16 4 38 13 49 20 25 18 24 18 36 -13z m1804 -3 c3 -5 1 -10
-4 -10 -6 0 -11 5 -11 10 0 6 2 10 4 10 3 0 8 -4 11 -10z m2259 -6 c24 -9 19
-34 -6 -35 -13 -1 -40 -2 -60 -3 -51 -4 -66 7 -37 28 24 16 74 21 103 10z
m-2254 -78 c0 -13 -7 -29 -15 -36 -12 -10 -15 -9 -15 8 0 27 10 52 21 52 5 0
9 -11 9 -24z m2370 -8 c0 -22 -3 -23 -88 -22 -170 3 -172 3 -172 19 0 11 21
15 103 18 56 1 114 4 130 5 22 2 27 -2 27 -20z m-2651 -105 c1 -29 -3 -53 -8
-53 -10 0 -21 108 -13 129 9 24 21 -18 21 -76z m1971 31 c0 -2 -14 -29 -31
-59 -23 -42 -36 -55 -54 -55 -12 0 -62 -11 -110 -25 -81 -24 -163 -38 -277
-49 -95 -8 -86 -35 13 -38 87 -1 268 31 323 59 39 20 50 5 31 -40 -16 -38 -55
-57 -117 -57 -15 0 -47 -4 -70 -10 -24 -5 -69 -12 -100 -16 -48 -4 -58 -9 -58
-24 0 -28 12 -31 71 -20 114 19 202 30 207 25 3 -3 0 -16 -7 -28 -10 -19 -26
-26 -84 -36 -40 -7 -94 -14 -121 -16 -55 -4 -74 -16 -52 -34 15 -13 94 -11
164 4 30 7 32 5 32 -18 0 -14 -5 -29 -10 -32 -6 -3 -53 -7 -105 -7 -97 0 -119
-8 -93 -35 10 -10 36 -14 81 -14 37 0 67 -3 67 -7 -1 -4 -9 -30 -19 -59 -18
-52 -37 -83 -51 -83 -16 0 -19 33 -5 53 8 12 15 27 15 33 0 33 -114 17 -142
-19 l-17 -22 -23 21 c-13 12 -32 26 -43 32 -18 10 -15 11 18 12 25 0 37 4 37
15 0 15 -57 35 -101 35 -15 0 -43 7 -64 16 -29 12 -36 19 -32 35 4 14 -3 23
-23 34 -29 15 -75 84 -129 194 -18 36 -47 90 -66 122 -19 31 -35 59 -35 62 0
2 11 12 25 21 23 15 30 15 78 1 29 -8 78 -18 107 -21 100 -11 386 -15 426 -6
43 9 106 1 87 -11 -6 -4 -60 -12 -120 -17 -159 -15 -188 -21 -188 -45 0 -22 7
-23 115 -5 36 5 93 12 127 15 34 3 89 14 123 25 35 11 69 20 77 20 8 0 19 14
24 30 6 17 17 30 25 30 8 0 19 9 26 19 9 15 16 17 30 10 10 -5 18 -12 18 -15z
m678 4 c-3 -18 -12 -20 -123 -21 -118 -1 -123 0 -116 31 0 4 55 8 122 8 114 1
120 0 117 -18z m-318 -13 c0 -14 -8 -29 -20 -35 -17 -9 -20 -8 -20 9 0 30 11
51 26 51 8 0 14 -10 14 -25z m-1707 -4 c17 -2 -4 -19 -28 -23 -19 -4 -25 -1
-25 12 0 11 7 16 23 14 12 -1 26 -3 30 -3z m-4159 -51 c19 -7 28 -21 38 -57
10 -43 27 -63 151 -185 84 -81 145 -134 153 -131 10 3 14 -3 14 -20 0 -14 11
-35 25 -48 30 -29 31 -45 4 -61 -24 -15 -89 -110 -89 -131 0 -8 -9 -36 -21
-62 -17 -38 -20 -63 -17 -124 3 -74 2 -76 -21 -79 l-24 -4 6 78 c4 42 14 90
22 107 20 40 19 67 -2 67 -53 -1 -76 -53 -81 -182 -5 -109 -16 -135 -43 -102
-24 30 -15 193 15 252 17 34 11 52 -18 52 -32 0 -51 -19 -67 -70 -13 -41 -18
-180 -8 -239 3 -19 -2 -26 -24 -34 -17 -5 -32 -6 -38 0 -30 30 -16 274 18 314
7 8 13 24 13 34 0 10 5 34 12 52 9 25 9 36 0 45 -18 18 -60 -6 -67 -39 -4 -15
-18 -66 -32 -113 -14 -49 -26 -116 -28 -160 -4 -111 -3 -106 -17 -91 -9 8 -13
46 -13 119 1 113 18 200 57 285 20 43 20 49 6 63 -14 14 -18 14 -45 1 -31 -16
-30 -12 -82 -248 -4 -19 -7 -76 -6 -125 1 -72 6 -99 23 -132 27 -52 27 -52 2
-52 -41 0 -75 -24 -72 -51 1 -4 -8 -5 -18 -2 -13 3 -20 14 -20 28 0 13 -3 31
-6 40 -5 13 -2 16 13 13 20 -3 53 17 53 33 0 5 -9 18 -20 29 -20 20 -26 61
-21 160 2 59 30 218 43 250 6 14 21 60 33 103 20 67 21 79 8 84 -28 11 -62
-15 -72 -54 -26 -95 -53 -211 -57 -238 -2 -16 -8 -57 -15 -90 -10 -57 -8 -143
7 -230 7 -36 6 -39 -9 -26 -9 7 -19 29 -22 50 -3 20 -10 44 -16 53 -16 30 -10
112 16 246 32 158 76 278 132 360 47 69 50 77 29 85 -29 11 -78 -37 -117 -112
-34 -67 -52 -115 -96 -261 l-13 -45 5 54 c7 61 67 245 98 300 25 44 99 141
108 141 3 0 21 14 39 30 30 27 123 79 142 80 4 0 18 -4 32 -10z m6180 -1 c5
-5 10 -67 7 -89 -1 -12 -20 -16 -94 -18 -50 -2 -105 -4 -122 -5 -26 -2 -30 1
-30 23 0 25 1 25 85 25 87 0 125 10 99 26 -7 4 -52 8 -100 7 -83 -1 -143 14
-109 26 28 10 255 14 264 5z m-2645 -66 c-1 -67 -16 -84 -18 -20 0 32 3 57 9
57 6 0 10 -17 9 -37z m281 -13 c0 -5 -4 -10 -10 -10 -5 0 -10 5 -10 10 0 6 5
10 10 10 6 0 10 -4 10 -10z m-14 -47 c-10 -10 -19 5 -10 18 6 11 8 11 12 0 2
-7 1 -15 -2 -18z m-186 -13 c0 -5 -4 -10 -10 -10 -5 0 -10 5 -10 10 0 6 5 10
10 10 6 0 10 -4 10 -10z m635 -41 c-7 -31 11 -42 21 -14 14 37 21 4 32 -156 7
-94 17 -180 23 -191 6 -11 12 -77 14 -147 2 -69 7 -137 12 -150 7 -16 4 -39
-8 -75 -16 -50 -16 -51 3 -67 26 -20 22 -76 -4 -71 -10 2 -18 -2 -18 -8 0 -5
-11 -10 -24 -10 -14 0 -28 -4 -31 -10 -14 -23 -20 -7 -17 47 3 46 1 55 -8 46
-10 -9 -16 -8 -28 3 -22 23 -41 1 -24 -27 20 -31 9 -33 -19 -3 -19 20 -21 27
-10 33 18 12 29 195 12 205 -10 7 -16 56 -7 56 23 0 36 -17 36 -46 0 -33 1
-34 40 -34 38 0 54 13 28 23 -10 3 -10 11 -1 35 9 26 9 32 -2 32 -8 0 -17 -4
-20 -10 -11 -17 -22 -11 -55 30 -39 50 -34 75 20 91 33 10 38 16 38 40 -1 33
-14 38 -23 9 -7 -22 -21 -26 -27 -9 -3 9 -10 9 -26 0 -19 -10 -22 -9 -22 9 0
13 7 20 20 20 11 0 20 7 20 15 0 11 8 13 30 9 30 -6 42 8 19 22 -6 3 -9 15 -6
25 6 23 -9 25 -21 3 -8 -15 -10 -15 -16 1 -4 12 0 23 14 32 25 17 25 32 3 49
-10 8 -13 14 -6 14 8 0 11 16 9 48 -2 33 -7 46 -16 44 -60 -14 -70 -14 -70 1
0 17 21 27 56 27 17 0 24 6 24 18 0 27 -8 32 -41 20 -34 -12 -42 -8 -33 16 4
9 13 15 20 12 8 -3 14 -1 14 5 0 6 6 9 14 6 8 -3 22 0 32 8 26 18 36 9 29 -26z
m-2137 9 c-6 -18 -28 -21 -28 -4 0 9 7 16 16 16 9 0 14 -5 12 -12z m1422 -23
c0 -19 -4 -35 -10 -35 -11 0 -13 30 -4 54 10 25 14 19 14 -19z m320 -21 c0
-11 -8 -14 -27 -12 -37 4 -40 23 -3 26 22 2 30 -2 30 -14z m-310 -95 c0 -44
-3 -60 -12 -57 -17 6 -21 32 -13 84 9 62 25 45 25 -27z m291 18 c-13 -13 -26
-3 -16 12 3 6 11 8 17 5 6 -4 6 -10 -1 -17z m-1711 -11 c0 -20 -19 -31 -32
-18 -6 6 -7 15 -4 21 10 16 36 13 36 -3z m1480 -36 c0 -5 -4 -10 -10 -10 -5 0
-10 5 -10 10 0 6 5 10 10 10 6 0 10 -4 10 -10z m-4141 -39 c9 -6 23 -5 38 2
35 16 39 2 15 -48 -12 -25 -22 -54 -22 -64 0 -10 -7 -35 -15 -54 -8 -20 -15
-52 -15 -70 0 -19 -3 -37 -7 -40 -14 -15 -13 -140 2 -198 9 -34 14 -63 12 -65
-2 -2 -15 4 -28 15 -44 34 -110 60 -170 67 -51 6 -66 3 -112 -20 -45 -22 -70
-26 -153 -29 l-99 -3 3 195 c2 113 7 200 13 208 6 6 36 15 67 18 31 4 75 11
97 17 22 5 54 12 70 14 91 12 112 16 130 24 20 8 61 20 99 27 11 2 22 6 25 8
7 8 35 5 50 -4z m4074 -24 c5 -14 7 -116 11 -709 1 -230 -1 -418 -6 -418 -4 0
-8 12 -8 28 -2 82 -13 189 -23 200 -5 7 -7 16 -3 19 4 4 12 1 17 -7 8 -11 9
-1 5 34 -3 27 -6 55 -6 63 0 8 -4 12 -9 8 -18 -11 -23 17 -5 30 17 12 18 34
19 280 1 266 -8 318 -21 119 -4 -58 -10 -100 -15 -93 -12 21 -8 239 6 273 7
17 15 66 17 109 3 73 10 93 21 64z m-1406 -13 c8 -20 -8 -36 -26 -25 -15 10
-8 41 9 41 6 0 13 -7 17 -16z m1728 -57 c23 -18 12 -37 -22 -37 -21 0 -23 2
-13 15 6 8 9 19 5 25 -9 14 8 13 30 -3z m-3270 -37 c11 -13 19 -38 21 -68 1
-26 5 -58 8 -72 5 -20 5 -21 -3 -5 -13 30 -61 75 -87 81 -13 3 -42 4 -64 2
-22 -2 -40 -1 -40 3 0 15 38 38 56 33 13 -3 28 4 43 20 29 31 42 32 66 6z
m1545 -5 c19 -23 8 -50 -20 -50 -16 0 -26 6 -28 18 -4 18 14 47 28 47 4 0 13
-7 20 -15z m1730 -36 c13 -24 9 -51 -6 -41 -15 10 -27 62 -15 62 6 0 15 -9 21
-21z m-64 -16 c-10 -10 -19 5 -10 18 6 11 8 11 12 0 2 -7 1 -15 -2 -18z
m-2288 -11 l33 -17 -6 -95 c-4 -52 -10 -111 -15 -130 -4 -19 -11 -61 -15 -93
-9 -82 -32 -101 -105 -92 -30 4 -71 8 -90 9 -61 3 -73 16 -67 72 2 27 14 83
26 124 11 41 24 107 27 147 l7 72 56 14 c62 17 100 14 149 -11z m-1942 -80
c-11 -10 -14 3 -8 33 l7 30 3 -28 c2 -16 1 -31 -2 -35z m5368 -19 c5 -41 3
-59 -6 -65 -20 -12 -26 -10 -33 12 -3 11 -11 20 -16 20 -12 0 -12 47 1 71 6
10 19 19 29 19 15 0 20 -11 25 -57z m110 30 c7 -24 -7 -88 -19 -88 -6 0 -13
16 -16 35 -5 36 5 70 21 70 5 0 11 -8 14 -17z m106 -13 c10 -24 10 -37 1 -56
-16 -37 -31 -20 -31 37 0 56 12 63 30 19z m-4664 14 c31 -4 44 -11 52 -29 8
-18 19 -25 40 -25 26 0 28 -3 24 -30 -6 -45 -18 -46 -63 -5 -46 41 -80 57
-112 51 -12 -3 -28 -5 -35 -5 -8 -1 -12 -10 -10 -23 3 -19 86 -75 141 -94 9
-4 17 -15 17 -26 0 -10 11 -30 25 -44 14 -14 23 -29 20 -33 -2 -5 -31 -16 -64
-25 -53 -15 -63 -15 -93 -2 l-33 14 41 1 c42 1 64 15 64 41 0 23 -112 72 -145
64 -22 -5 -25 -3 -25 18 0 20 17 89 35 145 4 12 53 15 121 7z m711 -56 c-10
-118 -37 -277 -49 -284 -10 -7 -10 -3 3 75 7 48 7 67 -2 75 -8 8 -13 8 -16 -1
-2 -7 -10 -10 -18 -7 -14 6 -24 -39 -28 -126 -2 -41 0 -45 21 -43 30 4 28 -3
-10 -38 -54 -49 -57 -44 -56 112 1 117 -1 143 -14 150 -9 5 -22 3 -32 -4 -16
-12 -18 -31 -17 -166 1 -104 -2 -157 -10 -167 -18 -22 -32 -17 -25 10 8 34 17
316 11 338 -7 20 -49 25 -60 8 -4 -6 -6 -49 -6 -95 0 -47 -1 -85 -3 -85 -31 0
-36 15 -36 111 0 107 -5 117 -51 101 -31 -11 -59 -4 -59 14 0 16 -6 15 128 16
64 0 119 5 144 14 22 8 49 14 60 14 11 0 34 6 51 14 37 16 58 24 70 25 5 1 6
-27 4 -61z m2658 52 c-3 -5 -11 -10 -16 -10 -6 0 -7 5 -4 10 3 6 11 10 16 10
6 0 7 -4 4 -10z m-985 -10 c0 -5 -4 -10 -10 -10 -5 0 -10 5 -10 10 0 6 5 10
10 10 6 0 10 -4 10 -10z m-720 -22 c0 -18 -21 -48 -34 -48 -8 0 -20 7 -27 16
-11 14 -10 19 11 34 23 18 50 17 50 -2z m1724 -7 c22 -24 14 -41 -17 -33 -28
7 -39 23 -25 39 14 18 22 16 42 -6z m-196 -47 c-10 -10 -28 6 -28 24 0 15 1
15 17 -1 9 -9 14 -19 11 -23z m247 17 c3 -5 1 -12 -5 -16 -5 -3 -10 1 -10 9 0
18 6 21 15 7z m-343 -128 c-8 -24 -11 -25 -17 -10 -4 9 -4 34 0 55 l8 37 9
-27 c6 -18 6 -38 0 -55z m323 61 c28 -18 24 -34 -8 -34 -28 1 -61 25 -52 39 9
16 32 14 60 -5z m1580 -14 c0 -8 -10 -16 -23 -18 -46 -7 -14 -27 60 -38 41 -6
86 -18 99 -27 13 -8 36 -17 51 -21 29 -6 53 -39 43 -56 -8 -13 -52 -13 -60 0
-9 15 -34 12 -60 -8 -21 -17 -48 -19 -267 -20 -239 -2 -295 4 -258 28 8 5 42
8 75 7 58 -2 60 -1 57 22 -1 14 -10 33 -18 43 -9 9 -14 24 -11 32 8 21 54 31
83 17 14 -6 31 -11 39 -11 20 0 19 39 0 46 -37 15 5 24 93 22 78 -2 97 -6 97
-18z m-4795 -2 c0 -7 -4 -19 -9 -27 -11 -17 -23 1 -15 23 7 19 24 21 24 4z
m4840 2 c0 -5 -4 -10 -10 -10 -5 0 -10 5 -10 10 0 6 5 10 10 10 6 0 10 -4 10
-10z m-4748 -57 c-2 -7 -8 -13 -13 -13 -11 0 -12 54 -2 64 9 9 22 -34 15 -51z
m1373 37 c8 -27 -1 -40 -30 -40 -27 0 -41 26 -24 46 17 20 47 17 54 -6z m3504
6 c71 -14 100 -31 82 -49 -5 -5 -17 -5 -27 1 -11 5 -52 17 -91 27 -40 9 -73
21 -73 26 0 12 23 11 109 -5z m-661 -36 c6 0 12 -4 12 -9 0 -11 -78 -26 -87
-17 -12 12 21 37 41 32 12 -3 27 -6 34 -6z m-1496 -87 c-2 -24 -8 -43 -13 -43
-10 0 -12 60 -3 85 11 28 21 2 16 -42z m415 24 c-2 -7 -17 -12 -34 -13 -16 -1
-35 -4 -42 -8 -12 -8 -14 4 -5 28 3 8 12 12 19 10 7 -3 16 -1 20 5 8 15 48 -6
42 -22z m1873 -25 c-15 -26 -50 -43 -50 -24 0 5 7 26 16 47 14 35 17 37 32 21
15 -15 15 -19 2 -44z m-2204 13 c6 -14 -3 -52 -10 -44 -2 2 -6 16 -10 32 -7
29 10 39 20 12z m864 0 c0 -24 29 -30 45 -9 14 18 14 17 15 -8 0 -29 10 -33
45 -19 11 5 25 5 31 0 6 -5 30 -11 53 -13 32 -3 44 0 55 15 13 19 14 18 18
-13 3 -18 -1 -60 -9 -93 -7 -33 -14 -67 -16 -75 -1 -8 -5 -18 -9 -21 -5 -3
-13 -31 -18 -62 -6 -31 -17 -69 -25 -84 -8 -16 -15 -34 -15 -41 0 -7 -4 -20
-10 -30 -22 -40 -83 -171 -100 -215 -10 -26 -33 -71 -52 -100 -19 -28 -40 -72
-47 -96 -16 -54 -15 -55 101 -115 64 -33 106 -47 159 -55 40 -5 76 -8 81 -5 4
3 8 1 8 -5 0 -5 22 -8 53 -6 28 3 87 7 130 9 l77 4 16 -30 c20 -39 13 -95 -27
-191 -16 -40 -29 -77 -29 -82 0 -6 -33 -78 -74 -160 -78 -160 -143 -257 -213
-318 -26 -24 -43 -47 -43 -61 0 -26 61 -96 83 -96 25 0 118 -50 112 -61 -4 -5
-10 -7 -15 -4 -9 6 -471 6 -595 0 -240 -11 -529 -18 -845 -20 -195 -2 -546 -6
-780 -9 -234 -4 -522 -7 -640 -9 l-215 -2 -3 23 c-3 16 -15 29 -40 39 -69 29
-187 54 -253 53 -64 0 -67 1 -79 29 -14 34 -66 57 -107 46 -14 -3 -46 -3 -72
1 l-46 8 40 12 c22 7 58 13 80 13 53 1 216 41 236 58 8 7 20 13 26 13 6 0 13
10 16 22 8 29 -16 55 -70 79 -46 20 -125 25 -518 34 -132 3 -255 11 -274 17
-37 11 -144 6 -208 -11 -21 -5 -78 -20 -127 -32 -49 -11 -100 -26 -113 -32
-24 -11 -37 -42 -31 -74 3 -17 61 -42 131 -58 47 -10 20 -27 -32 -20 -40 5
-153 -4 -248 -21 -67 -12 -63 69 5 98 15 7 34 19 43 28 8 8 35 31 59 50 24 19
72 63 107 98 35 34 68 62 73 62 6 0 10 6 10 13 0 8 19 29 41 47 41 33 42 33
70 16 54 -32 157 13 186 81 10 26 17 33 23 23 6 -10 33 -12 118 -8 109 5 291
-10 387 -32 72 -17 118 -39 239 -120 105 -69 109 -71 164 -68 66 3 61 -14 47
160 -5 65 -4 106 3 125 6 15 14 101 17 191 l6 162 -39 0 -39 0 -6 -129 c-6
-118 -29 -276 -42 -289 -12 -13 -16 13 -19 124 -1 66 4 162 12 217 14 91 16
97 38 97 34 0 74 18 81 36 4 12 -3 24 -20 38 -15 12 -27 26 -27 32 0 6 -11 21
-25 34 -14 13 -25 33 -25 45 0 13 -9 44 -21 70 -14 31 -19 58 -15 77 3 16 -3
71 -14 121 -21 94 -26 157 -12 157 26 1 36 25 47 108 6 50 8 98 5 108 -16 45
23 83 40 39 6 -16 18 -25 32 -26 97 -4 348 0 367 6 l23 7 -7 -89 c-5 -78 -4
-91 12 -105 29 -25 86 -39 149 -36 l59 3 9 38 c18 73 31 34 31 -96 0 -125 0
-126 29 -156 16 -16 34 -40 40 -53 7 -14 30 -29 56 -39 25 -8 62 -23 83 -32
57 -26 140 -34 257 -24 23 2 25 -2 28 -43 3 -42 24 -80 43 -80 5 0 37 -14 71
-30 35 -17 76 -33 93 -36 54 -9 64 -15 85 -49 11 -18 27 -36 36 -39 11 -4 14
-14 10 -33 -5 -27 -1 -39 47 -122 17 -30 17 -31 -3 -48 -11 -10 -20 -27 -20
-38 0 -86 -100 -140 -236 -128 -45 4 -70 1 -93 -10 -17 -9 -57 -23 -89 -32
-71 -21 -116 -54 -142 -106 -15 -29 -18 -44 -10 -58 14 -27 129 -121 148 -122
10 0 44 -5 77 -10 33 -5 118 -11 189 -14 71 -2 137 -7 148 -11 10 -3 55 -7
101 -10 45 -2 91 -5 102 -6 20 -2 82 5 208 23 80 11 127 32 127 57 0 10 9 25
20 35 11 9 20 28 20 42 0 31 20 40 59 27 22 -8 43 -6 83 5 87 24 110 72 67
143 -18 29 -21 44 -16 98 6 60 4 67 -23 107 -16 23 -37 45 -46 49 -14 5 -16
15 -9 64 4 31 10 91 14 132 l6 75 45 -5 c100 -10 214 -2 255 18 33 16 85 54
123 89 22 20 24 29 19 73 -3 28 -16 64 -28 81 -18 26 -20 39 -15 88 6 53 5 59
-14 64 -14 4 -20 13 -20 34 0 38 10 47 26 25 12 -15 13 -14 14 14 0 29 4 33
43 43 42 11 79 39 130 100 25 30 27 40 27 116 0 46 3 90 6 99 8 20 24 21 24 1z
m400 -14 c0 -6 -4 -13 -10 -16 -5 -3 -10 1 -10 9 0 9 5 16 10 16 6 0 10 -4 10
-9z m-5669 -59 c-20 -40 -31 -77 -33 -118 -3 -57 -2 -59 22 -59 19 0 26 6 28
25 10 81 42 136 42 74 0 -20 4 -25 18 -21 49 14 47 17 46 -78 -1 -49 -7 -110
-14 -135 -7 -25 -14 -79 -16 -120 -2 -41 -8 -86 -13 -100 -15 -39 -22 -88 -27
-169 -2 -41 -8 -77 -12 -80 -10 -8 -57 -82 -65 -103 -10 -27 -32 -22 -76 20
-24 23 -43 52 -49 77 -14 56 -26 348 -13 341 5 -3 7 -14 5 -24 -7 -28 12 -49
33 -36 23 14 29 85 12 137 -10 31 -9 50 6 117 10 44 24 85 32 91 7 6 13 28 13
48 0 43 60 171 80 171 6 0 -3 -26 -19 -58z m1119 37 c0 -5 -11 -9 -25 -9 -28
0 -34 16 -7 23 20 4 32 -1 32 -14z m1825 -4 c0 -14 -8 -21 -27 -23 -22 -3 -28
1 -28 16 0 25 10 33 35 30 12 -2 20 -10 20 -23z m-2549 0 c11 -27 -1 -39 -19
-21 -17 17 -15 36 4 36 5 0 12 -7 15 -15z m-109 -28 c34 -30 83 -63 278 -188
33 -21 71 -48 85 -59 14 -11 35 -20 47 -20 12 0 34 -6 50 -14 15 -7 42 -20 58
-28 29 -14 30 -17 30 -80 0 -40 5 -72 12 -79 10 -10 9 -17 -4 -31 -11 -12 -16
-33 -15 -57 3 -37 2 -37 -51 -54 -67 -21 -67 -21 -67 2 0 16 8 20 43 23 40 3
42 4 39 33 -13 133 -14 134 -35 141 -25 8 -57 -26 -57 -60 0 -13 -11 -27 -28
-37 -26 -15 -28 -20 -27 -75 1 -65 -7 -84 -37 -84 -18 0 -20 4 -14 33 13 59
26 152 26 188 0 84 -73 45 -84 -44 -22 -187 -32 -233 -52 -241 -23 -9 -26 12
-10 62 8 26 15 65 15 87 0 22 0 73 0 114 1 79 -3 91 -24 91 -28 0 -45 -31 -45
-81 0 -53 -15 -167 -30 -234 -20 -88 -20 -93 -4 -109 24 -25 53 -19 150 27 49
24 106 47 128 51 21 4 63 18 94 32 66 29 93 30 117 4 10 -11 26 -20 37 -20 10
0 35 -9 55 -20 48 -25 99 -25 141 0 30 18 36 29 33 56 -1 6 20 17 46 23 27 7
56 17 65 21 36 20 197 4 286 -27 24 -8 55 -13 69 -10 17 3 36 -2 52 -13 19
-14 52 -20 128 -24 87 -5 107 -10 142 -33 23 -15 41 -32 41 -39 0 -27 -188
-120 -340 -169 -63 -20 -132 -43 -152 -51 -40 -15 -43 -13 -52 32 -6 27 -12
31 -67 43 -71 16 -149 9 -184 -16 -19 -14 -23 -24 -19 -48 5 -28 3 -30 -28
-33 -18 -1 -51 4 -73 12 -37 13 -190 49 -280 66 -37 7 -69 17 -120 39 -60 26
-79 31 -110 31 -19 0 -37 5 -41 11 -4 7 -22 9 -45 6 -26 -3 -42 0 -50 9 -6 8
-26 18 -43 22 -23 7 -30 14 -28 28 2 10 7 44 12 74 5 30 14 72 20 93 25 83 13
303 -16 314 -33 13 -49 -23 -50 -115 -1 -48 -6 -116 -12 -152 -7 -36 -18 -110
-25 -165 -10 -76 -17 -101 -29 -103 -10 -2 -18 6 -22 22 -8 31 9 152 30 216
11 34 14 68 10 112 -3 35 -6 80 -6 101 0 40 -17 50 -40 22 -10 -12 -10 -18 0
-30 15 -17 7 -30 -12 -22 -9 3 -12 19 -10 51 4 43 6 46 33 46 24 0 29 5 35 35
3 19 3 42 0 51 -6 15 -8 15 -31 0 l-25 -16 0 83 c0 71 3 87 20 102 18 16 18
20 5 46 -34 66 1 80 62 26z m4493 23 c0 -5 -4 -10 -10 -10 -5 0 -10 5 -10 10
0 6 5 10 10 10 6 0 10 -4 10 -10z m-134 -27 c-10 -10 -19 5 -10 18 6 11 8 11
12 0 2 -7 1 -15 -2 -18z m123 -43 c3 0 5 -21 4 -47 -1 -38 -6 -50 -27 -66 -21
-15 -24 -22 -15 -33 6 -8 8 -26 4 -44 -7 -32 -25 -41 -25 -12 0 9 -9 23 -20
30 -25 15 -26 35 -1 27 15 -4 20 1 25 25 5 26 9 30 26 25 14 -5 20 -2 20 9 0
9 -7 16 -16 16 -24 0 -54 -19 -54 -35 0 -7 -4 -17 -10 -20 -7 -4 -8 51 0 93 0
1 11 -4 24 -13 25 -16 36 -10 49 28 6 17 -7 24 -17 9 -3 -5 -15 -8 -28 -7 -34
2 -35 36 -1 57 27 16 27 16 41 -13 8 -16 17 -29 21 -29z m867 10 c-14 -40 -13
-46 6 -83 24 -47 26 -87 9 -177 -7 -36 -16 -85 -21 -110 -12 -63 -36 -160 -49
-195 -6 -16 -22 -70 -37 -120 -14 -49 -33 -105 -41 -124 -14 -32 -17 -33 -55
-27 -45 7 -158 61 -158 76 0 8 20 48 118 235 64 120 112 242 112 281 0 11 9
31 20 44 11 13 20 37 20 54 0 17 7 40 15 50 8 11 15 31 15 45 0 23 48 106 57
97 2 -2 -3 -23 -11 -46z m1312 35 c23 -1 45 -5 48 -8 5 -5 5 -236 -1 -482 -4
-171 -7 -494 -6 -750 0 -121 -1 -337 -2 -480 l-2 -260 -70 1 c-38 0 -123 3
-188 7 -65 4 -126 3 -135 -2 -28 -13 -162 -1 -162 15 0 9 12 14 34 14 18 0 49
7 69 15 19 8 36 13 38 11 2 -2 16 -6 32 -10 26 -6 27 -5 27 38 0 47 6 38 -120
173 -17 18 -30 37 -30 42 0 5 -6 11 -14 14 -7 3 -16 19 -19 36 -4 17 -18 48
-32 71 -15 24 -25 55 -25 77 0 21 -10 58 -21 83 -13 27 -21 62 -20 88 1 23 -4
70 -12 105 -25 111 -21 169 17 245 19 37 35 76 37 87 3 29 -11 95 -29 130 -9
17 -15 46 -13 65 2 47 29 140 40 140 5 0 17 21 27 46 9 25 41 82 71 126 29 45
53 84 53 87 0 2 7 13 17 23 19 21 28 37 81 145 22 45 49 86 60 92 29 15 120
28 167 23 22 -2 59 -5 83 -7z m-2628 -96 c-9 -67 -17 -24 -11 66 2 27 3 28 11
9 4 -11 5 -45 0 -75z m-4470 73 c0 -4 -6 -16 -14 -27 -7 -11 -17 -36 -21 -55
-10 -47 -22 -60 -55 -60 -34 0 -39 11 -31 75 6 48 7 49 51 61 56 15 70 16 70
6z m1720 -20 c53 -25 110 -87 110 -120 0 -26 -5 -30 -67 -50 -38 -12 -76 -22
-85 -22 -27 0 -22 17 7 24 29 7 49 39 40 66 -16 50 -95 61 -425 60 -231 -1
-387 -4 -422 -9 -5 -1 -8 -12 -8 -25 0 -20 -6 -24 -41 -30 -48 -8 -80 9 -57
29 7 6 57 26 111 44 85 27 106 31 162 25 52 -5 66 -4 70 8 4 11 28 15 98 17
50 1 93 4 95 6 3 2 88 1 191 -2 141 -4 194 -9 221 -21z m4244 7 c44 -4 149 -9
233 -11 l152 -2 12 -28 c6 -15 19 -30 28 -32 26 -9 121 -8 202 1 89 10 99 8
99 -18 0 -29 -22 -33 -130 -20 -106 12 -133 8 -128 -18 4 -18 16 -20 131 -28
66 -4 78 -7 75 -21 -2 -11 -11 -16 -23 -14 -60 10 -145 13 -145 4 0 -17 29
-34 46 -28 10 4 32 2 51 -5 25 -8 33 -16 33 -34 0 -31 -23 -49 -47 -37 -25 13
-129 25 -153 17 -11 -4 -20 -15 -20 -26 0 -16 6 -20 28 -18 59 4 101 -2 117
-17 23 -24 13 -39 -26 -40 -19 -1 -62 -2 -96 -3 -46 -1 -63 -5 -63 -15 0 -27
23 -34 84 -25 74 12 87 3 60 -46 -19 -36 -51 -46 -82 -26 -7 4 -24 6 -38 3
-19 -3 -24 -10 -22 -26 2 -16 11 -22 41 -24 42 -4 54 -20 38 -50 -7 -14 -26
-21 -67 -26 -63 -7 -84 -19 -84 -46 0 -11 -13 -24 -30 -32 l-31 -13 5 -98 c6
-116 -2 -121 -51 -28 -43 82 -43 118 0 134 13 5 16 13 11 34 -10 41 -23 53
-59 53 -31 0 -32 2 -32 38 1 28 -29 98 -126 294 -70 141 -127 263 -127 270 0
22 11 29 33 22 11 -3 56 -10 101 -15z m-1155 -22 c0 -21 -1 -21 -9 -2 -12 28
-12 37 0 30 6 -3 10 -16 9 -28z m-2514 -1 c21 -9 36 -18 33 -21 -7 -8 -180
-110 -238 -141 -64 -35 -146 -68 -175 -70 -11 -1 -39 -9 -62 -18 -24 -9 -78
-25 -120 -36 -75 -19 -111 -24 -233 -35 -30 -3 -77 -8 -104 -11 -38 -5 -47 -3
-44 7 5 16 2 15 213 65 88 21 165 41 170 44 6 4 23 10 39 14 53 13 225 102
239 124 4 6 15 12 23 12 20 0 92 46 106 69 9 16 21 19 63 16 28 -2 68 -10 90
-19z m804 15 c23 -15 5 -41 -28 -41 -33 0 -46 13 -37 35 6 17 43 20 65 6z
m122 -94 c-6 -6 -14 -8 -17 -4 -9 9 -7 61 2 90 7 18 9 14 17 -26 7 -34 6 -52
-2 -60z m1909 83 c0 -11 -4 -20 -10 -20 -5 0 -10 9 -10 20 0 11 5 20 10 20 6
0 10 -9 10 -20z m1585 0 c3 -5 -1 -10 -10 -10 -9 0 -13 5 -10 10 3 6 8 10 10
10 2 0 7 -4 10 -10z m-1543 -76 c-4 -84 -11 -124 -22 -124 -9 0 -11 178 -3
193 3 4 10 6 16 4 8 -2 11 -27 9 -73z m-202 30 c0 -14 -4 -23 -10 -19 -5 3
-10 15 -10 26 0 10 5 19 10 19 6 0 10 -12 10 -26z m350 5 c0 -18 -102 -109
-122 -109 -4 0 -8 18 -8 40 0 38 1 39 25 30 19 -7 25 -6 25 3 0 8 15 20 33 29
41 20 47 21 47 7z m-2949 -156 c9 -66 20 -130 23 -140 6 -20 -9 -40 -29 -39
-5 1 -21 9 -35 19 -21 15 -23 20 -12 37 29 46 7 99 -34 83 -14 -5 -15 -16 -10
-65 8 -67 -10 -81 -35 -25 -18 41 -65 52 -71 16 -5 -39 -26 -33 -30 8 -3 33
-6 38 -28 38 -22 0 -25 -5 -28 -37 -4 -43 -22 -50 -44 -17 -11 17 -19 20 -37
14 -22 -7 -23 -11 -17 -66 5 -53 4 -59 -13 -59 -22 0 -31 19 -31 65 0 35 -19
50 -52 39 -16 -5 -18 -13 -13 -60 4 -44 2 -54 -10 -54 -11 0 -15 12 -15 45 0
41 -2 45 -25 45 -24 0 -28 -7 -37 -65 -2 -11 -10 -20 -18 -20 -11 0 -16 13
-18 47 -3 43 -1 48 27 62 16 9 45 16 63 16 18 0 44 9 58 20 14 11 32 20 40 20
18 1 109 32 129 44 7 5 46 25 85 45 70 36 126 70 136 82 10 12 45 28 55 25 5
-1 17 -57 26 -123z m-1061 94 c25 0 95 4 157 8 112 8 163 3 163 -15 0 -6 -17
-10 -38 -10 -21 0 -48 -7 -60 -16 -21 -14 -21 -17 -6 -45 8 -17 14 -32 12 -33
-2 -2 -43 -10 -91 -19 l-89 -16 -34 34 c-19 19 -47 37 -62 41 -15 3 -40 10
-56 15 -41 13 -64 11 -113 -7 -29 -12 -43 -23 -43 -35 0 -25 -6 -24 -70 8 -45
22 -50 28 -34 34 10 4 33 5 51 2 41 -7 89 14 103 45 10 24 12 24 88 16 42 -5
97 -8 122 -7z m1800 -2 c18 -22 2 -38 -33 -31 -35 7 -59 24 -51 37 9 14 70 10
84 -6z m1590 -48 c0 -4 -3 -6 -7 -4 -5 2 -16 7 -26 10 -10 4 -16 11 -12 17 7
11 45 -9 45 -23z m240 24 c0 -5 -4 -11 -9 -13 -5 -1 -7 -15 -4 -31 4 -19 9
-25 17 -18 8 7 11 -3 11 -35 0 -24 -3 -44 -7 -44 -5 0 -8 12 -8 26 0 20 -4 25
-16 20 -13 -5 -15 -1 -10 18 3 14 1 26 -5 28 -7 2 -7 12 0 31 10 25 31 38 31
18z m-1600 -51 c13 -8 12 -11 -5 -24 -22 -16 -55 -5 -55 19 0 17 37 20 60 5z
m1310 0 c0 -5 -2 -10 -4 -10 -3 0 -8 5 -11 10 -3 6 -1 10 4 10 6 0 11 -4 11
-10z m-4732 -58 c2 -34 -2 -59 -11 -73 -19 -26 -26 -14 -34 50 -7 59 1 84 24
79 14 -2 19 -15 21 -56z m4562 38 c0 -5 -4 -10 -10 -10 -5 0 -10 5 -10 10 0 6
5 10 10 10 6 0 10 -4 10 -10z m250 -50 c0 -5 -5 -10 -11 -10 -5 0 -7 5 -4 10
3 6 8 10 11 10 2 0 4 -4 4 -10z m-3542 -12 c-6 -18 -58 -30 -58 -13 0 15 15
23 43 24 10 1 17 -4 15 -11z m3472 3 c0 -6 -4 -13 -10 -16 -5 -3 -10 1 -10 9
0 9 5 16 10 16 6 0 10 -4 10 -9z m-1280 -11 c12 -8 12 -10 -5 -10 -11 0 -27 5
-35 10 -12 8 -12 10 5 10 11 0 27 -5 35 -10z m1480 -29 c0 -18 -36 -36 -44
-22 -8 13 9 30 42 40 1 1 2 -7 2 -18z m50 2 c-1 -18 -18 -35 -24 -24 -4 6 -4
16 -1 21 7 12 25 13 25 3z m990 -7 c0 -13 -20 -26 -41 -26 -5 0 -9 9 -9 20 0
15 7 20 25 20 15 0 25 -6 25 -14z m-2550 -16 c6 -11 17 -20 25 -20 8 0 15 -4
15 -10 0 -5 -3 -10 -6 -10 -13 0 -64 35 -68 47 -8 21 22 15 34 -7z m1633 -6
c-4 -12 -8 -13 -14 -3 -9 15 -2 32 11 24 5 -3 6 -13 3 -21z m181 -2 c-1 -7 -2
-28 -2 -47 -2 -24 -7 -35 -17 -35 -12 0 -14 7 -11 28 2 15 5 38 5 50 1 14 6
22 14 20 6 -3 12 -10 11 -16z m-432 -34 c12 -25 -4 -22 -20 2 -7 12 -9 26 -6
32 6 9 9 8 12 -2 3 -8 9 -23 14 -32z m-4832 -43 c4 -5 6 -46 4 -90 -2 -44 -4
-83 -4 -87 0 -11 -28 -10 -34 0 -3 5 -1 26 5 47 7 25 7 45 1 59 -6 15 -6 42 1
81 9 48 12 54 15 30 2 -16 7 -34 12 -40z m1370 44 c0 -5 -4 -9 -10 -9 -5 0
-10 7 -10 16 0 8 5 12 10 9 6 -3 10 -10 10 -16z m425 -54 c0 -82 -15 -96 -27
-27 -9 53 -14 62 -37 62 -30 0 -43 -24 -35 -65 6 -34 5 -37 -17 -33 -22 3 -24
8 -24 52 0 47 1 49 30 51 24 2 110 29 110 34 0 0 0 -33 0 -74z m3265 35 c0
-16 -41 -32 -66 -26 -36 9 -29 24 14 29 20 2 40 4 45 5 4 1 7 -2 7 -8z m-2875
-26 c0 -10 -8 -20 -17 -22 -18 -3 -26 27 -11 42 12 11 28 0 28 -20z m191 12
c15 -11 16 -17 7 -27 -16 -16 -43 -4 -43 21 0 24 9 25 36 6z m-800 -20 c8 -34
1 -61 -16 -61 -16 0 -26 45 -16 71 8 22 25 17 32 -10z m699 4 c0 -7 -6 -15
-12 -17 -8 -3 -13 4 -13 17 0 13 5 20 13 18 6 -3 12 -11 12 -18z m1165 10 c0
-5 -4 -10 -10 -10 -5 0 -10 5 -10 10 0 6 5 10 10 10 6 0 10 -4 10 -10z m407
-12 c-3 -8 -6 -5 -6 6 -1 11 2 17 5 13 3 -3 4 -12 1 -19z m-2377 -14 c0 -16
-16 -19 -25 -4 -8 13 4 32 16 25 5 -4 9 -13 9 -21z m1030 2 c0 -20 -40 -32
-51 -15 -11 19 -2 29 27 29 14 0 24 -6 24 -14z m3565 -36 c0 -12 -13 -14 -70
-12 -38 2 -72 5 -74 7 -12 13 17 20 76 20 54 0 68 -3 68 -15z m-1075 -9 c0 -6
-4 -13 -10 -16 -5 -3 -10 1 -10 9 0 9 5 16 10 16 6 0 10 -4 10 -9z m70 -10 c0
-3 -5 -13 -10 -21 -12 -19 -33 0 -25 23 6 14 35 13 35 -2z m-3185 -1 c3 -5 1
-10 -4 -10 -6 0 -11 5 -11 10 0 6 2 10 4 10 3 0 8 -4 11 -10z m413 -2 c-6 -18
-28 -21 -28 -4 0 9 7 16 16 16 9 0 14 -5 12 -12z m-975 -84 c-38 -31 -63 -31
-63 1 0 20 5 25 25 25 16 0 31 10 42 27 l18 27 3 -28 c3 -22 -3 -35 -25 -52z
m667 66 c0 -5 -4 -10 -10 -10 -5 0 -10 5 -10 10 0 6 5 10 10 10 6 0 10 -4 10
-10z m125 0 c3 -6 -1 -13 -10 -16 -19 -8 -30 0 -20 15 8 14 22 14 30 1z m3995
-26 c19 -50 17 -51 -97 -56 -60 -3 -112 -1 -117 3 -6 5 -5 17 0 30 9 20 19 23
88 25 43 1 83 7 89 13 17 17 27 13 37 -15z m-1214 -22 c-4 -3 -11 0 -16 8 -15
24 -11 33 6 15 9 -9 13 -19 10 -23z m-279 6 c-3 -8 -6 -5 -6 6 -1 11 2 17 5
13 3 -3 4 -12 1 -19z m141 6 c-2 -11 9 -20 31 -28 42 -14 61 -40 43 -58 -10
-10 -15 -8 -27 9 -19 27 -59 37 -85 21 -28 -18 -48 3 -25 26 9 9 20 14 25 11
5 -3 11 4 15 15 8 24 27 27 23 4z m327 -24 c3 -5 -9 -17 -26 -26 -39 -20 -56
-3 -32 32 12 19 19 22 33 14 11 -6 22 -14 25 -20z m193 -18 c-2 -19 -18 -33
-63 -58 -71 -40 -88 -42 -83 -12 2 15 14 24 43 32 32 9 44 19 58 50 15 32 20
36 33 25 8 -7 14 -24 12 -37z m-2775 6 c10 -18 33 -58 52 -88 19 -30 34 -57
35 -60 0 -12 -148 -126 -195 -151 -27 -14 -102 -43 -165 -64 -63 -20 -122 -40
-130 -43 -8 -3 -37 -11 -65 -18 -27 -6 -84 -22 -125 -34 -41 -13 -93 -23 -115
-24 -36 -1 -40 2 -43 25 -2 14 3 30 10 36 7 5 72 29 145 53 72 23 147 52 165
63 45 28 101 57 110 57 16 0 95 59 131 99 12 13 28 29 35 35 51 42 92 86 108
114 10 17 21 32 24 32 4 0 14 -15 23 -32z m1919 0 c-15 -15 -26 -4 -18 18 5
13 9 15 18 6 9 -9 9 -15 0 -24z m-2210 -6 c-19 -6 -44 6 -37 18 4 7 14 6 28
-2 14 -7 17 -13 9 -16z m2143 9 c-6 -5 -28 -13 -50 -17 -36 -6 -39 -6 -26 9 8
10 28 17 49 17 22 0 32 -4 27 -9z m505 -1 c0 -5 -4 -10 -10 -10 -5 0 -10 5
-10 10 0 6 5 10 10 10 6 0 10 -4 10 -10z m-970 -16 c0 -8 -5 -12 -10 -9 -6 4
-8 11 -5 16 9 14 15 11 15 -7z m175 -18 c22 0 70 3 108 6 41 5 67 4 67 -2 0
-6 -9 -10 -19 -10 -11 0 -23 -4 -26 -10 -12 -19 -218 -2 -255 22 -10 6 2 6 35
2 28 -5 68 -8 90 -8z m871 -23 c-10 -10 -19 5 -10 18 6 11 8 11 12 0 2 -7 1
-15 -2 -18z m44 7 c0 -5 -5 -10 -11 -10 -5 0 -7 5 -4 10 3 6 8 10 11 10 2 0 4
-4 4 -10z m74 -6 c26 -10 18 -24 -14 -24 -29 0 -38 9 -23 23 8 9 17 9 37 1z
m1036 -18 c0 -8 -8 -24 -18 -36 -16 -20 -22 -22 -64 -13 -34 8 -51 7 -69 -3
-13 -7 -36 -13 -51 -14 -24 0 -28 4 -28 28 0 44 14 50 100 45 45 -3 86 -1 96
5 21 12 34 7 34 -12z m-1450 10 c0 -3 -4 -8 -10 -11 -5 -3 -10 -1 -10 4 0 6 5
11 10 11 6 0 10 -2 10 -4z m-4626 -32 c10 -9 16 -33 16 -58 0 -59 64 -159 115
-180 39 -17 45 -32 15 -41 -11 -3 -20 -12 -20 -18 0 -7 9 -20 20 -30 41 -34
26 -43 -75 -44 -85 -1 -95 0 -95 17 0 18 35 30 86 30 17 0 24 6 24 20 0 19
-48 40 -95 40 -19 0 -20 8 -22 131 -3 152 0 165 31 133z m4534 4 c15 -15 16
-82 1 -73 -6 4 -8 13 -5 21 4 11 0 13 -18 8 -13 -3 -34 -1 -45 5 -16 9 -28 8
-53 -5 -21 -11 -63 -18 -113 -20 -44 -2 -90 -7 -102 -10 -14 -4 -23 -2 -23 5
0 6 -14 11 -30 11 -36 0 -160 38 -160 49 0 4 21 4 48 -1 26 -5 63 -10 82 -12
19 -1 43 -6 53 -10 10 -5 44 -4 75 2 31 6 92 14 134 18 43 3 90 9 105 14 38
11 38 11 51 -2z m142 -35 c0 -19 -3 -24 -10 -17 -6 6 -8 18 -4 27 9 24 14 21
14 -10z m1490 18 c0 -6 -4 -13 -10 -16 -16 -10 -12 -88 6 -114 14 -19 14 -25
3 -32 -21 -13 -27 -11 -39 10 -16 30 -12 100 7 132 17 29 33 38 33 20z m390
-5 c0 -3 -4 -8 -10 -11 -5 -3 -10 -1 -10 4 0 6 5 11 10 11 6 0 10 -2 10 -4z
m-140 -42 c6 -14 13 -44 16 -67 4 -23 15 -50 25 -60 28 -26 23 -37 -15 -37
-19 0 -40 -2 -48 -5 -7 -3 -20 -1 -28 4 -12 9 -12 12 3 29 13 14 17 37 17 90
0 74 12 93 30 46z m-490 -44 c16 -25 -1 -40 -45 -40 -44 0 -71 19 -62 43 6 17
96 15 107 -3z m105 10 c12 -19 -16 -40 -51 -40 -37 0 -39 2 -24 31 12 21 64
27 75 9z m-1364 -67 c3 -199 1 -255 -9 -265 -13 -13 -18 7 -27 102 -3 36 -8
93 -12 127 -7 73 -1 93 27 93 18 0 20 -7 21 -57z m-153 -1 c5 -36 -4 -51 -28
-45 -29 8 -45 40 -29 59 18 22 53 13 57 -14z m-96 -9 c10 -9 18 -27 18 -40 0
-22 -4 -24 -37 -21 -32 2 -39 7 -41 27 -3 15 3 30 14 38 23 16 24 16 46 -4z
m-1891 -98 c-6 -42 -11 -94 -11 -116 0 -35 -3 -39 -25 -39 -35 0 -52 37 -36
81 6 17 11 51 11 75 0 37 4 45 32 62 18 12 34 19 36 17 2 -1 -1 -38 -7 -80z
m3313 76 c3 -5 -1 -12 -10 -15 -25 -10 -34 -7 -34 9 0 16 35 21 44 6z m206 -1
c0 -5 -13 -10 -30 -10 -16 0 -30 5 -30 10 0 6 14 10 30 10 17 0 30 -4 30 -10z
m-5275 -24 c28 -7 64 -20 80 -29 17 -8 53 -20 80 -25 65 -13 291 -69 332 -83
18 -6 38 -7 44 -3 17 10 68 7 83 -5 8 -7 13 -39 14 -90 1 -74 0 -79 -24 -89
-29 -14 -29 -20 -7 -66 13 -29 14 -40 5 -62 -15 -32 -36 -26 -40 12 -7 81 -12
94 -37 94 -30 0 -57 -27 -50 -50 3 -9 9 -47 14 -85 6 -57 5 -70 -10 -88 -25
-31 -33 -16 -36 66 -4 105 -8 117 -42 117 -46 0 -55 -20 -42 -93 18 -104 15
-181 -9 -202 -11 -10 -20 -14 -20 -9 -1 5 -2 61 -4 125 -5 140 -9 159 -41 159
-33 0 -57 -27 -48 -54 4 -11 7 -83 6 -158 0 -110 -4 -142 -17 -163 -19 -29
-52 -35 -41 -7 4 9 12 51 18 91 11 80 -2 263 -23 300 -5 11 -10 47 -10 80 0
38 -4 61 -12 64 -11 3 -62 -16 -76 -29 -6 -4 28 -224 40 -262 10 -35 6 -116
-14 -260 -10 -69 -16 -85 -36 -98 -31 -20 -36 -14 -23 32 23 84 34 279 22 396
-17 163 -80 393 -121 446 -36 45 -30 48 45 28z m-381 -13 c-4 -10 -9 -34 -12
-54 l-4 -37 -61 -5 c-49 -4 -65 -1 -75 12 -21 27 -9 44 41 57 26 7 58 19 70
28 31 21 51 21 41 -1z m172 -15 c-8 -18 -14 -74 -15 -124 -1 -77 1 -93 15 -98
34 -13 44 12 44 110 0 76 3 94 15 94 56 0 159 -422 114 -467 -9 -9 -8 -18 5
-37 21 -33 21 -148 0 -236 -10 -42 -13 -84 -9 -118 12 -98 -33 -110 -110 -29
-43 47 -53 64 -68 128 -10 41 -23 85 -29 99 -20 49 -66 272 -69 340 -4 76 1
154 9 146 4 -4 7 -36 7 -69 0 -59 1 -62 25 -62 l25 0 -3 102 c-5 129 19 253
48 253 5 0 3 -15 -4 -32z m1006 -32 c14 -21 8 -31 -24 -42 -18 -6 -41 -14 -50
-19 -32 -13 -33 23 -2 56 28 29 59 32 76 5z m2977 -48 c1 -20 6 -40 11 -43 8
-5 7 -11 -1 -21 -7 -8 -9 -27 -5 -46 5 -24 1 -37 -14 -53 -17 -18 -18 -25 -7
-48 13 -29 27 -36 27 -12 0 8 10 23 22 35 l22 20 23 -26 c28 -33 29 -58 3 -91
-11 -14 -17 -29 -14 -34 8 -13 24 -1 24 19 0 13 2 14 13 3 9 -11 9 -14 0 -18
-10 -3 -10 -10 -2 -24 7 -15 7 -24 -1 -34 -7 -8 -12 -35 -12 -60 -1 -59 -13
-65 -39 -21 -20 34 -66 55 -88 41 -6 -3 -15 4 -21 15 -11 21 -12 20 -48 -8
-20 -16 -51 -32 -69 -35 -28 -6 -35 -2 -63 33 -36 45 -52 49 -73 19 -13 -18
-13 -24 -1 -47 17 -34 18 -42 1 -42 -7 0 -30 27 -51 60 -40 63 -50 69 -81 47
-14 -11 -17 -22 -12 -45 8 -40 -8 -42 -21 -3 -15 42 -47 57 -78 36 -20 -13
-28 -14 -40 -4 -11 9 -19 8 -39 -5 -14 -9 -25 -23 -25 -31 0 -9 -11 -14 -27
-15 -143 -2 -161 -1 -177 15 -33 33 9 92 93 131 47 22 78 28 195 35 76 5 143
12 149 16 5 3 26 8 46 10 39 4 80 43 81 76 0 22 19 59 34 69 20 13 53 8 78
-12 20 -15 32 -18 57 -10 42 12 79 42 73 60 -11 34 -61 41 -69 10 -10 -39
-106 -42 -111 -3 -6 44 14 63 68 63 27 0 52 5 55 10 3 6 21 10 39 10 19 0 40
7 47 16 12 14 14 14 20 -3 4 -10 8 -35 8 -55z m1714 42 c7 -17 19 -30 29 -30
27 0 30 -16 14 -72 -9 -29 -20 -87 -25 -128 -15 -121 -69 -426 -96 -540 -13
-58 -27 -122 -31 -143 -5 -28 -12 -39 -30 -43 -33 -8 -54 2 -54 25 0 26 -9 31
-67 38 -27 3 -64 13 -83 24 -19 10 -46 24 -60 31 -14 7 -28 17 -32 22 -10 15
9 54 47 92 20 19 50 60 68 90 129 219 159 286 282 652 8 22 26 13 38 -18z
m-3863 -54 c0 -49 -4 -65 -16 -70 -26 -10 -34 3 -34 58 0 51 12 76 37 76 9 0
13 -18 13 -64z m-116 -34 c-6 -74 -9 -82 -34 -82 -22 0 -23 2 -20 73 1 30 8
55 18 66 28 29 41 7 36 -57z m4154 21 c-3 -32 -35 -44 -45 -17 -4 11 1 22 12
30 28 21 37 17 33 -13z m-4280 -41 c3 -32 -11 -62 -29 -62 -5 0 -9 13 -9 28 0
15 -5 33 -11 39 -16 16 -1 35 24 31 17 -2 23 -11 25 -36z m-495 -4 c4 -12 5
-23 4 -24 -7 -7 -163 -20 -170 -15 -4 4 -1 15 6 25 10 13 33 21 78 26 35 4 67
8 70 9 4 0 9 -9 12 -21z m-1289 1 c2 -2 1 -29 -1 -60 l-5 -57 -47 -6 c-37 -5
-49 -12 -63 -36 -12 -21 -25 -30 -42 -30 -36 0 -56 -10 -56 -29 0 -29 26 -54
66 -66 40 -11 56 -38 29 -49 -9 -3 -57 -8 -108 -11 l-92 -6 -25 34 c-13 19
-34 38 -45 43 -15 7 -19 16 -16 39 1 17 7 33 13 36 5 3 45 9 89 12 81 7 104
17 111 53 2 10 12 20 23 22 36 7 47 24 42 63 -3 21 0 42 6 48 10 10 113 9 121
0z m1676 -3 c0 -20 -22 -56 -34 -56 -16 0 -31 34 -21 50 6 10 55 15 55 6z
m4393 -43 c7 -34 1 -41 -38 -45 -26 -3 -30 1 -33 23 -3 22 2 29 25 37 40 15
40 15 46 -15z m-4733 -10 c0 -21 -19 -54 -48 -85 -32 -34 -40 -35 -52 -3 -5
14 -15 25 -21 25 -24 0 3 15 44 25 35 8 43 14 45 37 2 19 8 25 18 21 8 -3 14
-12 14 -20z m199 1 c-14 -18 -24 -11 -15 11 3 9 11 13 16 10 8 -5 7 -11 -1
-21z m-1858 -16 c5 -7 7 -17 6 -22 -4 -14 -55 -29 -72 -22 -14 5 -21 47 -10
57 10 10 68 0 76 -13z m2337 -17 c3 -27 0 -32 -15 -29 -19 3 -28 30 -19 54 10
26 31 10 34 -25z m-592 2 c-10 -10 -19 5 -10 18 6 11 8 11 12 0 2 -7 1 -15 -2
-18z m703 8 c29 -22 20 -41 -20 -41 -29 0 -35 12 -23 44 8 20 13 20 43 -3z
m2190 2 c30 -29 44 -88 36 -151 l-8 -57 -9 40 c-6 22 -16 65 -22 95 -7 30 -16
63 -21 73 -4 9 -4 17 -1 17 4 0 15 -8 25 -17z m-2539 -33 c0 -11 -7 -20 -15
-20 -27 0 -18 30 13 39 1 1 2 -8 2 -19z m-110 -5 c0 -8 -9 -15 -20 -15 -11 0
-20 7 -20 15 0 8 9 15 20 15 11 0 20 -7 20 -15z m230 5 c0 -5 -4 -10 -9 -10
-6 0 -13 5 -16 10 -3 6 1 10 9 10 9 0 16 -4 16 -10z m-360 -14 c0 -3 -4 -8
-10 -11 -5 -3 -10 -1 -10 4 0 6 5 11 10 11 6 0 10 -2 10 -4z m4558 -55 c-3
-23 -8 -26 -43 -27 -22 0 -48 -4 -57 -8 -15 -7 -18 -3 -18 22 0 34 21 56 47
48 10 -3 25 -1 33 4 21 13 42 -8 38 -39z m-4193 29 c3 -6 -4 -10 -17 -10 -18
0 -20 2 -8 10 19 12 18 12 25 0z m245 -10 c0 -5 -2 -10 -4 -10 -3 0 -8 5 -11
10 -3 6 -1 10 4 10 6 0 11 -4 11 -10z m-2146 -36 c3 -9 6 -30 6 -47 0 -38 42
-242 64 -312 9 -27 16 -60 16 -73 0 -40 46 -125 100 -184 28 -32 48 -62 45
-68 -4 -6 -21 -8 -38 -5 -65 10 -276 26 -422 31 -82 3 -156 7 -162 9 -10 3
-13 37 -13 124 0 104 2 119 18 124 9 4 29 16 43 28 24 19 31 20 61 10 49 -16
146 -7 177 17 32 23 40 72 15 93 -9 8 -42 16 -73 19 l-56 6 55 16 c30 10 67
20 81 22 14 3 38 17 53 31 24 23 28 32 22 63 -3 21 -15 44 -28 53 -22 17 -22
18 -4 38 23 25 32 26 40 5z m2142 -29 c10 -8 27 -15 36 -15 9 0 28 -15 42 -33
30 -39 34 -57 9 -35 -26 21 -120 68 -138 68 -8 0 -15 7 -15 15 0 19 40 20 66
0z m3974 -60 l0 -35 -60 -2 c-33 -1 -70 -2 -82 -2 -19 -1 -22 4 -20 23 1 14 4
27 7 29 8 8 71 20 113 21 42 1 42 1 42 -34z m31 -76 c4 -8 21 -44 39 -81 18
-37 46 -82 62 -100 42 -48 34 -60 -42 -64 -36 -2 -96 -10 -135 -16 -38 -7 -84
-11 -102 -10 -17 1 -38 -5 -47 -13 -17 -18 -26 -8 -17 19 4 10 23 24 41 30 46
15 53 46 11 46 -26 0 -31 4 -31 23 1 40 41 58 138 60 70 2 87 5 87 17 0 13
-18 15 -107 13 l-108 -2 0 24 c0 26 40 60 61 53 6 -2 37 2 68 8 64 14 72 13
82 -7z m-6531 -140 c0 -20 -15 -26 -25 -9 -9 15 3 43 15 35 5 -3 10 -15 10
-26z m1960 -13 c376 -6 542 -15 568 -32 45 -29 3 -50 -132 -64 -100 -11 -141
-17 -230 -30 -32 -5 -62 -7 -67 -5 -4 3 -19 1 -33 -5 -53 -20 -15 -92 47 -88
18 1 42 -4 55 -11 13 -7 58 -13 100 -14 73 -2 77 -3 90 -30 16 -32 55 -51 90
-42 12 3 27 3 33 0 5 -4 35 -8 67 -9 63 -3 152 -25 152 -39 0 -11 -225 0 -289
14 -29 7 -107 6 -225 -1 -148 -10 -349 -13 -559 -10 -36 0 -27 15 13 23 21 5
30 12 30 27 0 18 -7 20 -67 21 -97 1 -144 6 -265 26 -90 14 -108 20 -108 35 0
15 11 17 93 16 121 -1 191 9 222 34 49 39 18 98 -52 98 -39 0 -83 19 -83 36 0
7 25 17 58 23 31 6 84 17 117 25 33 8 83 13 110 10 28 -2 147 -6 265 -8z
m4767 -139 c13 -17 33 -45 45 -60 17 -21 20 -32 12 -44 -15 -23 -131 -56 -245
-68 -19 -2 -48 -9 -64 -15 -27 -10 -197 -12 -222 -3 -15 6 -18 33 -4 33 6 0
13 -5 17 -11 4 -8 9 -8 17 0 6 6 21 11 34 11 13 0 23 5 23 10 0 6 18 10 39 10
22 0 42 4 45 9 3 5 23 11 43 15 91 13 113 19 113 28 0 5 15 6 33 3 20 -4 39
-1 51 8 53 39 -47 44 -164 7 -36 -11 -90 -23 -120 -26 -30 -4 -68 -16 -83 -27
-40 -27 -51 -12 -36 46 11 47 11 47 48 41 26 -4 41 -2 49 9 9 11 24 13 52 10
22 -3 45 -1 52 5 7 6 53 13 102 16 58 4 95 11 104 20 19 19 32 13 59 -27z
m-5669 -91 c14 -2 29 -15 40 -36 14 -28 26 -36 71 -47 30 -7 56 -11 58 -9 3 3
26 -2 51 -10 26 -7 65 -14 86 -14 28 0 37 -3 29 -11 -12 -12 -577 -19 -588 -7
-7 7 42 58 56 58 4 0 31 21 61 46 45 39 57 44 83 39 17 -3 40 -7 53 -9z"/>
<path d="M4097 13273 c-25 -4 -28 -8 -25 -35 2 -17 11 -36 21 -42 15 -9 22 -6
39 14 11 14 24 24 28 23 4 -1 5 9 2 22 -4 25 -8 26 -65 18z m48 -13 c3 -5 1
-10 -4 -10 -6 0 -11 5 -11 10 0 6 2 10 4 10 3 0 8 -4 11 -10z"/>
<path d="M4267 13186 c-12 -9 -32 -12 -57 -9 -27 4 -47 0 -65 -11 -30 -20 -33
-46 -5 -46 23 0 39 -28 22 -39 -14 -9 -62 -119 -62 -145 0 -28 -15 -50 -29
-42 -6 4 -11 16 -11 26 0 10 -4 22 -10 25 -13 8 -70 129 -70 150 0 9 9 19 19
22 27 7 32 27 14 53 -14 20 -21 21 -82 15 -36 -4 -73 -14 -81 -21 -13 -13 -10
-19 26 -52 27 -23 48 -55 59 -87 10 -27 28 -72 40 -100 25 -55 24 -125 -1
-125 -17 0 -18 -14 -1 -28 17 -14 101 -18 165 -8 42 6 52 12 52 27 0 12 -7 19
-19 19 -26 0 -34 15 -16 30 7 6 21 35 31 63 9 29 24 66 33 82 9 17 23 49 31
73 9 29 23 48 42 58 32 17 48 61 27 75 -19 12 -31 11 -52 -5z"/>
<path d="M7671 11294 c0 -11 3 -14 6 -6 3 7 2 16 -1 19 -3 4 -6 -2 -5 -13z"/>
<path d="M6445 11290 c-3 -5 -1 -10 4 -10 6 0 11 5 11 10 0 6 -2 10 -4 10 -3
0 -8 -4 -11 -10z"/>
<path d="M1600 9979 c0 -5 5 -7 10 -4 6 3 10 8 10 11 0 2 -4 4 -10 4 -5 0 -10
-5 -10 -11z"/>
<path d="M600 9816 c0 -8 -5 -16 -11 -18 -15 -5 17 -38 37 -38 8 0 14 9 14 19
0 11 3 26 6 35 5 12 0 16 -20 16 -16 0 -26 -6 -26 -14z"/>
<path d="M1920 5207 c0 -14 6 -27 14 -30 13 -5 24 -51 31 -131 2 -22 9 -43 16
-47 7 -4 8 -12 3 -20 -5 -8 -9 -63 -10 -124 -1 -104 -13 -244 -29 -327 -7 -36
-6 -38 18 -38 40 0 57 10 57 35 0 27 14 40 32 29 7 -4 26 -9 42 -11 35 -4 45
-12 51 -41 2 -12 7 -27 10 -32 4 -6 -7 -15 -24 -21 -20 -7 -31 -18 -31 -29 0
-28 15 -33 81 -25 55 7 62 10 71 36 10 30 22 37 33 19 3 -5 22 -10 42 -10 22
0 54 -11 82 -28 31 -20 67 -31 111 -36 35 -4 72 -12 81 -17 22 -11 49 -2 49
17 0 8 11 19 24 25 19 9 32 6 75 -18 29 -15 70 -38 92 -50 22 -11 62 -24 90
-28 43 -6 56 -4 79 14 l29 21 83 -26 c47 -15 129 -30 188 -35 58 -5 114 -10
125 -12 26 -3 32 29 7 37 -10 4 -59 10 -108 15 -49 5 -109 16 -134 25 -25 9
-69 24 -99 32 -71 19 -73 21 -66 55 5 22 0 36 -22 64 -16 19 -37 35 -48 35
-22 0 -45 17 -45 33 0 5 9 7 20 4 29 -7 39 19 30 78 -4 27 -4 61 0 75 11 40
39 90 50 90 16 0 12 -20 -10 -47 -40 -51 -15 -156 32 -138 13 5 17 -4 22 -42
4 -26 7 -64 7 -83 0 -38 11 -55 52 -80 23 -14 36 -16 73 -8 41 9 49 7 84 -16
46 -30 65 -33 79 -9 8 15 12 16 34 4 37 -20 67 3 67 49 0 57 -50 87 -101 60
-30 -16 -35 13 -10 55 30 51 26 85 -16 160 -21 37 -44 76 -50 88 -7 12 -13 37
-13 54 0 18 -9 52 -19 75 -11 24 -22 51 -25 61 -6 20 -53 23 -77 4 -9 -7 -28
-31 -42 -54 -30 -48 -41 -52 -57 -24 -7 14 -6 29 5 55 23 54 20 76 -10 76 -18
0 -28 7 -35 25 -11 29 -44 34 -56 8 -6 -15 -8 -12 -13 12 -7 37 -39 45 -65 16
-17 -18 -16 -21 8 -75 39 -84 35 -91 -32 -56 -39 21 -72 18 -72 -4 0 -19 42
-54 78 -67 18 -6 32 -17 32 -25 0 -24 -70 -16 -135 15 -62 30 -85 30 -85 2 0
-22 17 -43 53 -64 30 -19 35 -42 12 -51 -18 -7 -20 -47 -3 -64 7 -7 27 -12 45
-12 30 0 33 -3 32 -27 -1 -16 1 -43 5 -62 l8 -33 -33 7 c-38 8 -69 31 -69 51
0 21 -50 28 -99 14 -54 -15 -84 -15 -166 -1 -33 6 -68 8 -77 5 -14 -4 -18 0
-18 18 0 13 4 28 9 34 4 5 11 22 15 37 6 24 3 30 -15 34 -19 5 -21 10 -15 52
16 102 17 139 7 146 -6 3 -11 24 -11 45 0 33 -4 41 -32 56 -21 10 -59 17 -103
18 -77 2 -130 23 -140 56 -3 11 -18 23 -33 26 -15 4 -34 13 -43 20 -8 8 -30
17 -47 20 -29 6 -32 4 -32 -19z m253 -205 c18 -5 33 -16 35 -25 4 -20 -6 -17
-85 20 -54 26 -57 30 -47 57 5 13 11 10 36 -14 16 -16 44 -33 61 -38z m-3 -79
c3 1 19 -4 37 -12 28 -11 52 -45 41 -56 -2 -2 -32 1 -66 8 -57 11 -62 14 -62
38 0 32 8 41 29 30 9 -5 18 -8 21 -8z m1020 -58 c0 -7 -6 -18 -14 -22 -25 -15
-38 -51 -25 -74 14 -26 -2 -47 -20 -25 -7 8 -11 35 -9 62 2 40 7 51 28 61 32
16 40 16 40 -2z m-1013 -67 c7 -5 24 -7 37 -4 20 5 27 1 40 -26 22 -43 21 -68
-4 -68 -11 0 -20 7 -20 15 0 42 -54 82 -102 76 -12 -2 -18 5 -18 18 0 18 3 19
27 10 15 -6 33 -15 40 -21z m671 -1 c2 -10 -3 -17 -12 -17 -18 0 -29 16 -21
31 9 14 29 6 33 -14z m351 -97 c-18 -32 -21 -46 -13 -68 12 -34 47 -41 70 -13
28 32 36 13 12 -32 -27 -54 -44 -66 -93 -67 l-40 0 -2 63 c-1 36 4 70 11 82 7
11 16 32 20 48 5 21 12 27 32 27 l25 0 -22 -40z m-903 -160 c25 -10 33 -40 10
-40 -68 0 -92 25 -61 66 8 10 15 28 16 39 1 11 4 3 6 -18 3 -29 10 -40 29 -47z
m291 50 c45 1 58 -3 92 -31 39 -31 144 -64 164 -52 5 3 23 -10 41 -28 17 -19
41 -42 54 -51 18 -12 22 -21 16 -43 -6 -24 -10 -27 -39 -22 -18 3 -57 22 -85
41 -29 20 -64 39 -79 43 -14 3 -45 19 -68 35 -47 34 -79 31 -89 -8 -8 -32 -48
-32 -96 1 -20 14 -50 25 -67 25 -25 0 -31 5 -41 36 -17 52 -1 62 94 56 28 -2
75 -3 103 -2z"/>
<path d="M1328 4563 c-9 -2 -20 -13 -24 -25 -7 -22 13 -105 27 -114 5 -3 9
-12 9 -20 0 -12 -7 -14 -28 -9 -35 7 -76 -22 -100 -73 -12 -27 -35 -47 -84
-75 -64 -36 -81 -58 -58 -72 11 -7 107 34 131 56 8 8 24 19 34 25 11 6 25 20
30 31 6 11 15 18 22 16 32 -11 119 64 125 107 2 20 10 26 36 30 l33 5 -28 43
c-15 23 -35 44 -44 47 -10 3 -20 12 -23 20 -5 15 -24 17 -58 8z"/>
<path d="M1670 4473 c-57 -9 -70 -14 -70 -28 0 -23 45 -40 72 -28 16 7 36 6
68 -4 25 -8 55 -12 67 -10 13 2 24 -2 28 -11 4 -11 16 -13 53 -9 40 4 52 2 77
-19 17 -13 37 -24 46 -24 8 0 24 -7 35 -15 36 -27 94 -14 94 22 0 7 -12 13
-27 13 -16 1 -46 14 -68 30 -118 87 -109 83 -162 70 -63 -16 -99 -14 -125 5
-22 15 -38 16 -88 8z"/>
<path d="M1506 4451 c-37 -40 15 -58 52 -18 28 30 28 32 -6 35 -18 1 -36 -5
-46 -17z"/>
<path d="M5162 7015 c0 -16 2 -22 5 -12 2 9 2 23 0 30 -3 6 -5 -1 -5 -18z"/>
<path d="M1358 5613 c-19 -5 -24 -21 -31 -95 -3 -29 0 -54 8 -65 12 -16 14
-16 38 0 21 14 26 27 32 81 9 83 4 92 -47 79z"/>
<path d="M1580 5063 c-24 -8 -38 -32 -33 -53 7 -27 62 -28 64 -2 3 45 -7 62
-31 55z"/>
<path d="M1693 5054 c-3 -8 -1 -20 4 -25 14 -14 63 7 63 26 0 21 -59 20 -67
-1z"/>
<path d="M5030 4478 c0 -7 5 -20 10 -28 8 -12 10 -11 10 7 0 12 -4 25 -10 28
-5 3 -10 0 -10 -7z"/>
<path d="M6095 4076 c-17 -7 -36 -20 -44 -29 -7 -10 -22 -17 -33 -17 -30 0
-99 -43 -96 -60 5 -23 66 -25 97 -2 14 10 56 33 94 51 49 23 67 37 67 52 0 23
-38 25 -85 5z"/>
<path d="M7523 3120 c-31 -12 -29 -36 2 -44 46 -12 90 32 49 48 -19 7 -23 7
-51 -4z"/>
<path d="M5741 3474 c0 -11 3 -14 6 -6 3 7 2 16 -1 19 -3 4 -6 -2 -5 -13z"/>
<path d="M6773 3603 c-14 -3 -23 -12 -23 -24 0 -16 7 -19 53 -19 28 0 60 -7
70 -14 23 -18 57 -9 57 15 0 10 -9 23 -20 29 -24 13 -105 21 -137 13z"/>
<path d="M5770 3090 c0 -5 5 -10 10 -10 6 0 10 5 10 10 0 6 -4 10 -10 10 -5 0
-10 -4 -10 -10z"/>
<path d="M5777 3023 c-4 -3 -7 -11 -7 -17 0 -6 5 -5 12 2 6 6 9 14 7 17 -3 3
-9 2 -12 -2z"/>
<path d="M5720 2732 c0 -26 11 -34 27 -21 20 17 16 39 -7 39 -13 0 -20 -7 -20
-18z"/>
<path d="M5744 2551 c-12 -14 -24 -43 -28 -63 -6 -34 -5 -38 19 -44 20 -5 33
0 55 21 30 29 30 55 1 55 -25 0 -32 10 -21 31 16 29 -3 29 -26 0z"/>
<path d="M5790 2570 c0 -5 5 -10 11 -10 5 0 7 5 4 10 -3 6 -8 10 -11 10 -2 0
-4 -4 -4 -10z"/>
<path d="M5790 2425 c-10 -12 -10 -21 0 -45 20 -48 38 -35 35 24 -2 35 -16 43
-35 21z"/>
<path d="M1135 2130 c-4 -6 -1 -17 5 -26 15 -18 42 0 33 22 -6 16 -29 19 -38
4z"/>
<path d="M6957 2183 c-21 -20 8 -48 38 -37 25 10 18 44 -8 44 -13 0 -27 -3
-30 -7z"/>
<path d="M5090 1541 c0 -25 6 -27 13 -6 4 8 2 17 -3 20 -6 4 -10 -3 -10 -14z"/>
<path d="M1478 1109 c-19 -10 -25 -39 -9 -39 28 0 60 21 55 35 -7 17 -22 19
-46 4z"/>
<path d="M4807 1196 c-3 -8 -21 -16 -39 -18 l-33 -4 30 -13 c17 -7 43 -19 59
-26 16 -8 32 -12 37 -9 14 8 11 37 -7 62 -17 25 -39 29 -47 8z"/>
<path d="M4974 1066 c-28 -44 -13 -64 26 -34 24 17 26 23 16 44 -14 31 -17 30
-42 -10z"/>
<path d="M6868 757 c-30 -7 -48 -16 -48 -25 0 -11 12 -13 63 -8 59 5 94 12
127 23 12 4 11 7 -5 13 -26 11 -78 10 -137 -3z"/>
<path d="M7140 570 c0 -13 7 -20 19 -20 25 0 38 20 20 31 -23 15 -39 10 -39
-11z"/>
</g>
</svg>
