<?xml version="1.0" standalone="no"?>
<!DOCTYPE svg PUBLIC "-//W3C//DTD SVG 20010904//EN"
 "http://www.w3.org/TR/2001/REC-SVG-20010904/DTD/svg10.dtd">
<svg version="1.0" xmlns="http://www.w3.org/2000/svg"
 width="837.000000pt" height="1404.000000pt" viewBox="0 0 837.000000 1404.000000"
 preserveAspectRatio="xMidYMid meet">
<metadata>
Created by potrace 1.16, written by Peter Selinger 2001-2019
</metadata>
<g transform="translate(0.000000,1404.000000) scale(0.100000,-0.100000)"
fill="#000000" stroke="none">
<path d="M1395 13728 c-71 -4 -299 -9 -507 -11 -401 -4 -389 -3 -416 -54 -12
-22 -17 -642 -9 -1053 2 -113 3 -208 1 -211 -2 -4 -6 -580 -9 -1280 -3 -701
-7 -1326 -9 -1389 -3 -63 0 -162 5 -220 10 -111 13 -386 3 -401 -4 -8 -5 -456
-2 -1679 0 -91 -2 -649 -4 -1240 -3 -714 -1 -1086 6 -1108 7 -24 7 -39 -2 -52
-7 -12 -9 -36 -6 -62 3 -24 1 -84 -6 -133 -10 -70 -22 -573 -22 -900 0 -78 1
-264 2 -295 2 -77 0 -484 -6 -1515 -11 -1611 -13 -1441 12 -1466 27 -26 149
-38 279 -26 22 2 47 0 56 -4 9 -5 20 -4 25 1 6 6 20 4 38 -5 34 -18 66 -19 66
-3 0 6 7 3 15 -8 13 -17 14 -17 15 -2 0 17 29 18 458 19 414 0 569 -1 642 -5
14 0 31 -5 39 -10 8 -5 16 -5 20 1 3 5 38 10 76 11 39 0 225 4 415 7 190 4
368 7 395 7 226 -1 365 -6 365 -13 0 -5 7 -9 15 -9 8 0 15 6 15 13 0 8 3 9 8
1 4 -6 14 -10 22 -9 8 2 27 5 42 8 15 3 28 1 30 -4 2 -7 21 -5 51 3 37 10 52
10 67 0 13 -8 27 -9 43 -3 27 11 834 7 858 -3 10 -4 20 -3 24 3 7 12 87 15 98
4 11 -11 71 -10 92 1 23 12 23 12 160 21 164 10 342 7 364 -7 15 -9 25 -9 46
0 32 15 65 16 65 2 0 -5 9 -10 20 -10 11 0 20 4 20 9 0 11 177 22 418 27 106
2 201 8 212 14 11 6 28 7 42 2 13 -5 50 -7 83 -4 138 9 531 6 569 -6 32 -9 54
-8 113 4 76 15 109 15 403 -6 180 -12 315 -25 348 -33 12 -3 63 1 113 9 49 8
100 12 112 8 15 -3 32 2 46 13 22 18 22 19 26 403 2 229 8 397 14 415 16 46
18 190 7 425 -7 137 -8 317 -3 495 10 324 9 804 -2 887 -5 40 -5 3053 0 3198
0 8 -2 121 -6 250 -5 175 -4 244 6 272 8 26 9 41 2 50 -7 9 -8 50 -1 128 6 76
5 129 -1 156 -6 22 -10 119 -10 215 1 96 -4 203 -11 239 -6 35 -11 94 -10 130
4 229 -2 509 -16 790 -5 97 -5 84 2 170 2 36 5 81 4 100 -1 217 2 692 6 790 2
69 4 179 4 245 -1 696 8 2092 14 2263 2 61 0 112 -5 112 -5 0 -3 11 3 25 8 19
8 35 -1 66 -8 25 -9 45 -3 52 10 13 8 189 -2 206 -4 5 -1 13 5 17 9 5 10 46 4
148 -4 78 -7 256 -7 396 1 140 -2 284 -6 320 l-7 65 -50 1 c-27 0 -75 1 -105
2 -30 1 -91 0 -135 -3 -44 -3 -125 -7 -180 -9 -55 -2 -152 -8 -215 -12 -63 -4
-117 -7 -120 -7 -13 2 -341 14 -480 18 -85 2 -207 8 -270 12 -120 7 -534 9
-1185 3 -209 -1 -436 0 -505 4 -113 7 -309 7 -905 0 -110 -1 -207 -3 -215 -5
-8 -2 -80 0 -160 5 -80 4 -458 9 -840 11 -382 2 -751 5 -820 7 -69 2 -183 0
-255 -4z m1005 -92 c341 -8 1356 -10 1560 -3 230 9 517 9 620 0 52 -4 138 -7
190 -6 52 1 118 1 145 0 83 -3 494 -2 755 2 237 3 302 1 605 -19 77 -5 235 -9
350 -9 116 -1 269 -3 340 -5 72 -1 200 1 285 5 236 13 412 12 458 -1 38 -12
40 -14 46 -64 3 -28 10 -77 15 -109 5 -31 8 -101 6 -155 -5 -126 -5 -136 3
-472 4 -157 7 -361 5 -455 -1 -93 -4 -312 -6 -486 -2 -174 -7 -321 -11 -328
-4 -7 -8 -44 -8 -84 0 -39 -4 -79 -8 -87 -5 -9 -2 -67 7 -135 12 -92 13 -150
7 -251 -5 -73 -6 -149 -3 -170 4 -20 3 -51 -2 -68 -5 -17 -9 -51 -9 -76 0 -25
1 -430 3 -900 1 -629 5 -860 14 -875 8 -14 8 -25 0 -40 -7 -13 -10 -83 -10
-197 2 -199 5 -191 -69 -158 -32 14 -59 37 -89 77 -69 92 -120 143 -158 159
-41 17 -91 62 -91 81 0 7 -9 33 -21 57 -17 36 -28 47 -67 61 -26 10 -59 26
-74 36 -14 11 -31 19 -37 19 -7 0 -23 8 -38 17 -18 12 -51 18 -107 20 -44 1
-105 9 -134 17 -29 8 -59 13 -66 10 -8 -3 -28 2 -45 10 -16 9 -45 16 -64 16
-19 0 -40 6 -46 13 -6 8 -35 22 -66 32 -30 11 -55 22 -55 26 0 3 -14 9 -32 13
-18 3 -42 16 -55 28 -19 17 -30 20 -69 14 -26 -3 -61 -14 -78 -25 -17 -10 -43
-21 -58 -25 -15 -3 -39 -23 -54 -44 -71 -97 -213 -190 -269 -176 -22 5 -34 -2
-83 -52 -31 -33 -77 -85 -100 -116 -25 -33 -56 -61 -73 -67 -17 -6 -42 -19
-56 -31 -33 -25 -65 -26 -80 0 -7 11 -26 26 -41 34 -25 13 -36 13 -82 1 -28
-8 -55 -16 -58 -20 -3 -3 -29 -50 -56 -104 -28 -54 -72 -136 -98 -181 -27 -45
-48 -88 -48 -96 0 -7 -8 -19 -17 -26 -10 -7 -27 -30 -38 -51 -26 -52 -105
-103 -186 -121 -35 -8 -124 -22 -198 -31 -74 -9 -141 -20 -150 -25 -32 -17
-54 -50 -67 -102 -35 -139 -68 -235 -119 -341 -30 -64 -55 -122 -55 -130 0 -8
-14 -31 -30 -52 -17 -21 -30 -42 -30 -47 0 -5 -21 -31 -46 -58 -39 -41 -47
-58 -51 -97 -3 -27 -24 -88 -49 -141 -24 -51 -44 -99 -44 -108 0 -26 -18 -51
-42 -57 -37 -10 -67 -44 -79 -91 l-11 -43 -89 -6 c-50 -4 -99 -12 -109 -17
-28 -15 -46 -55 -58 -129 -7 -35 -13 -65 -14 -66 -70 -46 -194 -83 -226 -66
-10 5 -24 28 -30 49 -26 85 -69 103 -153 65 -24 -12 -56 -26 -71 -32 -16 -6
-28 -18 -28 -26 0 -9 -22 -25 -52 -39 -47 -21 -54 -22 -65 -9 -7 9 -32 37 -58
64 l-45 48 -46 -16 c-25 -8 -46 -14 -47 -12 -1 2 -13 16 -26 31 -14 17 -27 48
-32 79 -4 28 -15 61 -23 74 -8 13 -58 44 -110 70 -86 43 -97 47 -127 36 -46
-16 -42 -20 -134 172 -27 56 -96 127 -124 127 -7 0 -36 -11 -66 -25 -48 -23
-69 -42 -128 -114 -20 -25 -6 -31 -124 47 -30 20 -57 47 -64 64 -7 17 -27 48
-45 69 -18 22 -54 83 -79 137 -26 53 -53 104 -60 112 -7 8 -16 26 -20 40 -4
14 -15 36 -25 50 -9 14 -29 54 -43 90 -47 117 -69 154 -125 212 -30 31 -61 70
-68 87 -8 19 -34 44 -68 66 -30 19 -57 39 -61 45 -14 23 -56 8 -107 -37 -64
-56 -126 -145 -190 -271 -27 -55 -65 -111 -90 -136 -24 -23 -60 -63 -81 -89
-21 -26 -43 -47 -50 -47 -6 0 -21 9 -33 20 -21 20 -22 20 -58 4 -27 -13 -39
-27 -46 -53 -5 -20 -20 -52 -34 -72 -13 -19 -31 -52 -40 -72 -15 -36 -40 -49
-49 -24 -2 6 -1 19 3 27 5 8 11 265 15 570 17 1237 24 1676 32 1840 4 80 7
163 7 185 -1 63 -1 166 0 370 0 271 0 387 -4 585 -4 193 -4 656 -1 905 1 88
-1 194 -3 235 -11 161 -9 517 3 590 11 69 10 250 -3 340 -6 47 -8 180 -7 462
l1 236 123 6 c67 3 176 5 242 4 213 -3 287 -2 465 6 96 5 176 9 177 10 4 4
594 -2 843 -8z m3970 -4510 c0 -8 -4 -17 -9 -21 -12 -7 -24 12 -16 25 9 15 25
12 25 -4z m-90 -104 c0 -37 1 -80 2 -97 3 -25 -1 -31 -22 -33 -14 -2 -32 -10
-41 -18 -11 -10 -38 -15 -80 -14 -35 0 -75 -1 -89 -2 -19 -2 -26 2 -28 19 -3
17 5 26 30 37 45 20 81 49 152 123 32 34 63 60 68 57 5 -3 8 -36 8 -72z m243
33 c30 -27 29 -39 -3 -48 -33 -9 -67 43 -43 66 10 11 16 8 46 -18z m-96 -47
c-3 -8 -6 -5 -6 6 -1 11 2 17 5 13 3 -3 4 -12 1 -19z m330 -3 c35 -8 116 -21
182 -29 141 -18 301 -74 301 -106 0 -11 -4 -22 -10 -25 -5 -3 -10 -10 -10 -14
0 -17 87 -96 190 -173 27 -20 59 -59 80 -96 19 -33 49 -82 67 -108 35 -50 69
-131 60 -140 -12 -13 -30 11 -68 92 -39 83 -108 162 -225 259 -20 17 -45 40
-57 53 -24 26 -49 28 -67 7 -11 -14 -15 -14 -29 -1 -9 9 -26 13 -38 10 -14 -4
-27 2 -41 21 -17 21 -27 26 -47 21 -39 -10 -30 -34 38 -100 63 -61 97 -112 97
-148 0 -10 -6 -18 -13 -18 -14 0 -107 96 -107 112 0 5 -13 8 -29 7 -23 -3 -36
5 -69 44 -22 25 -47 55 -54 66 -7 10 -31 30 -53 42 -51 30 -135 121 -135 147
0 6 -13 22 -30 35 -33 28 -40 57 -12 57 9 0 45 -7 79 -15z m-99 -92 c25 -25
82 -115 82 -130 0 -49 -97 53 -107 112 -6 39 0 43 25 18z m-95 -52 c12 -20 14
-32 7 -36 -15 -9 -50 24 -50 47 0 28 24 22 43 -11z m-635 -27 c-19 -19 -38
-11 -38 16 0 24 21 31 40 14 12 -12 12 -16 -2 -30z m552 -68 c0 -21 -21 -31
-30 -15 -5 7 -6 17 -4 21 9 14 34 9 34 -6z m-654 -53 c-11 -11 -19 6 -11 24 8
17 8 17 12 0 3 -10 2 -21 -1 -24z m1974 17 c0 -5 -2 -10 -4 -10 -3 0 -8 5 -11
10 -3 6 -1 10 4 10 6 0 11 -4 11 -10z m-1174 -31 c8 -14 -11 -33 -25 -25 -11
7 -4 36 9 36 5 0 12 -5 16 -11z m-496 -25 c0 -21 44 -17 65 6 40 44 56 15 34
-62 -10 -38 -22 -47 -34 -28 -10 17 -29 11 -45 -12 -9 -15 -13 -44 -11 -80 2
-57 -14 -82 -23 -35 -8 40 -15 194 -9 216 6 22 23 19 23 -5z m-316 -16 c8 -38
1 -47 -20 -26 -10 10 -14 23 -9 37 9 30 22 26 29 -11z m967 -20 c26 -21 52
-38 57 -38 6 0 32 -18 59 -40 26 -21 63 -51 81 -66 31 -25 43 -54 22 -54 -11
0 -98 57 -124 82 -8 7 -31 24 -51 38 -57 40 -127 109 -120 120 8 12 17 7 76
-42z m-366 23 c3 -5 1 -12 -5 -16 -5 -3 -10 1 -10 9 0 18 6 21 15 7z m495 -16
c6 -8 9 -19 5 -25 -9 -14 -45 6 -45 25 0 19 24 19 40 0z m-1204 -21 c-3 -9 -6
-29 -6 -46 0 -29 -2 -30 -31 -24 -21 4 -46 -1 -76 -14 -49 -21 -93 -26 -93
-10 0 6 5 10 12 10 6 0 27 12 47 28 77 59 161 91 147 56z m332 4 c-6 -18 -28
-21 -28 -4 0 9 7 16 16 16 9 0 14 -5 12 -12z m917 -28 c3 -5 1 -10 -4 -10 -6
0 -11 5 -11 10 0 6 2 10 4 10 3 0 8 -4 11 -10z m307 -52 c-6 -6 -15 -9 -18 -5
-4 3 -4 14 0 23 5 13 9 15 18 6 9 -9 9 -15 0 -24z m-952 2 c7 -12 7 -26 2 -36
-8 -14 -10 -14 -25 0 -15 16 -13 56 4 56 4 0 13 -9 19 -20z m714 4 c16 -16 21
-34 9 -34 -10 0 -43 32 -43 42 0 13 17 9 34 -8z m-1174 -74 c0 -5 -7 -10 -15
-10 -8 0 -15 5 -15 10 0 6 7 10 15 10 8 0 15 -4 15 -10z m107 -16 c6 -16 -22
-53 -32 -42 -9 8 6 58 16 58 5 0 12 -7 16 -16z m277 1 c41 -17 42 -22 23 -149
-7 -44 -17 -81 -24 -83 -16 -6 -31 49 -39 137 -3 41 -8 78 -11 83 -4 7 4 27
11 27 2 0 20 -7 40 -15z m936 -45 c47 -48 50 -54 50 -101 0 -58 40 -168 77
-213 15 -18 23 -37 20 -50 -6 -23 14 -130 26 -142 12 -13 8 -79 -7 -100 -14
-19 -15 -19 -21 1 -30 89 -50 127 -82 151 -29 22 -40 25 -62 17 -14 -5 -25
-16 -24 -24 3 -22 20 -79 38 -127 20 -57 32 -162 17 -162 -16 0 -23 15 -37 78
-7 32 -20 77 -29 101 -9 24 -23 77 -31 117 -18 97 -42 140 -109 197 l-56 48 0
85 c0 75 2 84 18 84 26 0 60 -40 81 -96 22 -58 42 -74 71 -56 11 6 22 12 24
12 3 0 15 -33 27 -72 27 -90 32 -102 51 -106 21 -4 28 29 17 77 -13 58 -88
224 -121 270 -22 29 -23 61 -3 61 8 0 37 -23 65 -50z m-790 -1 c0 -27 -2 -30
-15 -19 -8 7 -15 21 -15 31 0 11 7 19 15 19 10 0 15 -10 15 -31z m273 -11 c23
-63 42 -147 35 -154 -22 -21 -54 44 -63 129 -8 78 4 89 28 25z m219 -43 c1
-41 2 -82 2 -92 1 -23 -20 -28 -29 -6 -4 10 -9 53 -12 96 -6 74 -5 77 16 77
19 0 21 -6 23 -75z m519 53 c9 -7 31 -39 50 -72 19 -32 46 -70 61 -85 25 -25
26 -28 21 -118 -3 -51 -10 -93 -14 -93 -5 0 -9 9 -9 20 0 10 -4 29 -9 42 -4
13 -19 57 -31 98 -13 41 -33 86 -45 100 -34 40 -55 78 -55 100 0 23 10 25 31
8z m-1784 -20 c-3 -8 -6 -5 -6 6 -1 11 2 17 5 13 3 -3 4 -12 1 -19z m528 8
c17 -12 19 -27 17 -146 0 -72 -4 -140 -7 -151 -12 -37 -22 -18 -29 51 -9 100
-20 120 -67 120 -48 0 -52 -10 -54 -165 -2 -127 -8 -155 -33 -155 -13 0 -14
13 -9 91 6 78 4 96 -13 131 -24 50 -25 66 -6 104 8 16 19 41 25 56 9 25 13 27
36 18 40 -15 45 -13 61 25 16 38 45 46 79 21z m-424 -98 c61 -58 109 -155 109
-223 0 -104 -46 -180 -94 -153 -14 8 -27 3 -59 -23 -23 -18 -46 -39 -50 -46
-11 -18 -37 -16 -37 3 0 9 12 30 27 48 14 17 34 49 44 71 32 69 19 155 -23
155 -29 0 -43 -31 -43 -95 0 -56 -4 -68 -39 -119 -28 -41 -45 -56 -62 -56 -15
0 -24 6 -24 15 0 14 52 88 85 121 19 20 19 58 0 74 -22 18 -61 -11 -69 -52
-10 -47 -42 -81 -113 -117 -34 -18 -64 -39 -67 -47 -9 -24 -38 -17 -34 8 2 15
17 30 43 44 37 19 84 81 85 111 0 25 83 136 116 155 24 14 34 27 34 44 0 21
-5 24 -35 24 -40 0 -92 -46 -125 -110 -34 -66 -61 -68 -40 -3 21 64 62 142 79
148 31 13 147 35 183 35 27 0 38 4 38 15 0 26 24 17 71 -27z m728 -75 c-15
-18 -34 -1 -25 22 5 14 9 15 21 5 12 -10 13 -16 4 -27z m936 0 c24 -61 54
-157 50 -163 -3 -4 2 -24 10 -44 19 -44 19 -66 1 -66 -8 0 -18 19 -25 44 -6
25 -15 48 -21 51 -5 3 -10 17 -10 30 0 13 -7 50 -15 82 -8 31 -15 63 -15 70 0
19 17 16 25 -4z m-709 -60 c-10 -10 -19 5 -10 18 6 11 8 11 12 0 2 -7 1 -15
-2 -18z m4 -57 c0 -3 -4 -8 -10 -11 -5 -3 -10 -1 -10 4 0 6 5 11 10 11 6 0 10
-2 10 -4z m10 -87 c0 -19 -5 -29 -15 -29 -15 0 -22 50 -9 63 12 12 24 -4 24
-34z m-1360 -20 c0 -5 -4 -9 -10 -9 -5 0 -10 7 -10 16 0 8 5 12 10 9 6 -3 10
-10 10 -16z m970 -14 c0 -24 -7 -43 -23 -58 -12 -12 -28 -34 -35 -49 -14 -33
-28 -35 -60 -8 -15 12 -22 28 -20 42 2 19 10 24 42 26 34 3 40 8 55 43 20 49
41 51 41 4z m130 -75 c0 -49 -23 -120 -39 -120 -23 0 -22 167 1 181 22 14 38
-12 38 -61z m-5058 -30 c17 -25 52 -67 77 -93 l46 -48 -22 -19 c-20 -16 -22
-24 -17 -63 6 -39 4 -46 -15 -57 -20 -10 -23 -7 -47 47 -14 32 -35 66 -45 76
-16 15 -19 30 -18 69 3 47 0 54 -29 78 -30 25 -43 66 -26 83 13 12 66 -28 96
-73z m5322 48 c8 -30 7 -38 -2 -38 -12 0 -33 40 -27 50 10 17 22 11 29 -12z
m-5494 -9 c0 -5 -7 -9 -15 -9 -15 0 -20 12 -9 23 8 8 24 -1 24 -14z m6343
-226 c-1 -156 -4 -188 -18 -202 -24 -24 -34 0 -36 84 -1 39 -4 83 -8 99 -11
54 4 183 24 206 34 38 40 11 38 -187z m-1723 179 c0 -15 -45 -50 -72 -57 -43
-11 -36 20 10 44 40 22 62 26 62 13z m-4685 -21 c-3 -6 -11 -11 -17 -11 -6 0
-6 6 2 15 14 17 26 13 15 -4z m5579 -6 c3 -8 1 -28 -5 -43 -10 -26 -11 -26
-25 -8 -17 24 -18 38 -2 54 16 16 25 15 32 -3z m-1453 -39 c43 -16 90 -25 144
-27 59 -2 87 -8 106 -22 14 -10 41 -22 60 -27 74 -19 253 -101 302 -139 54
-42 144 -134 163 -166 8 -15 23 -19 70 -20 32 -1 62 2 65 7 8 12 132 -33 147
-54 9 -13 26 -18 58 -18 47 0 57 -12 23 -30 -18 -10 -20 -18 -16 -58 14 -129
18 -142 42 -142 25 0 31 29 23 105 -4 41 -9 80 -10 87 -2 8 11 14 35 16 43 4
59 -18 34 -46 -10 -11 -16 -48 -20 -112 -5 -109 -12 -133 -36 -126 -17 5 -61
-25 -61 -42 0 -18 24 -20 43 -4 13 11 20 13 28 5 22 -22 -23 -203 -51 -203 -5
0 -16 -26 -25 -57 -27 -95 -42 -118 -83 -132 -81 -29 -105 -63 -57 -81 14 -5
25 -16 25 -23 0 -52 -121 -322 -152 -338 -10 -5 -18 -15 -18 -22 0 -20 -57
-70 -93 -82 -17 -5 -36 -20 -42 -32 -11 -27 -34 -29 -75 -8 -20 10 -33 29 -45
65 -9 27 -20 52 -25 55 -5 3 -9 62 -9 131 0 131 -7 190 -23 200 -5 3 -19 3
-31 0 -22 -5 -23 -7 -22 -193 0 -217 -18 -419 -48 -516 -17 -57 -24 -68 -46
-73 -63 -13 -103 -38 -127 -80 -14 -24 -42 -58 -64 -78 -39 -35 -37 -35 -169
-39 l-45 -2 -19 50 c-11 28 -25 74 -31 102 -15 69 -29 83 -57 57 -18 -16 -20
-26 -14 -69 13 -96 17 -89 -49 -95 -54 -5 -62 -3 -80 17 -24 28 -74 43 -143
43 -59 0 -99 -13 -129 -41 -27 -25 -89 -17 -140 18 -20 13 -51 30 -70 38 -42
17 -57 52 -50 119 5 47 12 169 21 358 3 68 17 136 71 367 9 35 20 71 24 80 5
9 18 36 28 61 11 25 34 74 50 110 68 144 105 254 107 320 4 85 24 307 31 345
13 66 60 193 91 244 61 102 112 143 193 156 31 5 54 16 72 36 33 35 39 35 119
5z m677 -13 c4 -26 -70 -107 -75 -82 -5 20 48 109 62 105 6 -1 11 -12 13 -23z
m94 -34 c-5 -28 -21 -51 -32 -44 -7 5 -5 27 6 63 7 23 29 6 26 -19z m764 22
c5 -5 20 -11 34 -13 24 -3 25 -7 25 -63 l0 -60 32 2 c39 3 46 -7 33 -43 -10
-26 -13 -27 -64 -21 -33 3 -69 0 -92 -8 -46 -16 -64 -10 -64 20 0 18 9 25 45
35 24 7 50 19 56 26 15 18 4 85 -16 100 -16 12 -21 34 -7 34 4 0 12 -4 18 -9z
m-5506 -89 c0 -4 16 -31 35 -61 60 -91 98 -241 60 -241 -14 0 -18 11 -29 75
-11 70 -22 94 -73 166 -61 89 -66 106 -23 84 17 -9 30 -19 30 -23z m6010 -3
c0 -5 -4 -9 -10 -9 -5 0 -10 7 -10 16 0 8 5 12 10 9 6 -3 10 -10 10 -16z m-11
-79 c10 -6 10 -12 2 -28 -6 -11 -11 -36 -11 -56 0 -19 -3 -42 -6 -51 -14 -35
-24 11 -23 105 1 85 2 92 13 67 7 -16 18 -32 25 -37z m-1339 30 c0 -5 -5 -10
-11 -10 -5 0 -7 5 -4 10 3 6 8 10 11 10 2 0 4 -4 4 -10z m905 -90 c3 -5 1 -10
-4 -10 -6 0 -11 5 -11 10 0 6 2 10 4 10 3 0 8 -4 11 -10z m-116 -38 c18 -39
36 -45 91 -33 46 10 90 0 90 -21 0 -20 -40 -41 -94 -49 -54 -9 -72 -21 -61
-39 5 -9 24 -11 56 -7 30 4 51 2 55 -5 9 -14 -12 -26 -72 -38 -43 -9 -55 -17
-75 -48 -13 -20 -34 -42 -47 -48 -12 -6 -34 -21 -47 -34 -15 -14 -30 -20 -41
-16 -32 12 1 189 41 218 6 4 20 8 33 8 15 0 26 9 32 26 15 39 12 53 -15 66
-31 14 -32 36 -2 48 31 12 40 8 56 -28z m-214 -12 c8 -26 -1 -40 -26 -40 -25
0 -35 25 -19 45 17 21 37 19 45 -5z m-5235 -31 c0 -20 -15 -26 -25 -9 -9 15 3
43 15 35 5 -3 10 -15 10 -26z m-374 -14 c3 -8 3 -19 0 -24 -10 -16 -36 -1 -36
20 0 22 28 26 36 4z m5718 6 c7 -10 -22 -37 -30 -28 -9 8 3 37 15 37 5 0 12
-4 15 -9z m627 -52 l-9 -34 -1 31 c-1 17 2 34 6 37 12 13 14 -1 4 -34z m141
-1 c-6 -6 -15 -9 -18 -5 -4 3 -4 14 0 23 5 13 9 15 18 6 9 -9 9 -15 0 -24z
m15 -77 c5 -37 -7 -71 -26 -71 -3 0 -4 30 -3 66 4 73 20 76 29 5z m-5797 3 c0
-8 -4 -14 -10 -14 -5 0 -10 9 -10 21 0 11 5 17 10 14 6 -3 10 -13 10 -21z
m-143 -18 c18 -28 56 -122 103 -256 16 -45 21 -88 12 -94 -9 -5 -52 96 -52
121 0 12 -42 109 -74 173 -13 25 -26 55 -30 68 -11 35 16 27 41 -12z m-622 14
c3 -5 1 -10 -4 -10 -6 0 -11 5 -11 10 0 6 2 10 4 10 3 0 8 -4 11 -10z m6359
-7 c9 -22 -10 -41 -25 -26 -13 13 -5 43 10 43 5 0 12 -8 15 -17z m-5987 -45
c78 -34 95 -57 107 -145 10 -72 40 -126 85 -153 23 -14 55 -45 71 -70 35 -55
110 -239 110 -270 0 -26 41 -152 69 -215 10 -22 26 -66 35 -98 9 -32 28 -83
42 -112 13 -30 24 -61 24 -69 0 -23 47 -20 59 2 7 13 6 36 -4 73 -20 72 -19
89 4 89 14 0 23 -16 40 -74 30 -101 41 -114 80 -99 29 10 32 9 51 -17 11 -15
20 -35 20 -43 0 -8 9 -25 20 -38 20 -24 20 -24 35 -5 12 16 14 37 8 103 -4 54
-2 83 4 83 13 0 93 -86 93 -99 0 -5 11 -23 25 -39 18 -21 31 -28 48 -25 19 4
26 0 30 -17 4 -14 12 -20 24 -18 16 3 18 13 16 73 -2 87 -44 226 -107 352 -25
51 -46 98 -46 105 1 7 14 28 30 47 l29 34 18 -31 c21 -37 43 -49 58 -29 5 7
24 31 42 52 l32 38 31 -27 c17 -14 35 -26 40 -26 14 0 48 -84 55 -135 4 -25
12 -45 19 -46 6 -1 19 -2 28 -3 20 -1 108 -104 108 -125 0 -8 8 -23 17 -33 19
-21 52 -136 53 -183 0 -16 3 -40 6 -53 l7 -23 22 21 c23 22 23 22 34 2 6 -11
15 -41 21 -68 6 -27 13 -56 17 -64 4 -8 8 -31 9 -50 2 -19 10 -75 19 -125 8
-49 18 -111 21 -137 6 -46 5 -48 -17 -48 -13 0 -29 4 -35 8 -6 4 -14 52 -18
107 -9 122 -24 227 -36 238 -4 5 -18 6 -30 2 -21 -7 -21 -9 -13 -113 9 -120 9
-178 -1 -217 -7 -26 -9 -27 -54 -20 -81 12 -104 35 -57 57 15 6 24 18 23 27
-7 33 -165 42 -343 21 -83 -10 -195 -14 -359 -12 -131 1 -247 0 -257 -3 -26
-9 -25 -52 1 -60 30 -10 24 -25 -10 -25 -17 0 -47 -7 -67 -15 -49 -21 -63 -19
-63 9 0 20 -6 24 -46 30 -26 3 -66 6 -90 6 -23 0 -46 5 -49 11 -9 14 -129 90
-179 114 -45 22 -122 97 -143 140 -8 17 -20 40 -27 53 -10 17 -11 35 -4 66 20
93 -40 136 -77 54 -16 -37 -17 -50 -6 -117 15 -98 14 -101 -8 -101 -12 0 -35
25 -65 73 -56 86 -57 110 -2 206 20 35 41 83 47 107 13 50 20 54 43 19 20 -31
95 -105 106 -105 5 0 12 9 15 20 5 14 -2 31 -22 54 -103 124 -148 211 -156
301 -4 38 -11 71 -17 73 -6 2 -7 8 -4 14 4 5 7 44 8 86 0 41 6 77 11 78 6 2
21 -21 34 -51 12 -30 34 -61 47 -70 13 -8 24 -22 24 -30 0 -27 80 -218 105
-251 35 -46 44 -101 45 -265 0 -108 4 -150 14 -164 13 -18 15 -18 34 14 18 30
19 45 14 189 -2 86 -8 158 -13 160 -4 2 -5 36 -2 77 l6 74 -44 3 -44 3 -16 65
c-9 37 -20 100 -23 140 -3 41 -7 82 -8 90 -1 8 0 28 0 43 3 42 22 22 22 -23 0
-27 21 -79 75 -187 41 -83 82 -171 89 -198 21 -67 24 -304 5 -315 -9 -6 -13
-30 -13 -77 1 -81 10 -122 34 -145 16 -15 18 -15 29 8 6 13 9 36 6 51 -2 16
-6 42 -9 60 -4 24 1 39 19 61 l24 29 -14 119 c-8 65 -15 136 -15 158 0 21 -11
64 -24 95 -13 31 -27 63 -30 71 -4 8 -17 33 -29 55 -67 117 -79 142 -98 212
-11 42 -22 80 -25 85 -3 5 -14 39 -24 76 -18 67 -20 175 -3 262 3 19 7 58 8
87 1 28 7 59 15 67 15 19 27 17 127 -26z m101 23 c3 -8 -1 -12 -9 -9 -7 2 -15
10 -17 17 -3 8 1 12 9 9 7 -2 15 -10 17 -17z m5851 -125 c1 -53 -4 -98 -9
-101 -6 -3 -10 -17 -10 -31 0 -16 -4 -23 -11 -18 -12 7 -6 152 7 217 12 55 22
25 23 -67z m-6129 80 c0 -2 -8 -21 -17 -42 -15 -33 -17 -74 -18 -279 0 -205
-3 -240 -15 -240 -9 0 -18 14 -22 35 -19 96 -29 175 -34 272 -5 95 -4 107 12
116 16 9 16 14 6 37 -16 35 -15 65 2 65 8 0 24 9 37 20 21 17 49 27 49 16z
m-288 -38 c-15 -15 -26 -4 -18 18 5 13 9 15 18 6 9 -9 9 -15 0 -24z m6641 -65
c11 -160 9 -203 -8 -203 -8 0 -15 6 -16 13 -6 79 -8 229 -4 255 11 59 22 33
28 -65z m-5987 35 c14 -29 45 -86 69 -125 24 -40 40 -75 36 -77 -8 -6 -91 45
-109 67 -7 8 -18 46 -23 84 -5 37 -12 76 -15 86 -12 39 19 13 42 -35z m6074
42 c0 -5 -5 -10 -11 -10 -5 0 -7 5 -4 10 3 6 8 10 11 10 2 0 4 -4 4 -10z
m-5843 -48 c19 -26 53 -110 53 -132 0 -17 -29 -11 -39 8 -9 18 -51 137 -51
147 0 14 18 2 37 -23z m5147 -27 c0 -28 -6 -99 -14 -160 -7 -60 -14 -130 -15
-155 -1 -25 -5 -65 -9 -90 -7 -51 -6 -43 -41 -330 -14 -118 -30 -244 -35 -280
-19 -125 -49 -416 -55 -530 -8 -150 -32 -309 -50 -337 -35 -53 -60 20 -36 104
10 35 33 238 33 293 0 51 43 359 73 515 8 44 22 150 30 235 9 85 20 173 25
195 22 99 32 216 33 389 2 154 5 188 17 196 32 21 45 7 44 -45z m-6154 -31 c0
-51 -3 -64 -15 -64 -13 0 -15 12 -14 63 2 67 5 80 20 72 5 -4 9 -35 9 -71z
m198 -1 c6 -19 5 -44 -4 -77 -24 -92 -54 -85 -54 12 0 84 37 126 58 65z m946
-19 c15 -14 22 -44 11 -44 -9 0 -45 40 -45 50 0 15 16 12 34 -6z m525 -60 c12
-15 21 -32 21 -38 0 -24 62 -139 102 -191 28 -35 54 -58 76 -64 18 -5 48 -23
68 -40 37 -33 81 -41 90 -16 4 8 1 22 -6 30 -10 12 -10 15 0 15 25 0 50 -33
50 -64 0 -32 46 -122 74 -145 9 -7 16 -20 16 -28 0 -11 -8 -13 -32 -8 -42 9
-54 20 -63 53 -4 15 -14 35 -22 45 -16 16 -18 16 -40 -5 l-23 -22 -70 75 c-38
41 -86 98 -106 127 -27 37 -44 52 -61 52 -13 0 -23 6 -23 14 0 27 -38 103 -55
110 -28 10 -55 -12 -55 -44 0 -26 -4 -30 -27 -30 -48 0 -73 11 -73 31 0 11 6
20 13 21 6 0 17 2 22 3 6 2 16 3 23 4 19 2 52 62 52 97 0 51 18 58 49 18z
m-124 -34 c-5 -8 -11 -8 -17 -2 -6 6 -7 16 -3 22 5 8 11 8 17 2 6 -6 7 -16 3
-22z m-1449 -17 c3 -16 10 -43 14 -61 5 -20 5 -44 -1 -59 -5 -13 -7 -57 -4
-96 6 -70 10 -90 35 -187 16 -60 13 -195 -4 -229 -8 -14 -17 -34 -20 -43 -8
-26 -35 -22 -40 5 -40 208 -46 309 -29 507 7 91 16 171 18 178 8 21 24 13 31
-15z m1069 -3 c14 -27 14 -30 -4 -39 -14 -8 -22 -6 -35 7 -14 16 -14 20 0 40
19 28 20 28 39 -8z m-101 -77 c53 -81 84 -172 102 -300 7 -46 -10 -61 -21 -20
-3 12 -10 31 -15 42 -4 11 -15 55 -24 98 -27 131 -67 185 -125 170 -12 -3 -21
-2 -21 3 0 10 51 64 60 64 4 0 24 -26 44 -57z m250 -26 c17 -12 17 -14 1 -27
-15 -12 -19 -12 -31 5 -8 10 -14 22 -14 27 0 12 24 10 44 -5z m2107 -75 c-6
-11 -11 -48 -11 -81 0 -46 -4 -61 -14 -61 -8 0 -17 8 -20 17 -11 27 5 126 22
146 20 23 38 7 23 -21z m-2191 3 c7 -9 10 -27 7 -43 -4 -20 7 -56 39 -128 76
-167 93 -228 92 -326 0 -49 -3 -88 -7 -88 -4 0 -13 17 -19 38 -57 186 -84 281
-102 362 -12 52 -28 113 -36 135 -8 23 -14 46 -14 53 0 17 25 15 40 -3z m216
-57 c9 -17 20 -43 24 -57 4 -14 11 -34 15 -43 5 -13 2 -18 -8 -18 -14 0 -55
72 -71 128 -11 35 21 28 40 -10z m-1586 -24 c0 -8 -4 -14 -9 -14 -11 0 -22 26
-14 34 9 9 23 -3 23 -20z m1163 -1 c21 -42 62 -192 54 -199 -12 -13 -35 17
-42 54 -4 20 -15 63 -26 94 -10 32 -19 62 -19 68 0 20 20 10 33 -17z m353 -60
c12 -59 25 -87 44 -100 22 -15 100 -259 100 -312 0 -25 -22 -8 -36 27 -9 20
-26 60 -39 87 -12 28 -28 66 -34 85 -6 19 -24 77 -41 128 -17 52 -28 98 -24
103 10 17 24 9 30 -18z m1799 7 c3 -5 -1 -22 -9 -37 -9 -19 -14 -56 -13 -113
l2 -85 29 -5 c16 -3 31 -10 33 -16 6 -20 -52 -54 -91 -54 -35 0 -47 12 -26 25
15 9 12 42 -5 49 -12 4 -13 11 -4 33 9 23 39 180 39 206 0 11 38 9 45 -3z
m-471 -158 c18 -36 32 -107 19 -99 -5 3 -18 25 -28 47 -17 37 -22 41 -44 35
-14 -3 -30 -7 -36 -8 -23 -5 -15 19 11 35 42 24 62 22 78 -10z m-1595 -49 c13
-47 7 -54 -13 -14 -18 34 -20 51 -6 51 5 0 14 -17 19 -37z m1286 -116 c25 -50
52 -99 60 -107 19 -21 19 -46 -1 -54 -10 -4 -21 4 -32 25 -26 47 -114 180
-144 220 -31 39 -35 55 -15 62 28 10 87 -55 132 -146z m4352 143 c20 0 40 -8
52 -21 11 -12 46 -28 78 -36 32 -8 75 -19 97 -24 56 -14 91 -34 111 -66 10
-15 31 -41 46 -57 20 -21 28 -43 32 -85 3 -31 2 -60 -3 -65 -15 -15 -47 21
-54 59 -12 65 -153 166 -253 182 -28 5 -33 3 -33 -15 0 -15 9 -24 35 -31 19
-5 48 -19 64 -30 16 -12 34 -21 39 -21 29 0 102 -114 102 -160 0 -17 -5 -20
-34 -16 -46 6 -66 -16 -35 -38 13 -8 21 -18 18 -20 -9 -10 -194 -7 -224 3 -95
31 -171 63 -181 76 -6 9 -14 33 -18 55 -7 48 -24 58 -97 57 -101 0 -147 45
-97 95 12 12 30 43 38 68 26 74 36 87 58 73 11 -6 25 -8 32 -3 8 5 32 6 54 4
27 -4 51 0 71 10 17 9 39 14 50 11 11 -2 34 -5 52 -5z m-4609 -171 c37 -70 21
-111 -16 -44 -9 17 -20 32 -25 33 -11 5 -47 83 -47 101 0 22 62 -41 88 -90z
m432 81 c0 -5 1 -13 3 -17 1 -5 -24 -9 -56 -9 -39 -1 -57 2 -54 9 7 21 107 37
107 17z m180 -21 c0 -5 -4 -9 -10 -9 -5 0 -10 7 -10 16 0 8 5 12 10 9 6 -3 10
-10 10 -16z m-464 -74 c15 -27 32 -58 38 -67 15 -25 -2 -35 -23 -12 -26 27
-91 150 -84 158 10 10 38 -22 69 -79z m364 65 c0 -5 -5 -10 -11 -10 -5 0 -7 5
-4 10 3 6 8 10 11 10 2 0 4 -4 4 -10z m364 -67 c53 -11 55 -26 4 -43 -48 -17
-61 -46 -31 -72 20 -18 193 -28 556 -33 109 -1 202 -7 207 -11 5 -5 0 -45 -10
-89 -26 -105 -38 -328 -20 -350 21 -25 30 -106 14 -112 -27 -10 -67 8 -101 46
-24 28 -45 40 -72 45 -50 8 -61 23 -68 90 -3 31 -12 61 -19 67 -24 19 -168 24
-216 6 -24 -8 -77 -17 -119 -20 -74 -5 -78 -4 -103 22 -22 23 -28 44 -41 137
-9 60 -18 118 -21 128 -12 36 -57 65 -114 71 -30 4 -79 14 -109 22 -50 15 -55
15 -86 -1 -32 -17 -34 -17 -77 2 -43 19 -98 72 -98 95 0 14 458 14 524 0z
m3328 -110 c27 -24 22 -38 -26 -77 -42 -35 -83 -48 -72 -23 2 6 12 36 21 65
18 57 41 68 77 35z m-4127 -49 c21 -32 60 -146 70 -201 3 -23 13 -49 21 -60
14 -17 14 -17 29 1 21 28 19 49 -16 128 -30 68 -32 104 -6 96 6 -3 18 -15 24
-29 31 -60 86 -198 97 -244 13 -47 15 -50 46 -50 26 0 37 -6 50 -30 10 -18 39
-41 75 -60 64 -33 104 -70 105 -97 0 -16 -10 -18 -79 -18 -94 0 -109 -5 -122
-38 -9 -24 -11 -25 -86 -18 -42 3 -78 8 -81 10 -5 5 -17 53 -41 166 -20 90
-44 154 -61 165 -7 4 -8 23 -4 50 5 36 0 56 -30 123 -35 77 -43 112 -29 125
11 12 20 8 38 -19z m4304 -23 c7 -5 18 -19 25 -32 6 -13 20 -25 31 -27 11 -2
63 -19 116 -38 92 -32 103 -34 235 -34 126 0 140 2 160 21 21 19 24 20 53 5
20 -11 31 -24 32 -39 2 -59 2 -157 0 -202 -1 -43 -3 -48 -15 -33 -14 20 -64
41 -76 33 -15 -9 -165 44 -182 65 -10 11 -30 20 -45 20 -14 0 -40 4 -57 10
-186 57 -193 58 -344 56 -151 -2 -217 -14 -261 -48 -31 -24 -93 -40 -105 -28
-6 6 -5 35 3 79 l13 69 76 7 c52 5 91 15 121 31 24 13 48 24 53 24 5 0 24 15
41 34 26 27 40 34 73 34 22 0 46 -3 53 -7z m-3605 -27 c4 -10 9 -51 12 -93 l6
-76 -21 25 c-16 20 -20 39 -20 93 0 64 10 85 23 51z m-431 -67 c31 -41 71
-167 58 -180 -16 -16 -40 11 -72 82 -16 36 -36 73 -45 82 -18 20 -9 49 16 49
10 0 29 -15 43 -33z m327 -107 c12 -8 11 -10 -7 -10 -13 0 -23 5 -23 10 0 13
11 13 30 0z m3695 -44 c61 -2 124 -9 140 -16 17 -7 55 -18 85 -26 76 -20 108
-37 160 -84 25 -23 73 -66 108 -97 l63 -56 30 22 c22 16 38 21 56 16 25 -6 26
-8 20 -71 -4 -60 -7 -67 -47 -102 -41 -38 -42 -39 -132 -41 -50 -1 -94 -3 -97
-6 -22 -13 -388 -25 -439 -14 -20 5 -77 13 -127 19 -64 8 -109 20 -155 43 -36
17 -76 34 -90 37 -25 5 -25 7 -22 90 2 47 6 108 10 135 7 48 9 50 67 80 33 17
67 35 75 40 36 24 108 43 145 39 22 -2 90 -6 150 -8z m-629 -29 c2 -7 -2 -56
-11 -108 -8 -52 -15 -122 -15 -156 0 -67 -11 -84 -40 -58 -15 13 -16 22 -9 51
6 20 6 41 1 51 -12 24 13 190 34 225 8 13 34 9 40 -5z m-5521 -63 c8 -20 24
-38 35 -41 13 -3 28 -22 37 -45 8 -21 24 -45 35 -52 22 -16 16 -36 -10 -37
-14 0 -13 -2 3 -9 31 -13 45 -11 45 6 0 12 9 14 42 12 23 -2 43 -9 46 -16 3
-10 -4 -12 -32 -7 -32 6 -36 5 -36 -14 0 -26 -33 -28 -86 -6 -34 14 -36 17
-30 50 4 19 3 35 -2 35 -13 0 -68 83 -76 114 -6 24 -2 46 9 46 3 0 11 -16 20
-36z m2955 21 c0 -8 -13 -21 -29 -29 -25 -14 -30 -14 -35 -1 -3 8 4 21 17 30
27 19 47 19 47 0z m112 -12 c7 -27 -2 -43 -23 -43 -13 0 -19 7 -19 23 0 39 33
54 42 20z m1796 -4 c17 -7 22 -16 22 -44 0 -30 -6 -38 -40 -60 -76 -48 -112
-91 -115 -138 -2 -23 -10 -60 -18 -82 -9 -22 -16 -57 -17 -78 0 -32 -8 -45
-55 -91 -44 -42 -55 -59 -55 -84 0 -29 -3 -32 -29 -32 -17 0 -33 -4 -36 -10
-9 -15 -25 -12 -25 4 0 7 6 26 14 41 9 16 11 36 7 48 -5 12 2 54 16 106 13 47
28 107 33 133 5 25 16 61 25 78 16 32 18 32 68 27 29 -4 58 -3 66 2 8 5 17 29
22 52 13 72 26 119 39 135 13 14 23 13 78 -7z m-2161 -15 c5 -15 -28 -27 -40
-15 -5 5 -6 14 -2 21 8 13 37 9 42 -6z m-62 -4 c3 -5 1 -10 -4 -10 -6 0 -11 5
-11 10 0 6 2 10 4 10 3 0 8 -4 11 -10z m-325 -50 c0 -5 -4 -10 -10 -10 -5 0
-10 5 -10 10 0 6 5 10 10 10 6 0 10 -4 10 -10z m625 -59 c9 -36 -4 -39 -31 -6
-24 30 -30 55 -17 69 9 9 40 -32 48 -63z m-197 17 c-3 -7 -8 -13 -13 -13 -5 0
-10 6 -12 13 -3 6 3 12 12 12 9 0 15 -6 13 -12z m57 3 c3 -5 1 -12 -5 -16 -5
-3 -10 1 -10 9 0 18 6 21 15 7z m374 -42 c47 -16 40 -38 -11 -36 -36 2 -43 6
-46 25 -4 25 9 28 57 11z m-704 -42 c33 -25 -8 -51 -44 -28 -12 8 -12 12 -2
25 16 19 22 20 46 3z m-2545 -17 c0 -5 -2 -10 -4 -10 -3 0 -8 5 -11 10 -3 6
-1 10 4 10 6 0 11 -4 11 -10z m3105 -26 c39 -16 38 -27 -6 -37 -32 -8 -65 14
-56 37 8 20 15 20 62 0z m-246 -3 c11 -7 9 -10 -8 -16 -24 -7 -44 2 -36 16 8
11 26 11 44 0z m-1355 -22 c20 -18 -9 -22 -181 -24 -220 -2 -283 -10 -283 -36
0 -36 40 -44 187 -39 76 3 143 4 150 2 6 -2 16 -16 22 -30 7 -15 20 -33 30
-39 23 -15 168 -21 591 -28 179 -3 417 -9 530 -12 113 -3 219 -6 235 -6 315 2
414 3 435 2 14 0 106 1 204 4 172 5 181 6 198 27 13 17 16 26 8 34 -13 13
-379 27 -402 14 -10 -5 -109 -11 -220 -14 -112 -2 -212 -5 -223 -6 -11 -1 -94
2 -185 6 -158 6 -885 20 -942 18 -18 -1 -28 4 -28 13 0 15 3 16 320 18 47 0
148 -3 225 -7 163 -9 181 -9 585 0 168 4 325 6 350 5 113 -3 140 -2 162 12 18
11 41 13 113 6 222 -21 395 -29 395 -18 0 4 9 13 20 19 28 15 85 -29 102 -78
13 -41 18 -280 5 -324 -4 -15 -20 -34 -36 -43 -37 -19 -126 -183 -146 -268 -8
-34 -16 -118 -19 -187 -4 -87 -14 -160 -33 -237 l-28 -113 -35 0 c-36 0 -99
-28 -135 -60 -11 -10 -38 -23 -60 -30 -96 -30 -126 -48 -173 -105 -8 -9 -21
-13 -32 -10 -13 4 -22 -1 -31 -17 -25 -49 -121 -147 -162 -167 -54 -26 -67
-26 -67 -1 0 11 -4 20 -10 20 -5 0 -10 -11 -10 -25 0 -40 -26 -81 -60 -95 -42
-17 -53 -5 -58 67 l-4 58 51 52 c48 48 51 54 51 102 0 54 -28 114 -61 132 -27
14 -23 42 20 144 l38 90 99 -2 c208 -6 264 -14 264 -39 0 -8 -1 -14 -2 -15 -2
0 -43 -3 -92 -6 -54 -3 -95 -11 -103 -18 -23 -23 21 -28 231 -27 166 2 204 5
225 18 24 16 24 17 5 31 -14 11 -35 13 -76 9 -45 -4 -58 -3 -58 8 0 18 77 46
128 46 53 0 77 30 67 84 -7 33 -12 37 -58 51 -28 8 -62 15 -76 15 -39 0 -130
41 -137 62 -3 10 -15 18 -27 18 -12 1 -46 3 -74 6 -35 4 -53 2 -53 -5 0 -6 -5
-11 -12 -11 -6 0 -20 -8 -31 -17 -22 -21 -117 -28 -117 -10 0 7 20 50 45 97
113 215 134 260 155 330 12 41 32 99 43 128 26 65 17 100 -33 123 -45 21 -108
24 -600 23 -364 0 -427 -2 -510 -19 -52 -10 -110 -25 -127 -32 -31 -12 -33
-17 -33 -61 0 -35 9 -62 35 -107 76 -130 81 -155 31 -155 -25 0 -102 46 -126
75 -7 8 -22 15 -34 15 -11 0 -31 3 -43 6 -24 7 -22 24 16 109 33 76 27 102
-35 134 -30 15 -265 40 -394 41 -58 1 -121 3 -140 5 -75 8 -168 6 -237 -5 -40
-6 -107 -9 -150 -7 -106 7 -237 -8 -312 -36 -65 -24 -105 -52 -97 -66 3 -4 10
-38 16 -75 8 -49 19 -79 45 -115 44 -60 39 -78 -20 -79 l-45 0 0 44 c0 44 -17
64 -55 64 -9 0 -35 20 -59 45 -25 25 -53 45 -63 45 -11 0 -28 7 -39 15 -29 22
-72 18 -99 -10 -14 -13 -25 -29 -25 -35 0 -23 -37 -7 -65 29 -16 22 -45 46
-64 55 -45 22 -173 30 -240 14 -48 -12 -55 -17 -65 -48 -10 -31 -15 -35 -44
-33 -52 2 -61 16 -55 81 3 31 7 59 9 61 3 3 27 4 55 2 58 -2 115 13 123 35 6
14 20 15 219 16 26 1 140 0 254 -1 196 -2 207 -1 227 18 39 39 14 44 -214 43
-119 -1 -210 2 -210 7 0 10 102 23 160 21 19 -1 71 3 115 9 104 14 258 15 283
2 27 -14 181 -22 204 -10 10 5 18 18 18 29 0 16 -9 19 -52 22 -39 2 -53 7 -53
18 0 12 12 14 63 12 101 -5 192 35 192 83 0 22 1 22 186 23 103 1 189 4 192 6
7 8 136 -6 146 -15z m-984 -65 c63 -14 -28 -27 -278 -40 -147 -7 -310 -20
-362 -28 -148 -24 -280 -19 -280 10 0 10 15 15 48 16 26 1 54 2 62 3 8 1 67 5
130 9 156 10 192 15 207 28 10 8 18 7 31 -6 15 -13 33 -15 93 -11 41 3 85 10
99 15 14 5 36 11 50 12 32 4 167 -1 200 -8z m4026 -29 c3 -8 -1 -34 -9 -57 -9
-24 -24 -72 -34 -106 -13 -48 -24 -66 -41 -73 -13 -5 -20 -14 -17 -19 11 -18
-4 -44 -40 -69 -43 -29 -72 -23 -54 11 7 13 16 41 20 63 9 50 34 127 59 182
13 29 31 49 57 62 46 24 52 25 59 6z m999 -42 c-10 -73 -15 -75 -130 -59 -135
20 -164 27 -171 38 -12 19 21 28 77 22 42 -4 65 -2 88 10 31 16 91 33 125 35
16 1 18 -4 11 -46z m280 6 c1 -65 24 -80 168 -116 90 -22 109 -24 177 -15 41
6 176 9 299 7 125 -2 235 1 249 6 18 7 29 6 41 -5 11 -9 31 -13 62 -10 l47 4
-1 -77 c-1 -43 0 -141 1 -217 2 -76 0 -142 -5 -146 -11 -10 -420 12 -500 26
-18 3 -37 12 -44 20 -6 8 -26 14 -45 14 -18 0 -36 5 -40 11 -4 8 -32 9 -84 5
-64 -5 -79 -3 -84 9 -8 21 -36 19 -62 -6 -30 -28 -88 -41 -111 -24 -17 12 -16
18 5 105 13 50 20 99 17 109 -5 17 -111 61 -146 61 -25 0 -26 14 -17 133 9
122 19 150 51 145 18 -2 22 -10 22 -39z m1053 -37 c3 -45 -3 -52 -23 -25 -12
16 -18 16 -72 3 -74 -18 -262 -25 -276 -11 -20 20 7 31 93 36 47 4 92 8 101
11 9 2 27 1 39 -4 18 -7 34 -3 64 15 56 32 70 27 74 -25z m-2728 24 c41 0 105
4 143 9 81 10 81 10 34 -102 -34 -78 -47 -102 -100 -182 -22 -33 -27 -49 -22
-72 6 -25 3 -30 -19 -38 -18 -7 -28 -22 -37 -53 -13 -49 -39 -107 -88 -194
-29 -50 -42 -63 -80 -79 -39 -16 -52 -17 -100 -7 -59 13 -81 31 -81 69 0 34
58 153 78 159 9 3 24 9 32 14 8 5 42 22 76 38 61 30 114 83 114 115 0 20 -22
22 -49 6 -26 -17 -68 -4 -74 23 -3 13 -2 55 3 93 5 39 9 97 10 131 0 71 12 88
55 77 16 -4 64 -8 105 -7z m1861 -15 c30 -5 86 -12 124 -15 102 -8 145 -17
145 -32 0 -16 -129 -18 -210 -2 -84 15 -160 38 -160 49 0 12 32 11 101 0z
m479 -31 c0 -12 -40 -20 -102 -20 -72 0 -75 13 -5 26 55 10 107 7 107 -6z
m-1205 -50 c104 -19 179 -30 220 -33 34 -2 40 -5 37 -22 -7 -43 -18 -44 -356
-39 -176 3 -325 9 -329 13 -17 16 25 33 86 35 47 2 74 8 103 26 66 40 111 44
239 20z m-5530 0 c3 -5 1 -11 -4 -15 -13 -8 -141 6 -141 15 0 10 139 10 145 0z
m3363 -112 c59 -13 70 -22 51 -44 -9 -11 -38 -14 -138 -13 -69 0 -181 -3 -248
-7 -85 -5 -146 -3 -198 6 -79 13 -97 33 -34 37 19 2 57 5 84 9 28 4 78 6 112
5 40 -1 72 3 90 13 32 17 188 14 281 -6z m-2273 -7 c3 -5 1 -12 -5 -16 -5 -3
-10 1 -10 9 0 18 6 21 15 7z m442 -37 c12 -32 -15 -39 -150 -39 -125 0 -132 1
-132 20 0 25 34 32 173 34 85 1 104 -2 109 -15z m4291 -5 c160 -17 206 -36
166 -67 -16 -12 -67 -13 -317 -9 -164 3 -301 8 -305 12 -4 4 4 15 17 26 18 15
40 19 95 20 39 0 87 6 106 13 45 17 115 19 238 5z m-2678 -80 c0 -5 -11 -9
-25 -9 -28 0 -34 16 -7 23 20 4 32 -1 32 -14z m64 12 c6 -9 -35 -24 -43 -15
-6 5 18 24 31 24 4 0 9 -4 12 -9z m-391 -11 c4 0 7 -7 7 -15 0 -11 -12 -15
-49 -15 -31 0 -53 -5 -61 -15 -18 -22 25 -35 134 -40 125 -7 196 -16 196 -26
0 -4 -15 -11 -32 -14 -59 -9 -163 -25 -171 -25 -4 0 -3 -10 4 -21 11 -21 16
-22 110 -15 82 5 99 4 99 -8 0 -19 -49 -34 -142 -42 -55 -5 -78 -11 -78 -20 0
-19 28 -24 145 -27 80 -2 100 -5 100 -17 0 -16 -36 -25 -129 -34 -67 -7 -71
-9 -63 -31 8 -18 31 -19 167 -1 58 8 107 12 109 10 10 -10 -26 -32 -74 -47
-27 -8 -88 -21 -135 -27 -108 -15 -116 -18 -103 -31 13 -13 209 4 277 25 27 8
53 13 57 10 15 -9 -3 -34 -26 -34 -12 0 -33 -8 -46 -19 -21 -16 -136 -45 -223
-57 -16 -2 -34 -8 -39 -13 -19 -19 43 -23 106 -8 34 9 88 18 120 21 66 5 68 1
34 -65 -16 -31 -31 -45 -48 -47 -13 -2 -29 -10 -36 -19 -7 -8 -31 -19 -55 -24
-134 -28 -162 -36 -166 -47 -5 -16 27 -15 113 3 129 27 161 13 87 -39 -36 -24
-57 -30 -199 -52 -33 -5 -45 -27 -20 -37 7 -2 39 4 72 14 76 24 145 25 145 3
0 -23 -67 -47 -113 -40 -21 4 -42 4 -47 1 -15 -9 1 -35 20 -35 29 0 46 -24 69
-93 28 -83 19 -110 -44 -137 -25 -11 -45 -26 -45 -35 0 -20 -13 -19 -52 5 -18
11 -45 20 -59 20 -14 0 -34 10 -46 23 -11 12 -38 38 -60 58 -33 29 -40 41 -36
62 6 33 46 70 70 65 15 -3 18 -13 18 -65 0 -51 4 -65 20 -77 39 -29 85 -25 50
4 -16 13 -20 67 -7 86 11 16 53 37 60 29 4 -4 8 -35 8 -70 2 -68 7 -85 29 -85
22 0 35 34 35 89 0 81 -11 98 -67 105 -170 23 -214 16 -253 -36 -34 -46 -31
-85 9 -128 30 -31 33 -38 27 -79 -3 -24 -6 -54 -6 -67 0 -30 -21 -31 -46 -3
-29 32 -86 58 -116 52 -20 -4 -28 0 -32 15 -6 16 -22 21 -98 31 -51 7 -106 18
-123 26 -40 18 -95 25 -134 17 -29 -6 -34 -13 -56 -77 -12 -38 -27 -71 -31
-72 -48 -16 -127 -72 -193 -136 l-80 -78 -21 21 c-11 11 -20 33 -20 49 0 16
-7 47 -15 71 -17 47 -10 68 29 94 31 20 63 80 72 134 8 49 -11 88 -63 130
l-38 30 34 84 c33 80 81 178 139 283 15 28 40 83 56 122 30 80 40 91 61 73 10
-9 23 -9 43 -2 19 7 35 6 48 -1 10 -6 34 -10 51 -9 45 3 44 -23 -3 -43 -31
-13 -34 -17 -24 -35 6 -11 17 -20 24 -20 8 0 19 -6 26 -14 6 -8 28 -16 47 -18
20 -2 39 -9 41 -17 4 -12 -10 -13 -84 -8 -49 4 -110 10 -135 13 -44 6 -47 5
-65 -25 -10 -17 -26 -31 -36 -31 -24 0 -30 -14 -13 -36 20 -27 18 -34 -10 -34
-14 0 -25 -4 -25 -9 0 -29 58 -37 195 -26 154 12 392 23 433 20 40 -3 72 12
72 36 0 5 7 9 15 9 16 0 34 -36 86 -170 42 -108 45 -113 70 -97 25 15 25 72 1
112 -11 17 -27 55 -37 85 -10 30 -53 127 -95 215 -136 281 -158 329 -175 382
-9 29 -23 57 -31 64 -8 6 -14 20 -14 30 0 19 9 19 248 14 136 -3 250 -5 255
-5z m98 -7 c2 -5 -11 -9 -28 -11 -37 -4 -45 14 -10 21 23 4 32 2 38 -10z
m-1241 -3 c0 -10 -7 -12 -100 -30 -49 -9 -121 -12 -244 -9 -75 2 -73 -45 2
-56 70 -10 322 -7 362 5 43 12 103 13 96 1 -3 -5 -18 -12 -33 -16 -16 -3 -35
-13 -43 -20 -9 -8 -53 -17 -108 -21 -80 -6 -92 -9 -92 -25 0 -17 9 -19 89 -19
72 0 107 6 185 31 53 17 99 29 103 26 3 -4 -2 -18 -11 -32 -13 -20 -25 -25
-57 -25 -22 0 -53 -7 -69 -15 -35 -18 -158 -45 -206 -45 -27 0 -34 -4 -34 -19
0 -25 27 -31 90 -19 47 8 55 7 74 -11 12 -12 30 -21 39 -21 37 0 14 -20 -40
-36 -32 -9 -63 -22 -69 -29 -5 -7 -26 -13 -45 -12 -24 2 -34 -2 -34 -13 0 -20
55 -16 153 10 89 25 99 25 81 3 -26 -31 -130 -72 -201 -79 -57 -5 -68 -10 -68
-25 0 -17 7 -18 73 -13 39 3 87 12 106 20 37 16 71 18 71 6 0 -22 -30 -41 -80
-50 -143 -28 -172 -38 -167 -61 2 -9 7 -15 13 -14 5 1 45 9 88 18 96 19 120 8
55 -26 -36 -19 -62 -24 -139 -26 -52 -1 -101 -2 -107 -3 -22 0 -14 -29 10 -34
57 -12 126 -13 169 -3 27 6 50 8 53 5 12 -11 -8 -38 -29 -38 -12 0 -31 -7 -42
-15 -12 -8 -59 -17 -110 -21 -91 -6 -117 -16 -108 -38 6 -17 156 -9 203 10 41
17 48 12 35 -24 -11 -30 -47 -40 -156 -41 -44 -1 -58 -5 -58 -16 0 -8 9 -19
19 -25 11 -5 23 -20 27 -32 8 -26 28 -48 43 -48 6 0 11 -6 11 -14 0 -7 9 -16
20 -19 12 -3 20 -14 20 -26 0 -12 5 -21 10 -21 6 0 10 -8 10 -19 0 -13 -9 -20
-31 -23 l-31 -5 5 43 c4 35 0 47 -17 62 -27 24 -79 42 -123 42 -26 0 -36 5
-40 20 -3 11 -8 20 -12 20 -3 0 -17 21 -30 48 -13 26 -28 54 -32 62 -5 8 -41
80 -80 160 -39 80 -85 174 -104 210 -18 36 -36 76 -40 90 -11 39 -91 179 -139
245 -51 68 -59 98 -23 90 12 -3 45 -6 72 -7 59 -2 608 11 611 15 9 8 154 6
154 -3z m3021 3 c8 -47 12 -230 6 -295 -6 -58 -6 -58 28 -74 19 -9 39 -22 46
-30 6 -8 29 -14 50 -14 40 0 59 -18 59 -58 0 -23 -51 -48 -76 -38 -27 10 -88
-12 -137 -49 -98 -75 -131 -68 -103 21 34 107 37 170 14 238 -14 43 -20 85
-19 142 0 100 11 132 48 139 15 4 37 10 48 15 26 11 35 12 36 3z m280 -54 c57
-6 148 -10 203 -9 90 1 100 -1 113 -20 11 -16 22 -20 42 -15 23 5 29 1 42 -27
13 -31 18 -33 79 -40 103 -11 132 -11 180 0 26 6 63 7 87 3 24 -5 55 -6 69 -3
20 4 25 1 22 -9 -6 -18 -69 -27 -193 -28 -80 -1 -106 -5 -129 -20 -22 -15 -35
-17 -59 -10 -20 6 -35 5 -42 -2 -15 -15 32 -46 80 -52 54 -6 276 -1 348 8 60
8 73 0 35 -24 -23 -14 -72 -22 -255 -42 -104 -11 -115 -11 -147 6 -41 22 -54
15 -38 -19 7 -17 25 -29 54 -37 59 -18 341 -17 391 0 43 14 57 9 40 -17 -7
-12 -24 -17 -59 -17 -28 0 -67 -9 -89 -20 -24 -11 -63 -19 -97 -20 -31 0 -60
-4 -64 -8 -4 -4 -41 -7 -81 -7 -65 0 -74 -2 -71 -17 4 -23 54 -35 169 -40 79
-3 108 0 159 16 81 27 83 27 65 -9 -13 -25 -21 -30 -54 -30 -21 0 -44 -6 -50
-14 -20 -24 -105 -39 -183 -31 l-71 7 7 -33 c3 -18 8 -34 9 -36 13 -12 165 -4
233 13 26 7 38 -9 29 -36 -5 -17 -12 -19 -44 -14 -24 4 -48 1 -62 -7 -13 -7
-64 -15 -114 -18 -69 -5 -90 -9 -90 -20 0 -22 44 -29 118 -18 57 8 71 7 92 -7
27 -18 25 -40 -3 -33 -10 2 -34 -5 -54 -15 -22 -11 -59 -18 -93 -18 -41 0 -55
-4 -55 -14 0 -22 35 -29 112 -21 l71 7 -7 -28 c-4 -16 -9 -30 -10 -31 -11 -11
-314 -1 -383 13 -12 2 -25 16 -31 34 -6 16 -16 30 -21 30 -21 0 -66 85 -73
135 -11 87 -47 196 -102 310 -30 61 -59 130 -66 155 -14 51 -59 150 -89 194
-23 35 -17 55 9 31 12 -11 52 -20 121 -26z m739 0 c15 -4 -11 -7 -67 -8 -59
-1 -93 3 -93 10 0 11 119 10 160 -2z m-5810 -8 c0 -6 -4 -13 -10 -16 -5 -3
-10 1 -10 9 0 9 5 16 10 16 6 0 10 -4 10 -9z m694 -47 c9 -22 8 -24 -9 -24 -8
0 -15 9 -15 20 0 24 15 27 24 4z m1426 -19 c0 -8 -7 -15 -15 -15 -9 0 -12 6
-9 15 4 8 10 15 15 15 5 0 9 -7 9 -15z m3955 -15 c3 -5 1 -10 -4 -10 -6 0 -11
5 -11 10 0 6 2 10 4 10 3 0 8 -4 11 -10z m362 -65 c7 -21 15 -40 16 -42 2 -1
39 -8 83 -14 43 -5 114 -19 157 -30 141 -35 250 -51 367 -52 63 -1 124 2 135
6 20 7 20 2 22 -540 1 -414 -1 -549 -10 -555 -22 -14 -50 -8 -74 14 -24 22
-75 27 -97 9 -17 -14 -264 2 -336 23 -50 13 -65 13 -155 -1 -84 -13 -113 -13
-185 -3 -153 22 -230 22 -266 0 -44 -28 -75 -21 -98 22 -17 30 -27 37 -63 42
-24 3 -78 -1 -121 -9 -42 -8 -78 -15 -79 -15 -1 0 -9 12 -16 28 -19 39 -6 96
30 135 45 47 64 92 66 152 1 39 -4 59 -17 74 -20 22 -16 45 16 99 11 18 31 54
45 80 31 62 43 81 144 252 48 80 104 177 124 215 21 39 42 75 47 81 5 7 39 15
76 18 81 9 134 24 145 43 13 22 29 10 44 -32z m-1872 -32 c21 -69 27 -152 13
-211 -12 -47 -13 -49 -49 -55 -32 -6 -117 -60 -135 -86 -13 -19 -70 -38 -81
-28 -8 9 18 50 62 97 46 49 65 92 65 149 0 25 11 54 35 91 19 30 35 59 35 65
0 12 20 35 30 35 4 0 15 -26 25 -57z m-4334 27 l24 -19 -52 -1 c-51 0 -70 10
-58 30 10 17 61 11 86 -10z m309 10 c0 -5 -4 -10 -10 -10 -5 0 -10 5 -10 10 0
6 5 10 10 10 6 0 10 -4 10 -10z m-480 -15 c0 -10 -10 -15 -34 -15 -18 0 -48
-3 -65 -6 -24 -5 -31 -3 -31 9 0 18 19 24 83 26 36 1 47 -3 47 -14z m6016 -36
c8 -14 -14 -29 -43 -29 -27 0 -30 15 -5 29 23 14 39 14 48 0z m844 -10 c41 -4
108 -8 148 -8 47 -1 72 -5 72 -13 0 -8 -34 -9 -127 -5 -160 8 -203 15 -203 34
0 11 5 13 18 7 9 -4 51 -11 92 -15z m-5025 -49 c3 -5 1 -10 -4 -10 -6 0 -11 5
-11 10 0 6 2 10 4 10 3 0 8 -4 11 -10z m-885 -29 c5 -11 7 -22 3 -24 -5 -2
-80 -5 -167 -5 -126 -1 -157 1 -147 11 7 7 57 14 131 17 65 3 122 8 126 13 14
14 43 7 54 -12z m-665 -45 l22 -24 294 -1 c162 0 315 0 340 0 l46 -1 98 -192
c53 -106 105 -204 114 -218 43 -64 52 -110 20 -110 -47 0 -94 -44 -105 -99 -9
-47 39 -149 75 -157 47 -10 51 -13 51 -41 -1 -82 -26 -96 -77 -44 -55 55 -128
77 -199 60 -21 -5 -72 -12 -112 -14 -40 -3 -94 -7 -121 -9 -27 -2 -53 -1 -58
3 -6 3 -13 29 -16 58 -7 61 -4 64 97 68 37 2 73 8 78 13 19 19 0 41 -39 44
-69 6 -50 57 30 79 31 8 50 8 74 0 54 -20 153 29 153 76 0 20 -5 23 -37 25
-21 1 -48 2 -60 3 -30 1 -53 24 -75 72 -18 40 -53 72 -65 59 -3 -3 -21 1 -40
9 -67 28 -87 19 -144 -67 -28 -44 -43 -47 -73 -15 -18 20 -36 25 -104 31 -44
3 -94 13 -109 20 -15 8 -53 20 -83 27 -30 6 -65 19 -78 27 -18 12 -40 13 -108
8 -78 -7 -87 -5 -116 16 -18 13 -42 28 -53 33 -18 10 -20 22 -23 132 l-3 121
68 7 c37 3 100 9 138 14 136 16 175 14 200 -13z m3860 -47 c36 -15 72 -12 102
7 26 16 53 18 53 4 0 -14 -23 -64 -37 -78 -7 -7 -13 -22 -13 -33 0 -11 -9 -21
-25 -25 -28 -7 -40 -39 -50 -131 -6 -64 2 -79 35 -63 22 11 182 18 200 9 8 -4
23 -10 33 -13 53 -17 -36 -79 -193 -135 -41 -15 -85 -33 -98 -40 -12 -6 -27
-9 -32 -6 -5 3 -25 -1 -44 -9 -19 -8 -36 -12 -39 -10 -4 4 -39 11 -71 13 -12
1 -2 47 22 106 30 72 75 280 69 313 -3 15 -3 47 0 71 5 40 8 43 32 38 14 -3
40 -11 56 -18z m843 -166 c22 -38 51 -90 66 -118 14 -27 49 -85 76 -128 28
-43 50 -85 50 -93 0 -8 -12 -32 -26 -54 -24 -36 -25 -42 -14 -77 7 -21 31 -59
53 -86 32 -39 38 -53 34 -80 -9 -57 -38 -150 -54 -172 -14 -18 -14 -16 -9 35
6 51 5 58 -19 80 -24 22 -28 23 -76 12 -91 -21 -147 -12 -121 21 12 16 22 91
13 106 -10 15 -70 32 -95 26 -12 -3 -68 -10 -126 -15 -58 -5 -121 -12 -140
-15 -19 -3 -69 -9 -110 -15 -41 -6 -90 -13 -107 -16 -33 -5 -83 -42 -83 -62 0
-17 -83 -25 -138 -13 -54 11 -107 7 -165 -15 -45 -17 -57 -12 -57 21 0 31 -31
40 -103 31 -58 -8 -184 -68 -205 -97 -14 -20 -37 -25 -46 -10 -7 11 20 78 45
110 10 13 19 33 19 45 -1 19 -2 19 -11 4 -6 -11 -22 -18 -40 -18 -26 0 -30 3
-27 22 2 14 13 25 28 29 l25 7 -22 7 c-58 18 -7 110 75 135 63 20 166 62 177
71 17 17 35 9 35 -16 0 -39 47 -75 98 -75 51 0 213 44 260 71 18 10 40 19 48
19 8 0 41 14 74 30 33 17 64 30 70 30 12 0 113 78 118 91 9 22 -20 49 -53 49
-22 0 -43 8 -55 20 -11 11 -29 20 -40 20 -53 0 -23 75 45 114 55 30 75 25 75
-18 0 -25 7 -36 31 -50 40 -23 88 -15 148 27 56 38 126 58 160 45 19 -7 29 -5
45 12 11 11 24 20 28 20 4 0 25 -30 46 -67z m-4839 -157 c9 -10 9 -16 1 -21
-16 -10 -40 2 -40 20 0 19 24 20 39 1z m-161 -18 c7 -7 12 -23 12 -37 l-1 -26
-24 30 c-14 17 -25 33 -25 38 0 11 25 8 38 -5z m802 -15 c20 -5 36 -16 38 -26
3 -14 -4 -15 -50 -10 -56 6 -85 23 -73 43 4 7 17 9 29 7 11 -3 37 -10 56 -14z
m-510 -13 c0 -5 -4 -10 -10 -10 -5 0 -10 5 -10 10 0 6 5 10 10 10 6 0 10 -4
10 -10z m-66 -39 c4 -5 27 -16 53 -25 41 -14 48 -14 63 -1 17 15 64 21 58 7
-1 -4 -12 -29 -23 -55 -11 -26 -23 -47 -27 -47 -4 0 -22 13 -40 29 -47 41 -95
45 -100 9 -2 -13 -7 -21 -13 -18 -5 3 -9 9 -7 14 2 5 -2 22 -9 37 -6 16 -9 35
-5 44 6 16 41 21 50 6z m274 -3 c18 -18 15 -48 -4 -48 -9 0 -23 8 -30 18 -7 9
-17 18 -23 18 -21 3 -22 4 -16 14 9 14 58 13 73 -2z m1112 -87 c0 -34 4 -40
30 -51 68 -28 86 -87 50 -165 -27 -60 -47 -69 -85 -39 -16 13 -26 26 -22 30 4
4 7 2 7 -4 0 -17 45 -15 60 3 17 20 7 77 -19 114 -12 16 -21 36 -21 45 0 8 -9
20 -19 26 -17 8 -18 14 -8 45 14 46 27 45 27 -4z m-1013 -53 c-3 -8 -6 -5 -6
6 -1 11 2 17 5 13 3 -3 4 -12 1 -19z m793 12 c0 -5 -9 -10 -19 -10 -11 0 -28
-3 -38 -6 -16 -5 -16 -4 1 10 22 18 56 21 56 6z m-90 -37 c0 -9 -8 -25 -17
-35 -12 -13 -17 -36 -17 -74 0 -39 -4 -54 -14 -54 -7 0 -10 4 -7 10 3 5 -5 22
-20 37 -14 16 -28 36 -31 45 -7 24 23 83 49 95 26 13 57 -1 57 -24z m4019 20
c3 -2 -3 -17 -12 -32 -9 -16 -17 -48 -17 -70 0 -49 -17 -54 -55 -14 -32 35
-32 63 1 102 21 25 31 30 52 25 15 -4 29 -9 31 -11z m299 -15 c15 -15 16 -80
2 -94 -8 -8 -7 -19 1 -38 11 -23 10 -29 -2 -37 -25 -16 -45 -10 -69 23 -26 36
-28 69 -6 122 11 27 21 36 38 36 13 0 29 -5 36 -12z m-2510 -60 c2 -28 -2 -40
-19 -51 -45 -32 -68 18 -31 68 24 35 46 27 50 -17z m2354 -19 c-3 -41 0 -60
12 -72 39 -39 5 -57 -53 -28 -39 21 -61 60 -61 114 0 20 53 48 85 44 18 -2 20
-8 17 -58z m-4056 -28 c-4 -5 -1 -11 5 -13 7 -2 7 -12 -1 -32 l-10 -28 -21 26
c-17 21 -19 29 -9 41 13 16 45 21 36 6z m766 -76 c16 -14 38 -25 49 -25 12 0
28 -14 41 -36 12 -21 42 -47 74 -65 59 -34 79 -53 69 -69 -11 -17 -28 -11
-100 35 -39 25 -77 45 -85 45 -8 0 -37 13 -65 28 -53 29 -65 54 -45 91 14 27
26 26 62 -4z m575 -12 c-3 -16 -17 -73 -32 -128 -69 -261 -86 -327 -110 -425
-14 -58 -30 -118 -36 -135 -53 -148 -73 -196 -93 -235 -13 -25 -27 -56 -31
-70 -21 -71 -48 -120 -67 -120 -11 0 -22 8 -25 19 -2 10 -18 28 -34 40 -33 25
-38 56 -10 70 10 6 29 27 42 48 30 51 108 218 124 269 7 23 23 61 35 84 25 49
93 210 121 288 18 49 36 120 59 232 18 87 20 90 41 90 18 0 20 -5 16 -27z
m2083 8 c0 -6 -4 -12 -9 -15 -5 -3 -11 -32 -14 -63 -3 -32 -13 -91 -21 -132
-13 -60 -22 -81 -54 -115 -22 -23 -41 -47 -43 -52 -6 -15 -88 -69 -143 -92
-101 -45 -361 -65 -402 -31 -18 15 -52 16 -149 7 -38 -4 -135 -10 -213 -14
-135 -6 -144 -6 -140 11 3 21 144 112 155 101 4 -4 2 -16 -5 -26 -17 -27 -15
-60 3 -60 8 0 53 38 99 84 85 85 99 109 121 219 8 39 43 50 160 48 55 -1 116
3 134 9 23 6 37 6 41 0 3 -6 2 -41 -3 -80 -8 -55 -7 -73 4 -86 12 -15 15 -14
30 5 18 22 29 84 32 180 3 64 20 77 37 27 13 -41 4 -187 -15 -226 -15 -32 -8
-60 14 -60 29 0 43 48 53 185 5 71 13 134 19 140 5 5 69 17 142 26 165 21 167
21 167 10z m-3400 -11 c0 -5 -2 -10 -4 -10 -3 0 -8 5 -11 10 -3 6 -1 10 4 10
6 0 11 -4 11 -10z m3900 -21 c0 -5 -4 -9 -10 -9 -5 0 -10 7 -10 16 0 8 5 12
10 9 6 -3 10 -10 10 -16z m-3687 -19 c-3 -11 -9 -20 -14 -20 -5 0 -9 -7 -9
-17 0 -9 -3 -14 -6 -10 -7 7 18 67 28 67 3 0 4 -9 1 -20z m820 -3 c42 -18 64
-44 49 -59 -8 -8 -23 -6 -56 6 -50 19 -61 30 -52 51 7 18 18 19 59 2z m567 -6
c13 -25 13 -27 -5 -45 -13 -13 -20 -13 -48 -2 -45 19 -110 28 -126 17 -16 -11
-7 -47 15 -55 9 -3 48 -9 87 -12 79 -7 97 -16 97 -48 0 -11 7 -39 15 -61 8
-22 14 -53 15 -68 l0 -28 -116 7 -116 7 4 -24 c3 -24 4 -24 128 -24 l124 -1
11 -54 c6 -30 20 -81 30 -113 10 -34 14 -61 9 -66 -5 -5 -43 -3 -84 5 -102 18
-200 18 -200 0 0 -24 27 -37 77 -35 26 1 76 -4 111 -11 60 -12 64 -12 87 10
l23 22 19 -44 c11 -23 23 -56 27 -73 12 -49 57 -158 78 -187 14 -21 17 -36 12
-63 -6 -33 -5 -35 19 -35 18 0 34 -11 52 -35 27 -34 26 -55 -1 -55 -8 0 -28
-7 -44 -15 -29 -15 -30 -14 -30 5 0 33 -37 39 -223 41 -262 3 -344 1 -387 -11
-53 -14 -190 -14 -203 -1 -9 9 -8 17 1 31 6 11 17 41 22 67 6 26 23 66 38 89
16 23 34 61 41 85 8 24 24 73 36 109 13 36 31 99 40 140 20 89 36 150 64 245
12 39 21 79 21 90 1 11 10 45 21 75 11 30 24 71 27 90 l8 35 74 -3 c41 -2 86
1 100 7 35 14 38 13 50 -8z m-3100 -17 c6 -14 10 -40 10 -59 0 -18 9 -43 19
-56 l19 -24 25 23 c14 13 33 22 43 20 18 -3 82 -84 83 -104 1 -15 -196 -28
-231 -15 -25 9 -25 10 -23 110 2 95 12 131 36 131 5 0 14 -12 19 -26z m3620 7
c0 -12 -20 -25 -27 -18 -7 7 6 27 18 27 5 0 9 -4 9 -9z m2018 -9 c2 -8 -11
-12 -47 -12 -28 0 -51 4 -51 9 0 21 91 24 98 3z m-4041 -14 c-3 -8 -6 -5 -6 6
-1 11 2 17 5 13 3 -3 4 -12 1 -19z m53 1 c0 -5 -4 -9 -10 -9 -5 0 -10 7 -10
16 0 8 5 12 10 9 6 -3 10 -10 10 -16z m3870 12 c0 -5 -10 -15 -22 -23 -14 -9
-19 -20 -15 -31 5 -14 21 -17 91 -17 67 0 85 -3 90 -16 11 -29 7 -30 -75 -31
-84 0 -104 -8 -93 -36 5 -14 20 -17 79 -17 81 0 105 -6 105 -25 0 -9 -21 -12
-77 -11 -72 1 -78 -1 -81 -20 -3 -20 3 -21 80 -27 88 -6 108 -18 108 -64 0
-22 -3 -23 -37 -16 -21 4 -76 8 -123 8 -78 0 -85 -2 -85 -20 0 -18 9 -21 85
-26 47 -4 100 -10 117 -14 26 -6 34 -4 39 9 3 9 10 16 14 16 9 0 58 -147 84
-255 10 -38 22 -78 27 -87 5 -10 9 -30 9 -44 0 -14 8 -43 19 -63 10 -20 37
-74 60 -121 78 -158 82 -162 166 -141 29 7 91 8 201 1 87 -5 162 -6 167 -1 4
4 0 18 -10 30 -17 20 -32 22 -186 32 -114 6 -173 6 -187 -1 -28 -15 -40 -12
-40 9 0 25 25 29 250 37 219 8 280 1 453 -52 136 -43 158 -137 49 -215 -57
-41 -133 -56 -352 -69 -189 -12 -301 -7 -442 22 -46 10 -58 16 -63 35 -3 13
-17 29 -30 35 -32 14 -32 24 0 32 14 4 25 13 25 22 0 20 27 29 45 14 19 -15
60 -9 60 10 0 10 -12 16 -35 18 -19 2 -43 11 -53 20 -45 40 -595 48 -784 11
-61 -12 -81 -5 -60 19 8 10 22 35 32 57 44 103 63 153 73 185 34 116 103 322
122 365 12 27 28 75 35 105 8 30 26 96 41 145 14 50 32 112 40 139 7 26 19 55
25 62 13 15 59 19 59 5z m-5098 -15 c16 -8 36 -15 45 -15 109 -5 127 -7 130
-18 4 -10 -15 -12 -74 -9 -105 5 -163 16 -163 31 0 28 22 32 62 11z m3538 -6
c9 -16 7 -33 -9 -75 -32 -84 -114 -175 -195 -214 -26 -13 -60 -34 -74 -46 -24
-20 -39 -23 -115 -24 -49 -1 -87 3 -87 9 0 5 12 17 27 27 26 18 79 68 121 115
24 28 29 77 10 96 -9 9 -4 12 23 13 58 1 82 9 109 33 27 26 72 50 129 71 48
18 49 18 61 -5z m-2890 -31 c0 -5 -6 -9 -13 -9 -23 0 -46 -34 -67 -99 -11 -35
-20 -69 -20 -76 0 -18 -60 -64 -75 -59 -8 3 -24 0 -36 -6 -17 -10 -34 -10 -76
0 -29 7 -53 16 -53 20 0 14 47 50 91 69 53 24 71 42 69 68 -4 32 0 43 14 43 7
0 25 9 39 20 47 37 127 55 127 29z m539 -5 c-9 -11 -6 -14 17 -15 16 -1 35 -1
42 0 7 1 15 -5 18 -13 11 -28 32 -141 28 -148 -3 -4 -15 -4 -27 0 -12 4 -58 8
-102 7 -79 0 -80 0 -80 -25 0 -27 -7 -26 138 -29 54 -1 57 -2 57 -27 0 -24 -3
-25 -42 -24 -24 1 -69 1 -100 1 -55 -1 -58 -2 -58 -27 l0 -26 121 3 c129 4
139 0 139 -50 0 -21 -3 -23 -32 -16 -38 8 -202 7 -224 -2 -18 -7 -18 -37 -1
-51 9 -8 24 -8 48 -2 19 5 77 9 129 7 l95 -2 22 -57 c13 -31 24 -67 26 -79 2
-21 -1 -22 -48 -20 -78 5 -84 5 -190 3 -112 -3 -131 -9 -120 -41 7 -22 10 -22
93 -15 48 4 94 7 102 6 115 -7 130 -5 150 13 18 16 23 17 30 5 6 -8 10 -25 10
-37 0 -28 82 -212 116 -262 33 -48 32 -71 -3 -72 -16 0 -37 -2 -48 -5 -29 -5
-348 -14 -570 -16 -133 0 -190 3 -193 11 -2 6 -14 11 -26 11 -16 0 -25 9 -35
36 -7 19 -11 36 -9 37 33 18 46 29 60 58 28 57 66 160 89 244 11 44 25 89 29
100 4 11 15 43 25 70 9 28 23 64 30 80 27 63 35 83 65 170 18 50 39 111 48
137 20 55 40 67 102 57 38 -6 47 -4 59 12 7 10 17 16 23 13 5 -3 4 -12 -3 -20z
m-419 -36 c0 -12 -7 -10 -24 8 -9 8 -16 23 -16 32 0 13 5 11 20 -8 11 -14 20
-28 20 -32z m975 10 c44 -29 44 -50 1 -71 -40 -19 -144 -13 -153 9 -3 7 7 29
22 49 33 43 77 47 130 13z m-1896 -2 c9 -10 8 -16 -3 -26 -19 -15 -36 -5 -36
21 0 22 22 25 39 5z m2341 -45 c-11 -22 -40 -29 -40 -10 0 6 10 25 23 42 21
30 22 31 25 10 2 -12 -2 -31 -8 -42z m2515 22 c7 -38 -10 -71 -40 -76 -19 -3
-18 -4 5 -15 14 -7 33 -17 42 -24 14 -10 21 -8 41 10 26 24 67 30 67 9 0 -7
-11 -41 -24 -75 -13 -34 -27 -76 -31 -94 -4 -18 -17 -55 -30 -83 -45 -99 -55
-123 -55 -134 0 -15 -30 -14 -64 4 -19 10 -59 15 -130 15 -62 0 -116 6 -141
15 -22 8 -70 14 -107 15 -38 0 -68 4 -68 9 0 12 100 112 135 136 51 33 129
119 155 170 14 28 38 74 54 103 l28 52 78 -2 79 -3 6 -32z m-3849 -5 c3 -4 3
-11 -1 -17 -7 -12 -45 3 -45 18 0 9 36 8 46 -1z m4670 4 c6 -4 14 -19 17 -34
5 -19 17 -30 43 -38 39 -13 38 -11 20 -110 -3 -14 -11 -62 -19 -106 -8 -45
-20 -92 -27 -104 -9 -16 -9 -25 -1 -33 13 -13 14 -76 2 -95 -4 -7 -21 -16 -37
-21 -40 -10 -47 -51 -9 -51 52 0 83 26 100 85 16 52 17 54 45 49 26 -6 30 -2
44 30 8 20 20 36 25 36 16 0 13 -37 -5 -72 -13 -26 -20 -29 -45 -24 -40 8 -39
-16 3 -60 35 -37 62 -42 106 -21 15 7 54 14 86 16 35 1 76 11 98 22 22 11 48
17 58 14 28 -9 59 -15 115 -24 28 -4 62 -15 76 -24 29 -20 171 -47 246 -47 28
0 55 -5 59 -11 3 -6 -2 -26 -12 -45 -19 -35 -14 -50 20 -56 15 -2 26 14 56 90
21 51 40 95 43 99 10 10 19 -46 14 -84 -14 -95 -25 -132 -51 -166 -22 -29 -27
-44 -23 -69 3 -18 7 -42 9 -53 3 -18 -3 -20 -62 -23 -53 -3 -68 0 -80 15 -25
31 -63 53 -90 53 -14 0 -30 4 -35 9 -12 10 -99 28 -205 42 -45 6 -161 6 -290
2 -118 -5 -226 -8 -238 -8 -19 0 -31 13 -59 65 -46 87 -62 130 -79 222 -7 42
-20 96 -28 120 -24 71 -86 334 -86 362 0 31 5 33 85 45 80 11 98 12 111 3z
m-5415 -21 c22 -4 16 -36 -11 -64 -16 -17 -30 -27 -31 -21 -1 5 -2 18 -3 29
-1 17 -10 21 -55 25 -73 7 -79 28 -9 32 49 3 94 2 109 -1z m3484 -23 c-4 -13
-16 -32 -26 -43 -17 -18 -19 -18 -19 -2 0 21 29 67 42 67 5 0 6 -10 3 -22z
m-415 -18 c0 -5 -2 -10 -4 -10 -3 0 -8 5 -11 10 -3 6 -1 10 4 10 6 0 11 -4 11
-10z m3153 -9 c6 -6 54 -11 112 -11 147 0 140 11 140 -212 0 -131 -4 -196 -14
-228 -21 -65 -26 -69 -69 -59 -20 5 -53 9 -73 9 -36 0 -163 30 -234 55 -22 8
-82 22 -132 31 l-93 16 -31 -26 c-29 -25 -36 -26 -93 -20 -33 4 -63 8 -65 10
-2 1 2 24 8 51 6 26 14 105 17 175 4 93 11 136 23 160 l18 32 134 2 c91 0 150
6 184 17 54 17 150 16 168 -2z m-4814 -6 c3 -12 -13 -9 -17 4 -2 7 0 11 6 7 5
-3 10 -8 11 -11z m4208 -27 c-25 -157 -51 -277 -63 -295 -14 -22 -53 -31 -67
-16 -4 3 1 15 10 25 9 10 23 49 29 86 18 92 43 192 55 214 5 10 17 18 25 18
13 0 15 -7 11 -32z m1079 -11 c3 -3 7 -58 10 -123 2 -66 7 -130 10 -144 3 -14
7 -115 9 -225 1 -110 6 -220 9 -245 10 -67 1 -74 -99 -79 -54 -2 -90 1 -99 8
-19 16 -9 98 16 134 35 49 40 89 44 332 4 205 8 310 13 349 1 8 78 2 87 -7z
m-4866 -1 c0 -3 -4 -8 -10 -11 -5 -3 -10 -1 -10 4 0 6 5 11 10 11 6 0 10 -2
10 -4z m1190 -6 c0 -5 -5 -10 -11 -10 -5 0 -7 5 -4 10 3 6 8 10 11 10 2 0 4
-4 4 -10z m-3155 -35 c17 -4 36 -12 43 -18 19 -15 -22 -55 -69 -67 -25 -7 -44
-21 -56 -40 -22 -39 -51 -39 -129 -1 -32 15 -76 34 -96 40 -21 7 -40 17 -44
22 -3 5 -21 16 -41 24 -40 17 -39 38 2 45 46 8 357 4 390 -5z m3529 -6 c-12
-13 -20 -16 -22 -9 -3 7 2 16 9 21 25 16 32 9 13 -12z m-2100 -32 c6 -9 7 -19
3 -23 -9 -9 -37 15 -37 33 0 18 20 12 34 -10z m-731 -14 c4 -2 7 -12 7 -22 0
-17 18 -41 32 -41 4 0 21 14 38 30 32 31 77 42 67 16 -3 -8 -11 -34 -17 -58
-19 -71 -35 -88 -81 -88 -26 0 -42 5 -46 15 -5 14 -8 14 -22 2 -9 -8 -25 -17
-37 -21 -29 -9 -649 -11 -663 -2 -6 4 -11 15 -11 25 0 22 37 71 53 71 6 0 23
11 37 25 31 30 99 35 230 16 171 -23 217 -25 244 -7 14 9 32 16 40 16 7 0 24
9 37 20 22 18 64 20 92 3z m1325 -35 c-7 -20 -48 -23 -48 -4 0 11 9 16 26 16
16 0 24 -5 22 -12z m-2358 -64 c28 -11 38 -20 31 -27 -7 -7 -18 -5 -35 6 -18
12 -37 15 -70 11 -38 -6 -46 -4 -46 10 0 22 65 22 120 0z m3500 -25 c0 -5 -10
-11 -22 -13 -56 -12 -135 -23 -163 -23 -16 0 -45 -4 -63 -8 -32 -7 -34 -6 -30
16 3 21 10 25 53 29 85 8 225 8 225 -1z m-1692 -42 c2 -10 -3 -17 -12 -17 -9
0 -16 2 -16 4 0 2 -3 12 -6 21 -5 13 -2 16 12 13 10 -2 20 -11 22 -21z m2316
8 c18 -12 47 -13 159 -5 75 5 153 12 173 16 28 5 36 4 32 -7 -8 -23 -52 -49
-111 -64 -32 -8 -68 -21 -80 -28 -12 -6 -49 -12 -82 -13 -33 0 -79 -6 -103
-14 -32 -9 -53 -10 -80 -2 -120 34 -223 46 -407 46 -169 1 -190 3 -193 18 -3
16 30 34 46 24 4 -2 39 4 76 14 51 13 76 16 95 8 15 -5 52 -7 86 -3 220 25
360 28 389 10z m2906 -19 c0 -11 -19 -15 -25 -6 -3 5 1 10 9 10 9 0 16 -2 16
-4z m-6798 -39 c52 -30 99 -35 118 -12 7 8 17 12 22 9 6 -4 89 -5 187 -4 250
4 248 4 331 0 41 -1 100 1 131 5 53 7 56 6 62 -16 10 -39 -8 -48 -81 -43 -37
3 -71 4 -77 4 -5 -1 -82 -3 -170 -6 -88 -2 -173 -9 -189 -14 -38 -13 -141 -12
-191 1 -62 17 -107 16 -140 -2 -18 -10 -65 -19 -120 -23 -104 -7 -147 -16
-191 -39 -17 -9 -34 -13 -38 -10 -3 4 -6 33 -6 65 l0 58 48 30 c46 30 49 31
152 27 92 -3 111 -7 152 -30z m883 24 c3 -5 1 -12 -5 -16 -5 -3 -10 1 -10 9 0
18 6 21 15 7z m1315 -11 c12 -8 11 -15 -6 -57 l-20 -48 -99 0 c-55 0 -149 5
-210 12 -106 13 -219 9 -240 -8 -6 -4 -16 -5 -22 -1 -17 11 -34 60 -23 67 5 3
136 7 291 8 259 1 282 3 293 19 12 21 15 21 36 8z m978 -12 c-3 -7 -11 -13
-18 -13 -7 0 -15 6 -17 13 -3 7 4 12 17 12 13 0 20 -5 18 -12z m-103 -9 c8
-11 -22 -38 -42 -39 -7 0 -13 9 -13 19 0 27 42 42 55 20z m545 -68 c188 -55
223 -59 285 -36 34 13 62 16 113 12 55 -4 72 -2 99 14 26 16 57 21 166 26 92
4 144 2 170 -6 20 -7 82 -14 137 -15 60 -2 105 -7 112 -14 7 -7 22 -12 35 -12
37 0 37 -22 -1 -91 -19 -35 -44 -83 -56 -105 l-23 -42 -112 0 c-62 0 -137 -3
-166 -7 -30 -5 -61 -9 -69 -10 -8 -1 -22 -5 -30 -8 -12 -5 -53 -16 -185 -50
-42 -11 -94 -58 -96 -86 -1 -9 -2 -27 -2 -41 -2 -22 -7 -25 -41 -28 -37 -3
-38 -2 -31 20 4 13 9 43 11 68 4 36 0 50 -18 70 -68 75 -275 107 -641 101 -77
-2 -143 1 -147 5 -18 20 -50 90 -50 110 0 16 11 26 40 38 79 32 186 57 274 66
58 5 94 14 104 24 21 21 42 20 122 -3z m-380 -7 c0 -8 -10 -14 -26 -14 -14 0
-40 -6 -57 -14 -73 -31 -89 -36 -98 -31 -18 12 -8 36 22 54 40 24 159 28 159
5z m-2420 -29 c10 -12 10 -21 2 -38 -6 -12 -14 -33 -18 -46 -3 -14 -10 -29
-15 -35 -5 -6 -20 -27 -32 -46 l-23 -35 -119 -1 c-139 -1 -382 -12 -440 -20
-22 -3 -60 -12 -85 -19 -25 -7 -65 -17 -89 -20 -53 -9 -150 -71 -157 -102 -3
-12 0 -38 6 -58 7 -22 8 -41 3 -46 -5 -5 -50 -5 -103 -1 l-95 7 -6 60 c-4 33
-4 89 0 124 l6 65 70 15 c82 17 77 14 69 34 -3 9 -18 19 -34 22 -43 10 -56 30
-36 59 20 32 106 50 190 41 46 -4 71 -2 100 10 31 13 54 15 110 9 126 -13 204
-11 560 12 37 2 76 9 85 14 23 14 37 12 51 -5z m988 -20 c64 -8 146 -13 182
-10 151 12 145 13 148 -17 4 -37 -43 -129 -92 -178 -36 -37 -44 -41 -71 -34
-16 4 -86 9 -155 10 -110 1 -125 3 -136 20 -20 32 -78 194 -71 200 3 4 21 10
39 14 18 4 34 8 36 9 2 1 56 -6 120 -14z m3042 -35 c0 -5 -4 -10 -10 -10 -5 0
-10 5 -10 10 0 6 5 10 10 10 6 0 10 -4 10 -10z m45 -88 c-9 -26 -23 -60 -30
-77 -7 -16 -16 -41 -20 -55 -4 -14 -15 -36 -23 -48 -9 -13 -23 -38 -32 -55
-18 -34 -45 -46 -63 -28 -7 7 -4 18 9 37 10 14 28 41 40 60 11 19 27 40 35 47
8 6 33 51 55 98 41 89 59 102 29 21z m-1198 -127 c98 -11 173 -56 173 -104 0
-40 -67 -77 -174 -96 -193 -33 -509 -50 -603 -32 -62 11 -70 27 -14 27 21 0
55 7 74 15 20 8 42 12 49 10 24 -9 49 19 53 59 2 21 6 40 8 42 2 3 56 7 118 9
63 3 129 8 147 11 36 6 83 -7 149 -38 35 -17 46 -18 58 -8 8 7 15 16 15 21 0
11 -66 39 -92 39 -10 0 -35 7 -55 15 -29 12 -33 18 -24 29 7 8 24 13 39 11 15
-2 50 -6 79 -10z m-3004 -25 c4 -16 22 -46 40 -67 19 -21 39 -48 46 -60 6 -13
18 -23 25 -23 19 0 40 -27 27 -34 -6 -4 -86 -8 -178 -10 -92 -2 -172 -4 -178
-6 -5 -1 -52 -2 -102 -1 -74 1 -93 4 -93 16 0 8 -17 19 -42 25 -74 19 -75 20
-55 35 10 7 46 16 80 20 63 7 159 29 177 40 6 3 10 17 10 31 0 19 5 24 26 24
14 0 35 5 47 12 27 14 79 25 128 27 33 1 37 -2 42 -29z m3881 -82 c23 -57 60
-88 103 -88 21 0 47 -7 57 -15 25 -19 89 -19 141 -1 22 8 97 17 167 20 119 5
127 4 133 -14 9 -29 0 -38 -63 -57 -48 -15 -94 -18 -297 -17 -132 1 -258 4
-280 7 -22 3 -70 9 -107 13 -65 7 -66 7 -72 39 -9 44 -38 69 -71 61 -44 -11
-29 20 17 33 44 14 158 17 208 6 25 -6 30 -4 30 13 0 17 8 32 17 32 1 0 9 -15
17 -32z m-2494 2 c0 -5 -7 -10 -16 -10 -8 0 -12 5 -9 10 3 6 10 10 16 10 5 0
9 -4 9 -10z m-163 -26 c40 -11 14 -24 -47 -24 -84 0 -94 28 -10 29 19 0 45 -2
57 -5z m185 -38 c21 -14 31 -15 48 -6 14 8 30 8 48 2 15 -5 56 -10 92 -11 66
-3 84 -7 59 -15 -8 -2 -39 -12 -69 -21 -43 -14 -99 -19 -250 -21 -204 -4 -240
-1 -240 22 0 16 4 17 86 15 73 -2 119 12 110 35 -3 9 -4 19 -1 23 7 12 87 -3
117 -23z m707 19 c3 -12 -13 -9 -17 4 -2 7 0 11 6 7 5 -3 10 -8 11 -11z m1400
-12 c0 -5 -3 -9 -9 -11 -5 -2 -10 4 -10 13 0 16 16 14 19 -2z m-1566 -8 c8
-20 -2 -24 -64 -29 -65 -5 -99 1 -99 19 0 26 154 35 163 10z m2793 -52 c-10
-10 -19 5 -10 18 6 11 8 11 12 0 2 -7 1 -15 -2 -18z m1515 -25 c1 -7 3 -177 4
-378 2 -201 4 -410 4 -464 1 -55 -2 -103 -8 -109 -6 -6 -23 -4 -48 4 -21 7
-72 18 -113 24 -61 9 -75 14 -74 28 1 13 -6 17 -32 17 -19 0 -43 6 -54 12 -15
9 -22 10 -31 1 -12 -12 -77 -6 -93 8 -25 23 17 31 153 31 104 0 143 3 151 13
20 24 -11 30 -165 30 l-150 0 -3 26 -3 27 108 6 c166 10 158 9 158 31 0 17 -8
20 -55 23 -31 2 -87 -1 -126 -6 -39 -4 -76 -6 -82 -4 -7 2 -12 23 -12 48 0 43
0 44 -34 44 -38 0 -46 -12 -46 -65 0 -32 -3 -35 -49 -49 -72 -21 -91 -34 -91
-59 0 -40 21 -57 84 -65 86 -10 83 -28 -6 -37 -40 -4 -78 -12 -85 -17 -16 -13
-33 -1 -33 23 0 11 -5 30 -11 41 -14 26 4 88 73 248 58 135 95 194 126 198 26
4 46 45 38 76 -6 23 17 71 39 80 9 3 23 22 31 41 8 19 19 35 24 35 18 0 50 44
65 91 l16 48 117 4 c64 1 138 4 165 5 31 1 47 -2 48 -10z m-4071 -13 c30 -9
106 -18 168 -22 62 -3 120 -11 129 -18 23 -17 10 -41 -26 -48 -22 -5 -31 -12
-31 -27 0 -17 6 -20 51 -20 56 0 89 -13 89 -35 0 -10 -11 -15 -32 -15 -51 0
-62 -12 -54 -59 7 -45 -5 -53 -40 -26 -38 29 -90 12 -64 -21 15 -17 95 -54
119 -54 9 0 29 -7 44 -15 27 -14 135 -19 247 -12 19 1 36 -2 38 -8 4 -12 -119
-35 -213 -40 -38 -2 -76 -3 -82 -4 -7 -1 -13 -12 -13 -26 0 -26 6 -28 52 -25
38 2 68 -9 68 -25 0 -20 -18 -29 -70 -35 -40 -4 -45 -8 -48 -31 -2 -21 2 -27
21 -31 13 -2 32 -2 43 2 29 10 54 0 54 -22 0 -11 8 -22 18 -25 23 -6 55 -51
48 -68 -3 -8 -22 -17 -43 -21 -51 -9 -63 -20 -63 -59 0 -66 -11 -95 -36 -95
-45 0 -56 57 -25 119 21 40 13 65 -15 54 -8 -3 -17 2 -20 11 -4 11 -19 16 -45
16 l-38 0 -58 120 c-32 66 -64 120 -70 120 -7 0 -13 10 -13 23 0 12 -11 39
-24 61 -14 21 -22 44 -20 51 3 7 -10 37 -29 66 -52 82 -107 201 -107 231 0 33
11 34 90 13z m-1305 -42 c26 -14 172 -16 180 -3 9 14 75 12 75 -2 0 -28 -33
-48 -80 -48 -33 0 -50 -5 -54 -15 -3 -8 -14 -15 -25 -15 -25 0 -36 -17 -22
-34 17 -20 155 -41 254 -38 71 2 87 0 87 -12 0 -11 -14 -16 -51 -18 -36 -2
-55 -8 -63 -20 -19 -31 3 -38 94 -30 86 9 130 6 130 -8 0 -12 -71 -51 -99 -55
-14 -1 -47 -3 -72 -4 -29 -1 -54 -8 -68 -20 -21 -19 -53 -18 -78 1 -13 10 -63
0 -63 -12 0 -19 34 -40 68 -42 103 -5 148 -4 160 5 8 7 12 5 12 -6 0 -8 -6
-19 -12 -24 -19 -15 -113 -26 -192 -24 -47 2 -71 -2 -77 -10 -15 -25 10 -38
65 -32 56 6 96 -7 96 -32 0 -11 -11 -13 -50 -8 -45 5 -50 4 -50 -14 0 -27 19
-43 51 -43 15 0 43 -7 63 -15 27 -12 36 -21 36 -40 0 -13 -5 -27 -10 -30 -6
-4 -51 -3 -100 1 -79 6 -90 9 -96 28 -3 11 -26 53 -50 92 -24 39 -50 90 -58
115 -68 209 -97 280 -140 342 -43 64 -53 87 -41 98 7 8 158 -16 180 -28z m929
22 c23 -17 137 -21 165 -5 30 16 56 -14 86 -97 15 -42 44 -103 65 -134 21 -31
61 -104 89 -161 55 -110 93 -181 129 -238 28 -44 28 -67 1 -75 -23 -8 -53 -69
-45 -91 3 -8 12 -14 21 -14 9 0 15 -9 15 -25 0 -14 7 -37 16 -50 14 -22 14
-29 1 -67 -8 -24 -27 -88 -42 -143 -15 -55 -33 -113 -41 -130 -8 -16 -34 -77
-58 -135 -85 -203 -151 -324 -244 -449 l-54 -71 -103 0 c-79 0 -107 4 -119 15
-30 30 -84 101 -99 130 -130 249 -167 361 -225 693 -7 42 -6 56 5 68 8 8 19
14 24 14 5 0 19 17 33 38 30 48 41 128 26 190 -13 56 -5 82 80 257 83 172 130
290 130 325 0 10 6 23 14 27 7 4 21 24 31 43 21 43 63 100 73 100 4 0 16 -7
26 -15z m981 -5 c-3 -5 -10 -10 -16 -10 -5 0 -9 5 -9 10 0 6 7 10 16 10 8 0
12 -4 9 -10z m508 -5 c49 0 77 -4 77 -11 0 -9 33 -65 80 -134 9 -14 33 -65 54
-115 21 -49 47 -108 57 -131 10 -22 19 -46 19 -52 0 -7 4 -20 9 -30 45 -90 56
-109 69 -124 19 -22 51 -23 59 -3 3 9 -10 50 -29 93 -20 42 -41 95 -48 117 -7
22 -26 67 -43 99 -16 33 -35 76 -42 97 -7 20 -32 67 -54 104 -23 37 -41 71
-41 76 0 5 21 7 48 4 26 -3 80 -8 120 -11 39 -4 72 -10 72 -15 0 -5 -9 -9 -20
-9 -22 0 -27 -22 -7 -38 6 -5 59 -10 115 -11 76 0 112 -5 135 -17 21 -11 68
-18 135 -22 56 -2 105 -9 108 -14 14 -22 -20 -30 -140 -30 -114 0 -126 -2
-126 -18 0 -31 24 -40 121 -46 121 -7 159 -13 159 -24 0 -6 -3 -9 -7 -8 -5 1
-21 -2 -38 -7 -16 -5 -77 -9 -135 -9 l-105 -1 0 -25 0 -25 142 -5 c133 -5 165
-11 150 -26 -10 -10 -156 -34 -209 -35 -49 -1 -72 -16 -63 -41 5 -12 26 -15
103 -15 124 1 182 -3 182 -13 0 -14 -25 -28 -50 -28 -32 0 -169 -12 -196 -18
-12 -2 -25 -11 -28 -20 -13 -33 10 -41 109 -38 52 1 97 -2 100 -7 3 -5 1 -18
-5 -30 -10 -17 -18 -20 -43 -15 -132 26 -208 -20 -119 -71 25 -14 47 -19 66
-16 21 4 31 1 38 -11 5 -9 21 -21 34 -26 48 -19 53 -108 8 -151 -27 -25 -25
-28 -51 75 l-18 69 -50 13 c-27 7 -52 10 -54 8 -3 -2 -15 6 -28 17 -22 21 -25
21 -61 7 -37 -14 -40 -14 -59 6 -11 12 -23 31 -27 44 -6 19 -14 23 -39 20 -28
-3 -32 -6 -29 -29 2 -22 -3 -27 -25 -32 -30 -6 -63 -51 -63 -86 0 -32 31 -93
69 -133 30 -33 33 -40 23 -60 -6 -13 -21 -63 -32 -113 -20 -88 -85 -290 -100
-310 -4 -5 -10 -23 -14 -40 -14 -59 -179 -369 -209 -393 -7 -5 -49 -12 -95
-16 -93 -7 -116 0 -169 57 -59 64 -145 171 -170 215 -26 44 -66 152 -78 211
-4 18 -16 53 -27 77 -19 45 -21 71 -15 262 l3 83 42 41 c50 48 57 69 49 160
-5 58 -2 81 18 135 13 36 21 72 18 80 -3 8 3 24 14 36 10 12 33 51 51 87 116
236 182 380 182 397 0 26 11 35 29 26 9 -4 51 -8 94 -8z m1337 3 c30 2 38 -3
53 -29 9 -17 17 -38 17 -46 0 -9 13 -37 29 -62 16 -25 41 -75 57 -111 15 -36
34 -70 42 -77 8 -7 16 -29 17 -50 1 -22 23 -80 49 -131 25 -50 46 -97 46 -103
0 -6 7 -26 16 -44 19 -41 15 -69 -11 -73 -51 -10 -68 -61 -44 -131 9 -25 23
-38 55 -52 49 -20 54 -37 26 -84 -24 -40 -66 -142 -96 -235 -64 -193 -118
-329 -158 -400 -5 -8 -19 -37 -32 -65 -13 -27 -40 -67 -59 -87 -33 -36 -37
-38 -100 -38 l-65 0 -51 68 c-28 37 -73 113 -101 169 -47 98 -130 308 -130
332 0 6 -4 19 -9 29 -8 16 -45 143 -61 209 -8 35 0 48 35 54 21 4 62 59 71 95
3 13 -7 50 -25 93 l-31 70 76 148 c42 82 83 155 90 164 8 8 14 21 14 28 0 7
14 32 30 56 17 25 44 73 60 107 30 63 87 172 103 196 6 8 17 10 30 5 12 -4 38
-6 57 -5z m-5496 -8 l123 0 27 -47 c15 -27 56 -94 91 -151 36 -56 65 -107 65
-112 0 -12 34 -73 71 -127 16 -23 29 -45 29 -48 0 -4 21 -34 47 -68 43 -56 45
-61 29 -71 -118 -69 -121 -183 -7 -257 l24 -15 -33 -90 c-18 -49 -45 -123 -60
-164 -15 -41 -48 -133 -74 -205 -88 -243 -214 -463 -288 -501 -23 -12 -55 -16
-122 -15 -50 1 -92 3 -94 5 -6 6 -11 404 -11 901 0 253 -1 571 -2 706 -1 230
0 248 18 258 10 6 24 8 31 6 8 -3 69 -5 136 -5z m369 -5 c67 -2 104 -8 115
-18 27 -23 52 -29 142 -33 46 -3 86 -7 89 -9 12 -12 -15 -17 -100 -19 -90 -1
-107 -7 -91 -34 14 -21 232 -38 244 -19 6 9 11 8 18 -3 5 -8 10 -18 10 -21 0
-8 -64 -19 -115 -19 -48 0 -70 -12 -62 -34 5 -13 21 -16 77 -16 38 0 70 -4 70
-9 0 -11 -25 -21 -50 -21 -27 0 -36 -21 -15 -36 12 -9 49 -13 112 -12 91 1
130 -10 107 -30 -22 -20 -123 -42 -179 -40 -50 3 -60 0 -63 -14 -2 -11 6 -22
22 -29 45 -21 30 -32 -34 -26 -73 8 -86 -6 -42 -42 16 -15 33 -38 37 -54 7
-26 10 -27 69 -27 35 0 67 5 74 12 16 16 35 -3 30 -28 -3 -16 -20 -21 -123
-31 -66 -6 -121 -12 -122 -12 -10 -3 1 -28 22 -53 29 -34 32 -75 10 -118 -8
-16 -15 -33 -14 -37 4 -22 -3 -33 -18 -33 -23 0 -123 99 -123 121 0 22 47 79
65 79 14 0 19 11 30 66 5 26 1 38 -23 65 -49 58 -127 179 -185 290 -31 58 -63
112 -72 119 -8 7 -15 16 -15 21 0 5 -12 28 -26 50 -29 47 -26 71 8 63 13 -3
67 -7 121 -9z m1758 5 c10 0 19 -4 19 -10 0 -5 -27 -9 -60 -9 -33 1 -60 5 -60
9 0 10 48 19 68 13 8 -1 22 -3 33 -3z m-646 -27 c36 -45 95 -128 95 -135 0 -5
9 -27 19 -51 11 -23 24 -58 30 -77 32 -115 102 -279 129 -303 11 -10 27 -35
37 -57 17 -38 17 -41 0 -60 -23 -25 -32 -104 -14 -116 8 -5 21 -9 29 -9 8 0
16 -9 18 -20 2 -11 8 -30 14 -42 13 -27 11 -36 -47 -203 -48 -139 -53 -150
-103 -260 -16 -36 -37 -89 -46 -117 -10 -29 -22 -55 -27 -58 -5 -4 -9 -15 -9
-25 0 -11 -9 -30 -20 -42 -12 -13 -46 -61 -76 -108 -31 -47 -72 -102 -92 -123
-33 -34 -40 -37 -92 -37 -46 0 -60 4 -77 23 -41 46 -132 185 -162 247 -17 36
-35 72 -40 80 -5 8 -19 40 -31 70 -11 30 -25 64 -29 75 -5 11 -14 40 -21 65
-6 25 -19 61 -27 80 -16 37 -53 219 -53 261 0 14 9 34 20 44 11 10 20 24 20
30 0 7 12 34 27 61 30 53 39 153 15 162 -7 2 -17 12 -22 22 -15 27 52 166 143
299 39 58 97 156 127 216 l55 110 70 6 c39 3 82 6 98 7 16 1 33 -5 42 -15z
m601 -60 c-10 -10 -19 5 -10 18 6 11 8 11 12 0 2 -7 1 -15 -2 -18z m94 23 c0
-2 -7 -6 -15 -10 -8 -3 -15 -1 -15 4 0 6 7 10 15 10 8 0 15 -2 15 -4z m1450
-13 c-1 -27 -22 -36 -88 -37 -65 -1 -93 6 -80 19 3 3 35 6 72 7 37 0 69 5 72
9 6 11 24 12 24 2z m-1585 -13 c-28 -12 -47 -12 -40 0 3 6 18 10 33 9 24 0 25
-1 7 -9z m3723 -15 c51 -14 109 -25 128 -25 38 0 41 -5 17 -32 -15 -17 -15
-19 1 -37 17 -19 28 -21 196 -40 47 -5 87 -10 90 -11 3 0 -3 -5 -12 -11 -10
-5 -18 -21 -18 -34 0 -25 18 -34 65 -33 45 1 208 -12 213 -17 15 -14 -38 -25
-211 -41 -72 -7 -90 -21 -66 -50 11 -14 27 -15 94 -10 134 11 147 8 107 -25
-21 -16 -35 -18 -118 -13 l-94 6 0 -26 c0 -32 4 -34 75 -37 90 -3 103 -13 69
-50 -13 -14 -26 -16 -71 -12 l-55 6 4 -34 c2 -28 -1 -34 -15 -34 -10 0 -25 -8
-32 -19 -13 -17 -16 -17 -80 -1 -37 9 -87 15 -113 14 -50 -3 -52 -1 -82 96 -7
22 -30 76 -52 120 -22 44 -51 114 -65 155 -14 41 -31 82 -38 90 -7 8 -16 26
-20 40 -4 14 -14 34 -21 45 -17 24 -18 45 -1 45 6 0 54 -11 105 -25z m-4628
-30 c-7 -8 -16 -12 -21 -9 -13 8 -1 24 18 24 13 0 13 -3 3 -15z m2606 -20
c-22 -17 -36 -19 -36 -7 0 14 12 22 34 22 21 -1 21 -1 2 -15z m2434 -6 c0 -21
-2 -22 -77 -15 -125 12 -118 29 15 34 58 3 62 1 62 -19z m-3965 -9 c3 -5 -1
-10 -9 -10 -9 0 -16 5 -16 10 0 6 4 10 9 10 6 0 13 -4 16 -10z m1305 -20 c0
-5 -2 -10 -4 -10 -3 0 -8 5 -11 10 -3 6 -1 10 4 10 6 0 11 -4 11 -10z m3025
-10 c0 -8 -25 -24 -55 -36 -44 -18 -75 -23 -152 -24 -54 0 -98 4 -98 9 0 12
102 34 147 33 17 -1 55 7 85 18 58 20 73 20 73 0z m-5605 -10 c0 -5 -5 -10
-11 -10 -5 0 -7 5 -4 10 3 6 8 10 11 10 2 0 4 -4 4 -10z m-90 -20 c0 -5 -7
-10 -15 -10 -8 0 -15 5 -15 10 0 6 7 10 15 10 8 0 15 -4 15 -10z m2980 -4 c0
-16 -21 -26 -56 -26 -28 0 -31 15 -6 29 25 15 62 13 62 -3z m-240 -11 c0 -17
-54 -20 -147 -9 -87 11 -60 24 47 24 82 0 100 -3 100 -15z m1590 -5 c0 -5 -5
-10 -11 -10 -5 0 -7 5 -4 10 3 6 8 10 11 10 2 0 4 -4 4 -10z m-1340 -75 c0 -8
-7 -15 -15 -15 -16 0 -20 12 -8 23 11 12 23 8 23 -8z m1290 -25 c0 -5 -4 -10
-10 -10 -5 0 -10 5 -10 10 0 6 5 10 10 10 6 0 10 -4 10 -10z m-2900 -18 c0
-13 -12 -22 -22 -16 -10 6 -1 24 13 24 5 0 9 -4 9 -8z m1360 -91 c0 -27 -19
-36 -37 -18 -18 18 -9 37 18 37 12 0 19 -7 19 -19z m-2662 -3 c-6 -17 -78 -39
-118 -36 l-35 4 30 13 c28 13 83 27 113 30 8 0 12 -4 10 -11z m1227 -3 c0 -5
-15 -11 -32 -13 -32 -3 -45 11 -20 22 19 8 52 2 52 -9z m35 5 c0 -5 -4 -10
-10 -10 -5 0 -10 5 -10 10 0 6 5 10 10 10 6 0 10 -4 10 -10z m1578 -32 c-4
-27 -28 -36 -28 -10 0 20 8 32 22 32 5 0 8 -10 6 -22z m-1451 -14 c-9 -9 -28
6 -21 18 4 6 10 6 17 -1 6 -6 8 -13 4 -17z m-89 4 c-6 -18 -28 -21 -28 -4 0 9
7 16 16 16 9 0 14 -5 12 -12z m1528 -65 c-10 -10 -19 5 -10 18 6 11 8 11 12 0
2 -7 1 -15 -2 -18z m-158 -5 c-5 -34 -38 -37 -38 -4 0 20 5 26 21 26 15 0 20
-5 17 -22z m-1453 -48 c3 -5 -1 -10 -9 -10 -9 0 -16 5 -16 10 0 6 4 10 9 10 6
0 13 -4 16 -10z m-1379 -85 c17 -51 17 -75 -1 -99 -8 -11 -15 -35 -15 -53 0
-29 -3 -33 -25 -33 -35 0 -41 22 -20 76 12 32 15 58 10 91 -5 33 -3 48 7 54
20 13 29 6 44 -36z m138 3 c13 -36 -19 -138 -43 -138 -7 0 -11 151 -4 163 10
16 38 1 47 -25z m5361 12 c0 -18 -33 -26 -47 -12 -6 6 -7 15 -3 22 10 16 50 8
50 -10z m-4318 -26 c3 -8 -1 -32 -9 -53 -13 -31 -13 -42 -2 -62 15 -30 54 -52
80 -47 20 3 33 48 15 48 -15 0 -32 36 -25 55 4 8 19 22 34 30 41 21 65 1 57
-48 -12 -76 53 -91 73 -16 6 21 9 51 8 66 -3 26 0 28 32 28 l35 0 -1 -79 c-1
-72 -4 -80 -30 -107 -26 -25 -37 -28 -96 -30 -37 -1 -73 3 -80 9 -7 5 -38 15
-68 20 -34 6 -59 17 -65 28 -5 9 -23 32 -38 50 -27 31 -27 34 -13 67 21 52 79
77 93 41z m4633 6 c0 -5 -4 -10 -10 -10 -5 0 -10 5 -10 10 0 6 5 10 10 10 6 0
10 -4 10 -10z m-3264 -22 c-3 -13 -6 -38 -6 -56 0 -40 -23 -52 -50 -27 -39 36
-14 105 38 105 20 0 23 -4 18 -22z m357 -2 c19 -15 23 -76 7 -107 -16 -28 -30
-23 -30 11 0 16 -5 40 -11 54 -12 25 -7 56 8 56 4 0 16 -7 26 -14z m2335 -34
c-8 -9 -24 -36 -34 -59 -10 -23 -22 -43 -26 -43 -16 0 -49 46 -46 65 2 14 15
23 46 30 25 6 49 19 55 30 7 13 12 15 15 7 2 -7 -2 -21 -10 -30z m-2442 -8
c27 -64 -6 -202 -37 -153 -15 24 -4 189 13 189 5 0 16 -16 24 -36z m1094 22
c0 -8 -4 -18 -10 -21 -18 -11 -10 -62 15 -99 62 -92 -8 -68 -78 26 -41 55 -34
84 24 98 49 11 49 11 49 -4z m124 -55 c-10 -46 -13 -51 -32 -51 -46 0 -55 48
-16 87 25 25 27 26 40 8 8 -10 11 -30 8 -44z m1361 29 c8 -16 15 -40 15 -53 0
-29 -35 -77 -57 -77 -20 0 -52 40 -53 67 0 21 56 93 72 93 4 0 14 -13 23 -30z
m130 6 c39 -14 40 -15 38 -58 -2 -34 -8 -48 -30 -65 -32 -26 -33 -26 -53 -13
-12 7 -12 16 -4 47 6 22 7 51 3 65 -5 21 -3 39 5 38 1 0 19 -7 41 -14z m-1405
-86 c0 -11 -4 -20 -10 -20 -5 0 -10 9 -10 20 0 11 5 20 10 20 6 0 10 -9 10
-20z m-4022 -23 c3 -12 -3 -17 -22 -17 -25 0 -35 18 -19 34 12 12 38 2 41 -17z
m5556 -12 c13 -9 54 -22 92 -29 38 -8 77 -17 87 -21 31 -13 18 -24 -31 -23
-70 0 -122 -24 -122 -57 0 -63 43 -118 86 -110 10 2 22 4 27 4 13 2 7 21 -15
52 -20 27 -21 31 -6 45 10 10 23 14 37 9 25 -8 36 -57 28 -128 -4 -29 0 -88 9
-139 8 -48 16 -122 18 -163 2 -42 6 -78 8 -81 14 -13 57 10 66 34 11 32 -2
161 -19 193 -10 19 -16 255 -7 264 2 2 80 5 173 6 111 1 189 6 224 16 29 8 57
11 62 6 8 -9 -16 -196 -30 -229 -6 -13 -5 -40 1 -70 8 -35 8 -91 0 -194 -7
-80 -11 -152 -10 -160 0 -8 0 -43 0 -77 l-2 -62 -42 -12 c-30 -8 -91 -9 -203
-3 -88 4 -180 8 -205 9 -43 1 -46 4 -85 61 -22 32 -51 84 -64 114 -13 30 -38
78 -57 107 -19 28 -34 61 -34 72 0 11 -11 45 -25 75 -14 30 -30 67 -36 83 -12
31 -59 263 -59 291 0 14 96 132 108 132 1 0 13 -7 26 -15z m-2962 -37 c-9 -9
-12 -7 -12 12 0 19 3 21 12 12 9 -9 9 -15 0 -24z m-136 -42 c-3 -18 -13 -41
-22 -52 -14 -18 -15 -16 -9 19 8 47 28 94 33 78 2 -7 1 -27 -2 -45z m1476 22
c3 -33 3 -33 63 -36 67 -3 85 -13 66 -36 -9 -11 -25 -14 -59 -10 -55 6 -73 -3
-65 -34 5 -20 12 -22 72 -22 69 0 91 -10 91 -41 0 -16 -8 -17 -70 -12 -70 6
-70 6 -70 -20 0 -24 4 -26 73 -37 39 -6 77 -13 84 -15 6 -2 28 -57 48 -122 21
-65 53 -151 71 -192 19 -41 31 -77 28 -80 -3 -3 -97 -4 -209 -2 -150 2 -204 0
-210 -9 -15 -25 18 -32 176 -36 90 -3 176 -9 190 -14 14 -4 37 -6 51 -3 19 4
32 -2 49 -21 28 -29 75 -113 69 -119 -3 -3 -81 -7 -175 -11 -93 -3 -206 -10
-250 -16 -44 -6 -136 -10 -205 -8 -118 3 -125 4 -124 23 1 11 25 74 54 140 29
66 60 149 70 185 15 56 79 240 126 363 8 21 14 72 14 115 0 72 9 102 31 102 4
0 9 -15 11 -32z m2172 17 c8 -9 29 -14 48 -13 23 2 33 -2 36 -13 2 -13 -10
-17 -65 -22 -104 -10 -301 -8 -308 3 -3 5 -1 18 5 29 8 17 23 21 83 24 171 8
185 7 201 -8z m-6154 -15 c0 -5 -9 -10 -21 -10 -11 0 -17 5 -14 10 3 6 13 10
21 10 8 0 14 -4 14 -10z m1166 -15 c3 -8 -1 -36 -9 -62 -17 -56 -33 -145 -47
-260 -10 -86 -25 -137 -83 -289 -46 -119 -80 -186 -125 -244 l-37 -47 -82 0
c-46 1 -83 2 -83 3 0 2 18 29 40 60 22 32 40 63 40 69 0 7 7 18 15 25 19 16
88 159 147 310 102 256 128 325 128 342 0 25 59 108 76 108 8 0 17 -7 20 -15z
m-1275 -26 c10 -19 17 -21 59 -16 52 6 70 -4 70 -39 0 -21 -3 -22 -87 -18 -49
2 -91 4 -95 4 -12 0 -10 17 6 55 17 40 30 44 47 14z m5475 11 c8 0 14 -10 14
-21 0 -17 -4 -20 -22 -15 -13 3 -47 6 -77 6 -30 0 -51 3 -47 8 11 11 89 31
104 26 8 -2 20 -4 28 -4z m-2587 -15 c6 -3 11 -12 11 -19 0 -10 -26 -13 -105
-12 -58 0 -105 3 -105 6 1 13 17 28 35 32 31 5 152 1 164 -7z m2355 -32 c-8
-48 -54 -213 -65 -233 -20 -37 -39 -89 -53 -140 -16 -63 -23 -82 -60 -162 -14
-31 -26 -62 -26 -67 0 -6 -3 -11 -8 -11 -4 0 -18 -21 -32 -47 -13 -27 -30 -55
-37 -63 -8 -8 -20 -24 -28 -35 -23 -35 -29 -7 -8 38 126 259 156 327 198 457
21 63 50 149 65 190 15 41 30 83 34 93 11 34 27 18 20 -20z m-1276 -36 c-3
-35 -12 -79 -20 -98 -22 -53 -57 -153 -99 -287 -38 -121 -135 -340 -166 -374
-19 -21 -43 -24 -42 -5 0 6 18 46 39 87 61 117 90 179 120 255 15 39 37 93 48
120 25 59 50 136 62 185 14 64 42 165 47 173 12 20 15 1 11 -56z m-2500 12 c3
-25 2 -25 -63 -26 -70 -1 -82 6 -66 35 8 14 21 18 68 18 55 -1 58 -2 61 -27z
m4040 -34 c6 -2 12 -16 12 -31 0 -24 -3 -26 -27 -19 -16 4 -52 9 -80 12 -44 4
-54 2 -60 -12 -14 -37 10 -50 83 -47 77 4 112 -11 101 -43 -6 -13 -14 -16 -40
-11 -64 13 -147 18 -182 12 -31 -6 -36 -10 -33 -32 3 -25 4 -25 111 -28 64 -2
113 -8 120 -15 6 -6 18 -11 27 -11 22 -1 42 -33 80 -130 18 -47 39 -94 47
-105 7 -11 13 -27 13 -35 0 -15 32 -88 66 -152 8 -14 14 -35 14 -46 0 -24 -18
-38 -31 -25 -5 5 -146 8 -337 6 -186 -2 -333 1 -341 6 -12 8 -3 34 52 143 36
73 76 162 87 198 12 36 30 84 41 107 10 24 19 49 19 56 0 7 9 37 21 67 11 30
25 74 30 98 5 24 11 47 13 51 5 7 168 -5 194 -14z m-2645 -12 c20 -9 37 -19
37 -24 0 -11 -123 2 -138 14 -11 9 -11 13 4 24 19 14 37 11 97 -14z m-297
-123 c-8 -30 -29 -102 -45 -159 -17 -57 -31 -108 -31 -114 0 -5 -25 -61 -55
-123 -30 -63 -55 -116 -55 -120 0 -6 -48 -71 -68 -93 -25 -26 -79 -48 -96 -39
-23 13 -21 20 28 85 77 102 271 508 318 664 l13 44 3 -45 c2 -25 -4 -70 -12
-100z m-2726 98 c0 -7 -7 -22 -15 -32 -12 -16 -15 -17 -15 -4 0 24 11 48 21
48 5 0 9 -6 9 -12z m312 -12 c10 -15 22 -76 16 -81 -3 -3 -27 2 -54 10 -27 8
-84 15 -126 15 -42 0 -79 4 -82 9 -3 5 -1 22 5 39 l10 30 112 -6 c65 -3 115
-9 119 -16z m1326 2 c18 -18 14 -46 -8 -58 -16 -9 -24 -7 -36 5 -10 10 -34 15
-70 15 -47 0 -54 3 -54 19 0 22 19 27 106 30 27 0 55 -4 62 -11z m1341 -54
c36 -7 68 -11 72 -8 12 7 65 -199 55 -214 -3 -5 -62 -7 -130 -4 -110 4 -126 3
-132 -12 -9 -23 14 -48 35 -38 22 11 136 6 160 -8 12 -6 38 -8 60 -4 37 6 41
4 52 -20 7 -14 10 -28 8 -30 -2 -3 -83 0 -178 5 -96 4 -177 7 -179 4 -10 -9 9
-36 30 -44 13 -4 96 -8 186 -7 l163 1 6 -25 c3 -14 17 -42 30 -62 41 -67 42
-67 -134 -67 -119 0 -163 4 -180 15 -15 9 -24 10 -28 3 -4 -6 -13 -8 -20 -5
-13 5 -79 -15 -91 -27 -4 -4 -2 -13 4 -20 8 -10 28 -12 67 -9 45 4 55 2 55
-11 0 -12 -13 -17 -57 -19 -60 -3 -74 -16 -48 -42 13 -12 21 -14 37 -5 15 8
55 8 147 0 72 -6 165 -7 216 -3 126 11 159 9 163 -11 4 -21 36 -19 -421 -22
-407 -3 -401 -3 -355 58 42 55 135 258 177 389 23 69 41 131 41 139 0 8 11 37
25 66 23 50 25 52 62 51 21 0 67 -7 102 -14z m-1344 -42 c24 -7 30 -16 41 -62
24 -98 46 -164 71 -213 26 -52 27 -94 3 -88 -8 2 -84 5 -167 8 -148 4 -153 3
-153 -16 0 -11 8 -25 18 -30 9 -5 90 -8 179 -7 90 1 167 0 171 -3 8 -5 42 -65
42 -73 0 -2 -80 -2 -177 -1 -215 4 -263 -1 -263 -26 0 -23 23 -43 41 -37 8 3
95 7 193 10 140 5 183 9 196 21 20 18 25 14 50 -40 11 -22 25 -48 32 -57 7 -9
10 -19 7 -22 -3 -3 -159 -8 -347 -11 -327 -5 -342 -5 -342 13 0 10 13 36 29
58 31 42 80 157 115 270 13 39 29 85 37 103 l14 33 90 -7 c50 -4 101 -8 115
-8 15 -1 26 4 28 14 5 24 -48 39 -139 39 -43 0 -80 3 -82 8 -3 4 -1 17 4 29 6
18 14 22 36 18 15 -2 61 -7 101 -10 67 -5 72 -4 72 14 0 24 -43 35 -137 36
-50 0 -63 3 -63 16 0 32 22 41 91 34 36 -3 79 -9 94 -13z m-1731 -148 c-25
-77 -81 -211 -125 -300 -43 -89 -79 -171 -79 -183 0 -16 -6 -21 -24 -21 -14 0
-27 4 -31 9 -5 10 22 63 61 116 35 49 133 259 175 377 41 115 58 153 65 145 3
-2 -16 -67 -42 -143z m245 131 c164 -6 234 -26 202 -58 -8 -8 -56 -12 -149
-12 l-137 0 0 -25 0 -25 154 0 c148 0 154 -1 168 -22 29 -43 14 -49 -103 -48
-60 1 -137 5 -170 10 -67 8 -82 0 -59 -32 13 -18 29 -21 147 -27 73 -4 152 -6
175 -6 33 1 45 -5 62 -26 12 -15 21 -31 21 -36 0 -8 48 -115 71 -160 9 -16 4
-18 -43 -17 -29 0 -144 -1 -254 -3 -171 -3 -205 -6 -220 -20 -11 -9 -30 -18
-44 -20 -17 -2 -25 -9 -25 -23 0 -16 6 -20 30 -19 17 1 159 3 316 5 229 3 290
1 303 -10 19 -16 21 -50 4 -52 -63 -7 -271 -11 -502 -11 -304 0 -301 -1 -292
57 2 17 31 88 65 158 34 70 61 132 61 138 0 5 4 17 9 27 16 27 61 149 61 162
0 7 6 26 14 43 8 18 17 40 20 50 4 14 12 17 28 12 11 -4 51 -9 87 -10z m2929
-525 c39 0 72 -4 72 -9 0 -18 -136 -22 -218 -5 -39 8 -14 23 31 18 23 -3 75
-4 115 -4z"/>
<path d="M3548 13302 c-53 -3 -71 -22 -61 -62 6 -21 10 -22 58 -16 l51 6 76
-158 c42 -86 78 -166 80 -176 4 -24 -42 -37 -109 -30 -34 3 -47 0 -64 -17 -11
-11 -18 -26 -16 -32 5 -15 95 -17 207 -5 91 10 396 11 470 2 56 -8 85 -8 180
-1 41 3 85 6 98 6 14 1 22 7 22 19 0 29 -21 42 -66 42 -27 0 -44 5 -47 14 -3
8 -9 80 -13 160 -6 137 -6 146 12 152 60 19 75 29 80 51 4 13 5 26 3 28 -5 4
-166 8 -299 7 -52 -1 -148 0 -213 2 -143 3 -149 -2 -131 -90 4 -23 -2 -47 -27
-97 -18 -37 -38 -67 -45 -67 -17 0 -100 168 -88 179 5 5 18 11 29 13 14 2 21
12 23 36 2 17 0 32 -5 33 -28 3 -166 4 -205 1z m477 -239 c-4 -93 -9 -170 -12
-173 -2 -3 -24 -6 -48 -6 -24 -1 -60 -5 -80 -8 l-38 -7 6 45 c6 39 55 179 90
256 19 41 39 60 65 60 l25 0 -8 -167z m313 150 c5 -10 10 -89 11 -176 2 -138
0 -158 -14 -163 -39 -15 -56 40 -73 248 -4 48 -6 92 -4 98 6 18 70 12 80 -7z
m-161 -20 c14 -22 19 -54 21 -169 l4 -141 -28 -7 c-24 -6 -33 -3 -57 24 l-28
31 6 132 c4 73 8 138 11 145 7 23 53 13 71 -15z"/>
<path d="M2015 11603 c-97 -22 -230 -71 -282 -105 -65 -42 -194 -183 -255
-279 -31 -49 -71 -139 -74 -164 0 -5 -7 -23 -13 -40 -7 -16 -17 -83 -23 -148
-8 -100 -7 -122 6 -141 9 -15 13 -37 9 -62 -11 -90 89 -308 194 -420 51 -55
191 -159 226 -169 12 -4 31 -10 42 -15 48 -22 114 -42 165 -51 69 -12 282 -12
312 0 13 5 52 17 88 27 93 26 203 94 293 182 43 43 104 103 137 135 91 89 152
188 184 299 20 72 35 217 23 225 -5 3 -6 25 -2 50 4 25 2 49 -4 56 -17 22 -41
104 -35 122 5 11 0 18 -13 21 -11 3 -27 17 -36 32 -8 15 -32 45 -52 66 -20 22
-39 45 -43 52 -19 34 -192 144 -225 144 -8 0 -28 12 -45 28 -17 15 -36 32 -44
37 -26 20 -125 66 -152 71 -16 3 -56 11 -90 19 -33 8 -101 17 -151 20 -49 3
-97 7 -105 9 -8 2 -24 1 -35 -1z m338 -77 c65 -20 66 -36 2 -36 -163 0 -420
-108 -439 -185 -4 -14 -14 -25 -24 -26 -40 -1 -129 -151 -167 -280 -29 -101
-33 -229 -9 -323 27 -107 97 -240 161 -307 95 -100 237 -184 345 -203 15 -2
32 -7 38 -11 13 -8 229 -8 274 0 103 20 -35 -59 -169 -96 -102 -28 -295 -31
-323 -5 -13 11 -21 13 -29 5 -22 -22 -206 51 -242 95 -7 9 -17 13 -22 10 -5
-3 -9 0 -9 6 0 5 -16 18 -35 27 -19 9 -35 22 -35 28 0 6 -28 42 -63 80 -124
137 -162 209 -183 348 -30 197 -8 330 84 514 42 82 207 248 290 290 85 44 180
81 222 86 75 10 275 0 333 -17z m232 -122 c149 -52 266 -138 331 -246 20 -33
51 -104 68 -157 30 -91 31 -102 25 -196 -8 -113 -25 -181 -64 -252 -83 -150
-167 -221 -373 -316 -13 -6 -80 -11 -150 -11 -100 -1 -137 3 -177 18 -115 42
-169 75 -278 165 -47 39 -123 174 -155 274 -26 81 -22 244 8 327 42 121 66
159 152 247 70 72 165 131 256 159 106 33 241 28 357 -12z"/>
<path d="M2089 11087 c-36 -24 -50 -61 -25 -70 8 -3 28 7 46 25 34 32 30 31
145 16 11 -2 21 4 23 14 2 12 -7 20 -35 27 -62 18 -116 13 -154 -12z"/>
<path d="M2568 11084 c-48 -15 -62 -31 -48 -54 7 -11 14 -11 34 -2 48 21 120
25 154 8 16 -8 32 -21 35 -28 3 -10 7 -10 17 -1 20 18 5 40 -41 62 -58 28 -96
32 -151 15z"/>
<path d="M2255 10971 c-7 -23 -52 -33 -93 -21 -17 4 -33 6 -36 2 -16 -15 0
-31 55 -55 l61 -26 26 31 c31 36 41 58 35 76 -8 19 -41 14 -48 -7z"/>
<path d="M2697 10963 c-4 -3 -7 -15 -7 -25 0 -14 -8 -18 -39 -18 -22 0 -44 6
-51 15 -18 21 -40 19 -40 -5 0 -15 13 -26 44 -40 24 -10 47 -23 50 -29 4 -6
15 -11 24 -11 23 1 65 93 49 109 -13 13 -21 14 -30 4z"/>
<path d="M2484 10665 c-4 -8 -3 -22 0 -31 6 -15 8 -15 26 1 11 10 20 24 20 32
0 18 -39 17 -46 -2z"/>
<path d="M2390 10656 c0 -19 26 -27 39 -12 13 15 4 26 -21 26 -10 0 -18 -6
-18 -14z"/>
<path d="M2357 10546 c-33 -10 -56 -29 -57 -46 0 -3 65 -7 145 -8 155 -2 175
6 116 41 -34 20 -64 22 -91 5 -15 -10 -22 -9 -38 5 -21 19 -23 19 -75 3z"/>
<path d="M2397 10444 c-11 -12 3 -24 29 -24 15 0 24 6 24 15 0 15 -40 21 -53
9z"/>
<path d="M5644 8209 c-19 -21 -18 -21 2 -37 12 -10 30 -22 40 -28 16 -10 19
-24 19 -95 0 -83 0 -84 25 -84 56 0 77 121 36 206 -27 57 -87 76 -122 38z"/>
<path d="M5558 7248 c-25 -53 -23 -215 3 -297 40 -127 52 -156 81 -199 16 -23
43 -69 59 -103 17 -33 37 -63 45 -66 18 -7 44 14 44 37 0 23 -41 120 -51 120
-16 0 -54 78 -91 188 -40 122 -48 191 -23 212 8 7 15 19 15 27 0 7 -7 16 -15
19 -10 4 -15 20 -15 50 0 36 -3 44 -18 44 -11 0 -25 -13 -34 -32z"/>
<path d="M4603 5394 c-35 -15 7 -64 53 -64 37 1 67 23 62 47 -2 14 -14 18 -53
20 -28 1 -56 0 -62 -3z"/>
<path d="M7384 5111 c-28 -5 -61 -14 -74 -21 -13 -7 -60 -21 -105 -32 -133
-31 -138 -33 -149 -50 -8 -13 -7 -21 2 -30 9 -9 20 -8 49 6 21 10 60 22 88 27
27 4 79 15 115 24 120 28 190 36 229 26 20 -6 75 -13 124 -17 l87 -7 0 32 c0
17 -5 32 -12 32 -51 5 -77 7 -183 12 -66 3 -143 2 -171 -2z"/>
<path d="M3689 4491 c-26 -20 -91 -38 -179 -49 -41 -5 -56 -12 -58 -25 -4 -21
21 -22 80 -3 24 8 70 17 103 21 101 10 105 12 105 45 0 35 -16 39 -51 11z"/>
<path d="M5658 4972 c-21 -2 -38 -8 -38 -13 0 -16 47 -28 117 -30 37 -1 95 -6
127 -11 46 -7 61 -7 67 4 18 28 -17 41 -121 44 -55 2 -104 5 -108 6 -4 2 -24
2 -44 0z"/>
<path d="M3432 3661 c-8 -5 -12 -17 -10 -27 3 -15 13 -19 48 -21 25 -1 75 -5
113 -9 63 -7 67 -6 67 14 0 23 -9 27 -100 42 -79 12 -101 12 -118 1z"/>
<path d="M3487 3403 c-4 -3 -7 -15 -7 -25 0 -19 1 -19 168 -22 46 -1 33 27
-18 41 -50 13 -133 17 -143 6z"/>
<path d="M3253 2863 c-26 -5 -30 -25 -9 -42 15 -13 547 -27 598 -16 23 5 28
12 26 28 -3 22 -4 22 -273 23 -148 0 -281 3 -295 6 -14 3 -35 4 -47 1z"/>
<path d="M5978 3334 c-5 -4 -8 -16 -8 -26 0 -10 3 -18 8 -18 212 -4 305 -1
315 9 19 19 -11 31 -83 31 -36 0 -101 3 -145 6 -44 4 -83 3 -87 -2z"/>
<path d="M6085 3192 c-3 -3 -5 -13 -5 -22 0 -15 14 -19 77 -25 43 -4 86 -10
98 -15 27 -10 45 -2 45 20 0 14 -11 22 -37 29 -43 11 -170 20 -178 13z"/>
<path d="M5777 2834 c-23 -23 7 -75 33 -59 11 7 98 7 374 2 168 -3 211 -1 222
11 17 17 18 29 2 38 -15 10 -622 17 -631 8z"/>
<path d="M2044 3679 c-14 -22 22 -37 96 -41 61 -2 75 0 75 12 0 8 -11 20 -25
27 -31 16 -136 17 -146 2z"/>
<path d="M1878 3203 c-35 -94 -41 -113 -30 -113 5 0 23 38 40 84 34 89 36 96
24 96 -4 0 -19 -30 -34 -67z"/>
<path d="M2038 3232 c-20 -4 -24 -32 -7 -49 8 -8 20 -8 36 -2 13 5 69 8 124 7
77 -1 103 2 109 13 6 8 5 18 -1 24 -9 9 -224 16 -261 7z"/>
<path d="M1800 2989 c-12 -39 -28 -73 -36 -76 -8 -3 -14 -19 -14 -40 0 -39 14
-37 25 4 3 16 12 35 19 43 7 8 23 43 34 78 16 47 18 62 8 62 -8 0 -23 -31 -36
-71z"/>
<path d="M1828 2854 c-12 -12 -9 -52 4 -60 7 -5 137 -7 288 -6 225 2 278 5
290 17 31 31 -3 37 -232 40 -122 1 -250 6 -283 10 -33 4 -63 3 -67 -1z"/>
<path d="M4162 2772 c-38 -3 -43 -6 -40 -25 3 -20 9 -22 76 -22 82 0 98 5 88
30 -5 13 -14 16 -35 12 -15 -3 -32 -3 -37 1 -5 4 -28 6 -52 4z"/>
<path d="M7302 2153 c-18 -4 -23 -10 -20 -31 3 -29 6 -29 93 -19 51 7 117 -4
122 -20 3 -8 -14 -13 -54 -15 -43 -2 -58 -7 -58 -18 0 -19 68 -33 131 -25 42
5 53 11 68 36 21 35 13 67 -17 74 -90 18 -217 27 -265 18z"/>
<path d="M7386 1455 c-8 -22 -8 -21 10 -39 8 -9 27 -16 40 -16 22 0 25 4 22
33 -3 28 -7 32 -34 35 -22 2 -33 -2 -38 -13z"/>
<path d="M5496 1341 c-12 -18 6 -41 33 -41 14 0 43 -3 64 -6 33 -6 37 -4 37
14 0 22 -10 27 -82 37 -26 3 -49 2 -52 -4z"/>
<path d="M5474 1245 c-10 -26 5 -33 89 -40 73 -7 77 -6 77 13 0 21 -3 22 -118
37 -33 5 -44 3 -48 -10z"/>
<path d="M5360 1125 c0 -23 33 -35 116 -42 71 -6 76 -5 72 13 -6 35 -188 63
-188 29z"/>
<path d="M5288 859 c-5 -4 -8 -15 -6 -25 4 -23 73 -30 353 -35 187 -4 190 -4
193 17 2 13 -4 24 -15 28 -10 4 -88 7 -173 7 -85 0 -197 3 -248 7 -51 4 -98 5
-104 1z"/>
<path d="M6683 1212 c-13 -31 11 -45 83 -49 38 -2 85 -4 104 -6 29 -2 35 1 35
18 0 29 -74 54 -153 53 -47 -1 -65 -5 -69 -16z"/>
<path d="M6674 1096 c-15 -39 0 -45 123 -46 65 -1 134 -2 153 -3 29 -2 36 2
38 19 4 27 -21 32 -185 40 -107 6 -124 4 -129 -10z"/>
<path d="M6738 1013 c-28 -3 -38 -9 -38 -22 0 -31 21 -40 70 -31 64 13 123 12
175 -2 49 -13 60 -9 51 20 -4 13 -19 22 -39 25 -52 9 -179 15 -219 10z"/>
<path d="M4083 1351 c-49 -8 -58 -14 -50 -35 4 -11 22 -15 66 -15 33 0 76 -5
95 -12 28 -10 38 -10 50 0 23 19 4 48 -36 54 -18 3 -44 8 -58 10 -14 3 -44 2
-67 -2z"/>
<path d="M4047 963 c-45 -5 -57 -26 -32 -53 17 -19 19 -19 38 -3 13 12 21 14
24 7 3 -8 15 -9 41 -3 20 5 56 6 80 3 30 -5 42 -3 42 6 0 8 4 9 13 3 6 -5 38
-16 70 -23 50 -11 60 -11 67 0 24 39 -40 63 -155 59 -27 -1 -72 0 -100 3 -27
3 -67 3 -88 1z"/>
<path d="M2740 1129 c-14 -4 -44 -7 -67 -8 -43 -1 -63 -15 -45 -33 11 -11 241
-18 247 -8 14 23 -92 61 -135 49z"/>
<path d="M1253 1002 c-30 -3 -55 -34 -39 -49 3 -3 64 -7 137 -8 72 -2 163 -6
203 -10 55 -5 75 -3 91 9 15 11 17 17 8 26 -15 16 -324 40 -400 32z"/>
<path d="M293 610 c0 -30 2 -43 4 -27 2 15 2 39 0 55 -2 15 -4 2 -4 -28z"/>
</g>
</svg>
