<?xml version="1.0" standalone="no"?>
<!DOCTYPE svg PUBLIC "-//W3C//DTD SVG 20010904//EN"
 "http://www.w3.org/TR/2001/REC-SVG-20010904/DTD/svg10.dtd">
<svg version="1.0" xmlns="http://www.w3.org/2000/svg"
 width="832.000000pt" height="1410.000000pt" viewBox="0 0 832.000000 1410.000000"
 preserveAspectRatio="xMidYMid meet">
<metadata>
Created by potrace 1.16, written by Peter Selinger 2001-2019
</metadata>
<g transform="translate(0.000000,1410.000000) scale(0.100000,-0.100000)"
fill="#000000" stroke="none">
<path d="M5595 13748 c-200 -12 -478 -20 -620 -17 -267 6 -611 -2 -840 -19
-122 -9 -280 -9 -595 2 -247 9 -571 9 -880 1 -146 -3 -620 -8 -1055 -11 -878
-5 -931 -6 -1027 -27 -85 -19 -88 -21 -88 -62 0 -19 -4 -36 -9 -39 -8 -5 -21
-365 -27 -771 -4 -273 -4 -2719 0 -2980 2 -121 7 -476 10 -790 3 -313 8 -734
12 -935 3 -201 4 -390 2 -420 -2 -30 -2 -206 0 -390 1 -184 1 -373 0 -420 -6
-228 9 -2539 17 -2740 4 -75 6 -180 6 -235 0 -100 1 -770 3 -1318 1 -158 -2
-336 -6 -395 -10 -160 -12 -1557 -2 -1640 l5 -42 482 5 c265 3 554 7 642 10
99 3 217 -1 310 -10 98 -9 207 -12 315 -9 150 5 571 13 645 12 343 -3 862 10
895 23 31 12 514 4 587 -10 29 -6 121 -11 205 -12 84 0 169 -1 188 -1 201 -1
888 16 901 22 9 5 19 7 22 4 3 -3 86 -5 184 -4 208 3 168 3 368 -4 274 -10
520 -15 805 -16 295 0 322 1 475 20 55 7 152 13 215 14 63 1 121 5 129 10 37
24 40 61 36 442 -2 203 -4 862 -5 1464 0 602 -1 1658 -1 2345 -1 688 -1 1435
-1 1660 5 2644 3 3154 -8 3255 -5 38 -3 87 3 119 7 39 7 58 -1 72 -7 11 -9 27
-4 41 5 13 9 159 10 324 2 261 0 303 -13 308 -8 3 -16 1 -16 -4 -1 -6 -2 -14
-3 -19 -3 -26 -16 -20 -14 6 2 23 8 33 24 37 l22 6 1 342 c6 1766 3 2711 -8
2742 -11 29 -36 39 -61 26 -15 -8 -21 -6 -28 7 -9 16 -47 17 -493 14 -811 -4
-932 -4 -1264 3 -176 4 -324 8 -330 9 -5 1 -59 -1 -120 -5z m2060 -86 c33 4
86 5 118 1 l58 -6 -7 -31 c-5 -17 -6 -58 -4 -91 7 -98 6 -264 -5 -555 -11
-312 -8 -903 7 -1435 5 -198 8 -403 7 -455 -4 -107 -4 -145 3 -1235 4 -750 1
-1146 -17 -2301 -6 -371 -5 -509 3 -534 9 -23 9 -44 2 -70 -10 -38 -25 -1981
-20 -2573 l2 -278 -68 27 c-74 28 -127 34 -341 34 -115 0 -230 -7 -244 -16 -4
-2 -52 -13 -108 -23 -56 -11 -118 -29 -139 -40 -105 -55 -183 -81 -367 -125
-186 -43 -386 -43 -554 -1 -33 9 -82 18 -108 21 -121 14 -271 24 -303 22 l-35
-3 -2 -120 c-2 -185 -22 -532 -32 -558 -11 -29 -77 -47 -174 -47 -72 0 -120
17 -237 85 -14 8 -47 25 -75 37 -88 41 -81 26 -83 179 0 76 -6 148 -12 158
-13 26 -74 38 -96 20 -14 -12 -16 -29 -11 -107 4 -69 2 -92 -6 -89 -7 2 -17
48 -24 113 -6 60 -17 145 -23 189 -7 44 -9 110 -6 147 4 61 3 68 -13 68 -23 0
-38 -18 -43 -50 -2 -18 -8 -24 -23 -23 -11 1 -40 -4 -65 -12 -109 -35 -142
-45 -154 -45 -8 0 -45 -14 -83 -31 -37 -17 -70 -30 -73 -30 -3 1 -18 -3 -35
-8 -16 -5 -69 -15 -117 -21 -49 -7 -88 -17 -88 -22 0 -6 -6 -6 -14 2 -8 6 -30
11 -48 10 -71 -4 -67 -13 -61 128 6 147 6 178 -7 288 -5 44 -5 96 -1 115 4 19
6 43 3 54 -9 44 -2 70 46 168 28 56 60 122 71 147 21 47 92 178 174 321 27 46
56 104 64 129 8 25 23 54 32 65 10 11 25 38 34 61 8 22 24 56 34 74 l19 34
150 1 c83 1 155 4 160 8 39 23 72 -102 104 -388 11 -99 29 -194 41 -217 12
-22 39 -292 39 -388 0 -42 -6 -86 -13 -100 -7 -14 -19 -46 -26 -71 -10 -37
-23 -54 -62 -84 -58 -44 -61 -48 -53 -69 8 -22 26 -20 47 4 17 20 37 27 37 13
0 -5 -9 -19 -20 -33 -25 -32 -28 -121 -4 -141 9 -8 28 -32 42 -53 29 -47 89
-106 107 -106 7 0 18 -6 24 -14 7 -8 42 -26 79 -41 37 -15 81 -33 97 -40 50
-21 68 -25 166 -34 l94 -10 32 36 c39 44 47 86 34 176 -10 71 -3 111 21 120
11 4 10 7 -1 15 -32 23 -41 82 -30 207 15 175 16 178 66 273 44 83 70 157 94
267 11 53 40 164 65 255 18 61 70 204 87 235 5 11 12 37 14 59 11 122 38 156
122 156 68 0 73 5 81 70 4 35 9 45 25 48 52 8 66 14 95 45 16 17 30 42 30 55
0 15 9 26 26 32 42 16 111 68 135 101 l22 31 -48 97 c-26 53 -56 108 -66 122
-21 30 -34 97 -25 132 8 34 52 62 71 47 23 -19 29 -74 11 -108 -39 -75 6 -87
54 -15 27 39 31 54 27 86 -3 21 -12 46 -20 55 -7 9 -20 33 -27 52 -7 19 -21
46 -30 60 -9 14 -22 40 -28 58 -6 18 -20 45 -30 60 -11 15 -23 38 -27 52 -15
47 -135 288 -150 300 -8 7 -15 21 -15 31 0 22 -58 157 -77 180 -7 8 -13 21
-13 29 0 7 -21 53 -46 103 -63 123 -67 131 -81 140 -7 4 -13 18 -13 30 0 13
-5 28 -11 34 -14 14 -7 85 9 91 8 2 12 -8 12 -32 0 -64 48 -35 66 39 4 17 12
37 19 45 7 8 20 32 30 53 9 20 22 37 27 37 6 0 23 -11 40 -25 33 -28 42 -30
86 -14 40 14 45 32 45 150 -1 107 -11 136 -71 204 -44 50 -90 75 -142 78 -39
2 -50 19 -16 25 35 7 87 -9 115 -36 15 -15 37 -35 47 -44 11 -9 25 -24 33 -33
9 -12 22 -15 41 -12 27 6 27 5 34 -61 4 -40 14 -74 24 -85 16 -18 16 -20 -1
-32 -38 -28 -10 -56 31 -29 54 35 81 85 93 172 5 36 14 71 20 78 6 7 14 25 18
41 6 22 14 29 42 33 27 4 34 10 33 26 0 16 4 20 18 16 28 -7 48 17 48 59 0 30
4 39 23 45 42 12 57 34 57 83 0 38 4 48 23 56 12 6 26 19 31 31 5 11 24 30 42
42 19 12 36 33 40 47 7 27 29 34 37 11 8 -21 102 -28 148 -10 21 9 39 19 39
23 0 4 13 15 30 24 20 12 33 31 41 60 6 23 17 49 25 58 8 9 31 48 51 85 32 60
36 77 35 136 -1 46 -7 76 -19 94 -10 16 -18 40 -19 56 -1 15 -5 52 -9 83 -3
30 -4 55 -1 55 3 0 14 -17 25 -37 l20 -38 1 32 c0 18 -8 52 -19 75 -65 147
-78 172 -101 186 -39 24 -100 85 -100 99 0 7 -11 23 -25 35 -14 12 -25 29 -25
38 0 9 -9 25 -20 35 -11 10 -20 22 -20 26 0 17 -57 97 -103 146 -27 28 -70 62
-95 76 -144 75 -168 87 -183 87 -29 0 -142 39 -177 60 -18 11 -30 25 -27 30 4
6 21 0 43 -15 27 -18 38 -21 44 -12 17 27 -32 108 -87 146 -19 13 -35 28 -35
33 0 12 -58 87 -85 110 -11 9 -47 27 -80 39 -33 12 -82 36 -110 53 -82 52
-231 95 -263 77 -13 -7 -23 -4 -42 14 -14 13 -40 27 -59 32 l-34 9 2 105 c3
164 -30 425 -69 539 -10 30 -30 93 -45 139 -14 47 -44 116 -65 155 -22 39 -46
91 -55 116 -9 24 -24 54 -34 65 -10 11 -27 36 -36 55 -10 19 -23 38 -29 42 -6
4 -11 11 -11 16 0 25 -89 102 -118 102 -8 0 -34 13 -58 30 -24 16 -55 30 -69
30 -14 0 -46 7 -72 15 -26 8 -75 17 -107 21 -50 5 -65 3 -93 -14 -54 -32 -128
-51 -228 -56 -52 -3 -122 -10 -155 -15 -33 -5 -76 -12 -95 -15 -99 -15 -226
-49 -290 -78 -24 -11 -54 -21 -66 -22 -12 0 -20 -4 -18 -8 2 -3 -12 -15 -31
-26 -28 -17 -40 -19 -67 -11 -18 5 -46 9 -63 9 -43 0 -80 28 -133 101 -72 98
-112 138 -149 148 -43 12 -70 2 -111 -39 -34 -34 -41 -70 -17 -90 20 -17 19
-32 -1 -28 -30 5 -26 -20 5 -36 38 -20 46 -20 65 0 22 21 20 56 -4 84 -23 27
-24 32 -8 48 14 14 53 16 77 2 16 -8 101 -113 101 -124 0 -3 13 -19 29 -37 35
-38 114 -79 153 -79 15 0 30 -5 34 -11 3 -6 -26 -43 -64 -82 -93 -95 -104
-109 -137 -192 -38 -95 -48 -193 -47 -433 1 -193 2 -207 28 -283 27 -79 27
-80 9 -119 -12 -27 -24 -40 -37 -40 -18 0 -20 6 -16 57 3 50 0 58 -16 61 -10
2 -22 -2 -27 -9 -13 -22 -22 -3 -9 21 16 29 5 57 -15 40 -8 -7 -15 -18 -15
-26 0 -7 -9 -18 -19 -23 -30 -17 -34 14 -6 45 14 15 27 41 29 58 3 17 10 65
16 106 6 41 15 104 20 140 5 36 10 84 10 107 0 24 9 61 21 83 17 32 19 44 10
53 -10 9 -19 4 -41 -23 -25 -29 -30 -44 -30 -90 0 -61 -27 -260 -36 -269 -3
-3 -9 1 -14 9 -8 12 -13 13 -30 3 -11 -7 -22 -13 -25 -13 -10 0 8 55 31 97 43
75 27 100 -31 48 -24 -23 -35 -40 -31 -51 3 -8 1 -25 -6 -37 -7 -12 -14 -40
-17 -62 -6 -37 -9 -40 -36 -40 -29 0 -30 1 -27 42 4 48 -8 60 -33 33 -20 -23
-35 -26 -35 -8 0 21 43 58 68 58 28 0 112 83 112 111 0 9 8 27 19 40 28 36 57
98 74 159 9 31 30 73 46 95 17 22 31 48 31 58 0 28 -29 20 -36 -10 -4 -16 -17
-41 -29 -58 -12 -16 -30 -50 -40 -75 -24 -58 -33 -69 -44 -51 -7 11 -14 8 -35
-14 -26 -28 -35 -21 -17 13 5 9 15 44 22 77 7 36 23 75 40 97 31 40 36 58 16
58 -24 0 -82 -58 -105 -104 -24 -46 -42 -60 -42 -30 0 12 -6 15 -24 10 -37 -9
-40 10 -6 34 16 12 30 28 30 35 0 28 -23 27 -67 -4 -75 -53 -103 -26 -60 58
31 61 100 117 162 132 70 16 80 22 83 53 3 21 -1 26 -19 26 -13 0 -39 -11 -58
-24 -47 -32 -74 -36 -79 -13 -5 23 21 43 70 57 44 12 44 12 53 67 6 39 5 44
-18 52 -13 5 -27 17 -31 26 -9 24 -36 1 -36 -31 0 -15 -6 -24 -15 -24 -19 0
-42 -37 -48 -76 -3 -17 -13 -43 -22 -58 -15 -23 -16 -30 -5 -51 12 -22 11 -27
-12 -45 -14 -11 -40 -41 -57 -68 -46 -72 -41 -152 9 -152 9 0 25 -9 36 -21 24
-27 112 -72 124 -64 14 8 13 -18 -1 -32 -21 -21 -6 -57 28 -68 45 -15 45 -17
23 -63 -11 -22 -20 -46 -20 -51 0 -13 -33 -31 -56 -31 -22 0 -77 -37 -92 -61
-38 -61 105 -210 145 -151 10 14 22 17 64 12 72 -7 84 -28 42 -72 -46 -49 -49
-94 -5 -104 65 -14 82 -25 82 -55 0 -16 9 -37 22 -49 25 -23 23 -23 67 -10 26
7 39 6 55 -5 27 -20 42 -19 92 6 32 15 46 29 54 55 12 36 5 110 -11 120 -6 3
-7 28 -4 58 6 43 2 63 -20 115 -14 35 -25 75 -23 90 3 29 -4 28 141 15 l79 -7
19 -44 c15 -36 16 -48 6 -71 -6 -15 -20 -33 -30 -41 -22 -16 -12 -28 23 -31
43 -4 50 -1 62 25 16 36 31 19 24 -27 -5 -33 -4 -41 12 -45 10 -2 26 -18 36
-34 18 -31 35 -36 53 -18 7 7 17 8 30 1 10 -6 30 -8 44 -5 26 5 34 -4 94 -102
10 -16 29 -38 42 -48 13 -10 23 -27 23 -38 0 -23 -16 -25 -24 -3 -5 12 -14 15
-35 11 -19 -4 -33 -1 -41 8 -15 18 -50 16 -75 -6 -11 -9 -40 -23 -64 -29 -59
-16 -138 -57 -155 -82 -12 -17 -19 -18 -52 -9 -94 24 -146 24 -222 -2 -112
-38 -215 -135 -172 -162 19 -11 10 -42 -15 -53 -13 -6 -36 -29 -51 -52 -23
-34 -26 -47 -22 -92 5 -46 2 -58 -23 -95 -33 -47 -36 -77 -14 -129 11 -28 20
-35 34 -31 22 5 20 -14 -10 -80 -10 -24 -19 -52 -19 -63 0 -59 -35 -160 -55
-160 -7 0 -30 -23 -51 -52 -31 -42 -49 -56 -93 -71 -124 -44 -181 -95 -181
-163 0 -29 -4 -34 -37 -45 -133 -43 -179 -177 -71 -204 19 -5 28 -14 30 -33 2
-22 8 -27 32 -27 19 -1 34 -9 44 -23 30 -46 76 -16 53 35 -26 58 36 47 92 -16
27 -31 28 -31 64 -16 34 14 40 14 80 -5 23 -11 60 -20 81 -20 32 0 45 -7 85
-48 36 -37 50 -61 62 -105 8 -32 15 -63 15 -70 -1 -16 -40 32 -40 48 0 20 -88
135 -103 135 -7 0 -21 -6 -31 -13 -17 -13 -17 -16 13 -49 37 -43 104 -180 99
-205 -2 -10 -11 -18 -22 -18 -12 0 -25 17 -42 59 -28 69 -40 86 -64 86 -36 0
-40 -23 -15 -75 13 -28 25 -67 25 -87 0 -34 -3 -38 -25 -38 -19 0 -25 5 -25
21 0 27 -39 161 -50 172 -4 5 -17 6 -29 2 -25 -8 -26 -29 -7 -103 13 -49 13
-53 -2 -50 -10 2 -26 27 -39 58 -22 56 -33 66 -58 56 -13 -5 -12 -13 5 -56 26
-66 25 -80 -3 -80 -20 0 -27 10 -48 72 -17 52 -29 74 -43 76 -34 7 -37 -13
-11 -69 13 -30 25 -62 25 -72 0 -36 -25 -10 -50 54 -24 58 -29 64 -58 67 -18
2 -32 0 -32 -5 0 -4 13 -34 30 -66 16 -32 27 -64 23 -72 -9 -25 -38 -17 -50
14 -8 23 -15 29 -32 24 -11 -3 -21 -9 -21 -14 0 -5 -4 -9 -10 -9 -5 0 -9 46
-9 109 0 99 -2 113 -24 148 -25 40 -91 103 -107 103 -5 0 -12 -9 -15 -20 -3
-11 -10 -20 -14 -20 -12 0 -33 55 -29 76 4 26 -33 30 -88 9 -43 -16 -48 -23
-45 -56 1 -9 -6 -19 -15 -23 -14 -5 -15 -4 -5 8 9 11 7 15 -9 19 -11 3 -24 17
-30 31 -5 15 -17 29 -25 32 -9 4 -24 23 -34 43 -11 20 -31 46 -46 59 l-26 23
44 40 c54 47 87 120 69 150 -7 10 -12 27 -12 38 0 27 -45 77 -75 85 -26 7 -35
39 -14 51 6 4 26 41 45 83 47 102 52 113 59 142 4 14 24 61 46 106 21 44 39
85 39 91 0 6 7 16 14 23 8 6 20 28 27 48 6 20 17 44 23 52 7 8 29 53 50 100
21 47 51 106 68 132 36 58 28 80 -37 98 -25 7 -45 18 -45 24 1 6 18 29 40 50
22 23 43 58 50 82 7 24 20 51 30 62 21 22 35 70 45 151 l6 54 -38 -6 c-53 -9
-66 2 -58 47 l7 36 -44 0 c-79 0 -223 -47 -268 -87 -24 -21 -132 -102 -174
-129 -21 -14 -55 -28 -75 -31 -57 -7 -161 -45 -161 -59 0 -23 41 -104 60 -117
44 -30 28 -36 -115 -40 -141 -5 -316 -21 -412 -39 -38 -7 -56 -16 -68 -35 -17
-25 -16 -28 10 -87 70 -154 88 -188 121 -222 19 -20 34 -42 34 -48 0 -6 15
-33 33 -61 37 -55 84 -132 106 -174 7 -14 21 -35 30 -46 9 -11 32 -51 51 -90
19 -38 42 -81 52 -94 29 -38 23 -57 -31 -87 -27 -16 -56 -40 -65 -55 -36 -61
-6 -163 58 -193 47 -22 50 -29 21 -54 -29 -25 -32 -62 -9 -98 16 -24 16 -26
-5 -40 -16 -12 -20 -21 -15 -42 4 -15 13 -34 20 -43 9 -10 12 -30 7 -66 -5
-47 -4 -52 21 -68 28 -19 32 -35 15 -63 -10 -15 -6 -28 16 -66 26 -44 27 -53
22 -122 -8 -89 -69 -307 -107 -384 -15 -30 -43 -71 -62 -90 -22 -22 -38 -51
-42 -75 -7 -34 -4 -41 19 -61 40 -34 75 -43 245 -59 85 -8 171 -17 191 -21 26
-4 45 -1 65 11 16 10 21 11 12 3 -16 -14 -15 -16 15 -25 41 -12 102 4 159 43
42 30 81 46 160 69 63 17 68 22 68 55 0 42 -17 74 -48 88 -32 14 -112 137
-172 266 -42 90 -76 209 -65 226 4 6 44 10 91 10 l84 0 0 -36 c0 -46 33 -100
73 -120 56 -30 191 1 252 57 15 13 48 21 112 29 50 5 97 12 105 15 8 3 30 -14
52 -40 21 -26 49 -50 62 -55 13 -5 32 -23 42 -39 23 -38 61 -68 104 -83 18 -6
44 -19 58 -28 80 -55 235 -72 290 -32 33 25 62 28 79 8 15 -18 96 -19 146 -2
48 17 72 45 87 103 13 54 28 40 28 -27 0 -62 16 -114 46 -149 20 -24 25 -43
28 -100 4 -85 37 -144 91 -167 19 -8 39 -23 45 -34 10 -18 3 -29 -47 -82 -135
-145 -153 -165 -185 -207 -18 -24 -39 -55 -46 -68 -7 -13 -22 -29 -33 -36 -10
-6 -19 -17 -19 -23 0 -6 -10 -19 -21 -30 -12 -10 -40 -45 -63 -77 -43 -61 -46
-66 -137 -187 -30 -41 -66 -92 -78 -112 -12 -20 -35 -51 -51 -69 -17 -17 -30
-37 -30 -44 0 -7 -17 -35 -38 -62 -21 -26 -55 -76 -76 -111 -20 -34 -41 -62
-45 -62 -5 0 -21 -28 -35 -62 -15 -35 -36 -72 -45 -83 -33 -36 -32 -64 4 -139
19 -39 42 -83 52 -98 15 -24 16 -33 5 -73 -11 -42 -10 -49 8 -75 11 -16 42
-43 69 -60 47 -31 48 -33 44 -73 -5 -41 -3 -43 62 -97 l66 -55 -4 -50 c-3 -27
-11 -77 -20 -110 -34 -132 -73 -328 -87 -443 -7 -52 -21 -124 -32 -160 -11
-37 -24 -85 -29 -107 -6 -21 -14 -44 -20 -51 -18 -22 -37 -119 -43 -219 -2
-55 -9 -118 -15 -140 -6 -22 -13 -92 -16 -155 -7 -126 -23 -239 -37 -256 -12
-16 -80 0 -148 35 -85 45 -314 118 -425 136 -209 34 -243 37 -355 32 -109 -5
-306 -41 -455 -82 -33 -9 -91 -24 -130 -34 -38 -11 -83 -24 -98 -30 -16 -6
-43 -11 -61 -11 -35 0 -76 -23 -59 -33 6 -4 75 7 154 24 79 17 162 34 184 39
22 4 85 19 140 33 122 31 231 49 307 52 32 1 60 4 63 6 2 3 37 1 76 -4 58 -8
73 -7 80 4 7 12 9 11 9 -2 0 -12 19 -18 78 -27 141 -20 193 -30 205 -41 7 -5
49 -21 92 -35 44 -14 116 -44 160 -66 44 -22 97 -43 117 -47 46 -7 49 -26 8
-50 -17 -9 -30 -23 -30 -31 0 -7 -4 -11 -9 -8 -11 7 -44 -41 -38 -57 2 -7 -2
-27 -9 -46 -8 -18 -21 -88 -29 -155 -9 -66 -19 -143 -22 -170 l-6 -48 -41 5
c-23 4 -90 31 -151 60 -60 30 -128 60 -150 67 -22 7 -60 21 -85 31 -63 26
-311 105 -394 125 -54 14 -70 14 -76 4 -6 -9 -10 -9 -17 4 -7 13 -30 16 -133
17 -118 0 -176 -7 -370 -46 -111 -22 -120 -24 -120 -35 0 -15 60 -12 61 3 0 9
2 9 6 -1 2 -6 8 -10 12 -7 4 2 21 6 37 9 16 3 70 13 119 22 220 41 466 17 640
-61 17 -8 52 -19 78 -24 25 -6 66 -18 89 -27 24 -9 68 -25 98 -36 30 -11 109
-47 176 -79 66 -33 149 -65 185 -73 58 -12 64 -15 62 -37 -11 -116 -26 -207
-46 -274 l-24 -80 -44 -1 c-24 -1 -98 -3 -164 -4 -116 -2 -165 -10 -165 -28 0
-5 21 -6 48 -2 65 10 261 4 295 -9 26 -10 37 -43 18 -55 -5 -3 -47 -7 -93 -7
-45 -1 -89 -6 -95 -12 -9 -6 -13 -6 -13 1 0 12 -139 10 -159 -2 -6 -4 -11 -3
-11 2 0 5 -19 7 -42 6 -24 -2 -95 -4 -158 -5 -63 -1 -123 -6 -134 -11 -13 -7
-21 -7 -25 1 -4 6 -18 11 -32 10 -13 0 -41 3 -63 6 -27 5 -36 4 -32 -4 4 -6 0
-11 -8 -11 -9 0 -16 4 -16 10 0 6 -105 9 -287 8 -159 0 -436 1 -616 4 -180 3
-330 1 -332 -3 -3 -4 -45 -10 -95 -14 -67 -5 -90 -11 -90 -21 0 -8 -9 -14 -21
-14 -11 0 -17 5 -14 10 3 6 -4 10 -18 10 -35 0 -53 25 -41 57 l9 26 425 3
c234 2 622 4 863 5 336 2 437 5 437 15 0 14 -146 18 -650 16 -448 -1 -638 0
-755 2 -55 1 -153 3 -217 4 l-118 2 0 170 c0 94 3 170 8 171 14 2 157 10 174
10 13 0 17 7 16 25 -2 24 -4 25 -53 18 -52 -7 -123 -6 -137 2 -13 8 -8 154 5
155 7 0 36 0 64 -1 41 -1 53 2 53 13 0 21 -17 25 -64 16 -30 -5 -43 -3 -56 10
-15 14 -16 29 -8 121 4 58 9 111 11 119 1 10 37 14 167 16 181 2 237 7 380 29
183 29 604 131 565 137 -26 4 -78 -5 -179 -31 -61 -16 -146 -34 -188 -41 -43
-7 -78 -15 -78 -18 0 -4 -12 -6 -27 -7 -16 0 -59 -6 -98 -13 -59 -11 -220 -29
-290 -33 -38 -2 -120 4 -188 15 l-68 10 3 56 3 56 174 -3 c133 -2 176 0 183
10 6 10 8 10 8 1 0 -15 76 -17 152 -4 25 4 52 4 60 0 7 -4 63 -1 123 7 185 25
200 28 200 44 0 19 -28 19 -173 -4 -133 -20 -357 -22 -724 -6 -4 0 -9 51 -11
113 -2 61 -7 132 -10 157 -4 25 -6 187 -5 360 1 254 2 1508 1 2875 -1 1336 -5
1935 -14 2113 -6 132 -8 375 -4 640 4 235 7 450 6 477 -1 93 2 1027 4 1500 3
632 15 1406 21 1417 3 4 18 8 33 8 15 0 32 5 37 10 6 6 147 10 385 9 579 -2
650 -2 869 -1 113 0 270 0 350 0 80 -1 231 2 335 6 561 21 892 22 1045 6 52
-6 109 -11 125 -10 17 0 54 0 83 1 37 0 55 5 59 15 5 13 8 13 24 -2 15 -14 32
-16 91 -11 416 31 424 31 463 13 29 -14 47 -16 88 -10 29 5 59 8 67 7 38 -5
369 -4 405 1 22 3 114 6 205 7 91 0 197 5 235 10 111 15 459 22 497 10 39 -12
-18 -12 678 -6 603 5 879 10 886 17 2 3 21 2 42 -1 20 -4 64 -3 97 1z m-2850
-1835 c22 -5 54 -16 72 -23 17 -8 33 -14 37 -14 3 0 25 -13 49 -30 25 -16 54
-30 66 -30 22 0 104 -69 122 -101 5 -10 14 -64 20 -121 13 -120 -1 -250 -33
-308 -11 -19 -22 -57 -25 -85 -5 -46 -2 -53 29 -88 22 -26 42 -39 63 -40 27
-2 30 1 41 48 7 28 13 61 13 74 1 20 -3 23 -26 18 -46 -9 -74 51 -34 73 16 8
18 17 14 50 -4 27 -2 40 6 40 6 0 13 -6 15 -12 2 -7 20 -62 39 -123 29 -91 37
-135 45 -255 6 -80 10 -161 9 -180 -2 -26 2 -35 15 -38 31 -6 41 42 33 173 -8
150 -27 258 -54 321 -27 60 -39 134 -22 134 6 0 16 -12 22 -27 6 -16 17 -41
24 -58 15 -34 28 -73 30 -95 1 -8 14 -53 28 -100 29 -93 60 -404 52 -517 -13
-182 -18 -233 -32 -278 -31 -105 -68 -202 -95 -250 -15 -27 -37 -68 -49 -90
-50 -91 -204 -263 -287 -318 -30 -20 -41 -34 -38 -45 5 -14 -2 -17 -32 -18
-20 0 -59 -4 -87 -8 -108 -17 -214 -8 -310 26 -49 17 -102 39 -116 49 -14 10
-38 21 -55 25 -16 4 -33 10 -39 14 -5 4 -23 10 -40 14 -82 19 -175 84 -295
206 -70 72 -99 89 -157 96 -27 3 -67 14 -90 25 -64 29 -141 34 -200 15 -57
-19 -85 -45 -109 -101 l-17 -40 -10 39 c-12 46 5 112 31 120 34 11 72 56 72
86 0 16 -4 32 -10 35 -22 13 -10 35 19 35 42 0 61 9 61 30 0 23 42 31 100 19
25 -5 75 -15 111 -22 36 -6 73 -20 83 -29 10 -10 23 -18 30 -18 7 0 21 -9 31
-20 11 -12 46 -38 79 -58 42 -25 55 -38 43 -40 -27 -5 -88 18 -127 49 -45 36
-129 50 -149 25 -11 -13 -11 -22 -3 -41 10 -22 15 -24 56 -19 32 5 52 2 68 -8
13 -8 64 -27 113 -42 50 -15 110 -37 134 -49 42 -21 127 -37 206 -41 22 -1 53
-7 68 -14 16 -7 38 -12 50 -12 12 0 33 -6 47 -13 14 -7 48 -14 77 -16 28 -1
75 -6 104 -10 30 -5 63 -5 74 -1 29 11 61 50 69 84 4 15 42 72 84 125 42 53
86 110 97 126 36 56 64 159 80 295 8 74 18 146 21 159 10 43 24 2 24 -70 0
-42 5 -72 15 -85 15 -19 15 -19 31 1 13 16 15 37 11 110 -6 84 -9 97 -60 195
-49 97 -92 206 -130 337 -14 51 -14 54 11 115 32 79 35 177 7 258 -30 85 -135
240 -164 240 -6 0 -11 4 -11 8 0 11 -66 42 -88 42 -10 0 -27 7 -38 15 -10 8
-29 15 -41 15 -13 0 -23 4 -23 10 0 15 73 50 90 43 8 -3 33 -10 55 -16z m-160
-94 c17 -8 51 -18 78 -23 30 -6 67 -24 100 -50 90 -68 176 -247 160 -334 -14
-81 -36 -137 -60 -156 -34 -26 -47 -26 -38 3 14 46 17 77 6 77 -5 0 -15 -9
-21 -20 -6 -11 -17 -20 -25 -20 -12 0 -12 4 0 26 7 15 11 33 8 41 -8 19 -53
-23 -53 -49 0 -19 -26 -36 -37 -25 -3 4 2 22 11 41 20 42 20 52 1 60 -9 3 -20
-3 -27 -14 -7 -11 -20 -20 -30 -20 -13 0 -16 8 -15 41 3 57 -16 59 -43 4 -23
-48 -43 -59 -40 -22 4 39 0 47 -19 47 -11 0 -23 5 -26 10 -11 17 -35 -9 -35
-37 0 -22 3 -24 25 -19 18 5 25 2 25 -8 0 -12 -12 -14 -57 -10 -64 5 -72 9
-55 26 19 19 15 60 -5 56 -13 -2 -18 -13 -18 -36 0 -24 -4 -32 -18 -32 -16 0
-18 5 -12 40 5 32 4 40 -8 40 -10 0 -17 -11 -19 -32 -2 -17 -9 -34 -17 -36
-11 -4 -12 5 -7 43 7 42 6 46 -11 43 -14 -2 -19 -14 -21 -51 -3 -52 -7 -53
-84 -41 -30 5 -37 11 -40 32 -4 32 -27 41 -35 14 -3 -12 -11 -18 -19 -15 -8 3
-18 -5 -24 -22 -6 -14 -15 -23 -21 -20 -6 4 -8 13 -6 19 7 18 -9 40 -22 32 -6
-4 -11 -20 -11 -36 0 -19 -7 -33 -19 -40 -30 -15 -43 -12 -36 9 6 21 -19 49
-30 31 -4 -6 -4 -23 0 -37 4 -17 1 -29 -7 -34 -23 -15 -30 -10 -26 15 3 14 2
30 -2 37 -13 20 -31 -1 -30 -35 3 -44 -1 -55 -9 -26 -4 14 -15 26 -24 28 -14
3 -17 -5 -17 -42 0 -35 -5 -48 -19 -56 -17 -8 -20 -6 -23 13 -2 12 -10 22 -18
22 -21 0 -25 -33 -6 -54 12 -13 13 -20 4 -29 -19 -19 -26 -14 -33 19 -4 16
-12 28 -18 26 -16 -6 -10 -69 7 -82 14 -10 11 -65 -3 -65 -3 0 -14 14 -23 31
-18 30 -38 32 -38 3 0 -29 41 -95 65 -104 29 -11 36 -51 8 -43 -42 10 -84 58
-97 108 -13 53 -38 68 -44 27 -5 -31 -26 -23 -30 11 -2 20 -9 27 -24 27 -18 0
-20 -5 -16 -45 3 -25 13 -56 22 -70 14 -22 19 -23 37 -12 16 10 21 9 29 -3 16
-25 11 -30 -22 -23 -124 23 -166 260 -78 439 31 64 78 117 188 215 57 51 75
60 175 92 144 46 144 46 197 52 25 3 74 13 110 21 69 17 304 34 355 27 17 -3
44 -12 60 -20z m-1480 -115 c-19 -11 -30 -5 -21 11 4 6 14 7 22 4 15 -5 14 -7
-1 -15z m2095 -208 c12 -23 6 -40 -16 -40 -9 0 -14 11 -14 30 0 35 14 39 30
10z m-779 -192 c46 -41 63 -71 70 -126 5 -47 12 -64 39 -90 18 -18 39 -31 46
-28 7 3 18 24 24 48 10 34 14 39 21 25 8 -13 15 -14 34 -7 22 8 25 7 25 -11 0
-41 -19 -61 -51 -54 -34 8 -37 -4 -14 -58 8 -20 15 -52 15 -70 0 -20 7 -41 19
-51 11 -10 21 -37 25 -65 12 -88 44 -191 72 -232 36 -52 90 -99 114 -99 30 0
35 21 9 41 -32 24 -19 34 25 18 39 -14 50 -34 41 -72 -9 -35 -73 -92 -120
-107 -22 -7 -62 -24 -90 -36 -27 -13 -61 -24 -76 -24 -14 0 -29 -4 -35 -9 -5
-4 -63 -14 -129 -21 -66 -7 -129 -13 -139 -14 -44 -5 -189 35 -216 59 -38 35
-20 50 78 70 25 5 36 14 43 34 9 25 58 64 76 59 11 -2 66 24 74 35 7 10 0 47
-9 47 -3 0 -28 -11 -56 -24 -101 -48 -160 -46 -171 5 -7 31 -44 71 -187 204
-51 47 -77 80 -81 100 -3 17 -20 50 -39 73 -70 92 -78 106 -78 136 0 120 68
185 245 236 76 22 372 28 396 8z m189 -17 c0 -5 -7 -14 -15 -21 -12 -10 -15
-10 -15 2 0 8 3 18 7 21 9 10 23 9 23 -2z m75 -64 c2 -31 0 -59 -4 -62 -10 -5
-21 93 -14 113 9 21 13 8 18 -51z m199 -93 c11 -30 7 -42 -14 -37 -25 7 -34
19 -26 38 7 20 32 19 40 -1z m-1441 -119 c16 -24 26 -49 23 -54 -11 -17 12
-140 35 -186 20 -39 21 -49 11 -66 -11 -17 -10 -30 7 -77 10 -31 17 -69 14
-83 -5 -28 -50 -57 -64 -42 -13 14 -14 57 -1 80 7 12 12 31 12 43 0 20 -26 69
-43 81 -14 10 -27 131 -21 199 3 36 1 84 -4 108 -5 23 -7 42 -3 42 3 0 19 -20
34 -45z m1472 4 c10 -29 3 -31 -18 -3 -15 20 -15 24 -3 24 8 0 18 -9 21 -21z
m44 -97 c10 -20 24 -57 31 -82 15 -55 14 -191 -1 -201 -7 -4 -9 -18 -4 -38 4
-17 5 -31 3 -31 -2 0 -24 10 -48 21 -34 17 -56 20 -95 16 -56 -6 -57 -5 -94
87 -15 36 -9 42 22 21 23 -15 26 -15 41 0 20 20 20 35 1 49 -8 6 -16 22 -17
36 -3 23 0 25 37 25 53 0 58 25 10 48 -19 9 -35 21 -35 26 0 6 24 11 53 13 38
2 52 7 52 18 0 12 13 29 22 30 2 0 11 -17 22 -38z m-2495 -289 c-3 -12 8 -26
32 -40 19 -13 40 -23 45 -23 5 0 9 -26 9 -57 0 -102 -54 -157 -131 -134 -49
15 -89 48 -105 88 -14 31 -16 33 -53 27 -45 -7 -56 8 -40 56 9 24 17 30 41 30
21 0 31 6 35 19 6 24 70 48 130 50 34 1 40 -2 37 -16z m3051 -183 c3 -5 1 -19
-4 -32 -7 -19 -17 -24 -46 -25 l-37 -1 7 36 c4 20 9 40 11 44 5 8 62 -10 69
-22z m-3305 -10 c14 -26 5 -40 -26 -40 -18 0 -24 5 -24 23 0 41 31 52 50 17z
m3455 -10 c3 -6 0 -13 -8 -16 -10 -4 -15 -21 -15 -56 0 -54 -12 -73 -53 -83
-23 -6 -27 -2 -39 34 -11 35 -11 44 5 78 10 21 23 41 29 45 16 11 74 10 81 -2z
m-3365 -25 c7 -9 10 -18 7 -22 -8 -7 -37 15 -37 28 0 14 16 11 30 -6z m1753 1
c3 -8 3 -23 0 -34 -8 -32 39 -94 89 -120 43 -21 121 -40 178 -43 14 -1 79 6
146 14 124 17 238 48 309 85 22 11 54 22 71 25 17 3 43 13 58 22 36 24 36 -2
-1 -38 -29 -27 -159 -87 -190 -87 -10 0 -63 -11 -118 -25 -183 -47 -271 -49
-440 -9 -36 8 -94 57 -115 95 -9 16 -26 36 -38 45 l-22 15 26 35 c29 37 39 42
47 20z m-2035 -27 c2 -19 -4 -28 -23 -37 -14 -7 -28 -19 -31 -27 -10 -25 -44
-19 -44 8 0 13 -5 28 -12 35 -15 15 -13 16 42 34 56 19 64 18 68 -13z m3757
12 c3 -11 15 -21 27 -23 12 -2 26 -11 32 -20 9 -15 5 -24 -21 -49 -30 -31 -31
-31 -42 -11 -9 17 -17 20 -48 15 -35 -6 -36 -5 -29 18 5 13 10 39 13 57 4 27
9 32 33 32 20 0 31 -6 35 -19z m-3655 -21 c11 -11 27 -20 35 -20 8 0 15 -7 15
-15 0 -25 -77 -20 -90 6 -12 22 -7 49 10 49 5 0 19 -9 30 -20z m165 -40 c11
-18 -5 -31 -26 -20 -11 6 -17 15 -14 21 8 12 32 12 40 -1z m145 0 c0 -5 -4
-10 -9 -10 -6 0 -13 5 -16 10 -3 6 1 10 9 10 9 0 16 -4 16 -10z m3037 -31 c15
-23 40 -56 55 -73 27 -32 27 -33 10 -67 -30 -59 -92 -46 -106 23 -3 17 -13 36
-22 43 -15 11 -15 16 0 63 10 29 21 52 26 52 5 0 21 -18 37 -41z m-3422 -9 c3
-5 17 -10 31 -10 26 0 27 -1 18 -24 -8 -20 -57 -21 -74 -1 -13 16 -7 45 9 45
5 0 13 -4 16 -10z m349 -10 c11 -11 -39 -101 -74 -135 -16 -15 -43 -29 -62
-31 -18 -2 -75 -8 -126 -14 -127 -14 -233 -19 -255 -11 -17 6 -17 8 3 26 16
14 34 19 70 17 46 -2 81 16 51 26 -7 2 -23 16 -36 30 -27 29 -19 50 11 33 11
-6 31 -15 47 -21 16 -6 27 -17 27 -28 0 -25 19 -42 47 -42 27 0 30 20 7 54
-22 34 -1 42 41 16 29 -18 38 -20 50 -10 21 18 19 27 -10 34 -28 7 -34 36 -11
55 11 10 21 9 46 -4 35 -18 98 -11 107 11 5 14 49 10 67 -6z m1564 3 c-4 -20
-35 -30 -50 -15 -15 15 0 32 28 32 19 0 25 -5 22 -17z m2002 7 c0 -5 -7 -10
-15 -10 -8 0 -15 5 -15 10 0 6 7 10 15 10 8 0 15 -4 15 -10z m-193 -33 c3 -3
-4 -19 -16 -35 -12 -17 -21 -34 -21 -39 0 -6 -9 -18 -20 -28 -19 -17 -20 -17
-29 9 -8 20 -17 26 -41 26 -17 0 -30 5 -30 13 1 16 31 53 50 61 17 6 98 1 107
-7z m-5320 -24 c-3 -3 -11 -2 -17 2 -9 6 -9 10 1 16 14 8 27 -7 16 -18z m5458
11 c14 -14 14 -19 2 -38 -8 -11 -26 -22 -39 -24 -20 -2 -26 2 -30 20 -7 39 2
58 27 58 13 0 31 -7 40 -16z m133 -16 c16 -16 15 -38 0 -38 -21 1 -51 28 -43
39 8 14 28 14 43 -1z m-2038 -23 c0 -28 -16 -32 -44 -10 -23 17 -13 35 20 35
19 0 24 -5 24 -25z m792 -30 c-37 -31 -72 -104 -72 -150 0 -21 -8 -43 -19 -54
-17 -17 -24 -17 -110 -5 -50 8 -110 19 -133 25 -24 6 -85 18 -136 27 -67 12
-94 21 -97 33 -3 9 -14 19 -24 22 -19 5 -35 56 -21 70 4 5 16 4 26 -1 56 -30
282 -35 335 -7 19 9 47 19 64 21 16 2 34 9 39 14 6 6 24 10 41 11 16 0 53 9
80 18 58 21 69 11 27 -24z m-3325 -16 c5 -19 11 -21 57 -15 28 4 111 9 185 12
l133 7 -7 -34 c-4 -19 -9 -37 -11 -41 -5 -8 -363 -2 -404 7 -34 7 -40 24 -11
32 11 3 22 16 25 29 8 30 26 31 33 3z m2632 -20 c38 -46 36 -57 -7 -35 -42 22
-62 44 -56 61 10 24 27 17 63 -26z m-1659 1 c0 -5 -7 -10 -15 -10 -8 0 -15 5
-15 10 0 6 7 10 15 10 8 0 15 -4 15 -10z m3181 -16 c7 -9 22 -14 36 -11 13 2
23 2 23 -1 0 -2 -16 -36 -36 -74 -43 -86 -78 -177 -70 -185 3 -4 -1 -14 -9
-23 -8 -9 -29 -72 -46 -140 -32 -128 -59 -185 -56 -119 2 30 -1 34 -35 42 -37
9 -47 20 -29 31 5 3 12 48 16 98 6 77 13 105 42 161 18 37 38 65 43 62 6 -3 6
-15 0 -31 -6 -14 -10 -35 -10 -47 0 -12 -13 -58 -30 -102 -20 -53 -26 -83 -20
-89 26 -26 46 11 106 197 24 76 24 78 7 108 -17 29 -17 31 5 69 12 21 22 46
22 54 0 21 24 20 41 0z m417 -9 c-3 -3 -9 2 -12 12 -6 14 -5 15 5 6 7 -7 10
-15 7 -18z m-618 -64 c0 -8 8 -23 17 -33 14 -16 15 -22 5 -36 -63 -88 -80
-142 -84 -269 -3 -90 -4 -93 -30 -104 -36 -15 -48 -5 -48 42 0 39 -32 114 -72
172 l-20 27 52 76 c28 42 65 105 81 141 l30 66 34 -33 c19 -19 35 -41 35 -49z
m383 35 c12 -35 -1 -49 -37 -40 -30 7 -35 34 -10 59 21 21 36 15 47 -19z m247
-10 c0 -3 -4 -8 -10 -11 -5 -3 -10 -1 -10 4 0 6 5 11 10 11 6 0 10 -2 10 -4z
m-3610 -14 c0 -4 -38 -18 -85 -31 -65 -19 -88 -22 -97 -13 -18 18 0 30 67 40
78 13 115 14 115 4z m1730 -12 c0 -5 -2 -10 -4 -10 -3 0 -8 5 -11 10 -3 6 -1
10 4 10 6 0 11 -4 11 -10z m1760 -36 c0 -19 -5 -24 -25 -24 -27 0 -32 18 -14
51 8 16 13 18 25 8 8 -6 14 -22 14 -35z m-3690 20 c0 -2 -20 -13 -44 -24 -32
-14 -66 -20 -120 -20 -41 0 -78 -5 -81 -10 -4 -6 -11 -8 -16 -5 -5 4 -9 1 -9
-5 0 -8 10 -9 30 -5 17 4 30 3 30 -2 0 -13 202 -8 227 5 12 7 34 12 50 12 15
0 40 7 55 14 26 14 52 20 71 17 5 0 -3 -22 -17 -48 -36 -67 -96 -201 -96 -214
0 -6 -9 -22 -20 -36 -11 -14 -20 -31 -20 -38 0 -17 -24 -25 -97 -32 -35 -3
-63 -10 -63 -16 0 -6 23 -8 59 -4 67 6 75 3 60 -24 -7 -14 -21 -19 -54 -19
-27 0 -45 -5 -45 -11 0 -8 12 -10 35 -6 19 3 37 2 40 -3 5 -8 -34 -98 -64
-150 -5 -8 -19 -39 -32 -67 -12 -29 -29 -53 -36 -53 -8 0 -27 -7 -43 -15 -35
-18 -110 -10 -110 11 0 19 -33 34 -75 34 -23 0 -38 5 -42 15 -8 22 -4 24 57
29 57 4 83 26 33 26 -34 1 -103 9 -121 15 -26 9 -2 21 45 24 50 2 70 12 59 30
-4 6 -34 9 -74 7 -73 -4 -92 0 -92 19 0 16 23 25 65 25 20 0 35 6 39 15 6 17
6 17 -83 20 -61 2 -86 15 -77 40 1 6 39 10 84 10 45 -1 82 2 82 6 0 4 8 9 18
12 18 4 -24 11 -150 25 -43 4 -78 5 -78 1 0 -4 5 -9 12 -11 7 -3 8 -9 3 -19
-5 -8 -10 -18 -10 -24 0 -20 -20 -20 -23 0 -2 11 -9 26 -15 34 -7 7 -13 29
-14 47 -2 29 1 33 15 26 24 -13 212 -6 225 7 19 19 -8 28 -76 25 -65 -2 -174
13 -182 26 -12 19 30 32 112 33 51 1 88 6 88 12 0 6 -9 11 -20 12 -78 5 -250
34 -258 42 -21 21 10 39 53 31 49 -9 269 -5 293 5 43 18 4 28 -118 30 -126 3
-247 12 -272 20 -7 2 -13 12 -13 21 0 14 7 15 43 9 23 -3 60 -10 82 -13 61
-10 271 -5 294 8 12 6 21 16 21 23 0 9 -36 12 -134 12 -120 0 -159 5 -145 20
3 2 133 7 290 10 156 3 298 9 314 14 27 7 55 5 55 -5z m3865 -40 c68 -35 222
-94 245 -94 6 0 9 4 6 8 -3 5 1 9 9 9 8 0 15 -6 15 -12 0 -11 23 -26 122 -80
49 -26 121 -97 144 -141 7 -14 22 -37 34 -51 29 -37 27 -55 -6 -43 -34 13 -81
13 -89 -1 -10 -16 35 -59 61 -59 31 0 142 -68 162 -99 9 -14 26 -33 37 -43 36
-29 76 -115 86 -186 17 -116 19 -161 9 -167 -19 -12 -10 -45 15 -55 23 -9 25
-15 25 -68 0 -77 -23 -142 -66 -186 -62 -64 -135 -62 -119 2 9 36 -3 59 -35
71 -16 5 -38 24 -49 41 -26 43 -51 59 -121 77 -51 12 -74 13 -148 3 -48 -6
-100 -14 -117 -16 -24 -3 -36 4 -70 41 -32 34 -47 43 -63 38 -32 -8 -27 -40
10 -75 47 -43 86 -61 122 -54 148 28 258 28 293 -1 16 -12 14 -13 -17 -6 -45
10 -173 8 -194 -4 -32 -18 0 -35 70 -37 38 -2 78 -8 89 -14 11 -7 32 -16 48
-22 15 -5 27 -15 27 -21 0 -15 -91 -4 -101 12 -4 6 -16 8 -28 4 -31 -10 -25
-49 9 -53 38 -5 90 -23 90 -31 0 -4 -14 -8 -30 -8 -49 0 -59 -19 -21 -40 41
-23 51 -59 22 -79 -15 -11 -19 -22 -15 -38 5 -21 2 -24 -31 -28 -28 -3 -40 0
-48 14 -20 30 -64 23 -87 -14 -27 -44 -25 -64 8 -85 34 -22 42 -33 42 -59 0
-19 -35 -62 -44 -53 -2 2 -11 21 -19 41 -15 36 -17 37 -45 27 -70 -24 -79 -79
-17 -99 27 -9 35 -17 35 -36 0 -35 -24 -40 -53 -10 -13 13 -33 23 -43 21 -11
-2 -22 -4 -26 -4 -3 -1 -22 -17 -42 -36 -43 -41 -46 -73 -10 -104 16 -14 23
-28 19 -38 -3 -9 -8 -43 -12 -75 -7 -71 -23 -77 -23 -8 0 52 -25 115 -54 139
-11 9 -30 11 -59 7 -38 -6 -48 -3 -80 23 -20 16 -53 32 -72 35 -19 4 -35 11
-35 16 0 5 21 31 46 57 26 27 51 60 56 76 6 15 14 27 18 27 5 0 18 16 30 35
19 31 21 39 10 66 -12 27 -11 32 13 57 14 15 29 41 33 57 9 41 42 104 70 138
13 16 24 41 24 55 -1 22 -10 31 -51 52 -28 13 -55 32 -60 42 -6 11 -7 44 -3
78 9 81 -25 160 -103 236 -18 18 -33 39 -33 48 0 10 -9 16 -25 16 -18 0 -26
-7 -31 -26 -5 -21 1 -33 36 -69 32 -32 44 -55 51 -91 5 -26 8 -49 6 -51 -5 -4
-100 28 -114 40 -7 5 -13 28 -13 51 0 22 -4 48 -9 55 -6 9 -6 22 0 34 8 13 5
28 -9 55 -11 21 -27 64 -36 96 -12 41 -23 60 -37 63 -16 4 -19 14 -19 59 0 50
31 168 49 187 4 4 28 -12 52 -35 24 -24 64 -60 89 -80 25 -20 64 -52 87 -71
23 -19 71 -45 105 -56 82 -28 266 -58 398 -66 173 -11 246 -48 270 -137 18
-66 113 -139 142 -110 8 8 2 20 -21 41 -19 18 -38 50 -46 79 -21 71 -82 125
-175 153 -40 12 -84 19 -103 16 -99 -15 -373 29 -457 74 -39 21 -160 112 -160
120 0 4 -20 20 -45 36 -35 21 -48 37 -56 67 -6 24 -18 40 -30 43 -10 3 -19 8
-19 12 0 26 23 137 29 146 5 5 12 25 16 42 9 44 21 49 39 16 18 -35 104 -123
120 -123 6 0 29 -12 50 -26 33 -23 36 -28 22 -36 -9 -5 -16 -13 -16 -18 0 -17
40 -51 51 -44 6 4 15 1 19 -7 10 -15 94 -36 190 -48 36 -4 80 -16 99 -25 40
-21 81 -14 81 14 0 26 -55 49 -142 61 -38 4 -81 15 -97 23 -16 9 -47 18 -70
22 -44 7 -50 14 -26 34 19 16 20 50 1 50 -22 0 -126 49 -162 77 -19 14 -34 32
-34 39 0 20 14 17 35 -6 10 -11 29 -20 42 -20 12 0 23 -3 23 -8 0 -13 84 -49
119 -51 46 -2 114 -35 149 -73 31 -32 62 -34 62 -2 0 34 -40 71 -107 99 -37
16 -88 39 -112 52 -24 13 -60 23 -80 23 -50 1 -71 20 -71 64 0 20 1 36 3 36 2
0 34 -16 72 -36z m-4733 4 c-7 -7 -12 -8 -12 -2 0 14 12 26 19 19 2 -3 -1 -11
-7 -17z m2158 4 c0 -17 -37 -42 -54 -36 -19 7 -20 16 -4 32 14 14 58 16 58 4z
m175 -34 c22 -11 53 -30 69 -43 40 -32 27 -61 -37 -85 l-48 -18 -11 26 c-20
51 -25 57 -57 58 -44 0 -76 34 -67 69 7 26 8 27 59 20 29 -4 70 -16 92 -27z
m2098 7 c-11 -55 -25 -95 -34 -95 -7 0 -9 9 -5 23 3 12 6 37 6 55 0 26 4 33
18 30 9 -2 16 -8 15 -13z m-97 -22 c13 -22 4 -59 -13 -57 -7 1 -18 2 -24 3 -8
1 -8 47 0 69 4 9 28 -1 37 -15z m-2278 -45 c-3 -25 -25 -33 -47 -19 -12 8 -12
12 -2 25 21 25 53 21 49 -6z m102 -24 c0 -9 -5 -14 -12 -12 -18 6 -21 28 -4
28 9 0 16 -7 16 -16z m-187 -66 c6 -17 -33 -58 -55 -58 -9 0 -2 95 9 113 5 9
36 -29 46 -55z m121 33 c7 -10 -22 -37 -30 -28 -9 8 3 37 15 37 5 0 12 -4 15
-9z m452 -33 c40 -31 144 -131 144 -139 0 -15 -56 -19 -107 -8 -43 10 -57 18
-69 41 -16 30 -44 37 -63 14 -10 -11 -9 -21 3 -43 16 -32 44 -48 95 -57 39 -7
61 -22 61 -42 0 -20 -64 -18 -95 2 -14 9 -33 13 -44 9 -15 -4 -23 1 -34 22
-25 47 -52 66 -76 54 -29 -16 -41 -13 -41 10 0 18 -4 20 -30 14 -23 -5 -32 -3
-36 10 -10 25 2 29 44 12 29 -12 42 -13 51 -4 18 18 13 37 -15 47 -36 14 -25
33 24 44 34 7 46 6 60 -8 26 -23 39 -20 57 14 18 36 33 37 71 8z m-336 -39 c0
-36 -3 -40 -21 -37 -37 5 -44 30 -18 60 30 33 39 27 39 -23z m2080 28 c0 -30
-24 -62 -38 -53 -25 15 -10 76 19 76 13 0 19 -7 19 -23z m65 -61 c-10 -35 -22
-56 -31 -56 -22 0 -30 31 -11 45 9 7 24 30 33 51 23 54 29 28 9 -40z m-528
-16 c20 -45 24 -66 20 -113 -3 -33 -12 -66 -21 -76 -21 -23 -21 -61 -1 -61 9
0 25 15 36 34 33 57 148 91 190 57 23 -18 19 -41 -7 -41 -34 0 -94 -40 -100
-68 -8 -36 -43 -113 -62 -134 -22 -26 -70 -33 -92 -13 -11 10 -26 15 -35 12
-18 -8 -20 -41 -2 -55 11 -9 11 -24 0 -84 -9 -55 -10 -86 -1 -128 7 -37 8 -99
2 -190 -5 -74 -8 -156 -7 -182 1 -27 -1 -48 -5 -48 -4 1 -20 11 -36 25 -26 20
-28 26 -16 40 10 13 14 79 15 301 l2 284 -37 10 c-20 5 -54 26 -74 46 -36 35
-37 38 -31 88 7 51 6 53 -34 93 -22 22 -38 43 -34 46 12 12 88 -6 115 -27 15
-12 27 -29 27 -39 1 -9 10 -25 20 -34 14 -12 18 -24 14 -43 -6 -34 13 -74 33
-66 8 3 14 1 14 -4 0 -17 41 -11 75 10 33 21 50 61 32 79 -5 5 -16 7 -23 4 -9
-3 -14 2 -14 14 0 14 -11 22 -42 29 -33 7 -44 14 -46 32 -2 12 -16 29 -31 37
-16 8 -31 21 -34 28 -6 16 24 66 47 79 9 5 16 17 16 28 0 10 6 25 13 32 7 7
23 28 36 46 28 41 42 32 78 -48z m-1765 30 c21 0 141 -127 165 -175 14 -27 33
-61 42 -75 24 -37 39 -86 57 -190 9 -52 27 -115 40 -140 13 -25 24 -51 24 -58
0 -28 42 -92 69 -106 l29 -15 6 -133 c8 -184 19 -279 35 -307 8 -14 9 -27 3
-33 -5 -5 -7 -30 -5 -56 4 -37 1 -51 -15 -68 -11 -11 -23 -30 -26 -42 -6 -18
-15 -22 -52 -22 -38 0 -50 5 -79 36 -38 39 -43 64 -20 108 31 59 37 115 19
170 -9 28 -18 57 -20 64 -4 16 -26 15 -50 -2 -17 -13 -18 -17 -5 -48 26 -62
25 -109 -4 -166 -34 -68 -29 -106 25 -163 28 -30 50 -44 77 -48 l38 -7 -1 -67
c-2 -109 -37 -129 -140 -82 -67 31 -70 31 -108 1 -38 -29 -88 -41 -114 -27
-11 6 -34 12 -53 14 -79 10 -228 96 -229 133 0 6 -7 17 -15 24 -37 31 -9 35
82 13 15 -3 23 1 26 14 4 14 5 13 6 -5 0 -13 6 -20 11 -17 21 13 9 37 -25 51
-38 16 -46 34 -16 34 11 0 23 5 26 10 3 6 17 10 31 10 13 0 34 10 45 21 16 16
38 23 85 27 81 6 100 24 97 92 -1 27 -9 66 -18 87 -15 36 -15 39 4 52 29 19
28 45 -2 37 -29 -7 -67 18 -67 43 0 11 -7 21 -15 25 -10 4 -13 15 -11 38 5 34
-12 98 -26 98 -4 0 -4 52 -1 116 7 124 3 134 -43 134 -39 0 -52 -29 -53 -118
-1 -49 -7 -95 -15 -110 -7 -15 -17 -42 -21 -59 -8 -38 -18 -47 -45 -38 -23 7
-62 75 -70 119 -8 48 -32 54 -79 19 -38 -28 -45 -30 -88 -22 -28 6 -49 5 -52
0 -4 -5 -20 -13 -36 -17 -17 -3 -43 -14 -58 -23 -25 -14 -29 -14 -38 -1 -32
51 -12 97 56 126 22 10 64 28 93 41 29 13 59 23 67 23 17 0 77 79 72 94 -8 24
-42 16 -62 -14 -22 -34 -60 -49 -78 -31 -18 18 68 87 117 95 50 8 150 79 173
121 10 18 30 50 45 72 18 25 33 65 42 116 10 51 27 98 52 139 39 68 52 80 72
73 8 -3 18 -5 24 -5z m781 -105 c4 -8 2 -17 -3 -20 -5 -3 -11 -19 -15 -35 -4
-17 -11 -30 -16 -30 -10 0 -13 83 -2 93 11 12 31 8 36 -8z m103 -42 c-3 -8 -6
-22 -6 -31 0 -34 -15 -44 -45 -32 l-28 11 22 22 c11 13 21 33 21 45 0 20 3 21
21 12 12 -7 18 -17 15 -27z m-636 17 c0 -5 -7 -10 -15 -10 -8 0 -15 5 -15 10
0 6 7 10 15 10 8 0 15 -4 15 -10z m418 -36 c3 -18 2 -18 -12 -1 -10 13 -16 15
-21 6 -6 -8 -10 -7 -17 5 -5 9 -6 21 -3 27 10 14 49 -13 53 -37z m1579 10 c-7
-42 -11 -49 -26 -39 -12 7 -15 58 -4 68 3 4 13 7 21 7 11 0 13 -8 9 -36z
m-1924 2 c7 -18 -3 -56 -14 -56 -11 0 -23 46 -14 59 9 15 22 14 28 -3z m700
-40 c31 -12 57 -27 57 -34 0 -17 -42 -32 -90 -32 -42 0 -55 13 -64 63 -5 30 2
40 23 31 9 -4 42 -16 74 -28z m1127 30 c0 -3 -4 -8 -10 -11 -5 -3 -10 -1 -10
4 0 6 5 11 10 11 6 0 10 -2 10 -4z m-1502 -75 c2 -18 1 -40 -3 -49 -6 -15 -8
-15 -21 2 -15 21 -19 68 -7 80 14 13 28 -1 31 -33z m802 -108 c0 -41 5 -54 30
-80 17 -17 50 -40 74 -52 l44 -20 2 -193 c0 -106 2 -200 3 -208 1 -8 -2 -40
-7 -70 -6 -41 -16 -63 -38 -86 -17 -17 -40 -53 -52 -80 -11 -28 -31 -63 -44
-78 l-22 -29 -53 16 c-49 15 -90 15 -163 1 -30 -6 -33 -4 -39 26 -4 19 -3 36
4 43 6 6 11 22 11 35 0 26 21 57 87 129 44 48 73 99 73 130 0 10 -9 42 -20 71
-35 92 -19 152 48 184 24 12 45 58 26 58 -4 0 -51 -14 -106 -30 -64 -20 -110
-41 -132 -60 -19 -17 -36 -30 -40 -30 -3 0 -12 13 -20 29 -9 16 -33 48 -55 72
-22 23 -42 47 -44 53 -5 15 -57 -21 -57 -39 0 -27 -51 -143 -66 -149 -7 -3
-32 3 -55 13 -46 21 -75 17 -92 -10 -19 -31 -34 -22 -41 24 -17 113 -18 130
-7 123 6 -4 11 -20 11 -36 0 -16 7 -36 16 -45 15 -15 19 -15 32 -1 13 12 13
24 4 78 -7 35 -14 86 -17 113 -3 28 -12 73 -20 102 -17 59 -18 63 -7 63 4 0
21 -39 37 -86 17 -47 40 -95 52 -106 56 -53 308 -17 392 56 20 17 52 39 71 49
39 19 87 96 77 122 -4 8 -4 22 0 31 5 14 16 7 55 -34 44 -46 48 -55 48 -99z
m-932 112 l45 7 -6 -29 c-3 -16 2 -40 11 -58 27 -52 61 -197 62 -260 0 -34 7
-73 16 -90 15 -28 14 -31 -5 -44 -27 -18 -26 -35 2 -54 20 -13 25 -27 31 -88
3 -41 13 -84 22 -96 8 -13 12 -28 9 -33 -10 -16 -33 -11 -39 8 -4 9 -25 39
-49 65 -34 39 -50 49 -87 55 l-45 8 3 74 c1 41 -5 122 -14 180 -15 99 -18 144
-13 232 1 27 -7 50 -30 84 -17 26 -31 51 -31 55 0 4 17 1 37 -7 25 -11 50 -14
81 -9z m667 -20 c0 -25 -4 -30 -25 -30 -28 0 -39 27 -19 51 20 24 44 13 44
-21z m1011 10 c23 -35 15 -59 -22 -63 -29 -3 -32 -1 -36 31 -2 19 -2 40 0 46
7 20 41 12 58 -14z m-1395 -38 c-8 -8 -14 -7 -23 2 -11 10 -9 15 7 27 18 13
20 13 23 -2 2 -9 -1 -21 -7 -27z m479 24 c19 -36 -27 -108 -52 -83 -8 8 -6 20
6 45 9 19 16 40 16 46 0 18 18 13 30 -8z m757 -18 c-3 -16 -11 -57 -18 -93
l-13 -65 -7 67 c-4 37 -10 76 -14 86 -4 15 -1 22 12 25 40 10 45 8 40 -20z
m-5017 -14 c0 -6 -4 -7 -10 -4 -5 3 -10 11 -10 16 0 6 5 7 10 4 6 -3 10 -11
10 -16z m3906 0 c10 -16 -41 -63 -60 -56 -20 8 -30 32 -22 52 6 18 71 21 82 4z
m1033 -116 c-4 -71 -11 -150 -17 -178 -5 -27 -10 -75 -11 -105 -2 -69 -30
-228 -42 -236 -14 -8 -10 186 6 331 8 72 15 158 15 193 0 65 20 122 43 122 9
0 10 -30 6 -127z m-918 97 c24 -13 26 -50 2 -50 -27 1 -56 27 -50 45 7 18 21
19 48 5z m666 -47 c-8 -9 -20 -12 -26 -9 -19 12 -12 41 12 51 18 8 23 7 25 -9
2 -10 -3 -25 -11 -33z m-1368 38 c18 -11 5 -31 -20 -31 -18 0 -26 20 -12 33 8
9 15 9 32 -2z m1941 -42 c0 -5 -9 -9 -20 -9 -19 0 -27 20 -13 33 7 8 33 -11
33 -24z m-1612 -20 c2 -23 2 -23 -13 -5 -18 24 -20 39 -2 34 6 -3 13 -15 15
-29z m502 18 c0 -22 -31 -57 -51 -57 -14 0 -19 7 -19 29 0 16 6 32 13 34 24
10 57 7 57 -6z m927 -7 c-3 -11 1 -27 10 -35 20 -21 12 -65 -16 -83 l-24 -16
6 74 c4 41 7 76 7 78 0 1 5 2 11 2 6 0 9 -9 6 -20z m-1691 -18 c-5 -16 -18
-26 -68 -50 -5 -2 -8 6 -8 17 0 12 6 21 14 21 8 0 24 9 37 19 27 22 33 20 25
-7z m571 -6 c25 -22 26 -26 13 -40 -14 -14 -18 -13 -44 8 -20 15 -27 28 -23
39 9 23 21 21 54 -7z m-117 -11 c7 -8 9 -23 5 -32 -6 -16 -8 -16 -26 6 -18 22
-18 41 0 41 5 0 14 -7 21 -15z m188 -37 c-3 -7 -8 -13 -13 -13 -5 0 -10 6 -12
13 -3 6 3 12 12 12 9 0 15 -6 13 -12z m808 -43 c-15 -58 -27 -248 -28 -446
l-1 -210 -32 -14 c-18 -7 -36 -18 -40 -25 -5 -8 -12 -7 -26 6 -24 22 -24 34 0
34 28 0 33 13 17 51 -17 45 -14 552 4 573 12 15 88 56 104 56 4 0 5 -11 2 -25z
m-3156 -5 c0 -5 -4 -10 -10 -10 -5 0 -10 5 -10 10 0 6 5 10 10 10 6 0 10 -4
10 -10z m1700 -11 c0 -6 -4 -7 -10 -4 -5 3 -10 11 -10 16 0 6 5 7 10 4 6 -3
10 -11 10 -16z m1760 -26 c-18 -33 -40 -41 -40 -16 0 30 30 67 44 53 8 -8 7
-18 -4 -37z m-1790 1 c0 -16 -16 -19 -25 -4 -8 13 4 32 16 25 5 -4 9 -13 9
-21z m-1980 2 c0 -8 -16 -27 -36 -43 -36 -27 -36 -28 -31 -85 5 -54 4 -57 -13
-48 -46 24 -64 86 -34 111 9 7 20 24 25 36 13 36 89 60 89 29z m374 -33 c19
-17 26 -33 26 -58 0 -48 -14 -44 -40 11 -13 25 -29 48 -36 51 -8 3 -14 11 -14
19 0 17 30 7 64 -23z m-1738 -19 c2 -24 -3 -43 -13 -53 -15 -14 -16 -12 -10
24 4 22 7 49 7 59 0 33 13 9 16 -30z m1638 -26 c14 -23 15 -33 4 -66 -7 -22
-21 -45 -31 -51 -17 -11 -18 -9 -12 31 4 29 1 58 -9 88 -9 25 -16 49 -16 53 0
14 48 -27 64 -55z m1741 30 c12 -11 35 -110 29 -120 -11 -17 -23 -6 -30 24
-10 49 -36 98 -51 98 -7 0 -13 5 -13 10 0 12 49 3 65 -12z m-1937 -81 c11 -44
20 -61 38 -69 28 -13 30 -23 9 -32 -9 -3 -23 3 -33 15 -9 11 -28 27 -42 34
-14 7 -32 25 -40 39 -11 22 -11 30 0 51 24 45 52 29 68 -38z m3620 35 c3 -19
-1 -23 -15 -20 -10 2 -19 14 -21 26 -3 19 1 23 15 20 10 -2 19 -14 21 -26z
m222 -2 c0 -16 4 -30 9 -30 5 0 11 -23 13 -52 4 -37 12 -57 27 -69 30 -25 26
-44 -13 -63 -60 -28 -85 -17 -65 28 10 20 9 35 -1 65 -16 49 -6 151 16 151 9
0 14 -11 14 -30z m-3756 -16 c4 -15 4 -29 1 -32 -8 -8 -25 19 -25 41 0 26 17
20 24 -9z m2456 16 c0 -5 -4 -10 -10 -10 -5 0 -10 5 -10 10 0 6 5 10 10 10 6
0 10 -4 10 -10z m270 -24 c0 -8 -4 -18 -10 -21 -15 -9 -12 -91 4 -130 8 -18
16 -44 17 -57 4 -33 -18 -92 -42 -114 -12 -11 -27 -31 -35 -46 -8 -16 -25 -29
-43 -33 -17 -4 -33 -15 -36 -26 -7 -20 -40 -25 -64 -10 -21 14 -4 51 24 51 32
0 102 37 120 63 18 26 21 161 4 204 -5 15 -22 40 -36 55 l-26 27 29 11 c16 5
40 17 54 25 32 18 40 19 40 1z m-192 -63 c67 -66 70 -70 76 -128 5 -40 3 -73
-6 -100 -12 -38 -15 -40 -58 -43 -40 -3 -50 1 -75 27 -17 17 -34 31 -40 31
-16 1 -63 44 -66 60 -5 22 11 73 27 91 9 9 17 31 19 47 4 33 32 82 45 82 5 0
40 -30 78 -67z m-4058 42 c0 -8 -4 -15 -10 -15 -5 0 -10 7 -10 15 0 8 5 15 10
15 6 0 10 -7 10 -15z m4974 -45 c8 -75 45 -201 77 -265 26 -51 30 -66 24 -105
-4 -25 -8 -117 -9 -206 -2 -149 -4 -163 -24 -189 -12 -15 -22 -34 -22 -41 0
-17 -3 -17 -50 -3 -45 14 -123 -8 -162 -44 -21 -20 -23 -30 -22 -102 2 -133
16 -266 28 -278 10 -9 5 -17 -23 -35 -63 -43 -80 -57 -81 -64 0 -13 47 -58 62
-58 10 0 19 -17 26 -52 13 -65 3 -80 -47 -76 -35 3 -36 4 -37 49 0 25 -4 50
-7 56 -12 19 -19 168 -9 209 6 25 6 84 0 158 -13 151 -7 185 32 193 17 3 32
14 35 24 5 16 13 18 40 13 43 -8 51 15 32 88 -17 61 -17 134 0 163 19 33 26
10 34 -101 4 -74 11 -109 20 -115 28 -17 36 30 27 166 -7 110 -6 130 7 138 19
10 20 37 0 37 -12 0 -14 21 -9 133 2 72 9 155 14 182 9 47 18 125 19 170 2 35
21 1 25 -45z m122 14 c5 -18 1 -29 -12 -39 -23 -17 -38 -14 -42 9 -4 17 24 56
39 56 5 0 12 -11 15 -26z m-1318 -44 c18 -11 38 -19 45 -17 9 1 11 -15 9 -60
-3 -41 0 -63 7 -63 6 0 11 -8 11 -18 0 -17 68 -82 87 -82 20 -1 56 -38 50 -53
-5 -14 -12 -14 -58 -2 -41 11 -62 25 -100 65 -52 55 -65 92 -50 133 9 24 7 32
-24 66 -19 21 -32 41 -28 45 10 9 15 8 51 -14z m1347 -70 c0 -13 -5 -25 -12
-27 -13 -5 -27 32 -18 47 11 18 30 5 30 -20z m-3463 -30 c18 -10 41 -33 51
-50 10 -17 22 -28 27 -25 4 3 6 -4 3 -15 -3 -12 0 -20 6 -20 7 0 20 -17 29
-37 21 -46 57 -84 96 -101 24 -11 34 -10 72 9 24 11 46 25 50 30 8 14 21 11
27 -8 4 -10 15 -43 27 -73 11 -30 20 -64 20 -75 0 -29 -23 -58 -49 -62 -12 -2
-35 -10 -51 -18 -16 -8 -37 -15 -48 -15 -10 0 -22 -4 -28 -10 -6 -6 -38 -7
-84 -2 l-75 7 -9 46 c-5 26 -6 54 -3 64 6 15 9 15 33 -4 32 -25 40 -26 48 -5
4 10 -8 33 -33 63 -25 29 -45 66 -52 97 -7 27 -18 53 -25 57 -8 4 -18 26 -24
48 -13 46 -57 79 -107 79 -33 0 -49 13 -38 30 11 18 102 11 137 -10z m2076
-13 c2 -12 -3 -17 -17 -17 -15 0 -21 6 -21 21 0 25 33 22 38 -4z m1768 -2
c-10 -40 27 -98 79 -123 25 -12 45 -27 45 -34 0 -6 -11 -28 -25 -47 -13 -20
-35 -67 -49 -105 -14 -38 -35 -78 -46 -88 -13 -13 -19 -26 -15 -37 19 -48 16
-66 -14 -95 -17 -17 -31 -36 -31 -44 0 -7 -25 -37 -55 -65 -41 -37 -55 -58
-55 -78 0 -15 -6 -29 -14 -32 -11 -4 -15 8 -19 51 -3 31 -7 67 -9 80 -3 13 2
51 10 85 7 34 16 87 19 117 4 46 11 61 43 95 21 22 41 49 44 60 3 11 19 29 35
39 28 19 29 22 33 121 4 93 10 125 25 125 3 0 2 -11 -1 -25z m-4106 -10 c0
-23 -4 -25 -44 -25 -48 0 -60 8 -50 34 4 11 19 16 50 16 40 0 44 -2 44 -25z
m1459 -33 c5 -9 7 -30 4 -45 l-6 -28 -22 38 c-13 21 -21 41 -19 45 9 14 33 8
43 -10z m2343 1 c34 -31 15 -72 -24 -51 -11 5 -18 20 -18 38 0 34 14 38 42 13z
m-1654 -54 c44 -51 52 -67 52 -101 0 -21 4 -47 9 -56 5 -9 11 -36 14 -58 5
-35 2 -45 -18 -64 -14 -13 -25 -29 -25 -36 0 -17 40 -6 69 20 36 32 43 61 30
125 -10 55 -10 58 22 109 30 49 33 51 50 36 17 -15 17 -19 4 -45 -19 -36 -19
-68 1 -109 13 -25 15 -48 10 -103 -9 -94 -22 -113 -86 -121 -61 -8 -72 -27
-39 -62 18 -19 21 -29 13 -41 -18 -28 -31 -25 -53 10 -30 49 -27 72 14 97 45
28 46 50 2 50 -19 0 -37 3 -40 7 -4 4 -24 7 -45 7 l-37 1 -6 75 c-4 41 -11 93
-18 115 -12 43 -15 187 -4 198 15 16 33 4 81 -54z m-2058 41 c0 -5 -2 -10 -4
-10 -3 0 -8 5 -11 10 -3 6 -1 10 4 10 6 0 11 -4 11 -10z m3867 -5 c2 -6 -3
-19 -10 -29 -11 -14 -19 -16 -47 -9 l-34 9 23 23 c22 22 61 26 68 6z m63 -50
c0 -48 -5 -53 -33 -32 -17 11 -17 15 -2 45 23 45 35 40 35 -13z m-3962 3 c6
-6 12 -19 12 -30 0 -17 -7 -19 -90 -17 -62 1 -93 6 -101 15 -17 21 -4 42 28
46 45 5 137 -4 151 -14z m156 -86 c4 -42 13 -86 21 -98 7 -12 25 -88 40 -170
14 -82 34 -171 45 -199 30 -81 107 -229 156 -301 28 -40 42 -70 36 -76 -5 -5
-26 -11 -48 -14 -21 -3 -63 -17 -92 -30 -29 -13 -56 -24 -61 -24 -11 0 -28 42
-40 100 -34 161 -43 208 -60 315 -31 192 -41 283 -41 390 0 106 -3 117 -35
129 -19 7 -18 9 13 34 18 15 32 34 32 42 1 12 3 12 14 -3 7 -9 16 -52 20 -95z
m3252 26 c-3 -46 -5 -91 -5 -100 -1 -10 -5 -18 -9 -18 -10 0 -7 174 3 190 13
21 15 7 11 -72z m-2888 40 c2 -11 -3 -16 -15 -14 -10 2 -20 11 -21 20 -3 13 2
17 14 14 11 -2 20 -11 22 -20z m-314 1 c-3 -5 0 -17 5 -28 9 -16 8 -18 -8 -14
-21 5 -24 50 -4 50 7 0 10 -4 7 -8z m346 -3 c0 -3 -4 -8 -10 -11 -5 -3 -10 -1
-10 4 0 6 5 11 10 11 6 0 10 -2 10 -4z m-12 -40 c-7 -8 -15 -12 -17 -11 -5 6
10 25 20 25 5 0 4 -6 -3 -14z m3240 8 c12 -4 22 -13 22 -21 0 -21 -54 -13 -58
10 -4 18 1 20 36 11z m-3151 -36 c-3 -8 -6 -5 -6 6 -1 11 2 17 5 13 3 -3 4
-12 1 -19z m3280 6 c7 -18 -12 -34 -39 -34 -18 0 -25 30 -11 43 12 13 44 7 50
-9z m-3867 -9 c0 -8 -7 -15 -15 -15 -16 0 -20 12 -8 23 11 12 23 8 23 -8z
m180 11 c0 -2 -7 -7 -16 -10 -8 -3 -12 -2 -9 4 6 10 25 14 25 6z m16 -41 c21
-11 24 -15 11 -15 -11 0 -15 -4 -11 -12 4 -7 3 -8 -5 -4 -6 4 -18 2 -26 -4 -9
-7 -15 -8 -15 -2 0 5 7 13 16 16 13 5 14 9 4 21 -16 19 -10 19 26 0z m2229 -3
c42 -14 50 -21 53 -44 2 -16 7 -28 12 -28 16 0 19 -30 9 -88 -9 -50 -8 -65 6
-91 13 -27 14 -37 4 -65 -10 -27 -9 -52 4 -132 9 -55 19 -133 23 -175 6 -75 6
-77 -17 -85 -13 -4 -30 -7 -37 -5 -8 1 -20 -3 -28 -10 -8 -6 -17 -9 -20 -7 -3
3 -9 50 -15 104 -5 55 -14 122 -19 149 -5 28 -9 86 -10 129 -1 44 -4 84 -7 89
-3 5 -11 50 -18 100 -6 51 -13 97 -15 102 -7 26 1 75 13 74 6 0 35 -8 62 -17z
m-2493 -22 c30 0 45 -17 30 -32 -13 -13 -162 1 -162 15 0 6 7 18 15 27 14 15
20 16 53 4 20 -7 49 -13 64 -14z m3731 -21 c-1 -13 -5 -58 -8 -99 -4 -41 -7
-95 -6 -120 0 -39 -10 -59 -31 -60 -8 0 -9 286 -2 313 5 16 8 17 27 4 14 -9
21 -24 20 -38z m1137 20 c23 -18 37 -21 74 -16 67 9 61 -20 -11 -60 -28 -16
-45 -16 -78 -1 -20 9 -25 17 -21 34 4 13 2 26 -4 29 -13 8 -13 35 0 35 6 0 24
-10 40 -21z m-4173 -31 c-3 -7 -5 -2 -5 12 0 14 2 19 5 13 2 -7 2 -19 0 -25z
m2478 -19 c59 -54 72 -95 51 -156 -9 -26 -16 -59 -16 -74 0 -36 -18 -49 -78
-56 -64 -7 -103 18 -127 82 -17 43 -17 45 6 82 12 21 34 52 47 68 14 17 31 45
39 63 7 17 18 32 23 32 6 0 30 -18 55 -41z m665 19 c8 0 25 3 38 7 32 11 28
-14 -8 -48 -22 -21 -30 -38 -31 -65 -2 -71 -11 -87 -49 -87 -34 0 -35 1 -33
40 3 75 16 150 27 157 6 4 18 5 26 1 8 -3 22 -6 30 -5z m-3724 -25 c-10 -10
-19 5 -10 18 6 11 8 11 12 0 2 -7 1 -15 -2 -18z m2543 -161 c0 -98 4 -204 9
-237 18 -105 24 -205 13 -205 -6 0 -11 16 -11 35 0 18 -4 56 -10 82 -30 153
-43 346 -30 435 7 43 17 75 22 72 5 -3 8 -83 7 -182z m-2569 138 c0 -14 -37
-31 -54 -24 -17 7 -20 16 -9 27 10 11 63 8 63 -3z m628 -9 c3 -8 -1 -12 -9 -9
-7 2 -15 10 -17 17 -3 8 1 12 9 9 7 -2 15 -10 17 -17z m2712 -1 c0 -5 -6 -13
-13 -17 -34 -21 -71 -86 -73 -131 -2 -26 -5 -58 -8 -72 -3 -14 -9 -39 -12 -57
-5 -25 -14 -35 -45 -47 -22 -9 -42 -16 -44 -16 -12 0 -3 88 11 115 9 17 20 52
25 79 4 26 17 58 28 70 11 11 34 36 50 54 28 30 81 45 81 22z m-3455 -42 c43
1 65 -8 65 -28 0 -17 -7 -20 -46 -20 -45 0 -83 13 -96 34 -12 18 3 28 31 20
14 -4 35 -7 46 -6z m1555 3 c0 -12 -29 -23 -41 -15 -18 10 -9 24 16 24 14 0
25 -4 25 -9z m1389 -40 c18 -10 21 -18 15 -45 -8 -47 25 -107 81 -146 31 -21
45 -38 45 -53 0 -13 5 -28 12 -35 19 -19 -13 -24 -59 -8 -83 29 -146 112 -156
206 -5 38 -13 60 -27 72 -25 20 -25 25 -2 30 20 5 60 -5 91 -21z m-2820 -53
c-2 -18 2 -55 8 -83 10 -45 26 -132 53 -295 40 -240 67 -323 104 -318 13 2 20
10 19 21 -1 16 4 18 30 13 36 -6 84 9 137 42 46 29 79 37 93 23 14 -14 -6 -30
-38 -31 -11 -1 -39 -11 -61 -23 -100 -53 -129 -70 -134 -77 -3 -5 -27 -6 -54
-3 -36 4 -50 11 -53 24 -6 23 -23 25 -23 4 0 -16 -23 -18 -55 -6 -17 7 -17 8
8 15 27 6 36 29 17 41 -5 3 -51 13 -102 21 -51 8 -102 17 -113 19 -73 15 -161
24 -179 19 l-21 -7 20 23 c18 20 25 21 95 15 41 -3 89 -11 106 -17 17 -6 40
-8 50 -4 17 7 16 9 -9 22 -41 22 -139 37 -148 22 -5 -8 -12 -6 -25 6 -16 17
-17 19 0 44 43 67 78 173 116 347 32 148 32 150 60 153 14 2 29 8 35 13 5 5
22 9 38 9 26 0 28 -3 26 -32z m539 -62 c-3 -64 -7 -82 -20 -84 -23 -4 -58 56
-51 90 4 20 1 30 -11 34 -28 11 -17 30 22 40 60 16 64 12 60 -80z m1760 32
c13 -77 20 -139 27 -238 3 -41 12 -115 20 -165 8 -49 17 -115 20 -145 3 -30 8
-67 11 -82 9 -39 -21 -37 -41 2 -9 17 -20 30 -25 30 -6 0 -8 11 -4 24 3 14 1
65 -6 113 -6 48 -15 140 -20 203 -5 63 -15 148 -23 189 -12 67 -12 78 2 103 9
15 19 28 22 28 4 0 12 -28 17 -62z m391 43 c11 -11 23 -41 26 -68 19 -128 113
-221 235 -231 30 -3 58 -10 62 -16 10 -15 9 -164 -1 -171 -4 -2 -26 -7 -49
-11 -39 -6 -42 -5 -62 29 -12 20 -37 45 -56 56 -30 18 -33 24 -24 40 14 28 13
31 -13 31 -37 0 -56 -21 -81 -90 -25 -70 -50 -88 -65 -48 -4 13 -14 82 -21
153 -7 72 -14 153 -17 182 -3 29 -2 77 2 108 5 45 10 55 26 55 10 0 28 -9 38
-19z m-2069 -16 c0 -14 -4 -25 -10 -25 -11 0 -14 33 -3 43 11 11 13 8 13 -18z
m1390 0 c10 -12 8 -16 -11 -24 -29 -11 -39 -6 -39 20 0 23 32 26 50 4z m-1321
-81 c-24 -49 -114 -58 -96 -10 4 10 19 16 41 16 26 0 35 5 40 22 4 17 8 20 17
11 8 -8 8 -18 -2 -39z m1521 -38 c15 -53 4 -80 -16 -41 -15 30 -19 99 -5 91 4
-3 14 -25 21 -50z m-218 32 c24 -19 71 -210 76 -308 2 -47 7 -89 12 -95 4 -5
10 -27 14 -47 8 -45 -6 -50 -48 -17 -21 16 -27 29 -25 53 4 57 -1 76 -22 94
-43 36 -58 124 -50 300 1 34 16 41 43 20z m1706 -33 c2 -21 12 -50 23 -64 16
-20 18 -33 13 -70 -4 -25 -10 -54 -15 -63 -6 -11 -4 -22 7 -33 19 -19 12 -28
-35 -44 -48 -16 -71 -14 -71 5 0 9 -18 37 -41 61 l-41 44 7 62 c5 53 11 67 41
95 18 17 43 32 53 32 11 0 23 5 26 11 13 20 30 2 33 -36z m-630 -68 c2 -10 -3
-17 -12 -17 -18 0 -29 16 -21 31 9 14 29 6 33 -14z m-914 -28 c10 -25 21 -96
27 -177 9 -129 7 -165 -7 -128 -3 9 -12 16 -20 16 -24 0 -34 37 -34 127 0 48
-5 108 -11 132 -18 79 17 101 45 30z m3653 -1 c-3 -8 -6 -5 -6 6 -1 11 2 17 5
13 3 -3 4 -12 1 -19z m-2376 -15 c19 -12 33 -31 39 -55 6 -20 28 -55 50 -77
22 -22 40 -43 40 -45 0 -3 -17 -14 -37 -25 -21 -11 -53 -34 -72 -51 -33 -31
-58 -35 -27 -5 15 15 14 19 -14 47 -26 26 -30 37 -30 85 0 48 -4 58 -30 83
-31 29 -28 42 15 53 33 8 36 8 66 -10z m-322 -173 c7 -83 7 -156 2 -190 -6
-35 -5 -74 1 -107 12 -57 4 -107 -15 -100 -8 2 -12 32 -13 93 0 49 -4 167 -9
261 -6 141 -5 176 6 189 17 21 15 31 28 -146z m211 69 c0 -5 -4 -9 -10 -9 -5
0 -10 7 -10 16 0 8 5 12 10 9 6 -3 10 -10 10 -16z m-1087 -19 c-3 -11 -7 -20
-9 -20 -2 0 -4 9 -4 20 0 11 4 20 9 20 5 0 7 -9 4 -20z m1675 -27 c61 -38 94
-103 53 -103 -23 0 -35 -31 -26 -61 10 -31 -12 -73 -57 -109 -22 -18 -47 -49
-55 -68 -8 -20 -25 -51 -38 -69 l-23 -34 -20 28 c-18 25 -22 26 -43 15 -13 -7
-49 -43 -79 -79 -47 -56 -55 -63 -58 -44 -5 30 34 106 69 135 16 14 29 32 29
40 0 20 -4 20 -38 2 -40 -21 -75 -63 -113 -134 -32 -61 -63 -91 -77 -77 -4 4
3 15 16 25 12 10 22 27 22 37 0 25 54 124 80 148 24 22 26 55 4 55 -23 0 -75
-57 -119 -130 -38 -63 -41 -65 -64 -51 -13 8 -12 16 4 53 23 54 72 122 119
167 42 41 45 51 13 51 -15 0 -43 -20 -77 -55 -62 -61 -131 -95 -155 -75 -8 7
-15 16 -15 20 0 5 31 29 70 55 38 25 73 52 77 58 5 7 39 38 78 70 50 41 78 57
100 57 35 0 185 51 218 73 29 21 71 21 105 0z m-1660 -55 c-1 -7 3 -28 11 -45
7 -18 10 -41 6 -50 -6 -17 -7 -17 -19 0 -15 19 -29 115 -19 130 7 12 25 -18
21 -35z m651 -134 c23 -54 23 -56 6 -93 -15 -34 -22 -39 -60 -44 -23 -4 -56
-2 -73 3 -37 10 -72 3 -72 -15 0 -7 11 -16 24 -19 19 -5 25 -14 28 -43 3 -21
4 -40 2 -42 -5 -6 -123 18 -202 41 -94 28 -109 43 -117 115 -3 32 -10 68 -15
81 -6 13 -6 22 -1 22 17 0 49 -49 55 -84 10 -51 82 -111 164 -136 42 -13 69
-17 75 -11 18 18 -2 41 -48 52 -65 16 -133 79 -141 130 -5 26 -16 48 -36 64
-16 14 -27 29 -24 34 4 5 26 17 50 26 43 17 44 17 85 -10 l42 -26 -6 -52 c-3
-35 -1 -57 7 -68 15 -18 51 -39 67 -39 16 0 13 36 -4 50 -9 7 -15 29 -15 55 0
37 6 49 53 99 l52 57 41 -46 c22 -25 51 -70 63 -101z m445 121 c28 -42 18
-145 -15 -145 -3 0 -6 12 -7 28 0 15 -4 53 -8 85 -7 62 3 74 30 32z m-321
-101 c14 -75 15 -227 1 -267 -10 -27 -11 -44 -4 -57 15 -27 12 -50 -5 -50 -8
0 -15 7 -15 15 0 21 -32 35 -79 35 -48 0 -55 20 -18 50 16 14 19 21 11 30 -9
9 -17 9 -32 -1 -16 -10 -26 -10 -46 -1 -32 14 -34 32 -4 32 12 0 38 7 59 17
29 13 41 26 55 62 19 50 22 91 10 133 -7 24 -5 29 15 37 35 14 43 9 52 -35z
m986 -56 c0 -18 -3 -51 -7 -73 l-7 -40 -23 32 -23 32 23 41 c28 48 38 51 37 8z
m-4309 -38 c0 -6 22 -10 48 -10 47 0 232 -36 242 -47 13 -14 -238 9 -292 28
-31 10 -64 19 -73 19 -19 0 -19 9 1 31 15 17 19 17 45 3 16 -8 29 -19 29 -24z
m780 20 c0 -5 -5 -10 -11 -10 -5 0 -7 5 -4 10 3 6 8 10 11 10 2 0 4 -4 4 -10z
m1842 -261 c68 -33 132 -68 143 -78 11 -10 49 -35 84 -56 48 -29 75 -38 108
-38 43 0 44 -1 41 -31 -2 -24 -8 -32 -28 -34 -32 -5 -60 -30 -60 -54 0 -38 41
-64 113 -72 76 -8 99 1 162 58 21 20 43 36 47 36 11 0 10 -73 -1 -102 -5 -13
-12 -66 -15 -118 -4 -52 -10 -108 -13 -125 -3 -16 -5 -97 -4 -178 l2 -148 -42
3 c-49 3 -54 12 -68 137 -5 42 -15 77 -23 82 -11 8 -11 10 0 18 22 14 4 301
-18 301 -25 0 -40 -15 -40 -39 0 -20 -7 -31 -25 -39 -34 -16 -45 -15 -45 3 0
7 -6 18 -13 22 -29 18 -57 66 -51 89 9 33 -5 49 -23 27 -10 -13 -16 -14 -19
-6 -3 7 -14 23 -25 35 l-19 23 -18 -23 c-9 -13 -29 -38 -44 -55 l-27 -32 -1
25 c0 22 25 124 50 204 14 43 2 51 -30 21 -27 -26 -30 -37 -60 -192 -5 -29 -3
-50 6 -68 12 -23 11 -25 -7 -25 -24 0 -43 -44 -34 -78 8 -31 -9 -50 -38 -45
-36 7 -91 -28 -95 -60 -3 -25 53 -158 70 -165 5 -2 8 -24 8 -48 l0 -44 -39 0
c-22 0 -43 -4 -46 -10 -13 -20 -31 -8 -52 35 -28 55 -29 110 -4 151 23 38 13
61 -29 62 -24 0 -38 -9 -71 -48 -23 -27 -56 -56 -74 -64 -18 -9 -38 -22 -45
-31 -7 -8 -18 -15 -26 -15 -23 0 -27 22 -7 39 11 9 27 41 36 71 42 141 57 198
63 230 4 19 31 92 61 162 29 70 53 131 53 135 0 15 51 104 71 124 22 22 25 57
6 65 -8 3 -33 -4 -58 -14 -40 -18 -88 -63 -147 -141 -13 -17 -28 -31 -33 -31
-23 0 -5 34 48 91 32 34 64 70 71 80 7 11 22 19 32 19 11 0 25 7 32 15 21 25
76 10 210 -56z m796 29 c-4 -46 -28 -49 -28 -4 0 26 4 36 16 36 11 0 14 -8 12
-32z m258 -29 c8 -14 -16 -38 -45 -44 -14 -2 -24 2 -28 12 -11 29 56 59 73 32z
m-1286 -43 c0 -8 -4 -17 -9 -20 -19 -12 -120 -205 -136 -261 -9 -32 -23 -68
-31 -80 -8 -11 -19 -36 -24 -56 -6 -23 -19 -40 -35 -47 -14 -7 -28 -20 -31
-29 -15 -44 -68 -172 -89 -213 -22 -42 -26 -45 -69 -48 -25 -2 -46 1 -46 6 0
39 103 258 141 298 10 11 19 24 19 28 0 4 15 30 33 59 18 29 38 64 44 78 6 15
25 42 41 60 16 19 38 48 48 65 30 49 128 174 136 174 5 0 8 -6 8 -14z m1030
-41 c0 -3 -9 -18 -19 -33 -11 -15 -23 -48 -26 -73 -6 -40 -4 -49 14 -61 23
-16 70 -12 76 6 2 6 6 37 10 69 7 63 20 75 28 25 3 -21 -3 -55 -16 -90 -20
-54 -24 -58 -54 -58 -17 0 -35 5 -38 10 -4 7 -12 7 -24 0 -10 -5 -21 -7 -24
-4 -9 10 4 188 15 202 10 12 58 17 58 7z m585 -35 c3 -5 2 -10 -4 -10 -5 0
-13 -9 -16 -21 -9 -28 -64 -89 -81 -89 -23 0 -16 30 16 62 17 16 30 33 30 38
0 9 29 29 42 30 4 0 10 -4 13 -10z m-955 -15 c0 -9 -6 -12 -15 -9 -8 4 -15 10
-15 15 0 5 7 9 15 9 8 0 15 -7 15 -15z m1029 -146 c30 -63 40 -94 33 -101 -16
-16 -41 -2 -52 29 -6 16 -17 41 -26 56 -9 16 -14 39 -11 53 3 16 0 24 -9 24
-15 0 -18 12 -7 23 17 17 31 0 72 -84z m-1905 55 c6 -16 -5 -43 -28 -66 -7 -8
-23 -33 -35 -56 -23 -44 -30 -48 -62 -32 -18 10 -18 12 8 53 14 23 31 47 37
53 6 6 21 23 33 38 26 30 38 33 47 10z m1659 -26 c5 -36 3 -46 -16 -60 -27
-22 -41 -22 -57 -3 -7 8 -19 15 -28 15 -8 0 -23 7 -32 15 -9 8 -30 18 -47 21
-26 5 -34 2 -49 -21 -15 -24 -16 -33 -5 -78 6 -29 20 -113 31 -187 29 -214 57
-320 85 -320 18 0 38 47 32 75 -2 11 -14 57 -27 103 -29 110 -25 119 39 87 27
-14 54 -25 60 -25 6 0 13 -12 16 -27 6 -29 26 -97 44 -148 13 -38 61 -249 61
-268 0 -8 -9 -17 -20 -20 -18 -5 -20 -14 -20 -79 0 -66 21 -213 32 -224 3 -2
18 -5 34 -7 16 -1 43 -9 60 -16 l31 -15 -24 -34 c-39 -58 -27 -88 39 -98 24
-4 38 -1 47 10 11 13 9 17 -13 27 -29 14 -32 25 -11 53 24 32 18 63 -18 90
-19 15 -38 26 -44 26 -27 0 -73 33 -74 53 -5 116 -1 167 14 167 21 0 73 -61
95 -112 15 -34 27 -48 41 -48 17 0 20 8 23 48 l3 47 23 -36 c12 -20 22 -51 22
-68 0 -21 8 -40 24 -54 13 -12 31 -49 40 -82 10 -33 26 -84 36 -113 18 -52 18
-54 -1 -73 -10 -10 -32 -19 -49 -19 -28 0 -30 3 -30 35 0 35 -20 49 -36 24 -3
-6 -17 -8 -30 -5 -38 10 -63 -10 -70 -55 -9 -53 -50 -96 -101 -104 -21 -3 -50
-8 -66 -10 -36 -6 -64 22 -72 72 -14 81 -38 168 -61 217 -32 70 -53 233 -35
273 12 26 13 26 23 8 6 -10 12 -44 14 -75 1 -31 13 -89 27 -130 14 -41 28
-100 32 -130 11 -92 34 -160 55 -160 17 0 36 42 26 58 -5 8 -14 61 -26 155 -4
37 -14 74 -20 82 -7 8 -13 30 -15 49 -2 19 -8 43 -14 54 -6 12 -11 40 -11 63
0 23 -4 56 -9 73 -6 17 -13 54 -18 81 -7 47 -10 50 -35 47 -22 -3 -27 2 -33
27 -7 34 8 65 42 80 13 6 23 19 23 31 0 22 -19 27 -37 9 -14 -14 -81 -15 -95
-1 -12 12 -37 154 -38 215 0 26 -5 47 -10 47 -6 0 -11 15 -10 33 0 61 -8 152
-19 211 -6 33 -11 61 -11 63 0 2 -9 3 -21 3 -17 0 -20 5 -17 33 l3 32 70 3
c39 1 91 3 117 3 28 0 51 6 58 15 25 29 47 17 53 -28z m171 -91 c18 -24 26
-46 26 -75 0 -41 -1 -42 -36 -42 -19 0 -44 -4 -54 -10 -13 -7 -21 -6 -30 5
-14 17 -56 20 -65 5 -3 -5 0 -22 8 -37 8 -16 20 -40 28 -56 14 -30 45 -43 78
-32 34 10 81 55 81 76 0 11 12 35 26 53 25 30 29 32 55 22 27 -10 41 -36 20
-36 -20 0 -41 -33 -41 -65 0 -19 -5 -46 -10 -61 -10 -25 -12 -26 -63 -20 -28
4 -68 8 -87 9 -98 6 -206 69 -229 134 -8 21 -22 50 -32 65 -21 29 -25 68 -7
68 6 0 27 -12 47 -27 20 -16 42 -26 50 -25 7 2 22 -6 33 -17 10 -12 25 -21 32
-21 21 0 36 24 26 40 -18 29 -10 56 33 101 58 62 70 65 79 17 4 -21 18 -53 32
-71z m-524 3 c9 5 21 5 27 2 10 -7 23 -84 37 -222 21 -216 35 -320 45 -338 14
-27 14 -42 -1 -41 -16 0 -109 112 -132 157 -16 31 -23 34 -86 36 -19 1 -24 6
-23 21 2 11 5 67 8 125 10 214 17 250 50 250 13 0 27 5 31 11 4 7 9 8 17 0 6
-6 16 -7 27 -1z m-156 -16 c3 -8 4 -25 1 -37 -9 -40 -15 -101 -21 -207 -3 -58
-10 -122 -14 -143 -5 -21 -4 -68 1 -103 6 -43 6 -72 -1 -85 -20 -37 -30 -18
-30 59 0 42 -4 91 -8 107 -5 17 -5 64 -1 105 10 107 29 271 35 298 5 25 29 30
38 6z m-498 -62 c15 -26 45 -66 68 -90 39 -41 40 -43 27 -75 -17 -42 -19 -69
-4 -74 17 -6 53 55 53 89 0 44 59 84 61 41 0 -10 2 -33 5 -51 3 -22 -2 -38
-15 -51 -35 -35 -45 -65 -43 -125 2 -40 -2 -62 -10 -68 -22 -13 -36 -9 -44 15
-4 12 -10 24 -13 27 -22 17 -71 91 -66 100 3 5 4 14 0 20 -8 13 -35 1 -35 -15
0 -19 -20 -29 -32 -17 -6 6 -24 8 -39 5 -26 -5 -30 -2 -35 26 -6 28 -10 32
-31 26 -22 -5 -24 -3 -18 17 4 13 16 43 26 67 10 24 19 47 19 52 0 5 15 30 33
56 19 27 37 56 40 66 9 25 22 15 53 -41z m741 -64 c-3 -8 -6 -5 -6 6 -1 11 2
17 5 13 3 -3 4 -12 1 -19z m-1571 -31 c2 -7 -19 -55 -48 -106 -28 -51 -57
-114 -64 -140 -11 -41 -14 -43 -20 -22 -4 13 -17 44 -30 69 -22 44 -23 47 -6
73 85 130 92 137 140 138 12 1 25 -5 28 -12z m1979 3 c8 -13 -14 -42 -26 -34
-5 3 -9 14 -9 25 0 20 24 26 35 9z m238 -68 c42 -86 43 -94 22 -112 -12 -10
-16 -8 -24 11 -6 13 -19 38 -30 54 -20 29 -31 125 -13 125 4 0 24 -35 45 -78z
m-1628 -63 c9 -29 -15 -45 -32 -22 -19 25 -16 43 6 43 11 0 23 -9 26 -21z
m1358 -42 c14 -86 29 -133 46 -151 44 -44 75 18 48 95 -24 65 -16 79 44 79 38
0 51 -4 59 -19 16 -30 13 -36 -26 -50 -46 -17 -50 -30 -28 -92 21 -56 63 -99
99 -99 28 0 39 -13 55 -65 7 -22 21 -52 31 -67 11 -14 19 -32 19 -38 0 -7 11
-33 24 -59 14 -25 29 -62 35 -81 19 -68 58 -167 82 -210 23 -41 23 -43 5 -54
-10 -6 -37 -23 -59 -38 -23 -15 -43 -25 -45 -23 -7 7 -34 123 -38 165 -7 71
-13 90 -29 90 -8 0 -17 14 -21 35 -3 19 -12 39 -20 46 -17 14 -18 71 -2 116
18 49 1 60 -51 34 l-41 -22 -10 26 c-13 34 -29 136 -23 150 2 7 -1 24 -6 38
-8 19 -18 27 -36 27 -30 0 -41 -32 -26 -73 7 -18 7 -36 0 -54 -14 -37 17 -122
49 -134 13 -5 20 -14 17 -19 -4 -6 -18 -2 -36 10 -23 17 -34 40 -55 108 -14
48 -32 106 -40 130 -8 23 -14 50 -14 58 0 9 -12 49 -26 90 -14 41 -23 78 -19
84 11 18 33 -1 38 -33z m-1808 -27 c3 -5 1 -10 -4 -10 -6 0 -11 5 -11 10 0 6
2 10 4 10 3 0 8 -4 11 -10z m595 -83 c0 -15 5 -38 11 -49 16 -29 -3 -45 -36
-30 -14 6 -25 17 -25 24 0 6 -12 24 -26 39 -25 26 -25 28 -9 52 16 25 17 26
51 10 27 -13 34 -23 34 -46z m-111 38 c3 -12 -13 -9 -17 4 -2 7 0 11 6 7 5 -3
10 -8 11 -11z m1693 -37 c16 -29 25 -55 20 -59 -13 -14 -100 -21 -107 -10 -3
6 -15 11 -25 11 -11 0 -26 12 -35 30 -25 47 -20 60 23 60 20 0 44 5 52 10 29
19 45 9 72 -42z m-2513 5 c15 -54 14 -67 -9 -88 -24 -22 -28 -106 -6 -124 20
-17 30 3 27 56 -1 34 3 48 23 68 21 21 34 25 87 25 l61 0 -7 -27 c-9 -41 -131
-289 -145 -298 -24 -15 -35 13 -18 49 19 39 14 75 -11 77 -30 2 -46 -3 -67
-22 -25 -23 -32 -24 -56 -2 -31 27 -25 46 57 179 23 38 30 60 28 97 -1 59 21
65 36 10z m551 -21 c0 -12 8 -39 19 -60 28 -56 36 -142 16 -188 -17 -42 -6
-61 27 -43 22 12 35 37 54 99 8 27 19 52 25 56 20 12 57 -6 63 -30 3 -13 8
-30 11 -38 3 -8 -14 -34 -40 -61 -29 -30 -45 -56 -45 -72 0 -39 -33 -65 -83
-65 -60 0 -85 21 -89 73 -3 38 -6 43 -37 53 -19 6 -51 29 -72 51 -35 37 -37
43 -32 89 7 62 34 107 78 128 19 9 37 21 41 27 3 6 16 14 28 18 24 10 36 -2
36 -37z m-238 -3 c19 -26 19 -28 3 -97 -20 -83 -16 -108 24 -148 17 -16 31
-32 31 -36 0 -4 -11 -19 -25 -34 -25 -27 -28 -27 -80 4 -37 22 -44 66 -21 123
18 44 21 101 6 128 -6 12 -6 31 1 55 12 43 32 45 61 5z m722 -41 c20 -70 32
-165 52 -384 18 -210 17 -242 -11 -260 -20 -13 -21 -12 -21 22 0 23 -6 41 -17
49 -21 15 -22 36 -2 29 14 -6 15 8 10 107 -8 193 -34 424 -50 450 -9 13 1 39
14 39 6 0 17 -24 25 -52z m212 -3 c3 -8 3 -19 0 -24 -10 -16 -36 -1 -36 20 0
22 28 26 36 4z m-1351 -16 c-4 -11 -19 -40 -35 -62 -62 -95 -65 -146 -9 -198
41 -37 41 -39 28 -70 -7 -18 -37 -57 -67 -86 -51 -51 -55 -53 -72 -38 -19 17
-35 63 -26 73 3 3 15 -3 26 -13 16 -14 22 -15 35 -5 19 16 19 31 1 67 -52 104
-51 95 -26 144 13 24 35 60 50 79 15 19 39 56 54 83 28 48 53 64 41 26z m1762
-34 c20 -25 43 -45 50 -45 7 0 13 -8 13 -18 0 -10 5 -23 10 -28 6 -6 13 -47
17 -92 4 -62 10 -82 20 -82 18 0 64 35 57 43 -3 3 -6 26 -6 52 0 38 -3 48 -21
55 -22 8 -22 8 -2 16 11 4 28 18 38 31 27 33 40 29 33 -11 -4 -23 0 -48 14
-81 22 -52 15 -75 -22 -75 -19 0 -19 -1 -4 -25 21 -32 20 -35 -9 -35 -14 0
-25 -4 -25 -8 0 -5 -6 -17 -14 -27 -14 -19 -15 -19 -34 -2 -16 15 -24 16 -41
7 -17 -9 -21 -8 -21 5 0 9 -4 14 -9 11 -5 -3 -12 1 -15 10 -4 11 -13 14 -27
11 -49 -13 -153 93 -151 153 1 32 33 100 56 119 9 8 16 19 16 25 0 13 20 36
32 36 4 0 24 -20 45 -45z m-483 10 c21 -19 31 -23 45 -15 15 7 21 4 30 -17 15
-32 28 -95 40 -183 5 -36 16 -114 25 -175 9 -60 21 -157 26 -215 21 -217 22
-220 49 -220 29 0 33 14 17 57 -15 40 -31 226 -27 328 2 58 9 82 18 58 2 -6
12 -21 22 -32 22 -25 41 -161 45 -311 2 -103 10 -125 42 -118 14 3 19 12 18
33 -1 17 -4 91 -7 165 -6 127 0 178 18 151 6 -11 18 -111 31 -261 6 -71 17
-100 39 -100 23 0 26 16 15 82 -7 35 -15 97 -20 138 -5 41 -12 86 -16 99 -5
18 -4 23 7 19 15 -5 32 -63 49 -178 15 -96 25 -120 49 -120 31 0 33 14 16 94
-8 41 -15 89 -15 106 0 55 22 28 42 -51 41 -159 41 -159 59 -159 32 0 42 36
25 87 -9 26 -16 54 -16 63 0 10 -10 41 -22 70 -18 45 -20 58 -11 93 8 29 8 47
0 65 -9 20 -8 26 8 38 10 8 20 12 23 10 6 -6 22 -115 31 -217 5 -48 12 -93 17
-100 5 -8 14 -34 19 -58 11 -50 39 -75 56 -51 5 8 8 40 5 71 -3 33 -1 60 5 66
8 8 5 14 -9 22 -15 8 -22 28 -31 102 -7 50 -10 93 -8 96 4 3 26 -56 57 -152 7
-22 14 -65 15 -95 1 -30 5 -72 10 -93 7 -36 6 -37 -31 -53 -27 -11 -54 -14
-94 -10 -108 12 -112 11 -123 -6 -6 -9 -8 -20 -5 -24 14 -13 153 -22 196 -13
28 6 78 6 139 0 l95 -10 60 32 c33 17 65 42 71 54 7 15 19 23 36 23 24 0 29
-7 54 -82 34 -103 35 -118 3 -118 -13 0 -31 -3 -39 -6 -8 -3 -21 2 -30 10 -20
21 -32 20 -76 -4 -120 -65 -359 -109 -501 -91 -36 5 -68 7 -71 5 -3 -2 -28 5
-55 15 -56 21 -222 42 -304 38 -31 -2 -72 -12 -95 -24 -38 -19 -48 -20 -225
-11 -118 6 -212 16 -260 28 -41 10 -138 34 -215 53 -165 41 -233 49 -335 38
-82 -9 -99 -3 -93 32 4 17 -2 26 -22 35 -14 7 -31 12 -38 12 -16 0 -127 112
-127 127 0 7 11 24 25 39 14 15 25 30 25 35 0 16 -23 21 -45 9 -21 -11 -28 -9
-63 20 -55 44 -67 75 -47 123 8 20 18 37 22 37 12 0 113 -111 113 -124 0 -23
55 -65 95 -74 39 -8 40 -9 41 -53 1 -24 2 -50 3 -57 1 -9 13 -13 34 -12 17 1
56 2 85 1 51 -1 52 -2 52 -30 0 -38 13 -46 42 -27 14 9 29 12 37 7 7 -5 41 -6
76 -4 54 5 68 2 107 -21 49 -28 84 -32 170 -16 51 10 62 8 139 -20 103 -38
195 -47 262 -27 26 8 56 13 68 10 21 -6 89 25 89 40 0 5 7 6 16 3 8 -3 24 -1
34 4 11 6 28 7 42 1 13 -4 58 -11 101 -15 42 -4 99 -10 125 -14 61 -10 151 -7
164 6 6 6 8 18 5 26 -5 12 -22 16 -71 16 -99 0 -265 18 -323 36 -55 16 -67 14
-130 -32 -32 -23 -30 -1 5 43 22 30 27 47 28 101 1 48 6 67 18 74 37 21 12 48
-45 48 -29 0 -30 1 -28 43 2 24 -1 48 -4 54 -4 7 -10 69 -13 140 -3 70 -9 164
-15 208 -14 125 -12 173 9 178 9 3 17 5 18 6 1 0 13 -10 28 -24z m-309 -15 c3
-5 11 -7 18 -4 7 2 27 -9 45 -25 30 -28 32 -33 32 -103 0 -40 7 -111 15 -158
9 -47 18 -116 20 -155 3 -38 7 -82 11 -97 4 -21 2 -28 -9 -28 -9 0 -25 12 -37
28 -19 24 -22 36 -18 100 5 71 4 74 -19 83 -41 16 -51 11 -82 -44 -32 -57 -86
-111 -101 -102 -5 3 -5 18 0 33 7 27 19 116 26 192 3 38 14 106 35 218 12 64
16 72 35 72 13 0 25 -4 29 -10z m1665 -67 c0 -7 -4 -13 -9 -13 -10 0 -21 25
-21 48 1 15 3 14 15 -2 8 -11 15 -26 15 -33z m-2330 11 c0 -3 -7 -31 -16 -61
-14 -49 -14 -59 0 -102 14 -45 14 -51 -4 -97 -19 -50 -54 -167 -71 -238 -16
-63 -26 -76 -63 -76 -48 0 -90 49 -81 94 4 17 13 40 19 51 7 11 16 34 20 50 7
31 52 129 114 250 20 39 43 85 51 103 13 28 31 43 31 26z m1225 -28 c13 -9 19
-27 20 -58 4 -82 36 -123 129 -165 25 -12 28 -16 22 -48 -6 -29 -3 -36 19 -51
14 -9 25 -23 25 -30 0 -17 -2 -17 -32 -5 -13 5 -35 12 -51 16 -15 3 -39 19
-54 35 -14 17 -32 30 -39 30 -7 0 -18 9 -25 21 -7 14 -17 19 -30 16 -16 -4
-19 0 -19 34 0 30 -6 46 -25 63 -28 26 -32 48 -11 65 7 6 16 29 20 51 7 42 20
49 51 26z m1204 -41 c7 -7 21 -31 31 -53 23 -50 12 -63 -45 -53 -35 6 -41 11
-56 51 -9 25 -20 53 -24 64 -7 17 -4 18 36 11 24 -4 50 -13 58 -20z m-2661
-82 c-2 -10 -8 -18 -13 -18 -5 0 -11 8 -13 18 -2 10 3 17 13 17 10 0 15 -7 13
-17z m476 -19 c23 -9 20 -31 -5 -45 -17 -9 -25 -8 -38 6 -15 15 -15 17 3 31
23 16 20 16 40 8z m-744 -75 c0 -11 -4 -17 -10 -14 -5 3 -10 15 -10 26 0 11 5
17 10 14 6 -3 10 -15 10 -26z m278 5 c27 -8 29 -36 3 -78 -10 -17 -24 -49 -31
-71 -19 -61 -26 -63 -64 -19 -42 47 -44 57 -11 72 14 6 25 16 25 22 0 6 7 26
14 45 15 36 24 39 64 29z m365 -22 c4 -2 4 -9 -1 -15 -5 -7 -12 -42 -16 -78
-3 -36 -12 -86 -20 -110 -7 -24 -24 -79 -36 -121 -25 -83 -31 -88 -102 -88
-37 0 -38 1 -39 38 -3 56 1 97 14 149 10 41 16 49 41 53 27 5 31 10 48 79 10
41 23 80 30 88 10 13 60 16 81 5z m372 -2 c6 -9 -20 -205 -30 -220 -3 -4 -20
-5 -37 -1 -45 10 -55 5 -84 -40 -29 -47 -30 -69 -5 -111 11 -17 18 -36 15 -40
-12 -20 7 -56 36 -68 41 -17 38 -27 -11 -35 -36 -6 -46 -3 -84 24 -23 17 -61
33 -84 37 -25 4 -41 12 -41 20 0 20 45 188 75 279 39 118 43 123 107 118 45
-4 58 -1 87 21 38 28 47 31 56 16z m-265 -27 c0 -5 -9 -30 -19 -58 -10 -27
-21 -63 -24 -80 -3 -16 -10 -43 -16 -60 -5 -16 -19 -63 -31 -102 -14 -51 -26
-73 -37 -73 -11 0 -14 7 -10 23 14 68 31 128 48 172 10 28 24 80 31 118 11 59
15 67 35 67 13 0 23 -3 23 -7z m1433 -23 c6 -24 -8 -36 -17 -14 -8 22 -7 34 3
34 5 0 11 -9 14 -20z m-953 -31 c0 -5 -4 -9 -10 -9 -5 0 -10 7 -10 16 0 8 5
12 10 9 6 -3 10 -10 10 -16z m-50 -115 c0 -24 8 -42 23 -57 13 -12 36 -41 52
-64 l27 -42 -25 -44 c-25 -41 -28 -44 -71 -44 -26 0 -46 4 -46 8 0 5 -16 15
-35 24 -48 23 -59 41 -56 87 4 68 35 123 91 159 32 21 40 16 40 -27z m804 40
c24 -9 20 -33 -4 -27 -11 3 -20 12 -20 19 0 16 2 16 24 8z m-1022 -131 c9 -10
18 -40 21 -68 5 -52 21 -72 87 -108 31 -17 32 -19 16 -35 -16 -16 -18 -16 -27
0 -5 10 -34 29 -64 43 -47 21 -55 29 -55 52 -1 16 -7 39 -15 53 -21 37 -19 80
3 80 11 0 26 -8 34 -17z m2030 -30 c6 -16 11 -45 12 -67 1 -37 -1 -40 -53 -68
-30 -16 -57 -26 -62 -21 -4 4 -15 28 -24 53 -29 80 -29 80 -7 80 23 0 82 31
82 43 0 4 9 7 20 7 13 0 25 -10 32 -27z m-1557 -1 c6 -4 11 -40 12 -80 3 -83
-15 -112 -65 -112 -16 0 -42 -12 -62 -30 -47 -40 -64 -39 -57 3 11 67 21 93
48 134 16 23 33 53 39 67 8 21 16 26 42 26 18 0 38 -4 43 -8z m1391 -172 c26
-87 17 -106 -55 -112 -42 -3 -44 -2 -57 32 -7 19 -13 50 -13 67 -1 28 4 35 32
47 56 25 78 17 93 -34z m-1655 -39 c13 -11 20 -23 16 -27 -10 -10 -59 16 -65
34 -6 18 23 14 49 -7z m-534 -161 c109 -19 422 -98 436 -110 4 -4 -5 -31 -20
-61 -15 -30 -37 -76 -48 -104 -19 -50 -66 -144 -273 -546 l-112 -217 -6 -98
c-4 -69 -1 -131 10 -205 16 -108 15 -133 -11 -227 -17 -63 -29 -87 -63 -129
-35 -43 -168 -110 -233 -117 -29 -4 -70 -9 -92 -11 -22 -3 -84 -8 -137 -12
-114 -7 -116 -5 -92 77 8 30 20 90 25 133 5 43 11 82 13 86 3 4 12 66 20 138
18 151 28 183 55 183 32 0 33 15 5 101 -25 77 -26 88 -17 165 7 52 20 101 35
131 22 43 36 88 69 228 5 22 14 90 19 150 12 124 15 138 60 320 l32 130 133 3
c74 1 160 -2 192 -8z m1900 -57 c-14 -70 -21 -94 -49 -188 -16 -55 -36 -113
-43 -130 -17 -39 -44 -128 -84 -285 -59 -225 -75 -270 -116 -325 -48 -65 -73
-129 -80 -210 -4 -44 -12 -93 -16 -110 -5 -18 -5 -33 1 -39 14 -14 12 -138 -4
-221 -13 -67 -12 -95 4 -95 4 0 10 7 14 15 3 8 10 15 16 15 18 0 12 -142 -6
-169 -16 -23 -21 -23 -93 -17 -112 11 -112 11 -166 35 -193 86 -242 128 -270
224 -14 49 -15 70 -6 130 14 91 39 174 63 209 10 14 18 32 18 40 0 7 10 24 23
38 37 41 55 122 48 219 -4 49 -11 86 -17 88 -17 6 -23 -18 -30 -110 -6 -90
-18 -133 -40 -141 -12 -4 -14 21 -15 152 0 207 -4 250 -41 427 -51 251 -72
394 -61 421 5 13 17 15 72 9 36 -4 82 -8 101 -10 19 -2 54 -9 78 -14 23 -6 61
-16 84 -21 44 -12 191 -14 273 -5 28 3 66 7 85 9 33 4 188 57 220 76 30 18 43
11 37 -17z m1849 -1357 c28 -3 76 -15 107 -26 48 -18 56 -25 60 -53 3 -18 4
-52 2 -77 -2 -25 -7 -130 -9 -235 -3 -104 -5 -193 -6 -197 0 -5 -11 -8 -25 -8
-14 0 -33 -4 -43 -9 -32 -16 -277 -70 -367 -81 -49 -7 -146 -12 -215 -12 -151
0 -424 18 -448 31 -9 5 -44 12 -77 16 -33 3 -80 13 -105 20 -95 29 -200 55
-220 55 -12 0 -42 6 -68 14 -26 8 -68 20 -94 27 -27 8 -48 16 -48 20 0 12
-153 68 -227 83 -39 8 -103 18 -142 22 -58 5 -74 11 -96 34 -49 51 -43 130 8
114 10 -3 33 -7 52 -9 121 -11 300 -55 475 -117 123 -43 120 -42 120 -25 0 22
-17 30 -156 73 -153 47 -312 83 -391 86 -35 2 -63 7 -63 11 0 5 -10 8 -22 7
-46 -4 -58 1 -73 30 -20 38 -15 46 32 52 31 4 248 -15 248 -22 0 -2 22 -6 74
-15 18 -2 50 -9 70 -14 20 -6 72 -13 116 -16 44 -4 96 -8 116 -10 143 -13 555
80 754 170 38 17 190 51 280 63 70 9 285 8 381 -2z m-2781 -86 c-3 -5 -16 -15
-28 -21 l-22 -12 20 21 c21 22 41 30 30 12z m-158 -106 c1 -21 5 -44 7 -50 2
-5 -5 -21 -15 -35 -10 -13 -19 -19 -19 -12 0 19 -39 2 -46 -21 -7 -21 -7 -21
-15 -1 -7 19 -8 19 -8 -2 -1 -24 33 -39 68 -30 23 6 51 -9 51 -28 0 -7 5 -15
11 -17 18 -6 1 -78 -19 -85 -9 -4 -20 -11 -24 -17 -5 -8 -8 -7 -8 1 0 6 -10
10 -22 8 -72 -8 -125 -17 -138 -22 -8 -3 -21 -7 -29 -9 -55 -11 -65 -16 -50
-25 7 -5 10 -9 6 -9 -5 0 -5 -5 -2 -10 4 -6 15 -1 26 12 12 13 18 18 15 11 -3
-6 -3 -18 0 -27 7 -18 43 -13 117 16 27 10 66 17 88 16 35 -3 40 -7 50 -38 15
-45 27 -60 49 -60 24 0 46 -28 33 -41 -5 -5 -32 -10 -59 -10 -67 -1 -238 -36
-290 -60 -24 -10 -50 -19 -59 -19 -8 0 -55 -16 -103 -36 -48 -20 -105 -42
-126 -50 -58 -22 -73 -36 -67 -61 l6 -22 50 25 c28 13 60 24 72 24 12 0 25 5
29 11 3 6 23 18 43 26 47 20 75 31 81 31 3 0 43 14 90 31 101 38 254 65 280
51 10 -6 21 -24 25 -42 6 -34 11 -46 39 -111 9 -21 16 -43 16 -51 0 -7 11 -23
24 -35 37 -35 42 -71 14 -93 -13 -10 -33 -18 -46 -18 -12 0 -48 -11 -80 -24
-60 -25 -146 -48 -247 -66 -96 -16 -116 -18 -202 -19 -58 -1 -86 -5 -97 -16
-17 -17 -30 -20 -21 -5 4 6 -12 10 -39 10 -49 0 -59 -12 -26 -30 11 -6 20 -20
20 -31 0 -16 3 -18 19 -9 11 5 43 10 73 9 122 -1 202 9 215 27 9 12 13 13 13
5 0 -11 3 -11 15 -1 10 9 15 9 15 1 0 -6 8 -11 18 -11 13 0 14 2 4 9 -28 17
24 35 178 61 25 4 65 14 90 23 59 22 65 21 93 -7 13 -12 30 -25 38 -28 11 -4
12 -10 3 -24 -12 -20 2 -19 -318 -23 -90 -1 -76 -15 17 -17 159 -4 252 -14
265 -31 28 -38 17 -43 -93 -43 -71 0 -105 -4 -105 -11 0 -7 -4 -8 -12 -2 -7 5
-37 10 -65 12 -45 2 -53 -1 -53 -16 -1 -16 -2 -16 -13 -2 -10 13 -29 16 -102
14 -130 -3 -359 -17 -364 -21 -2 -2 -9 1 -16 6 -8 6 -26 4 -54 -7 -37 -14 -44
-15 -52 -2 -5 8 -9 9 -9 4 0 -14 -38 -17 -46 -3 -4 6 -10 5 -15 -3 -8 -12 -10
-12 -18 0 -6 9 -18 11 -33 8 -14 -4 -57 -7 -96 -8 -40 -1 -72 -5 -72 -10 0 -5
-7 -9 -16 -9 -8 0 -12 5 -9 10 4 7 -2 9 -17 5 -16 -4 -29 -1 -37 9 -10 11 -31
16 -73 16 -52 0 -60 3 -67 23 -12 32 2 37 114 37 55 -1 118 0 141 1 22 2 44 0
50 -3 5 -3 42 -6 82 -7 60 -2 72 0 72 13 0 19 -44 22 -84 6 -15 -5 -26 -6 -26
-1 0 11 -156 26 -257 24 -84 -1 -86 2 -50 77 22 45 23 45 83 51 55 5 150 32
229 64 17 7 56 20 88 30 32 10 60 22 63 26 3 5 14 9 25 9 10 0 27 4 37 9 9 5
32 15 50 21 20 8 32 19 32 31 0 11 -4 19 -9 19 -12 0 -154 -55 -201 -78 -19
-9 -39 -17 -45 -17 -24 -3 -134 -29 -173 -41 -44 -14 -104 -19 -114 -8 -9 8
27 84 67 146 34 52 37 53 93 59 62 7 140 26 157 38 5 4 26 8 45 10 19 1 82 18
140 38 58 19 112 37 120 40 12 4 12 7 -4 19 -11 8 -16 14 -11 14 4 0 6 2 3 6
-3 3 -32 -5 -64 -18 -33 -13 -79 -30 -104 -37 -25 -7 -55 -17 -68 -22 -13 -5
-34 -9 -47 -9 -13 0 -27 -4 -30 -10 -7 -11 -68 -14 -78 -3 -4 3 15 27 41 52
45 44 48 51 64 134 22 117 25 120 113 113 115 -10 155 -6 155 15 0 6 -6 7 -17
0 -13 -7 -21 -5 -30 7 -9 13 -12 13 -13 3 0 -11 -3 -11 -15 -1 -12 10 -15 10
-15 -1 -1 -11 -3 -11 -13 1 -13 16 -30 17 -90 6 l-37 -7 0 53 c0 29 4 58 8 64
4 6 46 14 94 17 47 3 94 10 105 15 10 5 28 8 40 6 12 -2 35 1 50 8 15 6 39 13
53 15 14 2 30 5 35 7 6 2 15 5 20 6 6 1 21 10 35 20 14 10 42 21 63 25 20 4
37 12 37 19 0 6 4 6 9 -3 6 -9 11 -10 15 -2 4 6 18 11 31 11 13 0 36 5 52 11
15 7 44 14 63 16 19 2 36 6 39 9 13 12 25 -6 28 -42z m-841 -176 c-4 -29 -15
-80 -25 -113 -11 -33 -28 -87 -38 -119 -16 -52 -24 -63 -70 -94 -33 -22 -56
-45 -63 -65 -8 -24 -13 -28 -22 -19 -7 7 -29 12 -49 12 -45 0 -54 11 -54 65
-2 173 -4 184 -29 191 -28 7 -75 -13 -87 -36 -9 -18 -26 -99 -34 -161 -3 -28
-17 -61 -32 -81 l-27 -34 -86 1 c-47 1 -105 8 -129 15 l-44 14 7 70 c10 114
30 250 39 264 11 16 58 15 81 -3 37 -28 270 -11 412 30 28 8 64 15 80 15 35 0
111 26 129 43 7 7 16 23 19 35 14 44 29 24 22 -30z m1839 -103 c28 -3 75 -11
105 -17 30 -5 73 -13 95 -17 22 -4 72 -24 110 -44 69 -36 294 -99 462 -131 43
-8 105 -21 138 -30 34 -8 75 -14 91 -14 17 1 37 -3 44 -7 22 -14 223 -16 232
-2 6 9 11 8 18 -5 9 -15 28 -16 170 -13 88 2 164 6 169 9 5 4 45 13 88 20 103
19 110 21 163 41 25 9 63 20 85 25 22 4 41 12 42 17 2 5 21 7 42 5 32 -3 41
-9 49 -30 5 -15 6 -36 2 -47 -4 -11 -5 -37 -2 -57 l5 -38 -55 0 c-66 0 -181
-29 -263 -65 -33 -15 -84 -31 -114 -36 -30 -5 -58 -14 -63 -21 -5 -9 -8 -10
-8 -1 0 9 -29 10 -112 6 -62 -3 -115 -7 -117 -9 -3 -3 -6 -11 -7 -19 -2 -12
12 -15 69 -15 97 0 293 27 326 44 79 43 311 103 345 90 10 -4 11 -17 4 -57 -5
-29 -6 -111 -2 -184 l6 -132 -33 0 c-176 -3 -426 0 -476 5 -54 5 -63 4 -63
-10 0 -13 11 -16 53 -17 28 -1 97 -2 152 -4 55 -1 141 -5 190 -9 51 -4 104 -3
121 3 41 12 54 -1 54 -56 0 -29 -5 -45 -17 -51 -11 -7 -14 -15 -8 -28 4 -11 9
-68 11 -129 2 -60 6 -166 8 -235 3 -69 7 -262 10 -430 3 -168 7 -329 11 -359
5 -52 5 -53 -18 -47 -33 8 -226 25 -382 34 -174 9 -513 8 -655 -3 -63 -5 -173
-9 -245 -9 -245 1 -1220 13 -1250 16 -16 1 -169 -2 -340 -6 -170 -4 -474 -9
-675 -11 -629 -7 -962 -13 -1060 -19 -261 -17 -1758 -26 -1995 -12 -60 4 -227
8 -371 9 -143 2 -265 6 -270 10 -7 4 -9 104 -7 294 2 158 5 410 6 558 1 149 5
275 9 281 6 9 97 21 198 25 8 1 60 5 115 10 55 5 195 8 310 8 116 -1 422 -2
680 -1 259 1 507 2 553 2 78 0 82 1 83 23 l0 22 9 -23 c8 -18 16 -22 46 -20
20 1 38 8 41 15 6 16 24 17 21 2 -2 -8 40 -13 132 -16 74 -2 136 -5 137 -7 4
-4 -29 -89 -40 -104 -6 -7 -18 -10 -27 -7 -12 4 -25 -4 -39 -24 -21 -28 -82
-56 -185 -82 -50 -13 -94 -35 -133 -70 -31 -27 -127 -56 -167 -50 -33 5 -159
-51 -198 -88 -39 -36 -48 -70 -25 -89 31 -26 381 -34 522 -12 239 38 417 39
591 4 47 -9 104 -14 126 -11 85 11 129 96 112 212 -6 35 -6 74 -2 86 5 13 6
36 2 52 -4 19 -1 32 9 40 21 17 30 62 14 75 -8 7 -11 25 -9 46 4 33 6 34 57
41 33 4 62 2 74 -5 26 -13 172 -17 311 -7 221 16 998 29 1019 17 14 -7 16 -20
11 -77 -4 -37 -2 -88 3 -113 13 -59 15 -119 4 -150 -4 -13 -5 -41 -2 -61 6
-32 11 -38 47 -50 32 -10 44 -21 55 -49 8 -19 30 -50 49 -67 19 -18 34 -37 34
-42 0 -5 20 -29 44 -53 54 -55 191 -128 239 -128 20 0 48 -5 64 -11 35 -13
151 -40 178 -41 11 0 56 0 100 2 44 1 110 -1 148 -5 58 -7 70 -5 87 10 25 22
25 39 2 73 -10 15 -24 40 -32 57 -8 16 -49 64 -91 105 -51 49 -84 92 -98 125
-30 68 -89 125 -198 192 -83 50 -93 59 -93 85 0 16 -9 46 -19 66 -11 21 -22
59 -26 84 -7 44 -6 47 16 53 13 3 72 4 132 3 59 -2 107 -1 107 2 0 3 45 4 100
2 90 -2 100 -1 101 15 1 16 2 16 6 1 4 -15 23 -16 202 -12 109 2 335 -1 502
-6 167 -6 419 -12 559 -14 465 -8 612 -5 617 10 2 7 -6 12 -19 12 -13 0 -66 3
-118 7 -52 5 -115 7 -140 5 -71 -4 -106 -3 -250 3 -366 18 -422 17 -416 -1 6
-15 5 -15 -8 1 -17 21 -25 21 -48 0 -17 -15 -18 -15 -18 0 0 14 -12 17 -77 18
-43 0 -105 2 -138 5 -104 7 -378 9 -748 5 -217 -2 -362 0 -368 6 -5 5 -7 16
-4 25 7 18 175 28 485 28 113 0 333 2 490 5 157 3 405 7 553 10 147 2 272 7
277 10 32 20 -3 25 -140 23 -140 -3 -149 -2 -152 16 -2 11 -12 20 -23 22 -11
1 -69 7 -130 14 -60 6 -119 15 -130 20 -11 5 -57 16 -103 25 -46 8 -115 26
-155 39 -118 40 -243 70 -462 112 -120 23 -157 26 -255 21 -67 -3 -137 -13
-168 -23 -29 -9 -54 -15 -57 -12 -2 2 -1 24 3 48 7 42 10 45 51 55 43 10 71
35 71 64 1 40 12 43 118 30 82 -10 104 -10 117 1 8 7 15 8 15 2 0 -14 57 -35
75 -28 9 3 25 0 35 -7 16 -9 24 -9 40 0 16 11 18 10 14 -2 -4 -9 2 -16 18 -19
12 -3 75 -16 138 -30 63 -14 129 -28 145 -31 17 -3 39 -7 50 -10 63 -14 167
-38 217 -51 32 -8 71 -14 87 -14 17 0 32 -4 35 -9 6 -10 44 -3 62 10 6 5 14 6
17 2 4 -3 7 1 7 10 0 14 -67 35 -170 53 -14 3 -59 11 -101 20 -53 10 -84 12
-101 5 -22 -8 -27 -7 -31 9 -3 13 -17 21 -43 25 -22 3 -58 12 -82 20 -37 11
-44 11 -49 -1 -7 -19 -21 -18 -19 2 1 13 -26 24 -129 50 -71 18 -146 34 -165
35 -19 2 -40 6 -45 10 -6 4 -54 11 -107 15 -73 5 -102 4 -113 -6 -9 -7 -17
-11 -20 -9 -8 9 -9 125 -1 184 9 65 16 74 49 69 12 -1 45 -5 72 -9z m-825
-192 c0 -39 7 -45 75 -83 104 -57 150 -84 163 -96 23 -23 126 -48 197 -49 l70
-1 3 -53 c4 -73 -13 -179 -34 -202 -12 -13 -15 -27 -9 -51 3 -18 10 -71 15
-118 4 -47 17 -120 28 -162 11 -43 18 -86 15 -97 -6 -25 17 -47 135 -123 107
-70 146 -108 185 -181 15 -28 63 -90 106 -137 59 -64 80 -95 85 -124 7 -35 6
-38 -11 -31 -30 12 -195 27 -235 21 -35 -6 -108 9 -171 33 -16 6 -42 11 -59
11 -48 0 -181 75 -230 130 -97 109 -108 124 -108 142 0 27 -33 54 -76 63 -47
8 -56 20 -42 54 5 14 10 78 10 141 0 63 4 134 10 157 9 38 8 45 -16 76 -17 22
-26 46 -26 70 0 37 4 41 46 38 32 -3 36 31 7 68 -13 17 -31 31 -38 31 -8 0
-19 9 -25 20 -8 16 -6 26 11 49 19 26 20 33 10 63 -6 18 -23 49 -36 69 -42 65
-72 151 -78 227 -5 59 -3 72 9 72 9 0 14 -10 14 -27z m-1400 -79 c0 -39 4 -47
33 -64 17 -11 39 -20 48 -20 36 0 31 -47 -14 -128 -71 -125 -143 -290 -169
-386 -7 -27 -21 -54 -30 -60 -22 -13 -23 -39 -3 -56 10 -8 15 -30 15 -65 0
-35 -5 -57 -15 -65 -22 -18 -18 -46 9 -73 27 -27 42 -97 31 -145 -5 -23 -13
-31 -37 -36 -64 -13 -182 -6 -257 15 -62 18 -89 20 -151 14 -41 -4 -103 -8
-136 -9 -38 -1 -72 -9 -88 -19 -18 -12 -46 -17 -93 -17 -110 1 -115 1 -192
-16 -53 -12 -96 -15 -150 -10 -154 13 -169 18 -136 43 46 34 114 61 170 66 90
9 159 33 204 71 24 20 56 36 82 40 23 4 51 13 62 21 12 8 31 15 42 15 12 0 25
4 31 8 5 5 29 15 54 22 49 15 109 49 126 71 5 8 18 39 27 70 13 42 26 64 52
83 30 23 35 33 35 70 0 23 7 62 15 87 8 24 26 96 39 161 23 113 51 177 79 179
7 0 21 3 32 5 11 2 57 5 103 6 77 2 85 4 106 29 13 15 26 47 30 74 11 84 46
99 46 19z m142 -129 c-2 -14 -8 -25 -12 -25 -4 0 -5 11 -2 25 2 14 8 25 12 25
4 0 5 -11 2 -25z m4228 0 c0 -8 -4 -15 -10 -15 -5 0 -10 7 -10 15 0 8 5 15 10
15 6 0 10 -7 10 -15z m-1980 -125 c89 -24 214 -39 227 -28 10 8 13 6 13 -5 0
-11 13 -18 38 -23 56 -10 160 -39 227 -64 33 -13 81 -24 106 -25 26 -2 55 -8
66 -14 20 -10 39 -13 178 -27 39 -4 73 -8 78 -10 4 -1 10 -2 14 -3 3 0 4 -4 0
-7 -3 -3 -313 -8 -689 -11 -657 -4 -685 -4 -707 14 -23 19 -23 20 -7 66 9 26
16 56 16 67 0 21 64 56 140 75 54 14 240 11 300 -5z m-1655 -240 c-3 -5 -11
-10 -16 -10 -6 0 -7 5 -4 10 3 6 11 10 16 10 6 0 7 -4 4 -10z m3584 -1405 c10
3 23 0 28 -7 7 -8 13 -171 18 -424 l7 -412 -41 -4 c-23 -2 -59 2 -81 8 -21 6
-41 9 -44 7 -3 -3 -38 -7 -78 -10 -40 -2 -104 -8 -143 -13 -153 -22 -383 -26
-810 -15 -412 11 -829 11 -1000 1 -244 -15 -1241 -21 -1348 -8 -53 6 -70 5
-79 -5 -9 -11 -13 -12 -19 -1 -9 15 -369 18 -544 5 -114 -9 -161 -9 -225 -2
-25 3 -90 0 -145 -6 -55 -6 -113 -12 -130 -12 -54 -2 -190 14 -208 24 -10 5
-23 7 -29 3 -14 -9 -105 -13 -393 -18 -121 -3 -266 -8 -321 -12 -65 -4 -130
-2 -180 5 -142 22 -325 28 -524 17 -226 -12 -378 -16 -560 -15 -102 1 -228 2
-282 2 l-96 1 -6 100 c-3 56 -4 256 -3 446 l2 345 133 -2 c163 -3 313 -11 495
-24 76 -6 153 -7 170 -3 18 4 318 8 667 10 349 1 788 5 975 9 348 7 494 8 740
7 77 -1 169 1 205 2 158 9 449 11 1095 8 143 0 352 0 465 1 362 3 509 2 800
-6 157 -5 292 -8 300 -9 8 0 44 2 80 5 152 13 505 28 529 22 24 -5 347 -18
416 -17 89 1 125 8 126 22 0 8 4 5 10 -8 6 -17 14 -22 28 -17z"/>
<path d="M3432 11445 c-44 -21 -72 -40 -72 -50 0 -28 29 -28 61 0 18 14 45 29
61 32 31 6 47 28 31 44 -5 5 -37 -5 -81 -26z"/>
<path d="M2641 8772 c-22 -16 -7 -34 29 -37 19 -1 44 -5 56 -8 26 -9 64 17 48
33 -15 15 -115 24 -133 12z"/>
<path d="M1110 4350 c0 -5 5 -10 10 -10 6 0 10 5 10 10 0 6 -4 10 -10 10 -5 0
-10 -4 -10 -10z"/>
<path d="M2165 3998 c-33 -5 -98 -16 -145 -23 -47 -8 -100 -17 -118 -20 -19
-3 -60 -14 -93 -25 -32 -11 -69 -20 -83 -20 -24 0 -41 -12 -30 -22 2 -3 34 3
71 13 37 10 69 17 71 14 3 -2 13 0 24 6 21 11 154 33 323 53 92 11 126 11 208
0 54 -8 108 -19 119 -25 11 -6 26 -8 33 -5 8 3 17 1 20 -3 2 -5 28 -16 57 -26
51 -16 106 -42 283 -134 44 -22 90 -41 102 -41 37 0 27 29 -14 46 -21 9 -87
39 -148 68 -175 84 -195 92 -300 121 -111 30 -274 40 -380 23z"/>
<path d="M1405 3549 c-16 -4 -97 -13 -178 -20 -100 -8 -147 -15 -144 -23 4
-12 127 -19 127 -8 0 4 21 7 48 7 78 1 186 17 194 29 18 27 7 31 -47 15z"/>
<path d="M981 3506 c-58 -12 -82 -36 -36 -36 46 0 115 22 115 36 0 16 -5 16
-79 0z"/>
<path d="M869 3486 c-4 -5 -76 -14 -116 -15 -37 -1 -28 -31 9 -31 55 0 148 23
148 37 0 12 -31 19 -41 9z"/>
<path d="M690 3457 c0 -10 8 -17 18 -17 9 0 13 4 7 8 -5 4 -13 11 -17 16 -5 5
-8 2 -8 -7z"/>
<path d="M1355 3389 c-134 -19 -185 -31 -185 -45 0 -8 -4 -14 -10 -14 -5 0
-10 6 -10 13 0 11 -11 11 -62 1 -35 -8 -91 -17 -126 -20 -58 -6 -62 -8 -56
-28 4 -12 3 -18 -1 -14 -4 4 -16 3 -26 -2 -13 -7 -22 -6 -33 5 -11 12 -23 14
-47 7 -36 -9 -43 -20 -30 -41 8 -12 20 -11 82 3 235 52 350 75 449 86 159 19
273 22 350 10 41 -7 90 -13 108 -14 18 -1 36 -7 41 -14 4 -7 21 -17 37 -22 71
-22 117 -42 200 -86 155 -82 223 -114 252 -118 15 -2 38 -8 52 -14 23 -10 104
-25 140 -26 8 -1 20 -4 26 -8 13 -9 180 -35 269 -43 39 -3 84 -8 102 -11 38
-7 73 3 73 21 0 18 -38 26 -175 35 -66 4 -142 15 -169 23 -27 9 -53 14 -57 12
-10 -7 -160 22 -239 45 -36 11 -92 36 -125 56 -171 104 -201 118 -385 181 -65
22 -95 26 -225 28 -82 2 -181 -1 -220 -6z"/>
<path d="M2393 2873 c-29 -2 -53 -8 -53 -12 0 -9 4 -10 100 -14 47 -2 84 2
100 10 24 13 24 13 -15 13 -22 0 -49 2 -60 3 -11 2 -44 2 -72 0z"/>
<path d="M2310 2859 c0 -5 5 -7 10 -4 6 3 10 8 10 11 0 2 -4 4 -10 4 -5 0 -10
-5 -10 -11z"/>
<path d="M5321 10637 c-6 -16 -11 -45 -11 -65 -1 -59 -33 -256 -59 -356 -7
-31 -6 -46 5 -68 12 -23 12 -33 3 -51 -22 -39 -92 -141 -117 -169 -26 -29 -26
-61 1 -66 11 -2 23 8 35 29 9 17 29 46 43 63 14 17 43 60 64 94 36 61 37 66
26 103 -9 31 -9 49 2 87 8 26 20 88 26 137 28 218 28 218 10 255 l-17 35 -11
-28z"/>
<path d="M3503 10034 c-18 -14 -33 -30 -33 -35 0 -14 28 -11 58 8 32 21 43 34
36 45 -9 14 -28 8 -61 -18z"/>
<path d="M3995 11583 c-30 -7 -65 -44 -65 -68 0 -56 77 -97 131 -70 32 17 45
59 30 98 -15 39 -45 52 -96 40z m43 -76 c3 -25 0 -28 -19 -25 -30 4 -49 35
-29 48 25 16 45 7 48 -23z"/>
<path d="M4302 11363 c-12 -23 -5 -43 14 -36 16 6 19 39 5 48 -6 3 -14 -2 -19
-12z"/>
<path d="M4322 11126 c-18 -7 -41 -20 -52 -28 -10 -9 -28 -21 -39 -28 -12 -6
-21 -17 -21 -25 0 -17 26 -20 36 -4 11 19 94 49 134 49 45 0 61 17 35 37 -22
15 -48 15 -93 -1z"/>
<path d="M4308 11028 c-47 -20 -63 -48 -38 -63 23 -14 129 -13 141 1 9 11 8
15 -4 20 -8 3 -21 4 -29 2 -7 -2 -16 1 -18 7 -3 5 8 12 25 15 18 3 31 12 33
23 5 24 -49 22 -110 -5z"/>
<path d="M3920 11021 c-19 -3 -34 -9 -32 -13 1 -5 2 -12 2 -17 0 -5 28 -6 63
-4 54 5 64 3 81 -16 19 -21 19 -21 -11 -21 -16 0 -44 -5 -61 -11 -68 -23 -40
-82 37 -77 44 3 73 28 32 28 -12 0 -21 5 -21 10 0 6 11 10 25 10 16 0 25 6 25
16 0 33 25 6 38 -42 21 -72 30 -94 42 -94 28 0 -8 135 -52 189 -39 49 -76 58
-168 42z"/>
<path d="M4239 10701 c-23 -18 -23 -20 -5 -27 21 -8 51 7 51 26 0 22 -20 22
-46 1z"/>
<path d="M4170 10690 c0 -13 28 -25 38 -16 3 4 0 11 -8 16 -20 13 -30 12 -30
0z"/>
<path d="M4384 10655 c-4 -9 -19 -15 -39 -15 -18 0 -43 -9 -56 -19 -16 -13
-33 -17 -54 -14 -21 3 -35 0 -44 -11 -18 -21 -5 -36 30 -36 21 0 29 -5 29 -18
0 -10 2 -21 6 -24 9 -9 76 10 92 26 22 22 12 27 -28 16 -66 -19 -50 7 22 35
72 28 102 50 92 66 -9 15 -44 10 -50 -6z"/>
<path d="M4511 10553 c-42 -49 -49 -63 -30 -63 19 0 89 73 89 93 0 28 -15 20
-59 -30z"/>
<path d="M2430 10505 c-41 -21 -55 -57 -38 -91 15 -34 45 -41 99 -25 59 18 64
82 9 114 -33 20 -37 20 -70 2z m50 -80 c0 -8 -9 -15 -20 -15 -11 0 -20 7 -20
15 0 8 9 15 20 15 11 0 20 -7 20 -15z"/>
<path d="M1901 9447 c2 -1 12 -9 22 -16 14 -12 17 -11 17 3 0 10 -8 16 -22 16
-12 0 -19 -1 -17 -3z"/>
<path d="M1970 9370 c0 -5 9 -10 21 -10 11 0 17 5 14 10 -3 6 -13 10 -21 10
-8 0 -14 -4 -14 -10z"/>
<path d="M5914 9755 c-8 -20 31 -72 69 -91 18 -9 42 -25 54 -36 25 -23 43 -17
43 16 0 34 -26 53 -51 38 -16 -11 -19 -9 -19 9 0 33 -38 79 -66 79 -14 0 -27
-7 -30 -15z"/>
<path d="M6096 8127 c-16 -12 -16 -14 4 -39 25 -32 56 -44 75 -28 15 13 10 35
-13 63 -18 20 -41 22 -66 4z"/>
<path d="M3337 8283 c-12 -11 -8 -23 7 -23 7 0 19 7 26 15 10 12 9 15 -7 15
-11 0 -23 -3 -26 -7z"/>
<path d="M4495 8830 c-11 -18 7 -60 25 -60 27 0 49 26 43 50 -4 14 -14 20 -34
20 -15 0 -30 -4 -34 -10z"/>
<path d="M2223 7863 c-19 -7 -15 -33 5 -33 25 0 46 16 38 29 -7 11 -22 13 -43
4z"/>
<path d="M2304 7813 c-26 -5 -58 -38 -50 -51 13 -21 116 17 116 43 0 15 -20
17 -66 8z"/>
<path d="M4246 7343 c-14 -21 -32 -57 -40 -80 -8 -23 -28 -71 -44 -105 -16
-35 -34 -85 -41 -113 -6 -27 -14 -58 -17 -67 -4 -13 0 -18 16 -18 23 0 31 16
64 135 13 44 28 89 34 100 6 11 20 40 32 65 12 24 31 51 42 58 23 17 21 55 -4
60 -11 2 -26 -11 -42 -35z"/>
<path d="M5883 5993 c-18 -7 -16 -52 2 -59 21 -9 45 14 45 42 0 24 -17 30 -47
17z"/>
<path d="M7620 3940 c-143 -12 -270 -44 -364 -92 -59 -30 -174 -68 -221 -73
-157 -15 -402 -26 -480 -22 -95 6 -135 2 -135 -14 0 -15 394 -10 534 6 140 17
266 49 343 88 58 29 182 68 226 72 163 13 207 19 204 28 -5 15 -10 15 -107 7z"/>
<path d="M6286 3704 c-3 -8 0 -16 7 -18 20 -6 141 -25 157 -25 8 0 61 -5 118
-12 96 -11 125 -9 109 8 -6 6 -151 25 -282 37 -22 2 -49 7 -60 11 -39 14 -43
14 -49 -1z"/>
<path d="M7097 3674 c-3 -3 -162 -13 -214 -13 -31 -1 -43 -5 -43 -16 0 -18 18
-19 165 -4 139 14 157 17 150 29 -5 8 -51 11 -58 4z"/>
<path d="M6700 3652 c0 -14 39 -42 45 -32 4 6 17 10 30 10 32 0 56 10 49 21
-6 11 -124 12 -124 1z"/>
<path d="M4553 3790 c-12 -10 -24 -16 -27 -13 -3 4 -6 2 -6 -4 0 -6 -13 -13
-30 -16 -32 -7 -42 -27 -12 -27 9 0 37 6 62 14 35 10 45 18 46 35 2 30 -9 34
-33 11z"/>
<path d="M4303 3732 c-13 -2 -23 -10 -23 -19 0 -11 -3 -13 -13 -5 -10 8 -16 6
-25 -9 -11 -18 -9 -19 27 -19 48 0 112 26 106 43 -5 12 -32 16 -72 9z"/>
<path d="M4396 3723 c-3 -7 -1 -13 3 -13 17 0 41 12 41 20 0 14 -39 7 -44 -7z"/>
<path d="M4330 3549 c-77 -42 -86 -52 -65 -73 9 -9 14 -17 11 -17 -22 -5 -33
-4 -43 4 -10 7 -13 3 -13 -17 0 -30 11 -32 45 -10 17 11 34 14 56 9 24 -6 30
-4 27 6 -3 8 -12 13 -21 11 -8 -1 -19 3 -23 10 -4 7 -4 10 1 6 4 -4 14 0 21
10 10 12 13 13 14 3 0 -28 99 18 100 47 0 17 -25 42 -42 42 -7 0 -38 -14 -68
-31z"/>
<path d="M3860 2910 c0 -5 14 -10 30 -10 17 0 30 5 30 10 0 6 -13 10 -30 10
-16 0 -30 -4 -30 -10z"/>
<path d="M4036 2911 c-3 -5 -5 -21 -4 -35 2 -22 7 -26 36 -26 21 0 31 4 26 11
-3 6 -14 9 -24 6 -11 -3 -21 2 -24 10 -5 11 -2 13 9 9 9 -3 13 -2 10 4 -3 6 0
10 7 10 9 0 9 3 -2 10 -19 12 -27 12 -34 1z"/>
<path d="M3980 2854 c0 -17 22 -14 28 4 2 7 -3 12 -12 12 -9 0 -16 -7 -16 -16z"/>
<path d="M6770 3171 c0 -23 16 -29 85 -32 74 -3 75 -2 62 24 -9 19 -19 22 -79
25 -62 2 -68 1 -68 -17z"/>
<path d="M6962 3182 c-15 -2 -22 -9 -20 -20 2 -12 16 -18 49 -20 39 -3 47 0
52 17 4 15 -1 20 -27 23 -17 1 -41 2 -54 0z"/>
<path d="M7321 2679 c-18 -7 -22 -15 -18 -34 3 -17 -1 -29 -12 -35 -9 -5 -12
-10 -8 -10 5 0 1 -7 -8 -16 -9 -10 -13 -24 -10 -35 4 -11 3 -19 -2 -18 -4 1
-15 0 -23 -4 -8 -3 -51 -8 -94 -11 -124 -9 -168 -33 -150 -79 6 -18 68 -33
169 -43 69 -6 95 -16 95 -36 0 -7 -27 -8 -74 -3 -58 5 -81 3 -105 -9 -16 -9
-41 -16 -55 -16 -30 0 -40 -13 -32 -44 9 -35 119 -79 183 -73 60 6 103 -2 103
-18 0 -10 -26 -13 -102 -11 -155 2 -206 -31 -184 -119 7 -28 33 -40 53 -23 10
8 12 22 8 48 -4 26 -2 40 8 49 15 12 194 18 205 6 4 -4 8 -37 8 -73 6 -254 18
-314 60 -298 16 6 17 20 11 159 -3 84 -3 165 0 181 l6 28 114 -6 c90 -5 114
-3 111 6 -3 7 -13 14 -24 16 -10 2 -28 8 -39 13 -13 7 -35 7 -62 1 -59 -14
-95 -5 -91 22 3 20 7 21 113 18 61 -2 126 -7 145 -11 43 -8 46 -34 6 -41 -33
-6 -46 -27 -22 -36 24 -9 61 3 95 32 68 57 34 74 -184 88 l-170 11 0 30 0 30
105 0 c58 0 110 -4 117 -8 21 -15 70 -25 83 -17 32 20 -37 49 -120 51 -59 1
-82 10 -71 28 7 10 22 12 58 8 55 -6 89 6 63 23 -8 5 -33 10 -56 10 -23 0 -75
3 -117 6 -71 6 -77 9 -77 29 0 27 24 50 42 39 11 -7 53 -15 183 -36 14 -2 20
3 20 17 0 22 -58 43 -140 51 -101 10 -108 14 -103 70 3 32 7 39 33 46 81 23
125 19 125 -13 0 -17 -7 -19 -65 -19 -50 0 -65 -3 -65 -15 0 -26 32 -34 105
-25 85 10 102 16 108 41 10 37 -4 58 -45 70 -22 6 -46 8 -54 5 -8 -3 -14 -1
-14 4 0 13 -107 12 -139 -1z m-75 -213 c17 -13 17 -16 4 -30 -14 -14 -22 -14
-80 0 -76 17 -80 21 -49 33 36 15 103 13 125 -3z m144 -100 c0 -9 -30 -14 -35
-6 -4 6 3 10 14 10 12 0 21 -2 21 -4z m-140 -61 c18 -6 33 -39 22 -49 -10 -10
-108 -6 -143 5 -48 17 -58 28 -36 44 18 13 116 13 157 0z"/>
<path d="M1020 2400 c0 -5 5 -10 10 -10 6 0 10 5 10 10 0 6 -4 10 -10 10 -5 0
-10 -4 -10 -10z"/>
<path d="M7480 2041 c-7 -15 -6 -23 6 -35 8 -9 19 -16 23 -16 17 0 41 38 35
54 -9 22 -51 20 -64 -3z"/>
<path d="M2072 1242 c-18 -3 -22 -8 -16 -20 14 -33 35 -298 30 -390 -6 -110 1
-119 80 -98 27 7 76 14 109 15 33 1 63 6 66 9 17 18 41 114 31 124 -17 17 -52
-2 -78 -44 -24 -38 -28 -40 -62 -34 -49 7 -72 37 -72 91 0 70 14 95 52 95 23
0 37 -7 46 -21 8 -12 21 -19 35 -17 53 8 38 138 -17 138 -16 0 -27 -7 -31 -20
-3 -11 -12 -20 -19 -20 -7 0 -21 -9 -31 -20 -27 -30 -35 -15 -29 58 8 86 23
104 83 100 39 -3 47 -7 49 -25 4 -27 30 -34 60 -15 26 17 28 39 4 70 -17 22
-25 23 -143 25 -68 1 -134 1 -147 -1z"/>
<path d="M5173 1234 c-3 -8 0 -21 7 -29 9 -10 16 -81 23 -206 9 -181 9 -190
-9 -204 -16 -13 -17 -16 -4 -25 8 -5 28 -10 44 -10 16 0 45 -5 63 -12 28 -10
36 -10 49 4 16 15 15 19 -3 55 -27 51 -36 122 -20 152 10 19 21 23 62 25 104
3 194 78 195 163 0 84 -30 96 -238 99 -131 1 -165 -1 -169 -12z m271 -46 c25
-36 21 -98 -9 -131 -28 -29 -75 -37 -92 -14 -15 18 -25 138 -13 152 5 6 29 12
54 14 36 1 47 -2 60 -21z"/>
<path d="M5785 1234 c-53 -14 -105 -59 -105 -93 0 -40 21 -125 32 -132 7 -5
50 -6 96 -5 78 4 84 2 99 -20 8 -13 12 -31 9 -40 -4 -10 1 -42 10 -73 15 -52
15 -56 -2 -68 -13 -9 -37 -12 -79 -8 -111 11 -119 13 -143 49 -21 31 -26 33
-54 25 -18 -5 -35 -14 -40 -21 -11 -18 -10 -40 2 -33 6 3 10 1 10 -5 0 -7 -6
-10 -14 -7 -18 7 -50 -28 -41 -43 4 -7 37 -11 83 -11 43 1 121 -2 175 -5 l99
-5 49 33 c59 40 74 76 66 167 -4 56 -9 69 -33 89 -27 23 -33 24 -115 18 -84
-6 -87 -6 -93 16 -21 82 8 157 56 139 12 -4 25 -14 28 -22 23 -50 28 -54 61
-51 45 4 53 14 45 56 -6 31 -12 37 -49 48 -57 16 -93 17 -152 2z m195 -228 c0
-3 -4 -8 -10 -11 -5 -3 -10 -1 -10 4 0 6 5 11 10 11 6 0 10 -2 10 -4z"/>
<path d="M653 1233 c-7 -3 -13 -11 -13 -19 0 -8 6 -17 13 -19 15 -6 22 -400 7
-410 -18 -11 -10 -43 12 -48 20 -6 85 -1 136 9 29 6 28 22 -2 36 -21 9 -26 20
-32 75 -9 84 0 92 97 100 88 6 140 35 170 94 30 60 25 106 -15 144 -32 30 -41
33 -128 39 -51 4 -115 2 -142 -3 -27 -5 -59 -6 -70 -1 -12 4 -27 5 -33 3z
m263 -68 c22 -33 21 -91 -2 -117 -33 -35 -53 -41 -99 -28 l-42 12 -6 66 c-8
83 -1 92 74 92 51 0 61 -3 75 -25z"/>
<path d="M1769 1230 c-132 -40 -204 -167 -172 -308 13 -59 17 -66 87 -135 l50
-48 112 6 c62 3 120 8 128 11 11 4 15 22 16 67 0 34 1 71 2 82 3 18 -4 20 -67
23 -38 2 -81 0 -95 -4 -23 -6 -24 -7 -5 -14 19 -8 19 -9 1 -9 -32 -1 -8 -15
26 -16 26 0 33 -5 39 -29 10 -38 7 -41 -44 -41 -59 1 -109 29 -141 77 -23 36
-28 53 -28 115 -1 70 0 74 37 115 58 65 77 73 146 58 32 -7 65 -10 74 -7 21 9
19 44 -4 57 -23 12 -124 12 -162 0z"/>
<path d="M4515 1230 c-10 -16 13 -57 35 -63 17 -4 26 -58 36 -228 10 -171 134
-259 276 -195 46 20 66 24 106 19 44 -5 51 -3 61 15 9 17 6 26 -14 51 -26 30
-26 31 -23 192 3 150 4 162 22 165 33 5 43 24 22 40 -23 16 -221 21 -230 5
-15 -24 7 -41 55 -41 l49 0 0 -179 c0 -150 -3 -182 -16 -195 -8 -9 -18 -16
-22 -17 -103 -12 -151 -2 -176 37 -24 35 -33 297 -11 330 33 51 23 59 -91 69
-51 5 -74 3 -79 -5z"/>
<path d="M1125 1219 c-4 -5 1 -19 11 -30 15 -16 16 -24 6 -57 -37 -120 -62
-210 -62 -221 0 -7 -7 -29 -16 -49 -9 -21 -22 -52 -30 -71 -21 -47 -7 -59 59
-53 54 5 107 26 107 42 0 12 -37 13 -42 1 -6 -15 -48 8 -48 26 0 10 13 50 29
88 29 68 31 70 73 78 25 4 58 3 79 -3 21 -5 44 -7 53 -4 12 5 22 -6 39 -42 12
-27 30 -60 40 -74 9 -13 17 -35 17 -47 0 -19 -5 -23 -29 -23 -31 0 -48 -23
-28 -37 15 -11 187 -10 205 0 20 13 14 37 -10 37 -13 0 -28 4 -33 8 -13 8 -75
153 -117 272 -36 104 -59 143 -93 158 -33 15 -201 16 -210 1z m176 -104 c15
-44 27 -80 26 -81 -5 -5 -126 -8 -131 -4 -7 7 20 124 35 151 19 37 41 17 70
-66z"/>
<path d="M4103 1220 c-23 -5 -55 -15 -70 -24 -31 -15 -94 -80 -112 -114 -19
-35 -24 -127 -11 -182 16 -66 48 -104 124 -142 56 -29 69 -32 151 -31 101 1
198 28 203 56 4 21 -15 22 -61 2 -76 -32 -165 -12 -237 52 -80 72 -98 139 -61
224 44 99 137 137 212 86 24 -16 34 -31 34 -50 1 -39 16 -50 55 -40 37 10 58
49 59 111 1 30 -1 32 -34 32 -20 0 -46 6 -58 14 -25 15 -131 18 -194 6z"/>
<path d="M3123 1145 c-17 -7 -39 -25 -48 -39 -19 -28 -19 -26 60 -187 77 -155
83 -251 15 -274 -35 -12 -48 -29 -31 -39 16 -10 108 16 136 38 42 33 51 105
24 178 -22 59 -20 103 3 80 17 -17 58 -15 58 3 0 8 5 15 10 15 16 0 11 33 -10
68 -23 38 -40 47 -75 38 -21 -5 -25 -12 -25 -41 0 -31 -2 -34 -17 -24 -27 17
-63 77 -63 103 0 18 7 25 30 30 20 4 30 11 30 24 0 41 -39 52 -97 27z"/>
<path d="M2975 953 c-84 -19 -114 -35 -124 -65 -6 -17 -11 -41 -11 -53 0 -22
38 -80 47 -71 3 2 21 -2 40 -11 49 -20 93 -10 130 30 38 40 46 71 29 111 -20
49 -61 71 -111 59z m26 -77 c7 -14 9 -36 5 -50 -9 -35 -49 -35 -72 -1 -15 23
-15 27 0 50 21 32 53 32 67 1z"/>
<path d="M6273 826 c-24 -21 -26 -27 -16 -49 13 -28 61 -41 108 -29 34 9 45
45 25 82 -16 29 -80 28 -117 -4z"/>
</g>
</svg>
