<?xml version="1.0" standalone="no"?>
<!DOCTYPE svg PUBLIC "-//W3C//DTD SVG 20010904//EN"
 "http://www.w3.org/TR/2001/REC-SVG-20010904/DTD/svg10.dtd">
<svg version="1.0" xmlns="http://www.w3.org/2000/svg"
 width="863.000000pt" height="1431.000000pt" viewBox="0 0 863.000000 1431.000000"
 preserveAspectRatio="xMidYMid meet">
<metadata>
Created by potrace 1.16, written by Peter Selinger 2001-2019
</metadata>
<g transform="translate(0.000000,1431.000000) scale(0.100000,-0.100000)"
fill="#000000" stroke="none">
<path d="M6634 13929 c-3 -5 -62 -8 -132 -8 -70 0 -135 -3 -144 -6 -10 -4 -18
-3 -18 1 0 5 -84 8 -187 7 -104 -1 -341 -3 -528 -4 -187 -1 -345 -6 -351 -11
-6 -4 -26 -3 -45 2 -19 6 -54 8 -79 5 -37 -4 -417 -7 -485 -4 -66 3 -1868 -11
-2150 -17 -187 -4 -421 -7 -520 -6 -99 0 -243 0 -320 1 -77 0 -160 1 -185 1
-25 1 -72 3 -105 4 -33 0 -64 4 -70 7 -16 9 -95 -2 -95 -13 0 -7 -4 -7 -12 0
-14 11 -196 11 -215 -1 -6 -4 -14 -1 -17 5 -3 9 -9 8 -20 -6 -14 -18 -16 -18
-22 -2 -6 15 -25 17 -200 13 -116 -2 -198 -7 -205 -14 -6 -6 -12 -78 -14 -169
-10 -354 -17 -1399 -14 -1974 0 -36 1 -135 1 -220 1 -85 2 -186 2 -225 1 -46
-4 -76 -13 -87 -12 -15 -12 -20 0 -34 12 -14 14 -128 15 -658 1 -353 3 -689 4
-748 1 -60 -2 -112 -5 -118 -3 -5 -2 -25 4 -44 6 -24 5 -65 -4 -126 -9 -66 -9
-93 -1 -96 15 -6 20 -126 5 -135 -8 -5 -8 -20 0 -58 7 -31 7 -59 2 -69 -10
-19 -7 -349 3 -359 3 -3 6 5 7 18 0 13 3 18 6 11 3 -8 -3 -29 -13 -47 -14 -27
-15 -36 -5 -49 8 -9 9 -21 4 -33 -5 -10 -8 -69 -7 -130 1 -69 -2 -113 -8 -113
-6 0 -7 -7 -2 -17 4 -10 8 -76 10 -148 1 -71 4 -151 8 -177 3 -26 2 -58 -3
-72 -7 -17 -5 -30 6 -46 13 -19 14 -26 4 -43 -8 -12 -12 -52 -12 -106 4 -261
4 -311 1 -366 -1 -33 -7 -66 -12 -72 -7 -9 -7 -18 1 -27 9 -11 9 -19 0 -34
-10 -15 -10 -24 -2 -34 14 -17 16 -169 2 -204 -7 -20 -6 -31 4 -43 10 -12 12
-37 7 -101 -3 -47 -4 -89 -2 -93 2 -5 6 -107 7 -228 2 -121 8 -226 13 -232 13
-17 25 -119 22 -197 -2 -63 -2 -89 -1 -250 0 -41 0 -88 -1 -105 -1 -46 -2
-239 0 -345 1 -52 3 -313 6 -580 3 -267 8 -568 10 -670 3 -102 5 -315 6 -475
0 -159 0 -297 0 -305 0 -72 9 -374 14 -490 4 -80 7 -217 6 -305 0 -88 0 -171
0 -185 0 -14 2 -254 5 -535 7 -626 7 -1004 1 -1111 -2 -44 -1 -86 2 -91 9 -13
91 -22 95 -10 1 5 56 7 122 6 160 -2 184 -2 225 0 19 1 53 -2 74 -8 27 -7 46
-6 59 1 13 7 61 8 141 3 196 -12 370 -13 389 -3 23 12 57 12 127 0 30 -6 60
-7 65 -4 6 4 69 7 140 9 72 1 149 5 173 8 24 2 53 0 64 -6 11 -6 23 -7 27 -3
3 5 53 9 111 10 58 0 134 1 170 2 132 5 410 3 468 -3 23 -2 42 -1 42 3 0 4 54
7 120 7 66 0 120 -3 120 -8 0 -4 5 -5 12 -1 6 4 172 9 367 11 196 1 608 5 916
7 308 3 567 6 575 7 8 1 94 -1 190 -5 96 -4 186 -7 200 -7 14 1 44 -4 67 -10
33 -9 46 -9 57 0 18 15 470 27 826 21 80 -1 147 -1 150 0 3 1 61 4 129 6 120
5 127 4 178 -22 l53 -27 23 25 c22 23 24 24 177 20 85 -2 166 -3 180 -3 14 1
140 2 280 4 387 5 357 2 381 40 15 24 19 44 15 82 -2 28 -7 138 -10 245 -3
107 -9 224 -12 260 -3 36 -6 124 -6 195 0 96 10 984 13 1060 0 26 -1 1813 -2
1835 0 14 -2 144 -3 290 -5 576 -17 1366 -21 1380 -8 27 -19 334 -14 410 2 41
3 122 2 180 -10 436 -15 749 -14 885 0 88 0 554 1 1035 1 789 -2 1242 -15
2625 -3 237 -7 779 -10 1205 -3 426 -10 849 -15 940 -24 396 -29 473 -34 477
-7 7 -149 12 -341 12 -93 0 -177 0 -185 0 -8 0 -168 1 -355 2 -186 1 -363 5
-393 9 -29 4 -55 3 -58 -1z m-5874 -76 c0 -3 -7 -14 -15 -23 -14 -16 27 -17
617 -20 1228 -5 2560 4 2585 19 10 5 26 5 41 0 14 -5 66 -7 116 -3 50 3 239 7
419 8 265 2 331 6 337 17 7 11 14 11 42 -1 27 -12 89 -15 338 -13 168 1 314 2
325 3 19 1 760 3 820 2 17 0 359 0 762 -1 446 0 734 -4 737 -10 9 -14 29 -112
28 -136 -5 -125 -1 -333 7 -389 6 -39 13 -291 15 -561 3 -269 8 -587 11 -705
3 -118 7 -408 10 -645 3 -236 7 -441 9 -455 5 -35 11 -1344 8 -1620 -2 -231 2
-927 13 -2005 3 -335 8 -853 10 -1150 3 -297 7 -717 10 -934 3 -217 7 -689 8
-1050 2 -361 5 -870 8 -1131 4 -444 3 -475 -13 -478 -10 -2 -32 8 -50 21 -37
27 -103 52 -162 62 -33 5 -44 2 -76 -23 -43 -35 -106 -46 -169 -29 -34 9 -44
9 -57 -5 -14 -14 -20 -12 -67 19 -28 19 -61 49 -74 68 -12 18 -32 35 -45 38
-13 4 -38 20 -56 37 -18 16 -39 30 -45 30 -7 0 -29 9 -50 20 -48 26 -72 15
-87 -40 -6 -22 -12 -40 -14 -40 -2 0 -17 5 -33 11 -23 7 -32 18 -37 41 -3 17
-17 45 -29 62 -13 17 -29 46 -36 64 -22 53 -44 42 -154 -73 -55 -58 -106 -105
-113 -105 -7 0 -20 7 -28 16 -25 24 -48 13 -63 -31 -18 -54 -81 -110 -170
-151 -40 -19 -76 -34 -79 -34 -3 0 -23 -13 -43 -29 -20 -15 -52 -31 -71 -35
-56 -11 -213 -16 -225 -6 -17 14 -92 31 -109 24 -9 -3 -16 -12 -16 -20 0 -7
-8 -17 -17 -22 -17 -9 -129 -27 -144 -24 -4 1 -71 -9 -150 -22 -137 -22 -251
-26 -319 -10 -28 7 -75 13 -138 17 -23 2 -47 8 -54 15 -14 14 -94 16 -103 2
-7 -12 -57 -3 -118 23 -63 26 -108 18 -190 -33 -41 -26 -75 -40 -93 -39 -16 1
-58 -4 -94 -10 -36 -7 -74 -13 -86 -15 -11 -2 -27 -7 -35 -12 -21 -13 -72 -16
-291 -17 -108 -1 -200 -5 -204 -9 -4 -5 -13 0 -20 10 -9 14 -28 18 -83 20 -71
3 -109 19 -161 68 -30 28 -103 85 -124 96 -12 6 -23 14 -26 18 -8 13 -132 60
-156 60 -12 0 -37 7 -57 15 -19 8 -37 12 -40 8 -3 -3 -21 4 -40 16 -19 12 -56
24 -82 28 -45 6 -85 33 -85 57 0 6 -20 27 -45 46 -24 19 -47 43 -50 53 -6 16
-48 44 -85 56 -8 3 -53 5 -100 5 -80 1 -87 -1 -122 -29 -21 -16 -38 -38 -38
-48 0 -46 -126 -266 -153 -267 -5 0 -16 9 -25 19 -11 12 -37 21 -69 25 -49 6
-53 5 -53 -14 0 -15 7 -20 29 -20 37 0 81 -16 81 -29 0 -20 -60 -105 -92 -131
-34 -27 -98 -60 -117 -60 -6 0 -15 -9 -21 -21 -13 -24 -83 -58 -119 -59 -15 0
-38 -16 -64 -45 -22 -25 -47 -45 -55 -45 -8 0 -26 -6 -40 -14 -48 -26 -242
-116 -249 -116 -3 0 -27 -13 -53 -30 -76 -49 -121 -63 -255 -79 -80 -10 -108
-18 -150 -42 -16 -10 -52 -23 -80 -30 -27 -6 -77 -24 -110 -40 -43 -19 -73
-27 -105 -25 -25 1 -65 3 -90 4 l-45 2 -2 174 c-3 151 -1 175 14 187 12 11 55
14 172 14 140 1 161 3 206 24 28 12 64 28 80 36 64 29 144 47 230 52 54 3 120
15 165 29 41 13 95 24 121 24 77 0 196 44 243 91 23 22 57 49 78 59 20 11 50
36 67 57 30 36 32 37 65 25 31 -12 66 -8 66 7 0 14 -16 27 -45 36 -39 13 -112
-9 -120 -36 -7 -22 -91 -89 -111 -89 -7 0 -18 -9 -24 -20 -6 -10 -31 -34 -57
-51 -43 -30 -53 -33 -122 -32 -216 0 -265 9 -361 62 -30 16 -67 32 -82 35 -15
2 -32 7 -36 10 -5 3 -23 1 -40 -3 -22 -7 -36 -5 -51 6 -17 12 -31 12 -74 3
-57 -11 -89 -29 -133 -74 -51 -51 -133 -94 -191 -102 -70 -8 -80 1 -63 59 8
31 10 79 6 153 -21 351 -38 1707 -22 1732 3 5 -2 40 -10 78 -15 75 -19 214 -6
214 5 0 24 -15 43 -33 76 -72 147 -107 257 -124 l33 -5 -6 -67 c-4 -36 -10
-84 -14 -106 -5 -25 -3 -51 5 -70 7 -16 10 -39 8 -51 -6 -24 36 -123 84 -198
48 -74 96 -109 227 -161 l120 -49 125 1 c142 1 224 17 300 59 47 27 52 28 61
12 17 -30 73 -78 97 -85 38 -9 137 3 165 22 24 15 31 16 74 2 119 -36 294 -44
393 -18 54 15 172 59 204 78 116 65 251 243 265 348 7 56 -3 53 111 34 36 -6
72 -15 81 -20 38 -20 634 -29 682 -10 51 20 61 15 80 -45 16 -49 17 -58 4 -72
-8 -9 -19 -49 -25 -87 -13 -78 -3 -134 30 -169 10 -11 18 -23 18 -26 0 -4 23
-26 51 -50 71 -60 163 -83 255 -64 72 15 101 31 130 71 47 63 55 91 53 176 -2
69 -7 92 -32 141 -27 53 -28 62 -18 96 6 20 11 62 11 93 0 71 -10 68 205 68
39 0 86 4 105 9 19 5 47 11 62 14 38 6 47 13 131 88 71 65 115 132 132 200 4
16 16 29 30 32 26 7 85 81 108 137 8 20 15 70 16 113 3 149 -1 140 56 146 33
3 65 16 95 35 40 27 46 37 63 100 10 39 21 111 24 162 7 102 4 108 -64 184
l-35 39 21 34 c28 44 46 188 29 220 -7 11 -11 31 -9 43 2 16 -8 27 -38 44 -23
12 -41 26 -41 31 0 4 -7 8 -16 8 -9 0 -28 9 -43 19 -55 40 -207 81 -298 81
-26 0 -53 4 -59 8 -6 4 -14 28 -18 53 -5 35 -17 57 -46 89 -22 24 -38 45 -35
48 2 3 71 -3 152 -12 81 -10 191 -21 243 -26 283 -28 444 -57 465 -84 20 -26
54 -28 86 -5 17 12 27 25 22 28 -4 4 -51 22 -103 39 -87 29 -219 55 -330 66
-146 13 -264 27 -272 33 -11 6 -35 8 -253 17 -88 4 -170 9 -183 12 -30 6 -548
6 -687 -1 -166 -8 -345 -24 -490 -46 -71 -11 -155 -22 -185 -25 -30 -3 -89
-13 -130 -21 -41 -8 -91 -19 -110 -23 -19 -3 -51 -12 -70 -18 -70 -22 -161
-40 -181 -35 -19 5 -21 11 -15 67 3 34 9 149 12 256 5 203 8 215 50 205 12 -2
52 -9 90 -15 38 -5 80 -12 94 -15 14 -3 66 -8 117 -11 50 -2 112 -8 137 -13
25 -4 96 -9 158 -9 62 0 124 -5 138 -10 13 -5 39 -6 57 -2 37 9 290 6 608 -7
347 -13 755 -7 1000 16 236 22 312 35 390 65 61 23 101 21 111 -6 4 -13 10
-122 13 -243 l6 -220 28 -13 c16 -8 31 -12 33 -9 3 3 7 63 9 133 3 71 7 148
10 170 5 39 -8 215 -22 292 -6 36 -30 53 -43 32 -4 -7 -16 -9 -28 -6 -13 5
-54 -10 -123 -44 -108 -53 -188 -78 -279 -86 -30 -2 -69 -7 -87 -10 -17 -2
-69 -7 -115 -10 -46 -3 -101 -6 -123 -8 -22 -2 -88 -7 -146 -11 l-107 -7 -15
53 c-8 30 -20 96 -26 148 -13 104 -27 139 -68 169 -26 19 -27 22 -15 54 25 69
8 97 -69 118 l-36 10 4 497 c7 890 6 2213 -1 2893 -9 802 -12 1658 -5 1664 2
2 33 7 69 10 36 3 79 7 95 10 17 3 52 7 78 10 l49 6 -7 -30 c-4 -17 -7 -77 -7
-134 0 -107 15 -160 48 -173 9 -3 14 -21 14 -54 0 -64 18 -75 85 -51 41 15 50
23 62 57 8 22 17 63 19 91 5 52 -3 70 -41 92 -11 5 -18 40 -24 122 -5 63 -7
118 -5 122 3 5 14 8 24 8 36 0 130 52 152 84 12 17 28 37 35 44 7 7 13 20 13
28 0 21 30 77 49 91 9 7 23 13 31 13 23 0 80 56 80 77 0 11 -5 24 -11 30 -17
17 10 93 37 104 36 13 59 55 46 84 -9 20 -6 30 19 68 23 35 37 46 65 50 20 4
45 14 55 23 10 9 42 18 71 21 29 2 84 15 121 29 79 28 87 29 87 11 0 -21 -40
-54 -93 -76 -48 -21 -67 -45 -50 -62 5 -5 51 -10 102 -10 89 -1 200 -25 226
-50 14 -14 -15 -37 -54 -44 -19 -3 -38 -8 -42 -11 -4 -2 -29 -7 -55 -9 -26 -3
-71 -16 -100 -30 -29 -14 -57 -25 -63 -25 -18 0 -32 -37 -18 -48 6 -5 71 -12
142 -14 120 -3 134 -5 185 -31 78 -41 88 -52 60 -67 -18 -10 -32 -8 -78 9 -99
36 -137 40 -200 24 -58 -15 -92 -36 -78 -50 4 -4 45 -10 91 -14 65 -5 91 -12
117 -30 18 -13 49 -32 68 -43 48 -25 76 -52 105 -102 29 -50 30 -54 10 -54 -8
0 -21 12 -29 28 -8 15 -28 40 -45 57 -29 27 -39 30 -104 31 -40 1 -92 -1 -117
-5 -40 -5 -45 -9 -48 -34 -3 -23 2 -30 31 -42 45 -19 71 -59 73 -116 2 -60 41
-177 69 -205 32 -32 85 -151 85 -190 0 -25 -29 -14 -45 16 -9 17 -19 30 -24
30 -4 0 -18 20 -31 45 -13 25 -29 50 -37 56 -7 6 -13 17 -13 23 0 7 -16 27
-35 46 -19 19 -35 38 -35 44 0 6 -14 25 -32 43 -67 69 -130 25 -88 -61 21 -42
54 -157 94 -331 55 -236 88 -334 139 -409 38 -55 33 -91 -7 -51 -8 8 -19 15
-24 15 -5 0 -13 11 -16 25 -3 13 -24 53 -47 89 -41 66 -88 184 -89 222 0 12
-7 27 -15 34 -11 9 -12 16 -3 30 15 24 -8 107 -34 121 -29 16 -48 3 -48 -30 0
-16 -6 -31 -12 -34 -10 -3 -10 -14 1 -53 7 -27 13 -59 12 -71 -2 -42 28 -208
48 -265 11 -32 40 -89 65 -128 25 -39 46 -74 46 -79 0 -5 7 -14 15 -21 9 -7
14 -19 11 -26 -3 -7 0 -11 7 -9 16 6 81 -88 149 -215 62 -117 77 -164 55 -173
-23 -9 -103 82 -111 125 -4 21 -13 41 -19 45 -7 5 -19 23 -27 42 -7 18 -36 68
-64 110 -28 41 -71 112 -96 156 l-46 80 -49 0 c-49 0 -50 -1 -53 -31 -2 -22 8
-50 32 -92 20 -33 36 -63 36 -66 0 -3 14 -27 30 -53 37 -59 93 -122 231 -261
138 -140 192 -224 234 -367 16 -56 19 -193 4 -178 -4 4 -19 28 -32 53 -14 25
-33 61 -43 80 -11 19 -22 37 -25 40 -4 3 -16 23 -27 45 -55 107 -84 163 -105
195 -32 52 -80 114 -95 123 -7 5 -33 40 -57 78 -51 79 -80 94 -123 62 -15 -11
-28 -30 -30 -41 -6 -37 49 -122 103 -162 55 -41 91 -77 83 -85 -2 -3 -18 1
-35 7 -45 17 -79 0 -87 -44 -14 -70 -6 -112 39 -205 69 -143 79 -176 76 -279
-1 -82 1 -97 29 -160 18 -38 41 -91 52 -119 12 -27 33 -75 46 -105 17 -36 27
-79 29 -125 3 -38 8 -82 13 -96 8 -27 -18 -159 -32 -159 -5 0 -8 35 -8 79 0
43 -6 96 -14 117 -8 22 -24 64 -35 94 -13 34 -21 78 -21 118 0 67 -12 102 -34
102 -17 0 -27 -65 -15 -97 5 -13 13 -58 20 -100 6 -43 13 -93 16 -111 5 -32
-2 -58 -38 -137 -10 -22 -20 -59 -23 -82 -3 -23 -14 -55 -24 -70 -15 -22 -21
-51 -25 -128 -4 -55 -13 -120 -22 -144 -8 -24 -15 -56 -15 -70 0 -43 -12 -101
-22 -107 -19 -12 -33 18 -45 99 -7 45 -17 113 -24 150 -12 63 -11 74 11 140
29 91 74 183 95 190 8 4 15 16 15 27 0 11 12 48 26 83 24 58 26 73 26 215 0
87 -5 158 -10 165 -6 7 -16 41 -22 77 -7 36 -21 91 -31 123 -11 31 -19 62 -19
68 0 6 -6 25 -14 42 -8 18 -29 75 -46 127 -18 52 -39 105 -46 118 -8 12 -12
22 -9 22 3 0 1 9 -5 20 -6 11 -15 43 -20 72 -6 29 -14 62 -19 73 -13 28 -29
118 -46 265 -16 135 -13 258 10 400 8 47 21 164 30 260 8 96 20 211 25 256 6
44 10 119 10 166 0 48 4 97 9 110 8 22 16 102 26 283 5 83 0 141 -35 395 -5
36 -12 85 -15 110 -11 82 -14 90 -31 83 -13 -5 -15 -15 -10 -52 9 -64 25 -189
37 -296 13 -116 13 -390 0 -480 -10 -73 -36 -324 -46 -455 -11 -143 -26 -265
-40 -335 -11 -55 -27 -208 -27 -270 -2 -132 52 -443 93 -540 36 -85 149 -424
165 -495 36 -162 45 -235 39 -339 -9 -164 -23 -216 -76 -296 -14 -22 -30 -51
-34 -65 -4 -14 -19 -50 -33 -80 -33 -70 -40 -159 -19 -242 9 -35 19 -89 22
-121 6 -49 12 -64 44 -97 71 -75 90 -51 121 160 6 41 16 91 21 111 5 20 9 60
9 88 0 38 7 64 24 94 14 23 28 61 32 83 11 73 35 88 36 22 1 -43 -10 -102 -29
-155 -16 -45 -12 -63 16 -63 25 0 45 25 76 95 64 145 80 270 53 407 l-11 58
40 43 c28 31 46 63 61 113 49 161 49 200 0 357 -17 53 -28 100 -25 104 10 9
37 -17 37 -37 0 -9 9 -27 20 -40 11 -13 20 -28 20 -35 0 -7 9 -20 20 -30 34
-31 42 -8 41 112 -1 130 -14 188 -74 314 -40 86 -44 98 -30 112 22 22 9 103
-28 169 -16 29 -43 82 -61 118 -17 36 -54 94 -83 130 -80 100 -152 222 -180
303 -14 40 -25 81 -25 90 0 39 19 20 59 -56 89 -173 130 -217 197 -217 37 0
44 13 33 55 -11 38 1 49 36 31 21 -11 33 -12 51 -4 44 20 32 44 -96 196 -11
13 -20 30 -20 38 0 18 23 7 91 -42 53 -38 89 -44 89 -15 0 10 -7 24 -15 31
-17 14 -105 145 -105 157 0 4 -9 19 -20 33 -11 14 -20 35 -20 48 0 21 3 22 35
16 31 -6 36 -4 45 22 6 16 8 46 4 68 -9 57 -67 190 -98 227 -23 27 -35 69 -20
69 3 0 22 -13 42 -29 47 -37 110 -70 142 -73 20 -2 26 2 28 23 2 20 -6 34 -35
59 -76 66 -142 172 -129 206 5 14 13 9 42 -25 29 -33 42 -41 69 -41 49 0 65 9
65 38 0 49 -41 112 -101 160 -33 25 -59 49 -59 54 0 4 24 8 53 8 67 0 103 18
99 50 -1 12 -10 29 -20 36 -43 33 -153 77 -211 85 -36 5 -67 11 -69 14 -8 8
10 25 28 25 70 0 191 52 205 88 9 24 -5 54 -23 49 -18 -4 -87 26 -96 42 -3 5
10 33 29 62 39 59 44 100 17 129 -17 19 -18 18 -45 -15 -36 -45 -50 -45 -41 0
4 24 2 35 -6 35 -8 0 -9 15 -5 49 8 66 -10 123 -47 151 -28 21 -31 21 -69 6
-34 -14 -40 -14 -45 -2 -3 8 -1 23 5 34 6 10 8 32 6 48 -14 85 -17 95 -28 91
-6 -2 -15 -20 -19 -40 -11 -54 -43 -111 -72 -130 -14 -10 -26 -28 -28 -44 -3
-25 -8 -29 -53 -36 -27 -4 -54 -12 -60 -16 -5 -5 -25 -12 -42 -16 -40 -8 -41
0 -8 63 14 26 25 54 25 64 0 19 36 48 61 48 23 0 28 -18 15 -52 -12 -32 -5
-42 24 -33 24 8 40 42 40 89 0 42 -16 59 -44 44 -11 -6 -36 -13 -55 -14 -18
-2 -41 -10 -51 -19 -9 -8 -22 -15 -28 -15 -7 0 -9 -7 -5 -17 5 -12 2 -15 -10
-10 -9 3 -17 2 -17 -2 0 -5 4 -11 10 -13 10 -3 -30 -98 -42 -98 -17 0 -18 51
-3 103 18 61 35 82 36 45 0 -23 0 -23 10 2 7 16 7 32 0 47 -14 31 -41 30 -41
-1 0 -14 -4 -27 -9 -30 -12 -8 -42 29 -36 45 2 8 1 19 -3 24 -8 11 -86 55 -97
55 -4 0 -5 -36 -1 -81 4 -55 3 -92 -6 -115 -13 -37 -33 -45 -43 -15 -10 32
-43 64 -60 57 -11 -4 -15 -21 -15 -69 0 -35 -4 -67 -8 -73 -5 -5 -21 -43 -37
-84 -34 -87 -53 -120 -69 -120 -6 1 -27 10 -46 20 -19 11 -50 26 -68 35 -35
17 -38 38 -6 43 37 7 74 53 74 92 0 20 7 45 15 56 26 34 18 69 -22 100 -20 16
-42 36 -50 44 -57 67 -62 70 -103 70 -44 0 -80 -14 -93 -36 -4 -8 -21 -14 -37
-14 -67 0 -92 -27 -104 -114 -3 -25 2 -56 14 -90 24 -63 25 -72 3 -80 -10 -3
-26 -11 -35 -18 -9 -7 -20 -9 -24 -5 -4 4 -6 51 -5 104 2 115 -14 191 -44 205
-11 5 -30 22 -40 39 -11 16 -28 32 -37 35 -10 3 -37 27 -60 54 -44 51 -70 64
-65 33 1 -10 -2 -19 -8 -20 -5 -2 -10 0 -10 5 0 13 -16 32 -26 32 -15 0 -69
-60 -85 -95 -8 -16 -18 -37 -23 -45 -47 -81 -61 -128 -63 -220 -2 -77 -6 -95
-18 -95 -10 0 -17 14 -20 46 -3 26 -11 54 -18 62 -7 8 -12 32 -11 54 4 67 -29
103 -93 103 -19 0 -39 5 -45 11 -17 17 -126 23 -152 9 -13 -6 -29 -28 -38 -48
-8 -20 -25 -48 -38 -62 -12 -14 -25 -42 -28 -63 -5 -35 -2 -43 28 -75 19 -19
35 -41 35 -47 0 -7 12 -25 27 -40 27 -26 27 -27 8 -42 -11 -8 -32 -17 -48 -20
-15 -3 -30 -10 -33 -14 -3 -5 -17 -9 -31 -9 -15 0 -50 -8 -80 -17 l-53 -17
-33 31 c-44 41 -103 66 -136 59 -52 -13 -54 -12 -63 28 -5 22 -13 45 -20 53
-21 26 -76 45 -107 38 -22 -5 -36 -2 -47 9 -25 26 -100 21 -129 -9 -37 -36
-32 -65 20 -114 25 -23 45 -46 45 -50 0 -17 -26 -29 -55 -25 -81 12 -100 11
-152 -6 -67 -22 -114 -66 -141 -130 -22 -53 -20 -65 10 -49 11 6 45 13 76 15
31 3 65 7 74 10 13 4 21 -4 32 -30 17 -42 26 -44 73 -15 36 23 47 22 37 -4 -5
-15 -76 -49 -92 -45 -16 4 -78 -16 -121 -39 -106 -58 -111 -63 -111 -97 0 -24
-7 -38 -30 -54 -16 -12 -32 -22 -35 -22 -14 0 -98 -71 -125 -105 -29 -36 -57
-135 -45 -155 9 -15 35 -12 41 4 11 28 94 69 94 46 0 -6 -11 -26 -24 -43 -25
-33 -76 -185 -76 -225 0 -35 27 -92 44 -92 22 0 46 29 46 55 0 15 10 31 26 41
26 18 66 87 78 137 10 41 37 31 56 -21 l16 -42 25 27 c50 55 60 107 34 170
-20 46 -6 129 28 176 13 18 29 51 36 74 11 41 55 88 72 77 5 -3 9 -25 9 -49 0
-39 3 -45 24 -51 14 -3 30 -3 36 1 8 5 11 0 8 -15 -5 -39 -31 -46 -67 -19 -26
19 -35 21 -49 11 -9 -7 -24 -15 -34 -18 -23 -8 -38 -75 -24 -103 37 -68 100
-64 147 10 41 62 54 63 43 2 -10 -60 -11 -119 -2 -160 7 -33 7 -33 -33 -33
-80 0 -151 -62 -174 -153 -9 -36 -14 -41 -68 -59 -69 -24 -117 -69 -153 -145
-32 -67 -29 -99 9 -96 15 1 27 -2 27 -6 0 -4 -20 -26 -45 -51 -33 -33 -47 -55
-55 -92 -15 -73 -13 -143 6 -159 39 -32 152 82 175 176 19 84 40 134 66 165
14 17 28 30 33 30 4 0 10 -27 13 -61 7 -83 37 -114 91 -93 8 3 18 22 22 42 7
35 40 102 52 102 3 0 23 -8 44 -17 41 -18 49 -42 21 -64 -25 -21 -53 -89 -53
-130 0 -64 38 -73 82 -20 23 28 38 27 38 -2 0 -43 -32 -90 -124 -184 -106
-108 -115 -124 -116 -182 0 -48 27 -121 45 -121 16 0 41 30 50 58 7 23 101
122 116 122 5 0 14 -10 20 -22 6 -13 22 -32 35 -43 22 -19 23 -24 16 -90 -6
-61 -10 -70 -28 -73 -12 -2 -32 -14 -45 -28 -12 -13 -30 -24 -39 -24 -9 0 -27
-14 -39 -31 -19 -26 -22 -40 -19 -80 3 -33 1 -50 -7 -53 -54 -20 -104 -170
-78 -233 7 -18 18 -33 23 -33 31 0 170 174 170 213 0 18 28 42 37 33 4 -4 2
-16 -5 -26 -7 -11 -12 -31 -12 -44 0 -14 -9 -49 -19 -78 -23 -64 -35 -110 -32
-122 1 -5 -7 -28 -19 -52 -11 -24 -20 -58 -20 -76 0 -36 -19 -79 -36 -85 -5
-2 -19 14 -30 34 -15 28 -27 39 -48 41 -16 2 -32 0 -35 -5 -3 -5 -18 -16 -33
-26 -23 -14 -28 -25 -28 -56 0 -42 34 -91 63 -91 28 0 30 -25 8 -85 -27 -72
-49 -180 -43 -211 2 -14 14 -30 25 -36 18 -9 26 -5 59 31 21 22 44 41 49 41 8
0 10 -24 7 -71 -4 -83 -20 -101 -80 -97 -48 3 -88 -33 -70 -63 7 -11 8 -20 2
-24 -16 -10 -12 -42 6 -49 27 -10 45 -7 76 16 30 21 31 21 44 3 8 -10 14 -33
14 -49 0 -17 24 -78 53 -136 49 -98 54 -105 82 -105 40 0 55 32 55 121 0 56
-4 77 -20 97 -11 14 -20 28 -20 32 0 4 -8 19 -19 33 -10 15 -21 41 -24 58 -5
29 -2 35 33 59 42 29 59 64 54 110 -2 17 1 37 7 45 10 16 16 10 53 -44 9 -14
19 -17 39 -12 27 6 27 7 27 92 0 91 -24 184 -61 236 -13 17 -18 36 -14 48 3
11 -1 30 -10 44 -25 38 -74 200 -64 210 13 14 44 -19 73 -77 27 -57 38 -103
37 -159 -1 -40 7 -46 27 -26 18 18 15 72 -9 151 -16 53 -31 81 -65 117 -59 63
-65 90 -47 212 7 41 17 66 36 86 21 22 27 38 27 74 0 28 -6 50 -15 58 -8 7
-11 17 -7 24 4 6 8 56 9 111 2 138 2 135 20 183 15 40 15 44 -3 77 -14 27 -16
39 -8 52 19 31 34 25 54 -21 l20 -47 -22 -57 c-34 -90 -17 -175 35 -169 20 2
22 -2 20 -47 -1 -43 -41 -161 -64 -192 -5 -5 -15 -35 -23 -66 -16 -61 -10
-110 18 -153 27 -41 68 -28 65 21 -3 45 12 115 32 154 11 19 19 40 19 47 0 7
9 13 20 13 15 0 22 -10 31 -44 6 -24 23 -59 38 -76 25 -30 29 -32 49 -19 26
16 30 30 36 119 3 40 -1 77 -9 95 -7 17 -18 49 -24 72 -7 24 -26 57 -45 75
-19 18 -46 60 -61 93 -15 33 -38 70 -51 82 -13 12 -24 33 -24 47 0 44 -37 114
-69 130 -30 16 -44 47 -54 118 -6 37 5 59 18 38 12 -19 25 -10 41 28 23 55 15
186 -15 235 -12 20 -18 37 -12 37 7 0 15 -8 18 -17 4 -10 26 -42 50 -71 24
-30 43 -57 44 -60 0 -4 2 -63 4 -131 2 -68 9 -144 16 -168 14 -50 91 -143 118
-143 43 0 66 67 45 132 -3 11 -7 30 -9 41 -5 37 -39 119 -73 179 -41 73 -41
93 -1 107 43 15 38 59 -9 83 -37 18 -61 45 -62 68 -1 43 -133 135 -177 124
-29 -8 -38 13 -17 37 20 22 46 24 75 7 17 -11 22 -10 35 6 8 11 14 40 15 65 0
25 2 62 5 81 2 19 1 44 -4 55 -5 11 -15 37 -22 58 -11 35 -10 41 9 61 43 46
21 91 -69 139 -48 25 -62 52 -33 61 21 7 53 55 53 80 0 21 13 20 32 -1 32 -37
40 -63 29 -95 -10 -27 -8 -35 10 -54 12 -13 38 -29 58 -35 45 -14 54 -22 55
-52 4 -67 80 -155 147 -171 15 -3 37 -14 49 -24 21 -17 23 -26 21 -113 -2 -79
-6 -101 -26 -134 -32 -56 -41 -109 -23 -138 8 -12 18 -38 22 -58 7 -41 32 -95
47 -105 6 -3 14 -17 19 -30 10 -26 34 -32 47 -11 30 47 51 204 33 257 -10 31
-9 47 3 91 9 30 19 85 22 122 6 56 10 67 24 63 59 -19 141 -32 151 -26 6 4 35
2 63 -4 l52 -12 -3 -344 c-5 -554 -11 -1053 -17 -1375 -2 -165 -7 -473 -11
-685 -8 -515 -11 -646 -18 -970 -11 -443 -15 -607 -21 -935 -3 -170 -10 -374
-15 -452 -6 -78 -10 -176 -10 -217 0 -63 -4 -80 -20 -96 -11 -11 -24 -20 -30
-20 -5 0 -17 -11 -26 -25 -15 -24 -15 -49 0 -86 4 -9 -3 -26 -18 -44 -33 -38
-42 -64 -56 -152 -7 -40 -16 -75 -21 -79 -5 -3 -9 -16 -9 -29 0 -13 -4 -26 -9
-29 -4 -3 -11 -19 -14 -35 -5 -22 -13 -31 -37 -36 -16 -4 -34 -14 -40 -23 -9
-16 -9 -16 -10 1 0 14 -10 17 -57 19 -32 0 -65 0 -73 -1 -8 -1 -19 -2 -25 -3
-17 -1 -248 31 -295 42 -105 22 -259 53 -305 61 -27 5 -66 11 -85 15 -28 4
-39 1 -55 -16 -18 -19 -19 -39 -20 -268 -1 -136 -5 -264 -9 -284 -10 -48 -2
-80 24 -96 17 -10 38 -9 123 8 56 12 116 25 132 30 17 6 50 12 75 16 25 3 52
8 60 11 8 3 62 11 120 18 58 8 124 17 147 21 66 10 56 -17 -15 -39 -31 -10
-73 -31 -92 -48 -106 -91 -205 -183 -282 -262 -58 -60 -92 -88 -102 -84 -8 3
-20 24 -26 46 -6 23 -15 41 -21 41 -5 0 -15 13 -20 29 -15 42 -105 99 -183
116 -24 5 -27 9 -21 28 5 12 10 50 12 84 6 75 -24 167 -68 209 -31 30 -37 58
-16 71 31 18 52 70 63 156 15 105 6 175 -32 247 -27 52 -97 130 -133 150 -37
19 -135 40 -159 33 -30 -7 -28 6 13 87 22 44 40 100 50 155 8 48 17 90 20 95
10 17 -15 238 -34 298 -30 94 -96 213 -146 266 -25 25 -45 51 -45 57 0 7 16 8
45 3 34 -5 50 -3 63 9 9 8 32 22 50 31 26 13 42 35 69 92 32 67 35 81 30 132
-5 66 -57 199 -94 243 -17 20 -34 29 -54 29 -17 0 -32 6 -35 15 -6 15 -86 55
-110 55 -18 0 -18 0 11 67 29 64 32 102 22 268 -11 181 -24 226 -88 305 -16
19 -29 40 -29 46 0 7 -25 35 -57 63 -51 46 -57 49 -69 33 -12 -15 -8 -23 34
-62 57 -54 89 -96 128 -170 23 -45 29 -69 30 -128 1 -40 7 -108 14 -150 13
-83 4 -157 -19 -157 -9 0 -14 20 -16 62 -4 66 -18 103 -39 103 -20 0 -23 -17
-17 -90 10 -107 -14 -181 -65 -200 -27 -11 -32 -35 -8 -44 19 -7 54 1 54 13 0
10 55 71 65 71 4 0 0 -11 -9 -25 -10 -14 -27 -45 -40 -69 -38 -71 -70 -105
-149 -156 -91 -61 -148 -74 -272 -66 -159 11 -254 63 -305 166 -19 37 -22 54
-17 110 5 46 11 68 24 75 9 6 26 20 37 33 67 73 78 81 121 88 103 15 170 -25
181 -107 7 -54 13 -62 34 -49 12 7 12 20 3 75 -6 37 -19 75 -29 86 -19 21 -70
49 -89 49 -7 0 -19 7 -26 16 -19 23 -66 12 -146 -34 -82 -48 -94 -61 -120
-133 -27 -73 -27 -211 0 -253 31 -46 14 -51 -36 -8 -69 60 -195 102 -307 102
-47 0 -88 -10 -147 -36 -17 -8 -36 -14 -41 -14 -17 0 -126 -111 -156 -158 -14
-23 -32 -42 -40 -42 -18 0 -25 97 -28 377 l-1 223 24 27 c34 39 57 55 112 79
66 28 166 25 223 -7 49 -28 114 -89 114 -107 0 -7 7 -27 16 -44 28 -54 22
-109 -19 -171 -21 -31 -37 -63 -37 -71 0 -30 30 -16 47 22 10 20 30 52 45 70
16 18 28 40 28 50 -1 41 -29 144 -44 161 -9 10 -16 23 -16 30 0 6 -21 34 -46
61 -44 47 -46 51 -39 91 12 72 44 128 115 202 84 88 226 169 342 193 111 24
239 21 320 -5 38 -13 70 -27 74 -32 3 -5 13 -9 23 -9 9 0 32 -11 51 -25 31
-23 34 -23 46 -7 17 22 -4 41 -107 93 l-77 38 -153 3 c-139 3 -161 1 -229 -21
-41 -13 -82 -27 -90 -32 -8 -4 -43 -22 -77 -40 -60 -31 -119 -83 -181 -159
-38 -45 -56 -82 -76 -152 -20 -67 -36 -84 -65 -69 -11 6 -52 11 -92 11 -70 0
-130 -20 -191 -62 -12 -9 -21 -9 -28 -2 -11 11 -19 690 -19 1613 0 406 -3 536
-12 541 -6 5 -11 21 -10 36 6 148 5 408 -2 442 -6 27 -6 69 2 120 6 47 13 349
16 772 7 902 14 1391 21 1412 3 9 19 22 37 29 18 7 36 15 41 17 5 3 6 0 2 -7
-5 -7 2 -11 18 -11 17 0 26 6 26 16 0 8 5 12 10 9 6 -3 10 -1 10 4 0 6 5 11
10 11 6 0 10 -3 10 -7z m3541 -514 c-1 -96 -3 -196 -4 -223 l-2 -48 -58 5
c-67 6 -69 7 -69 39 -2 154 5 232 25 267 47 83 89 142 100 138 8 -2 10 -55 8
-178z m116 119 c109 -100 110 -102 104 -213 -1 -28 2 -63 8 -78 13 -34 4 -85
-18 -91 -9 -3 -44 -8 -79 -11 -46 -4 -63 -2 -66 7 -10 32 -15 428 -6 428 6 0
31 -19 57 -42z m946 -51 c-5 -8 -8 -7 -11 1 -2 7 -9 9 -14 6 -7 -4 -8 -2 -4 4
4 6 13 9 21 6 8 -4 12 -11 8 -17z m-457 -27 c8 -23 19 -37 34 -40 30 -7 63
-51 55 -73 -4 -9 -16 -19 -27 -23 -18 -5 -20 -12 -14 -51 5 -40 3 -49 -17 -67
-19 -17 -30 -20 -53 -14 -67 18 -66 -50 1 -78 19 -7 36 -18 40 -23 18 -30 169
-84 263 -95 155 -19 173 -19 227 0 30 10 57 15 60 12 3 -3 -10 -29 -30 -59
-19 -29 -35 -66 -35 -81 0 -35 -11 -35 -67 -3 -23 14 -43 21 -43 15 0 -5 -4
-10 -10 -10 -5 0 -10 7 -10 15 0 16 -2 16 -158 51 -551 123 -805 137 -1263 74
-81 -12 -162 -25 -180 -31 -19 -5 -63 -16 -99 -24 -101 -22 -153 -35 -165 -43
-5 -5 -28 -14 -50 -21 -22 -8 -52 -22 -67 -33 -27 -18 -27 -18 -38 3 -7 11 -9
31 -6 42 4 17 -6 33 -44 68 -28 26 -50 52 -50 58 0 6 -10 11 -22 11 -30 0 -52
15 -44 29 4 6 18 11 32 11 13 0 24 6 24 13 0 16 -70 57 -98 57 -21 0 -52 34
-52 57 0 7 12 16 26 19 19 5 32 0 54 -21 l28 -27 37 18 c37 17 38 17 56 -5 13
-15 17 -31 13 -48 -5 -18 -1 -28 14 -39 16 -11 20 -22 16 -42 -8 -42 20 -61
92 -64 61 -2 194 15 248 31 17 6 65 15 106 22 67 11 150 49 150 68 0 3 3 16 6
28 5 19 2 22 -33 25 -39 3 -39 2 -30 54 1 10 -10 20 -33 27 -29 10 -36 17 -38
44 -2 24 4 39 27 64 17 18 31 42 31 55 0 27 34 54 68 54 15 0 29 -10 40 -30
18 -32 46 -40 56 -15 7 19 40 20 55 1 6 -7 11 -33 10 -57 -1 -25 5 -58 14 -76
14 -26 15 -37 5 -58 -10 -23 -8 -28 19 -53 49 -43 117 -56 298 -56 88 0 180 4
205 8 25 5 54 8 65 7 11 0 29 3 40 8 11 5 32 12 47 15 44 10 51 37 22 79 -13
20 -27 50 -30 66 -5 26 -2 32 20 42 20 9 23 15 15 26 -6 7 -18 13 -25 13 -18
0 -18 20 2 48 10 14 25 22 44 22 16 0 44 9 62 20 19 12 46 19 63 18 24 -2 32
-9 41 -38z m476 -52 c4 -19 3 -92 -1 -134 0 -6 -12 -28 -26 -48 -37 -54 -14
-74 49 -41 53 28 64 -14 16 -60 -21 -20 -30 -38 -30 -61 0 -17 -6 -34 -12 -37
-11 -4 -59 -2 -173 6 -45 4 -44 31 4 75 22 20 56 69 76 107 42 81 86 201 77
209 -3 3 -1 6 5 6 6 0 13 -10 15 -22z m410 -43 c-4 -36 -19 -44 -39 -24 -9 9
-8 18 4 35 23 36 40 30 35 -11z m-552 -98 c0 -38 -52 -123 -58 -94 -2 9 4 39
13 65 10 26 19 53 21 60 7 24 24 2 24 -31z m630 19 c0 -14 -23 -43 -102 -130
-33 -38 -103 -72 -113 -56 -5 8 51 79 77 98 11 8 18 26 18 46 0 43 10 50 70
54 38 2 50 0 50 -12z m86 -89 c-6 -31 -12 -36 -71 -59 -35 -14 -66 -23 -69
-20 -8 7 24 42 39 42 20 0 66 41 76 68 14 37 33 13 25 -31z m-291 33 c4 -6 -5
-24 -18 -40 -14 -16 -27 -34 -29 -39 -1 -6 -19 -13 -38 -16 -35 -6 -63 -31
-56 -50 2 -5 10 -8 17 -6 8 2 22 6 32 9 15 4 18 0 15 -19 -2 -20 -9 -24 -38
-26 -19 -1 -44 -5 -56 -8 -13 -4 -25 0 -34 10 -18 21 2 65 30 65 17 0 20 7 20
44 0 49 8 56 57 48 24 -3 34 0 45 17 14 22 42 28 53 11z m-2277 -157 c31 -24
33 -27 16 -33 -27 -10 -85 0 -91 16 -6 16 13 44 30 44 5 0 26 -12 45 -27z
m2672 -15 c0 -7 -19 -32 -41 -55 -28 -30 -49 -43 -68 -43 -15 0 -31 3 -34 6
-11 11 13 44 31 44 9 1 35 14 57 30 45 32 55 35 55 18z m-3095 -32 c18 -13 17
-14 -12 -29 -17 -9 -45 -29 -64 -44 -26 -22 -43 -28 -86 -29 -45 -1 -53 1 -53
17 0 59 162 124 215 85z m132 -21 c3 -9 3 -18 0 -21 -9 -9 -48 16 -42 27 9 14
35 11 42 -6z m1488 -4 c50 -7 106 -16 125 -21 19 -5 78 -14 130 -20 103 -13
230 -46 230 -61 0 -5 9 -9 21 -9 11 0 39 -9 62 -19 23 -10 60 -26 81 -35 55
-23 106 -64 106 -85 0 -14 -9 -17 -47 -17 -47 1 -49 0 -70 -42 -23 -47 -21
-77 9 -93 15 -8 17 -13 7 -25 -17 -21 -33 -17 -66 14 -26 23 -53 38 -158 83
-11 5 -67 16 -125 24 -58 8 -134 19 -170 25 -121 19 -473 22 -675 7 -104 -8
-201 -20 -215 -25 -14 -6 -52 -16 -85 -22 -80 -16 -131 -36 -183 -71 -50 -34
-59 -35 -84 -12 -22 20 -23 32 -2 48 29 21 25 62 -8 90 -49 41 -60 32 -32 -24
20 -39 6 -81 -25 -81 -30 0 -43 31 -30 69 9 25 8 36 -3 49 -32 39 -42 71 -30
97 7 14 20 25 31 25 11 0 54 11 94 24 174 57 433 100 666 111 57 3 105 6 107
7 7 8 262 0 339 -11z m-1553 -56 c3 -10 -69 -55 -89 -55 -22 0 -14 38 12 58
26 20 71 19 77 -3z m108 -25 c0 -11 -71 -79 -82 -80 -19 0 -5 26 30 56 39 35
52 41 52 24z m47 -32 c-3 -8 -6 -5 -6 6 -1 11 2 17 5 13 3 -3 4 -12 1 -19z
m23 -65 c0 -15 -36 -18 -45 -3 -3 5 -1 19 6 32 11 21 12 21 25 3 8 -10 14 -25
14 -32z m-109 -45 c1 -7 0 -23 0 -34 -1 -12 5 -39 14 -59 8 -21 14 -39 13 -40
-2 0 -15 -9 -30 -18 -16 -10 -28 -14 -29 -10 0 5 -2 22 -5 38 -5 35 15 135 28
135 4 0 8 -6 9 -12z m-143 -10 c-2 -7 -19 -21 -37 -30 -19 -9 -45 -28 -60 -41
-22 -21 -35 -24 -86 -23 -33 1 -60 4 -60 8 0 7 37 35 75 58 24 14 116 37 153
39 11 1 17 -4 15 -11z m71 -50 c-10 -29 -19 -54 -19 -56 0 -2 -4 0 -10 3 -17
11 -11 61 11 89 31 39 40 22 18 -36z m187 51 c10 -17 -13 -36 -27 -22 -12 12
-4 33 11 33 5 0 12 -5 16 -11z m1304 -84 c4 -2 7 -192 8 -422 0 -230 3 -544 6
-698 14 -719 21 -2837 11 -3340 -3 -115 -6 -397 -7 -625 -1 -277 -5 -417 -12
-422 -19 -14 -27 -9 -42 28 -14 32 -59 97 -115 163 -20 24 -20 30 -13 927 5
650 4 904 -4 904 -6 0 -10 9 -9 20 1 11 5 20 9 20 9 0 4 77 -5 87 -4 3 -3 11
1 17 4 6 7 616 8 1356 1 1724 2 1958 16 1983 9 18 17 19 76 13 36 -4 68 -9 72
-11z m808 3 c16 -16 15 -53 -2 -67 -10 -9 -19 -7 -37 8 -22 18 -22 19 -6 45
19 29 27 32 45 14z m-1220 -47 l3 -44 -73 6 c-75 6 -153 31 -143 46 3 5 38 15
78 21 39 6 79 13 87 15 37 7 45 0 48 -44z m200 -448 c0 -274 2 -1138 3 -1920
3 -1173 1 -1426 -10 -1447 -11 -19 -11 -34 -3 -68 9 -35 8 -46 -4 -59 -13 -14
-13 -20 3 -47 17 -29 17 -31 0 -50 -22 -24 -22 -48 0 -60 19 -11 11 -42 -12
-42 -9 0 -15 -9 -15 -25 0 -18 5 -25 20 -25 11 0 20 -4 20 -9 0 -5 -9 -13 -20
-16 -23 -7 -27 -33 -6 -41 8 -3 17 -22 21 -42 5 -28 3 -39 -11 -49 -17 -13
-17 -14 0 -44 16 -28 16 -32 2 -54 -18 -27 -21 -55 -7 -55 10 0 7 -112 -3
-128 -3 -5 1 -18 9 -28 20 -27 18 -44 -5 -44 -24 0 -28 -35 -5 -44 22 -8 18
-33 -5 -39 -26 -7 -25 -21 1 -46 30 -28 23 -83 -11 -91 -36 -8 -34 -44 3 -48
21 -3 27 -9 27 -28 0 -13 -6 -24 -12 -25 -7 -1 -22 -2 -33 -3 -36 -2 -29 -33
10 -46 47 -16 45 -44 -4 -47 -59 -3 -69 -43 -11 -43 28 0 48 -15 36 -27 -3 -3
-27 -6 -53 -7 -42 -1 -48 -4 -45 -21 2 -11 8 -21 13 -23 21 -8 7 -22 -21 -22
-27 0 -30 -3 -30 -30 0 -18 -6 -33 -16 -37 -11 -4 -13 -13 -9 -34 6 -25 4 -29
-15 -29 -11 0 -23 -8 -26 -17 -15 -46 -17 -47 -23 -18 -4 17 -4 102 0 190 11
226 17 428 24 740 3 149 7 340 10 425 5 155 11 658 21 1530 9 874 21 1623 30
1870 2 63 6 246 9 405 4 160 8 296 10 303 3 8 27 12 73 12 l69 0 1 -497z m452
477 c52 -7 105 -16 118 -21 29 -11 24 -33 -9 -37 -13 -2 -29 -10 -36 -18 -6
-9 -20 -15 -30 -13 -29 3 -103 -13 -98 -22 3 -4 -8 -4 -25 1 -17 5 -46 6 -65
3 l-35 -6 0 55 c0 63 13 81 55 74 17 -3 73 -10 125 -16z m-916 -55 c20 -26 42
-39 93 -55 36 -11 83 -23 105 -26 21 -4 41 -11 44 -16 11 -18 -109 1 -181 27
-38 15 -83 30 -99 33 -53 13 -63 65 -13 70 18 1 32 -8 51 -33z m-656 -8 c17
-18 19 -26 10 -35 -16 -16 -23 -15 -42 4 -19 19 -21 54 -3 54 8 0 23 -10 35
-23z m1823 13 c22 -13 25 -56 5 -85 -30 -45 -50 -166 -48 -302 2 -108 0 -133
-12 -133 -30 0 -34 25 -31 195 7 312 20 360 86 325z m-2242 -16 c11 -10 -11
-31 -45 -42 -93 -32 -133 -62 -149 -111 -6 -20 -71 -59 -81 -49 -13 14 7 54
50 98 55 57 63 63 122 93 43 22 84 27 103 11z m953 -41 c19 -43 52 -238 43
-252 -1 -3 -6 -50 -9 -103 -7 -108 -11 -124 -33 -133 -29 -11 -35 10 -22 71
25 115 8 396 -25 433 -21 23 -20 31 5 31 14 0 26 -13 41 -47z m-432 -20 c0
-26 -9 -24 -48 10 -15 14 -19 23 -11 28 21 13 59 -12 59 -38z m340 -5 c23 -50
27 -138 7 -138 -41 0 -93 75 -82 119 7 28 32 61 47 61 5 0 18 -19 28 -42z
m-510 12 c11 -11 30 -20 43 -20 17 0 32 -13 55 -48 39 -61 50 -90 67 -174 13
-68 8 -95 -17 -85 -18 6 -48 108 -48 160 0 54 -42 92 -76 69 -18 -11 -54 -75
-54 -95 0 -10 -4 -15 -10 -12 -18 11 -7 225 11 225 5 0 18 -9 29 -20z m2015
-9 c24 -26 27 -35 22 -72 -4 -31 -14 -49 -39 -71 -18 -15 -38 -28 -45 -28 -6
0 -18 -3 -27 -6 -23 -9 -20 14 9 98 14 39 25 80 25 90 0 27 22 22 55 -11z
m-270 -7 c-11 -8 -31 -17 -45 -20 -14 -3 -45 -12 -70 -19 -25 -8 -70 -15 -100
-17 -49 -3 -55 -1 -58 17 -2 18 3 20 45 20 63 1 181 20 192 31 2 2 16 4 30 4
25 -1 26 -1 6 -16z m-1940 -24 c0 -33 -40 -41 -50 -11 -9 28 2 43 28 39 16 -2
22 -10 22 -28z m939 11 c8 -12 191 -70 191 -60 0 1 10 -3 23 -10 19 -10 22
-20 22 -76 0 -35 -5 -67 -10 -70 -6 -4 -34 -2 -63 4 -76 16 -205 41 -210 41
-3 0 -7 33 -9 73 -3 39 -9 80 -13 90 -6 14 -2 17 28 17 20 0 38 -4 41 -9z
m999 -58 c3 -5 8 -42 12 -84 l7 -76 -78 -8 c-44 -4 -110 -8 -149 -9 l-70 -1
-3 39 c-7 84 11 100 135 117 41 6 85 14 96 19 28 11 45 12 50 3z m1152 -121
c15 -49 62 -128 102 -170 20 -21 15 -34 -9 -26 -41 12 -112 97 -133 157 -16
48 -17 60 -5 81 18 34 26 26 45 -42z m-2840 7 c7 -52 4 -66 -14 -54 -13 8 -15
105 -2 105 5 0 12 -23 16 -51z m-427 -1 c5 -18 5 -37 1 -42 -12 -13 -16 -7
-24 37 -9 47 11 51 23 5z m-137 -30 c7 -77 -10 -136 -50 -172 -29 -27 -36 -15
-22 41 24 93 68 173 72 131z m494 -46 c0 -20 -19 -18 -23 2 -3 12 1 17 10 14
7 -3 13 -10 13 -16z m-110 -32 c8 -14 -23 -70 -39 -70 -8 0 -28 -16 -46 -36
-19 -22 -35 -33 -41 -27 -11 11 43 128 63 136 22 9 56 8 63 -3z m169 -12 c20
-28 20 -48 3 -48 -21 0 -50 37 -44 55 9 21 23 19 41 -7z m-89 -18 c3 -10 19
-30 34 -43 16 -13 32 -35 35 -48 5 -16 4 -20 -2 -11 -5 8 -20 13 -33 12 -13
-1 -29 -2 -35 -1 -14 1 -34 45 -34 75 0 38 24 50 35 16z m13 -187 c3 -28 1
-29 -32 -29 -33 1 -36 3 -36 31 0 17 -3 41 -7 54 l-6 23 39 -24 c29 -19 40
-33 42 -55z m2782 -10 c0 -12 18 -41 40 -64 22 -24 40 -49 40 -56 0 -8 11 -30
24 -51 14 -20 29 -56 36 -79 6 -23 33 -76 61 -118 70 -104 58 -113 -38 -25
-63 58 -110 126 -118 173 -4 21 -15 42 -25 47 -10 5 -25 31 -34 57 -17 54 -46
178 -46 196 1 21 59 -57 60 -80z m-2579 52 c45 -29 80 -88 62 -106 -15 -15
-31 -4 -47 36 -8 18 -28 41 -45 51 -32 19 -36 26 -24 37 9 10 9 10 54 -18z
m1705 -14 c25 -10 33 -20 41 -56 11 -50 -3 -115 -24 -115 -7 0 -13 4 -13 9 0
6 -18 31 -40 56 -22 25 -40 53 -40 61 0 18 30 66 39 61 3 -2 20 -9 37 -16z
m-2162 -17 c9 -22 -11 -44 -39 -44 -19 0 -72 -20 -127 -48 -17 -8 -6 25 17 52
41 51 135 76 149 40z m890 -15 c21 -25 26 -41 26 -88 0 -68 -19 -103 -44 -82
-9 7 -16 20 -16 29 0 8 -12 40 -26 70 -30 64 -27 102 10 102 15 0 34 -12 50
-31z m-777 -71 c-14 -35 -29 -76 -33 -91 -3 -15 -11 -26 -18 -24 -18 7 -11
110 10 148 33 60 35 62 52 45 14 -13 13 -22 -11 -78z m215 80 c24 -19 72 -115
86 -174 24 -94 3 -172 -32 -122 -9 12 -16 29 -16 38 0 8 -15 56 -34 105 -54
147 -56 193 -4 153z m-92 -110 c0 -4 -7 -8 -15 -8 -10 0 -15 10 -15 28 1 26 1
26 15 8 8 -11 15 -23 15 -28z m-388 -30 c-6 -6 -15 -8 -19 -4 -4 4 -1 11 7 16
19 12 27 3 12 -12z m458 -72 c0 -2 2 -11 6 -19 3 -8 -6 -21 -21 -31 -21 -14
-29 -15 -41 -5 -13 10 -12 15 7 36 19 20 49 32 49 19z m-476 -68 c-3 -24 -10
-59 -16 -78 -10 -35 -44 -80 -60 -80 -21 0 7 126 40 178 25 38 43 28 36 -20z
m403 -40 c-3 -8 -6 -5 -6 6 -1 11 2 17 5 13 3 -3 4 -12 1 -19z m381 -20 c23
-51 67 -226 58 -235 -10 -11 -46 29 -68 76 -23 51 -38 201 -20 201 5 0 19 -19
30 -42z m-266 -30 c-28 -28 -40 -16 -17 18 12 19 20 23 28 15 8 -8 5 -17 -11
-33z m-12 -68 c0 -5 -2 -10 -4 -10 -3 0 -8 5 -11 10 -3 6 -1 10 4 10 6 0 11
-4 11 -10z m2882 -147 c49 -53 67 -104 29 -84 -33 18 -122 131 -133 169 -12
43 3 45 30 5 14 -21 47 -61 74 -90z m-2908 99 c-1 -7 -2 -25 -2 -41 -3 -40
-48 -94 -73 -86 -16 5 -19 1 -19 -24 0 -22 -7 -34 -29 -47 -16 -10 -35 -28
-42 -41 -14 -27 -37 -30 -46 -7 -10 27 25 83 110 175 75 81 104 101 101 71z
m51 -136 c13 -20 14 -29 5 -46 -15 -28 -41 -22 -53 13 -18 54 18 79 48 33z
m-2663 -160 c-5 -19 -6 -19 -15 1 -5 12 -6 30 -2 40 7 17 8 17 15 -2 4 -11 5
-29 2 -39z m5193 -26 c3 -10 35 -62 70 -115 133 -201 130 -241 -6 -55 -34 47
-99 164 -99 178 0 20 28 13 35 -8z m-2226 -151 c30 -78 37 -130 25 -176 -8
-29 -30 -29 -45 -1 -12 22 -27 114 -35 206 -7 81 18 68 55 -29z m-115 -23 c5
-27 -2 -50 -38 -124 -48 -96 -62 -113 -72 -87 -8 19 11 82 42 145 13 25 28 57
33 73 14 36 27 34 35 -7z m-254 0 c0 -13 -14 -37 -32 -55 -36 -36 -41 -37 -58
-16 -11 14 -7 22 25 55 45 46 65 51 65 16z m68 -72 c3 -32 -19 -61 -38 -49
-11 7 -14 68 -3 79 16 16 38 -1 41 -30z m-134 -69 c6 -17 -44 -133 -81 -188
-21 -30 -28 -35 -35 -23 -9 16 5 95 24 130 16 30 70 96 79 96 4 0 9 -7 13 -15z
m2871 -5 c3 -5 2 -10 -4 -10 -5 0 -13 5 -16 10 -3 6 -2 10 4 10 5 0 13 -4 16
-10z m-133 -102 c83 -88 188 -240 188 -273 0 -15 -22 10 -41 48 -12 22 -28 48
-37 56 -8 8 -27 36 -43 61 -16 25 -51 61 -78 80 -55 39 -89 90 -60 90 6 0 38
-28 71 -62z m-2688 -249 c-3 -5 -10 -7 -15 -3 -5 3 -7 10 -3 15 3 5 10 7 15 3
5 -3 7 -10 3 -15z m2733 -36 c58 -94 72 -123 82 -179 6 -32 9 -59 7 -61 -11
-11 -136 237 -136 270 0 29 15 19 47 -30z m181 -168 c56 -108 92 -224 99 -315
5 -65 3 -80 -16 -110 -11 -19 -21 -47 -21 -62 0 -16 -4 -28 -8 -28 -4 0 -7 42
-6 92 2 71 -2 102 -16 133 -23 53 -50 139 -50 163 0 10 -13 58 -30 107 -16 49
-30 102 -30 118 l0 30 18 -24 c11 -13 38 -60 60 -104z m-2899 55 c23 -60 27
-110 10 -110 -7 0 -23 12 -36 26 -21 22 -23 32 -18 73 7 52 14 76 19 70 2 -2
14 -29 25 -59z m2942 -12 c5 -10 6 -18 1 -18 -8 0 -30 36 -40 65 -4 13 27 -25
39 -47z m-3153 30 c18 -18 15 -65 -5 -72 -21 -8 -43 18 -43 49 0 35 24 47 48
23z m69 -168 c7 -56 -23 -158 -58 -200 -34 -41 -50 -30 -39 28 10 51 59 194
72 210 15 17 20 10 25 -38z m118 -39 c3 -20 10 -60 15 -90 6 -30 10 -87 10
-127 0 -106 -13 -129 -46 -79 -22 33 -38 307 -21 350 8 20 9 20 23 1 7 -11 16
-36 19 -55z m137 -11 c18 -58 24 -160 10 -160 -32 0 -77 133 -65 192 9 46 35
31 55 -32z m2683 -84 c19 -65 24 -197 9 -203 -15 -5 -34 50 -27 77 4 13 0 25
-8 31 -10 6 -14 33 -14 101 0 82 2 91 13 70 7 -14 19 -48 27 -76z m85 -85 c13
-25 13 -92 0 -127 -6 -15 -12 -25 -15 -23 -2 3 -6 41 -10 87 -5 82 3 103 25
63z m-3090 -222 c7 -11 9 -27 6 -35 -8 -21 -50 -14 -54 9 -9 45 28 65 48 26z
m125 -21 c9 -18 30 -60 48 -93 27 -50 32 -68 29 -112 -4 -60 -26 -72 -42 -25
-6 15 -17 40 -26 55 -18 31 -47 184 -38 198 9 14 13 11 29 -23z m-2435 -902
c0 -11 -19 -15 -25 -6 -3 5 1 10 9 10 9 0 16 -2 16 -4z m-42 -61 c0 -15 -9
-30 -20 -36 -11 -6 -19 -7 -16 -2 22 45 32 63 33 63 2 0 3 -11 3 -25z m1685
-373 c12 -11 38 -25 58 -31 49 -16 72 -43 104 -125 39 -97 36 -160 -9 -233
-35 -55 -88 -93 -133 -93 -12 0 -25 -4 -28 -10 -10 -17 -48 -11 -71 11 -13 12
-32 27 -43 33 -11 6 -45 26 -76 45 -67 40 -101 49 -218 60 -249 23 -554 -111
-638 -279 -12 -25 -30 -56 -40 -70 -23 -34 -34 -121 -32 -251 1 -110 9 -139
63 -227 11 -18 18 -37 15 -42 -3 -5 -24 -14 -46 -20 -60 -16 -125 -85 -134
-141 -4 -24 -16 -71 -28 -104 -26 -77 -28 -161 -3 -197 23 -35 15 -58 -21 -58
-15 -1 -46 -9 -68 -20 -22 -11 -53 -19 -68 -20 -43 0 -102 -35 -161 -95 -32
-33 -57 -51 -61 -45 -4 6 -6 160 -5 343 0 183 0 431 -1 552 -1 121 -2 311 -2
423 l0 203 42 84 c87 171 233 263 405 256 22 -1 47 -6 57 -11 10 -6 28 -10 41
-10 13 0 32 -6 44 -13 122 -71 160 -119 181 -227 11 -56 21 -80 31 -80 11 0
13 14 10 73 -4 61 -14 98 -46 160 -8 16 26 6 43 -13 30 -33 107 -67 175 -77
61 -10 111 -9 221 0 45 4 124 34 155 59 47 39 154 154 170 184 18 33 22 35 57
31 22 -3 49 -14 60 -25z m-251 -446 c148 -67 252 -171 332 -332 45 -91 79
-211 77 -274 -1 -55 -10 -113 -19 -122 -6 -6 -11 33 -14 109 -5 127 -18 165
-89 270 -16 23 -29 46 -29 51 0 5 -15 23 -32 40 -18 17 -48 47 -67 66 -42 42
-102 73 -159 82 -37 6 -42 4 -42 -13 0 -14 18 -27 70 -49 38 -16 70 -33 70
-39 0 -5 23 -32 51 -60 70 -70 105 -135 123 -233 9 -46 18 -87 21 -92 10 -17
19 -97 18 -158 -1 -49 -8 -73 -30 -110 -47 -78 -54 -99 -38 -112 11 -9 23 2
58 57 23 37 51 89 61 116 10 26 20 47 22 47 8 0 -7 -92 -22 -132 -17 -48 -48
-96 -82 -125 l-25 -21 30 -30 c21 -22 36 -29 54 -25 44 8 143 -23 197 -61 72
-53 122 -151 122 -243 0 -97 -22 -161 -74 -212 -55 -54 -80 -50 -96 12 -6 23
-16 56 -21 73 -12 38 -69 114 -85 114 -6 0 -17 7 -24 15 -7 8 -44 24 -82 36
-110 32 -282 13 -376 -42 -46 -28 -139 -108 -251 -216 -41 -40 -81 -73 -88
-73 -14 0 -43 -61 -43 -90 0 -10 7 -23 15 -30 13 -11 13 -16 -1 -48 -8 -21
-14 -58 -13 -84 2 -26 0 -51 -4 -55 -4 -4 -29 -6 -55 -5 -45 3 -83 -3 -182
-28 -93 -23 -215 -100 -315 -198 -51 -50 -68 -56 -98 -32 -14 11 -42 30 -64
42 -117 67 -143 84 -143 98 0 8 -10 31 -22 50 -22 33 -23 47 -26 255 -3 192
-1 225 14 260 10 22 17 44 16 48 -2 5 1 6 5 4 5 -3 33 17 63 45 75 68 155 104
256 113 43 4 57 1 88 -20 21 -14 42 -23 47 -20 16 10 10 53 -10 72 -11 10 -27
38 -36 63 -54 147 -55 177 -11 277 32 70 69 109 144 149 l54 28 31 -19 c124
-75 237 -109 297 -90 37 12 16 26 -42 29 -68 3 -216 71 -263 122 -55 58 -98
152 -101 219 -5 113 12 220 42 272 51 86 74 116 125 160 66 56 134 89 244 118
78 21 107 24 220 20 124 -3 135 -5 207 -39z m2326 -697 c23 -8 37 -24 56 -65
36 -75 35 -78 -20 -70 -26 3 -69 6 -96 6 -66 0 -70 17 -19 85 23 30 43 55 45
55 2 0 17 -5 34 -11z m304 -202 c5 -7 7 -21 6 -32 -3 -20 -9 -20 -273 -17
-375 5 -376 5 -388 23 -6 9 -7 24 -4 33 6 14 37 15 329 10 233 -4 325 -8 330
-17z m-498 -95 c3 -5 107 -9 232 -11 271 -2 283 -5 307 -79 10 -28 17 -66 17
-84 1 -36 21 -126 39 -171 6 -16 8 -33 5 -39 -4 -7 -56 -8 -153 -4 -80 4 -254
9 -386 12 -132 3 -251 7 -265 8 -14 2 -35 4 -47 5 -20 1 -23 6 -22 44 0 31 2
37 8 22 5 -11 7 -23 4 -27 -2 -5 1 -8 6 -8 6 0 11 5 11 10 0 7 6 7 20 0 31
-17 205 -25 215 -11 4 7 4 15 1 18 -6 6 -18 8 -169 20 -64 5 -77 8 -75 22 3
13 19 16 93 18 50 1 96 2 103 2 20 2 14 18 -10 26 -36 12 -39 13 -102 14 -56
1 -58 2 -54 26 3 13 0 26 -6 29 -6 3 3 2 19 -1 55 -12 213 -9 226 4 20 20 -10
25 -126 21 -94 -3 -106 -1 -111 15 -11 35 10 42 133 46 124 3 133 4 133 25 0
10 -28 15 -100 21 -92 6 -120 15 -87 28 21 9 135 8 141 -1z m-3134 -316 c0 -3
-4 -8 -10 -11 -5 -3 -10 -1 -10 4 0 6 5 11 10 11 6 0 10 -2 10 -4z m1210 -116
c143 -21 214 -88 252 -239 31 -125 21 -259 -15 -211 -7 9 -29 28 -49 44 -31
23 -47 28 -97 27 -86 0 -128 -25 -165 -99 -30 -59 0 -142 51 -142 33 0 40 26
14 54 -30 32 -26 59 14 94 28 25 41 30 74 27 41 -4 90 -25 108 -47 6 -7 17
-36 26 -65 13 -46 13 -55 0 -73 -10 -14 -13 -32 -9 -52 6 -30 -10 -93 -39
-148 -30 -58 -223 -140 -330 -140 -28 0 -33 8 -61 109 -14 50 -28 74 -62 108
-24 23 -46 43 -47 43 -2 0 -34 18 -72 39 -37 21 -88 42 -113 46 -95 14 -105
16 -118 27 -10 9 -13 39 -10 129 2 64 7 116 12 116 5 -1 16 12 25 28 18 34 30
45 49 45 9 0 11 -15 6 -63 -4 -41 -2 -71 5 -85 18 -34 31 -26 31 21 1 57 23
147 46 183 46 73 158 184 186 184 12 0 29 7 38 15 34 30 140 41 250 25z m389
-317 c44 -26 85 -114 78 -171 -4 -34 -13 -52 -44 -81 -21 -21 -50 -41 -63 -44
-14 -4 -38 -18 -54 -32 -37 -32 -61 -33 -52 -2 4 12 10 42 13 67 3 24 14 53
25 64 10 11 18 35 18 55 0 44 16 74 25 49 3 -8 5 -33 3 -54 -3 -34 0 -39 20
-42 18 -3 26 4 38 34 14 34 14 41 0 71 -16 34 -42 43 -64 21 -7 -7 -12 -8 -13
-2 0 5 -2 26 -4 47 -4 33 -2 37 20 37 13 0 37 -8 54 -17z m1782 -3 c6 0 7 -4
4 -10 -8 -13 -115 -13 -115 -1 0 10 64 20 88 14 8 -2 18 -3 23 -3z m238 -16
c2 -2 -4 -31 -13 -65 -11 -39 -15 -74 -11 -100 5 -29 3 -39 -7 -41 -86 -10
-417 -19 -452 -12 -43 8 -43 30 0 27 16 -1 56 -2 89 -2 33 1 110 0 171 0 84
-1 115 3 123 13 9 11 9 16 1 21 -18 11 -226 13 -305 3 -76 -9 -128 -3 -122 15
2 8 25 11 62 10 32 -1 63 2 69 6 6 5 72 12 146 16 74 4 137 9 139 11 2 2 1 10
-2 18 -5 13 -22 15 -97 12 -50 -2 -93 0 -95 5 -10 15 36 31 83 28 80 -4 102 0
102 17 0 12 -6 15 -25 10 -23 -6 -33 3 -20 16 6 6 157 -2 164 -8z m208 -42
c57 -63 114 -150 102 -157 -5 -4 -66 -6 -135 -6 -95 -1 -129 3 -136 13 -11 16
0 169 14 186 6 7 33 12 62 12 48 -1 53 -3 93 -48z m-903 32 c12 -5 16 -21 16
-75 l0 -69 -30 0 c-37 0 -40 -23 -6 -45 22 -14 103 -48 149 -62 10 -3 23 1 30
11 11 15 19 16 62 6 66 -15 208 -16 380 0 80 6 149 8 162 3 12 -4 64 -5 115
-1 248 17 343 6 456 -51 109 -55 119 -61 147 -87 28 -25 28 -26 22 -121 -5
-85 -8 -98 -31 -122 -26 -27 -80 -46 -196 -70 -30 -7 -56 -8 -58 -4 -12 34
-21 37 -46 14 -35 -33 -60 -25 -64 22 -4 48 -28 49 -48 2 -13 -32 -32 -44 -47
-29 -3 4 0 19 8 35 8 15 15 40 15 54 0 41 -29 28 -57 -25 -31 -58 -46 -72 -71
-68 -21 3 -20 4 8 47 35 51 41 111 13 111 -13 0 -23 -15 -33 -47 -18 -56 -61
-93 -84 -74 -13 11 -9 18 26 51 26 25 38 45 34 55 -3 8 0 26 6 39 13 29 -8
112 -29 121 -18 6 -27 -19 -18 -53 19 -80 -14 -153 -83 -182 -22 -9 -22 -11
-7 -39 8 -17 15 -37 15 -45 0 -20 35 -30 60 -16 11 6 24 8 29 5 18 -10 417 -6
498 5 75 11 86 10 114 -7 17 -10 45 -37 62 -60 28 -39 30 -48 28 -120 -2 -66
-28 -193 -45 -222 -10 -16 -73 -41 -104 -41 -21 0 -31 6 -35 20 -8 30 -37 24
-48 -10 -17 -47 -65 -38 -71 14 -4 41 -27 45 -34 7 -8 -37 -13 -42 -43 -34
-20 5 -22 10 -16 44 6 32 4 39 -9 39 -9 0 -18 -12 -22 -27 -10 -48 -13 -53
-30 -53 -17 0 -17 9 2 83 6 25 4 28 -12 25 -13 -2 -25 -20 -36 -53 -9 -28 -20
-49 -25 -47 -4 1 -12 3 -18 5 -6 2 -4 23 6 55 9 28 14 53 11 56 -18 19 -37 -8
-66 -96 -3 -10 -11 -18 -17 -18 -12 0 -8 55 7 115 6 25 5 25 -20 14 -23 -11
-28 -10 -40 6 -12 16 -16 17 -30 6 -9 -7 -16 -22 -16 -33 0 -23 -33 -90 -52
-105 -17 -13 -169 -73 -185 -73 -25 0 -13 -30 14 -36 20 -5 41 0 78 21 42 22
56 25 72 17 14 -8 36 -8 74 -1 63 13 353 19 419 10 l45 -7 -3 -84 c-4 -89 -41
-228 -67 -250 -16 -13 -82 -22 -108 -14 -14 5 -16 12 -11 41 6 33 6 35 -14 24
-12 -6 -26 -20 -32 -31 -18 -33 -33 -24 -26 15 13 67 -20 70 -49 4 -10 -21
-22 -39 -27 -39 -14 0 -9 67 7 80 20 17 19 30 -3 30 -25 0 -48 -27 -59 -70 -7
-28 -15 -36 -41 -41 -18 -4 -34 -3 -37 1 -7 11 16 72 32 89 17 16 12 35 -10
39 -12 3 -24 -12 -42 -50 -14 -29 -25 -59 -25 -66 0 -15 -30 -27 -90 -35 -71
-9 -78 2 -35 61 36 50 42 81 18 89 -7 3 -19 -12 -27 -31 -19 -46 -38 -48 -25
-4 9 34 2 52 -17 40 -11 -7 -54 -85 -54 -97 0 -3 11 -5 25 -5 28 0 28 0 15
-34 -8 -21 -16 -26 -45 -26 -28 0 -35 -4 -35 -20 0 -14 7 -20 23 -21 89 -5
177 -1 269 13 71 10 122 13 150 7 24 -4 76 -8 116 -9 66 0 72 -2 72 -20 0 -38
-49 -118 -106 -172 -92 -88 -104 -91 -294 -93 -91 -1 -183 -7 -205 -13 -22 -6
-49 -11 -60 -11 -11 0 -73 -1 -137 -1 -126 -2 -188 5 -228 25 -53 26 -273 40
-291 19 -6 -8 -22 -14 -34 -14 -33 0 -55 -10 -55 -25 0 -10 33 -13 148 -12 96
1 154 -2 163 -9 8 -6 42 -17 77 -24 90 -18 85 -27 -28 -49 -80 -16 -145 -21
-325 -27 -88 -2 -166 -7 -174 -9 -8 -3 -55 1 -105 10 -50 9 -120 21 -156 27
-36 6 -69 14 -75 18 -5 4 -29 10 -53 14 -23 3 -51 10 -61 16 -11 5 -32 10 -48
10 -16 0 -39 7 -52 17 -13 9 -47 17 -75 19 -358 16 -572 33 -619 49 -26 9 -51
14 -56 11 -11 -7 -77 20 -86 34 -3 5 -25 15 -48 22 -74 21 -117 55 -139 109
-11 27 -25 49 -29 49 -5 0 -9 12 -9 28 0 15 -6 39 -14 53 -17 33 -17 323 1
354 22 41 46 129 48 182 2 39 9 61 23 76 25 27 43 91 49 175 4 54 8 65 28 74
17 7 33 7 56 -1 36 -12 133 -14 194 -3 22 4 59 5 82 2 22 -4 70 -3 105 2 34 5
97 11 138 14 41 3 91 9 110 15 39 10 90 12 90 3 0 -3 -9 -17 -20 -31 -26 -33
-25 -43 3 -43 13 0 30 11 41 28 10 15 32 36 49 47 17 11 41 35 53 53 20 28
284 300 399 410 67 64 107 88 195 116 47 15 90 32 95 36 12 10 90 37 125 43
40 7 147 8 164 1z m314 -30 c19 -4 29 -11 26 -19 -3 -8 -30 -12 -84 -12 -71 1
-80 3 -80 19 0 15 8 18 54 18 29 0 67 -3 84 -6z m-2828 -252 c0 -17 -26 -32
-56 -32 -34 0 -159 -43 -184 -64 -22 -18 -70 -37 -70 -27 0 13 32 37 88 66 28
15 52 31 52 36 0 4 6 6 13 4 6 -3 35 1 62 9 59 16 95 19 95 8z m1358 -12 c20
-11 44 -24 52 -29 8 -4 24 -12 35 -18 10 -5 32 -40 47 -78 23 -57 26 -74 19
-103 -12 -40 -38 -72 -60 -72 -9 0 -34 -7 -56 -15 -63 -22 -66 -21 -48 29 15
39 15 50 3 86 -17 50 -52 80 -94 80 -41 0 -80 -21 -84 -44 -6 -27 18 -37 50
-20 38 20 64 5 71 -41 11 -67 -16 -90 -91 -79 -38 6 -54 15 -84 48 -38 41 -46
68 -29 95 7 10 5 18 -6 26 -34 25 35 103 122 138 55 22 109 21 153 -3z m-1237
-12 c37 1 51 -4 69 -23 15 -15 35 -25 52 -25 16 0 36 -6 44 -12 35 -30 74 -74
80 -90 7 -24 41 -23 49 2 15 48 57 10 91 -85 29 -80 30 -116 5 -132 -13 -8
-21 -28 -24 -60 -3 -26 -9 -63 -12 -80 -6 -29 -5 -33 14 -33 25 0 27 -21 4
-58 -51 -83 -70 -110 -99 -139 -82 -78 -259 -98 -361 -41 -29 16 -53 33 -53
37 0 4 -16 22 -35 41 l-35 35 7 75 c9 118 38 157 121 167 69 8 84 -5 79 -68
-5 -54 -18 -76 -50 -81 -34 -5 -29 -42 6 -46 22 -3 37 6 67 36 36 36 40 45 40
90 0 28 -4 54 -10 57 -5 3 -10 14 -10 24 0 16 -21 32 -62 45 -20 6 -121 -10
-157 -25 -34 -14 -46 3 -18 29 32 30 131 54 187 44 37 -6 48 -13 60 -38 8 -17
25 -41 37 -54 44 -45 42 -136 -2 -184 -42 -45 -30 -59 25 -31 72 37 79 143 18
256 -39 72 -74 98 -134 101 -43 1 -137 -23 -194 -50 -77 -37 -121 -107 -62
-100 40 5 42 -31 2 -60 -23 -18 -30 -30 -30 -57 0 -18 5 -37 10 -40 6 -3 10
-21 10 -38 0 -104 50 -173 165 -227 91 -44 109 -47 192 -25 33 9 61 11 66 6 5
-5 -1 -27 -14 -52 -21 -41 -38 -96 -59 -194 -5 -22 -9 -84 -10 -137 0 -147 35
-279 107 -400 35 -59 167 -201 215 -232 31 -20 29 -29 -17 -99 -64 -96 -131
-134 -276 -159 -95 -17 -233 1 -295 37 -24 14 -44 23 -44 20 0 -10 -65 27 -73
41 -4 8 -14 14 -22 14 -13 0 -77 81 -105 135 -9 17 -22 50 -29 75 -7 25 -19
63 -27 85 -32 92 -5 253 54 322 l27 32 80 -39 c44 -22 90 -40 101 -40 12 0 40
-7 63 -15 51 -18 163 -10 192 14 17 13 19 23 13 59 -6 39 -9 42 -39 42 -18 0
-47 10 -66 23 -19 12 -51 31 -72 42 -20 11 -40 28 -43 37 -3 10 -9 18 -14 18
-5 0 -26 15 -46 34 -34 31 -64 38 -64 15 0 -22 89 -118 130 -140 50 -28 60
-55 20 -53 -14 1 -30 -6 -37 -15 -11 -14 -14 -14 -22 -2 -5 8 -7 19 -5 26 7
16 -46 39 -60 25 -7 -7 -6 -10 2 -10 7 0 12 -7 12 -15 0 -16 -20 -16 -33 0 -6
6 -10 6 -14 -2 -7 -18 -26 -16 -19 2 3 9 0 15 -8 15 -8 0 -16 -6 -19 -12 -2
-7 -4 -1 -4 15 0 15 5 27 11 27 6 0 4 5 -4 10 -13 8 -12 10 3 10 10 0 17 -8
17 -20 0 -16 4 -19 18 -12 9 5 23 7 30 5 15 -6 16 9 0 25 -15 15 -25 15 -31 0
-2 -7 -3 -5 -1 6 3 23 -74 96 -95 89 -13 -4 -13 -3 -2 5 11 8 11 15 -4 43 -25
50 -52 129 -60 172 -5 29 -10 37 -23 35 -13 -3 -17 -15 -17 -56 -1 -42 8 -70
43 -142 27 -56 54 -98 73 -110 25 -19 40 -50 23 -50 -31 0 -123 111 -149 181
-9 24 -21 53 -26 64 -5 11 -10 31 -10 45 0 23 -8 183 -10 205 0 6 3 37 7 70
11 87 10 108 -3 112 -6 2 -20 -24 -33 -62 -18 -53 -21 -84 -19 -152 3 -58 0
-87 -7 -90 -17 -6 -38 91 -38 172 1 39 -1 64 -3 58 -3 -7 -9 -13 -14 -13 -18
0 3 28 26 34 25 6 38 35 54 121 20 106 50 163 123 237 70 71 78 99 24 78 -48
-18 -101 -78 -141 -158 -46 -92 -52 -106 -60 -153 -3 -21 -13 -43 -22 -50 -15
-13 -16 -10 -9 31 4 25 9 60 11 79 3 18 9 38 14 45 5 6 17 31 27 56 10 25 28
59 41 76 13 17 23 35 23 40 0 5 15 17 33 27 17 10 53 37 80 61 84 76 230 139
342 149 22 1 30 7 31 22 1 11 2 24 3 28 1 5 11 5 24 1 12 -5 43 -7 68 -6z
m912 -73 c-3 -9 -8 -14 -10 -11 -3 3 -2 9 2 15 9 16 15 13 8 -4z m-1754 -68
c62 -45 136 -87 153 -87 8 0 22 -6 32 -13 17 -12 16 -16 -10 -72 -38 -83 -57
-153 -78 -285 l-12 -75 -46 -10 c-25 -5 -55 -18 -65 -27 -41 -37 -43 -28 -43
185 0 112 -3 252 -7 310 -7 125 -2 130 76 74z m1765 -104 c4 -16 21 -40 39
-55 17 -14 29 -30 25 -33 -4 -4 -48 -9 -98 -11 -50 -2 -94 -5 -98 -8 -4 -2
-18 1 -32 6 -25 9 -24 10 21 33 26 13 62 40 80 60 40 42 55 44 63 8z m-1569
-383 c3 -5 1 -10 -4 -10 -6 0 -11 5 -11 10 0 6 2 10 4 10 3 0 8 -4 11 -10z
m-40 -40 c3 -5 -1 -10 -10 -10 -9 0 -13 5 -10 10 3 6 8 10 10 10 2 0 7 -4 10
-10z m-71 -46 c3 -9 6 -31 6 -51 0 -26 -5 -36 -20 -40 -48 -13 -76 -106 -60
-203 14 -81 73 -181 119 -200 58 -24 69 16 18 70 -42 47 -50 63 -71 140 -16
60 -16 68 -2 103 9 20 22 37 29 37 8 0 21 -26 30 -57 10 -32 23 -76 29 -98 11
-35 70 -141 87 -155 4 -3 22 -29 40 -58 18 -29 46 -61 62 -73 16 -11 29 -25
29 -31 0 -11 -77 -100 -92 -106 -11 -5 -115 37 -160 65 -21 13 -42 23 -47 23
-16 0 -68 67 -94 123 -36 75 -46 128 -49 254 -2 96 0 113 21 156 27 55 81 117
104 117 8 0 18 -7 21 -16z m1096 -72 c0 -5 -12 -41 -26 -82 -35 -102 -44 -274
-19 -386 25 -111 55 -175 120 -247 90 -102 157 -127 355 -132 91 -2 181 -24
187 -45 2 -8 14 -34 25 -56 20 -39 20 -46 8 -105 -12 -53 -21 -70 -58 -106
-40 -39 -72 -58 -57 -33 8 13 -18 13 -32 -1 -13 -13 -58 -8 -58 6 0 6 18 16
39 23 59 19 93 48 111 97 17 42 16 45 -2 72 -11 15 -27 45 -36 65 -15 32 -23
38 -62 44 -65 9 -114 -2 -127 -31 -12 -27 -5 -55 15 -55 7 0 24 11 36 24 19
20 27 23 53 15 45 -12 78 -47 78 -81 0 -43 -15 -64 -65 -93 -49 -29 -118 -35
-182 -15 -84 27 -196 83 -228 116 -19 19 -43 34 -54 34 -11 0 -21 9 -25 24 -3
12 -24 43 -46 67 -47 51 -80 116 -115 228 -21 64 -26 102 -26 188 -1 158 4
190 52 317 11 27 19 59 19 73 0 17 12 31 47 53 47 30 73 38 73 22z m-920 -338
c0 -8 -4 -14 -9 -14 -11 0 -22 26 -14 34 9 9 23 -3 23 -20z m185 -203 c3 -5 2
-12 -3 -15 -5 -3 -9 1 -9 9 0 17 3 19 12 6z m319 -67 c5 -14 4 -15 -9 -4 -17
14 -19 20 -6 20 5 0 12 -7 15 -16z m1504 -271 c51 -17 61 -29 43 -48 -5 -6
-13 -30 -18 -55 -23 -112 -167 -292 -273 -343 -99 -48 -289 -83 -305 -56 -4 5
-30 10 -58 9 -67 -1 -106 5 -120 19 -6 6 -16 11 -23 11 -19 0 -94 52 -94 65 0
7 -13 29 -30 50 -34 43 -39 75 -12 75 39 -1 95 -20 116 -39 12 -12 30 -21 38
-21 9 0 24 -8 34 -17 20 -21 103 -21 144 -1 142 69 162 95 162 218 1 53 -4 76
-21 104 -12 20 -20 40 -16 45 3 6 78 8 193 6 142 -3 200 -8 240 -22z m1427 -7
c38 -11 40 -14 43 -54 l3 -43 -43 1 c-24 1 -82 -2 -130 -6 -49 -3 -88 -4 -88
-1 0 15 79 43 117 41 34 -2 45 1 53 17 10 18 7 19 -65 19 -46 0 -75 4 -75 11
0 5 4 8 9 4 6 -3 15 3 20 13 9 16 18 18 63 14 29 -3 71 -10 93 -16z m-47 -171
c8 3 30 0 49 -7 43 -16 81 -86 90 -166 5 -49 4 -55 -23 -83 -51 -54 -131 -74
-189 -47 -43 19 -30 35 36 42 47 6 60 11 57 23 -2 10 -17 17 -43 19 -104 10
-100 11 -98 -13 5 -44 -41 -17 -53 31 -7 31 -17 38 -38 30 -22 -8 -20 -40 3
-78 26 -41 201 -132 228 -118 10 5 32 12 48 16 28 7 29 6 13 -10 -28 -28 -125
-31 -173 -5 -22 12 -48 21 -57 21 -10 0 -36 18 -57 39 -31 31 -40 49 -46 88
-9 68 15 140 64 187 48 47 84 57 136 39 21 -7 46 -11 53 -8z m-2347 -147 c7
-13 34 -48 61 -79 53 -61 57 -73 29 -89 -23 -12 -41 -6 -98 32 -51 35 -61 70
-37 122 21 42 29 44 45 14z m4917 -1030 c11 -18 23 -46 27 -63 8 -35 22 -54
50 -66 11 -6 31 -16 44 -24 29 -16 71 -2 71 25 0 9 6 24 13 33 10 14 19 15 56
6 46 -10 85 -37 189 -132 36 -31 75 -60 88 -63 13 -3 24 -10 24 -15 0 -5 17
-20 38 -34 20 -14 47 -32 59 -41 19 -14 24 -14 54 1 31 16 34 16 75 -5 51 -25
55 -35 15 -43 -29 -6 -61 -51 -61 -87 0 -30 72 -81 85 -60 4 6 14 6 27 -1 30
-16 3 -30 -42 -23 -28 5 -40 1 -62 -19 -32 -30 -28 -61 10 -75 15 -6 36 -13
47 -17 l20 -8 -20 -6 c-11 -4 -31 -12 -45 -18 -70 -31 -125 -40 -190 -31 -36
5 -86 16 -111 24 -26 7 -57 14 -70 14 -13 0 -69 12 -124 26 -55 15 -112 26
-127 27 -16 0 -28 4 -28 8 0 5 7 9 16 9 8 0 31 12 49 26 19 14 54 30 77 35 77
17 96 29 117 75 12 24 24 44 27 44 9 0 63 -42 95 -74 33 -32 91 -66 114 -66 8
0 15 -4 15 -10 0 -5 9 -10 19 -10 17 0 19 5 14 33 -3 23 0 37 11 46 27 23 17
81 -13 81 -10 0 -25 -15 -34 -35 -23 -48 -26 -47 -150 70 -31 29 -43 34 -65
29 -38 -9 -38 -9 -69 -65 -28 -51 -57 -68 -90 -54 -10 4 -59 10 -110 14 -79 7
-95 11 -123 35 -55 46 -110 69 -167 69 -42 0 -54 4 -58 18 -8 25 -62 69 -85
69 -13 0 -26 -14 -38 -42 -47 -104 -181 -195 -267 -182 -24 3 -49 3 -56 -2
-19 -11 -69 -16 -104 -9 -16 3 -48 21 -69 40 l-39 35 -25 -25 c-28 -28 -38
-31 -45 -12 -3 8 -16 1 -38 -19 -19 -17 -49 -36 -67 -42 -18 -6 -51 -25 -72
-42 -44 -35 -85 -46 -106 -29 -9 7 -31 9 -63 5 -27 -4 -69 -2 -94 3 -30 7 -55
7 -78 0 -19 -6 -50 -13 -69 -15 -19 -3 -60 -11 -90 -19 -87 -22 -146 -28 -166
-17 -13 7 -45 6 -99 -3 -73 -11 -83 -11 -117 6 -20 10 -39 23 -43 29 -3 5 -17
10 -31 10 -14 0 -38 10 -54 21 -23 18 -37 20 -70 15 -40 -6 -80 -26 -108 -53
-8 -7 -21 -17 -30 -22 -27 -13 -107 -12 -126 2 -13 10 -47 12 -123 10 -85 -4
-109 -1 -129 12 -14 9 -33 14 -41 11 -9 -4 -35 3 -59 14 -25 13 -64 21 -96 22
-29 0 -57 4 -63 8 -5 4 -30 11 -55 14 -59 9 -100 26 -100 40 0 9 53 12 208 12
167 -1 212 2 226 13 14 12 19 12 26 2 6 -11 17 -11 56 -1 27 6 78 16 114 21
119 18 215 43 249 66 40 27 90 29 132 7 20 -10 64 -16 122 -18 51 -2 157 -11
237 -20 154 -18 291 -21 318 -7 19 9 114 23 182 26 100 4 166 18 204 42 36 23
40 24 81 11 49 -17 181 -14 260 4 28 6 66 23 85 38 19 15 44 30 55 33 61 18
130 47 133 56 2 6 9 11 16 11 7 0 36 25 65 56 36 38 59 55 74 54 42 -4 57 0
75 19 103 115 160 170 174 170 9 1 25 -14 36 -31z m-4153 -23 c17 -10 39 -27
50 -37 11 -10 34 -29 52 -43 18 -15 42 -46 54 -71 29 -57 75 -89 103 -70 16
10 25 10 45 0 48 -22 96 -37 151 -44 72 -10 157 -56 251 -136 42 -35 82 -64
88 -64 5 0 25 -13 43 -28 105 -89 223 -131 413 -148 33 -3 92 -16 130 -29 92
-30 190 -49 211 -41 10 4 48 -3 87 -15 48 -15 81 -19 109 -15 41 7 128 51 128
66 0 4 13 13 29 18 24 9 32 7 47 -9 10 -11 30 -19 50 -19 19 0 49 -11 70 -25
41 -28 52 -29 143 -14 45 7 73 7 95 -1 30 -10 160 -27 281 -35 33 -2 93 -9
134 -15 46 -8 121 -9 205 -5 72 3 221 8 331 10 308 7 385 18 438 62 20 16 41
23 73 23 36 0 47 5 60 26 15 21 23 25 48 20 17 -4 58 -11 91 -16 33 -6 76 -18
95 -27 19 -9 73 -20 120 -24 80 -7 193 -28 445 -81 l110 -24 3 -36 c4 -47 44
-87 67 -68 12 10 15 23 10 51 -4 21 -4 47 0 59 12 39 111 64 156 39 19 -10 19
-12 5 -34 -13 -19 -14 -33 -5 -84 6 -34 9 -67 6 -74 -4 -12 -69 -13 -302 -5
-5 0 -50 -3 -100 -8 -99 -8 -94 -8 -180 -5 -125 4 -902 -8 -940 -15 -55 -9
-115 -6 -146 6 -17 7 -34 8 -51 1 -14 -5 -61 -7 -106 -4 -56 4 -86 2 -96 -6
-8 -7 -17 -8 -20 -2 -10 15 -196 7 -207 -10 -7 -10 -11 -11 -17 -2 -10 16
-122 17 -617 9 -471 -7 -1239 -18 -1270 -17 -36 1 -269 2 -302 2 -22 -1 -33
-6 -33 -16 0 -8 -5 -15 -11 -15 -5 0 -7 5 -4 10 7 11 7 11 -205 16 -142 3
-170 4 -210 4 -24 0 -14 0 -235 -5 -474 -11 -1388 -20 -1663 -16 -58 1 -51 18
18 42 29 10 56 23 59 27 11 15 46 24 101 26 30 1 65 7 77 14 12 7 33 12 47 12
35 0 120 35 171 70 24 17 53 30 64 30 12 0 72 27 134 60 63 33 121 60 129 60
9 0 36 18 59 40 24 22 53 40 65 40 12 0 52 21 89 46 37 25 91 56 119 69 29 13
68 40 87 61 19 21 54 59 78 84 65 66 131 161 131 186 0 12 11 35 24 51 31 37
46 67 46 91 0 58 119 75 195 27z m5072 -208 c3 -4 -5 -20 -19 -35 -14 -15 -28
-35 -31 -45 -10 -28 -71 -20 -75 10 -2 14 4 26 17 33 12 6 21 17 21 25 0 20
69 30 87 12z m-227 -57 c0 -5 -4 -10 -10 -10 -5 0 -10 5 -10 10 0 6 5 10 10
10 6 0 10 -4 10 -10z m346 -21 c23 -19 16 -34 -19 -47 -46 -16 -74 -15 -81 4
-10 26 -7 52 7 58 18 8 77 -1 93 -15z m-6691 -113 c38 -15 76 -33 85 -41 9 -8
32 -21 53 -30 46 -19 48 -35 5 -35 -66 0 -315 -71 -359 -101 -27 -19 -38 -20
-154 -16 -38 1 -92 -1 -119 -6 -41 -7 -51 -6 -58 7 -5 9 -18 16 -28 16 -24 0
-27 32 -6 50 8 6 39 15 68 19 33 5 75 21 113 44 33 20 65 37 70 37 6 0 26 16
45 36 18 20 42 39 54 43 41 16 159 3 231 -23z m6665 4 c12 -8 9 -14 -20 -38
-19 -16 -40 -27 -47 -25 -16 6 -28 48 -18 62 8 14 65 14 85 1z m-1256 -29 c25
-26 31 -28 61 -20 39 11 104 -10 145 -46 36 -32 58 -42 118 -50 77 -10 70 -23
-29 -54 -19 -6 -47 -11 -62 -11 -15 0 -36 -9 -47 -20 -25 -25 -42 -26 -38 -2
2 13 -3 16 -24 14 -14 -1 -46 8 -71 21 -41 22 -47 23 -78 10 -34 -14 -64 -10
-137 18 -13 5 -32 9 -42 9 -11 0 -20 4 -20 8 0 10 34 40 75 66 17 10 43 34 58
52 35 42 55 43 91 5z m1361 -11 c0 -8 -10 -16 -22 -18 -22 -3 -32 16 -16 32
12 11 38 2 38 -14z m-237 -34 c3 -40 -13 -63 -33 -46 -5 4 -21 10 -35 12 -40
5 -39 44 2 62 50 22 63 16 66 -28z m215 -51 c25 -7 27 -11 27 -56 0 -55 2 -54
-112 -63 -53 -4 -68 -2 -68 8 0 25 25 34 83 29 47 -3 57 -1 57 12 0 17 -42 37
-62 30 -29 -10 -78 -13 -83 -5 -8 14 5 37 27 47 24 11 90 10 131 -2z m-1945
-30 c12 -14 31 -25 41 -25 11 0 32 -5 46 -12 20 -9 37 -9 73 0 38 10 56 9 96
-3 27 -8 71 -15 98 -15 27 0 58 -5 69 -10 18 -10 18 -13 5 -32 -21 -30 -104
-68 -148 -68 -20 0 -40 -4 -43 -10 -9 -14 -43 -12 -48 3 -3 9 -12 10 -38 1
-21 -6 -157 -10 -356 -10 -178 1 -323 -2 -323 -5 0 -3 -20 4 -45 15 -50 23
-55 31 -25 39 30 8 210 -4 216 -14 15 -25 109 7 149 51 11 12 43 32 70 45 28
12 61 34 74 49 31 33 61 33 89 1z m1700 -77 c3 -14 -3 -18 -27 -18 -31 0 -47
13 -36 31 11 16 59 6 63 -13z m56 -54 c3 -8 2 -12 -4 -9 -6 3 -10 10 -10 16 0
14 7 11 14 -7z m179 0 c30 -5 37 -10 37 -28 0 -49 -33 -56 -118 -27 -61 21
-66 25 -59 44 6 15 79 21 140 11z m-81 -114 c23 -11 58 -20 78 -20 40 0 37 9
32 -120 l-2 -35 -67 2 c-38 1 -80 2 -94 2 -25 1 -26 3 -32 83 -9 112 5 127 85
88z m139 -173 c-10 -9 -11 -8 -5 6 3 10 9 15 12 12 3 -3 0 -11 -7 -18z m-1306
-76 c143 0 350 0 460 -1 110 0 268 1 350 2 272 3 456 1 462 -6 4 -3 6 -135 4
-294 -1 -243 -4 -289 -17 -302 -14 -13 -17 -13 -28 3 -19 25 -23 24 -77 -25
-23 -22 -25 -61 -2 -83 13 -14 28 -16 70 -11 l53 6 0 -79 c0 -79 0 -79 -27
-85 -16 -2 -113 -4 -218 -3 -119 2 -203 -2 -225 -8 -37 -12 -297 -14 -316 -3
-11 7 -138 3 -151 -5 -5 -3 -32 -1 -60 4 -42 8 -59 7 -82 -6 -36 -18 -81 -19
-124 -2 -19 7 -72 12 -127 11 -365 -3 -1063 -15 -1150 -20 -58 -2 -172 -4
-255 -3 -82 1 -166 1 -185 1 -19 -1 -194 -4 -388 -7 -193 -3 -359 -8 -367 -11
-8 -4 -27 -3 -43 1 -26 7 -82 7 -147 -1 -16 -3 -37 -4 -45 -3 -8 0 -114 0
-235 0 -223 0 -285 -3 -304 -16 -6 -3 -24 2 -40 11 -25 15 -36 16 -66 7 -26
-8 -54 -8 -100 -1 -66 11 -85 30 -45 43 58 18 95 135 60 186 -11 14 -17 29
-13 33 3 3 0 24 -7 47 -12 35 -12 42 1 49 9 6 22 1 41 -17 39 -37 62 -25 55
28 -3 22 -12 48 -21 58 -9 10 -16 25 -16 34 0 20 -30 23 -48 5 -7 -7 -12 -25
-12 -40 0 -18 -5 -28 -14 -28 -19 0 -58 37 -74 70 -6 14 -17 32 -24 41 -17 25
-3 51 25 44 19 -5 26 -1 36 21 11 25 10 30 -11 46 -30 23 -28 23 -76 -12 -35
-25 -42 -36 -42 -65 0 -51 27 -109 86 -188 42 -56 53 -79 58 -121 9 -85 -3
-126 -47 -156 -21 -14 -43 -37 -50 -50 -16 -31 9 -29 -527 -33 -245 -2 -455
-7 -467 -11 -12 -4 -24 -2 -27 3 -4 5 -38 8 -82 5 -44 -3 -91 0 -110 6 -27 9
-38 9 -49 0 -15 -13 -56 -16 -150 -12 -27 1 -63 1 -80 1 -16 0 -95 0 -175 0
-254 1 -320 -2 -330 -19 -7 -11 -10 -12 -10 -2 0 10 -14 13 -55 10 -30 -1 -55
0 -55 3 0 3 -92 4 -204 2 -239 -5 -234 -7 -234 89 -1 35 -3 219 -6 410 -5 303
-3 349 10 363 12 11 40 15 117 16 56 0 170 2 252 4 757 14 990 18 1460 21 297
2 563 3 590 2 64 -2 26 -2 546 6 328 6 449 5 454 -4 5 -8 10 -8 20 0 16 13
320 19 1899 35 214 2 390 6 392 8 2 1 20 2 41 0 21 -1 155 -2 298 -2z"/>
<path d="M5710 9110 c0 -5 5 -10 11 -10 5 0 7 5 4 10 -3 6 -8 10 -11 10 -2 0
-4 -4 -4 -10z"/>
<path d="M2027 9023 c-13 -12 -7 -36 22 -83 16 -27 31 -63 33 -81 3 -35 31
-52 41 -26 10 27 -13 108 -43 152 -31 44 -40 51 -53 38z"/>
<path d="M744 8746 c-18 -8 -46 -34 -62 -59 -34 -48 -31 -74 3 -31 40 50 144
69 202 37 80 -45 112 -130 75 -202 -19 -37 -20 -51 -1 -51 5 0 20 20 35 45 36
62 31 123 -16 189 -55 77 -155 107 -236 72z"/>
<path d="M739 8617 c-14 -7 -34 -18 -43 -26 -23 -19 -54 -83 -49 -98 8 -23 24
-14 39 22 14 35 57 65 93 65 11 0 25 8 31 18 11 16 11 16 6 0 -3 -12 0 -18 9
-18 8 0 23 -10 34 -22 18 -18 21 -19 27 -5 3 9 -3 29 -16 47 -18 25 -28 30
-63 29 -23 0 -54 -6 -68 -12z"/>
<path d="M3216 8561 c-9 -10 -17 -27 -16 -37 0 -11 1 -59 3 -109 2 -78 6 -97
32 -144 16 -29 45 -66 64 -82 31 -25 44 -29 101 -29 44 0 73 -5 88 -16 13 -9
32 -14 43 -11 21 6 25 -3 9 -19 -18 -18 11 -32 46 -23 31 9 32 11 39 83 8 88
-3 134 -48 195 -40 54 -125 101 -185 101 -39 0 -45 4 -77 49 -47 65 -70 75
-99 42z m106 -111 c14 -13 36 -20 63 -20 83 0 174 -102 183 -206 5 -59 -6 -68
-40 -37 -12 11 -44 18 -96 22 -93 7 -121 23 -151 86 -54 115 -27 218 41 155z"/>
<path d="M5130 8493 c-17 -21 -21 -41 -21 -97 0 -39 -1 -92 -2 -117 -1 -37 4
-54 34 -95 56 -78 102 -105 197 -114 85 -9 113 -19 134 -48 25 -35 37 -33 78
8 37 37 40 44 40 93 0 87 -24 158 -65 194 -20 17 -48 34 -63 38 -46 10 -166
58 -183 72 -8 7 -20 13 -25 13 -14 1 -50 33 -63 58 -16 29 -35 28 -61 -5z m91
-117 c10 6 22 1 117 -45 24 -11 56 -21 72 -21 56 0 101 -60 120 -158 8 -47 3
-82 -12 -82 -5 0 -20 11 -32 25 -21 22 -35 26 -101 31 -98 6 -158 33 -192 87
-23 36 -25 48 -20 104 7 74 15 93 29 69 5 -9 14 -14 19 -10z"/>
<path d="M1664 8476 c-7 -19 3 -36 22 -36 10 0 14 8 12 22 -4 26 -26 36 -34
14z"/>
<path d="M1462 8458 c-28 -28 2 -139 50 -185 61 -57 104 -71 213 -66 97 3 99
4 165 48 69 46 90 72 68 86 -7 5 -25 -4 -45 -22 -19 -16 -38 -29 -43 -29 -19
0 -10 16 20 38 17 13 30 31 30 42 0 26 -1 26 -57 -10 -47 -30 -96 -39 -108
-20 -3 6 -15 10 -25 10 -26 0 -88 56 -92 82 -4 30 -23 33 -35 5 -15 -33 9 -87
52 -114 19 -13 41 -23 48 -23 14 0 37 -19 37 -32 0 -15 -75 -8 -116 11 -73 33
-134 111 -134 171 0 23 -10 26 -28 8z"/>
<path d="M3270 7887 c-13 -7 -31 -24 -39 -39 -14 -25 -14 -29 5 -50 18 -19 20
-31 15 -73 -11 -87 36 -164 114 -187 64 -19 132 -76 151 -125 18 -46 36 -53
87 -34 20 8 24 16 24 50 0 22 8 56 17 76 14 29 15 44 7 91 -19 101 -52 159
-115 199 -56 36 -83 42 -123 30 -16 -5 -25 -1 -39 20 -9 14 -30 33 -45 41 -33
17 -28 17 -59 1z m99 -94 c22 -17 45 -26 62 -25 27 3 83 -36 119 -82 43 -56
65 -181 35 -206 -12 -10 -24 -4 -67 34 -28 25 -77 55 -107 67 -31 12 -62 27
-69 32 -16 12 -49 77 -47 92 4 31 18 101 22 108 7 11 14 9 52 -20z"/>
<path d="M5754 7775 c-19 -13 -20 -20 -13 -57 4 -24 11 -95 15 -158 11 -193
65 -273 196 -286 34 -3 61 -13 80 -29 38 -32 53 -31 75 3 10 15 21 29 25 32
32 24 37 152 8 210 -23 46 -104 130 -125 130 -8 0 -39 9 -69 20 -41 16 -62 32
-88 66 -41 57 -66 84 -76 84 -4 0 -17 -7 -28 -15z m66 -69 c0 -24 -17 -28 -23
-6 -3 13 0 20 9 20 8 0 14 -6 14 -14z m108 -117 c42 -23 89 -52 103 -65 41
-39 69 -101 69 -152 0 -95 -19 -113 -68 -67 -15 14 -39 25 -54 25 -83 0 -148
75 -155 180 -4 58 7 120 22 120 3 0 41 -19 83 -41z"/>
<path d="M2680 7738 c-13 -17 -25 -43 -26 -57 -2 -14 -6 -49 -10 -78 -7 -58 9
-111 54 -176 31 -47 68 -67 121 -67 41 0 88 -31 134 -87 14 -18 29 -23 62 -23
39 0 44 3 59 34 26 54 21 141 -11 204 -36 72 -127 141 -204 156 -38 7 -113 71
-124 106 -9 29 -28 25 -55 -12z m109 -120 c14 -10 45 -28 69 -38 63 -28 129
-85 152 -131 24 -47 35 -118 21 -139 -9 -12 -16 -9 -41 22 -42 50 -87 76 -156
89 -66 12 -90 33 -124 108 -15 32 -18 54 -14 80 11 57 30 58 93 9z"/>
<path d="M4998 7722 c-66 -69 -86 -166 -52 -251 20 -51 105 -121 148 -121 17
0 54 -8 81 -19 40 -15 52 -25 60 -50 7 -22 15 -31 31 -31 12 0 29 -3 37 -6 53
-20 84 131 51 239 -13 40 -27 65 -44 75 -14 9 -41 28 -61 43 -19 15 -48 31
-65 35 -45 11 -102 51 -119 83 -22 44 -28 44 -67 3z m61 -79 c16 -16 54 -41
86 -58 97 -51 101 -54 119 -74 25 -28 45 -88 46 -138 0 -49 -13 -62 -33 -33
-18 26 -70 47 -137 56 -90 12 -150 92 -150 201 0 79 20 92 69 46z"/>
<path d="M2892 6518 c-5 -7 -13 -69 -16 -138 -4 -69 -9 -157 -12 -196 -5 -58
-3 -72 9 -77 19 -7 33 9 42 51 8 40 25 42 25 2 0 -66 43 -18 48 54 2 28 6 86
9 128 4 66 3 79 -11 84 -9 4 -19 4 -22 2 -5 -5 -10 -54 -13 -116 -1 -22 -5
-32 -13 -29 -9 2 -13 35 -14 113 -2 133 -2 134 -13 134 -5 0 -13 -6 -19 -12z
m51 -289 c-3 -10 -9 -19 -14 -19 -11 0 -12 44 -2 53 10 11 21 -13 16 -34z"/>
<path d="M5742 6497 c-12 -14 -16 -317 -4 -317 22 0 35 72 36 193 1 129 -6
156 -32 124z"/>
<path d="M5669 6393 c-5 -78 -9 -134 -14 -165 -6 -43 11 -61 32 -33 20 28 19
215 -2 215 -8 0 -15 -8 -16 -17z"/>
<path d="M3042 6358 c-12 -15 -19 -134 -8 -145 13 -14 29 18 37 74 6 43 5 61
-5 71 -10 11 -15 11 -24 0z"/>
<path d="M5587 6363 c-10 -16 -18 -113 -12 -132 11 -35 35 -26 35 13 0 18 3
54 6 80 6 38 4 46 -9 46 -9 0 -18 -3 -20 -7z"/>
<path d="M5510 6341 c-13 -26 -13 -88 1 -97 21 -13 36 20 31 69 -4 50 -15 59
-32 28z"/>
<path d="M5360 6305 c-13 -16 -6 -35 15 -35 15 0 24 19 17 38 -6 16 -17 15
-32 -3z"/>
<path d="M5435 6289 c-8 -35 -3 -44 20 -36 20 8 21 67 1 67 -8 0 -17 -14 -21
-31z"/>
<path d="M3120 6269 c-9 -21 -10 -33 -2 -41 17 -17 32 1 32 38 0 42 -13 44
-30 3z"/>
<path d="M3223 6289 c-14 -5 -23 -17 -23 -29 0 -17 5 -21 27 -18 18 2 29 10
31 22 5 25 -9 35 -35 25z"/>
<path d="M4797 13276 c-3 -8 -16 -16 -29 -18 -17 -2 -24 -11 -26 -33 -6 -50
45 -69 117 -44 25 9 31 16 31 40 0 43 -80 90 -93 55z m41 -55 c-5 -24 -38 -27
-38 -3 0 10 3 21 6 25 11 11 35 -5 32 -22z"/>
<path d="M3806 13245 c-37 -37 -5 -86 54 -81 57 5 80 16 86 42 7 28 -10 54
-37 54 -12 0 -19 -9 -21 -27 -4 -39 -38 -45 -35 -7 2 34 -22 43 -47 19z"/>
<path d="M4365 12878 c-2 -7 -6 -33 -7 -58 -3 -41 -5 -45 -32 -48 -29 -4 -29
-3 -22 37 5 33 3 43 -9 47 -23 9 -55 -25 -55 -57 0 -60 105 -94 150 -49 34 34
24 140 -12 140 -5 0 -11 -6 -13 -12z"/>
<path d="M4791 12814 c-29 -37 -28 -89 3 -109 25 -17 98 -18 128 -3 48 24 42
98 -8 98 -24 0 -26 -3 -21 -29 6 -31 -5 -41 -44 -41 -23 0 -25 36 -4 64 11 14
12 23 4 33 -17 20 -35 16 -58 -13z"/>
<path d="M3745 12806 c-10 -15 -15 -40 -13 -62 3 -34 7 -39 46 -52 91 -30 144
10 121 93 -8 29 -15 36 -32 33 -19 -3 -22 -9 -22 -48 0 -43 -1 -45 -30 -45
-37 0 -46 32 -15 60 29 26 25 45 -10 45 -20 0 -35 -8 -45 -24z"/>
<path d="M2174 8325 c-8 -21 2 -32 36 -38 17 -4 49 -24 71 -46 l42 -40 1 -88
c1 -100 -11 -127 -69 -159 -36 -19 -42 -28 -25 -39 10 -6 51 13 87 42 33 26
63 117 63 189 0 63 -4 71 -65 142 -40 48 -128 71 -141 37z"/>
<path d="M1000 8246 c-42 -16 -112 -62 -123 -81 -11 -20 12 -29 31 -13 40 34
96 51 166 49 39 -1 78 -4 88 -7 19 -6 30 8 22 29 -3 9 -29 19 -68 26 -74 13
-72 13 -116 -3z"/>
<path d="M2091 8223 c-37 -41 -33 -68 10 -68 19 0 25 7 29 30 l5 29 33 -29
c25 -22 35 -41 39 -72 6 -47 24 -56 40 -20 20 44 -21 123 -79 153 -38 19 -40
19 -77 -23z"/>
<path d="M958 8106 c-87 -24 -176 -103 -208 -186 -7 -19 -17 -39 -21 -45 -19
-26 -47 -131 -38 -140 15 -14 36 18 44 67 4 23 25 75 46 117 59 115 110 146
258 157 64 5 76 11 60 30 -14 17 -77 17 -141 0z"/>
<path d="M1273 8094 c-3 -9 0 -26 7 -38 7 -11 16 -34 20 -51 8 -39 37 -46 46
-10 4 18 -1 40 -17 70 -25 47 -45 57 -56 29z"/>
<path d="M878 7939 c-30 -17 -20 -30 20 -27 25 2 37 8 37 18 0 18 -33 24 -57
9z"/>
<path d="M807 7859 c-10 -18 -15 -34 -11 -38 8 -8 44 37 44 55 0 23 -14 16
-33 -17z"/>
<path d="M1747 7880 c-9 -6 -26 -9 -36 -5 -21 6 -49 -21 -35 -35 14 -14 165 1
171 17 3 8 4 16 1 18 -10 11 -85 14 -101 5z"/>
<path d="M1453 7822 c-35 -19 -45 -33 -34 -50 11 -17 71 23 71 48 0 11 -1 20
-2 19 -2 0 -17 -8 -35 -17z"/>
<path d="M1298 7682 c-14 -15 -38 -58 -54 -97 -23 -59 -28 -84 -27 -160 0 -78
3 -97 27 -145 32 -63 105 -136 146 -145 26 -6 70 11 70 26 0 3 -18 14 -39 24
-77 34 -123 99 -150 210 -10 41 -9 63 3 120 18 85 31 121 51 141 8 9 15 22 15
29 0 26 -17 24 -42 -3z"/>
<path d="M1489 7648 c-58 -43 -65 -52 -90 -126 -24 -71 -21 -91 19 -171 21
-42 37 -58 74 -77 78 -40 145 -31 206 25 27 25 33 37 30 64 -3 37 -18 41 -34
9 -25 -50 -56 -72 -100 -72 -62 0 -106 25 -138 78 -26 43 -27 48 -17 106 19
107 87 152 211 137 70 -9 96 -20 152 -66 105 -87 97 -306 -16 -414 -20 -19
-36 -41 -36 -48 0 -52 135 74 146 137 4 19 12 51 19 70 17 48 0 170 -31 231
-45 91 -159 149 -289 149 -53 0 -67 -4 -106 -32z"/>
<path d="M1574 7539 c-11 -6 -28 -23 -37 -39 -32 -54 -15 -103 41 -119 47 -14
74 24 30 44 -33 15 -34 59 -3 83 44 35 22 56 -31 31z"/>
<path d="M2123 7454 c-3 -8 -1 -20 6 -27 6 -6 11 -22 11 -35 0 -27 38 -141 52
-156 30 -35 -16 -235 -82 -358 -7 -12 -5 -22 7 -34 15 -15 18 -14 34 8 10 12
19 33 19 45 0 12 6 34 14 50 56 113 80 261 51 317 -8 16 -15 46 -15 68 0 78
-76 175 -97 122z"/>
<path d="M1683 7064 c-7 -18 17 -38 31 -24 11 11 1 40 -14 40 -6 0 -13 -7 -17
-16z"/>
<path d="M1218 7042 c-39 -26 -91 -89 -117 -141 -39 -82 -21 -238 27 -229 18
4 19 29 6 115 -4 28 0 59 12 95 22 66 47 101 90 124 19 10 34 26 34 36 0 23
-18 23 -52 0z"/>
<path d="M1237 6938 c-54 -57 -71 -90 -62 -119 10 -30 44 -24 50 9 10 48 35
88 68 107 53 31 62 55 20 55 -20 0 -40 -14 -76 -52z"/>
<path d="M1353 6916 c-21 -19 -25 -27 -17 -36 18 -18 91 31 78 52 -9 15 -33 8
-61 -16z"/>
<path d="M1426 6822 c-27 -8 -55 -19 -62 -26 -6 -6 -39 -35 -72 -64 -71 -63
-103 -120 -108 -198 -3 -46 -1 -54 13 -52 13 3 16 -9 18 -72 3 -76 24 -149 54
-183 58 -68 241 -130 241 -82 0 11 -11 15 -39 15 -22 0 -43 5 -46 10 -3 6 -15
10 -27 10 -22 0 -89 67 -115 115 -9 17 -18 65 -20 111 -5 72 -2 88 18 130 30
61 110 141 189 190 54 33 70 38 140 42 73 4 85 2 136 -24 33 -17 72 -48 96
-77 23 -26 44 -45 49 -40 32 34 -71 156 -158 186 -69 25 -239 30 -307 9z m-66
-120 c0 -4 -9 -13 -20 -20 -11 -7 -20 -19 -20 -27 0 -8 -4 -15 -9 -15 -6 0
-24 -15 -40 -32 -39 -42 -59 -28 -29 20 29 47 118 103 118 74z"/>
<path d="M2377 6783 c-15 -14 -6 -34 21 -45 43 -19 99 -66 120 -101 11 -18 23
-54 27 -82 8 -64 21 -77 46 -46 36 44 19 126 -42 195 -22 25 -45 46 -51 46 -5
0 -21 9 -35 20 -25 19 -73 27 -86 13z"/>
<path d="M1479 6679 c-44 -22 -147 -131 -155 -165 -10 -41 1 -147 20 -186 16
-33 77 -78 106 -78 19 0 10 37 -15 60 -27 25 -55 104 -55 152 0 67 66 156 144
193 33 16 47 34 29 36 -5 0 -15 2 -23 4 -9 1 -32 -6 -51 -16z"/>
<path d="M2390 6652 c0 -12 9 -23 20 -27 11 -3 23 -17 26 -31 10 -40 54 -23
54 21 0 33 -15 46 -59 52 -37 5 -41 3 -41 -15z"/>
<path d="M1010 6533 c-117 -21 -198 -63 -266 -135 -60 -63 -97 -169 -92 -258
3 -51 5 -55 28 -55 27 0 29 14 15 80 -4 20 -3 25 3 17 6 -9 14 4 26 45 9 32
23 72 30 88 16 34 93 125 107 125 6 0 23 10 40 22 23 17 42 22 87 21 65 -2 87
10 71 38 -5 10 -13 18 -17 18 -4 -1 -18 -4 -32 -6z"/>
<path d="M1470 6492 c-20 -16 -22 -23 -14 -58 7 -29 15 -39 29 -39 17 0 21 8
23 49 4 59 -7 73 -38 48z"/>
<path d="M971 6416 c-9 -10 -9 -16 -1 -21 12 -7 40 11 40 26 0 14 -26 10 -39
-5z"/>
<path d="M790 6269 c-19 -31 -30 -62 -28 -78 1 -14 -1 -31 -5 -38 -15 -24 -9
-167 8 -208 27 -64 87 -146 104 -143 22 4 26 46 7 67 -34 37 -67 152 -69 235
-1 69 3 89 26 138 32 67 33 78 8 78 -12 0 -31 -18 -51 -51z"/>
<path d="M876 6008 c-9 -12 -16 -27 -16 -32 0 -5 24 -40 53 -78 38 -50 57 -68
72 -66 33 5 28 30 -20 88 -29 36 -45 65 -45 82 0 34 -23 37 -44 6z"/>
<path d="M660 5925 c0 -35 87 -145 115 -145 28 0 27 27 -2 72 -15 23 -32 52
-38 63 -13 26 -75 34 -75 10z"/>
<path d="M883 5753 c-20 -8 -15 -31 8 -38 25 -8 44 7 36 29 -6 16 -21 19 -44
9z"/>
<path d="M2073 6470 c-68 -10 -147 -58 -151 -92 -2 -13 4 -30 12 -37 13 -11
19 -9 38 12 32 34 74 53 142 66 65 12 62 13 129 -42 32 -28 50 -52 57 -79 12
-42 31 -49 54 -17 20 29 11 70 -22 97 -15 12 -41 35 -58 52 -52 50 -87 57
-201 40z"/>
<path d="M2275 5985 c-20 -15 -20 -16 -1 -28 10 -7 32 -23 47 -36 32 -25 59
-22 59 7 0 19 -34 62 -50 62 -4 0 -14 2 -22 5 -7 3 -22 -2 -33 -10z"/>
<path d="M2328 5849 c-11 -6 -18 -22 -18 -40 0 -39 -22 -89 -49 -113 -22 -20
-29 -56 -11 -56 37 0 111 66 125 111 10 29 -4 109 -18 109 -7 0 -20 -5 -29
-11z"/>
<path d="M4422 5703 c2 -52 7 -68 18 -68 18 0 32 58 24 103 -3 24 -10 32 -25
32 -18 0 -20 -6 -17 -67z"/>
<path d="M4362 5738 c-10 -13 -17 -80 -14 -125 1 -13 8 -23 16 -23 9 0 17 21
24 68 9 66 7 92 -8 92 -4 0 -12 -6 -18 -12z"/>
<path d="M4267 5703 c-4 -3 -7 -30 -7 -60 0 -46 3 -53 20 -53 14 0 21 9 26 35
11 59 -12 106 -39 78z"/>
<path d="M4187 5654 c-13 -13 -7 -61 8 -74 22 -19 37 0 33 41 -3 32 -24 49
-41 33z"/>
<path d="M4110 5585 c-16 -20 -6 -45 19 -45 25 0 34 14 26 40 -8 24 -28 26
-45 5z"/>
<path d="M3933 5519 c-17 -17 -4 -39 22 -39 26 0 50 24 40 40 -8 13 -48 13
-62 -1z"/>
<path d="M4506 5523 c-11 -11 -6 -23 9 -23 8 0 15 4 15 9 0 13 -16 22 -24 14z"/>
<path d="M4592 5398 c-18 -18 -24 -20 -31 -10 -10 16 -43 13 -48 -5 -5 -15 35
-56 47 -48 5 3 18 0 29 -7 27 -16 39 -3 43 46 4 47 -9 54 -40 24z"/>
<path d="M4430 5360 c0 -23 26 -38 41 -23 14 14 0 43 -22 43 -12 0 -19 -7 -19
-20z"/>
<path d="M4606 5188 c-1 -7 -10 -36 -19 -64 -26 -78 -22 -107 10 -86 36 23 60
162 28 162 -9 0 -17 -6 -19 -12z"/>
<path d="M4686 5188 c-2 -7 -11 -35 -20 -63 -25 -76 -19 -120 12 -82 16 21 54
136 47 147 -9 14 -35 12 -39 -2z"/>
<path d="M4446 5140 c-9 -22 -16 -53 -16 -69 0 -25 4 -29 37 -34 20 -4 42 -2
49 4 14 12 44 93 44 121 0 27 -29 22 -42 -7 -6 -14 -15 -25 -20 -25 -4 0 -8
11 -8 25 0 39 -26 30 -44 -15z"/>
<path d="M4377 5163 c-3 -5 -8 -29 -12 -55 -6 -39 -5 -48 8 -48 16 0 47 76 40
98 -5 13 -29 16 -36 5z"/>
<path d="M4293 5123 c-23 -9 -12 -73 12 -73 15 0 34 48 28 68 -5 12 -18 14
-40 5z"/>
<path d="M4170 5075 c-9 -11 -10 -19 -3 -26 17 -17 48 -6 48 16 0 25 -28 31
-45 10z"/>
<path d="M4349 4709 c-25 -31 -29 -43 -20 -52 10 -9 19 -4 42 23 28 33 39 70
20 70 -5 0 -24 -18 -42 -41z"/>
<path d="M4433 4722 c-9 -15 -26 -37 -37 -50 -18 -20 -18 -24 -6 -33 11 -7 23
0 46 26 18 20 34 44 37 55 8 31 -21 32 -40 2z"/>
<path d="M4237 4709 c-21 -16 -31 -18 -41 -10 -10 8 -21 8 -41 1 -43 -16 -25
-35 36 -37 58 -2 89 15 89 49 0 23 -8 22 -43 -3z"/>
<path d="M4574 4445 c-4 -8 -3 -26 0 -39 3 -14 2 -28 -4 -31 -5 -3 -10 1 -10
9 0 18 -40 22 -55 7 -6 -5 -21 -11 -34 -13 -22 -3 -25 -9 -27 -50 -3 -51 11
-63 36 -33 7 8 23 15 36 15 12 0 26 5 30 11 3 6 15 9 25 6 10 -3 25 0 32 7 18
14 28 87 15 109 -11 21 -37 22 -44 2z"/>
<path d="M4734 4439 c-3 -6 -1 -16 4 -21 13 -13 45 8 36 23 -7 12 -31 11 -40
-2z"/>
<path d="M4650 4410 c0 -13 7 -20 20 -20 13 0 20 7 20 20 0 13 -7 20 -20 20
-13 0 -20 -7 -20 -20z"/>
<path d="M4096 4385 c-7 -19 4 -84 16 -91 15 -9 38 17 38 43 0 14 4 21 10 18
6 -3 10 -19 10 -34 0 -31 16 -52 36 -44 17 6 17 36 0 83 -12 33 -16 35 -59 37
-31 1 -47 -2 -51 -12z"/>
<path d="M2957 4360 c-32 -17 -62 -28 -66 -26 -4 3 -41 6 -82 7 -41 1 -78 5
-84 9 -15 11 -121 21 -139 14 -9 -3 -16 -12 -16 -19 0 -15 116 -45 177 -45 21
-1 58 -5 82 -9 76 -15 226 39 218 79 -4 24 -29 22 -90 -10z"/>
<path d="M4000 4367 c0 -22 16 -47 31 -47 4 0 15 7 24 16 15 15 15 18 -1 35
-24 27 -54 25 -54 -4z"/>
<path d="M4310 4361 c-32 -5 -35 -9 -38 -43 -4 -42 9 -49 40 -21 14 13 21 14
30 5 17 -17 26 -15 38 8 8 14 8 26 0 40 -11 21 -13 21 -70 11z"/>
<path d="M2688 5830 c-26 -3 -56 -14 -68 -25 -18 -17 -19 -20 -6 -34 14 -13
19 -13 51 2 46 22 48 22 111 -8 37 -18 54 -31 56 -47 5 -37 42 -31 46 7 2 25
-4 34 -35 55 -21 14 -40 27 -43 31 -12 15 -69 24 -112 19z"/>
<path d="M1099 4301 c-22 -18 -24 -27 -23 -98 1 -48 8 -95 18 -123 10 -25 20
-57 23 -72 3 -17 23 -42 52 -65 25 -21 51 -43 56 -49 23 -25 114 -74 175 -93
53 -18 79 -20 140 -15 120 10 240 77 240 135 0 27 -8 24 -60 -20 -59 -50 -113
-64 -210 -57 -79 6 -136 22 -165 46 -10 8 -33 24 -52 35 -38 23 -110 107 -125
145 -36 92 -44 199 -17 216 6 3 5 11 -2 20 -15 18 -22 18 -50 -5z"/>
<path d="M1320 4054 c0 -17 73 -86 124 -118 25 -15 45 -18 121 -14 103 5 175
33 175 68 0 27 -11 25 -79 -11 -51 -27 -65 -31 -105 -25 -25 4 -48 11 -51 17
-4 5 -12 9 -20 9 -16 0 -96 52 -115 75 -17 20 -50 19 -50 -1z"/>
<path d="M1747 4718 c-12 -10 -17 -31 -18 -88 -2 -102 -1 -107 16 -114 34 -13
41 3 43 91 3 119 -4 138 -41 111z"/>
<path d="M1772 4468 c-18 -18 -15 -30 23 -110 38 -80 101 -172 139 -203 53
-44 71 -55 88 -55 10 0 29 -6 41 -14 25 -17 99 -16 104 0 2 7 -14 14 -38 18
-41 6 -154 75 -173 105 -5 8 -22 27 -37 44 -16 16 -29 36 -29 43 0 8 -4 14
-10 14 -5 0 -10 7 -10 15 0 9 -11 37 -25 63 -14 26 -25 52 -25 59 0 19 -35 34
-48 21z"/>
<path d="M2886 4147 c-9 -7 -21 -32 -27 -55 -13 -58 -80 -162 -132 -205 -51
-42 -161 -94 -216 -103 -26 -4 -41 -12 -41 -21 0 -12 10 -14 53 -8 71 9 113
24 174 62 29 18 57 33 62 33 14 0 111 118 111 135 0 7 6 20 13 27 23 23 35 51
42 101 8 51 -3 60 -39 34z"/>
<path d="M2750 4087 c-8 -7 -22 -25 -30 -41 -8 -16 -27 -42 -42 -57 -31 -31
-36 -49 -12 -49 43 0 114 82 114 132 0 30 -7 34 -30 15z"/>
<path d="M5236 2253 c-12 -12 -6 -33 9 -33 8 0 15 6 15 14 0 17 -14 28 -24 19z"/>
<path d="M7870 1959 c-10 -17 -9 -24 2 -36 22 -21 50 -6 46 26 -4 33 -33 39
-48 10z"/>
<path d="M7470 1620 c-19 -10 -48 -24 -64 -32 -42 -19 -60 -53 -60 -115 0 -65
9 -76 100 -109 55 -20 79 -24 121 -19 75 9 108 -11 121 -71 13 -59 2 -91 -45
-128 -35 -28 -37 -29 -67 -13 -17 8 -43 18 -58 21 -23 5 -28 12 -28 36 0 23
-5 31 -25 36 -36 9 -51 0 -80 -46 -19 -30 -25 -52 -23 -78 l3 -37 106 -1 c58
-1 122 -7 141 -13 32 -11 44 -9 94 11 118 47 134 136 54 298 -6 14 -51 39
-105 61 -11 4 -42 10 -68 12 -57 5 -141 46 -145 71 -6 31 25 64 67 71 33 5 48
2 85 -20 24 -14 50 -32 56 -40 22 -26 47 -17 69 26 20 38 21 43 6 59 -10 11
-38 19 -83 23 -37 4 -83 9 -102 11 -23 3 -47 -2 -70 -14z"/>
<path d="M5430 1578 c-98 -51 -113 -72 -136 -179 -17 -81 -8 -158 25 -208 32
-49 97 -101 159 -126 72 -29 90 -30 154 -11 60 19 81 30 143 79 86 67 115 185
77 308 -17 55 -70 129 -93 129 -6 0 -28 10 -47 22 -26 16 -56 23 -116 26 -80
4 -82 4 -166 -40z m242 -65 c15 -14 36 -48 49 -77 19 -44 21 -62 16 -140 -5
-74 -9 -92 -28 -110 -47 -44 -74 -56 -127 -56 -47 0 -57 4 -88 34 -59 57 -75
99 -73 191 2 73 5 84 32 119 58 74 162 92 219 39z"/>
<path d="M6590 1609 c0 -3 11 -15 23 -26 l24 -20 -4 -224 c-4 -205 -6 -226
-24 -245 -10 -11 -19 -30 -19 -42 0 -22 2 -22 83 -17 45 3 95 8 110 10 16 3
37 0 48 -6 14 -7 27 -6 47 4 15 8 52 26 82 41 163 80 210 171 175 336 -19 88
-49 126 -135 168 -53 26 -61 26 -232 27 -98 0 -178 -3 -178 -6z m310 -72 c61
-33 71 -43 101 -107 16 -35 20 -57 16 -98 -6 -56 -34 -142 -48 -142 -4 0 -29
-18 -54 -40 -32 -27 -56 -40 -78 -41 -34 -1 -60 1 -65 6 -3 3 -14 200 -13 250
1 127 5 182 14 193 16 20 65 11 127 -21z"/>
<path d="M5960 1600 c0 -6 6 -21 14 -33 11 -16 16 -78 22 -243 l7 -222 -27
-17 c-18 -12 -26 -25 -24 -39 3 -20 9 -21 91 -20 48 0 92 5 97 10 15 15 1 44
-20 44 -24 0 -29 17 -18 65 5 22 6 59 3 83 -8 56 5 72 60 72 39 0 44 -3 59
-35 9 -19 32 -52 51 -72 19 -21 37 -49 40 -63 4 -14 28 -42 56 -64 45 -34 55
-38 91 -33 47 6 59 20 56 60 -3 27 -39 56 -117 94 -24 11 -51 42 -61 69 -13
33 -13 40 3 56 23 24 47 67 47 85 1 10 7 29 14 41 16 29 3 129 -20 152 -12 12
-54 16 -219 18 -142 2 -205 0 -205 -8z m295 -36 c44 -6 55 -31 45 -96 -12 -79
-46 -102 -135 -92 l-53 7 0 82 c0 121 1 122 143 99z"/>
<path d="M5080 1593 c-43 -13 -43 -13 -30 -28 7 -8 22 -15 34 -15 12 0 30 -6
39 -13 16 -11 16 -16 -9 -77 -14 -36 -29 -69 -34 -75 -4 -5 -10 -22 -14 -37
-8 -37 -35 -36 -71 2 -15 16 -32 27 -37 24 -5 -3 -7 -1 -6 4 2 5 -10 26 -26
46 -29 36 -29 37 -89 31 -72 -7 -82 -14 -111 -80 -35 -77 -47 -82 -83 -37 -32
40 -73 110 -73 125 0 5 -11 22 -25 39 -14 16 -25 40 -25 52 0 22 -5 23 -85 30
-98 7 -160 -9 -148 -40 5 -13 15 -15 54 -11 58 7 66 0 124 -116 23 -45 67
-133 98 -195 31 -62 57 -119 57 -127 0 -9 -10 -15 -24 -15 -24 0 -75 -34 -66
-43 3 -3 55 -7 115 -9 l110 -3 -3 60 c-1 33 -7 62 -12 63 -44 15 -51 64 -15
113 13 19 32 51 41 72 20 45 59 61 81 32 7 -11 13 -25 13 -32 0 -14 43 -87 66
-113 52 -57 65 -81 62 -112 -3 -31 -5 -33 -48 -36 -57 -4 -70 -16 -45 -41 15
-15 36 -20 85 -21 117 -4 130 -2 130 19 0 15 -6 19 -27 18 l-28 -2 2 66 c2 49
9 79 28 114 14 26 25 54 25 61 0 13 96 255 102 258 27 12 44 26 46 38 2 12
-12 15 -80 15 -46 0 -90 -2 -98 -4z"/>
<path d="M3912 1563 c-100 -53 -116 -149 -36 -212 22 -18 41 -21 113 -21 114
0 144 -17 160 -89 9 -45 8 -54 -10 -85 -11 -20 -35 -44 -52 -55 -28 -16 -41
-18 -102 -10 -84 11 -115 31 -136 90 -13 37 -19 44 -40 41 -13 -1 -26 -7 -27
-13 -11 -31 -74 -107 -105 -128 -60 -40 -49 -51 51 -52 48 0 119 -3 157 -6
189 -12 265 4 332 69 41 41 43 44 43 104 0 43 -5 69 -17 85 -10 13 -23 33 -29
44 -7 12 -21 19 -33 18 -12 -2 -21 1 -21 5 0 21 -67 39 -131 34 -61 -4 -66 -2
-82 21 -48 74 -25 102 81 95 56 -4 67 -8 84 -31 29 -40 53 -34 88 21 40 63 39
78 -6 85 -20 4 -44 2 -53 -2 -14 -8 -49 -4 -146 14 -21 4 -45 -3 -83 -22z"/>
<path d="M1640 1527 c-81 -29 -99 -39 -128 -70 -24 -25 -77 -155 -68 -165 3
-2 1 -13 -5 -23 -18 -35 14 -123 66 -181 90 -101 178 -121 355 -84 71 16 80
20 80 36 0 25 -16 28 -90 19 -52 -6 -67 -5 -76 7 -6 7 -20 14 -32 14 -11 0
-22 7 -26 15 -3 8 -12 15 -20 15 -8 0 -30 26 -50 58 -32 53 -34 62 -30 121 3
49 9 71 29 97 35 46 57 56 118 52 46 -3 54 -7 72 -35 11 -18 26 -34 33 -37 22
-9 60 36 74 86 13 53 7 67 -33 74 -13 2 -46 8 -74 13 -79 15 -125 12 -195 -12z"/>
<path d="M2208 1542 c-89 -2 -98 -5 -98 -22 0 -10 9 -22 20 -25 11 -3 22 -16
24 -28 9 -44 16 -164 17 -282 0 -111 -1 -121 -20 -134 -26 -16 -27 -36 -3 -46
27 -11 355 -10 377 2 11 6 32 13 46 16 19 5 35 23 57 66 29 53 30 60 16 72
-14 12 -20 9 -45 -21 -16 -19 -36 -43 -44 -52 -8 -10 -26 -18 -40 -18 -14 0
-34 -6 -45 -12 -17 -11 -22 -10 -29 0 -6 10 -20 12 -57 6 -27 -5 -53 -9 -59
-9 -10 0 -13 33 -16 154 -1 44 3 66 12 72 27 17 41 9 56 -31 22 -55 54 -56 54
-2 1 20 1 58 2 84 1 26 -1 49 -4 52 -13 13 -49 -9 -58 -36 -8 -23 -16 -29 -33
-26 -22 3 -23 7 -23 83 l0 80 68 8 c38 5 75 6 82 3 8 -3 17 -26 20 -53 10 -69
15 -83 30 -83 24 0 33 33 32 110 l-2 74 -120 0 c-66 1 -164 0 -217 -2z"/>
<path d="M956 1510 c-38 -7 -44 -26 -11 -34 14 -4 25 -13 25 -22 0 -8 -24 -65
-54 -127 -29 -62 -59 -130 -66 -152 -7 -22 -17 -45 -22 -51 -5 -7 -16 -36 -26
-65 -16 -50 -19 -54 -49 -54 -36 0 -48 -8 -40 -29 5 -11 18 -13 59 -10 61 6
82 19 69 42 -6 11 -5 25 4 42 23 44 55 116 55 126 0 5 10 22 23 37 21 27 27
28 128 33 123 6 120 8 132 -81 4 -33 10 -76 13 -96 6 -39 -6 -55 -45 -61 -14
-1 -26 -9 -29 -15 -5 -16 65 -21 203 -13 71 4 100 31 52 49 -17 7 -26 24 -40
74 -9 36 -17 79 -17 95 0 16 -6 35 -14 41 -8 7 -19 44 -26 84 -6 40 -15 86
-21 103 -5 17 -9 37 -9 46 0 9 -14 21 -31 28 -31 13 -210 20 -263 10z m165
-67 c6 -16 14 -50 18 -76 10 -62 -4 -73 -88 -69 -73 4 -79 13 -61 77 17 59 50
95 90 95 24 0 33 -6 41 -27z"/>
<path d="M3034 1223 c-46 -16 -64 -44 -64 -98 0 -50 8 -64 53 -86 35 -18 46
-20 78 -10 50 15 79 57 79 113 0 23 -4 49 -9 57 -8 12 -78 43 -91 40 -3 -1
-24 -8 -46 -16z m67 -53 c21 -12 27 -70 8 -70 -15 0 -79 40 -79 49 0 12 23 31
38 31 7 0 22 -5 33 -10z"/>
</g>
</svg>
