<?xml version="1.0" standalone="no"?>
<!DOCTYPE svg PUBLIC "-//W3C//DTD SVG 20010904//EN"
 "http://www.w3.org/TR/2001/REC-SVG-20010904/DTD/svg10.dtd">
<svg version="1.0" xmlns="http://www.w3.org/2000/svg"
 width="837.000000pt" height="1417.000000pt" viewBox="0 0 837.000000 1417.000000"
 preserveAspectRatio="xMidYMid meet">
<metadata>
Created by potrace 1.16, written by Peter Selinger 2001-2019
</metadata>
<g transform="translate(0.000000,1417.000000) scale(0.100000,-0.100000)"
fill="#000000" stroke="none">
<path d="M501 13773 c-7 -14 -13 -15 -34 -6 -25 11 -37 8 -37 -9 0 -5 5 -6 11
-2 13 8 3 -33 -13 -53 -5 -7 -7 -17 -3 -23 4 -6 2 -16 -3 -23 -17 -20 -37
-983 -21 -993 4 -2 5 -77 2 -167 -3 -89 -5 -207 -3 -262 1 -55 1 -192 0 -305
-1 -113 -4 -513 -6 -890 -3 -377 -5 -707 -5 -735 -1 -85 -2 -566 -1 -645 0
-41 0 -149 0 -240 -1 -192 -1 -195 2 -235 1 -16 1 -246 0 -510 -1 -264 1 -510
5 -546 4 -40 3 -88 -4 -120 -8 -35 -12 -243 -14 -595 -2 -522 -1 -541 17 -560
18 -17 18 -19 3 -22 -19 -4 -19 -7 -19 -132 0 -47 0 -170 0 -275 -1 -259 -1
-269 4 -445 2 -85 7 -161 11 -167 5 -7 4 -13 -1 -13 -5 0 -9 -85 -9 -195 0
-193 0 -195 21 -189 21 6 21 6 1 -11 -13 -10 -16 -18 -8 -21 11 -5 1 -62 -15
-89 -14 -22 -15 -29 -21 -195 -2 -30 -2 -118 -2 -195 1 -77 0 -167 -2 -200 -3
-48 -1 -63 14 -75 19 -16 37 -70 23 -70 -5 0 -10 12 -10 26 -3 45 -24 48 -24
3 -2 -160 2 -239 14 -246 7 -5 16 -21 20 -36 4 -19 3 -26 -4 -22 -5 3 -10 13
-10 22 0 9 -3 13 -7 9 -4 -4 -10 -39 -14 -79 -6 -58 -4 -75 8 -89 12 -13 13
-21 5 -31 -13 -16 -19 -132 -8 -165 8 -23 8 -23 34 -5 24 16 48 18 214 16 104
-1 198 1 210 6 12 4 39 4 60 -1 32 -7 42 -5 60 12 14 13 36 20 59 20 20 0 42
7 49 15 10 12 8 16 -13 24 -14 5 -34 7 -44 5 -23 -6 -46 17 -37 39 3 9 16 19
27 22 12 4 33 11 46 18 19 10 25 8 37 -8 8 -10 14 -26 14 -35 0 -27 30 -80 45
-80 8 0 17 10 21 23 3 12 13 30 21 39 20 22 9 73 -13 64 -20 -8 -58 29 -51 49
9 22 36 30 58 17 22 -14 59 -16 59 -3 0 13 49 18 80 10 14 -4 37 -10 53 -13
25 -6 27 -10 27 -61 0 -29 -4 -57 -10 -60 -5 -3 -31 -7 -57 -9 -37 -2 -49 -7
-51 -20 -2 -10 1 -23 6 -28 17 -17 87 -11 133 11 37 18 43 19 53 5 10 -13 37
-15 156 -15 215 1 373 21 349 45 -2 3 -88 6 -191 8 -178 4 -211 8 -194 25 10
11 894 5 1050 -6 4 -1 5 -20 1 -44 -3 -23 -8 -62 -9 -87 -2 -25 -4 -51 -5 -58
-1 -10 -17 -12 -63 -10 -63 3 -86 20 -35 26 30 4 36 20 10 28 -10 3 -28 10
-39 16 -14 7 -56 7 -115 2 -52 -4 -97 -7 -100 -6 -4 1 -107 3 -229 6 -123 3
-226 10 -229 15 -3 5 -52 9 -107 9 -56 0 -112 3 -124 7 -14 4 -28 1 -40 -10
-13 -12 -46 -19 -112 -23 -90 -7 -93 -8 -96 -33 l-3 -25 -156 -2 c-116 -1
-154 1 -146 9 7 7 46 11 97 11 80 -1 110 9 90 28 -5 4 -51 10 -102 13 -85 4
-95 3 -113 -16 -18 -19 -32 -21 -301 -24 -156 -2 -292 -5 -303 -6 -30 -3 -62
-25 -50 -34 17 -13 32 -107 22 -139 -13 -45 -11 -246 3 -289 10 -29 10 -39 0
-45 -8 -5 -10 -18 -6 -36 6 -30 7 -269 2 -464 -3 -98 -6 -655 -5 -700 2 -38
-13 -1150 -16 -1265 -5 -144 5 -191 35 -175 16 8 18 55 25 612 5 332 8 619 8
638 -1 39 -2 186 -1 210 0 8 0 89 0 180 0 91 1 253 2 360 1 107 3 284 4 394 2
166 4 197 16 187 12 -10 69 -12 289 -11 38 1 67 5 67 11 0 6 5 7 13 2 6 -4
131 -9 277 -10 146 -2 272 -3 280 -3 8 0 94 -1 190 -2 96 0 344 -2 550 -3 235
-1 380 1 388 8 8 7 12 5 12 -5 0 -12 16 -15 71 -16 40 -1 74 -3 76 -5 2 -3 8
-69 13 -148 12 -167 27 -290 38 -301 6 -6 142 -12 530 -21 77 -2 87 -9 106
-70 7 -23 35 -33 56 -19 14 9 19 8 24 -3 3 -8 13 -15 21 -15 34 0 8 -34 -45
-62 -30 -15 -60 -28 -67 -28 -17 0 -80 -66 -86 -91 -3 -13 2 -28 14 -40 15
-15 35 -19 107 -21 189 -3 192 -3 362 57 52 18 122 41 155 51 33 10 68 23 77
28 11 7 25 6 45 -3 33 -16 53 -19 191 -24 56 -3 102 -1 102 3 0 4 12 5 26 2
27 -5 170 15 194 28 13 7 54 12 180 23 19 2 54 -5 78 -15 24 -10 54 -18 67
-18 13 0 27 -4 30 -10 3 -5 15 -10 26 -10 11 0 32 -13 47 -29 31 -34 69 -51
115 -51 18 0 41 -7 51 -15 13 -10 43 -15 81 -15 51 0 65 4 83 23 12 13 22 25
22 28 0 2 -33 4 -72 5 -126 2 -189 20 -259 75 -20 16 -45 29 -55 29 -37 0
-114 34 -114 49 0 26 12 35 70 58 69 26 127 35 151 22 12 -6 26 -6 37 -1 28
16 61 -4 136 -82 39 -41 81 -77 93 -80 12 -4 25 -16 29 -28 l6 -20 22 21 c18
19 19 23 6 31 -32 18 -92 70 -112 97 -12 15 -35 43 -52 61 l-30 32 20 20 c18
19 35 20 219 23 110 1 205 6 212 10 6 4 11 32 11 64 1 32 3 90 7 128 3 39 8
104 12 145 3 41 9 82 14 91 7 13 45 15 326 11 342 -5 489 -5 678 -3 233 3
1065 -5 1070 -11 6 -6 6 -324 1 -708 -2 -118 -4 -314 -4 -435 0 -509 -1 -578
-11 -628 -6 -29 -13 -199 -16 -378 -4 -283 -12 -410 -26 -424 -6 -5 -117 -6
-174 -1 -27 2 -333 4 -680 5 -346 0 -772 1 -945 2 -476 2 -1165 4 -1350 2 -91
0 -210 1 -265 3 -385 12 -1456 16 -2420 8 -743 -6 -703 -6 -827 -4 -83 1 -158
-14 -158 -32 0 -4 0 -11 0 -15 1 -5 12 -7 25 -5 12 2 26 -1 29 -7 4 -6 74 -10
176 -10 94 0 175 -3 180 -6 5 -3 11 -2 13 2 6 9 3434 9 3577 0 52 -3 195 -8
318 -11 122 -3 227 -8 232 -11 5 -3 11 -1 15 5 6 9 691 7 700 -2 2 -2 43 -2
92 0 48 2 106 4 128 3 37 0 93 -1 138 -1 9 0 44 0 77 -1 33 0 88 0 123 1 35 1
67 0 73 -1 5 -1 11 -1 14 0 3 1 212 3 465 5 253 2 471 7 485 11 14 5 35 15 48
24 l22 16 4 690 c2 380 5 764 6 855 1 91 2 341 2 555 0 215 1 401 1 415 0 54
-1 477 -1 515 -1 22 0 56 0 75 1 19 1 46 1 60 -3 221 -6 481 -5 540 0 41 0 86
0 100 -1 14 2 93 6 175 5 83 7 350 6 595 0 245 -1 459 -1 475 2 248 -1 682 -5
795 -8 197 -8 191 0 402 5 127 3 188 -4 193 -6 3 -7 12 -3 18 5 7 9 113 9 237
1 124 5 349 9 500 4 151 9 379 10 505 2 127 6 280 9 340 3 61 8 245 11 410 3
165 8 390 10 500 3 110 4 358 3 550 -1 439 3 1048 8 1140 5 81 5 114 -3 405
-6 253 -5 493 3 570 3 30 7 145 9 255 2 110 6 218 9 240 3 22 5 112 5 200 0
88 1 269 1 402 2 265 -3 318 -28 328 -9 3 -45 9 -79 12 -47 4 -63 3 -63 -7 0
-10 -3 -10 -14 -1 -17 15 -424 24 -821 19 -451 -5 -1169 -3 -1763 6 -442 7
-565 6 -577 -4 -11 -9 -15 -9 -15 -1 0 8 -19 12 -57 11 -32 -1 -125 -2 -208
-1 -82 0 -190 1 -240 1 -49 0 -99 0 -110 1 -11 1 -45 1 -75 1 -30 -1 -405 1
-834 4 -598 3 -782 2 -793 -8 -10 -8 -17 -8 -21 -1 -4 6 -40 11 -79 12 -40 0
-76 1 -80 2 -34 6 -123 -3 -118 -11 3 -5 1 -10 -4 -10 -6 0 -11 4 -11 9 0 5
-45 10 -101 10 -59 1 -98 -3 -94 -8 3 -5 1 -12 -4 -15 -5 -4 -11 1 -13 10 -2
13 -15 18 -48 19 -25 2 -49 0 -54 -3 -10 -5 -65 -4 -142 3 -21 2 -48 -1 -60
-5 -14 -6 -26 -5 -29 1 -10 15 -775 12 -775 -3 0 -9 -3 -9 -12 0 -17 17 -35
15 -47 -5z m63 -54 c-2 -3 32 -5 74 -6 42 0 95 0 117 -1 22 0 76 1 120 2 44 2
97 4 118 5 29 1 40 6 47 24 6 16 9 17 9 5 1 -9 11 -20 22 -23 12 -4 299 -7
638 -6 339 0 623 0 631 0 61 -4 464 -9 1240 -14 768 -6 956 -6 1035 -5 6 1 89
-1 185 -4 142 -4 1356 -20 1410 -18 36 0 559 0 695 -1 83 0 227 3 320 7 180 8
239 8 277 0 13 -2 80 -5 149 -5 l126 0 5 -57 c3 -31 4 -84 2 -117 -1 -33 -2
-76 -1 -95 2 -48 2 -137 0 -315 -1 -82 -2 -256 -3 -385 -1 -237 -5 -260 -39
-260 -9 0 -36 -14 -58 -30 -38 -28 -64 -63 -176 -237 -24 -38 -58 -89 -75
-116 -17 -26 -29 -53 -26 -61 4 -10 0 -13 -14 -10 -14 4 -22 -2 -32 -27 -8
-18 -28 -48 -45 -67 -16 -20 -39 -50 -50 -67 -27 -44 -107 -152 -146 -198 -18
-21 -54 -71 -80 -112 -27 -41 -58 -85 -68 -97 -11 -13 -56 -76 -100 -140 -113
-164 -165 -237 -199 -278 -16 -19 -36 -48 -45 -65 -9 -16 -35 -50 -58 -75 -23
-25 -53 -63 -68 -85 -14 -22 -45 -66 -68 -97 -24 -31 -43 -62 -43 -67 0 -6 -8
-15 -18 -20 -10 -5 -31 -29 -47 -53 -16 -24 -51 -71 -77 -104 -26 -34 -48 -66
-48 -71 0 -8 -52 -78 -118 -158 -9 -11 -38 -53 -65 -92 -26 -40 -54 -76 -61
-80 -7 -5 -26 -28 -41 -53 -15 -25 -49 -72 -74 -105 -56 -73 -80 -105 -127
-173 -20 -28 -56 -69 -80 -91 -24 -21 -44 -43 -44 -49 0 -6 -6 -17 -13 -24 -7
-7 -30 -38 -50 -68 -20 -30 -51 -74 -69 -97 -33 -41 -82 -105 -165 -216 -24
-31 -43 -61 -43 -65 0 -4 -18 -27 -40 -52 -22 -25 -54 -65 -70 -90 -17 -25
-49 -66 -73 -91 -53 -58 -157 -191 -156 -202 0 -4 -7 -15 -16 -23 -17 -18 -20
-34 -5 -34 6 0 10 -7 10 -15 0 -8 -4 -15 -10 -15 -5 0 -10 7 -10 15 0 24 -18
17 -34 -13 -8 -15 -25 -33 -38 -39 -14 -6 -31 -30 -42 -59 -11 -27 -27 -57
-38 -67 -10 -10 -18 -24 -18 -32 0 -31 -38 -13 -103 50 -37 36 -72 65 -77 65
-5 0 -20 11 -33 24 -22 22 -25 36 -32 153 -8 125 -8 141 -5 193 1 14 1 39 -1
57 -1 22 6 43 24 66 l26 35 -16 93 c-8 52 -22 106 -29 121 -8 15 -14 38 -14
53 0 14 -3 25 -8 25 -4 0 -16 16 -27 36 -24 45 -65 74 -104 74 -17 0 -46 8
-66 17 -31 15 -43 15 -98 4 -34 -7 -69 -19 -77 -26 -11 -10 -20 -11 -33 -4
-13 8 -22 7 -33 -2 -12 -10 -13 -9 -8 5 5 12 0 16 -17 17 -33 1 -79 7 -109 14
-49 13 -138 -17 -198 -65 -57 -46 -66 -58 -102 -142 -24 -56 -26 -135 -5 -204
14 -47 14 -50 -6 -66 -21 -18 -22 -26 -19 -148 1 -36 -3 -85 -9 -110 -13 -56
0 -153 23 -179 16 -17 15 -20 -19 -50 -20 -17 -54 -43 -75 -56 -21 -13 -45
-33 -53 -45 -15 -22 -29 -14 -41 25 -3 11 -31 47 -62 80 -30 33 -61 74 -69 90
-7 17 -25 42 -39 57 -14 15 -26 30 -26 34 0 3 -11 20 -25 38 -14 17 -76 105
-136 196 -61 91 -131 192 -155 225 -24 33 -47 67 -51 75 -4 8 -30 44 -57 80
-62 78 -201 281 -237 346 -15 25 -31 49 -37 53 -13 8 -122 168 -122 179 0 5
-9 17 -20 27 -11 10 -20 24 -20 30 0 7 -27 49 -60 93 -33 45 -60 85 -60 90 0
4 -16 23 -35 42 -19 19 -35 38 -35 43 0 5 -24 41 -53 81 -29 39 -71 98 -92
131 -35 53 -125 182 -148 210 -4 6 -21 25 -37 44 -17 19 -30 38 -30 43 0 11
-61 105 -99 152 -17 21 -31 43 -31 48 0 5 -15 29 -34 52 -34 40 -97 132 -213
306 -31 47 -65 94 -76 105 -10 11 -38 50 -63 87 -24 37 -56 82 -72 100 -24 29
-86 119 -259 375 -52 76 -62 91 -113 156 -44 56 -70 96 -70 106 0 6 -8 18 -18
28 -10 10 -42 51 -71 91 -29 39 -57 72 -61 72 -5 0 -22 14 -39 31 -17 17 -35
28 -41 24 -16 -10 -12 -22 18 -52 16 -15 29 -31 30 -35 1 -5 9 -16 17 -25 8
-10 32 -37 52 -61 20 -24 51 -49 70 -57 18 -8 33 -20 33 -26 0 -10 -3 -10 -12
-1 -16 16 -38 15 -38 -2 0 -15 46 -79 84 -116 14 -14 26 -30 26 -34 0 -5 17
-32 39 -60 21 -28 51 -71 67 -95 53 -81 59 -89 92 -133 18 -24 58 -81 88 -128
30 -47 64 -98 77 -114 12 -16 57 -84 100 -150 43 -67 83 -125 91 -131 7 -5 29
-35 48 -65 40 -60 166 -241 238 -341 25 -34 52 -72 60 -84 35 -52 143 -205
208 -294 18 -24 32 -49 32 -55 0 -6 9 -17 20 -24 11 -7 20 -17 20 -22 0 -6 22
-41 49 -78 26 -37 56 -83 66 -102 10 -19 36 -58 59 -87 49 -62 158 -216 259
-365 123 -183 220 -323 226 -328 4 -3 33 -45 66 -94 65 -96 147 -219 167 -250
7 -10 22 -31 34 -45 20 -25 79 -112 119 -176 11 -17 35 -50 53 -72 17 -23 32
-45 32 -50 0 -6 11 -22 25 -37 38 -41 32 -72 -18 -89 -13 -5 -28 8 -62 56 -25
34 -48 67 -52 72 -5 6 -21 30 -37 54 -16 25 -33 50 -38 55 -5 6 -23 34 -40 61
-18 28 -35 52 -38 55 -3 3 -26 37 -50 75 -25 39 -64 95 -87 127 -24 31 -43 59
-43 63 0 4 -16 28 -36 53 -41 54 -194 274 -209 300 -5 10 -25 37 -43 60 -19
23 -62 86 -97 139 -36 54 -85 125 -110 159 -25 33 -45 65 -45 71 0 5 -25 41
-55 79 -30 38 -61 85 -70 104 -9 19 -21 40 -28 45 -7 6 -37 47 -66 93 -30 45
-59 82 -63 82 -4 0 -8 6 -8 13 0 6 -18 37 -40 67 -22 30 -64 91 -95 135 -30
44 -72 105 -93 135 -79 113 -102 148 -102 154 0 8 -148 227 -184 271 -18 22
-48 66 -66 98 -18 31 -41 62 -51 68 -10 5 -19 18 -19 29 0 10 -6 25 -14 33
-16 16 -106 145 -152 217 -17 27 -44 66 -60 87 -16 21 -33 45 -39 54 -5 9 -23
36 -40 60 -16 24 -32 49 -35 54 -21 43 -206 308 -220 315 -10 5 -39 45 -65 87
-25 43 -57 95 -70 115 -22 33 -23 39 -10 52 12 11 14 32 10 93 -3 43 -8 193
-11 333 -3 140 -6 260 -6 265 0 6 2 89 6 185 4 96 8 228 10 293 3 104 6 121
25 141 15 16 19 29 14 42 -6 16 -2 15 24 -6 17 -14 29 -28 27 -31z m3296 21
c0 -5 -2 -10 -4 -10 -3 0 -8 5 -11 10 -3 6 -1 10 4 10 6 0 11 -4 11 -10z
m3900 -1376 c0 -3 -11 -15 -24 -25 -13 -10 -38 -47 -55 -81 -17 -35 -52 -90
-76 -123 -84 -113 -145 -200 -232 -330 -94 -140 -143 -208 -156 -213 -4 -2
-17 -20 -28 -40 -11 -21 -33 -55 -50 -77 -26 -35 -170 -245 -254 -371 -16 -25
-63 -91 -103 -147 -40 -56 -89 -126 -109 -154 -20 -29 -39 -53 -43 -53 -3 0
-17 -19 -30 -42 -13 -24 -33 -55 -44 -70 -52 -67 -110 -147 -142 -198 -20 -30
-42 -59 -48 -65 -16 -13 -136 -172 -136 -180 0 -3 -17 -28 -37 -55 -21 -27
-58 -79 -83 -115 -25 -37 -56 -81 -70 -100 -14 -19 -50 -69 -80 -112 -30 -43
-78 -109 -107 -148 -115 -155 -207 -280 -273 -370 -30 -42 -75 -104 -101 -138
-25 -34 -56 -80 -69 -102 -13 -22 -32 -48 -41 -58 -9 -10 -43 -55 -75 -100
-31 -45 -63 -86 -69 -92 -7 -5 -35 -44 -63 -85 -27 -41 -60 -85 -71 -97 -11
-12 -34 -43 -50 -68 -26 -41 -30 -44 -45 -30 -8 9 -31 22 -51 30 -19 9 -35 19
-35 24 0 5 20 31 45 58 25 26 48 56 51 66 3 10 21 34 39 53 18 18 55 64 81
101 26 38 73 99 103 137 31 38 74 94 95 125 22 31 42 58 46 61 3 3 19 23 35
45 16 22 40 51 53 65 14 14 42 50 63 80 22 30 60 84 85 120 26 36 62 82 81
103 19 21 50 62 69 90 57 86 97 141 144 202 41 53 125 169 185 255 13 19 39
54 57 77 80 101 312 414 317 427 4 11 67 91 103 131 10 11 33 41 51 67 17 26
70 99 117 162 47 64 94 130 105 146 11 17 50 70 86 118 36 48 72 98 79 112 7
13 38 58 69 98 31 41 61 82 66 91 6 9 21 30 35 47 14 17 36 46 50 64 14 17 40
49 58 70 18 21 43 59 57 84 27 50 36 63 78 108 15 16 27 33 27 37 0 4 9 16 19
25 10 9 40 53 66 96 25 44 51 82 56 85 5 3 28 38 51 78 23 40 51 80 62 89 20
17 66 25 66 12z m15 -111 c-7 -43 -45 -123 -57 -123 -4 0 -17 -18 -28 -40 -21
-42 -125 -193 -169 -247 -40 -49 -127 -179 -181 -272 -27 -47 -56 -89 -65 -93
-8 -5 -15 -15 -15 -22 0 -7 -11 -23 -25 -36 -14 -13 -25 -26 -25 -30 0 -3 -33
-55 -72 -114 -40 -59 -93 -138 -118 -176 -25 -37 -60 -89 -78 -116 -18 -27
-56 -86 -85 -130 -51 -80 -153 -230 -192 -284 -11 -15 -33 -47 -50 -71 -16
-24 -44 -61 -63 -82 -18 -21 -37 -48 -41 -60 -5 -12 -35 -58 -66 -102 -32 -44
-64 -93 -72 -110 -7 -16 -47 -77 -88 -135 -41 -58 -95 -139 -121 -180 -25 -41
-57 -88 -70 -105 -14 -16 -28 -34 -32 -40 -4 -5 -13 -24 -21 -41 -7 -17 -28
-46 -47 -65 -19 -18 -34 -37 -34 -41 0 -5 -11 -21 -25 -36 -22 -23 -120 -161
-150 -211 -5 -9 -13 -18 -16 -21 -13 -11 -89 -130 -89 -138 0 -5 -18 -28 -40
-50 -22 -22 -50 -62 -61 -88 -12 -27 -37 -66 -55 -87 -19 -20 -34 -41 -34 -47
0 -5 -20 -34 -44 -63 -24 -30 -51 -67 -60 -83 -9 -16 -32 -49 -51 -74 -18 -25
-54 -74 -79 -110 -25 -36 -56 -78 -69 -95 l-25 -29 -27 32 c-15 18 -33 32 -41
32 -28 0 -26 30 2 64 45 53 119 158 137 193 9 17 20 33 25 35 4 1 30 35 57 73
27 39 55 75 61 80 15 13 138 178 242 324 46 64 90 125 98 136 8 11 26 39 42
61 26 41 160 220 248 336 24 31 44 61 44 67 0 5 6 14 13 18 7 4 28 31 47 58
51 75 100 145 153 218 26 36 47 70 47 75 0 5 9 17 20 27 11 10 20 23 20 29 1
11 11 26 98 139 23 31 42 59 42 62 0 3 33 49 73 102 39 53 89 121 110 152 22
31 42 58 46 61 8 5 58 75 101 140 59 89 89 131 160 225 41 55 94 129 117 165
23 36 52 79 63 95 18 25 79 118 115 174 6 9 24 33 42 53 18 20 41 55 52 77 12
22 25 43 31 46 16 10 84 106 98 138 7 16 38 62 70 104 31 41 70 96 86 122 49
77 117 171 123 171 3 0 2 -17 -2 -37z m-7205 -120 c0 -7 4 -13 8 -13 4 0 18
-20 30 -44 11 -25 44 -76 72 -115 27 -39 50 -76 50 -81 0 -6 4 -10 9 -10 5 0
16 -16 25 -35 9 -19 21 -35 25 -35 5 0 14 -14 22 -31 7 -18 22 -44 35 -58 12
-14 35 -47 50 -73 16 -25 64 -96 107 -157 42 -62 77 -116 77 -121 0 -5 18 -30
40 -55 22 -25 40 -50 40 -55 0 -7 34 -51 72 -91 10 -10 35 -50 57 -88 21 -38
63 -103 93 -143 55 -75 85 -118 103 -147 28 -45 53 -82 95 -138 25 -34 57 -83
73 -110 31 -55 108 -170 130 -194 8 -9 23 -30 33 -48 10 -17 21 -31 25 -31 4
0 12 -13 19 -30 7 -16 16 -30 21 -30 5 0 9 -6 9 -12 0 -7 20 -40 45 -73 25
-33 45 -62 45 -66 0 -3 9 -16 19 -28 11 -12 48 -67 83 -123 34 -56 78 -118 96
-138 17 -21 32 -40 32 -43 0 -5 108 -166 145 -217 11 -15 41 -58 67 -96 54
-79 49 -71 180 -260 54 -78 98 -145 98 -148 0 -17 82 -126 93 -123 7 1 11 -4
9 -11 -2 -12 51 -97 157 -250 55 -79 61 -97 32 -107 -10 -3 -21 -15 -24 -25
-9 -36 -42 -23 -80 33 -21 30 -37 57 -37 62 0 5 -7 17 -17 27 -9 10 -21 27
-27 37 -6 10 -20 31 -30 47 -156 232 -376 580 -376 593 0 5 -6 14 -14 20 -17
14 -146 206 -146 217 0 4 -7 16 -17 26 -9 10 -21 26 -27 36 -30 50 -83 132
-211 323 -77 115 -150 227 -162 247 -12 20 -29 47 -38 58 -16 21 -65 94 -119
175 -16 24 -50 75 -75 112 -25 37 -58 87 -73 110 -121 188 -190 293 -228 347
-45 63 -69 103 -118 194 -23 44 -46 83 -50 86 -16 12 -89 106 -112 146 -62
106 -85 141 -105 164 -13 14 -30 40 -39 58 -9 17 -21 32 -26 32 -6 0 -10 4
-10 9 0 7 -60 103 -106 170 -9 13 -29 47 -45 75 -15 28 -32 50 -38 49 -6 -2
-11 4 -11 12 0 19 -29 67 -47 78 -7 4 -13 15 -13 23 0 8 -4 12 -10 9 -5 -3
-10 2 -10 13 0 10 -11 29 -25 42 -14 13 -25 31 -25 40 0 10 -11 34 -25 54 -14
21 -23 42 -19 47 7 11 113 -99 114 -118z m7206 -335 c-4 -178 -9 -892 -10
-1588 -3 -1163 -10 -1736 -21 -1768 -4 -12 -20 -575 -18 -637 1 -16 2 -115 3
-220 1 -168 -1 -191 -16 -202 -14 -10 -19 -10 -28 1 -7 9 -45 16 -114 19 -67
4 -125 14 -164 28 -33 11 -62 19 -65 16 -11 -11 -92 22 -178 73 -27 17 -61 35
-75 41 -14 6 -33 16 -44 21 -35 18 -141 11 -223 -15 -82 -27 -231 -51 -279
-45 -16 1 -34 9 -39 16 -16 20 -125 27 -182 12 -26 -7 -80 -14 -120 -16 -53
-2 -83 -9 -112 -26 -34 -19 -44 -21 -70 -12 -19 8 -45 9 -73 3 -94 -18 -137
-9 -233 51 -79 50 -138 73 -199 77 -53 5 -73 1 -141 -26 -44 -18 -87 -39 -96
-47 -37 -34 -111 -62 -148 -57 -20 3 -48 5 -62 4 -25 0 -27 2 -33 74 -4 41
-13 96 -21 122 -8 26 -12 49 -10 51 3 3 24 -12 49 -32 51 -41 61 -44 76 -16 6
11 19 20 29 20 11 0 23 12 31 29 6 16 21 37 31 47 23 21 59 98 59 126 0 20
-73 94 -103 104 -10 3 -28 15 -40 25 -12 11 -38 33 -57 50 l-35 29 25 46 c14
25 38 55 54 66 15 12 35 35 42 52 8 17 29 50 47 72 18 23 48 65 67 93 19 28
46 66 60 85 14 19 33 47 42 63 22 35 39 62 55 82 66 86 214 297 218 312 4 10
10 19 14 19 9 0 70 90 135 197 21 34 47 70 57 79 10 9 19 22 19 28 0 7 20 32
45 56 25 24 50 60 56 79 6 20 31 66 55 102 31 46 42 72 37 84 -5 14 -3 17 9
13 11 -5 25 10 49 48 48 77 87 134 139 203 40 53 64 89 120 177 40 63 137 202
156 224 12 14 45 59 73 100 75 108 223 327 246 364 10 17 50 72 87 122 37 50
76 112 87 136 11 25 24 49 29 52 6 3 27 34 46 69 20 34 52 82 71 107 19 25 42
56 51 70 9 14 25 37 35 52 11 15 19 41 19 57 0 23 4 29 15 25 9 -4 15 -1 15 7
0 8 16 25 35 38 19 13 41 33 48 45 78 137 210 341 263 407 16 20 45 63 64 97
19 34 39 62 44 62 5 0 6 -136 2 -322z m-7273 258 c14 -13 35 -41 46 -62 11
-22 34 -57 50 -79 15 -22 45 -65 65 -95 20 -30 44 -66 53 -80 20 -29 139 -213
232 -355 35 -55 86 -131 111 -170 26 -38 59 -88 73 -110 28 -42 70 -100 101
-137 49 -60 66 -86 78 -123 8 -22 27 -60 44 -84 16 -24 34 -51 39 -60 6 -9 28
-43 51 -76 22 -33 44 -69 48 -80 4 -11 21 -38 37 -60 38 -50 179 -264 179
-270 0 -3 22 -38 49 -78 26 -39 78 -117 113 -172 36 -55 92 -140 124 -190 33
-49 68 -107 79 -127 11 -20 43 -70 70 -110 28 -41 55 -81 60 -90 47 -75 119
-182 165 -243 96 -129 240 -344 240 -359 0 -5 15 -27 34 -50 18 -23 45 -64 59
-93 15 -28 31 -54 36 -58 6 -3 20 -26 33 -52 13 -25 39 -64 59 -87 60 -70 69
-87 58 -109 -16 -29 -2 -85 23 -93 24 -7 55 -34 40 -34 -21 0 3 -44 50 -92 44
-46 49 -54 39 -75 -6 -12 -16 -23 -22 -23 -6 0 -42 -27 -79 -60 -37 -33 -72
-60 -76 -60 -5 -1 -25 -15 -45 -33 -41 -36 -73 -107 -51 -114 6 -3 12 -13 12
-22 0 -28 119 -141 148 -141 17 0 50 24 108 80 46 44 87 80 92 80 5 0 -3 -26
-19 -58 -42 -89 -56 -158 -58 -279 l-1 -51 -103 -7 c-64 -4 -138 -3 -195 5
-65 8 -117 9 -184 1 -51 -5 -145 -15 -208 -21 -63 -6 -133 -16 -155 -22 -22
-7 -45 -11 -52 -10 -6 2 -44 -7 -85 -18 -112 -31 -318 -23 -318 13 0 14 -119
-11 -295 -62 -16 -5 -61 -9 -99 -10 -38 -1 -86 -6 -107 -11 -21 -6 -60 -10
-86 -10 -146 4 -679 -12 -694 -20 -10 -6 -22 -10 -26 -10 -5 0 -7 174 -5 388
3 213 4 500 3 637 -1 282 -1 280 5 540 10 479 14 1474 4 1480 -6 4 -4 15 6 30
9 13 14 28 11 32 -3 4 -8 102 -12 218 -3 115 -7 212 -7 215 0 3 1 7 2 10 7 18
5 247 -3 258 -9 12 -7 60 9 234 4 37 3 75 -1 85 -14 31 -17 73 -6 73 13 0 14
74 2 118 -6 21 -6 32 1 32 10 0 6 70 -7 124 -5 17 -4 31 3 35 7 4 14 57 18
131 3 69 6 130 6 135 0 6 -3 22 -7 38 -9 34 4 35 38 3z m3567 -2865 c0 -6 12
-16 27 -23 14 -7 34 -28 42 -45 9 -18 22 -33 29 -33 6 0 12 -4 12 -9 0 -21
-142 -22 -156 0 -7 12 26 119 37 119 5 0 9 -4 9 -9z m-3640 -68 c0 -29 -2 -29
-19 5 -10 18 -9 22 4 22 10 0 15 -9 15 -27z m3840 -123 c10 -6 30 -10 45 -10
14 0 37 -11 49 -24 13 -12 31 -26 40 -29 10 -4 16 -18 16 -37 0 -24 -6 -33
-27 -41 -17 -7 -132 -12 -293 -14 -146 -2 -278 -7 -295 -12 -32 -10 -172 -9
-182 1 -3 3 0 12 6 20 7 8 10 20 7 25 -11 17 39 61 68 61 22 0 26 4 21 19 -7
24 11 30 140 45 112 14 377 11 405 -4z m-50 -193 c0 -7 -4 -6 -10 3 -8 12 -10
12 -10 1 0 -8 -3 -12 -6 -8 -9 9 6 28 17 22 5 -4 9 -12 9 -18z m-20 -22 c25 0
59 3 75 8 42 10 56 -3 62 -57 6 -52 -8 -109 -43 -171 -16 -28 -24 -60 -26
-102 -2 -62 -2 -62 -30 -56 -22 4 -29 1 -38 -19 -16 -34 -45 -49 -118 -63 -74
-14 -148 -2 -163 27 -5 10 -14 18 -20 18 -17 0 -79 69 -79 88 0 24 -29 82 -41
82 -5 0 -9 13 -9 28 0 20 -8 32 -29 45 -25 15 -31 26 -37 73 -9 77 0 84 120
91 53 3 99 10 102 15 3 5 55 5 117 1 62 -4 132 -8 157 -8z m-1010 -258 c0 -7
-10 -13 -21 -14 -12 -1 -30 -10 -40 -19 -11 -9 -19 -12 -19 -7 0 11 58 52 73
53 4 0 7 -6 7 -13z m1684 -6 c3 -5 23 -12 43 -16 41 -7 187 -105 203 -135 17
-32 12 -60 -10 -60 -11 0 -20 4 -20 9 0 5 -19 29 -43 53 -78 77 -121 105 -176
114 -38 6 -51 21 -34 37 9 10 31 9 37 -2z m-398 -32 c25 -28 172 -139 184
-139 5 0 14 -8 19 -17 9 -16 12 -16 21 -3 8 12 10 10 10 -9 0 -13 3 -21 6 -18
4 3 16 -5 27 -19 21 -27 182 -138 214 -148 11 -3 51 -38 90 -76 39 -39 76 -70
82 -70 13 0 101 -59 101 -68 0 -13 -40 -72 -48 -72 -5 0 -15 -11 -22 -25 -18
-33 -26 -32 -70 13 -21 20 -64 60 -96 88 -33 29 -80 71 -106 94 -48 42 -59 50
-171 112 -33 18 -72 40 -88 49 -43 24 -89 61 -153 122 -31 30 -72 62 -91 71
-38 18 -46 45 -20 68 29 27 40 37 53 53 18 21 35 19 58 -6z m-820 -43 c3 -11
18 -34 32 -49 25 -26 26 -29 12 -55 -9 -14 -29 -33 -45 -42 -16 -8 -41 -25
-55 -38 -14 -13 -50 -40 -80 -60 -57 -39 -131 -93 -140 -102 -3 -3 -21 -17
-40 -30 -19 -13 -55 -41 -80 -63 -25 -21 -68 -57 -96 -80 -29 -23 -85 -71
-125 -105 -41 -35 -87 -75 -103 -88 l-29 -25 -43 48 c-24 26 -43 55 -43 63 -1
15 243 235 309 278 19 13 40 29 45 35 6 7 43 38 83 71 39 32 72 62 72 67 0 5
6 9 13 9 6 1 30 19 52 40 22 22 43 40 48 40 12 0 66 43 124 98 43 41 46 42 64
26 10 -9 21 -26 25 -38z m-578 17 c2 -7 -5 -16 -15 -20 -25 -9 -76 -45 -86
-60 -11 -17 -27 -16 -27 1 0 24 79 98 102 94 12 -2 23 -9 26 -15z m219 -35
c29 -29 53 -58 53 -66 0 -17 -88 -102 -106 -102 -7 0 -15 8 -18 18 -4 14 -5
13 -4 -3 2 -35 -13 -53 -68 -85 -64 -36 -64 -36 -64 -10 0 11 5 20 10 20 6 0
10 5 10 10 0 6 -13 10 -30 10 -39 0 -39 18 0 33 34 13 35 30 2 35 -14 2 -22
11 -22 23 0 12 -7 19 -20 19 -11 0 -20 4 -20 10 0 5 9 14 20 20 11 6 20 17 20
24 0 12 23 23 68 32 8 1 22 10 33 20 22 20 59 42 74 43 5 1 33 -22 62 -51z
m1614 -18 c38 -14 71 -51 50 -58 -23 -8 -10 -30 34 -58 42 -26 53 -42 39 -57
-4 -3 -23 5 -42 18 -53 36 -66 14 -17 -28 27 -24 37 -38 32 -51 -6 -16 -9 -16
-39 0 -18 9 -53 34 -78 54 -25 21 -64 47 -87 59 -55 27 -59 35 -38 82 23 50
73 84 95 65 8 -8 31 -19 51 -26z m-654 -57 c-1 -16 0 -54 1 -86 2 -52 5 -60
41 -95 22 -21 60 -47 85 -57 25 -10 48 -25 50 -32 8 -19 -3 -41 -24 -48 -11
-3 -22 -15 -25 -26 -4 -10 -13 -19 -21 -19 -8 0 -14 -4 -14 -10 0 -5 -6 -10
-14 -10 -13 0 -60 -48 -81 -84 -18 -30 -369 -23 -377 8 -3 13 -124 127 -154
144 -18 12 -18 13 8 34 15 13 37 30 50 39 18 13 22 24 20 60 -1 24 3 56 9 72
9 20 8 31 -1 42 -11 13 -6 75 7 75 15 0 73 -43 87 -65 15 -22 23 -25 82 -25
107 0 198 27 210 62 4 13 40 42 60 48 1 0 2 -12 1 -27z m109 -52 c19 -11 45
-29 57 -40 63 -60 103 -91 128 -96 29 -7 42 -26 33 -50 -7 -18 -70 -20 -100
-2 -50 30 -164 122 -164 133 0 6 -3 26 -6 43 -8 37 1 39 52 12z m-616 -30 c0
-15 -3 -48 -6 -73 -7 -51 -32 -71 -114 -93 -47 -12 -50 -12 -72 12 l-23 24 34
30 c19 16 39 29 45 29 7 0 34 23 61 50 56 57 75 63 75 21z m277 23 c-3 -3 -12
-4 -19 -1 -8 3 -5 6 6 6 11 1 17 -2 13 -5z m-987 -14 c0 -5 -4 -10 -10 -10 -5
0 -10 5 -10 10 0 6 5 10 10 10 6 0 10 -4 10 -10z m527 -265 c0 -5 -27 -20 -60
-33 -78 -29 -113 -23 -123 21 -4 20 -2 33 5 35 7 2 24 14 39 26 57 48 63 48
103 3 20 -23 36 -46 36 -52z m1125 31 c42 -35 51 -57 13 -32 -13 9 -31 16 -40
16 -18 0 -20 -26 -2 -33 10 -4 10 -7 0 -18 -7 -7 -13 -21 -13 -31 0 -20 -44
-26 -55 -8 -3 6 -17 10 -31 10 -41 0 -28 47 29 106 35 36 44 35 99 -10z m-202
-31 c0 -19 -38 -58 -49 -50 -12 7 -22 -21 -15 -39 3 -8 23 -17 45 -21 21 -4
42 -11 45 -16 3 -6 14 -7 24 -4 11 3 27 2 38 -4 10 -5 58 -12 106 -15 49 -3
91 -8 94 -11 3 -3 -1 -13 -10 -21 -11 -11 -36 -16 -89 -16 -100 0 -129 -6
-129 -27 0 -31 19 -38 91 -33 38 2 69 2 69 -2 0 -4 -7 -21 -16 -37 -15 -30
-17 -31 -67 -23 -65 9 -139 6 -150 -5 -5 -5 -7 -17 -5 -27 2 -14 13 -19 41
-20 50 -1 66 -17 37 -37 -19 -13 -27 -14 -62 -1 -40 14 -40 14 -71 -21 -17
-19 -36 -35 -43 -35 -7 0 -19 -8 -26 -19 -16 -22 -70 -51 -97 -51 -11 0 -29
14 -41 31 -29 40 -55 35 -55 -11 0 -28 -4 -35 -20 -35 -13 0 -24 12 -34 38
-13 35 -13 40 6 65 11 15 23 40 27 56 4 16 29 50 55 75 30 29 51 59 56 79 4
19 19 42 35 54 16 12 34 34 39 49 5 15 35 47 65 71 31 24 56 48 56 55 0 6 10
14 23 16 12 2 23 5 25 6 1 0 2 -6 2 -14z m-790 -40 c19 -7 49 -30 68 -51 18
-22 40 -46 48 -55 7 -9 14 -27 14 -42 0 -16 10 -34 29 -49 49 -40 62 -68 50
-111 -11 -41 -26 -59 -80 -93 -49 -31 -63 -31 -57 1 8 41 -14 49 -68 25 -62
-29 -118 -38 -112 -19 2 8 21 22 42 32 25 12 36 23 34 35 -5 23 -30 20 -116
-17 -40 -16 -79 -28 -87 -25 -17 7 -21 44 -5 44 6 0 30 9 53 21 23 11 62 26
87 32 35 9 46 17 48 35 4 29 -24 29 -98 1 -30 -12 -71 -27 -90 -35 -47 -18
-114 -18 -130 1 -17 20 -6 32 37 40 21 3 61 17 90 31 28 13 64 24 80 24 36 0
78 22 78 39 0 8 -17 20 -39 27 -35 12 -41 12 -66 -6 -16 -11 -39 -20 -52 -20
-13 0 -32 -6 -43 -14 -22 -15 -135 -32 -135 -20 0 18 45 54 68 54 13 0 35 9
49 20 14 11 31 20 38 20 15 0 97 36 108 47 4 4 20 9 35 10 15 2 33 13 41 24 9
13 20 18 30 13 9 -4 32 -12 51 -19z m1045 -25 c17 -11 38 -17 48 -14 11 3 17
0 17 -9 0 -23 -26 -28 -57 -12 -15 8 -34 15 -40 15 -7 0 -13 2 -13 4 0 2 -3
11 -6 20 -8 22 14 20 51 -4z m169 -140 c52 -96 67 -212 66 -510 -1 -146 -6
-292 -12 -325 -6 -38 -28 -95 -59 -153 -27 -52 -49 -101 -49 -111 0 -17 -26
-43 -51 -50 -8 -3 -36 -7 -63 -9 -46 -4 -50 -2 -95 41 -25 25 -58 49 -73 52
-24 6 -27 12 -25 39 2 31 2 31 -48 33 -27 0 -65 4 -83 8 -29 7 -33 11 -28 31
4 13 1 44 -5 69 -13 52 -37 59 -76 23 -17 -16 -37 -23 -64 -23 -36 0 -45 6
-95 60 -75 83 -76 91 -20 140 65 56 62 104 -6 96 -16 -1 -29 2 -29 8 -1 6 -2
16 -3 23 -1 14 72 20 80 7 14 -24 52 -6 102 48 47 51 53 61 47 90 -7 41 6 48
35 18 13 -14 33 -25 46 -25 23 0 177 -69 182 -82 2 -4 19 -15 38 -24 19 -9 34
-21 34 -28 0 -6 7 -24 16 -41 9 -16 16 -42 15 -56 -1 -28 34 -72 52 -66 8 3
11 22 9 51 -3 41 -1 46 17 46 45 0 9 119 -49 161 -24 18 -30 29 -27 48 6 31
-19 71 -45 71 -27 0 -59 -19 -81 -47 -21 -27 -42 -30 -51 -8 -3 9 -19 21 -36
26 -37 14 -39 35 -2 42 15 3 52 22 82 42 30 20 66 38 80 42 34 8 60 32 60 55
0 10 7 21 15 24 19 8 55 70 55 95 0 11 16 35 35 55 24 24 35 44 35 65 0 29 1
29 24 14 12 -8 35 -38 50 -65z m-824 -4 c111 -4 107 -2 82 -29 -15 -16 -35
-24 -59 -25 -19 -1 -47 -9 -60 -18 -16 -10 -34 -13 -50 -9 -28 7 -78 48 -95
79 -10 18 -7 18 43 11 30 -4 92 -8 139 -9z m-851 -42 c12 -15 21 -34 21 -44 0
-30 67 -90 100 -90 17 0 30 -5 30 -12 0 -26 53 -68 86 -68 18 0 49 -8 68 -17
56 -28 59 -63 7 -63 -56 0 -201 -79 -201 -110 0 -8 4 -21 9 -29 7 -11 17 -7
51 22 55 47 106 70 154 71 41 1 61 -20 29 -30 -10 -3 -26 -10 -35 -15 -10 -5
-23 -9 -29 -9 -16 0 -99 -58 -148 -104 -45 -43 -91 -125 -91 -163 0 -33 38
-31 46 2 7 29 30 50 38 36 3 -5 8 -33 11 -62 6 -57 16 -75 38 -66 11 4 13 24
9 91 -4 76 -2 92 18 129 21 39 92 97 119 97 16 0 14 -32 -5 -58 -23 -33 -14
-52 31 -68 54 -19 55 -18 55 16 0 38 24 98 52 127 26 28 33 28 58 3 23 -23 39
-26 44 -7 22 81 23 99 9 113 -19 18 -47 18 -63 -1 -11 -13 -15 -12 -36 10 -13
14 -28 25 -34 25 -5 0 -10 9 -10 20 0 20 19 27 36 12 20 -18 96 -34 107 -23
22 22 43 9 72 -42 34 -59 73 -79 61 -30 -12 45 -13 117 -3 131 5 6 22 12 37
12 35 0 46 -14 53 -73 8 -60 32 -105 60 -116 55 -22 107 -33 126 -28 24 6 34
-4 25 -27 -8 -22 -38 -29 -128 -31 -76 -1 -79 -2 -107 -35 -16 -19 -29 -40
-29 -46 0 -6 16 -25 35 -43 l36 -32 -22 -37 c-22 -37 -86 -103 -98 -99 -6 2
-22 -11 -113 -90 -27 -24 -55 -43 -62 -43 -7 0 -21 -9 -31 -20 -11 -13 -14
-20 -6 -20 26 0 -61 -68 -95 -74 -20 -4 -46 -19 -61 -37 -14 -16 -31 -29 -36
-29 -5 0 -18 -11 -29 -25 -11 -14 -25 -25 -33 -25 -7 0 -18 -7 -25 -15 -26
-31 -170 -8 -170 27 0 4 -8 16 -17 26 -58 59 -123 186 -123 240 0 17 -4 33 -9
36 -5 3 -7 43 -6 88 2 46 -1 170 -5 275 -10 218 0 298 44 362 14 20 26 48 26
62 0 24 16 49 31 49 4 0 17 -12 28 -26z m2366 -218 c22 -11 42 -23 45 -26 3
-4 31 -17 63 -30 31 -13 57 -27 57 -31 0 -15 67 -21 143 -12 46 6 83 6 93 0
18 -10 109 -25 224 -37 41 -4 125 -13 186 -20 109 -12 184 -8 184 10 0 13 -21
16 -170 31 -69 6 -138 13 -155 15 -16 2 -48 7 -69 9 -21 3 -43 8 -48 11 -16
10 3 24 35 24 18 0 67 7 110 15 104 20 135 19 180 -5 20 -11 56 -20 79 -20 69
0 207 27 295 58 49 17 87 25 95 21 7 -5 31 -9 54 -9 33 0 46 -6 74 -35 19 -19
37 -35 42 -35 4 0 30 -13 56 -30 27 -16 60 -30 74 -30 13 0 28 -4 34 -9 14
-14 219 -51 279 -51 30 0 76 -5 103 -11 42 -10 51 -16 56 -39 9 -48 -3 -71
-38 -70 -17 1 -62 -2 -101 -5 -51 -4 -717 -9 -855 -6 -8 0 -107 -1 -220 -2
-113 -2 -257 0 -320 4 -201 12 -537 11 -1059 -5 l-103 -3 5 103 c3 57 8 108
12 114 8 13 48 13 62 -1 8 -8 22 -8 49 0 22 6 60 11 86 11 44 0 48 2 54 28 8
30 22 43 72 67 76 37 165 38 237 1z m-1921 -112 c21 -20 20 -31 -3 -44 -29
-15 -31 -13 -31 25 0 38 10 44 34 19z m-984 -59 c110 -8 287 -7 322 0 26 6 28
4 29 -27 0 -18 2 -49 4 -68 2 -20 0 -41 -4 -48 -5 -9 -79 -12 -287 -11 -153 0
-364 1 -469 2 -104 0 -255 -4 -335 -9 -80 -4 -158 -8 -175 -7 -104 5 -255 4
-264 -2 -8 -4 -8 -12 -1 -25 10 -18 24 -19 333 -14 177 3 329 6 337 6 8 0 20
5 27 10 6 5 14 5 17 0 8 -14 242 -18 621 -11 l200 3 3 -44 c2 -24 -2 -54 -9
-67 -10 -19 -10 -35 -1 -76 25 -111 35 -143 53 -179 10 -20 19 -43 19 -50 0
-7 11 -35 24 -61 38 -77 119 -138 189 -142 18 -1 42 -5 54 -9 12 -4 31 -2 42
3 18 10 19 7 16 -57 -2 -37 -8 -78 -13 -92 -6 -14 -9 -54 -8 -89 3 -58 0 -66
-24 -90 -42 -40 -57 -100 -38 -153 9 -24 16 -56 17 -73 1 -34 -17 -85 -30 -85
-5 0 -9 -7 -9 -15 0 -8 -4 -23 -9 -33 -5 -9 -14 -29 -21 -44 -7 -15 -27 -32
-44 -38 -70 -24 -130 -127 -120 -204 6 -39 3 -52 -14 -76 -32 -43 -62 -99 -62
-115 0 -8 9 -19 20 -25 17 -9 20 -8 20 12 2 66 85 142 173 158 29 6 64 19 79
30 31 22 98 29 166 16 34 -7 42 -6 42 7 0 9 -14 17 -37 22 -62 12 -242 7 -253
-6 -10 -12 -90 -27 -96 -18 -20 32 37 132 81 143 14 4 45 22 70 40 82 63 166
75 270 37 63 -22 100 -27 109 -12 9 14 -16 54 -53 86 -33 28 -40 30 -120 30
-71 0 -85 3 -82 15 11 49 4 90 -27 139 -39 64 -41 94 -7 109 28 13 65 -2 65
-26 0 -7 32 -34 71 -60 39 -26 87 -57 106 -70 19 -13 36 -29 39 -37 3 -7 30
-28 60 -46 48 -30 54 -37 52 -64 -2 -41 18 -75 45 -75 12 0 39 -3 60 -6 33 -6
37 -4 37 14 0 16 -12 24 -50 37 -47 15 -50 19 -50 50 0 28 -8 38 -53 72 -28
22 -67 48 -85 57 -18 9 -37 28 -42 41 -5 14 -13 25 -18 25 -5 0 -20 9 -33 21
-13 12 -45 32 -71 45 -26 13 -54 36 -61 52 -35 67 -27 258 13 334 11 21 17 45
14 53 -8 20 11 42 58 66 55 28 80 56 73 80 -8 23 2 25 25 4 14 -13 23 -9 81
30 39 26 73 59 84 79 16 29 102 105 106 94 1 -2 2 -28 4 -58 12 -293 21 -346
56 -325 20 13 -6 371 -29 394 -13 13 -10 19 24 49 l39 33 25 -30 c14 -17 38
-47 54 -67 17 -20 53 -46 82 -59 28 -12 55 -28 58 -34 4 -6 14 -11 23 -11 9 0
32 -12 52 -27 19 -16 58 -33 86 -38 39 -8 53 -16 63 -38 15 -31 32 -42 84 -51
22 -4 42 -15 48 -26 15 -28 78 -57 130 -59 66 -3 121 36 154 108 14 31 34 72
45 91 42 73 69 148 81 227 7 45 9 86 6 91 -3 6 -3 23 0 40 6 29 7 30 38 17 25
-10 54 -10 156 1 69 7 215 13 325 13 110 0 238 0 285 0 122 1 315 1 830 -1
250 0 590 1 755 2 l300 3 8 -34 c10 -42 10 -41 -3 -114 -8 -42 -8 -71 -1 -95
20 -69 23 -130 8 -153 -12 -19 -14 -90 -11 -462 3 -242 4 -532 5 -645 0 -113
0 -232 1 -265 1 -33 0 -215 -2 -405 -2 -190 -4 -365 -5 -390 0 -25 3 -57 8
-72 7 -25 5 -28 -17 -28 -14 0 -27 4 -30 9 -3 5 -15 7 -26 4 -11 -3 -32 5 -50
17 -27 19 -38 21 -73 14 -38 -8 -43 -13 -51 -47 -5 -20 -13 -37 -18 -37 -4 0
-8 -20 -8 -45 l0 -45 -70 0 c-51 0 -72 -4 -76 -14 -6 -16 -85 -17 -96 -2 -4 6
-24 15 -46 21 -34 11 -43 10 -63 -6 -13 -10 -30 -19 -38 -19 -8 0 -25 -10 -37
-21 -17 -16 -22 -29 -17 -50 5 -27 3 -29 -28 -30 -19 -1 -38 -1 -42 0 -4 1
-46 4 -92 7 -81 6 -85 5 -85 -14 0 -12 6 -24 13 -29 21 -14 259 -29 310 -19
26 5 50 6 54 2 11 -11 -15 -54 -36 -61 -20 -6 -30 -44 -13 -46 72 -7 212 -5
212 3 0 6 7 4 17 -3 12 -11 56 -14 182 -14 159 0 166 -1 166 -20 0 -17 -7 -20
-50 -20 -27 0 -67 3 -88 6 -41 7 -53 -2 -38 -28 7 -14 32 -20 118 -28 l108
-10 0 -65 0 -65 -48 -6 c-27 -3 -51 -1 -53 3 -3 5 -22 7 -42 6 -28 -2 -37 1
-41 17 -13 46 -35 65 -73 65 -31 0 -38 4 -38 19 0 24 -22 33 -90 37 -37 2 -68
-3 -96 -16 -50 -23 -62 -36 -110 -126 -15 -28 -22 -32 -77 -38 -33 -3 -90 -6
-128 -6 -37 0 -74 -3 -83 -6 -17 -7 -22 -34 -6 -34 6 0 10 -5 10 -11 0 -8 -24
-9 -82 -5 -287 24 -403 24 -403 2 0 -5 23 -15 50 -23 38 -10 126 -14 368 -14
296 0 383 -8 270 -24 -27 -3 -147 -9 -268 -12 -246 -6 -427 8 -459 36 -15 13
-48 16 -205 17 -102 1 -244 5 -315 9 -122 7 -128 7 -124 -11 4 -22 71 -37 132
-30 21 2 68 -2 105 -10 36 -7 87 -14 114 -14 26 0 47 -5 47 -11 0 -7 -31 -9
-92 -5 -88 5 -232 8 -306 7 -30 -1 -33 -4 -30 -27 l3 -26 160 -4 c197 -5 245
-10 245 -30 0 -14 -5 -15 -215 -20 -163 -4 -197 -4 -206 2 -13 8 -2 357 13
390 9 19 9 33 -1 61 -12 32 -11 37 8 57 70 69 85 99 106 211 15 79 15 97 3
150 l-13 60 -45 -2 c-161 -9 -373 -10 -397 -4 -23 7 -33 4 -55 -17 l-27 -25
-6 24 c-8 33 -21 269 -15 275 2 3 3 20 2 37 -2 18 1 45 7 60 8 19 7 34 -1 52
-9 21 -8 28 7 45 20 22 45 26 62 9 8 -8 16 -4 29 16 20 31 9 45 -31 37 -17 -3
-22 -9 -18 -21 3 -9 -2 -6 -11 7 -10 12 -23 22 -30 22 -19 0 -27 100 -15 168
11 56 10 71 -11 152 -16 66 -94 191 -136 219 -31 22 -37 23 -50 9 -14 -13 -11
-20 25 -59 62 -66 51 -81 -20 -30 -47 35 -108 58 -118 44 -3 -5 -51 -9 -106
-9 -63 0 -121 -7 -158 -17 -54 -16 -144 -73 -176 -110 -7 -9 -38 -31 -68 -48
-51 -29 -79 -65 -64 -81 12 -13 117 47 154 89 22 24 72 59 118 83 72 37 86 41
127 36 61 -8 89 -9 135 0 20 3 58 3 82 -1 38 -5 56 -16 111 -71 36 -36 76 -69
88 -74 28 -10 38 -64 23 -120 -16 -59 -8 -126 18 -167 9 -13 12 -29 8 -36 -4
-6 -8 -18 -8 -27 -1 -8 -10 -45 -20 -82 -14 -55 -15 -70 -5 -83 10 -12 10 -18
0 -30 -8 -9 -10 -28 -5 -53 3 -22 8 -135 10 -253 3 -118 9 -234 14 -259 6 -25
10 -85 11 -133 0 -56 5 -98 14 -115 8 -16 17 -67 19 -115 4 -61 11 -100 27
-132 22 -46 41 -156 39 -230 -1 -49 31 -220 56 -296 21 -65 16 -89 -18 -89
-13 0 -41 -13 -62 -30 -41 -33 -66 -38 -84 -16 -17 20 -3 48 20 41 32 -10 59
4 59 31 0 23 -3 24 -39 18 -37 -6 -38 -5 -34 18 3 15 15 28 34 35 16 6 29 18
29 26 0 20 -38 33 -53 18 -15 -15 -60 -14 -55 2 2 6 20 20 39 29 62 32 33 75
-33 47 -28 -11 -30 -15 -23 -48 4 -20 6 -103 5 -186 -1 -85 3 -162 9 -177 10
-26 8 -29 -30 -48 -32 -17 -52 -20 -97 -15 -37 3 -73 0 -102 -9 -83 -27 -175
-46 -237 -50 -33 -2 -66 -7 -71 -10 -6 -4 -37 -9 -68 -12 -32 -4 -81 -13 -109
-20 -27 -8 -57 -16 -67 -18 -9 -3 -30 -12 -47 -20 -22 -12 -55 -16 -118 -15
-49 1 -92 5 -98 9 -5 4 -32 11 -60 15 -75 11 -148 41 -203 86 -57 45 -109 69
-148 69 -49 0 -141 -40 -153 -66 -13 -29 -16 -29 -102 -3 -75 23 -74 22 -84
114 -18 162 -26 213 -45 285 -6 19 -10 49 -10 67 0 17 -7 58 -15 90 -8 32 -17
99 -20 148 -9 170 -18 250 -32 290 -9 24 -17 96 -20 180 -4 85 -11 148 -18
160 -7 11 -16 63 -19 115 -4 52 -9 122 -12 155 -2 33 -6 90 -7 127 -3 66 -17
98 -44 98 -11 0 -13 -17 -8 -92 4 -51 8 -115 9 -143 7 -126 18 -214 31 -260 7
-27 16 -109 19 -180 3 -81 12 -160 24 -210 12 -46 23 -137 27 -215 5 -92 13
-152 26 -190 27 -78 26 -83 -18 -77 -87 13 -88 13 -88 -8 0 -15 12 -24 50 -37
28 -9 52 -12 53 -7 2 5 10 9 17 9 24 0 55 -202 36 -237 -5 -10 -12 -26 -15
-36 -3 -10 -10 -15 -16 -12 -7 4 -6 13 1 27 8 14 8 23 0 31 -6 6 -11 19 -11
29 0 10 -18 29 -41 43 -32 21 -43 24 -55 14 -13 -10 -12 -14 2 -30 25 -28 12
-50 -24 -40 -50 15 -71 31 -79 59 -12 42 -9 285 7 562 5 85 12 229 15 320 3
91 7 203 10 250 7 115 7 209 0 245 -3 17 -8 73 -10 125 -3 52 -9 109 -14 125
-6 22 -3 39 9 65 16 32 17 39 3 75 -15 42 -27 82 -44 150 -6 22 -9 76 -7 120
3 74 6 83 37 123 23 27 42 42 57 42 18 0 26 8 32 33 13 47 -3 61 -33 31 -13
-13 -32 -24 -42 -24 -10 0 -34 -19 -52 -42 -29 -34 -37 -56 -49 -122 -20 -117
-22 -145 -11 -152 32 -20 -31 -113 -102 -149 -16 -9 -29 -20 -29 -25 0 -6 -6
-10 -12 -10 -7 0 -21 -14 -30 -30 -9 -17 -23 -30 -31 -30 -7 0 -23 -14 -36
-30 -12 -17 -40 -42 -61 -56 -43 -29 -47 -40 -27 -68 12 -17 16 -16 53 18 22
20 84 79 137 131 53 52 97 92 97 89 0 -3 12 4 26 15 15 12 32 21 39 21 13 0
47 -34 41 -41 -5 -5 -18 -68 -18 -89 0 -8 5 -55 11 -104 8 -58 8 -93 2 -99 -6
-6 -95 -10 -210 -11 -127 -1 -201 -5 -201 -11 0 -5 -4 -3 -9 5 -6 8 -7 18 -5
22 3 5 3 22 -1 39 l-7 30 -41 -37 c-36 -33 -41 -43 -44 -88 -6 -68 -4 -139 3
-203 3 -29 2 -53 -3 -54 -75 -5 -236 -3 -240 4 -2 4 -25 5 -50 1 -33 -5 -44
-4 -39 5 4 6 23 11 42 11 19 0 33 4 29 9 -3 5 -1 12 4 15 5 4 13 1 16 -5 4 -5
13 -8 21 -5 7 3 16 1 19 -4 3 -5 15 -7 28 -5 70 14 78 17 75 33 -3 15 -20 17
-146 14 -90 -2 -142 1 -142 7 0 5 24 11 53 13 38 2 52 7 52 18 0 13 -32 15
-220 17 -324 2 -523 17 -532 39 -3 8 -18 14 -33 14 -16 0 -33 8 -41 20 -13 18
-28 20 -197 24 -101 2 -186 7 -190 10 -3 4 -1 11 4 16 6 6 36 7 81 1 39 -5 88
-6 110 -2 21 4 48 4 59 1 10 -4 22 -6 26 -3 12 7 179 6 374 -2 100 -5 193 -5
208 -1 24 6 27 10 21 36 -6 29 1 36 30 30 6 -1 67 -3 137 -5 104 -2 128 0 132
12 12 32 -6 35 -159 30 -85 -2 -157 -1 -162 2 -5 3 -12 13 -15 22 -4 10 -16
15 -35 14 -15 -1 -41 2 -58 7 -16 5 -117 9 -223 9 -127 -1 -201 3 -215 10 -12
7 -81 13 -157 16 -163 4 -224 13 -226 33 -1 8 -2 23 -3 33 0 9 -10 26 -21 37
-17 17 -33 20 -111 20 -81 0 -90 2 -87 18 3 15 20 17 173 19 262 2 367 15 341
40 -4 4 -59 8 -124 10 -64 2 -132 8 -151 13 -26 7 -41 5 -62 -7 -26 -16 -29
-16 -48 1 -25 22 -96 14 -106 -12 -6 -15 -8 -15 -21 2 -27 38 -18 49 35 43 26
-3 52 -2 57 2 21 18 106 33 154 27 42 -6 50 -4 50 9 0 9 -15 22 -32 30 -30 13
-22 14 102 13 74 0 227 1 340 2 113 1 214 -1 225 -5 26 -8 60 17 52 39 -5 13
-21 16 -75 16 -38 0 -82 6 -98 14 -21 10 -91 15 -255 19 -188 4 -232 7 -263
22 -24 12 -50 16 -76 12 -22 -3 -42 -1 -45 4 -8 12 -95 0 -123 -18 -35 -22
-52 -10 -52 37 0 41 -6 46 -55 41 -11 -1 -25 6 -32 15 -6 8 -20 14 -30 12 -14
-3 -17 -12 -16 -43 3 -42 -8 -55 -38 -48 -24 7 -32 34 -19 68 9 23 6 33 -19
67 -16 22 -39 46 -49 54 -17 11 -20 24 -18 71 2 32 -1 67 -6 78 -5 11 -5 47 0
80 6 51 10 60 27 58 26 -3 95 18 95 28 0 5 11 4 25 -1 30 -11 87 -2 82 14 -2
6 -19 11 -38 10 -32 -1 -48 -3 -140 -20 -34 -6 -37 -4 -42 22 -6 32 -1 133 7
142 3 3 25 -3 49 -12 33 -12 55 -14 83 -8 22 4 61 5 89 0 27 -4 53 -4 58 1 13
13 -4 41 -27 42 -11 0 -32 2 -46 3 -14 2 -36 0 -50 -4 -14 -4 -36 -3 -50 3
-14 5 -43 13 -65 16 l-40 6 -3 55 -3 55 119 -2 c127 -3 152 -7 152 -29 0 -16
-2 -17 -97 -14 -68 1 -73 0 -73 -19 0 -12 1 -21 3 -22 7 -2 601 -12 787 -14
118 0 267 -5 330 -9 106 -8 117 -7 139 11 32 26 20 43 -32 43 -42 1 -97 23
-81 32 5 3 90 9 189 13 99 4 202 9 228 10 26 1 50 -2 53 -7 3 -4 16 -8 30 -8
13 0 24 -4 24 -8 0 -9 -173 -22 -297 -22 -68 0 -73 -1 -73 -22 0 -21 0 -21
168 -14 92 4 250 9 352 12 246 5 326 12 341 31 17 20 1 29 -62 37 -27 4 -49
11 -49 17 0 6 4 8 8 5 5 -3 22 2 38 11 20 11 61 17 129 20 257 8 280 10 318
28 20 10 37 24 37 32 0 15 -31 33 -58 33 -10 0 -27 9 -38 21 -24 27 -91 59
-123 59 -20 0 -30 9 -44 39 -11 24 -36 51 -70 73 l-52 36 -100 -5 c-72 -4
-112 -12 -146 -28 -41 -19 -56 -21 -113 -14 -97 12 -142 28 -155 55 -11 26
-69 46 -123 43 -32 -2 -59 13 -173 91 -97 68 -134 91 -165 106 -19 9 -52 24
-72 35 -30 15 -61 19 -160 21 -134 2 -124 4 -248 -69 -40 -24 -78 -43 -85 -43
-8 0 -16 -4 -20 -9 -11 -19 -123 -45 -205 -47 -51 -1 -103 -9 -130 -19 -25 -9
-61 -19 -80 -22 -19 -2 -42 -10 -51 -18 -8 -8 -23 -15 -32 -15 -9 0 -20 -6
-24 -14 -17 -28 -71 -46 -143 -46 -68 0 -70 1 -70 25 0 26 3 27 83 40 32 5 37
9 26 21 -9 11 -24 13 -60 8 -53 -7 -62 4 -38 48 7 14 8 28 1 46 -6 15 -13 48
-15 75 l-5 47 67 0 c36 0 110 5 163 12 81 10 98 15 98 29 0 13 -7 16 -27 14
-16 -2 -64 -7 -108 -10 -44 -3 -104 -8 -132 -10 l-53 -5 0 40 c0 33 4 42 23
48 20 8 137 7 352 -1 90 -4 163 8 185 29 26 25 -6 36 -85 29 -38 -4 -90 -6
-115 -6 -25 1 -115 3 -200 5 l-155 3 -5 45 c-3 25 -4 93 -2 151 l4 106 45 7
c24 3 67 4 95 2 64 -7 88 0 88 22 0 24 -34 31 -137 28 -85 -3 -109 5 -97 35 5
14 22 17 98 19 50 0 105 2 121 4 51 4 248 -16 260 -26 7 -6 77 -10 156 -11 79
0 155 0 169 0 216 -4 233 -3 237 8 6 18 -42 34 -112 38 -92 4 -89 3 -76 19 8
10 35 14 94 14 46 -1 99 4 118 9 18 6 61 16 94 23 33 6 74 18 90 26 27 13 34
13 65 -3 24 -12 64 -19 125 -21 89 -4 132 2 265 34 80 19 86 20 240 35 69 7
134 15 145 19 11 4 36 6 55 4 19 -2 73 -6 120 -9z m4345 -165 c3 -5 2 -10 -4
-10 -5 0 -13 5 -16 10 -3 6 -2 10 4 10 5 0 13 -4 16 -10z m-5438 -685 c23 -4
44 -13 47 -21 6 -16 -47 -44 -85 -44 -53 0 -188 -54 -228 -91 -14 -13 -29 -18
-41 -14 -11 3 -28 2 -38 -4 -11 -6 -55 -20 -98 -31 -43 -12 -87 -28 -96 -37
-15 -14 -47 -13 -110 3 -5 1 -18 2 -30 3 -21 1 -22 2 -5 12 10 6 25 8 33 5 23
-9 64 4 64 20 0 36 -152 27 -200 -11 -8 -7 -35 -15 -60 -19 -24 -4 -53 -14
-63 -24 -16 -14 -19 -14 -27 -2 -15 23 -12 30 18 42 15 7 35 18 44 26 17 15
74 28 158 38 231 26 264 34 370 95 52 31 78 39 116 39 27 1 60 7 74 15 25 15
67 15 157 0z m596 -306 c7 -26 -5 -31 -30 -14 -15 10 -19 22 -15 40 4 24 6 25
22 10 10 -9 20 -25 23 -36z m-233 31 c0 -5 -2 -10 -4 -10 -3 0 -8 5 -11 10 -3
6 -1 10 4 10 6 0 11 -4 11 -10z m-1392 -22 c-4 -29 -38 -38 -38 -10 0 22 8 32
27 32 9 0 13 -8 11 -22z m2152 7 c7 -8 17 -15 22 -15 25 0 58 -56 58 -100 0
-37 23 -49 49 -26 15 14 23 15 45 5 48 -22 29 -40 -48 -45 -28 -2 -82 -6 -119
-10 l-69 -7 4 29 c2 21 10 30 28 34 37 9 38 37 2 45 -41 9 -66 38 -58 69 9 35
64 48 86 21z m-1053 -25 c25 -17 52 -28 62 -26 9 3 23 1 31 -4 12 -7 11 -10
-5 -16 -25 -10 -68 -8 -135 5 -30 6 -79 8 -109 4 -51 -6 -62 -12 -99 -57 -8
-10 -29 -16 -53 -16 -22 0 -49 -5 -61 -11 -25 -14 -31 -8 -22 25 13 53 128
103 269 116 39 4 72 7 74 8 2 1 23 -12 48 -28z m409 19 c3 -6 1 -15 -6 -19
-17 -10 -5 -40 15 -40 8 0 15 -4 15 -10 0 -19 -22 -56 -40 -68 -16 -10 -22 -8
-37 11 -32 40 -87 67 -136 67 -25 0 -49 5 -53 12 -5 8 11 10 62 6 80 -6 94 -3
94 22 0 14 9 20 33 23 17 2 35 5 39 5 4 1 10 -3 14 -9z m484 2 c0 -18 -21 -66
-32 -72 -14 -9 -137 0 -170 13 -16 6 -28 16 -28 23 0 9 23 12 79 12 57 0 85 5
102 17 26 18 49 21 49 7z m-1451 -48 c9 -17 12 -17 45 1 39 21 57 15 39 -12
-8 -12 -22 -16 -51 -14 -45 2 -57 -12 -38 -49 9 -19 20 -24 52 -25 52 -1 64
-9 64 -44 0 -27 -2 -28 -57 -32 -59 -4 -91 1 -92 15 -1 4 -1 13 -1 21 0 16
-26 46 -41 46 -5 0 -24 -15 -43 -33 -27 -27 -40 -33 -67 -30 -43 5 -61 -8 -61
-41 0 -35 30 -70 48 -55 9 7 18 6 33 -3 17 -10 23 -9 44 10 28 27 32 27 65 3
24 -16 48 -18 218 -19 234 0 376 -10 371 -26 -4 -12 -66 -14 -342 -14 -88 0
-238 -1 -332 -1 -193 -1 -194 -1 -154 65 23 37 13 54 -30 54 -15 0 -31 5 -34
10 -3 6 -2 10 4 10 17 0 52 43 71 87 21 47 44 63 80 56 18 -3 32 2 44 16 26
29 149 31 165 4z m-646 -7 c23 -18 22 -26 -5 -26 -30 0 -52 15 -44 29 9 15 27
13 49 -3z m85 -58 c-3 -7 -8 -13 -13 -13 -5 0 -10 6 -12 13 -3 6 3 12 12 12 9
0 15 -6 13 -12z m1390 -17 c5 -31 -11 -45 -42 -37 -33 8 -35 43 -3 56 30 12
41 7 45 -19z m286 -26 c4 -10 -1 -15 -14 -15 -11 0 -20 7 -20 15 0 8 6 15 14
15 8 0 16 -7 20 -15z m-94 -35 c0 -14 -9 -21 -35 -26 -20 -3 -40 -15 -45 -24
-6 -11 -21 -19 -37 -19 -16 0 -35 -1 -43 -2 -36 -5 -60 2 -60 17 0 13 7 15 40
9 31 -5 47 -3 68 11 29 20 92 52 105 53 4 1 7 -8 7 -19z m-300 0 c8 -5 12 -11
9 -15 -8 -8 -69 6 -69 16 0 12 41 11 60 -1z m-1100 -34 c0 -3 -4 -8 -10 -11
-5 -3 -10 -1 -10 4 0 6 5 11 10 11 6 0 10 -2 10 -4z m990 -12 c0 -9 -5 -14
-12 -12 -18 6 -21 28 -4 28 9 0 16 -7 16 -16z m602 -86 c-9 -9 -15 -9 -24 0
-9 9 -7 12 12 12 19 0 21 -3 12 -12z m1053 -68 c3 -5 1 -10 -4 -10 -6 0 -11 5
-11 10 0 6 2 10 4 10 3 0 8 -4 11 -10z m-2964 -560 c22 -12 26 -35 4 -26 -8 3
-15 1 -15 -5 0 -6 -4 -8 -9 -4 -9 5 -11 45 -3 45 2 0 12 -5 23 -10z m250 -163
c-6 -6 -11 -20 -11 -32 0 -12 -4 -25 -9 -30 -11 -12 -32 -87 -23 -81 4 2 39 1
77 -4 41 -4 75 -3 82 2 13 10 33 3 33 -12 0 -9 -76 -21 -157 -25 -29 -1 -60
-8 -70 -16 -14 -12 -16 -12 -11 2 3 8 18 52 32 98 33 103 58 154 64 127 2 -10
-1 -23 -7 -29z m-31 14 c-5 -10 -22 -57 -38 -105 -31 -94 -52 -129 -44 -74 3
18 9 36 14 39 5 3 10 29 11 56 1 36 6 49 15 45 7 -2 12 -1 11 4 -5 30 3 50 21
51 16 1 18 -2 10 -16z m-160 -102 c0 -5 -9 -9 -20 -9 -19 0 -26 11 -14 23 8 8
34 -3 34 -14z m0 -89 c0 -13 -48 -36 -56 -27 -4 4 -1 13 6 22 14 17 50 20 50
5z m121 -62 c5 -10 21 -18 34 -18 32 0 39 -14 25 -56 -13 -40 -43 -44 -48 -6
-3 17 -10 22 -32 22 -16 0 -32 -5 -35 -10 -4 -6 -10 -8 -16 -5 -5 3 -17 -12
-26 -35 -21 -47 -28 -50 -29 -12 -1 15 -7 42 -15 60 -14 33 -13 35 16 58 38
30 110 31 126 2z m-91 -222 c0 -3 -4 -8 -10 -11 -5 -3 -10 -1 -10 4 0 6 5 11
10 11 6 0 10 -2 10 -4z m255 -45 c4 -14 19 -21 55 -26 75 -10 60 -25 -25 -25
l-75 0 6 28 c12 48 28 57 39 23z m-315 -1 c0 -5 -4 -10 -10 -10 -5 0 -10 5
-10 10 0 6 5 10 10 10 6 0 10 -4 10 -10z m861 0 c11 0 19 -7 19 -16 0 -12 -8
-14 -47 -9 -27 4 -55 9 -63 11 -26 9 11 25 44 19 16 -3 37 -5 47 -5z m-780
-71 c21 -11 165 -22 252 -20 66 2 78 -4 55 -27 -18 -18 10 -45 40 -37 19 5 23
2 20 -12 -3 -19 -6 -19 -158 -9 -77 5 -79 6 -40 20 19 7 35 19 35 27 0 12 -30
14 -172 13 -101 -1 -173 2 -173 8 0 5 4 7 8 4 4 -2 14 9 21 25 13 29 16 30 55
24 22 -4 48 -11 57 -16z m513 -10 c-6 -11 -24 -2 -24 11 0 5 7 7 15 4 8 -4 12
-10 9 -15z m641 6 c0 -11 -87 -18 -122 -10 -13 3 -23 10 -23 16 0 6 27 9 73 7
39 -2 72 -7 72 -13z m93 -7 c-6 -18 -28 -21 -28 -4 0 9 7 16 16 16 9 0 14 -5
12 -12z m55 -11 c3 -8 0 -14 -7 -14 -6 0 -17 6 -24 14 -10 10 -9 13 7 13 10 0
21 -6 24 -13z m980 -40 c117 -3 192 -8 199 -15 12 -12 24 -192 14 -218 -8 -20
-26 -7 -30 22 -2 12 -12 20 -30 22 -22 3 -27 0 -25 -15 5 -28 -9 -43 -43 -43
-25 0 -29 3 -22 18 4 9 9 34 12 55 4 34 2 38 -14 35 -14 -2 -21 -17 -28 -51
-5 -30 -15 -51 -27 -58 -11 -5 -19 -16 -19 -24 0 -8 -4 -15 -9 -15 -5 0 -7 9
-4 20 3 11 8 20 12 20 4 0 6 16 6 36 -2 35 -19 57 -40 50 -11 -3 -11 -13 3
-68 9 -35 8 -36 -12 -29 -11 5 -20 12 -19 17 2 16 -17 44 -32 44 -7 0 -16 -9
-20 -19 -4 -14 -18 -20 -48 -23 -62 -6 -76 0 -86 41 -30 128 -10 218 48 207
14 -3 111 -7 214 -9z m4781 -12 c16 -24 18 -25 46 -10 26 13 30 13 44 -1 20
-20 40 -88 32 -109 -8 -21 -28 -15 -41 13 -11 25 -40 29 -49 7 -8 -22 -26 -19
-26 4 0 31 -18 34 -48 11 l-27 -22 -8 29 c-12 39 14 103 41 103 11 0 27 -11
36 -25z m-1880 -47 c7 -64 -13 -220 -28 -215 -6 2 -11 46 -13 111 -2 59 -7
116 -13 126 -10 19 -2 28 31 29 12 1 18 -12 23 -51z m-5264 32 c0 -5 -7 -10
-16 -10 -8 0 -12 5 -9 10 3 6 10 10 16 10 5 0 9 -4 9 -10z m4889 -122 c5 -163
-24 -123 -35 47 -4 72 1 94 19 76 7 -7 13 -54 16 -123z m301 124 c0 -4 -4 -12
-10 -18 -5 -5 -10 -52 -12 -104 -3 -87 -5 -95 -23 -95 -17 0 -20 6 -17 43 2
32 -2 44 -14 49 -25 9 -35 -17 -28 -78 4 -39 2 -59 -6 -64 -22 -14 -33 14 -36
97 -1 46 -3 91 -3 101 -1 13 -7 17 -23 15 -29 -4 -42 -53 -35 -135 4 -49 2
-63 -9 -63 -23 0 -33 33 -34 121 -2 140 -7 127 53 132 106 7 197 7 197 -1z
m-388 -47 c-9 -11 -18 -22 -19 -24 -1 -2 -1 6 0 18 1 11 5 21 9 21 4 0 8 8 8
18 0 14 2 15 10 2 6 -10 4 -21 -8 -35z m-4636 10 c15 -14 36 -25 46 -25 11 0
17 -4 14 -9 -3 -4 -44 -7 -90 -6 -47 1 -87 -3 -89 -8 -3 -10 -57 12 -57 25 0
5 11 13 24 18 13 5 27 14 31 19 3 6 26 11 50 11 33 0 51 -6 71 -25z m599 5
c24 -10 9 -17 -47 -22 -41 -4 -49 5 -20 21 20 12 40 13 67 1z m4002 -12 c-3
-8 -6 -5 -6 6 -1 11 2 17 5 13 3 -3 4 -12 1 -19z m-4125 -8 c-19 -4 -68 -11
-109 -15 -57 -5 -74 -4 -68 5 4 6 17 9 30 6 13 -3 34 -2 47 3 13 6 48 10 78 9
49 0 51 -1 22 -8z m265 4 c-3 -3 -12 -4 -19 -1 -8 3 -5 6 6 6 11 1 17 -2 13
-5z m-617 -14 c13 -9 13 -11 0 -19 -17 -12 -30 -5 -30 15 0 16 9 18 30 4z
m150 -10 c0 -5 -7 -10 -15 -10 -8 0 -15 5 -15 10 0 6 7 10 15 10 8 0 15 -4 15
-10z m6284 -26 c20 -8 21 -48 1 -64 -13 -10 -19 -10 -35 5 -23 21 -25 36 -8
53 14 14 20 14 42 6z m-5735 -16 c30 -2 56 -7 58 -13 3 -9 -36 -11 -377 -18
-47 -1 -90 -5 -97 -10 -6 -4 -14 -3 -17 1 -6 10 -365 7 -439 -4 -27 -4 -51
-13 -54 -20 -3 -9 -10 -10 -21 -4 -10 5 -30 11 -45 15 -22 4 -28 11 -25 28 l3
22 379 3 c209 1 382 4 384 6 3 4 147 0 251 -6z m301 -28 c0 -5 -7 -10 -15 -10
-8 0 -15 5 -15 10 0 6 7 10 15 10 8 0 15 -4 15 -10z m110 -7 c0 -5 -11 -9 -25
-9 -14 -1 -25 2 -25 7 0 5 11 9 25 9 14 0 25 -3 25 -7z m5550 -34 c0 -15 4
-30 10 -34 5 -3 7 -12 4 -20 -8 -19 -34 -7 -34 17 0 16 -5 18 -35 12 -33 -6
-35 -4 -35 19 0 19 7 28 28 35 41 13 62 4 62 -29z m-6371 -7 c25 -4 46 -12 48
-18 6 -18 -34 -23 -94 -14 -31 5 -60 7 -65 4 -5 -3 -25 -3 -44 1 -46 8 -39 28
12 36 39 6 59 5 143 -9z m-348 -15 c40 5 87 -13 72 -28 -12 -12 -322 -14 -334
-2 -19 19 18 32 101 35 47 2 94 0 105 -3 11 -3 36 -4 56 -2z m1862 -13 c-7
-19 -10 -18 -16 5 -3 13 -1 18 9 14 7 -2 10 -11 7 -19z m-451 -6 c-6 -6 -16
-7 -22 -3 -9 6 -9 9 1 16 17 10 34 0 21 -13z m-424 -13 c3 -3 1 -10 -4 -15
-16 -16 -236 1 -242 19 -4 11 17 12 118 7 68 -3 125 -8 128 -11z m1223 -11 c9
-11 8 -14 -4 -14 -8 0 -17 6 -20 13 -3 8 -10 6 -26 -8 l-23 -20 12 26 c13 28
39 29 61 3z m4689 12 c0 -5 18 -6 39 -2 47 7 101 -2 101 -18 0 -7 -41 -12
-130 -13 -121 -2 -130 0 -130 17 0 10 5 20 10 22 22 7 110 2 110 -6z m-6742
-33 c-3 -19 -54 -28 -64 -12 -10 16 7 29 37 29 24 0 30 -4 27 -17z m202 2 c7
-8 9 -15 4 -16 -59 -6 -102 -6 -114 1 -13 8 -13 9 0 14 16 5 55 12 81 15 9 0
22 -6 29 -14z m1480 0 c0 -27 -4 -29 -74 -29 -46 0 -71 4 -74 12 -2 8 12 12
47 13 64 2 68 2 77 12 12 12 24 8 24 -8z m452 -17 c-7 -7 -12 -8 -12 -2 0 6 3
14 7 17 3 4 9 5 12 2 2 -3 -1 -11 -7 -17z m4224 -15 c-10 -10 -19 5 -10 18 6
11 8 11 12 0 2 -7 1 -15 -2 -18z m-6538 -11 c18 -23 15 -31 -15 -43 -34 -13
-212 -14 -225 -1 -5 5 -6 21 -3 35 8 30 32 34 155 28 53 -2 79 -8 88 -19z
m878 12 c22 -9 40 -16 42 -15 1 0 12 1 25 1 16 -1 18 -3 7 -8 -26 -13 -160 -2
-160 13 0 12 12 18 41 24 4 0 24 -6 45 -15z m5804 6 c0 -5 -11 -10 -24 -10
-14 0 -28 5 -31 10 -4 6 7 10 24 10 17 0 31 -4 31 -10z m-5446 -19 c6 -9 -73
-25 -81 -17 -3 3 -2 9 2 15 7 13 72 15 79 2z m91 -1 c3 -5 1 -10 -4 -10 -6 0
-11 5 -11 10 0 6 2 10 4 10 3 0 8 -4 11 -10z m880 -16 c50 -4 105 -7 123 -7
l33 0 -7 -41 c-4 -23 -7 -51 -6 -63 1 -13 2 -31 3 -40 1 -10 -1 -67 -4 -128
-3 -60 -9 -191 -12 -290 -3 -99 -10 -245 -15 -325 -6 -108 -5 -149 3 -160 7
-8 21 -31 31 -50 25 -46 46 -70 62 -70 11 0 34 -29 34 -42 0 -2 -67 -4 -149
-5 -82 -1 -153 -3 -157 -4 -32 -6 -55 4 -67 29 -19 36 -30 224 -18 288 6 30 6
66 1 90 -7 29 -5 45 5 61 25 38 19 79 -15 99 -39 23 -41 32 -29 106 7 44 7 88
-1 143 -16 125 -18 240 -3 282 7 21 13 56 13 79 0 49 11 62 53 57 18 -1 73 -6
122 -9z m-1965 -24 c0 -34 0 -34 -33 -19 -18 8 -30 8 -47 -1 -18 -10 -21 -9
-15 1 6 9 2 11 -13 7 -25 -7 -35 3 -26 26 5 12 21 16 70 16 l64 0 0 -30z
m6834 4 c3 -8 2 -12 -4 -9 -6 3 -10 10 -10 16 0 14 7 11 14 -7z m-6184 -24 c0
-5 -9 -10 -20 -10 -11 0 -20 5 -20 10 0 6 9 10 20 10 11 0 20 -4 20 -10z
m6187 -42 c-3 -7 -5 -2 -5 12 0 14 2 19 5 13 2 -7 2 -19 0 -25z m-6991 3 c44
0 86 -3 95 -6 9 -3 24 1 33 10 19 19 36 12 36 -16 0 -14 -9 -21 -32 -26 -18
-4 -37 -6 -41 -5 -4 1 -100 2 -212 3 -113 0 -207 4 -210 8 -12 21 31 34 117
37 50 2 93 6 96 8 2 3 12 1 22 -4 9 -5 53 -9 96 -9z m4842 -298 c-2 -164 -1
-336 1 -383 5 -100 -14 -396 -28 -432 -12 -33 -24 -34 -211 -28 -150 5 -155 6
-158 27 -2 16 6 26 35 39 21 10 47 26 57 36 11 10 25 18 31 18 7 0 24 11 39
25 15 14 33 25 40 25 27 0 36 72 12 99 -30 35 -66 242 -75 426 -4 96 -9 129
-18 128 -17 -4 -16 12 3 48 8 17 14 38 13 47 -1 9 1 30 6 45 4 17 3 44 -4 65
-7 21 -13 51 -14 67 -2 28 0 30 29 27 16 -1 41 2 55 7 13 5 61 10 107 10 l83
1 -3 -297z m1764 235 c-7 -7 -12 -8 -12 -2 0 14 12 26 19 19 2 -3 -1 -11 -7
-17z m-8 -33 c3 -8 12 -15 21 -15 20 0 77 -29 87 -44 23 -34 -2 -72 -28 -46
-17 17 -70 0 -108 -34 -31 -29 -39 -32 -78 -27 -33 5 -44 11 -46 26 -2 16 5
23 30 30 37 11 50 43 24 57 -20 11 -20 32 0 52 20 21 90 21 98 1z m-5860 -41
c25 -9 19 -24 -9 -24 -24 0 -32 10 -18 23 8 8 8 8 27 1z m171 -4 c17 -7 18 -9
4 -15 -26 -10 -102 -1 -107 13 -4 14 70 16 103 2z m85 -10 c-6 -4 -23 -5 -37
-2 -15 3 -20 7 -13 12 6 4 23 5 37 2 15 -3 20 -7 13 -12z m553 -9 c-3 -12 -11
-17 -19 -14 -17 6 -18 20 -1 26 22 9 25 7 20 -12z m-1293 -13 c0 -25 -43 -41
-103 -39 -27 0 -54 -2 -60 -6 -6 -4 -29 -6 -51 -4 -23 2 -42 -2 -47 -10 -6
-10 -11 -10 -22 0 -10 8 -57 12 -142 12 -74 0 -136 4 -148 11 l-21 11 22 18
c13 10 32 16 43 14 12 -2 78 -4 148 -4 69 0 142 0 161 -1 19 0 47 3 63 7 15 5
57 8 92 9 57 1 65 -1 65 -18z m782 -7 c2 -5 55 -12 118 -17 103 -6 142 -7 198
-4 51 4 504 -10 512 -15 13 -8 13 -72 1 -79 -17 -11 -39 5 -34 25 4 15 0 19
-21 19 -19 0 -26 -5 -26 -20 0 -17 -7 -20 -40 -20 -22 0 -40 5 -40 10 0 6 5
10 10 10 6 0 10 6 10 14 0 22 -277 33 -770 28 -224 -2 -263 -1 -387 8 -68 5
-136 5 -152 0 -33 -9 -94 0 -89 14 4 12 24 13 248 14 380 2 425 3 435 13 11
11 22 12 27 0z m1255 -33 c-3 -8 -6 -5 -6 6 -1 11 2 17 5 13 3 -3 4 -12 1 -19z
m-2037 -48 c0 -21 -15 -27 -25 -10 -7 12 2 30 16 30 5 0 9 -9 9 -20z m-300
-12 c0 -16 -33 -42 -42 -33 -2 2 -44 7 -93 11 -50 3 -92 8 -94 10 -2 2 -1 9 1
16 4 10 35 13 117 13 98 0 111 -2 111 -17z m210 -3 c19 -20 21 -29 13 -47 -11
-22 -11 -22 -18 -3 -5 11 -17 27 -28 36 -11 9 -17 21 -13 28 11 16 20 14 46
-14z m204 4 c32 -26 33 -39 2 -39 -13 0 -26 -6 -29 -12 -7 -20 -41 5 -45 32
-6 41 31 51 72 19z m316 -1 c325 6 899 6 906 0 4 -5 5 -10 2 -13 -3 -3 -90 -7
-194 -10 -320 -7 -589 -17 -596 -22 -5 -2 -8 -13 -8 -24 0 -10 -6 -19 -14 -19
-21 0 -30 18 -17 34 6 7 9 15 7 17 -2 2 -58 1 -123 -2 -89 -4 -123 -3 -140 8
-12 7 -34 13 -48 13 -16 0 -25 6 -25 15 0 13 11 14 73 8 39 -4 119 -6 177 -5z
m5520 8 c0 -9 -30 -14 -35 -6 -4 6 3 10 14 10 12 0 21 -2 21 -4z m-6106 -22
c6 -17 -20 -63 -38 -65 -6 -1 -17 -1 -24 0 -7 1 -15 -5 -18 -14 -3 -8 -10 -15
-14 -15 -16 0 -16 55 -1 83 12 22 22 27 52 27 24 0 39 -5 43 -16z m1536 6 c0
-5 -4 -10 -10 -10 -5 0 -10 5 -10 10 0 6 5 10 10 10 6 0 10 -4 10 -10z m5346
-14 c3 -14 3 -30 -1 -35 -6 -10 -165 -16 -165 -7 0 2 -3 11 -6 19 -11 30 24
47 97 47 64 0 69 -1 75 -24z m-442 -13 c10 -24 -7 -35 -50 -31 -51 4 -53 30
-4 39 19 4 38 7 41 8 4 0 10 -7 13 -16z m-6838 -27 c8 -34 1 -61 -16 -61 -10
0 -16 13 -18 43 -2 32 0 42 12 42 9 0 18 -11 22 -24z m199 -16 c0 -11 -14 -16
-49 -18 -62 -4 -96 4 -96 23 0 12 14 14 73 12 56 -1 72 -5 72 -17z m1988 -1
c6 -9 8 -23 5 -30 -5 -12 -47 -14 -254 -12 -137 2 -251 3 -254 3 -3 0 -114 2
-247 3 -157 1 -242 6 -240 12 2 6 17 11 33 11 16 1 83 4 149 7 66 4 194 9 285
13 91 4 166 7 167 8 1 1 80 2 174 1 147 0 173 -2 182 -16z m-1630 -3 c7 -18
-1 -26 -25 -26 -18 0 -25 20 -11 33 11 12 31 8 36 -7z m-163 -12 c0 -8 -4 -12
-10 -9 -5 3 -10 10 -10 16 0 5 5 9 10 9 6 0 10 -7 10 -16z m5520 -4 c133 -14
152 -30 40 -31 -47 -1 -110 -3 -140 -3 -64 -2 -103 9 -97 27 4 13 52 26 77 21
8 -2 62 -8 120 -14z m1217 -7 c7 -19 -134 -29 -375 -25 -94 2 -123 5 -120 15
8 22 488 32 495 10z m-6367 -23 c0 -12 6 -20 13 -19 23 3 37 -1 37 -11 0 -5
-20 -8 -45 -7 -26 1 -43 6 -40 12 3 6 8 18 11 28 9 23 24 22 24 -3z m5473 10
c9 0 17 -7 17 -15 0 -13 -12 -15 -62 -14 -61 2 -93 13 -83 29 2 4 28 6 57 4
29 -2 61 -3 71 -4z m-6013 -16 c5 -5 10 -15 12 -23 4 -21 -195 -27 -212 -7 -8
10 -7 17 3 27 15 16 182 18 197 3z m405 -19 c0 -5 -17 -11 -37 -13 -30 -3 -38
0 -38 13 0 13 8 16 38 13 20 -2 37 -7 37 -13z m73 -3 c2 -8 -8 -12 -27 -12
-31 0 -42 14 -18 23 19 7 41 1 45 -11z m1035 -11 c20 -1 27 -6 27 -20 0 -18
-9 -19 -157 -20 -87 -1 -167 -2 -178 -4 -14 -1 -20 4 -20 18 0 18 8 21 85 25
75 5 157 5 243 1z m262 -12 c5 -5 -5 -9 -26 -9 -19 0 -40 -5 -47 -12 -9 -9
-12 -9 -12 0 0 7 -13 12 -30 12 -30 0 -40 14 -17 24 17 8 120 -4 132 -15z
m180 11 c3 -5 -1 -10 -10 -10 -9 0 -13 5 -10 10 3 6 8 10 10 10 2 0 7 -4 10
-10z m4689 1 c6 0 6 -4 0 -10 -5 -5 -127 -12 -271 -16 -221 -5 -263 -4 -263 8
0 7 2 16 5 19 5 5 500 4 529 -1z m-4806 -13 c-7 -19 -38 -22 -38 -4 0 10 9 16
21 16 12 0 19 -5 17 -12z m32 8 c0 -3 -4 -8 -10 -11 -5 -3 -10 -1 -10 4 0 6 5
11 10 11 6 0 10 -2 10 -4z m4066 -16 c33 0 47 -21 25 -35 -16 -9 -182 -12
-188 -2 -3 4 -21 8 -42 7 -80 -4 -101 0 -101 16 0 14 8 16 53 11 28 -3 70 -2
92 3 22 5 60 7 84 4 24 -2 59 -4 77 -4z m-5479 -24 c78 3 113 -6 77 -20 -23
-9 -191 -9 -205 0 -9 5 -7 11 6 20 11 8 23 10 29 5 6 -5 48 -7 93 -5z m313 0
c0 -9 -24 -15 -86 -20 -48 -3 -89 -4 -92 -1 -11 11 10 18 70 25 99 11 108 11
108 -4z m6253 -3 c42 -6 48 -19 15 -32 -13 -5 -207 -11 -433 -15 -225 -4 -443
-8 -483 -10 -81 -5 -127 4 -127 24 0 11 31 14 145 15 80 1 197 5 260 9 63 3
195 8 294 11 98 2 181 7 185 11 5 5 38 3 144 -13z m-7165 -22 c3 -21 1 -23
-25 -17 -15 4 -40 10 -55 13 -16 3 -28 12 -28 20 0 11 12 13 53 11 46 -3 52
-6 55 -27z m5642 -16 c3 -6 -37 -11 -107 -13 -69 -2 -113 1 -113 7 0 18 211
24 220 6z m-339 -8 c-10 -10 -101 -16 -101 -6 0 10 27 15 72 15 21 0 34 -4 29
-9z m99 3 c0 -5 -5 -10 -11 -10 -5 0 -7 5 -4 10 3 6 8 10 11 10 2 0 4 -4 4
-10z m-5335 -41 c268 3 369 3 415 1 30 -2 105 -3 165 -3 61 1 153 1 205 0 52
-1 115 0 140 1 25 1 56 2 70 2 14 -1 70 3 125 8 55 5 110 5 122 1 12 -5 141
-11 285 -15 314 -8 261 -9 392 6 59 7 112 8 116 3 5 -4 10 -28 12 -52 l3 -44
-660 2 c-363 1 -798 3 -968 5 -294 2 -307 2 -301 -16 3 -10 0 -18 -6 -18 -7 0
-14 8 -17 19 -4 17 -17 19 -136 20 -72 1 -132 3 -134 5 -9 9 -5 79 5 85 7 4
38 3 69 -2 32 -5 76 -8 98 -8z m6835 -9 c8 -1 74 0 147 1 72 0 136 -2 142 -5
13 -8 14 -75 2 -95 -8 -12 -82 -13 -472 -8 -371 5 -928 15 -1044 18 -11 0 -72
0 -135 1 -63 0 -185 1 -270 2 l-155 1 -3 29 c-5 38 12 46 78 40 30 -3 62 -5
70 -5 37 1 408 13 435 14 17 0 102 -4 191 -11 96 -7 173 -8 192 -3 19 6 34 5
40 -1 6 -6 19 -7 29 -3 26 11 40 12 333 20 146 4 266 8 267 9 2 1 129 -2 153
-4z m-1520 -126 c0 -8 -4 -12 -10 -9 -5 3 -10 10 -10 16 0 5 5 9 10 9 6 0 10
-7 10 -16z m-3213 -46 c-3 -8 -6 -5 -6 6 -1 11 2 17 5 13 3 -3 4 -12 1 -19z
m470 -390 c-3 -8 -6 -5 -6 6 -1 11 2 17 5 13 3 -3 4 -12 1 -19z m88 -18 c3 -6
-1 -7 -9 -4 -10 4 -16 1 -16 -7 0 -7 -3 -10 -6 -6 -7 7 4 27 16 27 5 0 12 -4
15 -10z m457 -74 c19 -8 56 -33 83 -55 27 -23 68 -47 90 -54 22 -8 40 -20 40
-27 0 -7 -37 -24 -90 -41 -49 -15 -117 -38 -150 -49 -111 -40 -385 -51 -385
-15 0 7 44 35 98 61 78 38 111 62 170 121 40 40 81 73 91 73 10 0 34 -6 53
-14z m798 -130 c0 -3 -4 -8 -10 -11 -5 -3 -10 -1 -10 4 0 6 5 11 10 11 6 0 10
-2 10 -4z m-1035 -156 c-3 -5 -10 -10 -16 -10 -5 0 -9 5 -9 10 0 6 7 10 16 10
8 0 12 -4 9 -10z"/>
<path d="M3664 13476 c-17 -45 25 -71 73 -45 18 10 26 10 35 1 7 -7 24 -12 40
-12 16 0 31 -7 37 -18 9 -17 7 -188 -4 -249 l-6 -31 -72 1 c-87 1 -117 -8
-117 -33 0 -10 3 -21 8 -24 4 -2 147 -7 317 -10 171 -3 333 -9 361 -12 40 -5
54 -2 67 11 43 42 9 68 -88 66 l-75 -1 -2 97 c-4 198 -6 193 86 193 79 0 103
13 92 48 -6 17 -16 19 -69 18 -34 0 -75 1 -92 2 -16 2 -91 3 -165 2 -74 -1
-199 2 -278 5 -119 4 -143 3 -148 -9z m426 -16 c0 -5 -5 -10 -11 -10 -5 0 -7
5 -4 10 3 6 8 10 11 10 2 0 4 -4 4 -10z m38 -45 c3 -3 3 -46 -1 -200 l-2 -90
-70 -2 c-110 -2 -102 -13 -101 149 l1 142 25 6 c23 5 141 1 148 -5z m-346
-327 c-7 -7 -12 -8 -12 -2 0 14 12 26 19 19 2 -3 -1 -11 -7 -17z"/>
<path d="M5655 12436 c-22 -7 -66 -24 -98 -39 -32 -15 -62 -27 -67 -27 -15 0
-150 -167 -166 -205 -7 -19 -14 -46 -14 -60 0 -36 35 -33 55 5 24 47 120 112
174 118 165 19 273 -19 346 -122 64 -91 57 -217 -18 -295 -48 -51 -105 -90
-161 -111 -29 -11 -42 -22 -44 -38 -3 -21 0 -22 66 -22 48 0 85 6 117 20 26
11 54 20 64 20 25 0 120 73 163 126 60 73 102 167 106 239 5 75 -20 180 -51
215 -13 14 -39 46 -58 71 -23 33 -54 57 -99 80 -61 32 -72 34 -170 35 -58 1
-123 -4 -145 -10z m243 -76 c20 -11 42 -20 48 -20 28 0 86 -65 129 -145 43
-80 43 -228 0 -313 -35 -70 -152 -172 -197 -172 -25 0 -23 7 18 57 84 102 108
203 72 307 -11 34 -26 66 -33 71 -6 6 -10 15 -8 21 4 11 -63 80 -103 108 -44
30 -213 43 -273 22 -24 -9 -52 -16 -63 -16 -19 0 -19 1 2 30 20 28 62 46 175
74 45 11 197 -5 233 -24z m-58 -660 c0 -5 -5 -10 -11 -10 -5 0 -7 5 -4 10 3 6
8 10 11 10 2 0 4 -4 4 -10z"/>
<path d="M3955 8630 c-9 -15 10 -35 46 -50 25 -11 35 -10 64 6 19 10 35 24 35
31 0 17 -44 27 -67 15 -12 -7 -25 -7 -34 -1 -19 12 -36 11 -44 -1z"/>
<path d="M3971 8498 c-14 -10 -34 -18 -43 -18 -27 0 -22 -27 6 -34 13 -3 43
-2 67 2 24 4 61 5 81 2 55 -10 100 -1 96 19 -2 10 -14 16 -30 16 -14 1 -33 7
-41 14 -24 19 -105 19 -136 -1z"/>
<path d="M3980 8410 c0 -5 11 -17 25 -26 29 -19 65 -10 65 17 0 16 -7 19 -45
19 -25 0 -45 -4 -45 -10z"/>
<path d="M6760 7427 c-3 -3 -32 -7 -65 -9 -44 -3 -60 -8 -60 -19 0 -11 24 -14
135 -14 120 0 140 -3 181 -22 25 -13 51 -23 57 -23 24 0 11 21 -20 36 -18 9
-45 22 -59 29 -26 15 -160 32 -169 22z"/>
<path d="M893 7133 c-35 -14 3 -54 49 -52 13 1 51 -2 84 -6 63 -8 79 -1 68 28
-4 11 -26 18 -72 22 -37 3 -78 8 -92 10 -14 2 -31 1 -37 -2z"/>
<path d="M1320 7112 c-77 -3 -103 -13 -93 -38 6 -16 79 -19 102 -5 8 6 24 6
38 0 27 -10 77 5 71 23 -6 18 -37 23 -118 20z"/>
<path d="M1575 7112 c-38 -5 -51 -17 -37 -35 8 -9 49 -13 154 -15 79 -1 151 1
161 4 30 10 20 34 -15 35 -51 2 -159 8 -198 12 -19 2 -48 2 -65 -1z"/>
<path d="M2343 7090 c-47 -19 -23 -45 54 -60 78 -15 116 -8 111 22 -2 19 -14
24 -68 34 -77 15 -70 15 -97 4z"/>
<path d="M2808 7092 c-32 -4 -46 -32 -23 -48 18 -13 134 -9 148 5 15 15 0 41
-25 42 -13 0 -34 1 -48 2 -14 1 -37 1 -52 -1z"/>
<path d="M2040 7080 c-19 -12 -5 -37 22 -41 13 -2 62 -3 111 -1 68 3 87 7 87
18 0 8 -6 16 -12 19 -27 8 -197 12 -208 5z"/>
<path d="M5097 7082 c-9 -2 -17 -9 -17 -17 0 -14 45 -29 60 -20 6 3 64 6 131
6 108 0 120 2 117 17 -3 15 -20 17 -139 17 -74 0 -143 -1 -152 -3z"/>
<path d="M5640 7070 c-31 -3 -45 -10 -45 -20 0 -12 19 -15 110 -16 61 0 159
-3 219 -5 78 -3 110 -1 113 8 2 6 -4 16 -14 21 -20 11 -312 20 -383 12z"/>
<path d="M7499 7076 c-2 -2 -65 -7 -139 -10 -74 -4 -166 -9 -205 -13 -64 -5
-81 -5 -117 -3 -7 1 -74 -2 -148 -6 -133 -7 -206 -7 -345 2 -38 2 -90 5 -114
6 -27 2 -46 -2 -48 -9 -4 -12 25 -16 172 -28 184 -15 1045 7 1045 26 0 4 -15
12 -32 17 -18 6 -40 13 -49 16 -8 4 -17 5 -20 2z"/>
<path d="M466 6974 c-4 -9 -2 -22 3 -27 10 -10 257 -26 329 -21 17 1 77 2 132
3 81 1 102 4 107 16 3 9 2 19 -2 23 -3 4 -73 8 -153 8 -81 1 -206 5 -278 9
-120 6 -132 6 -138 -11z"/>
<path d="M1207 6966 c-8 -19 -3 -22 51 -31 42 -7 44 -6 40 16 -2 20 -10 24
-44 27 -30 2 -43 -1 -47 -12z"/>
<path d="M7506 6971 c-13 -20 2 -28 51 -30 27 -1 55 -2 63 -3 29 -2 50 2 50
11 0 19 -153 40 -164 22z"/>
<path d="M1500 6935 c0 -21 5 -25 30 -25 19 0 33 6 37 16 7 19 -13 34 -44 34
-18 0 -23 -6 -23 -25z"/>
<path d="M1646 6945 c-8 -22 9 -32 69 -43 63 -10 85 -7 85 12 0 26 -145 55
-154 31z"/>
<path d="M6282 6939 c-47 -18 -9 -26 128 -28 120 -2 140 0 140 13 0 13 -17 15
-97 16 -54 0 -109 2 -123 4 -14 2 -35 0 -48 -5z"/>
<path d="M2972 6919 c-13 -5 -97 -7 -188 -4 -156 4 -164 3 -164 -14 0 -23 34
-32 117 -32 32 1 83 0 113 0 156 -2 180 0 180 19 0 17 -18 43 -29 41 -4 0 -16
-4 -29 -10z"/>
<path d="M6771 6905 c-58 -26 -25 -35 99 -27 92 6 115 10 115 22 0 22 -167 25
-214 5z"/>
<path d="M2117 6903 c-4 -3 -2 -12 4 -20 16 -18 119 -18 119 1 0 7 -10 16 -22
20 -31 8 -93 8 -101 -1z"/>
<path d="M5080 6890 c0 -11 6 -20 13 -21 6 0 32 -2 57 -4 25 -2 123 -6 218
-10 149 -5 172 -4 172 9 0 17 -21 25 -70 25 -19 0 -107 5 -195 10 -206 14
-195 15 -195 -9z"/>
<path d="M7266 6891 c-11 -11 -15 -22 -10 -23 28 -5 234 -3 234 3 0 20 -40 32
-118 36 -79 5 -89 4 -106 -16z"/>
<path d="M5796 6872 c-3 -5 12 -14 34 -21 46 -14 143 -5 137 13 -4 13 -163 21
-171 8z"/>
<path d="M6146 6851 c-48 -14 -68 -27 -104 -66 -42 -47 -44 -52 -39 -97 6 -50
1 -58 -39 -63 -14 -1 -30 -10 -37 -19 -11 -14 -32 -17 -139 -18 l-127 0 -3
-27 c-3 -25 -6 -26 -73 -28 -100 -4 -117 -9 -113 -36 2 -14 11 -23 26 -25 12
-2 26 -11 31 -20 8 -16 50 -17 513 -14 644 3 760 5 775 14 7 5 15 -3 22 -22 5
-17 16 -30 23 -31 49 -4 417 3 505 9 59 5 145 7 191 6 122 -4 173 21 95 46
-21 7 -58 28 -83 47 -36 28 -51 34 -77 30 -28 -5 -64 7 -133 42 -8 5 -16 18
-18 30 -3 16 -19 29 -59 46 -31 14 -61 25 -68 25 -8 0 -16 6 -18 13 -3 6 -6 3
-7 -8 -1 -19 -2 -19 -10 2 -8 19 -13 21 -39 13 -17 -4 -45 -16 -63 -26 -18 -9
-41 -21 -50 -25 -10 -5 -41 -9 -69 -9 -27 0 -60 -5 -71 -11 -15 -8 -31 -8 -57
-1 -20 6 -54 14 -76 19 -31 6 -41 13 -43 30 -2 15 -13 25 -30 29 -15 4 -49 23
-77 42 -43 30 -56 35 -103 33 -44 -1 -56 2 -71 20 -9 12 -29 23 -43 24 -15 2
-31 6 -36 9 -14 9 -33 -19 -26 -38 4 -9 18 -16 35 -16 29 0 33 -3 70 -52 23
-31 41 -35 59 -13 18 22 47 18 86 -12 30 -22 35 -31 32 -62 l-3 -36 -50 0
c-44 0 -50 -3 -53 -23 -4 -26 -24 -38 -68 -40 l-32 -2 -1 55 c0 31 -3 59 -5
64 -3 5 -25 13 -48 19 -127 30 -132 31 -143 17 -5 -8 -23 -15 -40 -17 -24 -2
-31 -8 -33 -30 -4 -31 -17 -37 -26 -12 -4 10 -13 13 -25 9 -19 -6 -31 16 -31
61 0 54 113 119 192 110 50 -5 63 2 53 33 -7 24 -68 25 -149 2z m1132 -271 c9
-20 31 -42 49 -50 43 -20 43 -40 1 -39 -32 2 -241 -27 -265 -36 -7 -2 -25 6
-40 19 -22 18 -46 26 -105 31 -46 4 -82 13 -89 21 -6 8 -28 14 -48 14 -24 1
-46 9 -66 26 l-30 26 45 -7 c25 -3 90 -13 145 -22 115 -18 163 -19 177 -5 6 6
23 8 38 5 20 -3 34 1 48 15 58 58 111 58 140 2z m-938 -31 c0 -5 -9 -9 -20 -9
-19 0 -26 11 -14 23 8 8 34 -3 34 -14z m-590 -63 c0 -3 -4 -8 -10 -11 -5 -3
-10 -1 -10 4 0 6 5 11 10 11 6 0 10 -2 10 -4z"/>
<path d="M6665 6810 c-67 -9 -45 -25 39 -28 82 -3 114 8 79 26 -20 11 -49 12
-118 2z"/>
<path d="M1110 6803 c-45 -6 -58 -18 -31 -32 13 -7 61 -10 123 -9 95 3 103 5
103 23 0 18 -7 20 -80 21 -44 1 -96 -1 -115 -3z"/>
<path d="M1455 6800 c-4 -7 0 -19 9 -28 14 -14 41 -17 169 -17 84 0 157 -3
162 -7 6 -3 35 -3 65 0 46 6 55 10 55 27 0 18 -7 20 -75 21 -41 1 -143 5 -226
9 -113 5 -154 4 -159 -5z"/>
<path d="M2200 6796 c0 -26 -31 -23 401 -42 143 -6 169 1 136 33 -23 24 -537
32 -537 9z"/>
<path d="M2866 6802 c-9 -15 20 -34 46 -30 35 5 29 32 -9 36 -17 2 -34 -1 -37
-6z"/>
<path d="M7032 6791 c-48 -12 -25 -26 46 -28 67 -2 88 6 61 23 -15 9 -78 12
-107 5z"/>
<path d="M6101 6747 c-6 -8 -14 -28 -17 -45 -6 -28 -4 -32 15 -32 27 0 59 68
39 82 -18 11 -24 10 -37 -5z"/>
<path d="M4998 6724 c-5 -4 -8 -13 -8 -20 0 -10 38 -12 165 -11 128 1 165 4
165 14 0 7 -10 13 -22 13 -13 1 -84 3 -158 6 -74 3 -138 2 -142 -2z"/>
<path d="M1943 6689 c-22 -6 -33 -16 -33 -29 0 -24 33 -35 59 -19 15 10 42 10
128 0 59 -7 160 -13 223 -14 94 -2 115 1 115 12 0 20 -40 29 -148 32 -50 1
-105 6 -121 11 -49 13 -189 18 -223 7z"/>
<path d="M3772 6688 c-8 -11 -41 -230 -41 -278 0 -8 -6 -64 -13 -123 -11 -84
-11 -113 -2 -125 10 -14 14 -14 29 -2 13 11 15 23 10 56 -3 23 -2 45 3 48 9 5
20 96 28 226 1 30 8 83 15 117 15 79 1 117 -29 81z"/>
<path d="M5660 6681 c-27 -10 -46 -24 -48 -35 -4 -17 1 -18 55 -11 65 8 77 14
71 41 -4 25 -23 26 -78 5z"/>
<path d="M2791 6676 c-6 -7 -6 -17 -1 -26 14 -23 265 -28 273 -7 3 9 0 20 -6
25 -19 15 -255 22 -266 8z"/>
<path d="M3677 6653 c-2 -5 -5 -44 -6 -89 -2 -63 1 -83 14 -94 8 -7 18 -10 22
-7 9 9 9 137 0 170 -7 26 -21 35 -30 20z"/>
<path d="M960 6635 c0 -22 7 -23 193 -28 l167 -3 0 23 0 23 -180 0 c-155 0
-180 -2 -180 -15z"/>
<path d="M5303 6623 c-7 -2 -13 -11 -13 -19 0 -11 8 -14 28 -12 16 2 27 9 27
18 0 15 -21 22 -42 13z"/>
<path d="M2550 6569 c1 -35 17 -41 121 -43 57 -1 147 1 199 5 53 4 99 3 104
-2 16 -14 56 -10 62 6 10 24 -16 47 -45 41 -34 -8 -299 -7 -378 1 -50 4 -63 3
-63 -8z"/>
<path d="M3173 6572 c-28 -4 -30 -28 -3 -42 27 -14 70 -2 70 20 0 19 -28 28
-67 22z"/>
<path d="M4863 6565 c-10 -7 -13 -17 -8 -25 6 -10 29 -11 93 -7 84 6 116 17
91 32 -20 13 -158 13 -176 0z"/>
<path d="M7630 6570 c0 -5 7 -10 15 -10 8 0 15 5 15 10 0 6 -7 10 -15 10 -8 0
-15 -4 -15 -10z"/>
<path d="M2004 6559 c-8 -14 21 -43 35 -35 17 11 13 24 -8 36 -14 7 -22 7 -27
-1z"/>
<path d="M2365 6560 c-11 -19 6 -30 46 -30 32 0 39 3 39 20 0 17 -7 20 -39 20
-22 0 -43 -4 -46 -10z"/>
<path d="M4667 6563 c-10 -9 -8 -43 2 -43 10 0 46 -99 56 -153 6 -38 28 -58
45 -41 19 19 -29 211 -57 231 -19 14 -36 17 -46 6z"/>
<path d="M2100 6545 c0 -31 82 -33 88 -2 3 14 -4 17 -42 17 -34 0 -46 -4 -46
-15z"/>
<path d="M777 6544 c-3 -4 -40 -6 -81 -6 -68 1 -76 -1 -82 -20 -7 -25 12 -39
42 -32 11 3 52 8 90 12 60 6 69 10 69 27 0 19 -25 32 -38 19z"/>
<path d="M5045 6480 c-16 -25 32 -50 99 -51 264 -6 298 -4 310 14 16 26 -3 34
-82 35 -37 0 -124 4 -193 8 -99 5 -128 4 -134 -6z"/>
<path d="M2143 6434 c-10 -26 17 -35 89 -32 72 4 84 9 75 33 -9 22 -155 22
-164 -1z"/>
<path d="M2504 6428 c-3 -5 -1 -15 6 -22 8 -11 60 -14 238 -16 125 -1 261 -2
302 -3 41 0 107 2 145 5 39 4 73 7 78 7 4 1 7 8 7 16 0 12 -40 15 -287 15
-159 0 -332 1 -386 3 -54 2 -100 0 -103 -5z"/>
<path d="M5448 6403 c-54 -14 26 -55 89 -46 40 5 66 30 40 38 -23 7 -112 13
-129 8z"/>
<path d="M5680 6385 c-7 -8 -10 -21 -7 -28 4 -11 41 -13 186 -11 100 2 185 5
189 7 4 3 43 1 87 -3 61 -5 83 -4 95 6 27 26 -3 35 -121 33 -170 -2 -350 1
-385 6 -21 3 -36 -1 -44 -10z"/>
<path d="M6353 6383 c-14 -3 -23 -12 -23 -22 0 -16 14 -18 135 -19 l135 -2 0
25 0 25 -112 -1 c-62 -1 -123 -4 -135 -6z"/>
<path d="M4903 6349 c-6 -6 -8 -19 -6 -30 5 -16 15 -19 77 -19 39 -1 97 -3
129 -5 46 -4 59 -2 64 11 9 24 -10 31 -105 37 -48 4 -101 9 -117 12 -17 3 -35
1 -42 -6z"/>
<path d="M6705 6342 c-36 -18 -45 -30 -38 -50 6 -14 19 -14 101 7 40 11 190 8
272 -5 19 -2 135 -7 258 -9 122 -2 236 -6 252 -10 37 -8 53 18 25 39 -24 17
-267 29 -277 13 -4 -8 -11 -7 -21 2 -10 7 -28 10 -49 6 -18 -3 -82 -1 -143 5
-184 20 -345 21 -380 2z"/>
<path d="M3112 6342 c-90 -2 -103 -5 -100 -19 5 -25 56 -32 156 -21 110 11
110 11 154 5 40 -6 58 7 39 26 -12 12 -66 14 -249 9z"/>
<path d="M4754 6296 c-4 -9 -4 -26 -1 -37 4 -15 0 -23 -13 -26 -10 -3 -20 -13
-23 -24 -3 -11 -14 -19 -25 -19 -12 0 -35 -18 -54 -42 -45 -56 -58 -90 -46
-111 18 -34 48 -14 48 33 0 18 62 80 81 80 21 0 89 -41 89 -54 0 -7 -9 -21
-19 -30 -12 -11 -17 -25 -14 -37 5 -18 11 -20 40 -14 45 8 64 -7 56 -46 -3
-17 0 -38 9 -51 8 -13 18 -42 22 -65 5 -38 4 -43 -13 -43 -11 0 -23 5 -27 11
-3 6 -20 17 -37 24 -25 10 -37 10 -71 -3 -55 -21 -66 -30 -66 -57 0 -27 29
-55 58 -55 26 0 38 18 23 33 -16 16 -14 37 4 37 9 0 31 -7 51 -15 31 -13 33
-16 23 -33 -17 -27 -6 -48 31 -55 23 -5 34 -15 41 -37 12 -33 71 -75 94 -66 8
3 15 14 15 24 0 21 -26 79 -46 102 -20 24 -42 97 -37 123 3 13 -2 48 -11 77
-9 30 -16 68 -16 85 0 20 -9 40 -24 54 -13 13 -27 38 -31 58 -5 26 -13 37 -35
45 -28 9 -29 13 -32 76 -2 54 -6 67 -21 70 -9 2 -20 -4 -23 -12z"/>
<path d="M5320 6280 c0 -18 7 -20 68 -22 113 -3 134 -4 217 -16 111 -15 615
-13 615 3 0 13 -124 27 -175 20 -69 -11 -364 -4 -445 10 -47 8 -129 17 -183
20 -92 5 -97 5 -97 -15z"/>
<path d="M3256 6261 c-10 -16 5 -41 24 -41 26 0 43 23 28 38 -14 14 -45 16
-52 3z"/>
<path d="M5411 6126 c-17 -20 2 -31 57 -32 44 -1 52 1 52 17 0 11 -9 20 -22
23 -42 7 -77 4 -87 -8z"/>
<path d="M6418 6128 c-9 -25 4 -38 39 -38 30 0 34 3 31 23 -2 17 -11 23 -34
25 -19 2 -33 -2 -36 -10z"/>
<path d="M6703 6111 c-14 -23 -8 -31 24 -31 20 0 24 5 21 22 -4 29 -29 34 -45
9z"/>
<path d="M5810 6111 c-28 -19 3 -26 111 -26 80 0 109 3 109 13 0 8 -21 12 -74
12 -40 0 -86 2 -102 5 -16 3 -36 1 -44 -4z"/>
<path d="M6858 6113 c-19 -3 -28 -11 -28 -22 0 -17 14 -19 163 -23 202 -6 533
7 572 22 28 11 29 12 11 22 -13 8 -73 8 -190 3 -94 -4 -178 -7 -186 -7 -108 6
-321 9 -342 5z"/>
<path d="M5027 6095 c-9 -21 -2 -22 93 -26 72 -3 85 -2 88 12 2 13 -9 18 -50
22 -86 11 -125 8 -131 -8z"/>
<path d="M4556 5970 c-28 -48 -85 -103 -156 -151 -36 -24 -67 -46 -70 -49 -11
-12 -136 -97 -152 -103 -14 -5 -16 -12 -9 -29 13 -36 39 -33 80 9 21 21 70 61
111 88 40 28 91 66 114 85 51 43 124 132 128 156 5 31 -26 26 -46 -6z"/>
<path d="M7483 5962 c-6 -4 -9 -19 -6 -35 5 -23 10 -28 27 -23 11 3 47 6 79 6
49 0 57 3 57 18 0 11 -11 24 -25 30 -29 13 -114 16 -132 4z"/>
<path d="M5125 5930 l-19 -21 52 4 c76 6 86 23 21 33 -27 5 -39 1 -54 -16z"/>
<path d="M5552 5913 c-17 -17 -15 -20 16 -25 15 -3 32 -6 37 -8 19 -6 115 12
115 22 0 13 -16 16 -91 20 -44 3 -70 0 -77 -9z"/>
<path d="M6250 5901 c0 -6 5 -11 11 -11 5 0 7 -4 4 -10 -4 -6 12 -10 39 -10
34 0 46 4 46 15 0 8 -8 15 -19 15 -10 0 -33 3 -50 6 -20 4 -31 3 -31 -5z"/>
<path d="M4558 5829 c-32 -34 -60 -69 -63 -79 -6 -18 -61 -53 -138 -86 -59
-26 -75 -40 -60 -55 17 -17 168 60 214 108 20 21 62 64 94 95 31 32 54 62 50
68 -14 22 -42 7 -97 -51z"/>
<path d="M7020 5874 c-58 -6 -108 -10 -111 -8 -3 2 -54 6 -112 10 -96 6 -107
5 -101 -10 7 -18 6 -18 254 -18 202 -1 261 3 257 16 -6 18 -76 22 -187 10z"/>
<path d="M2845 5863 c-31 -8 -41 -21 -27 -35 9 -9 59 -14 155 -15 187 -4 287
4 287 23 0 10 -14 14 -47 15 -63 1 -158 5 -263 12 -47 3 -94 3 -105 0z"/>
<path d="M5904 5802 c3 -6 20 -12 38 -15 18 -3 44 -8 57 -12 19 -7 22 -5 19
11 -3 16 -14 20 -62 22 -34 2 -55 -1 -52 -6z"/>
<path d="M7363 5802 c-30 -2 -43 -8 -43 -18 0 -12 27 -14 165 -12 110 1 164 6
162 13 -4 10 -206 23 -284 17z"/>
<path d="M918 5783 c-49 -3 -58 -7 -58 -23 0 -22 35 -44 52 -34 6 4 51 9 100
11 71 3 95 0 126 -15 28 -15 63 -20 144 -21 59 -1 113 1 120 5 17 11 51 11 59
1 11 -14 37 4 32 22 -4 14 -17 20 -56 24 -54 5 -78 0 -57 -13 8 -5 5 -9 -8
-12 -15 -4 -19 -2 -15 8 4 11 -8 14 -54 14 -32 0 -86 7 -118 16 -62 17 -166
23 -267 17z"/>
<path d="M2374 5766 c-15 -12 -17 -17 -7 -27 19 -19 222 -27 363 -15 67 6 95
5 130 -8 77 -27 150 -20 150 15 0 16 -8 19 -46 19 -25 0 -71 7 -102 16 -49 14
-70 15 -176 4 -92 -9 -135 -10 -180 -1 -79 15 -108 14 -132 -3z"/>
<path d="M3115 5770 c-4 -7 -1 -18 6 -26 11 -11 19 -11 38 -1 14 7 25 17 25
22 1 14 -61 18 -69 5z"/>
<path d="M1717 5763 c-31 -3 -50 -10 -54 -19 -10 -28 11 -33 100 -25 49 5 124
4 168 0 194 -22 237 -25 292 -21 94 6 63 25 -64 39 -63 6 -136 17 -162 22 -46
10 -174 12 -280 4z"/>
<path d="M5408 5755 c-2 -3 -70 -5 -151 -6 -109 -1 -147 -5 -151 -15 -12 -31
24 -39 161 -36 130 2 183 12 183 31 0 12 -35 33 -42 26z"/>
<path d="M3915 5739 c-10 -15 35 -59 61 -59 28 0 40 37 16 49 -32 16 -71 21
-77 10z"/>
<path d="M3774 5726 c-11 -27 2 -42 63 -70 32 -16 79 -39 106 -52 54 -27 73
-30 80 -10 6 15 -11 36 -29 36 -14 0 -114 51 -176 89 -33 20 -39 21 -44 7z"/>
<path d="M5612 5699 c-15 -6 -22 -15 -20 -26 3 -16 22 -19 162 -26 138 -7 161
-6 175 7 26 27 1 35 -124 41 -66 3 -131 8 -145 9 -14 2 -35 0 -48 -5z"/>
<path d="M3566 5651 c-22 -24 -8 -34 38 -26 25 5 52 -1 107 -24 41 -17 80 -31
87 -31 33 0 165 -74 204 -115 39 -41 47 -45 92 -45 58 0 126 35 202 104 27 25
55 46 62 47 6 1 16 2 21 3 6 0 16 7 23 14 9 9 9 15 0 24 -15 15 -77 -12 -121
-53 -79 -72 -158 -108 -204 -93 -12 4 -44 26 -72 49 -54 46 -103 70 -235 117
-47 16 -89 34 -94 39 -18 17 -92 10 -110 -10z"/>
<path d="M6585 5640 c-8 -13 13 -40 31 -40 17 0 25 15 18 34 -7 18 -39 22 -49
6z"/>
<path d="M6645 5641 c-8 -14 20 -26 86 -41 67 -15 112 -7 107 18 -2 11 -17 19
-43 24 -59 10 -143 9 -150 -1z"/>
<path d="M7460 5639 c-19 -5 -71 -8 -115 -7 -78 1 -80 1 -80 -23 0 -23 3 -24
55 -24 30 1 87 4 125 8 39 5 78 8 88 8 19 0 34 25 23 36 -10 10 -56 11 -96 2z"/>
<path d="M680 5620 c6 -11 15 -20 20 -20 4 0 15 -3 24 -6 11 -4 16 -1 16 10 0
9 -12 21 -26 26 -38 15 -46 13 -34 -10z"/>
<path d="M4720 5631 c0 -9 24 -21 41 -21 5 0 9 7 9 15 0 9 -9 15 -25 15 -14 0
-25 -4 -25 -9z"/>
<path d="M750 5602 c0 -11 8 -23 18 -27 17 -8 153 -7 161 1 2 2 -2 10 -9 19
-9 11 -28 15 -64 13 -28 -1 -63 1 -78 6 -24 7 -28 5 -28 -12z"/>
<path d="M1333 5609 c-7 -7 -13 -16 -13 -21 0 -4 46 -7 103 -6 56 0 127 -3
157 -8 30 -5 100 -9 155 -9 84 0 100 3 103 16 3 14 -13 17 -110 23 -303 17
-383 18 -395 5z"/>
<path d="M2163 5613 c-35 -3 -43 -8 -43 -25 0 -19 4 -20 53 -14 84 11 227 8
292 -6 47 -10 83 -11 170 -1 128 13 115 10 115 23 0 7 -47 10 -132 8 -73 -1
-169 0 -213 4 -178 14 -202 15 -242 11z"/>
<path d="M2914 5579 c-3 -6 -2 -14 2 -19 13 -11 97 3 102 18 5 15 -94 17 -104
1z"/>
<path d="M5327 5523 c-13 -13 -7 -42 11 -47 33 -11 161 -11 172 0 23 23 -1 41
-62 48 -78 8 -113 8 -121 -1z"/>
<path d="M1005 5487 c-49 -15 -67 -26 -60 -37 3 -5 17 -5 33 1 14 6 80 9 146
7 82 -2 120 1 123 8 2 7 -18 14 -54 18 -116 14 -149 14 -188 3z"/>
<path d="M1753 5476 c-42 -19 -46 -51 -5 -42 15 4 123 8 240 9 191 2 215 4
223 20 9 16 -2 17 -164 17 -96 0 -194 2 -218 5 -28 3 -56 0 -76 -9z"/>
<path d="M3325 5465 c-22 -8 -48 -15 -58 -15 -28 0 -77 -39 -77 -61 0 -22 22
-25 39 -5 18 21 122 33 182 20 24 -4 27 -2 32 28 2 18 4 34 3 34 0 1 -19 4
-41 8 -25 3 -55 0 -80 -9z"/>
<path d="M3476 5471 c-7 -10 70 -51 95 -51 13 0 11 26 -3 38 -20 16 -85 25
-92 13z"/>
<path d="M5832 5454 l3 -29 113 -3 c94 -2 112 0 112 12 0 22 -27 33 -85 34
-27 1 -72 5 -98 8 l-49 6 4 -28z"/>
<path d="M2763 5428 c4 -12 67 -19 94 -10 28 9 -1 22 -48 22 -36 0 -49 -4 -46
-12z"/>
<path d="M6469 5427 c7 -10 10 -17 5 -18 -24 -2 36 -18 69 -18 25 -1 40 4 44
14 8 22 4 24 -68 32 -59 6 -63 5 -50 -10z"/>
<path d="M7204 5416 c-13 -34 5 -38 150 -31 77 4 160 7 184 6 32 -2 42 2 42
14 0 11 -12 15 -47 16 -27 0 -110 3 -186 5 -115 4 -138 2 -143 -10z"/>
<path d="M770 5392 c-37 -4 -63 -19 -55 -32 6 -10 205 -10 205 1 0 21 -80 37
-150 31z"/>
<path d="M1403 5378 c-24 -12 -31 -38 -10 -38 30 0 56 13 60 31 6 22 -14 24
-50 7z"/>
<path d="M2285 5360 c-4 -6 -4 -14 0 -18 4 -4 133 -6 288 -6 220 2 282 5 282
15 0 13 -8 13 -303 10 -90 -1 -185 1 -211 5 -33 4 -51 2 -56 -6z"/>
<path d="M3360 5300 c-30 -25 -32 -28 -15 -37 18 -11 80 -1 122 19 17 8 38 7
88 -7 36 -9 65 -21 65 -25 0 -13 52 -60 66 -60 28 0 13 40 -29 74 -57 47 -85
56 -182 60 -77 3 -84 1 -115 -24z"/>
<path d="M1110 5263 c-19 -2 -69 -11 -110 -20 -41 -9 -111 -17 -155 -17 -64
-1 -80 -4 -80 -16 0 -12 14 -15 65 -16 36 -1 73 -5 84 -9 11 -5 39 -2 70 8 73
22 220 37 296 30 91 -9 339 -9 373 0 39 11 28 33 -14 30 -65 -5 -245 -3 -309
3 -103 9 -182 12 -220 7z"/>
<path d="M5353 5257 c-11 -18 28 -35 99 -42 76 -8 105 3 78 29 -18 17 -168 28
-177 13z"/>
<path d="M4776 5237 c-43 -43 -29 -59 29 -37 20 7 40 6 75 -4 97 -29 147 -65
165 -121 6 -16 18 -31 28 -33 13 -3 17 4 17 30 0 50 -49 99 -144 143 -108 50
-138 54 -170 22z"/>
<path d="M1935 5232 c-33 -7 -40 -21 -14 -30 29 -10 427 -8 587 3 85 6 110 10
102 19 -11 15 -284 9 -313 -6 -11 -6 -62 -5 -135 1 -165 15 -204 17 -227 13z"/>
<path d="M2765 5220 c-4 -6 13 -10 44 -10 28 0 51 5 51 10 0 6 -20 10 -44 10
-25 0 -48 -4 -51 -10z"/>
<path d="M6040 5212 c-8 -4 -15 -16 -15 -27 0 -17 8 -20 49 -23 27 -2 53 1 57
5 24 24 -55 62 -91 45z"/>
<path d="M6460 5182 c-6 -2 -10 -12 -10 -23 0 -17 8 -19 93 -19 92 0 131 10
112 29 -9 9 -174 20 -195 13z"/>
<path d="M7257 5183 c-4 -3 -32 -5 -62 -4 -44 2 -55 -1 -55 -13 0 -13 12 -16
58 -16 78 0 223 21 216 31 -6 10 -148 12 -157 2z"/>
<path d="M7430 5180 c0 -5 5 -10 10 -10 6 0 10 5 10 10 0 6 -4 10 -10 10 -5 0
-10 -4 -10 -10z"/>
<path d="M7480 5180 c-19 -12 0 -18 65 -21 47 -2 60 0 60 12 0 10 -15 14 -56
15 -31 1 -62 -2 -69 -6z"/>
<path d="M1148 5173 c6 -2 18 -2 25 0 6 3 1 5 -13 5 -14 0 -19 -2 -12 -5z"/>
<path d="M3805 5138 c4 -13 10 -26 14 -29 19 -17 159 -60 241 -74 52 -9 115
-21 140 -27 60 -14 176 -10 219 8 20 8 47 12 66 8 34 -6 50 11 39 41 -7 18
-69 20 -109 5 -41 -15 -166 -16 -200 -1 -18 8 -76 15 -140 16 -103 3 -115 5
-186 39 -42 20 -80 36 -84 36 -3 0 -3 -10 0 -22z"/>
<path d="M3437 5122 c-55 -12 35 -95 98 -90 45 4 45 33 1 48 -20 6 -36 15 -36
19 0 12 -43 28 -63 23z"/>
<path d="M5600 5041 c-14 -26 5 -39 60 -39 62 -1 80 6 80 29 0 15 -7 19 -32
20 -18 1 -48 3 -65 5 -24 3 -35 -1 -43 -15z"/>
<path d="M1790 5040 c-6 -4 -10 -18 -8 -31 3 -21 -1 -24 -34 -27 -29 -2 -38
-8 -38 -22 0 -36 76 -43 89 -7 5 12 6 27 4 33 -6 18 18 29 28 13 9 -16 16 -11
21 15 2 14 -5 21 -23 26 -15 4 -32 4 -39 0z"/>
<path d="M2353 5024 c-9 -24 7 -29 106 -32 75 -3 91 -1 91 11 0 16 -29 23
-133 32 -47 4 -59 2 -64 -11z"/>
<path d="M2671 5021 c-8 -5 -11 -16 -8 -25 5 -13 11 -13 37 -4 17 5 49 8 70 4
41 -6 64 9 39 25 -18 11 -120 11 -138 0z"/>
<path d="M5095 5006 c-2 -6 -5 -18 -8 -27 -6 -18 18 -98 34 -113 13 -14 33 9
23 25 -4 8 -8 23 -9 34 -1 11 -2 36 -3 56 -1 25 -7 36 -18 36 -9 0 -17 -5 -19
-11z"/>
<path d="M5356 4994 c-19 -18 -8 -47 23 -64 11 -5 41 -42 67 -82 26 -40 70
-98 98 -129 100 -111 136 -154 136 -166 0 -14 36 -27 50 -18 28 17 -5 105 -41
105 -5 0 -8 3 -5 8 6 10 -15 37 -36 45 -10 3 -15 12 -13 19 3 7 -22 39 -55 71
-33 33 -67 73 -75 90 -32 68 -67 122 -83 129 -28 11 -50 9 -66 -8z"/>
<path d="M2033 4992 c-73 -1 -133 -6 -133 -11 0 -4 -12 -7 -27 -5 -16 2 -20 1
-10 -2 14 -5 16 -9 6 -20 -14 -16 -20 -16 196 -14 152 1 183 8 166 38 -10 17
-18 18 -198 14z"/>
<path d="M6452 4983 c3 -16 17 -18 106 -20 87 -1 105 2 124 18 23 18 22 18
-105 19 -117 0 -128 -2 -125 -17z"/>
<path d="M3657 4983 c-15 -14 -6 -34 24 -52 35 -22 59 -18 59 9 0 33 -61 66
-83 43z"/>
<path d="M7165 4979 c-13 -19 6 -24 83 -21 81 3 88 5 77 21 -8 14 -152 14
-160 0z"/>
<path d="M1826 4963 c-11 -11 -6 -23 9 -23 8 0 15 4 15 9 0 13 -16 22 -24 14z"/>
<path d="M1065 4940 c-3 -5 -1 -19 5 -30 15 -28 83 -25 88 4 2 10 -2 22 -10
27 -18 12 -75 11 -83 -1z"/>
<path d="M1373 4934 c-11 -28 15 -37 109 -39 95 -2 118 4 118 34 0 14 -15 17
-110 19 -92 1 -112 -1 -117 -14z"/>
<path d="M1775 4880 c-3 -5 -1 -10 4 -10 6 0 11 5 11 10 0 6 -2 10 -4 10 -3 0
-8 -4 -11 -10z"/>
<path d="M6752 4863 c3 -16 16 -18 103 -21 94 -2 139 7 122 24 -4 4 -57 9
-118 11 -102 4 -110 3 -107 -14z"/>
<path d="M3480 4839 c-12 -21 1 -49 22 -49 14 0 95 -58 123 -88 14 -15 40 -51
57 -79 30 -49 58 -67 72 -44 11 17 -33 96 -79 144 -25 26 -49 47 -53 47 -4 0
-20 13 -37 28 -35 33 -76 62 -87 62 -4 0 -12 -9 -18 -21z"/>
<path d="M3670 4841 c0 -26 32 -52 50 -41 19 12 4 39 -28 51 -18 7 -22 5 -22
-10z"/>
<path d="M2310 4836 c0 -7 11 -16 23 -18 31 -6 390 1 396 8 17 17 -47 24 -221
24 -162 0 -198 -3 -198 -14z"/>
<path d="M5612 4834 c6 -31 135 -47 157 -20 18 21 -1 28 -87 34 -68 4 -74 3
-70 -14z"/>
<path d="M1793 4833 c-29 -2 -53 -8 -53 -13 0 -4 -3 -15 -6 -23 -8 -22 19 -27
73 -13 32 8 110 11 236 9 144 -2 188 0 185 9 -2 6 -18 16 -34 20 -32 9 -320
17 -401 11z"/>
<path d="M1224 4800 c-5 -5 -47 -11 -92 -11 -84 -2 -108 -12 -78 -34 11 -8 49
-11 119 -9 169 6 429 5 473 -2 46 -6 64 7 44 31 -10 12 -46 15 -194 14 -115
-1 -191 2 -209 10 -35 14 -50 14 -63 1z"/>
<path d="M7634 4795 c3 -9 6 -19 6 -21 0 -2 12 -4 26 -4 37 0 28 34 -10 38
-23 3 -28 0 -22 -13z"/>
<path d="M3740 4784 c-11 -12 -10 -18 3 -31 8 -9 23 -13 31 -10 21 8 21 43 0
51 -21 8 -20 8 -34 -10z"/>
<path d="M5980 4737 c0 -21 3 -22 83 -19 103 4 119 8 94 27 -11 8 -48 13 -97
13 -76 1 -80 0 -80 -21z"/>
<path d="M6542 4743 c3 -15 14 -18 74 -19 73 -1 119 9 110 24 -3 5 -46 9 -96
11 -84 2 -91 0 -88 -16z"/>
<path d="M7236 4751 c-10 -15 17 -28 62 -30 54 -2 82 6 82 25 0 11 -16 14 -69
14 -39 0 -72 -4 -75 -9z"/>
<path d="M3827 4743 c-9 -8 -9 -61 -1 -102 7 -34 37 -43 48 -15 10 27 7 99 -6
112 -13 13 -31 16 -41 5z"/>
<path d="M4282 4729 c-27 -42 -5 -154 26 -135 17 10 16 142 -1 149 -7 3 -19
-3 -25 -14z"/>
<path d="M2308 4722 c-43 -2 -58 -7 -58 -17 0 -9 11 -16 28 -16 84 -5 194 10
189 25 -4 11 -53 14 -159 8z"/>
<path d="M1793 4692 c-31 -3 -45 -24 -24 -36 11 -7 71 13 71 24 0 13 -12 16
-47 12z"/>
<path d="M1860 4680 c0 -5 5 -10 10 -10 6 0 10 5 10 10 0 6 -4 10 -10 10 -5 0
-10 -4 -10 -10z"/>
<path d="M3912 4678 c-13 -16 -36 -125 -34 -160 1 -32 -24 -45 -38 -18 -6 11
-17 17 -25 14 -9 -4 -16 3 -21 20 -6 25 -27 35 -38 17 -7 -11 13 -71 25 -71
15 0 78 -91 95 -138 43 -119 66 -175 88 -207 13 -19 32 -58 42 -86 22 -61 50
-82 63 -47 4 13 5 35 0 50 -11 39 -61 128 -71 128 -5 0 -7 4 -4 9 4 5 0 22 -8
38 -8 15 -32 71 -54 123 -37 89 -38 95 -21 102 15 6 19 18 19 55 0 27 6 73 14
103 10 39 11 59 4 67 -13 16 -23 16 -36 1z"/>
<path d="M4462 4655 c-18 -38 -15 -65 6 -65 20 0 57 64 47 81 -12 18 -42 9
-53 -16z"/>
<path d="M5073 4648 c-6 -7 -13 -62 -16 -123 -3 -69 -15 -152 -32 -223 -20
-82 -24 -117 -16 -125 6 -6 13 -8 17 -5 17 17 64 242 70 332 3 56 7 112 8 125
1 27 -16 38 -31 19z"/>
<path d="M4072 4631 c-4 -11 -6 -72 -4 -136 3 -93 6 -117 19 -122 26 -10 33
18 33 150 0 121 -1 127 -20 127 -11 0 -24 -9 -28 -19z"/>
<path d="M6899 4629 c-15 -9 11 -26 54 -34 33 -6 37 -5 37 13 0 16 -8 21 -40
24 -23 2 -45 1 -51 -3z"/>
<path d="M4167 4613 c-3 -10 -8 -61 -11 -113 -4 -52 -12 -141 -18 -197 -9 -83
-9 -105 2 -118 25 -31 45 -14 46 40 0 28 6 102 13 165 16 148 12 234 -11 238
-9 2 -18 -5 -21 -15z"/>
<path d="M3993 4607 c-4 -7 -6 -50 -5 -97 4 -84 18 -120 41 -106 12 8 15 144
5 183 -7 26 -30 37 -41 20z"/>
<path d="M6070 4590 c0 -14 14 -18 83 -23 81 -6 112 2 91 23 -6 6 -47 12 -92
13 -71 3 -82 1 -82 -13z"/>
<path d="M5823 4583 c-28 -10 -13 -33 21 -33 30 0 56 15 45 24 -9 7 -55 13
-66 9z"/>
<path d="M7340 4532 c0 -24 30 -38 42 -20 12 19 4 33 -20 36 -16 3 -22 -2 -22
-16z"/>
<path d="M6561 4501 c-8 -5 -12 -15 -9 -23 9 -21 122 -9 126 15 3 14 -4 17
-50 17 -29 0 -59 -4 -67 -9z"/>
<path d="M7063 4493 c-42 -8 -24 -23 27 -23 49 0 66 12 34 24 -16 6 -24 6 -61
-1z"/>
<path d="M5980 4480 c0 -21 87 -38 158 -31 19 2 14 31 -5 32 -10 0 -48 2 -85
4 -38 2 -68 0 -68 -5z"/>
<path d="M2100 4466 c0 -9 3 -16 8 -16 68 -2 172 -10 190 -15 18 -6 22 -4 22
14 0 20 -5 21 -87 21 -49 0 -98 3 -110 6 -17 5 -23 2 -23 -10z"/>
<path d="M6391 4404 c-19 -15 -31 -35 -31 -49 0 -13 -4 -27 -10 -30 -5 -3 -10
-15 -10 -25 0 -18 -7 -20 -60 -18 -43 1 -65 -3 -78 -15 -15 -14 -29 -15 -83
-9 -35 4 -72 6 -81 4 -22 -4 -23 -26 -2 -46 14 -15 11 -16 -30 -16 -38 0 -46
-3 -46 -19 0 -32 57 -43 84 -15 13 13 16 13 16 1 0 -11 28 -16 136 -22 139 -7
163 -2 151 29 -4 11 -19 16 -47 16 -41 0 -50 9 -27 28 13 10 46 14 115 14 23
-1 42 2 42 6 0 4 4 13 9 20 7 12 14 11 39 -2 17 -9 38 -13 46 -10 9 3 49 7 89
8 68 1 72 2 75 25 4 22 1 23 -47 20 -50 -4 -51 -3 -51 24 0 15 -4 27 -10 27
-5 0 -10 9 -10 19 0 31 -51 61 -103 61 -34 0 -53 -6 -76 -26z m79 -35 c36 -6
34 -41 -2 -45 -16 -1 -28 0 -29 4 0 4 -2 20 -4 37 -2 16 -1 25 3 18 4 -6 18
-13 32 -14z m-50 -59 c0 -5 -5 -10 -11 -10 -5 0 -7 5 -4 10 3 6 8 10 11 10 2
0 4 -4 4 -10z"/>
<path d="M4282 4408 c-18 -18 -16 -123 4 -143 30 -29 39 -12 39 71 0 62 -3 79
-15 82 -9 1 -21 -3 -28 -10z"/>
<path d="M6866 4381 c-4 -5 -13 -8 -20 -5 -17 6 -37 -18 -27 -34 4 -6 36 -14
71 -18 107 -10 110 -9 110 21 0 24 -3 25 -53 25 -29 0 -58 5 -64 11 -7 7 -13
7 -17 0z"/>
<path d="M5860 4370 c-11 -7 -12 -12 -3 -21 16 -16 113 -2 113 17 0 16 -85 20
-110 4z"/>
<path d="M4386 4345 c-24 -36 -24 -356 0 -380 35 -35 39 -15 39 198 0 215 -4
235 -39 182z"/>
<path d="M3816 4311 c-8 -12 1 -89 15 -136 5 -16 20 -75 33 -131 13 -55 34
-120 45 -143 12 -23 20 -45 17 -49 -7 -11 48 -284 75 -373 27 -91 62 -163 101
-208 16 -18 37 -49 46 -67 9 -21 23 -34 34 -34 32 0 31 28 -1 72 -17 23 -31
46 -31 52 0 5 -11 22 -25 36 -44 46 -64 107 -123 385 -22 99 -46 200 -55 225
-18 51 -25 79 -61 234 -25 106 -54 163 -70 137z"/>
<path d="M5804 4176 c-10 -25 5 -34 65 -38 42 -2 56 1 64 14 15 24 9 27 -61
34 -53 6 -63 4 -68 -10z"/>
<path d="M6455 4132 c-67 -4 -85 -13 -65 -37 8 -10 30 -15 69 -15 64 0 84 10
79 35 -4 22 -6 22 -83 17z"/>
<path d="M6603 4113 c-9 -24 17 -33 92 -31 61 3 70 5 70 22 0 16 -10 18 -78
21 -63 3 -79 1 -84 -12z"/>
<path d="M4992 4108 c-6 -8 -16 -35 -22 -62 -6 -26 -19 -64 -29 -84 -24 -47
-81 -272 -81 -317 0 -66 34 -36 45 40 4 27 18 87 31 132 13 46 24 93 24 104 0
11 14 54 30 96 19 47 27 80 22 89 -7 13 -10 13 -20 2z"/>
<path d="M5982 4083 c3 -15 17 -18 92 -21 63 -2 92 1 97 10 15 23 -2 28 -97
28 -86 0 -95 -2 -92 -17z"/>
<path d="M5090 4059 c-6 -11 -10 -30 -8 -42 4 -31 40 -29 48 3 13 53 -17 83
-40 39z"/>
<path d="M5684 4048 c-13 -21 29 -39 86 -36 48 3 55 6 58 26 3 21 0 22 -67 22
-42 0 -73 -5 -77 -12z"/>
<path d="M5101 3932 c-28 -22 -23 -52 9 -52 25 0 36 24 23 51 -9 21 -9 21 -32
1z"/>
<path d="M5119 3817 c-30 -15 -37 -52 -12 -61 29 -11 71 52 45 68 -4 3 -19 -1
-33 -7z"/>
<path d="M3870 3770 c0 -6 7 -10 15 -10 8 0 15 2 15 4 0 2 -7 6 -15 10 -8 3
-15 1 -15 -4z"/>
<path d="M3474 3684 c-10 -86 29 -105 55 -26 17 50 7 82 -24 82 -21 0 -24 -6
-31 -56z"/>
<path d="M5115 3687 c-26 -22 -26 -24 -11 -40 16 -15 19 -16 42 0 16 10 24 23
22 36 -4 30 -22 31 -53 4z"/>
<path d="M5123 3598 c-26 -13 -31 -46 -8 -54 21 -9 65 23 65 46 0 22 -22 25
-57 8z"/>
<path d="M4865 3529 c-7 -31 -31 -90 -65 -163 -14 -29 -16 -44 -9 -58 18 -33
41 -16 59 43 10 31 23 65 28 75 18 35 35 102 29 118 -11 27 -35 18 -42 -15z"/>
<path d="M3117 3503 c-4 -3 -7 -17 -7 -30 0 -16 6 -23 20 -23 21 0 40 27 33
48 -5 13 -35 17 -46 5z"/>
<path d="M5185 3501 c-43 -14 -105 -52 -100 -61 9 -14 21 -13 86 11 43 16 59
27 59 40 0 20 -10 22 -45 10z"/>
<path d="M3562 3472 c-19 -12 -6 -35 31 -55 38 -20 67 -14 67 15 0 12 -12 24
-35 34 -39 16 -45 17 -63 6z"/>
<path d="M5175 3400 c-45 -11 -85 -28 -85 -37 0 -5 4 -14 9 -22 7 -11 19 -10
67 7 80 27 87 70 9 52z"/>
<path d="M3137 3373 c-14 -13 -7 -42 12 -48 34 -10 71 20 55 46 -6 10 -57 12
-67 2z"/>
<path d="M3633 3323 c-22 -8 -14 -43 11 -55 33 -14 58 -4 54 24 -3 22 -40 39
-65 31z"/>
<path d="M4981 3271 c-12 -8 -12 -14 -1 -40 18 -45 40 -40 40 9 0 41 -11 49
-39 31z"/>
<path d="M3153 3174 c-10 -25 30 -69 63 -69 43 0 41 27 -4 58 -44 31 -51 32
-59 11z"/>
<path d="M4998 3141 c-64 -22 -66 -62 -2 -41 16 5 41 12 57 15 18 4 27 12 27
25 0 24 -17 24 -82 1z"/>
<path d="M3633 3125 c-8 -22 23 -53 61 -61 44 -9 47 -12 33 -34 -21 -35 2 -52
98 -71 111 -23 105 -23 105 0 0 11 -9 21 -21 24 -12 3 -18 10 -14 17 7 11 34
7 72 -12 25 -12 56 -4 51 15 -6 19 -75 49 -127 55 -25 3 -55 11 -66 18 -11 8
-25 14 -32 14 -7 0 -36 11 -65 25 -60 29 -86 31 -95 10z"/>
<path d="M4713 3052 c-31 -10 -43 -19 -43 -33 0 -28 20 -32 62 -14 44 18 55
33 37 49 -11 10 -23 9 -56 -2z"/>
<path d="M4990 3040 c-8 -5 -37 -10 -63 -10 -59 0 -87 -14 -87 -42 0 -17 4
-19 28 -13 43 11 77 11 81 0 5 -16 -77 -52 -149 -65 -36 -7 -119 -26 -185 -43
-246 -61 -262 -64 -296 -44 -38 22 -93 22 -114 1 -24 -24 -4 -39 49 -35 26 1
57 -4 75 -14 18 -9 35 -14 40 -11 4 3 23 8 42 10 48 7 185 43 208 55 10 6 65
18 120 26 103 15 231 63 231 85 0 6 5 8 10 5 6 -3 10 -2 10 3 0 5 10 8 23 8
20 -1 22 4 22 44 0 47 -15 60 -45 40z m20 -45 c0 -8 -4 -15 -10 -15 -5 0 -7 7
-4 15 4 8 8 15 10 15 2 0 4 -7 4 -15z"/>
<path d="M4345 2994 c-34 -27 -19 -39 32 -25 21 6 49 12 63 13 14 2 25 9 25
18 0 25 -87 21 -120 -6z"/>
<path d="M4300 2994 c0 -8 5 -12 10 -9 6 3 10 10 10 16 0 5 -4 9 -10 9 -5 0
-10 -7 -10 -16z"/>
<path d="M4535 2940 c-44 -10 -84 -16 -90 -14 -17 6 -38 -13 -32 -30 8 -20 33
-20 117 -2 69 15 130 41 130 57 0 12 -31 10 -125 -11z"/>
<path d="M3995 2860 c-12 -19 24 -60 51 -60 26 0 41 21 29 41 -6 8 -10 7 -16
-2 -7 -11 -9 -11 -9 2 0 25 -43 39 -55 19z"/>
<path d="M216 3083 c-11 -11 -6 -23 9 -23 8 0 15 4 15 9 0 13 -16 22 -24 14z"/>
<path d="M7415 2103 c-130 -10 -146 -14 -157 -38 -5 -12 -21 -28 -35 -34 -20
-9 -23 -17 -21 -48 l3 -38 -68 -11 c-37 -6 -69 -13 -70 -15 -1 -2 -8 -19 -14
-36 -10 -30 -9 -35 14 -53 24 -19 51 -24 100 -20 31 2 51 -40 32 -67 -11 -14
-28 -18 -87 -19 -59 0 -76 -4 -93 -21 l-21 -20 31 -22 c17 -12 43 -25 58 -27
56 -10 45 -22 -28 -29 -99 -10 -142 -20 -146 -35 -3 -9 -1 -11 4 -5 4 6 51 12
103 13 52 2 103 6 113 8 9 3 31 3 47 -1 l30 -7 0 -187 0 -188 25 5 c28 5 28
-1 25 209 -1 69 3 130 9 141 10 19 24 21 168 25 87 2 167 7 178 10 11 3 23 6
28 6 10 1 9 49 -2 56 -5 3 -36 7 -68 10 -32 2 -60 5 -63 6 -3 1 -55 1 -116 -1
-73 -1 -114 2 -118 9 -10 16 8 20 119 25 55 3 106 5 113 5 6 1 12 9 12 19 0
14 -2 15 -10 2 -8 -13 -11 -12 -23 4 -14 19 -21 19 -108 10 -104 -12 -122 -6
-117 35 2 21 8 26 33 27 17 0 90 1 163 2 125 2 132 3 132 22 0 19 -7 20 -112
22 -62 1 -132 2 -155 3 -48 1 -58 7 -49 31 5 12 13 15 34 9 15 -3 62 -8 105
-10 75 -3 78 -2 75 19 -3 18 -10 21 -58 23 -30 1 -80 6 -110 10 -47 7 -55 11
-58 32 -9 64 25 89 128 91 88 3 100 1 100 -14 0 -21 -23 -26 -115 -26 -129 0
-126 -33 4 -43 78 -6 107 1 160 42 32 25 21 55 -30 75 -21 9 -43 15 -47 14 -4
-1 -25 -3 -47 -5z m-212 -209 c3 -4 2 -15 -4 -25 -7 -14 -21 -19 -53 -19 -51
0 -78 22 -49 39 20 11 96 15 106 5z m-13 -208 c0 -8 -4 -18 -10 -21 -5 -3 -10
1 -10 10 0 15 -1 15 -16 1 -18 -19 -16 -19 -49 -6 -39 15 -21 30 36 30 36 0
49 -4 49 -14z m390 -52 c10 -11 -28 -24 -71 -24 -25 0 -61 -5 -78 -11 -24 -9
-35 -9 -44 0 -6 6 -33 11 -59 11 -26 0 -48 5 -48 10 0 6 24 10 53 11 67 0 181
10 187 16 5 4 52 -6 60 -13z"/>
<path d="M7353 1504 c-7 -19 21 -44 48 -44 20 0 31 34 16 49 -17 17 -57 13
-64 -5z"/>
<path d="M375 739 c-4 -5 -4 -21 -1 -35 5 -19 13 -24 39 -25 17 0 61 -2 97 -4
36 -3 119 -5 185 -7 l120 -2 0 34 0 33 -203 0 c-111 -1 -205 3 -208 8 -7 12
-21 11 -29 -2z"/>
</g>
</svg>
