<?xml version="1.0" standalone="no"?>
<!DOCTYPE svg PUBLIC "-//W3C//DTD SVG 20010904//EN"
 "http://www.w3.org/TR/2001/REC-SVG-20010904/DTD/svg10.dtd">
<svg version="1.0" xmlns="http://www.w3.org/2000/svg"
 width="863.000000pt" height="1464.000000pt" viewBox="0 0 863.000000 1464.000000"
 preserveAspectRatio="xMidYMid meet">
<metadata>
Created by potrace 1.16, written by Peter Selinger 2001-2019
</metadata>
<g transform="translate(0.000000,1464.000000) scale(0.100000,-0.100000)"
fill="#000000" stroke="none">
<path d="M808 14070 c-15 -5 -29 -6 -32 -3 -2 3 -10 2 -17 -3 -7 -4 -25 -8
-41 -9 -36 -3 -54 -19 -80 -69 -21 -40 -21 -57 -25 -621 -3 -319 -4 -632 -3
-695 0 -63 3 -311 6 -550 11 -883 12 -1364 4 -1424 -15 -105 -23 -330 -23
-651 1 -282 12 -1440 15 -1560 2 -38 0 -542 -2 -745 0 -14 1 -293 2 -620 2
-679 0 -1115 -7 -1375 -17 -575 -19 -788 -14 -1035 9 -376 10 -463 3 -700 -6
-234 -6 -183 2 -970 6 -624 6 -1001 0 -1185 -14 -418 -18 -983 -7 -1003 19
-36 69 -56 141 -55 36 1 77 6 91 11 20 8 30 7 41 -5 13 -12 59 -15 262 -17
136 -2 249 0 251 4 4 7 125 14 180 12 40 -3 1473 -3 1585 -1 63 1 185 1 270 0
152 -1 2234 9 2560 13 91 2 192 6 225 11 80 11 428 12 645 2 207 -10 277 -12
345 -7 28 1 127 -1 220 -4 94 -4 204 -9 245 -10 91 -3 277 11 306 23 37 16 46
129 39 531 -7 413 -7 677 0 880 8 203 3 398 -9 419 -4 6 -3 11 3 11 5 0 9 70
8 183 -1 100 -1 261 1 357 2 96 3 182 2 190 -3 70 11 763 15 771 4 5 3 14 -1
21 -4 7 -9 26 -11 43 -2 16 -8 32 -13 33 -6 2 -8 8 -4 13 5 9 -45 33 -53 25
-9 -9 8 -26 25 -26 14 -1 12 -5 -7 -21 -22 -18 -24 -24 -15 -57 5 -20 6 -53 2
-72 -12 -54 -19 -248 -24 -655 -2 -203 -6 -390 -8 -415 -7 -80 -7 -310 -1
-321 8 -11 7 -193 -1 -454 -7 -213 -7 -224 0 -295 2 -30 7 -278 10 -551 5
-395 4 -498 -6 -501 -7 -2 -105 -2 -218 0 -113 2 -216 2 -230 1 -24 -3 -357
-2 -875 3 -132 1 -278 -1 -325 -5 -148 -12 -569 -27 -689 -26 -64 1 -177 -4
-251 -10 -74 -6 -198 -8 -275 -5 -230 10 -244 9 -260 -12 -14 -19 -15 -19 -20
1 -6 19 -14 20 -303 19 -163 0 -324 -5 -357 -10 -35 -6 -103 -6 -165 -1 -104
8 -540 20 -735 20 -710 0 -1794 -13 -1905 -23 -126 -11 -251 -9 -310 7 -14 3
-75 7 -136 8 -61 2 -121 8 -133 14 -12 7 -25 10 -30 7 -25 -16 -29 32 -25 319
1 165 3 444 3 620 0 176 1 397 2 490 4 315 4 528 -1 820 -2 160 -3 630 -2
1045 1 415 2 860 1 988 0 129 4 239 8 245 4 7 6 91 3 187 -3 96 -2 211 2 255
7 86 7 126 3 1840 -1 622 -5 1180 -9 1240 -7 142 -8 598 -1 1034 6 329 8 381
20 551 8 116 7 1125 -2 1600 -4 234 -7 481 -7 550 2 160 3 1049 2 1157 -1 104
6 112 104 119 40 3 78 5 83 5 8 -1 412 -9 625 -12 14 -1 115 -1 225 -1 458 0
728 -8 743 -22 2 -2 -10 -12 -25 -21 -16 -9 -40 -33 -53 -53 -14 -21 -36 -48
-48 -62 -13 -14 -31 -41 -39 -60 -8 -19 -21 -42 -28 -50 -24 -28 -65 -146 -65
-187 0 -40 34 -153 63 -209 9 -17 34 -43 57 -58 42 -27 138 -59 152 -50 5 3
11 -2 14 -11 4 -10 -3 -27 -18 -43 -70 -77 -158 -241 -179 -329 -5 -27 -14
-55 -18 -63 -5 -8 -15 -44 -24 -80 -22 -84 -16 -417 7 -518 9 -34 82 -203 114
-262 13 -25 31 -57 38 -71 8 -15 21 -32 29 -39 8 -7 15 -20 15 -29 0 -20 71
-133 109 -174 35 -39 173 -137 240 -171 30 -16 66 -37 80 -47 43 -31 162 -72
222 -76 56 -5 57 -5 75 -46 10 -23 40 -81 66 -129 27 -48 57 -120 68 -162 35
-137 -1 -405 -71 -524 -10 -18 -19 -38 -19 -44 0 -23 -91 -117 -119 -123 -29
-6 -74 -45 -70 -61 6 -25 -15 -64 -33 -64 -11 0 -33 -14 -48 -30 -16 -17 -34
-28 -42 -25 -8 3 -32 36 -53 73 -21 37 -44 74 -50 82 -7 8 -19 33 -26 55 -7
22 -26 56 -41 75 -31 39 -35 58 -14 66 17 7 32 100 22 139 -4 15 -17 30 -31
35 -19 7 -25 17 -25 39 0 39 -25 96 -50 114 -17 12 -18 17 -8 45 9 24 10 39 1
62 -8 22 -8 32 0 37 32 20 188 93 211 99 17 4 26 13 26 25 0 41 -100 17 -270
-64 -56 -26 -81 -47 -74 -59 4 -6 -2 -8 -14 -4 -11 4 -23 2 -27 -4 -9 -15 -99
-59 -164 -80 -70 -22 -131 -51 -131 -62 0 -4 -4 -8 -10 -8 -5 0 -38 -19 -72
-43 -35 -23 -88 -54 -118 -68 -30 -15 -78 -45 -107 -68 -32 -25 -58 -38 -68
-35 -8 3 -15 9 -15 13 0 3 -10 17 -22 31 -30 32 -58 94 -58 125 0 29 32 49 64
41 13 -3 36 3 56 15 19 12 52 27 75 34 88 29 131 47 150 64 32 27 195 103 210
97 16 -6 100 46 116 73 7 10 19 17 26 14 7 -3 28 6 46 20 19 14 82 58 142 98
102 68 109 71 121 54 8 -11 14 -24 14 -30 0 -46 69 -115 115 -115 30 0 33 21
6 58 -10 15 -24 45 -30 67 -27 88 -43 115 -70 117 -58 3 -88 -5 -121 -32 -46
-39 -197 -140 -209 -140 -4 0 -18 21 -30 48 -29 65 -53 102 -111 175 -28 34
-73 96 -100 137 -87 130 -106 154 -130 162 -9 3 -8 13 4 42 20 49 20 93 0 153
-20 61 -43 85 -108 117 -65 31 -171 32 -205 2 -57 -51 -79 -210 -40 -285 24
-47 36 -58 68 -63 24 -3 47 -53 81 -178 23 -81 63 -204 78 -240 27 -60 42
-104 42 -123 0 -10 9 -37 20 -59 11 -23 20 -49 20 -58 0 -9 6 -22 13 -29 10
-10 8 -15 -8 -28 -29 -23 -191 -97 -255 -117 -30 -10 -72 -25 -92 -34 -33 -15
-38 -21 -38 -52 0 -23 7 -41 20 -52 11 -10 25 -38 31 -63 7 -26 20 -52 31 -58
11 -7 28 -26 39 -43 16 -27 25 -32 62 -32 39 -1 48 4 106 59 53 49 148 109
174 109 12 0 102 -97 122 -131 11 -19 30 -38 43 -44 12 -5 27 -24 33 -42 5
-17 19 -44 31 -58 24 -30 77 -138 103 -207 10 -27 22 -48 26 -48 5 0 9 -7 9
-15 0 -8 9 -20 21 -27 16 -10 189 -340 189 -362 0 -2 22 -40 48 -83 51 -83 82
-152 82 -182 0 -10 21 -56 48 -101 61 -105 83 -148 104 -196 37 -88 48 -110
62 -134 8 -14 29 -56 46 -95 17 -38 46 -99 65 -135 18 -36 52 -101 75 -145 23
-44 57 -105 75 -135 19 -30 49 -85 68 -121 19 -36 51 -91 71 -123 49 -76 74
-134 78 -175 2 -20 11 -39 21 -45 15 -9 22 -7 35 13 24 33 62 73 94 96 15 11
34 36 43 57 8 21 19 38 25 38 20 0 51 83 57 150 l6 69 -29 6 c-16 4 -34 8 -39
10 -6 1 -53 88 -104 191 -51 104 -103 203 -115 219 -12 17 -39 66 -60 110 -21
44 -45 94 -54 110 -8 17 -41 84 -74 150 -33 66 -67 135 -76 152 -26 52 -13 56
129 43 76 -8 149 -21 189 -35 36 -13 77 -26 91 -29 61 -14 224 -118 279 -180
14 -15 38 -30 52 -31 15 -2 31 -6 37 -9 7 -5 11 -146 11 -414 1 -224 2 -425 2
-447 2 -59 -12 -338 -18 -354 -2 -7 1 -31 8 -52 9 -30 9 -42 0 -51 -7 -7 -12
-21 -12 -31 0 -20 1 -20 80 1 36 10 85 32 130 58 40 23 162 127 174 148 16 29
29 45 54 71 22 22 28 46 15 58 -3 4 -12 2 -19 -4 -7 -6 -23 -9 -36 -7 l-23 3
2 195 c4 300 3 422 -4 433 -3 5 -7 93 -9 194 -3 164 -2 184 12 179 18 -7 107
49 152 95 31 32 74 59 132 85 19 8 67 30 105 48 39 18 94 36 123 40 29 4 65
12 80 18 62 26 317 13 329 -17 2 -7 -14 -50 -35 -96 -22 -46 -45 -98 -52 -115
-6 -17 -24 -45 -41 -63 -16 -18 -29 -38 -29 -45 0 -7 -28 -64 -61 -127 -34
-63 -66 -129 -71 -146 -5 -18 -13 -33 -18 -33 -5 0 -18 -19 -29 -42 -11 -24
-29 -56 -41 -73 -11 -16 -20 -36 -20 -42 0 -7 -22 -43 -49 -80 -27 -38 -60
-88 -73 -113 -15 -30 -31 -46 -46 -48 -36 -5 -29 -54 13 -101 45 -50 96 -62
228 -57 149 6 254 44 201 74 -11 6 -13 16 -9 35 4 15 11 27 16 27 5 0 9 8 9
19 0 10 9 29 19 43 19 23 42 65 96 177 14 29 32 60 40 68 8 8 15 21 15 29 0
15 32 77 115 224 40 71 91 175 139 285 13 28 30 67 39 88 9 20 21 37 27 37 17
0 146 -121 172 -161 9 -15 33 -37 52 -49 20 -12 36 -28 36 -35 0 -7 10 -22 23
-32 13 -10 26 -26 30 -35 3 -10 11 -18 16 -18 12 0 26 -39 22 -62 -1 -9 7 -33
19 -54 11 -22 20 -46 20 -56 0 -9 9 -33 21 -53 14 -24 19 -44 15 -61 -4 -15
-2 -32 5 -40 6 -7 12 -39 13 -69 1 -37 7 -59 16 -66 11 -7 12 -11 3 -17 -8 -5
-12 -42 -13 -112 -2 -261 -7 -478 -13 -505 -3 -16 -9 -66 -12 -110 -7 -80 -13
-119 -33 -205 -6 -25 -18 -76 -27 -115 -29 -127 -53 -212 -64 -233 -6 -11 -11
-30 -11 -42 0 -12 -9 -40 -19 -64 -11 -23 -23 -66 -27 -94 -3 -29 -10 -52 -13
-52 -4 0 -13 -17 -20 -37 -8 -21 -19 -45 -26 -53 -7 -8 -17 -29 -23 -47 -6
-17 -33 -66 -61 -107 -28 -42 -55 -86 -60 -99 -5 -13 -20 -36 -33 -53 -23 -27
-73 -102 -123 -185 -48 -80 -59 -96 -86 -129 -16 -19 -51 -58 -77 -85 -26 -28
-65 -77 -87 -109 -22 -32 -67 -86 -100 -120 -84 -87 -165 -181 -211 -246 -53
-74 -116 -136 -196 -193 -38 -26 -68 -51 -68 -54 0 -4 10 -17 22 -30 27 -29
23 -33 -27 -24 -31 5 -44 3 -60 -11 -11 -10 -51 -43 -90 -73 -69 -55 -71 -56
-123 -51 -37 3 -62 12 -83 30 -17 14 -37 26 -45 26 -13 0 -52 18 -64 30 -3 3
-32 19 -65 35 -32 17 -82 47 -109 68 -28 20 -53 37 -57 37 -3 0 -26 16 -50 35
-24 19 -52 35 -61 35 -9 0 -21 6 -25 14 -11 20 -115 86 -125 80 -4 -3 -8 1 -8
8 0 7 -9 19 -21 26 -15 10 -19 10 -14 1 5 -7 3 -10 -6 -7 -8 3 -13 12 -13 21
1 13 -245 241 -295 272 -9 6 -55 50 -103 98 -48 48 -91 87 -96 87 -9 0 -51 42
-50 50 1 3 -5 15 -12 27 -10 15 -18 19 -26 12 -8 -7 -13 -1 -17 21 -4 17 -11
29 -16 28 -5 -2 -20 8 -33 22 -13 14 -45 43 -71 65 -30 25 -47 48 -47 62 0 12
-5 25 -12 29 -8 5 -9 2 -5 -9 9 -23 -12 -22 -21 1 -18 41 -55 92 -68 92 -8 0
-19 10 -25 23 -21 46 -45 85 -76 124 -18 22 -31 42 -28 45 2 2 -11 28 -30 58
-19 30 -42 70 -50 88 -8 17 -22 32 -30 32 -9 0 -15 9 -15 23 0 12 -8 36 -18
52 -16 26 -57 100 -89 160 -14 26 -64 134 -96 206 -28 63 -72 253 -62 268 3 6
-1 25 -9 44 -7 19 -17 62 -21 97 -4 35 -15 82 -25 105 -16 38 -31 119 -48 270
-12 109 -3 328 17 418 6 26 14 64 17 85 3 20 12 51 20 67 7 17 27 68 44 115
17 47 43 103 57 125 15 22 39 63 53 90 14 28 63 89 110 136 79 81 102 98 203
152 37 20 49 51 25 60 -14 5 -183 -80 -231 -117 -93 -69 -188 -184 -257 -311
-15 -27 -35 -63 -44 -80 -9 -16 -21 -42 -26 -57 -8 -24 -15 -27 -73 -33 -70
-8 -136 -2 -166 15 -28 14 -61 59 -61 81 0 11 -4 27 -9 37 -5 9 -13 31 -18 47
-7 27 -13 30 -52 33 -24 2 -47 -1 -50 -5 -3 -5 -39 -5 -83 2 -55 7 -84 17
-101 33 -13 12 -28 22 -33 22 -11 0 -64 109 -64 132 0 9 5 18 12 20 6 2 14 26
17 54 l6 49 55 6 c57 6 109 28 143 60 12 10 24 19 28 19 4 0 22 12 40 27 45
38 97 124 105 173 6 34 14 46 46 66 21 14 43 36 48 49 5 14 12 25 15 25 13 0
101 -22 120 -30 35 -15 132 -29 167 -25 220 28 258 39 258 80 0 13 -11 32 -26
44 -21 16 -30 18 -52 10 -26 -10 -198 -22 -277 -19 -22 0 -53 5 -70 10 -102
31 -150 42 -178 44 -29 1 -32 -2 -38 -38 -6 -39 -21 -56 -52 -56 -20 0 -57
-55 -57 -84 0 -46 -95 -161 -157 -189 -13 -6 -23 -13 -23 -17 0 -4 -6 -7 -12
-8 -7 0 -42 -6 -78 -13 -55 -10 -71 -18 -102 -51 -24 -24 -57 -45 -88 -55 -27
-9 -50 -20 -50 -25 0 -4 -11 -6 -25 -2 -13 3 -38 1 -55 -4 -43 -16 -149 9
-217 50 -30 18 -96 72 -145 121 -50 48 -96 87 -104 87 -9 0 -14 -11 -14 -31 0
-38 16 -69 36 -69 9 0 57 -42 107 -93 73 -75 109 -102 177 -137 81 -42 90 -44
178 -46 50 -1 92 1 92 4 0 4 11 8 25 8 14 1 36 5 49 8 22 5 23 4 20 -52 -2
-31 -3 -60 -4 -65 0 -4 -11 -12 -24 -18 -18 -8 -28 -27 -42 -78 -10 -36 -19
-68 -19 -71 -1 -3 -6 -27 -12 -55 -16 -67 -23 -101 -32 -155 -5 -25 -15 -79
-24 -120 -8 -41 -18 -97 -22 -125 -3 -27 -19 -120 -35 -205 -16 -85 -32 -177
-35 -205 -4 -27 -20 -115 -35 -195 -15 -80 -33 -185 -40 -235 -6 -49 -15 -108
-20 -130 -5 -22 -14 -65 -21 -95 -7 -30 -15 -62 -20 -70 -4 -8 -17 -76 -29
-150 -12 -74 -26 -155 -31 -180 -5 -25 -15 -83 -23 -130 -8 -47 -21 -123 -29
-170 -9 -47 -18 -116 -22 -155 -4 -38 -18 -139 -31 -224 -14 -85 -23 -160 -20
-168 3 -7 -2 -29 -10 -48 -8 -20 -17 -62 -20 -93 -4 -31 -10 -64 -14 -72 -12
-22 -33 -159 -31 -200 1 -19 -3 -73 -8 -120 -6 -47 -13 -101 -15 -120 -2 -19
-6 -42 -9 -50 -14 -41 -55 -342 -48 -355 3 -5 8 4 12 20 4 17 13 48 19 70 6
22 20 90 31 152 10 62 30 159 43 215 13 57 27 130 30 163 4 33 14 84 22 114 8
29 17 65 19 80 3 14 9 56 15 94 5 37 14 86 19 110 5 23 19 123 30 222 12 99
26 212 32 250 6 39 13 93 15 120 3 28 11 75 18 105 8 30 19 89 25 130 7 41 18
98 26 125 7 28 23 104 35 170 12 66 26 131 31 145 5 14 16 78 24 142 8 65 26
168 40 230 14 62 34 165 45 228 11 63 26 153 35 200 8 47 21 123 29 170 84
475 109 582 154 632 13 16 17 15 56 -17 58 -47 88 -57 189 -60 96 -3 114 -11
115 -53 0 -15 8 -47 17 -70 30 -73 168 -145 195 -101 4 6 12 9 17 6 6 -4 36 1
67 10 31 9 59 14 62 11 2 -3 -4 -32 -15 -64 -10 -33 -25 -97 -31 -144 -7 -47
-21 -120 -32 -163 -11 -43 -17 -86 -13 -95 4 -9 8 -30 11 -46 2 -15 6 -36 9
-46 3 -10 2 -21 -4 -24 -5 -3 -7 -14 -5 -24 2 -9 5 -33 8 -52 2 -19 12 -62 21
-95 9 -33 18 -64 19 -70 2 -5 6 -28 10 -50 4 -22 16 -69 27 -105 10 -36 25
-117 34 -180 8 -63 26 -146 39 -185 25 -72 151 -326 186 -375 11 -16 20 -30
20 -33 0 -11 123 -223 140 -242 10 -11 21 -30 24 -42 4 -12 30 -52 57 -90 28
-37 58 -80 67 -96 9 -15 24 -30 34 -33 9 -3 27 -21 38 -39 12 -19 27 -38 34
-42 6 -5 36 -37 66 -72 30 -36 72 -80 92 -99 21 -19 61 -63 90 -98 28 -35 58
-64 65 -64 7 0 17 -10 22 -22 5 -13 73 -85 151 -160 l142 -137 -29 -38 c-44
-57 -84 -131 -73 -135 16 -5 -1 -48 -19 -47 -10 0 -11 2 -3 6 6 2 12 9 12 15
0 6 -6 6 -15 -2 -8 -7 -15 -17 -15 -22 0 -5 -10 -22 -21 -38 -12 -15 -30 -52
-40 -82 -10 -29 -18 -49 -19 -44 0 15 -60 -53 -60 -69 0 -8 -4 -15 -8 -15 -9
0 -127 -175 -138 -205 -4 -11 -18 -34 -31 -51 -13 -17 -23 -34 -23 -37 0 -3
-19 -34 -42 -69 -23 -35 -55 -88 -71 -118 -27 -51 -48 -87 -134 -232 -18 -31
-33 -63 -33 -71 0 -9 -5 -19 -11 -22 -5 -4 -21 -31 -34 -60 -12 -29 -53 -118
-90 -196 -94 -202 -91 -195 -114 -289 -33 -141 -33 -135 -8 -157 12 -11 31
-25 43 -31 52 -27 154 39 249 161 53 67 83 111 160 233 11 17 39 58 63 90 54
73 142 208 161 246 20 39 33 35 16 -5 -28 -69 -92 -356 -139 -632 -22 -129
-64 -361 -76 -420 -6 -27 -17 -84 -25 -125 -9 -41 -22 -111 -30 -155 -12 -76
-62 -283 -100 -420 -9 -33 -21 -87 -25 -120 -5 -33 -16 -89 -25 -125 -27 -108
-47 -184 -55 -210 -58 -181 -83 -355 -51 -355 9 0 20 27 33 80 10 44 33 136
52 205 18 69 46 179 61 245 15 66 33 140 41 164 8 25 14 55 14 67 0 13 13 74
29 136 29 113 59 256 100 478 12 63 26 131 31 150 5 19 11 46 14 60 3 14 15
54 27 89 18 52 21 69 12 92 -9 24 -7 53 12 147 13 64 28 153 34 197 5 44 17
100 26 125 9 25 20 63 25 85 4 22 18 72 30 110 12 39 26 90 32 115 6 25 14 49
19 54 12 13 11 50 -1 62 -10 10 4 52 31 94 5 8 14 26 20 40 36 83 80 157 121
203 45 50 80 107 93 155 10 33 20 27 20 -14 -1 -19 -7 -39 -14 -44 -8 -4 -18
-32 -23 -62 -13 -83 -24 -134 -57 -253 -44 -161 -78 -338 -107 -550 -9 -66
-38 -232 -65 -370 -45 -225 -61 -318 -75 -425 -3 -19 -16 -91 -29 -160 -23
-114 -62 -338 -70 -400 -4 -29 -9 -68 -24 -195 -6 -49 -16 -110 -21 -135 -6
-25 -19 -94 -29 -155 -10 -60 -30 -168 -44 -240 -14 -71 -33 -166 -41 -210
-24 -130 -74 -367 -86 -405 -31 -104 -31 -205 0 -205 18 0 44 94 65 235 19
121 17 111 49 255 13 61 31 166 40 235 9 69 25 154 36 188 11 35 20 82 20 104
0 22 7 68 16 102 9 33 18 79 20 101 4 58 53 384 63 425 5 19 16 91 26 160 9
69 23 159 31 200 8 41 19 102 25 135 6 33 17 87 24 120 8 33 19 94 25 135 7
41 21 118 31 170 10 52 32 201 49 331 16 129 36 253 43 275 8 21 20 75 27 119
7 44 18 91 25 105 6 14 24 77 39 140 15 63 34 140 43 170 8 30 18 93 22 140 6
69 13 94 37 133 41 68 45 75 83 142 19 33 43 70 53 81 10 12 22 34 27 50 4 16
15 31 25 32 36 7 39 -13 18 -105 -31 -131 -50 -223 -57 -271 -12 -78 -14 -87
-29 -157 -34 -160 -65 -338 -81 -470 -9 -77 -21 -159 -26 -181 -5 -23 -11 -75
-15 -115 -3 -41 -10 -87 -15 -104 -4 -16 -11 -79 -14 -140 -3 -60 -10 -132
-15 -160 -5 -27 -17 -111 -26 -185 -9 -74 -25 -178 -36 -230 -11 -52 -21 -124
-23 -160 -2 -36 -22 -153 -45 -260 -43 -199 -47 -222 -74 -370 -9 -47 -19 -95
-22 -107 -4 -13 -2 -23 4 -23 20 0 51 52 61 103 5 29 23 129 41 222 17 94 37
197 45 230 15 65 37 209 40 265 2 19 10 85 19 145 9 61 23 155 31 211 8 55 19
130 24 165 6 35 11 91 11 124 0 60 27 272 55 435 17 98 22 136 30 205 6 62 33
217 55 325 7 30 18 102 25 160 18 143 78 400 94 400 23 0 82 -32 91 -50 6 -11
17 -20 26 -20 8 0 27 -12 42 -27 38 -38 92 -73 112 -73 15 0 18 -17 24 -142 4
-79 6 -321 4 -538 -4 -466 -1 -951 6 -1105 9 -195 15 -318 22 -395 3 -41 7
-102 9 -135 1 -33 11 -78 20 -100 10 -22 21 -65 24 -95 6 -53 7 -54 46 -66 36
-10 44 -9 77 12 26 17 47 44 69 86 34 69 34 68 31 358 -4 263 7 730 18 837 6
59 7 111 1 125 -4 12 -5 32 0 43 4 11 8 50 8 87 1 53 5 69 19 77 16 10 16 10
0 11 -14 0 -18 9 -19 43 -1 35 0 654 1 710 0 9 15 26 33 36 33 20 110 78 217
163 32 27 65 48 73 48 15 0 59 -60 179 -245 39 -60 79 -119 89 -130 9 -11 47
-81 84 -155 38 -74 72 -137 76 -140 13 -9 69 -118 69 -135 0 -9 7 -18 15 -21
8 -3 25 -22 37 -42 12 -21 37 -55 55 -76 18 -22 33 -44 33 -49 0 -5 9 -22 20
-38 12 -16 53 -90 91 -166 39 -76 78 -146 87 -156 9 -10 25 -33 37 -51 45 -75
96 -133 133 -153 32 -19 44 -21 75 -12 21 6 45 22 58 40 19 28 21 38 15 107
-4 41 -15 94 -25 116 -10 23 -22 52 -26 66 -15 54 -48 116 -76 142 -17 16 -29
37 -29 52 0 14 -4 26 -10 26 -5 0 -10 9 -10 19 0 11 -3 21 -8 23 -4 2 -22 32
-41 68 -18 36 -39 70 -45 75 -12 11 -60 108 -71 143 -3 12 -10 22 -15 22 -4 0
-18 20 -30 44 -11 24 -27 50 -35 56 -7 6 -17 26 -21 43 -4 18 -24 65 -46 105
-53 101 -61 112 -75 112 -7 0 -13 8 -13 18 0 9 -18 54 -40 100 -22 46 -40 87
-40 92 0 6 -4 10 -9 10 -5 0 -13 9 -16 20 -3 11 -13 20 -22 20 -9 0 -13 6 -9
15 7 20 -30 83 -55 90 -14 5 -18 12 -14 28 4 14 -9 52 -35 104 -34 68 -39 87
-30 103 25 46 64 98 113 150 29 30 76 85 105 122 29 36 68 80 87 97 19 17 35
34 35 39 0 4 14 21 31 38 17 16 46 61 66 99 19 39 42 79 52 90 10 11 37 52 60
90 23 39 60 97 81 130 22 33 46 74 54 90 8 17 26 41 41 55 25 24 75 107 138
230 16 30 43 75 60 100 18 25 50 90 71 145 22 55 47 114 57 130 15 26 30 79
56 195 3 14 7 50 9 80 5 71 22 168 33 189 24 46 49 629 30 693 -19 62 -30 123
-34 178 -5 88 -27 163 -100 355 -45 118 -65 145 -242 323 -62 62 -113 117
-113 122 0 6 -13 10 -30 10 -35 0 -37 8 -10 58 10 20 36 73 56 117 20 44 54
106 75 137 22 32 39 61 39 65 0 4 11 18 24 32 12 15 31 46 40 71 10 25 22 51
28 57 6 7 23 39 39 70 31 64 51 90 91 115 18 12 28 29 33 57 4 22 17 55 31 73
13 18 28 43 34 56 5 13 22 34 37 46 35 30 86 123 78 143 -7 19 12 43 35 43 9
0 25 9 35 20 21 24 52 26 81 5 12 -8 24 -12 26 -9 3 3 21 -9 39 -26 19 -17 52
-46 74 -65 35 -30 38 -36 27 -52 -17 -25 -29 -52 -127 -273 -47 -107 -92 -208
-100 -225 -8 -16 -22 -52 -31 -80 -17 -52 -59 -166 -74 -200 -5 -11 -18 -48
-30 -82 -24 -75 -26 -123 -5 -123 9 0 23 29 41 88 15 48 40 115 55 148 16 34
32 79 37 100 9 40 63 180 86 224 7 14 20 39 29 55 31 60 95 201 107 238 24 76
50 104 114 124 50 15 60 23 73 53 9 19 24 54 34 78 11 23 19 62 19 87 0 42 -1
45 -38 55 -48 15 -81 38 -66 48 37 24 104 87 104 99 0 7 4 13 8 13 5 0 16 16
25 35 14 29 23 36 57 41 22 4 43 11 46 15 3 5 13 9 24 9 14 0 17 -5 12 -22 -3
-13 -8 -25 -12 -28 -16 -12 -40 -108 -40 -158 0 -30 8 -77 18 -104 17 -49 17
-49 -4 -66 -24 -19 -59 -84 -97 -182 -53 -137 -59 -174 -30 -168 11 2 26 27
41 68 13 36 33 91 44 123 12 34 36 72 56 92 40 38 55 36 103 -16 14 -16 39
-34 56 -40 28 -9 31 -15 35 -62 2 -29 12 -68 21 -87 20 -39 12 -49 -43 -51
-52 -2 -111 -7 -146 -14 -27 -5 -31 -9 -26 -27 5 -20 9 -20 86 -14 45 3 96 6
114 6 25 0 32 4 32 20 0 23 18 27 26 6 4 -12 10 -11 35 1 42 21 45 37 19 93
-19 42 -22 58 -16 113 7 70 3 81 -25 66 -30 -16 -113 17 -144 56 -14 19 -25
42 -25 52 0 10 -7 29 -17 42 -11 17 -17 46 -17 100 -1 86 17 153 51 187 13 13
23 29 23 37 0 8 11 19 25 25 39 18 95 73 95 94 0 21 -39 25 -58 6 -6 -6 -15
-9 -19 -5 -16 17 88 72 162 86 30 6 73 23 96 38 23 15 54 36 68 45 14 10 39
25 55 34 43 24 123 88 150 121 38 46 136 191 136 202 0 5 4 12 10 16 6 4 8
-79 5 -227 -3 -128 -5 -309 -5 -403 0 -93 0 -204 -1 -245 -2 -97 -2 -96 10
-155 6 -27 9 -83 5 -125 -12 -159 -14 -491 -3 -512 8 -14 8 -23 1 -27 -11 -6
-9 -62 4 -142 3 -21 1 -40 -5 -43 -16 -10 -2 -97 22 -130 14 -21 17 -31 8 -34
-17 -6 -33 -51 -25 -74 4 -14 12 -18 26 -15 20 6 20 6 0 -16 -12 -12 -26 -44
-32 -71 -12 -56 -4 -210 13 -237 9 -14 8 -27 -3 -56 -10 -26 -15 -84 -16 -178
-3 -299 -2 -284 -29 -309 -14 -13 -25 -26 -25 -29 0 -3 -14 -20 -32 -37 -39
-39 -98 -64 -98 -42 0 4 14 13 30 19 28 10 42 33 21 33 -18 0 -110 -66 -116
-83 -5 -12 -13 -16 -26 -12 -10 4 -19 2 -19 -3 0 -17 -52 -32 -135 -38 -83 -7
-85 -8 -85 -33 0 -18 -3 -22 -9 -12 -7 11 -9 11 -14 0 -3 -8 -6 -4 -6 9 -1 19
-6 22 -46 22 -31 0 -47 -5 -54 -17 -9 -16 -11 -16 -28 -2 -10 9 -29 19 -43 22
-39 8 -94 31 -108 45 -7 6 -18 12 -24 12 -6 0 -18 8 -27 19 -9 10 -36 28 -60
40 -24 13 -53 31 -63 41 -11 10 -44 35 -73 57 -57 41 -79 74 -70 104 3 10 0
29 -7 41 -7 13 -11 26 -10 30 1 4 -21 14 -48 23 -27 9 -60 25 -74 36 -14 11
-30 17 -36 14 -5 -3 -10 0 -10 7 0 8 -14 32 -30 55 -17 22 -39 68 -49 101 -17
52 -19 73 -11 149 14 140 35 203 68 203 7 0 10 5 6 11 -3 6 0 15 7 20 11 6 11
11 1 21 -21 21 -13 52 18 80 26 23 29 31 23 55 -4 15 -8 51 -7 79 2 146 82
301 203 392 34 26 40 49 16 58 -10 4 -26 -5 -43 -22 -15 -16 -39 -34 -54 -41
-14 -6 -29 -21 -33 -32 -3 -11 -14 -22 -23 -25 -19 -6 -76 -88 -86 -123 -4
-11 -13 -24 -21 -27 -8 -3 -15 -15 -15 -26 0 -12 -7 -35 -16 -51 -17 -33 -24
-157 -11 -199 6 -20 1 -31 -23 -57 -32 -34 -39 -70 -15 -79 26 -10 17 -32 -20
-50 -25 -12 -42 -30 -56 -60 -23 -52 -39 -128 -32 -155 3 -10 1 -19 -4 -19
-11 0 -5 -115 8 -157 6 -18 20 -39 31 -47 11 -8 17 -19 14 -24 -14 -22 108
-145 172 -173 33 -14 44 -25 48 -49 4 -16 13 -35 20 -41 8 -6 14 -18 14 -26 0
-16 128 -139 141 -135 5 1 9 -2 9 -8 0 -11 145 -82 205 -100 22 -6 54 -18 70
-25 41 -18 190 -32 181 -16 -11 17 30 13 45 -5 8 -9 21 -13 33 -9 12 3 55 7
97 9 42 2 89 11 105 19 16 8 45 18 64 22 19 4 48 18 63 31 16 13 40 24 53 24
32 0 61 15 101 52 17 17 36 28 41 24 6 -3 10 -84 10 -200 0 -107 3 -199 5
-203 3 -5 2 -15 -3 -23 -6 -10 -3 -21 8 -34 9 -11 12 -16 5 -12 -9 5 -12 -15
-12 -81 -1 -82 -10 -578 -11 -578 -6 0 -3 -188 2 -191 5 -3 4 -13 -2 -23 -5
-11 -6 -47 -1 -92 5 -41 6 -78 3 -83 -2 -4 2 -12 9 -17 10 -6 11 -9 2 -9 -10
0 -13 -24 -13 -85 0 -74 2 -85 18 -85 16 -1 16 -1 0 -14 -16 -12 -18 -37 -18
-252 -1 -336 0 -377 11 -391 6 -6 6 -14 2 -16 -12 -8 -15 -300 -3 -370 6 -36
16 -65 27 -73 15 -11 16 -15 4 -23 -18 -11 -22 -79 -7 -103 8 -14 8 -21 -2
-27 -15 -9 -15 -36 -12 -396 1 -126 3 -322 4 -435 0 -114 5 -208 10 -212 6 -4
6 -12 0 -20 -19 -24 -4 -115 22 -143 23 -25 25 -25 42 -9 14 15 17 37 17 143
0 87 -4 133 -14 150 -8 15 -10 26 -3 30 16 9 14 202 -2 247 -8 23 -10 48 -5
60 13 37 14 152 4 424 -3 102 -6 190 -5 195 5 51 5 293 -1 340 -3 33 -3 65 1
70 10 13 7 96 -3 112 -4 7 -4 21 1 30 6 10 8 163 6 358 -3 187 -4 355 -4 373
0 18 -5 53 -10 78 -7 30 -7 50 -1 58 12 15 -3 41 -18 32 -6 -4 -11 -3 -11 3 0
5 5 11 12 13 18 6 25 155 22 512 -2 298 -3 321 -20 333 -13 9 -15 16 -8 21 6
4 14 24 18 45 6 33 5 37 -13 37 -11 0 -23 5 -26 10 -3 6 3 10 14 10 12 0 21 3
22 8 3 23 10 149 10 162 -4 92 -4 184 2 400 16 552 18 859 7 880 -6 11 -7 20
-3 20 17 0 23 249 9 395 -4 50 -7 97 -6 105 1 8 3 166 6 350 2 184 5 355 6
380 1 25 -1 164 -5 310 -9 370 -10 787 -2 800 7 11 15 510 14 835 -1 359 0
476 5 483 3 5 0 26 -5 48 -9 38 -23 554 -18 664 6 119 4 142 -15 155 -10 8
-24 11 -32 8 -8 -3 -32 2 -54 11 -32 13 -68 15 -197 11 -109 -4 -159 -9 -165
-18 -6 -9 -8 -8 -8 3 0 12 -17 16 -82 18 -80 2 -607 4 -933 2 -88 0 -250 2
-360 5 -368 10 -597 9 -655 -5 -48 -10 -67 -10 -132 5 -102 22 -449 25 -475 4
-7 -6 -19 -9 -28 -6 -8 4 -17 2 -21 -4 -4 -6 -11 -6 -20 2 -9 7 -55 10 -146 7
-73 -3 -182 -1 -242 4 -80 7 -111 6 -116 -2 -5 -9 -13 -8 -30 2 -18 10 -24 10
-27 1 -3 -7 -9 -13 -14 -13 -5 0 -8 6 -6 13 1 9 -167 12 -818 11 -451 0 -847
-2 -880 -2 -33 -1 -337 0 -675 2 -409 3 -619 1 -627 -6 -7 -6 -23 -8 -35 -5
-13 3 -97 9 -188 12 -91 4 -167 8 -170 10 -3 1 -17 -1 -32 -5z m7052 -80 c0
-5 -4 -10 -10 -10 -5 0 -10 5 -10 10 0 6 5 10 10 10 6 0 10 -4 10 -10z m-3665
-20 c10 -15 205 -13 205 3 0 8 3 8 9 -2 8 -12 67 -14 368 -11 197 2 378 3 403
3 427 -4 983 -14 990 -18 5 -3 242 -6 527 -5 317 0 571 -4 654 -11 75 -7 145
-9 155 -4 11 4 44 7 74 6 31 -1 71 5 92 13 33 14 37 14 42 0 5 -13 15 -15 49
-10 23 3 67 0 97 -7 l55 -12 1 -525 c0 -289 1 -705 1 -925 1 -220 1 -409 1
-420 0 -11 1 -50 2 -86 1 -44 -4 -77 -14 -97 -9 -17 -16 -38 -16 -46 0 -8 -20
-54 -45 -103 -25 -48 -45 -92 -45 -97 0 -4 -20 -37 -45 -72 -25 -34 -45 -66
-45 -71 0 -15 -94 -100 -140 -127 -133 -78 -347 -169 -420 -178 -17 -2 -26
-11 -30 -28 -7 -34 -38 -90 -50 -90 -6 0 -10 -9 -10 -20 0 -11 -5 -20 -11 -20
-6 0 -25 -10 -42 -22 -26 -19 -44 -23 -99 -22 l-68 1 0 -45 c0 -35 -7 -54 -32
-87 -34 -44 -78 -75 -106 -75 -9 0 -39 11 -67 25 -27 13 -59 25 -70 25 -57 1
-59 57 -6 131 45 62 100 170 108 214 3 17 12 42 19 57 16 31 47 215 40 233 -7
20 15 42 58 55 41 13 87 55 112 102 16 32 20 94 7 123 -22 49 -49 85 -65 85
-10 0 -18 5 -18 10 0 6 -8 13 -17 17 -10 3 -25 12 -33 18 -20 17 -120 33 -151
24 -59 -15 -102 -82 -115 -178 -6 -45 -4 -57 15 -81 28 -39 27 -56 -6 -65 -36
-9 -61 -32 -78 -72 -8 -18 -19 -33 -24 -33 -6 0 -18 -15 -27 -32 -9 -18 -30
-49 -45 -68 -16 -19 -29 -38 -29 -42 0 -5 -16 -30 -35 -57 -19 -27 -41 -65
-49 -84 -8 -20 -28 -50 -45 -68 -17 -17 -31 -43 -31 -55 0 -29 -10 -30 -40 -4
-12 11 -26 17 -30 15 -5 -3 -10 -2 -12 2 -5 13 -65 43 -83 43 -11 0 -15 5 -12
14 3 8 -2 17 -11 20 -24 8 -46 24 -100 74 -76 69 -107 68 -146 -3 -12 -22 -29
-52 -39 -66 -22 -33 -33 -114 -18 -133 6 -7 27 -16 47 -19 19 -3 72 -24 117
-46 45 -21 91 -42 103 -45 11 -3 30 -15 42 -27 17 -16 20 -24 12 -39 -5 -10
-10 -30 -10 -44 0 -19 -6 -25 -26 -28 -24 -3 -31 -13 -56 -83 -16 -44 -31 -93
-34 -108 -2 -16 -16 -38 -30 -49 -24 -19 -25 -25 -19 -73 5 -43 3 -55 -15 -77
-11 -14 -20 -33 -20 -41 0 -8 -18 -47 -40 -87 -22 -40 -40 -83 -40 -96 0 -13
-5 -23 -12 -21 -6 1 -14 -7 -16 -18 -2 -11 -10 -27 -17 -35 -7 -8 -15 -27 -19
-42 -3 -15 -15 -32 -25 -38 -11 -5 -25 -27 -31 -47 -7 -21 -21 -48 -32 -60
-11 -12 -17 -26 -14 -32 4 -5 2 -12 -4 -16 -5 -3 -10 -13 -10 -21 0 -9 -16
-47 -35 -85 -19 -38 -32 -76 -29 -84 4 -9 -5 -26 -21 -43 -15 -14 -34 -40 -42
-57 -20 -39 -19 -38 -40 -27 -10 5 -46 12 -80 15 -52 6 -63 4 -63 -8 0 -11
-11 -15 -37 -15 -165 -2 -274 -17 -348 -49 -51 -22 -94 -44 -140 -71 -27 -17
-57 -33 -65 -36 -54 -22 -90 -47 -148 -102 -36 -34 -71 -61 -79 -58 -10 4 -12
58 -11 258 0 139 -2 346 -6 459 -4 120 -2 259 4 335 5 71 11 188 11 259 2 161
5 177 33 173 15 -2 22 -11 24 -31 4 -29 63 -150 88 -178 8 -8 14 -20 14 -25 0
-17 122 -134 139 -134 9 0 25 -7 36 -16 34 -25 174 -60 230 -56 59 3 183 20
192 25 5 3 64 1 129 -4 115 -11 174 -4 174 18 0 7 -85 28 -228 55 -50 9 -57 8
-85 -13 -58 -42 -245 -32 -342 19 -82 44 -174 152 -195 233 -6 20 -17 43 -26
50 -12 10 -14 23 -9 54 11 74 -27 98 -124 81 l-44 -8 5 145 c3 84 1 152 -5
162 -11 21 6 65 27 65 26 0 36 72 15 111 -8 16 -7 29 6 56 13 26 15 49 10 88
-4 36 -2 55 5 60 7 4 19 23 27 42 13 32 17 35 46 30 55 -9 160 -43 204 -65 23
-12 50 -22 59 -22 10 0 26 -7 36 -17 17 -15 20 -15 44 8 50 46 65 96 62 216
-2 134 -12 152 -79 153 -25 0 -49 -3 -53 -7 -4 -4 -36 -6 -72 -4 -55 2 -63 1
-58 -13 3 -9 1 -16 -5 -16 -6 0 -10 6 -9 12 2 7 -4 13 -12 13 -8 0 -14 -5 -13
-10 1 -6 -7 -11 -17 -11 -12 0 -16 5 -12 16 4 12 3 13 -9 4 -8 -6 -41 -9 -74
-8 -33 2 -72 3 -86 4 -35 0 -42 22 -24 75 22 66 0 291 -40 404 -8 24 -15 58
-15 75 0 17 -7 42 -17 55 -15 23 -15 25 5 41 11 9 34 39 51 65 25 39 31 60 31
102 0 51 -2 56 -53 106 -37 37 -68 58 -104 70 -102 34 -143 19 -225 -81 -23
-29 -39 -105 -28 -136 5 -16 10 -40 10 -53 0 -15 14 -37 36 -57 l36 -33 -17
-57 c-9 -32 -18 -89 -20 -126 -1 -37 -5 -72 -9 -78 -3 -5 -8 -41 -11 -78 -3
-38 -8 -85 -11 -104 -4 -19 -7 -69 -8 -110 -1 -83 -2 -83 -79 -67 -20 4 -34 0
-48 -14 -19 -19 -19 -19 -19 1 0 14 -9 21 -37 25 -21 3 -58 11 -83 16 -122 26
-130 24 -130 -36 0 -24 -5 -47 -11 -51 -8 -4 -9 -29 -5 -73 13 -149 18 -171
40 -186 26 -19 85 -19 110 0 11 8 36 15 57 15 20 0 53 7 72 15 49 20 66 19 78
-7 5 -13 16 -34 24 -48 8 -14 15 -34 15 -46 0 -30 20 -84 31 -84 5 0 9 -5 9
-11 0 -7 -10 -9 -25 -5 -20 5 -27 2 -37 -19 -9 -20 -8 -28 5 -43 10 -10 17
-29 17 -43 0 -13 7 -37 15 -53 15 -28 18 -126 4 -126 -3 0 -14 9 -24 20 -18
19 -74 28 -89 13 -12 -12 -80 -33 -109 -33 -82 0 -206 56 -265 122 -41 45 -53
69 -71 143 -22 90 -24 91 -154 98 -63 4 -133 14 -157 22 -23 8 -55 15 -70 15
-15 0 -33 6 -39 14 -6 7 -37 21 -69 31 -77 23 -125 45 -135 61 -4 8 -14 14
-22 14 -8 0 -29 15 -47 34 -18 18 -43 36 -54 40 -24 7 -76 67 -148 168 -26 38
-57 76 -69 85 -21 17 -81 154 -132 300 -12 38 -30 84 -38 103 -9 20 -16 60
-16 90 0 30 -4 69 -10 87 -5 17 -7 33 -5 36 3 2 7 35 10 73 3 38 8 72 10 76 9
13 54 179 54 196 0 20 67 176 93 215 9 14 36 44 58 66 39 37 41 41 30 71 -13
40 -10 46 31 54 18 3 46 17 63 30 29 23 29 23 11 51 -15 23 -22 26 -49 21 -90
-18 -137 -18 -174 -1 -53 25 -79 47 -116 97 -46 62 -44 117 8 223 21 44 51 98
65 121 36 58 136 151 170 157 15 4 40 17 55 31 26 24 27 24 203 21 97 -2 222
-4 277 -3 171 1 807 -1 865 -2 121 -3 186 0 200 10 19 12 27 12 35 0z m52
-1286 c17 -13 39 -24 47 -24 35 0 48 -80 22 -141 -8 -19 -27 -47 -41 -62 -24
-25 -31 -27 -73 -21 -42 6 -105 40 -124 68 -16 23 -8 108 13 142 47 77 91 88
156 38z m22 -341 c6 -21 11 -49 11 -63 0 -14 7 -47 16 -75 12 -39 28 -152 36
-250 0 -5 -2 -41 -5 -79 -3 -38 -2 -77 3 -86 16 -29 -3 -41 -61 -36 -35 3 -55
9 -57 18 -4 20 -65 50 -86 42 -14 -5 -17 -3 -14 12 3 16 12 19 52 19 30 0 51
5 53 13 3 6 -2 12 -10 12 -8 0 -20 7 -28 16 -8 10 -22 14 -40 10 -28 -5 -40 7
-32 32 3 8 15 11 36 7 21 -4 39 -1 52 9 20 16 20 16 -4 36 -13 11 -34 20 -47
20 -15 0 -24 6 -24 15 0 15 11 19 38 16 8 -1 20 3 28 9 20 17 0 50 -31 50 -15
0 -25 6 -25 14 0 29 13 46 35 46 13 0 27 5 30 10 10 17 -5 49 -26 55 -28 9
-24 44 6 55 30 12 33 46 5 55 -46 15 -9 53 52 54 23 1 29 -5 37 -36z m-2319
-435 c56 -28 74 -64 66 -123 -6 -34 -15 -49 -43 -70 -54 -42 -98 -39 -156 10
-50 43 -63 70 -53 112 8 31 58 80 89 86 43 8 53 7 97 -15z m4821 -104 c30 -17
54 -39 63 -59 17 -35 22 -120 7 -111 -5 3 -14 -1 -21 -9 -7 -8 -18 -15 -26
-15 -7 0 -28 -13 -46 -29 -18 -15 -44 -34 -57 -41 -29 -15 -39 -5 -75 71 -18
38 -21 57 -16 118 4 56 10 76 25 87 30 22 92 17 146 -12z m-2936 -95 c142 -18
287 -28 435 -30 129 -1 221 2 477 15 l72 3 5 -41 c19 -160 18 -162 -60 -145
-27 5 -67 14 -89 18 -23 4 -46 10 -52 14 -6 4 -80 14 -164 23 -184 19 -518 13
-639 -12 -132 -27 -140 -27 -141 -13 -4 82 -3 153 3 170 6 16 14 19 40 14 18
-3 69 -10 113 -16z m-1803 -114 c11 -13 39 -50 60 -82 39 -57 39 -58 19 -72
-24 -16 -27 -34 -8 -50 11 -8 18 -6 32 9 21 23 35 26 35 6 0 -8 -16 -23 -35
-35 -22 -13 -35 -28 -35 -41 0 -24 21 -26 80 -5 50 18 61 12 91 -49 25 -52 24
-60 -6 -74 -32 -15 -36 -62 -6 -62 11 0 23 5 26 10 8 13 35 13 35 1 0 -5 -15
-19 -34 -30 -53 -33 -60 -89 -8 -70 24 9 25 8 12 -4 -8 -8 -36 -26 -61 -40
-25 -13 -55 -30 -66 -37 -30 -19 -51 -6 -58 37 -18 106 -39 185 -55 206 -10
12 -25 47 -34 76 -15 50 -15 56 0 72 23 25 14 54 -16 55 -28 0 -29 18 -3 46
24 27 10 49 -27 42 -35 -7 -39 4 -10 29 11 9 20 26 20 38 0 18 -4 20 -25 15
-31 -8 -33 11 -2 24 37 15 56 11 79 -15z m2343 -105 c0 -25 -1 -25 -75 -23
-41 1 -110 3 -153 4 -49 2 -81 7 -88 16 -15 18 11 27 59 21 20 -3 45 -2 54 1
10 3 59 6 110 6 93 0 93 0 93 -25z m2245 0 c17 -10 23 -107 9 -126 -5 -6 -12
-33 -15 -60 -4 -27 -10 -53 -14 -59 -4 -5 -17 -39 -30 -75 -27 -80 -46 -127
-65 -160 -8 -14 -24 -44 -36 -68 -11 -24 -27 -46 -34 -49 -8 -2 -40 7 -71 22
-31 15 -76 35 -100 46 -24 10 -44 23 -44 30 0 7 7 8 18 4 9 -3 29 -9 44 -12
15 -3 29 -11 32 -19 5 -12 46 -21 46 -10 0 3 -9 21 -21 40 -15 25 -28 36 -45
36 -17 0 -24 6 -24 18 0 31 12 33 46 7 18 -14 39 -25 48 -25 22 0 31 21 14 34
-59 45 -71 57 -61 67 6 6 18 3 35 -11 31 -24 68 -27 68 -5 0 8 -6 15 -14 15
-8 0 -25 14 -37 32 l-23 31 30 -8 c16 -4 38 -8 49 -9 27 -1 26 28 -1 32 -39 5
-37 42 4 101 20 30 42 61 47 70 6 9 20 26 33 39 12 12 22 33 22 46 0 32 56 48
90 26z m-2313 -86 c24 -3 45 -10 49 -15 3 -6 3 -36 -1 -69 l-7 -58 -126 5
c-150 5 -157 7 -143 30 6 11 6 24 -1 36 -7 13 -6 23 5 35 8 9 17 25 20 35 6
16 16 17 84 12 43 -3 97 -8 120 -11z m-941 -155 c-8 -49 14 -104 80 -196 53
-74 101 -109 193 -139 76 -25 75 -22 47 -139 -9 -38 -22 -92 -27 -120 -6 -27
-17 -72 -25 -100 -21 -78 -54 -227 -58 -261 -2 -17 -6 -36 -10 -43 -4 -6 -27
-94 -52 -194 -24 -100 -51 -198 -59 -217 -18 -40 -24 -113 -11 -120 18 -10 46
46 67 130 11 47 27 108 36 135 8 28 23 88 33 135 11 47 25 110 33 140 8 30 22
91 31 135 17 80 40 173 56 230 5 17 18 73 30 125 30 132 38 152 62 144 11 -3
37 5 65 22 38 22 50 25 65 15 11 -7 33 -9 53 -5 30 5 35 3 50 -26 15 -28 16
-105 17 -758 0 -819 -4 -893 -42 -847 -7 8 -19 15 -26 15 -8 0 -14 4 -14 8 0
15 -143 98 -205 120 -102 36 -268 71 -287 61 -10 -5 -19 -5 -22 0 -3 5 -34 9
-68 9 -35 0 -71 3 -82 8 -11 4 -29 0 -48 -10 -37 -23 -53 -16 -73 31 -47 105
-78 166 -100 192 -14 15 -22 31 -19 33 3 3 -18 54 -46 112 -28 59 -50 115 -48
124 2 9 36 32 77 52 56 27 76 43 86 67 7 17 26 39 41 49 123 82 229 271 250
444 13 107 11 307 -3 322 -7 6 -13 24 -13 39 0 25 -107 250 -130 273 -21 21
-9 35 33 39 23 2 48 4 56 5 10 2 12 -7 7 -39z m965 -56 c38 -37 17 -44 -112
-40 -135 4 -161 15 -119 49 22 18 36 20 118 16 77 -3 96 -7 113 -25z m1534
-21 c-8 -8 -25 10 -19 20 4 6 9 5 15 -3 4 -7 6 -15 4 -17z m-18 -32 c18 -16
40 -30 48 -30 8 0 15 -4 15 -8 0 -5 30 -27 66 -50 48 -31 72 -40 89 -36 14 4
33 0 47 -10 12 -9 16 -16 9 -16 -43 0 36 -43 339 -184 19 -9 42 -20 50 -26 8
-5 51 -26 95 -46 115 -52 118 -53 145 -69 14 -8 35 -15 46 -15 12 0 27 -7 34
-15 10 -13 9 -19 -6 -36 -11 -12 -26 -40 -35 -62 -21 -53 -48 -59 -93 -20 -19
15 -57 42 -85 58 -28 17 -81 49 -117 73 -36 23 -69 42 -73 42 -5 0 -29 16 -54
35 -25 19 -52 35 -59 35 -7 0 -30 11 -49 24 -61 41 -122 73 -166 86 -24 7 -43
17 -43 22 0 4 -7 8 -15 8 -8 0 -71 29 -139 65 -68 36 -134 65 -145 65 -14 0
-21 6 -21 20 0 11 4 20 10 20 5 0 12 11 16 25 3 14 9 25 13 25 4 0 13 11 19
25 15 32 17 31 59 -5z m-1664 -60 c8 -7 9 -120 3 -384 -2 -82 1 -168 6 -190
13 -55 12 -208 -3 -359 -17 -182 -13 -503 11 -847 9 -124 10 -247 5 -375 -10
-245 -10 -320 0 -432 4 -51 7 -192 8 -315 l0 -222 -56 -49 c-75 -66 -90 -61
-81 30 8 70 8 111 5 798 0 220 2 445 6 500 5 55 7 357 6 670 -3 788 -5 906
-15 934 -23 64 -15 209 14 248 9 12 76 7 91 -7z m143 -1211 c3 -662 6 -1269 6
-1349 2 -254 -7 -483 -20 -488 -19 -6 -52 72 -46 109 3 19 1 72 -5 119 -5 47
-6 89 -2 95 5 5 7 71 6 145 -5 330 -17 881 -23 1050 -4 102 -4 259 1 350 4 91
9 341 12 555 6 530 18 666 58 626 5 -5 11 -550 13 -1212z m1829 1111 c3 -5 1
-10 -4 -10 -6 0 -11 5 -11 10 0 6 2 10 4 10 3 0 8 -4 11 -10z m-3591 -138 c10
-16 -30 -46 -104 -79 -81 -35 -128 -57 -176 -79 -78 -37 -113 -27 -61 17 20
17 139 79 152 79 5 0 54 21 130 55 35 16 52 18 59 7z m3579 -48 c29 -15 59
-32 67 -39 8 -7 42 -27 75 -44 79 -43 89 -53 81 -85 -7 -29 -27 -34 -49 -11
-8 8 -69 41 -135 75 -66 33 -123 64 -127 69 -9 16 6 61 21 61 8 0 38 -12 67
-26z m-3555 -69 c7 -14 12 -35 12 -46 0 -11 4 -28 9 -38 5 -9 7 -21 3 -27 -4
-5 -53 -33 -109 -62 -89 -45 -110 -52 -157 -51 -51 2 -54 3 -70 36 -9 18 -16
40 -16 48 0 13 279 163 306 164 6 1 16 -10 22 -24z m3467 -36 c60 -16 245
-109 245 -124 0 -7 -17 -32 -39 -56 -21 -24 -48 -63 -60 -87 l-22 -43 -31 22
c-37 27 -94 34 -102 13 -4 -11 8 -21 42 -36 53 -24 65 -37 50 -55 -16 -20 -29
-16 -88 23 -30 20 -77 48 -104 63 -58 31 -75 58 -30 47 16 -4 46 -16 67 -27
34 -17 40 -18 54 -4 9 10 23 13 37 9 21 -6 21 -6 1 8 -11 8 -45 25 -75 38 -71
31 -83 40 -71 54 5 6 21 42 35 79 37 99 29 93 91 76z m-3382 -151 c11 -39 -22
-75 -88 -97 -22 -8 -46 -18 -53 -24 -21 -16 -114 -47 -123 -41 -22 13 -4 37
59 77 37 24 89 54 115 67 27 14 51 28 53 32 10 16 32 8 37 -14z m33 -220 c38
-82 90 -176 108 -198 7 -8 22 -35 34 -60 11 -25 36 -81 56 -125 59 -130 84
-170 102 -168 11 1 13 -2 6 -9 -6 -6 -7 -18 -3 -27 5 -9 15 -32 24 -51 15 -34
67 -139 150 -302 23 -46 43 -75 50 -71 6 3 7 1 3 -5 -3 -6 18 -63 49 -126 30
-64 55 -119 55 -124 0 -5 10 -22 22 -37 12 -16 24 -38 25 -49 2 -10 17 -40 33
-65 29 -45 41 -70 149 -291 28 -58 64 -130 81 -160 31 -57 37 -98 20 -131 -12
-22 -30 -25 -30 -5 0 7 -8 24 -18 37 -10 13 -26 44 -36 69 -10 24 -32 69 -50
100 -18 30 -41 78 -51 105 -10 28 -24 59 -31 70 -6 11 -15 37 -18 57 -4 20
-22 60 -41 89 -19 28 -35 54 -35 58 0 3 -20 36 -43 72 -23 36 -49 85 -56 110
-24 79 -52 146 -69 165 -10 11 -41 69 -69 130 -54 115 -81 163 -146 258 -35
52 -96 158 -116 201 -5 11 -23 50 -40 87 -17 36 -31 70 -31 74 0 9 -89 197
-125 265 -24 44 -33 108 -18 122 15 16 26 3 59 -65z m3222 40 c17 -14 15 -53
-3 -68 -8 -7 -15 -18 -15 -25 0 -6 -13 -31 -30 -53 -16 -23 -30 -46 -30 -51 0
-5 -6 -13 -13 -19 -13 -11 -35 -54 -133 -257 -27 -55 -52 -103 -57 -106 -5 -4
-7 -11 -3 -17 3 -5 0 -12 -7 -15 -7 -2 -25 -31 -41 -63 -15 -33 -32 -67 -37
-77 -47 -89 -72 -133 -80 -142 -5 -5 -9 -16 -9 -25 0 -13 -31 -78 -84 -175
-19 -35 -20 -52 -4 -57 6 -2 -8 -18 -32 -35 -27 -20 -51 -50 -66 -83 -13 -28
-40 -76 -61 -107 -50 -75 -54 -82 -108 -193 -25 -52 -53 -108 -62 -125 -92
-168 -153 -302 -149 -321 4 -13 2 -25 -3 -28 -18 -12 -76 -14 -88 -4 -21 17
-15 55 13 85 37 40 100 142 162 263 30 58 58 107 62 110 6 4 19 30 70 131 5 9
33 65 64 125 30 60 58 123 62 139 3 17 13 37 20 45 7 8 31 56 54 105 23 50 52
110 65 135 47 91 136 273 160 329 30 72 82 179 166 339 35 68 76 147 90 174
41 82 81 102 127 66z m-3377 -45 c6 -16 33 -73 60 -128 27 -55 49 -104 49
-110 0 -33 251 -525 272 -533 5 -2 33 -52 62 -111 29 -59 64 -125 78 -147 13
-21 40 -73 58 -114 19 -41 39 -82 46 -90 6 -8 21 -33 33 -55 12 -22 36 -62 53
-90 17 -27 49 -85 70 -129 21 -43 49 -93 62 -110 43 -59 166 -346 166 -386 0
-14 7 -36 16 -48 15 -22 17 -22 41 -7 14 9 26 15 28 13 6 -6 -60 -107 -70
-108 -13 0 -92 135 -162 275 -26 53 -93 167 -102 175 -10 9 -41 64 -68 120
-14 30 -30 62 -34 70 -5 8 -19 35 -30 60 -101 212 -172 356 -178 360 -4 3 -15
19 -23 35 -68 131 -111 212 -118 225 -5 8 -31 60 -58 115 -27 55 -58 116 -70
135 -22 36 -52 96 -91 185 -24 53 -28 60 -127 253 -35 68 -64 127 -64 132 0 6
63 37 83 39 4 1 12 -11 18 -26z m3517 -41 c34 -26 41 -49 17 -58 -8 -3 -26
-26 -40 -51 -17 -32 -20 -43 -10 -39 28 10 15 -19 -20 -44 -18 -14 -41 -38
-49 -55 -9 -16 -41 -75 -71 -130 -30 -55 -58 -107 -62 -115 -3 -8 -17 -32 -30
-52 -13 -21 -23 -47 -23 -58 0 -11 -12 -33 -28 -49 -15 -16 -40 -58 -56 -93
-16 -34 -35 -74 -42 -88 -33 -60 -134 -270 -134 -278 0 -5 -6 -15 -14 -21 -8
-7 -17 -30 -21 -52 -4 -21 -11 -37 -16 -33 -5 3 -9 -2 -9 -10 0 -9 -4 -16 -9
-16 -5 0 -12 -12 -15 -26 -4 -14 -15 -34 -25 -45 -9 -10 -42 -70 -73 -131
-208 -425 -270 -540 -294 -549 -26 -10 -124 -11 -124 -1 0 4 13 28 28 53 24
37 139 252 191 354 8 17 27 50 43 74 15 25 28 51 28 59 0 16 153 327 172 349
15 18 25 35 62 104 16 30 41 72 55 94 26 38 40 66 110 215 30 65 40 83 115
215 23 39 60 112 83 164 24 52 49 102 56 110 7 9 19 30 27 46 8 17 29 53 47
82 18 29 33 57 33 63 0 18 40 51 53 44 7 -4 27 -19 45 -32z m-4778 -936 c0 -3
-4 -8 -10 -11 -5 -3 -10 -1 -10 4 0 6 5 11 10 11 6 0 10 -2 10 -4z m570 -336
c12 -16 18 -30 13 -30 -5 0 -17 14 -26 30 -10 17 -16 30 -13 30 2 0 14 -13 26
-30z m6085 -1050 c3 -5 1 -10 -4 -10 -6 0 -11 5 -11 10 0 6 2 10 4 10 3 0 8
-4 11 -10z m-6855 -595 c0 -8 -4 -15 -10 -15 -5 0 -10 7 -10 15 0 8 5 15 10
15 6 0 10 -7 10 -15z m6870 -559 c0 -3 -4 -8 -10 -11 -5 -3 -10 -1 -10 4 0 6
5 11 10 11 6 0 10 -2 10 -4z m-4373 -1123 c25 -21 61 -52 80 -68 l34 -30 -29
-55 c-16 -30 -48 -86 -70 -125 -23 -38 -57 -99 -77 -135 -19 -36 -39 -72 -44
-80 -41 -66 -71 -122 -71 -130 0 -5 -6 -18 -14 -27 -77 -95 -116 -148 -116
-159 0 -6 -6 -14 -13 -17 -7 -3 -28 -34 -45 -69 -18 -36 -52 -95 -77 -132 -25
-37 -45 -69 -45 -71 0 -5 -70 -118 -83 -134 -8 -9 -20 -31 -27 -50 -8 -19 -30
-53 -49 -77 -73 -87 -101 -123 -101 -131 -1 -38 -216 -305 -276 -343 -28 -17
-34 -12 -41 37 -8 60 32 164 109 281 10 15 22 38 28 52 6 14 23 50 39 80 16
30 32 68 35 84 4 17 15 41 24 55 10 14 33 60 52 101 19 41 59 113 90 160 30
47 59 94 63 105 4 11 14 26 21 35 7 8 24 35 37 60 13 25 31 54 41 65 9 11 24
38 34 60 9 22 36 67 60 101 24 34 44 66 44 71 0 6 9 18 20 28 11 10 20 22 20
26 0 4 19 36 43 72 23 35 57 88 75 118 18 30 62 101 98 158 35 58 64 108 64
113 0 17 23 7 67 -29z m169 -12 c8 7 14 7 14 1 0 -5 -7 -15 -15 -22 -19 -16
-42 1 -29 21 6 10 9 10 12 1 3 -10 7 -10 18 -1z m1294 -74 c0 -18 176 -363
228 -448 22 -37 47 -87 56 -112 8 -24 29 -66 47 -92 18 -26 57 -95 87 -154 30
-58 62 -117 71 -131 17 -25 50 -92 131 -264 23 -49 51 -105 63 -125 12 -20 37
-70 56 -111 19 -41 45 -98 58 -126 32 -68 30 -137 -5 -142 -16 -2 -34 9 -63
40 -22 24 -55 59 -73 79 -35 37 -106 178 -106 210 0 9 -16 38 -35 63 -19 26
-35 52 -35 60 0 7 -14 31 -31 52 -17 22 -40 56 -50 76 -38 74 -136 203 -142
186 -2 -7 -2 -1 0 15 3 19 -4 38 -25 65 -17 20 -35 57 -42 80 -6 24 -20 51
-31 60 -10 9 -19 24 -19 32 0 9 -21 47 -46 85 -25 39 -54 86 -65 105 -11 19
-23 42 -28 50 -19 30 -69 147 -87 203 -13 41 -22 56 -32 52 -16 -6 -41 22 -42
46 0 19 129 157 148 158 6 1 12 -5 12 -12z m2910 -157 c0 -11 -4 -20 -9 -20
-7 0 -8 17 -2 38 4 10 11 -2 11 -18z m5 -98 c-7 -8 -23 42 -17 53 3 5 9 -4 14
-20 4 -16 5 -31 3 -33z m-3730 -81 c3 -5 29 -17 58 -27 28 -9 58 -22 66 -27
11 -9 12 -80 7 -407 -4 -217 -10 -413 -14 -435 -4 -22 -5 -119 0 -215 4 -96 3
-335 -2 -530 -5 -195 -8 -428 -7 -518 3 -129 0 -169 -11 -190 -8 -15 -21 -39
-29 -54 -38 -74 -53 -18 -83 314 -31 336 -35 534 -32 1468 0 206 0 384 0 395
-2 46 5 221 9 228 6 10 31 9 38 -2z m-938 -421 c-13 -21 -27 -26 -27 -10 0 6
5 10 10 10 6 0 10 7 10 16 0 8 4 12 10 9 6 -4 5 -13 -3 -25z m4673 -265 c0 -8
-2 -15 -4 -15 -2 0 -6 7 -10 15 -3 8 -1 15 4 15 6 0 10 -7 10 -15z m-3540
-199 c-21 -21 -38 -16 -24 6 9 13 11 19 13 40 0 6 7 3 15 -8 13 -17 13 -21 -4
-38z m-12 -107 c-20 -13 -28 -11 -22 5 3 8 12 12 21 9 12 -5 12 -7 1 -14z
m1385 -19 c4 -17 3 -19 -9 -9 -8 6 -14 18 -14 26 0 20 16 8 23 -17z m61 -156
c3 -8 2 -12 -4 -9 -6 3 -10 10 -10 16 0 14 7 11 14 -7z m49 -184 c-3 -11 -7
-20 -9 -20 -2 0 -4 9 -4 20 0 11 4 20 9 20 5 0 7 -9 4 -20z"/>
<path d="M4399 13776 c-2 -2 -51 -7 -109 -11 -57 -3 -108 -9 -113 -12 -5 -3
-50 -4 -101 -3 -50 1 -98 3 -106 3 -40 1 -105 -15 -122 -29 -21 -20 -23 -53
-5 -77 11 -15 18 -16 69 -5 32 7 61 9 65 4 12 -12 14 -196 2 -218 -8 -14 -19
-19 -42 -16 -36 3 -37 -1 -19 -53 l13 -36 77 5 c42 2 101 10 131 18 29 7 57
11 61 9 4 -3 86 -6 181 -7 l174 -2 13 26 c18 38 -2 68 -45 68 -40 0 -52 19
-64 108 -16 110 3 143 62 111 28 -15 55 -3 69 32 22 52 -17 76 -136 85 -28 2
-53 2 -55 0z m-19 -104 c0 -4 -5 -13 -11 -19 -9 -9 -14 -139 -7 -188 3 -17 -4
-20 -40 -23 l-43 -3 2 111 c2 103 4 113 23 120 27 11 76 12 76 2z m-216 -11
c3 -4 7 -52 8 -106 l3 -97 -38 -15 c-56 -23 -67 -14 -61 49 15 155 14 155 37
166 28 13 44 14 51 3z"/>
<path d="M5646 10335 c-26 -14 -54 -25 -63 -25 -31 0 -93 -23 -93 -35 0 -18
65 -34 102 -26 18 5 57 20 86 35 42 21 52 31 52 51 0 33 -23 33 -84 0z"/>
<path d="M5112 10117 c-6 -7 -23 -51 -38 -98 -14 -46 -37 -115 -51 -154 -14
-38 -31 -98 -38 -132 -12 -60 -12 -62 6 -52 11 5 25 34 35 67 9 31 26 84 39
117 13 33 29 80 35 105 7 25 21 65 32 88 25 56 11 97 -20 59z"/>
<path d="M4797 10078 c-8 -18 -27 -85 -42 -148 -28 -116 -72 -262 -120 -398
-26 -73 -26 -96 0 -86 15 6 79 176 120 319 14 50 42 140 62 201 20 62 33 119
30 128 -10 26 -34 18 -50 -16z"/>
<path d="M4872 9858 c-15 -19 -64 -196 -57 -208 19 -30 55 21 55 78 0 7 9 31
21 53 21 42 22 80 3 86 -6 2 -16 -2 -22 -9z"/>
<path d="M2177 11283 c-10 -10 -8 -51 2 -57 5 -4 21 -2 35 4 19 7 26 17 26 35
0 21 -5 25 -28 25 -16 0 -32 -3 -35 -7z"/>
<path d="M6446 11301 c-3 -4 4 -17 15 -27 17 -16 22 -16 29 -4 7 10 4 19 -7
28 -20 14 -30 15 -37 3z"/>
<path d="M3447 10282 c-12 -19 -38 -129 -57 -237 -12 -66 -25 -136 -30 -155
-5 -19 -19 -75 -31 -125 -11 -49 -27 -103 -33 -120 -16 -37 -10 -55 15 -55 22
0 51 57 63 125 4 22 14 60 21 85 7 25 23 101 35 170 12 69 31 160 41 202 10
42 16 83 13 92 -6 16 -31 29 -37 18z"/>
<path d="M3685 10158 c-9 -25 -100 -378 -141 -540 -17 -71 -14 -98 10 -98 15
0 39 62 55 145 22 120 52 235 70 276 12 24 21 55 21 69 0 14 6 45 13 70 7 25
11 55 9 68 -4 23 -30 30 -37 10z"/>
<path d="M6544 10393 c-37 -75 -50 -109 -88 -218 -10 -27 -29 -72 -42 -100
-13 -27 -28 -75 -34 -105 -6 -30 -17 -66 -24 -80 -8 -14 -17 -44 -21 -67 -4
-23 -15 -53 -25 -66 -19 -23 -100 -180 -100 -192 0 -9 -46 -128 -71 -182 -10
-24 -19 -46 -19 -51 0 -5 -9 -27 -20 -49 -26 -55 -30 -106 -9 -111 11 -2 24
14 43 53 14 30 26 64 26 73 0 10 4 22 9 27 5 6 43 98 85 205 43 107 97 241
122 296 24 56 44 105 44 110 0 8 73 208 96 262 27 63 42 98 73 166 31 68 33
106 6 106 -7 0 -31 -35 -51 -77z"/>
<path d="M7027 10379 c-17 -43 -14 -64 9 -73 18 -7 44 42 44 84 0 47 -33 40
-53 -11z"/>
<path d="M6319 10253 c-41 -105 -63 -164 -75 -205 -8 -25 -21 -59 -29 -75 -8
-15 -15 -34 -15 -41 0 -7 -4 -20 -9 -30 -60 -110 -190 -497 -173 -514 18 -18
38 6 61 70 42 122 80 221 100 265 12 25 21 54 21 64 0 10 6 28 14 39 8 11 35
78 61 150 26 71 56 152 67 179 27 64 29 118 6 123 -12 2 -22 -6 -29 -25z"/>
<path d="M6985 10193 c-11 -3 -25 -9 -31 -14 -5 -4 -19 -6 -30 -3 -25 7 -52
-22 -37 -37 16 -16 158 35 147 52 -5 9 -16 10 -49 2z"/>
<path d="M1541 8887 c-6 -8 -17 -63 -26 -123 -15 -111 -18 -128 -35 -199 -22
-92 -64 -316 -85 -455 -8 -47 -28 -150 -45 -230 -17 -80 -36 -167 -41 -195 -8
-43 -26 -128 -79 -375 -12 -60 -27 -172 -40 -305 -14 -156 -14 -157 13 -153
16 2 24 12 29 38 13 68 29 166 33 215 9 88 14 119 25 170 5 28 14 75 19 105 5
30 14 69 20 85 5 17 19 84 31 150 11 66 27 152 34 190 38 184 93 483 102 550
4 28 10 59 14 70 4 11 4 29 0 40 -4 11 -3 23 2 26 5 3 13 21 18 40 4 19 22 87
39 152 17 65 31 135 31 156 0 53 -32 79 -59 48z"/>
<path d="M1142 8801 c-7 -4 -15 -25 -18 -47 -3 -21 -12 -54 -21 -72 -8 -18
-16 -51 -18 -75 -3 -37 -28 -186 -54 -327 -5 -25 -16 -97 -25 -160 -9 -63 -21
-138 -27 -166 -5 -28 -9 -55 -7 -60 1 -5 -3 -36 -9 -69 -7 -33 -17 -87 -23
-120 -6 -33 -13 -67 -14 -75 -2 -8 -11 -60 -21 -115 -9 -55 -26 -137 -37 -183
-11 -46 -17 -86 -15 -89 3 -2 -1 -28 -10 -56 -8 -29 -16 -74 -17 -102 -1 -27
-5 -57 -8 -65 -3 -8 -10 -42 -16 -75 -5 -33 -15 -78 -20 -100 -6 -22 -12 -97
-14 -167 -3 -106 -1 -125 10 -114 7 7 15 33 17 57 4 46 23 148 50 261 8 37 14
71 13 75 -1 4 6 44 16 88 19 89 40 192 55 275 9 50 22 115 67 350 18 88 19 99
34 210 6 47 18 114 27 150 9 36 18 87 20 115 3 27 9 58 14 67 5 9 9 30 9 46 0
16 7 46 15 65 8 20 15 53 15 74 0 21 5 54 10 73 6 19 15 82 21 139 5 57 14
111 18 120 12 22 -19 83 -37 72z m-86 -652 c3 -6 2 -15 -4 -21 -6 -6 -11 -2
-15 11 -5 22 7 29 19 10z"/>
<path d="M2011 8631 c-6 -10 -12 -39 -14 -63 -2 -23 -7 -51 -12 -60 -4 -10 -5
-24 -2 -32 3 -7 1 -18 -4 -23 -5 -5 -13 -42 -18 -83 -6 -41 -14 -95 -20 -120
-18 -84 -42 -215 -56 -300 -7 -47 -20 -114 -29 -149 -8 -36 -13 -68 -10 -73 3
-5 1 -14 -4 -21 -5 -7 -13 -43 -16 -82 -6 -67 -22 -169 -52 -340 -8 -44 -21
-124 -29 -179 -8 -54 -17 -102 -20 -106 -3 -4 -11 -52 -19 -106 -17 -110 -48
-274 -73 -374 -8 -36 -21 -96 -28 -135 -23 -128 -43 -229 -59 -295 -15 -65
-42 -207 -71 -370 -8 -47 -19 -110 -25 -140 -12 -57 -14 -69 -31 -185 -6 -38
-17 -101 -25 -140 -16 -75 -42 -326 -36 -344 5 -15 27 -14 41 2 6 8 12 54 15
103 2 49 15 148 30 219 14 72 34 193 45 270 11 77 29 185 39 240 11 55 25 134
32 175 6 41 15 91 20 110 20 82 90 411 100 475 7 39 16 84 21 101 5 17 14 55
19 85 16 92 61 332 70 379 20 98 31 167 35 205 5 55 91 544 110 630 9 39 18
85 20 102 5 49 27 147 36 158 6 9 20 84 35 190 9 63 28 131 45 165 15 28 17
43 9 69 -17 60 -49 80 -69 42z"/>
<path d="M7782 8377 c-15 -18 -63 -190 -69 -246 -8 -69 16 -47 47 44 15 44 37
104 49 134 12 30 20 60 17 67 -7 18 -30 18 -44 1z"/>
<path d="M7615 8342 c-16 -11 -35 -50 -35 -70 0 -10 -5 -23 -11 -29 -8 -8 -8
-13 0 -17 16 -10 13 -26 -4 -20 -10 4 -16 -3 -20 -23 -4 -15 -16 -52 -27 -81
-19 -47 -34 -106 -41 -152 -1 -9 7 -16 19 -18 19 -3 25 9 54 97 30 92 34 141
10 126 -5 -3 -10 -1 -10 4 0 10 13 14 25 9 7 -4 45 80 45 98 0 8 5 22 11 33
13 20 0 55 -16 43z"/>
<path d="M7052 8258 c-7 -7 -12 -20 -12 -30 0 -10 -7 -30 -16 -43 -9 -13 -13
-29 -9 -35 4 -6 0 -19 -9 -29 -15 -16 -91 -232 -145 -411 -12 -41 -29 -96 -37
-122 -9 -25 -14 -52 -13 -60 3 -13 -33 -132 -49 -165 -14 -28 -42 -119 -42
-137 0 -9 -8 -33 -19 -54 -10 -20 -21 -53 -24 -72 -10 -59 -15 -78 -26 -99 -6
-11 -11 -28 -11 -38 0 -10 -7 -31 -15 -47 -8 -15 -15 -36 -15 -44 0 -9 -11
-50 -24 -92 -40 -124 -86 -288 -86 -307 0 -10 -7 -27 -15 -37 -16 -21 -20 -56
-7 -56 11 0 59 111 67 155 10 64 75 274 235 765 28 85 49 159 46 165 -2 6 2
22 10 36 7 13 13 35 14 50 0 14 4 29 9 35 4 5 14 32 21 59 7 28 39 124 70 215
31 91 65 192 75 225 10 33 27 77 37 97 29 59 22 108 -10 76z"/>
<path d="M7164 8093 c-34 -73 -65 -159 -85 -238 -19 -77 -91 -299 -109 -340
-5 -11 -23 -69 -39 -130 -16 -60 -39 -137 -51 -170 -26 -72 -57 -180 -71 -252
-6 -29 -15 -53 -20 -53 -5 0 -9 -14 -9 -32 0 -17 -4 -45 -10 -62 -5 -17 -21
-68 -35 -113 -15 -45 -24 -87 -20 -93 3 -6 0 -13 -9 -16 -9 -3 -19 -31 -26
-75 -7 -38 -15 -71 -20 -74 -4 -3 -16 -31 -26 -63 -9 -31 -21 -62 -25 -68 -5
-6 -10 -19 -12 -30 -2 -10 -9 -32 -15 -47 -7 -16 -12 -33 -12 -39 0 -6 -7 -19
-15 -28 -18 -20 -24 -61 -8 -67 6 -2 14 5 18 16 3 10 19 36 36 57 16 21 36 52
43 68 45 102 86 211 86 229 0 24 17 81 35 117 7 14 20 55 29 93 10 37 24 86
32 110 8 23 29 96 45 162 16 66 38 147 49 180 20 64 44 142 80 265 12 41 30
98 40 125 10 28 26 72 34 98 9 26 25 66 36 87 11 22 20 54 20 72 0 18 9 57 20
86 11 29 20 61 20 72 0 10 9 34 19 52 10 18 22 50 25 71 4 21 10 45 13 53 4
10 -2 14 -20 14 -19 0 -29 -9 -43 -37z"/>
<path d="M7699 8067 c-18 -14 -109 -273 -145 -412 -13 -49 -44 -151 -69 -225
-45 -131 -64 -205 -70 -263 -5 -47 -15 -79 -30 -94 -8 -8 -15 -25 -15 -37 0
-12 -11 -51 -25 -86 -14 -36 -23 -70 -21 -76 2 -6 1 -15 -4 -20 -10 -11 -69
-208 -85 -286 -6 -31 9 -45 30 -28 14 11 21 30 44 120 7 25 17 59 22 75 6 17
23 80 38 140 27 107 34 132 72 245 10 30 29 98 44 150 14 52 40 136 57 185 17
50 43 140 58 200 31 121 69 244 80 260 4 6 13 35 20 65 7 30 16 65 21 78 10
24 2 28 -22 9z"/>
<path d="M7477 7906 c-3 -7 0 -19 6 -25 8 -8 5 -11 -11 -11 -14 0 -26 -9 -31
-22 -13 -33 -49 -158 -57 -193 -11 -54 -81 -290 -149 -503 -25 -79 -43 -147
-40 -152 3 -4 0 -10 -6 -12 -11 -4 -41 -101 -64 -208 -8 -36 -23 -99 -35 -140
-12 -41 -28 -100 -36 -130 -8 -30 -22 -76 -30 -103 -9 -27 -13 -59 -10 -73 6
-21 4 -25 -8 -21 -14 5 -37 -56 -75 -203 -18 -67 -28 -100 -46 -149 -10 -29
-13 -47 -6 -54 6 -6 5 -15 -5 -24 -8 -8 -14 -25 -14 -37 0 -12 -9 -32 -20 -44
-11 -12 -20 -29 -20 -39 0 -10 -11 -61 -24 -113 -13 -52 -24 -102 -24 -110 0
-8 -5 -28 -11 -45 -23 -66 -43 -141 -46 -173 -2 -18 -7 -38 -12 -45 -14 -17
-47 -156 -58 -238 -8 -64 -14 -98 -26 -142 -8 -32 -7 -43 7 -65 13 -20 19 -23
22 -12 3 8 13 27 24 42 12 18 22 57 28 115 9 87 14 109 65 333 14 63 29 133
32 155 3 22 10 43 15 46 11 7 56 187 65 259 3 30 9 57 13 60 7 6 44 111 66
190 20 71 40 137 53 175 43 124 101 317 101 338 0 14 13 63 30 110 16 47 37
116 45 153 8 38 29 112 45 164 16 52 50 165 75 250 26 85 61 205 80 265 46
153 115 409 115 429 0 20 -16 21 -23 2z m-467 -1637 c0 -5 -4 -9 -10 -9 -5 0
-10 7 -10 16 0 8 5 12 10 9 6 -3 10 -10 10 -16z"/>
<path d="M2184 7368 c-9 -14 -12 -30 -48 -263 -31 -201 -39 -245 -85 -450 -47
-207 -79 -374 -85 -435 -3 -36 -8 -96 -11 -135 -4 -38 -19 -135 -34 -215 -16
-80 -36 -190 -46 -245 -9 -55 -25 -145 -35 -200 -33 -180 -56 -326 -106 -655
-28 -187 -42 -286 -54 -380 -12 -97 -29 -200 -57 -340 -40 -201 -41 -208 -64
-370 -11 -85 -24 -182 -29 -215 -5 -33 -16 -116 -24 -185 -29 -233 -49 -354
-82 -510 -8 -41 -18 -88 -21 -105 -2 -16 -14 -79 -25 -140 -11 -60 -26 -155
-33 -210 -12 -97 -33 -203 -55 -275 -16 -55 -13 -80 10 -80 11 0 22 6 24 13 2
6 11 37 20 67 14 47 37 154 61 275 3 17 10 68 15 115 5 46 14 105 20 130 44
197 54 240 62 280 13 66 28 184 33 270 5 80 19 192 41 330 7 47 16 119 20 160
4 41 11 86 16 100 6 14 14 54 19 90 4 36 17 108 29 160 12 52 23 113 26 135 3
22 9 67 15 100 6 33 14 87 19 120 4 33 11 71 14 85 9 37 27 186 31 255 3 61
38 292 56 375 6 25 12 68 15 95 3 28 7 61 10 75 3 14 9 50 15 80 5 30 13 78
19 105 5 28 16 91 24 140 8 50 30 176 50 280 19 105 38 231 41 280 10 141 34
290 67 410 16 61 34 130 39 154 5 23 14 61 20 83 6 22 15 66 21 97 10 53 15
89 36 256 5 39 23 110 41 160 36 104 38 121 12 135 -26 13 -38 13 -47 -2z"/>
<path d="M2302 6677 c-23 -108 -55 -304 -82 -492 -7 -44 -27 -150 -45 -235
-19 -85 -46 -227 -60 -315 -14 -88 -47 -263 -72 -390 -56 -278 -68 -353 -88
-515 -18 -153 -18 -140 -1 -140 26 0 31 20 61 235 9 60 22 131 30 159 8 27 15
65 15 84 0 19 7 62 16 96 9 33 20 86 24 116 5 30 15 84 23 120 9 36 23 115 32
175 21 149 22 153 51 295 14 69 30 134 35 145 9 20 22 105 39 255 6 47 17 116
26 154 8 38 19 99 25 135 5 36 12 81 15 99 5 26 2 37 -13 52 -20 18 -20 17
-31 -33z"/>
<path d="M2536 6672 c-3 -5 -9 -33 -15 -63 -14 -84 -50 -277 -66 -354 -8 -38
-18 -95 -24 -125 -26 -152 -33 -188 -41 -225 -5 -22 -14 -74 -20 -115 -17
-112 -18 -116 -40 -230 -12 -58 -25 -119 -31 -136 -5 -17 -9 -42 -9 -55 0 -14
-20 -124 -45 -245 -25 -120 -43 -224 -41 -231 5 -12 36 -19 36 -8 0 2 7 29 15
60 8 31 21 100 30 153 19 115 62 350 76 410 5 23 19 102 30 175 30 190 46 283
64 362 8 39 22 107 30 153 9 46 20 94 25 108 6 14 10 38 10 52 0 15 7 52 15
82 29 108 46 201 40 221 -6 19 -30 26 -39 11z"/>
<path d="M6452 6321 c-7 -21 -12 -54 -12 -72 0 -19 -6 -44 -14 -55 -8 -11 -16
-33 -19 -49 -3 -17 -10 -43 -17 -60 -12 -29 -84 -301 -101 -380 -27 -127 -40
-178 -64 -245 -55 -155 -58 -168 -50 -186 6 -15 12 -7 35 41 15 33 32 78 38
100 21 75 41 150 55 210 8 33 25 96 37 140 13 44 28 107 35 140 7 33 18 74 24
90 6 17 18 64 25 105 8 41 24 108 35 149 12 41 21 83 21 93 0 31 -16 20 -28
-21z"/>
<path d="M5243 5688 c-35 -75 -65 -228 -44 -228 9 0 23 40 50 146 6 23 9 49 5
57 -3 8 -1 18 5 22 13 7 15 25 3 25 -5 0 -13 -10 -19 -22z"/>
<path d="M4770 5188 c0 -2 -7 -35 -15 -74 -8 -39 -19 -104 -25 -144 -6 -40
-24 -129 -40 -199 -17 -69 -35 -146 -40 -171 -5 -25 -21 -93 -34 -151 -14 -58
-37 -164 -51 -234 -14 -71 -31 -132 -37 -136 -9 -6 -9 -11 1 -23 7 -8 10 -24
6 -35 -5 -18 10 -39 21 -28 8 8 35 112 54 212 43 225 48 252 60 295 14 50 45
195 60 281 6 31 21 99 34 150 51 206 56 259 21 259 -8 0 -15 -1 -15 -2z"/>
<path d="M4679 5123 c-15 -39 -59 -241 -59 -270 0 -38 17 -26 35 25 30 82 34
96 50 161 16 64 14 111 -5 111 -6 0 -15 -12 -21 -27z"/>
<path d="M4903 5088 c-13 -21 -33 -82 -33 -102 0 -11 -4 -33 -9 -50 -5 -17
-14 -60 -20 -96 -37 -222 -100 -523 -128 -609 -8 -24 -27 -102 -43 -175 -15
-72 -38 -170 -50 -218 -13 -47 -20 -93 -17 -102 7 -19 46 -21 51 -3 8 26 37
168 62 302 14 77 39 192 56 255 38 145 76 316 88 400 11 73 47 230 72 308 11
36 3 102 -12 102 -5 0 -12 -6 -17 -12z"/>
<path d="M5025 4950 c-14 -23 -59 -295 -70 -420 -4 -41 -12 -100 -20 -130 -7
-30 -16 -80 -19 -110 -4 -30 -18 -116 -31 -190 -13 -74 -31 -184 -40 -245 -15
-106 -44 -256 -66 -340 -5 -22 -19 -92 -29 -155 -10 -63 -26 -149 -35 -190 -8
-41 -13 -81 -10 -89 3 -7 2 -19 -3 -25 -12 -15 -26 -91 -57 -301 -14 -99 -30
-202 -35 -230 -5 -27 -14 -84 -20 -125 -7 -41 -20 -109 -30 -150 -10 -41 -20
-109 -24 -151 -3 -42 -8 -83 -12 -93 -4 -11 -1 -16 10 -16 24 0 44 49 51 130
4 41 12 98 20 125 26 99 88 455 105 600 6 50 12 99 14 110 2 11 7 45 11 75 4
30 11 73 17 95 6 22 16 76 23 120 16 97 34 189 70 355 23 109 46 263 60 410 3
25 11 79 19 120 19 98 44 260 61 385 7 55 19 129 28 165 8 36 20 99 27 140 6
41 13 82 16 91 2 8 -2 23 -9 34 -11 14 -16 15 -22 5z"/>
<path d="M2120 4398 c-12 -45 -26 -109 -31 -143 -8 -58 -36 -218 -59 -340 -7
-33 -27 -127 -46 -210 -30 -129 -46 -221 -93 -530 -5 -27 -15 -102 -24 -165
-10 -63 -21 -135 -27 -160 -9 -43 -23 -131 -35 -230 -5 -44 -25 -171 -45 -295
-15 -86 -38 -197 -62 -290 -11 -44 -26 -114 -33 -155 -7 -41 -22 -118 -34
-170 -11 -52 -21 -106 -21 -119 0 -13 -9 -61 -20 -107 -15 -61 -21 -124 -23
-227 -2 -149 12 -200 25 -92 19 151 30 234 38 280 5 28 14 77 20 110 52 302
89 476 109 514 6 11 11 35 11 53 1 18 10 74 20 123 18 83 33 167 61 350 6 39
15 97 20 130 5 33 12 83 15 110 3 28 10 58 15 67 5 9 9 36 9 60 0 24 5 61 10
83 6 22 15 85 21 140 15 145 44 310 83 470 19 77 41 176 50 220 9 44 21 99 26
123 6 23 10 62 10 87 0 24 4 46 9 49 4 3 11 25 14 48 4 24 11 66 17 93 31 144
31 205 0 205 -4 0 -18 -37 -30 -82z"/>
<path d="M7160 2332 c-58 -4 -73 -17 -68 -59 3 -22 1 -30 -6 -23 -15 15 -28
12 -24 -7 5 -27 123 -44 228 -31 47 5 92 13 100 18 25 12 17 43 -19 67 -39 27
-56 29 -47 8 3 -8 1 -15 -4 -15 -6 0 -10 6 -10 14 0 16 -53 31 -70 21 -6 -4
-16 -3 -23 2 -7 4 -32 7 -57 5z m143 -59 c18 -11 -34 -24 -69 -17 -34 6 -41
14 -26 28 7 8 78 0 95 -11z m47 7 c0 -5 -5 -10 -11 -10 -5 0 -7 5 -4 10 3 6 8
10 11 10 2 0 4 -4 4 -10z m-200 -24 c0 -3 -4 -8 -10 -11 -5 -3 -10 -1 -10 4 0
6 5 11 10 11 6 0 10 -2 10 -4z"/>
<path d="M6966 2183 c-4 -11 -10 -13 -14 -7 -4 5 -39 11 -79 13 -73 2 -98 -9
-72 -33 17 -15 83 -42 124 -51 28 -6 29 -7 11 -20 -10 -8 -23 -12 -29 -8 -5 3
-14 -1 -19 -8 -7 -11 -11 -11 -15 -1 -2 6 -9 10 -14 7 -4 -3 -45 -10 -91 -15
-87 -10 -123 -29 -100 -52 10 -10 66 -13 210 -14 l197 -1 0 -24 c0 -16 -5 -23
-14 -21 -28 6 -219 4 -250 -3 -17 -4 -29 -10 -26 -15 3 -5 -3 -11 -12 -13 -17
-4 -17 -5 0 -6 9 0 17 -5 17 -10 0 -5 14 -13 32 -16 18 -4 40 -12 49 -18 18
-11 49 -3 49 13 0 5 -10 10 -22 10 -19 0 -20 2 -8 13 11 10 36 12 97 8 45 -3
83 -8 86 -11 6 -7 20 -269 21 -390 l1 -95 31 -3 c20 -2 36 3 47 16 16 17 16
33 7 178 -5 87 -12 184 -15 214 -8 79 -6 81 100 64 50 -8 117 -18 150 -23 33
-5 83 -14 110 -19 28 -6 100 -13 161 -17 98 -7 116 -5 143 11 17 10 33 25 36
33 9 23 -28 65 -63 72 -18 4 -38 11 -44 16 -21 16 -116 35 -153 31 -19 -2 -35
-1 -35 3 0 4 -25 20 -56 35 -43 21 -58 24 -64 15 -5 -8 -16 -11 -30 -6 -18 6
-20 9 -9 16 8 5 10 9 6 9 -5 0 -22 -14 -39 -31 -22 -21 -34 -27 -41 -20 -6 6
-46 11 -89 11 -47 0 -78 4 -78 10 0 20 33 23 112 10 43 -7 82 -10 85 -6 3 3
-2 14 -11 25 -25 27 -10 29 115 12 111 -14 137 -10 119 18 -11 19 -174 29
-184 12 -10 -16 -26 -14 -26 4 0 12 -4 13 -19 6 -10 -6 -21 -8 -24 -5 -3 4
-30 8 -59 10 -81 6 -118 14 -118 25 0 6 40 8 105 5 98 -4 105 -3 105 15 0 16
-8 19 -47 21 -27 1 -59 2 -73 3 -14 1 -28 -6 -32 -14 -5 -13 -7 -13 -7 3 -1
15 -6 17 -33 12 -40 -8 -37 -8 -120 -2 -37 2 -71 7 -76 10 -6 3 -13 -2 -16
-11z m97 -40 c4 -2 7 -12 6 -21 0 -11 -3 -12 -6 -4 -2 6 -15 12 -28 12 -37 0
-85 12 -85 21 0 8 98 2 113 -8z m-63 -53 c0 -5 -6 -10 -14 -10 -8 0 -18 5 -21
10 -3 6 3 10 14 10 12 0 21 -4 21 -10z m323 -17 c-7 -2 -19 -2 -25 0 -7 3 -2
5 12 5 14 0 19 -2 13 -5z m-256 -41 c4 -9 -22 -12 -111 -11 -64 0 -116 5 -116
9 0 13 14 15 122 15 73 0 102 -4 105 -13z m446 -59 c6 -3 32 -8 59 -10 60 -4
195 -38 215 -54 12 -11 12 -15 -2 -28 -12 -12 -41 -16 -128 -18 -62 -1 -121 2
-132 7 -19 8 -256 47 -320 52 -33 3 -45 29 -24 54 10 12 38 14 167 9 85 -3
160 -9 165 -12z m-688 -53 c3 -5 16 -11 28 -11 17 -1 18 -2 5 -6 -10 -2 -28 3
-40 11 -12 9 -17 16 -11 16 7 0 15 -4 18 -10z"/>
<path d="M7332 1788 c-31 -31 5 -58 78 -58 76 0 88 21 28 50 -47 23 -88 26
-106 8z"/>
</g>
</svg>
