<?xml version="1.0" standalone="no"?>
<!DOCTYPE svg PUBLIC "-//W3C//DTD SVG 20010904//EN"
 "http://www.w3.org/TR/2001/REC-SVG-20010904/DTD/svg10.dtd">
<svg version="1.0" xmlns="http://www.w3.org/2000/svg"
 width="857.000000pt" height="1444.000000pt" viewBox="0 0 857.000000 1444.000000"
 preserveAspectRatio="xMidYMid meet">
<metadata>
Created by potrace 1.16, written by Peter Selinger 2001-2019
</metadata>
<g transform="translate(0.000000,1444.000000) scale(0.100000,-0.100000)"
fill="#000000" stroke="none">
<path d="M3160 13850 c0 -6 -17 -10 -37 -9 -110 3 -1793 -12 -1878 -17 -55 -3
-179 -7 -275 -10 -96 -2 -220 -6 -274 -8 -55 -2 -111 0 -124 5 -18 7 -31 5
-49 -7 -24 -15 -25 -18 -18 -102 3 -48 8 -123 9 -167 2 -44 7 -100 11 -125 4
-25 2 -85 -3 -134 -8 -69 -7 -98 3 -127 10 -27 12 -87 10 -231 -3 -106 -5
-197 -5 -203 -1 -5 3 -71 9 -145 5 -74 8 -137 5 -141 -2 -4 -4 -76 -5 -160 0
-88 -4 -158 -10 -166 -7 -8 -7 -18 1 -32 12 -24 15 -401 4 -576 -4 -60 -7
-130 -6 -155 2 -40 4 -166 4 -205 -1 -107 -1 -140 0 -200 1 -38 2 -227 2 -420
1 -192 4 -355 9 -362 4 -6 3 -23 -3 -38 -15 -40 -10 -697 6 -820 10 -75 14
-249 13 -500 -2 -225 -2 -656 0 -2710 0 -341 1 -642 3 -670 6 -100 1 -934 -6
-1075 -10 -190 -8 -308 9 -500 8 -88 8 -916 1 -929 -4 -5 -6 -70 -6 -143 1
-73 3 -576 4 -1118 1 -787 -1 -990 -11 -1010 -15 -28 -17 -69 -4 -88 8 -14 14
-14 526 -13 121 0 258 1 305 0 342 0 665 2 668 6 3 2 18 -3 34 -11 28 -15 31
-14 45 5 15 23 55 27 97 11 14 -5 27 -6 30 -2 3 5 26 6 53 3 26 -4 93 -2 147
2 65 6 107 5 122 -2 14 -6 152 -10 356 -11 2186 -8 2255 -9 2353 -19 6 -1 96
-1 200 0 186 2 1298 -1 1485 -3 129 -1 149 -1 195 1 22 1 69 2 105 2 36 0 90
0 120 1 30 0 163 0 295 -1 132 0 242 3 246 7 3 4 11 33 18 66 14 64 17 637 5
951 -3 94 -4 181 -2 195 5 40 1 980 -7 1480 -4 250 -6 464 -5 475 4 70 -1 176
-9 199 -6 14 -18 26 -26 26 -10 0 -15 7 -13 17 2 10 12 18 23 18 19 0 20 9 24
225 2 124 4 254 4 290 0 36 0 153 0 260 0 107 0 218 0 245 -1 28 -1 88 0 135
0 47 -1 103 -3 125 -1 22 -2 49 -2 60 2 102 0 443 -4 670 -3 154 -6 298 -6
320 1 22 1 193 2 380 1 187 5 349 10 360 4 11 4 28 -1 37 -13 23 -20 896 -24
2658 -3 1357 -10 2205 -20 2450 -2 47 -6 193 -9 325 -4 132 -9 303 -12 380 -2
77 -7 235 -10 350 -11 484 -14 555 -23 573 -9 17 -25 18 -212 16 -120 -2 -210
1 -221 7 -23 12 -108 14 -478 12 -157 -1 -341 -3 -410 -3 -69 0 -141 -1 -160
-1 -19 0 -143 0 -275 0 -222 0 -442 -4 -625 -10 -41 -1 -133 1 -205 5 -155 9
-139 9 -295 8 -195 -2 -672 -4 -925 -4 -126 -1 -304 2 -395 5 -205 8 -173 7
-317 4 -93 -2 -124 1 -127 10 -6 15 -36 18 -36 3z m-115 -122 c7 -20 21 -459
29 -883 3 -137 10 -385 15 -550 6 -165 13 -595 17 -955 4 -360 8 -709 10 -775
4 -230 15 -530 19 -543 3 -6 5 -199 6 -428 0 -319 -2 -419 -12 -424 -6 -5
-307 -9 -668 -10 -639 -1 -1381 -7 -1569 -13 -102 -2 -118 5 -104 44 9 24 9
24 188 25 99 1 226 4 284 8 206 14 666 4 700 -14 12 -7 75 -8 172 -4 208 8
365 12 478 12 52 0 147 0 210 1 153 0 220 8 220 27 0 8 7 29 16 46 12 23 13
36 5 57 -6 14 -13 127 -16 251 -4 124 -9 335 -13 470 -3 135 -5 365 -4 513 2
167 -1 282 -8 307 -6 22 -11 127 -10 237 0 161 3 199 15 213 20 22 19 42 -4
62 -21 18 -38 114 -26 145 3 10 6 123 6 251 -1 190 -4 239 -17 264 -10 19 -13
40 -8 61 3 17 6 91 5 164 0 77 3 135 9 138 6 3 10 15 10 26 0 16 -7 19 -54 19
-49 0 -55 2 -58 23 -3 21 -8 22 -106 25 l-103 3 3 72 c3 66 5 72 23 69 11 -2
75 -5 142 -6 114 -3 123 -2 129 16 11 36 -10 43 -127 39 -120 -3 -139 3 -139
48 0 15 -4 31 -10 37 -13 13 1 126 18 132 8 2 12 -9 12 -36 0 -61 17 -98 53
-114 37 -15 132 -14 152 2 27 22 41 249 18 288 -11 18 -11 26 0 45 12 18 12
43 1 157 -15 164 -18 442 -4 456 16 16 90 17 95 2z m451 -14 c11 -13 17 -118
29 -489 3 -66 9 -248 14 -405 6 -157 12 -391 15 -520 3 -129 8 -329 11 -445 3
-115 7 -329 10 -475 3 -146 7 -357 10 -470 2 -113 7 -317 10 -455 3 -137 7
-306 10 -375 20 -519 38 -2321 23 -2335 -15 -16 -26 11 -52 122 -15 65 -32
129 -38 143 -6 14 -17 54 -24 90 -7 36 -22 99 -34 140 -12 41 -32 116 -45 165
-12 50 -35 133 -50 185 -15 52 -33 120 -41 150 -29 125 -55 220 -69 253 -8 20
-15 47 -15 60 0 13 -13 41 -29 63 l-29 39 -6 455 c-12 942 -16 1181 -21 1400
-7 313 -15 730 -20 1090 -11 722 -17 936 -31 1167 -4 57 -7 183 -7 280 l-1
178 30 7 c16 4 99 5 184 2 121 -4 157 -8 166 -20z m4256 8 c4 -4 10 -39 13
-78 8 -143 17 -633 10 -653 -6 -20 -13 -20 -338 -21 -183 -1 -345 -1 -362 -1
-16 0 -73 0 -125 -1 -52 0 -140 0 -195 0 -611 3 -1705 -5 -1713 -12 -2 -3 -17
1 -32 9 -18 10 -30 11 -37 4 -11 -11 -460 -16 -720 -8 -99 3 -135 1 -145 -9
-10 -10 -12 -122 -11 -545 5 -916 13 -1935 18 -2112 12 -437 16 -555 19 -615
3 -36 7 -191 11 -345 11 -536 25 -1101 30 -1240 3 -77 8 -315 11 -530 3 -214
7 -484 9 -600 3 -115 5 -291 6 -390 1 -99 4 -186 6 -193 4 -10 62 -13 282 -11
327 2 395 -7 330 -41 -11 -6 -28 -30 -38 -53 -10 -23 -30 -67 -44 -97 -29 -63
-59 -166 -77 -259 -6 -36 -20 -82 -31 -103 -10 -20 -19 -53 -19 -73 0 -29 -6
-39 -32 -55 -18 -11 -44 -23 -58 -26 -14 -3 -33 -9 -42 -15 -10 -5 -24 -9 -33
-9 -8 0 -70 -18 -137 -39 -221 -70 -262 -78 -313 -61 -33 11 -39 10 -75 -15
-34 -24 -44 -26 -102 -21 -34 3 -94 8 -133 11 -38 3 -113 10 -165 16 -189 20
-383 26 -442 14 -31 -6 -74 -10 -94 -8 -21 1 -44 -2 -51 -9 -9 -7 -17 -7 -27
1 -8 7 -25 9 -38 7 -12 -3 -77 -8 -143 -11 -293 -13 -366 -23 -409 -56 -14
-11 -27 -28 -31 -38 -8 -26 -218 -60 -279 -44 -22 6 -56 9 -74 6 -18 -3 -32
-1 -32 5 0 14 -132 92 -156 92 -11 0 -44 -7 -73 -16 -42 -12 -58 -24 -82 -57
-31 -45 -134 -119 -171 -123 -100 -13 -178 -26 -205 -35 -17 -5 -44 -12 -59
-15 -15 -3 -31 -7 -36 -10 -18 -12 -122 -26 -273 -39 -88 -8 -172 -17 -187
-20 l-26 -7 -7 109 c-8 145 -10 244 -6 323 3 69 4 293 3 795 -1 171 -1 560 -2
865 -1 1590 0 1809 10 1815 18 11 964 24 1915 26 l630 1 12 -24 c13 -26 37
-109 51 -178 19 -89 55 -227 84 -325 34 -112 54 -184 73 -265 7 -30 18 -72 24
-92 22 -75 66 -235 105 -382 21 -78 24 -101 14 -108 -7 -5 -87 -7 -178 -6 -91
2 -313 0 -495 -5 -650 -15 -962 -18 -1695 -18 -146 0 -276 -1 -290 -3 -14 -2
-69 -4 -123 -5 -96 -1 -98 -2 -95 -23 l3 -23 840 1 c970 2 1061 2 1095 4 14 0
154 3 312 5 158 2 382 5 499 7 163 2 213 0 217 -10 2 -6 -1 -12 -7 -12 -21 0
-43 -61 -37 -104 3 -22 8 -60 10 -84 3 -38 10 -49 54 -88 29 -25 52 -52 52
-59 0 -15 54 -45 79 -45 9 0 23 6 31 13 31 25 130 146 130 159 0 7 9 28 20 46
28 45 26 59 -20 125 -22 33 -42 73 -44 90 -3 18 -8 282 -11 587 -3 305 -7 668
-10 805 -3 138 -7 376 -10 530 -4 258 -8 407 -20 900 -2 99 -7 293 -10 430 -3
138 -8 297 -10 355 -3 58 -7 251 -11 430 -3 179 -7 397 -9 485 -2 88 -6 286
-9 440 -3 154 -8 315 -11 358 -5 54 -3 83 5 93 10 12 80 14 439 13 234 0 434
3 444 6 12 5 17 16 15 33 -3 22 -10 27 -57 38 -43 9 -66 9 -119 -2 -43 -9 -70
-10 -76 -4 -6 6 1 36 19 82 16 40 34 88 41 106 7 18 20 35 29 38 8 3 15 12 15
19 0 24 35 42 89 43 60 1 83 15 79 46 -3 18 -10 21 -49 22 -26 0 -61 7 -78 14
-24 9 -34 10 -45 1 -8 -7 -34 -12 -58 -12 -92 1 -177 -4 -183 -10 -3 -4 -23
-5 -44 -2 -20 3 -54 0 -76 -6 -28 -7 -42 -7 -52 1 -8 7 -76 11 -181 13 l-167
1 -3 92 -3 91 268 -6 c147 -3 295 -4 328 -4 33 1 141 1 240 0 153 -1 734 1
860 3 22 0 69 0 105 -2 36 -1 115 -1 175 -1 61 1 225 1 365 0 489 -2 1286 4
1360 10 100 8 271 4 282 -7z m-6094 -15 c2 -10 -3 -17 -11 -17 -16 0 -30 24
-19 34 10 10 27 1 30 -17z m473 6 c6 -6 9 -26 7 -44 l-3 -34 -75 -2 c-41 -1
-81 3 -87 9 -13 10 -18 70 -7 80 9 10 155 1 165 -9z m490 -23 c10 -48 -3 -58
-48 -34 -27 15 -37 26 -35 40 5 25 21 35 52 32 19 -2 26 -11 31 -38z m153 32
c4 -7 -59 -82 -69 -82 -8 0 -6 76 2 83 9 10 61 9 67 -1z m920 -69 c10 -82 5
-103 -24 -103 -19 0 -20 6 -20 91 0 81 2 90 18 87 13 -2 19 -19 26 -75z
m-2914 57 c19 -12 3 -29 -33 -35 -32 -6 -46 14 -22 32 22 15 34 16 55 3z m460
0 c0 -11 -51 -60 -62 -60 -15 0 -8 30 12 50 21 21 50 27 50 10z m130 -10 c0
-5 -5 -10 -11 -10 -5 0 -7 5 -4 10 3 6 8 10 11 10 2 0 4 -4 4 -10z m902 -25
c23 -21 25 -28 18 -61 -21 -91 -70 -80 -70 16 0 78 9 85 52 45z m-732 -3 c40
-25 110 -90 110 -103 0 -19 -69 -39 -135 -39 -37 0 -76 -5 -87 -11 -32 -17
-45 3 -26 43 9 18 23 50 32 71 14 32 40 54 68 56 4 1 21 -7 38 -17z m1337 -89
c3 -87 1 -105 -14 -122 -10 -11 -24 -27 -31 -36 -21 -25 -32 -8 -32 53 -1 34
-7 65 -15 76 -24 31 -18 58 21 99 57 60 67 50 71 -70z m712 14 c-1 -71 -2 -76
-10 -42 -11 58 -11 137 1 130 6 -3 9 -43 9 -88z m-1126 48 c-5 -69 -18 -126
-29 -136 -15 -12 -124 -29 -124 -19 0 4 9 15 19 24 19 18 41 86 41 130 0 29
12 34 59 26 28 -4 36 -10 34 -25z m-1558 -5 c7 -23 -45 -80 -74 -80 -10 0 -24
-6 -30 -14 -6 -8 -22 -16 -36 -18 -26 -5 -35 7 -35 47 0 20 8 26 43 36 23 7
53 21 67 30 33 24 57 24 65 -1z m187 -14 c13 -20 -4 -27 -53 -22 -57 4 -64 9
-56 30 5 13 16 14 54 9 26 -3 51 -11 55 -17z m-433 -65 c16 -68 9 -88 -28 -76
-18 6 -21 14 -21 69 0 34 3 66 7 70 16 15 29 -4 42 -63z m655 46 c13 -10 16
-20 11 -36 -6 -20 -12 -23 -42 -18 -44 8 -47 10 -39 42 7 28 40 34 70 12z
m666 -35 c39 -19 51 -60 15 -54 -11 2 -31 4 -45 5 -25 2 -37 25 -26 53 7 18
13 17 56 -4z m601 8 c13 -7 19 -21 19 -43 0 -37 23 -107 47 -143 14 -22 16
-55 15 -214 0 -104 -5 -197 -10 -207 -5 -10 -8 -60 -5 -112 7 -132 3 -141 -52
-141 l-46 0 14 28 c10 20 14 87 16 259 l2 232 -48 24 c-68 34 -154 41 -233 18
-68 -19 -76 -26 -85 -81 -3 -19 -9 -41 -13 -47 -10 -16 -96 -33 -112 -23 -7 4
-14 34 -16 67 -1 32 -8 71 -13 86 -6 15 -13 55 -17 90 -5 51 -3 65 10 76 10 8
16 29 16 53 0 47 22 60 48 27 12 -14 34 -24 63 -28 33 -5 46 -12 55 -30 16
-32 33 -40 69 -36 17 2 63 7 104 10 90 9 111 26 111 88 0 59 16 71 61 47z
m141 -50 c31 -61 19 -140 -16 -111 -19 16 -50 115 -43 135 11 27 40 15 59 -24z
m-1779 -20 c3 -11 3 -39 1 -62 -10 -91 -26 -195 -32 -205 -9 -14 -67 -43 -86
-43 -27 0 -29 39 -3 88 13 26 28 70 31 97 6 44 4 53 -13 69 -16 15 -18 22 -10
33 6 7 19 13 28 13 9 0 27 7 41 14 34 19 37 19 43 -4z m783 -75 c0 -41 -4 -75
-8 -75 -5 0 -8 -11 -8 -24 0 -28 -23 -40 -49 -26 -19 10 -36 106 -24 137 5 13
69 61 84 62 4 1 6 -33 5 -74z m-637 56 c16 -10 6 -31 -14 -31 -17 0 -28 17
-20 30 8 12 16 12 34 1z m136 -1 c3 -5 13 -10 22 -10 29 0 142 -59 153 -80 9
-17 6 -38 -16 -103 -32 -96 -49 -121 -74 -107 -10 5 -20 7 -23 4 -3 -4 -28 -1
-56 6 l-49 12 -4 101 c-5 148 0 187 22 187 11 0 22 -4 25 -10z m2378 -154 c3
-117 -2 -149 -17 -110 -3 9 -6 73 -6 142 1 166 18 141 23 -32z m96 130 c6 -7
13 -69 16 -145 3 -109 1 -133 -11 -138 -30 -11 -41 16 -47 120 -9 151 5 208
42 163z m168 -132 l1 -142 -29 -4 c-52 -8 -58 5 -64 144 -4 70 -4 132 0 138 4
6 26 10 48 8 l42 -3 2 -141z m259 90 c87 -126 140 -224 125 -233 -6 -4 -69 -8
-139 -9 l-128 -2 1 138 c0 75 4 143 8 150 5 6 28 12 51 12 41 0 45 -3 82 -56z
m307 50 c3 -4 -5 -23 -18 -43 -14 -19 -25 -43 -25 -53 0 -9 -4 -27 -9 -40 -5
-13 -12 -35 -15 -50 -6 -26 -36 -40 -36 -17 0 6 -8 18 -19 27 -10 10 -36 50
-57 90 -33 62 -36 74 -24 82 17 11 193 14 203 4z m-2904 -20 c25 -5 33 -13 41
-45 12 -44 4 -89 -16 -89 -15 0 -94 95 -94 114 0 26 15 30 69 20z m454 -6 c16
1 17 -8 15 -96 l-3 -97 -35 0 -35 0 -3 89 c-3 103 1 121 26 111 9 -4 25 -7 35
-7z m-1245 -60 c32 -32 5 -67 -57 -73 -47 -5 -50 3 -20 51 22 36 54 45 77 22z
m376 -16 c3 -9 3 -33 1 -52 -1 -19 -3 -41 -4 -47 -2 -19 -85 -17 -102 3 -10
13 -10 22 0 52 19 52 26 59 65 60 25 1 36 -4 40 -16z m1784 -127 c2 -69 1
-125 -2 -125 -3 0 -44 38 -91 85 -79 78 -85 88 -85 125 0 28 4 40 14 40 8 0
18 -4 21 -10 11 -17 66 -11 93 10 18 15 29 17 36 10 6 -6 12 -64 14 -135z
m-1414 23 c16 -63 1 -95 -36 -76 -20 10 -23 34 -8 72 12 32 36 34 44 4z m132
-19 c21 -13 46 -19 66 -17 l33 3 1 -102 c1 -57 4 -110 8 -118 3 -10 -5 -20
-24 -30 -33 -17 -70 -20 -70 -5 0 5 -14 26 -32 46 -31 36 -32 39 -34 140 -1
66 2 104 8 104 6 0 26 -9 44 -21z m-932 -63 c25 -30 46 -60 46 -66 0 -7 -13
-29 -28 -49 -16 -20 -37 -58 -47 -84 -16 -42 -20 -46 -33 -34 -18 19 -28 253
-11 274 17 20 23 17 73 -41z m1818 26 c8 -8 13 -58 13 -150 1 -75 3 -143 6
-151 3 -12 -20 -15 -127 -18 l-132 -3 -5 58 c-3 31 -8 72 -12 91 -3 24 1 47
15 73 11 21 20 49 20 61 0 26 10 42 30 50 25 11 179 2 192 -11z m-1458 -27
c20 -8 36 -13 36 -10 0 3 9 1 20 -5 14 -8 20 -21 20 -46 0 -27 5 -37 24 -45
31 -14 69 -66 62 -84 -3 -8 -1 -28 5 -44 17 -47 -25 -123 -106 -193 -36 -32
-77 -61 -91 -64 -32 -8 -76 11 -109 47 -44 51 -75 15 -35 -41 14 -20 37 -34
68 -43 45 -14 47 -15 47 -53 0 -30 -5 -41 -25 -52 -23 -13 -30 -12 -73 7 -28
13 -53 32 -59 46 -6 14 -14 25 -18 25 -4 0 -19 24 -33 54 -14 30 -35 57 -45
60 -16 5 -20 20 -25 86 -6 80 -6 80 39 170 25 49 50 90 55 90 5 0 26 16 46 35
20 19 41 35 46 35 5 0 20 9 34 20 31 24 68 25 117 5z m967 8 c7 -37 3 -249 -4
-255 -6 -3 -20 -2 -33 2 -12 5 -31 6 -43 3 -20 -5 -21 -2 -21 114 0 79 4 123
12 131 13 13 87 17 89 5z m751 -36 c14 -12 54 -54 87 -94 50 -59 61 -78 61
-107 0 -43 -17 -47 -68 -16 -18 11 -38 20 -45 20 -6 1 -24 11 -38 23 -24 20
-27 31 -33 110 -3 48 -3 87 1 87 5 0 20 -10 35 -23z m-1462 -70 c0 -12 -5 -29
-10 -37 -9 -13 -11 -13 -20 0 -13 20 -13 43 2 58 15 15 28 6 28 -21z m2421
-12 c4 -22 10 -218 14 -435 4 -217 8 -431 10 -475 1 -44 5 -264 8 -490 4 -225
9 -471 12 -545 2 -74 7 -297 10 -495 3 -198 7 -436 10 -530 3 -93 8 -309 11
-480 3 -170 7 -404 9 -520 6 -351 7 -1387 1 -1393 -19 -18 -20 -4 -31 673 -10
644 -15 868 -20 995 -2 69 -7 276 -11 460 -3 184 -7 378 -9 430 -10 259 -25
743 -30 975 -3 143 -7 303 -10 355 -3 52 -7 293 -10 535 -4 242 -8 474 -11
515 -6 119 -6 449 1 461 15 23 40 3 46 -36z m-2229 -30 c9 -54 2 -122 -13
-131 -19 -11 -119 8 -128 25 -10 18 14 101 41 143 14 22 22 24 55 19 37 -6 38
-8 45 -56z m2121 -57 c3 -67 2 -128 -2 -136 -6 -11 -9 -9 -14 9 -9 40 -8 249
1 249 5 0 12 -55 15 -122z m-1438 82 c3 -5 8 -31 12 -57 l5 -48 -56 -1 c-46
-1 -56 2 -61 17 -8 25 4 82 19 91 16 11 74 10 81 -2z m-569 -185 c23 -89 15
-114 -28 -82 -16 13 -22 44 -20 105 3 52 32 38 48 -23z m593 -5 c0 -25 -2 -69
-5 -97 -5 -47 -8 -53 -29 -53 -39 0 -66 50 -68 123 l-2 62 35 3 c19 2 39 8 45
13 15 15 24 -3 24 -51z m-464 -48 c0 -70 -2 -77 -20 -77 -15 0 -21 9 -26 40
-4 22 -12 52 -18 66 -10 29 0 52 29 62 26 8 34 -11 35 -91z m5445 85 c195 2
360 3 365 4 6 0 58 0 117 -1 l106 -1 11 -47 c6 -26 13 -141 16 -256 3 -115 7
-212 9 -215 15 -25 19 -811 15 -2771 -1 -283 2 -951 6 -1485 4 -533 8 -1133 9
-1332 l1 -362 -1070 -5 c-1366 -6 -1506 -7 -1527 -18 -13 -6 -20 -2 -30 16 -7
13 -33 54 -57 90 l-44 66 -49 0 c-55 0 -88 -13 -88 -36 0 -18 -25 -60 -58 -96
-33 -36 -53 -38 -370 -41 -209 -2 -266 0 -274 11 -8 9 -12 111 -14 305 -2 161
-5 337 -8 392 -3 55 -8 280 -11 500 -3 220 -8 477 -11 570 -3 94 -7 287 -9
430 -7 452 -16 799 -20 830 -2 17 -7 190 -11 385 -3 195 -7 425 -9 510 -2 85
-6 549 -9 1030 -4 481 -8 1011 -10 1178 -3 249 -2 305 10 316 11 12 72 14 321
15 833 1 2262 16 2270 25 2 2 18 1 36 -3 18 -3 192 -5 387 -4z m-5167 -39 c11
-9 19 -34 23 -74 l7 -62 -30 -6 c-16 -4 -41 -2 -56 3 -24 9 -26 14 -26 80 l0
71 33 0 c18 0 40 -6 49 -12z m859 -43 c2 -5 -12 -11 -30 -13 -34 -3 -50 14
-38 44 5 14 9 14 35 -3 16 -10 31 -22 33 -28z m-2232 -22 c0 -21 -6 -36 -15
-40 -22 -8 -24 -4 -18 50 5 38 8 45 19 36 8 -6 14 -27 14 -46z m823 25 c18 1
46 -43 34 -54 -3 -3 -33 2 -68 10 -60 16 -63 16 -106 -5 -47 -23 -68 -17 -61
17 6 32 47 45 118 37 36 -3 73 -6 83 -5z m980 -16 c11 -10 17 -9 27 3 9 11 17
12 31 5 15 -8 18 -21 17 -62 l-1 -51 -76 8 c-42 4 -97 8 -122 10 -58 2 -69 9
-69 45 0 48 21 59 104 56 41 -1 80 -7 89 -14z m1177 -79 c0 -23 -4 -45 -10
-48 -6 -4 -10 17 -10 57 0 44 3 59 10 48 5 -8 10 -34 10 -57z m-1990 17 c0 -5
-5 -10 -11 -10 -5 0 -7 5 -4 10 3 6 8 10 11 10 2 0 4 -4 4 -10z m-179 -48 c42
-7 44 -9 52 -52 16 -79 15 -81 -32 -106 -46 -25 -81 -31 -81 -14 0 5 -13 16
-30 25 -16 9 -30 22 -30 29 0 8 -19 30 -41 49 -43 35 -45 56 -6 58 12 0 38 7
57 14 19 7 42 11 51 9 10 -3 36 -8 60 -12z m937 -43 c18 -7 22 -16 22 -48 0
-21 -6 -43 -12 -49 -7 -5 -46 -12 -86 -14 -63 -5 -74 -3 -82 13 -17 30 -12 97
7 108 18 10 113 4 151 -10z m-345 -5 c41 -6 47 -10 47 -30 0 -32 -32 -47 -107
-51 l-63 -2 0 37 c0 46 17 65 50 58 14 -3 46 -9 73 -12z m577 -14 c4 -7 4 -26
-1 -43 -5 -16 -6 -33 -3 -38 2 -4 -29 -8 -71 -8 l-75 0 0 39 c0 69 5 73 78 67
35 -3 68 -10 72 -17z m-1899 -21 c7 -18 36 -55 64 -84 40 -42 63 -56 110 -70
59 -17 60 -17 101 6 23 12 48 19 57 16 19 -7 57 -107 57 -151 0 -30 -4 -34
-31 -40 -57 -11 -153 -6 -224 13 -116 30 -154 56 -173 121 -5 19 -22 72 -36
116 -14 45 -26 87 -26 93 0 6 18 11 44 11 39 0 45 -3 57 -31z m439 11 c6 -11
17 -20 25 -20 18 0 75 -48 75 -63 -1 -21 -34 -57 -57 -61 -26 -6 -47 17 -63
69 -7 22 -17 46 -22 52 -13 16 -3 43 16 43 9 0 20 -9 26 -20z m464 5 c15 -8
37 -15 47 -15 21 0 25 -20 7 -38 -15 -15 -63 -16 -89 -2 -12 7 -19 21 -19 40
0 34 12 37 54 15z m526 -5 c0 -15 -7 -20 -25 -20 -24 0 -34 18 -18 33 15 15
43 7 43 -13z m1485 -535 c3 -247 8 -486 10 -530 3 -44 7 -161 10 -260 6 -232
13 -446 20 -615 3 -74 7 -263 10 -420 3 -157 7 -377 10 -490 2 -113 7 -387 9
-610 3 -223 8 -508 11 -635 17 -786 17 -847 -2 -843 -15 3 -18 15 -19 73 -3
115 -13 555 -19 780 -7 283 -15 779 -20 1235 -3 206 -7 407 -10 445 -6 82 -13
442 -20 985 -7 501 -13 871 -21 1151 -4 125 -3 235 1 245 18 42 25 -76 30
-511z m-1495 433 c29 -21 30 -24 25 -87 -3 -45 -9 -70 -21 -78 -12 -8 -14 -20
-9 -42 4 -17 11 -33 16 -36 18 -12 8 -42 -21 -63 -33 -25 -60 -28 -78 -10 -24
24 -14 47 63 141 13 15 12 22 -15 59 -17 22 -30 50 -30 60 0 20 27 78 36 78 2
0 18 -10 34 -22z m-387 -50 c7 -53 -2 -64 -44 -49 -17 6 -44 11 -59 11 -32 0
-53 21 -48 47 3 14 11 17 38 15 20 -2 47 1 60 7 41 16 47 13 53 -31z m261 20
c2 -7 8 -42 14 -78 8 -54 7 -68 -6 -83 -8 -9 -20 -27 -26 -39 -15 -30 -43 -34
-67 -12 -18 17 -20 28 -16 113 4 63 10 97 19 102 20 13 78 11 82 -3z m557 -5
c5 -5 12 -57 16 -116 5 -91 9 -110 26 -122 24 -17 16 -68 -14 -89 -17 -11 -19
-20 -13 -50 l6 -37 -53 2 c-30 1 -69 -1 -86 -5 -32 -7 -33 -7 -32 31 0 21 -2
115 -4 208 -3 94 -1 175 3 180 10 12 138 11 151 -2z m-1217 -28 c72 -71 79
-125 20 -139 -14 -4 -27 -6 -28 -4 -32 46 -59 109 -58 132 5 57 18 59 66 11z
m996 1 c0 -19 -4 -46 -10 -60 -8 -23 -15 -26 -58 -26 -49 0 -49 0 -55 36 -10
62 11 82 86 83 36 1 37 0 37 -33z m-812 -11 c15 -32 15 -65 2 -85 -9 -13 -14
-10 -35 15 -32 39 -40 62 -25 80 19 23 46 18 58 -10z m1295 -8 c3 -7 -4 -24
-14 -38 -10 -13 -19 -32 -19 -41 0 -31 -12 -48 -33 -48 -11 0 -28 -7 -38 -16
-35 -31 -49 -11 -49 69 0 41 3 77 7 80 13 13 141 8 146 -6z m-1597 -36 c6 -1
20 -26 32 -57 18 -51 19 -56 4 -62 -10 -3 -23 -12 -30 -19 -34 -33 -56 -8 -65
73 -6 54 3 74 31 69 10 -2 22 -4 28 -4z m1682 -20 c10 -6 12 -25 6 -80 -3 -39
-8 -71 -11 -71 -2 0 -15 7 -28 16 -20 13 -25 25 -25 58 0 38 21 86 38 86 4 0
13 -4 20 -9z m-2271 -60 c3 -14 22 -52 41 -85 20 -34 49 -86 66 -116 42 -76
52 -87 123 -149 l63 -54 56 7 56 6 -7 -98 c-4 -55 -8 -130 -9 -168 l-1 -68
-57 -14 c-50 -12 -58 -17 -58 -37 0 -13 4 -27 10 -30 6 -4 7 -50 3 -124 -6
-123 -1 -151 41 -241 20 -43 21 -61 21 -386 l0 -341 32 -51 c35 -57 34 -82 -3
-82 -30 0 -61 33 -141 155 -109 164 -106 155 -111 420 l-4 229 -31 37 c-18 21
-49 60 -70 88 l-39 51 -4 368 c-2 202 -6 453 -8 557 -4 169 -3 188 10 170 8
-11 18 -31 21 -44z m1054 27 c52 -20 58 -25 63 -58 8 -49 7 -108 -2 -114 -4
-2 -25 9 -47 25 -22 15 -58 38 -80 50 -67 36 -68 38 -40 71 14 16 25 34 25 39
0 14 19 11 81 -13z m595 -38 c35 -12 60 -45 42 -56 -16 -10 -90 -6 -101 5 -13
13 0 61 17 61 7 0 26 -5 42 -10z m-779 -70 c35 -33 70 -60 78 -60 33 0 6 -68
-36 -90 -11 -7 -38 -8 -64 -4 -41 6 -47 11 -75 59 -25 44 -29 57 -20 79 11 30
40 76 47 76 3 0 34 -27 70 -60z m-587 -28 c109 -9 188 -6 205 8 12 10 18 10
30 0 67 -56 -105 -119 -230 -85 -22 7 -52 17 -67 23 -16 7 -39 16 -53 22 -43
16 -30 56 15 45 14 -3 59 -9 100 -13z m401 -9 c6 -16 22 -50 35 -77 30 -57 24
-66 -43 -66 -38 0 -44 3 -59 35 -19 40 -14 88 13 117 23 26 42 22 54 -9z
m1457 -13 c17 -31 18 -31 74 -13 11 3 22 -5 33 -27 14 -26 16 -48 10 -111 -8
-92 -20 -108 -68 -91 -18 6 -44 8 -58 5 -34 -6 -87 21 -98 51 -5 12 -12 48
-16 80 -7 54 -6 59 21 88 26 27 56 46 77 47 4 1 16 -13 25 -29z m-828 -36 c0
-47 -23 -71 -41 -43 -12 20 -11 73 2 86 22 22 39 2 39 -43z m379 27 c16 -10
26 -132 11 -141 -5 -3 -27 -4 -49 -2 -44 4 -46 7 -56 89 l-7 52 34 4 c18 2 38
4 43 5 6 1 16 -2 24 -7z m-149 -131 c0 -56 -1 -59 -27 -64 -56 -13 -238 -25
-246 -17 -5 5 -7 21 -5 37 3 28 5 29 70 34 36 3 68 7 70 10 2 3 11 21 20 41
11 25 26 39 50 46 48 15 68 -10 68 -87z m-439 20 c13 0 11 -28 -2 -32 -19 -6
-109 26 -109 39 0 6 10 19 22 27 19 14 24 13 50 -9 16 -14 34 -25 39 -25z
m-545 13 c20 -26 18 -30 -29 -53 -54 -27 -112 -25 -112 5 0 14 14 27 45 42 55
27 79 28 96 6z m-233 -25 c19 -22 23 -58 6 -58 -30 0 -113 66 -103 82 9 14 78
-3 97 -24z m509 -79 c21 -11 38 -24 38 -29 0 -10 -15 -8 -90 11 -48 12 -87 11
-96 -2 -10 -17 11 -26 67 -28 28 -1 65 -9 82 -19 l32 -17 -34 -3 c-19 -2 -54
2 -78 9 -24 6 -46 9 -49 6 -10 -10 6 -27 25 -27 20 0 41 -19 41 -37 0 -10 -10
-12 -40 -7 -46 8 -57 -11 -12 -22 15 -4 37 -14 49 -22 18 -11 21 -18 12 -33
-5 -10 -16 -19 -24 -19 -18 0 -20 17 -2 23 16 6 -37 27 -69 27 -22 0 -24 -3
-18 -27 l7 -28 -19 22 c-14 17 -38 25 -94 34 -41 6 -80 15 -85 20 -16 12 -3
126 17 145 9 9 36 21 60 26 23 5 61 13 83 18 57 12 152 2 197 -21z m206 6 c28
-9 50 -20 47 -24 -7 -12 -114 -6 -127 7 -14 14 -3 43 14 38 7 -3 37 -12 66
-21z m825 -47 c-3 -35 -10 -68 -15 -75 -9 -12 -99 -46 -105 -40 -1 2 3 27 11
55 14 55 67 120 98 121 16 1 17 -6 11 -61z m129 27 c6 -13 19 -27 30 -30 27
-9 22 -22 -21 -51 -32 -21 -43 -24 -60 -14 -24 12 -27 37 -8 71 30 58 41 63
59 24z m-282 -9 c0 -14 -5 -28 -11 -31 -6 -4 -9 -26 -7 -49 l3 -41 -38 -3
c-76 -6 -104 63 -48 119 22 21 39 29 65 29 31 0 36 -3 36 -24z m-341 -40 c7
-8 11 -30 9 -48 -3 -28 -7 -33 -32 -36 -36 -4 -43 3 -52 56 l-7 42 35 0 c20 0
41 -6 47 -14z m154 -23 c5 -29 -7 -63 -23 -63 -5 0 -20 4 -34 10 -20 7 -26 17
-26 39 0 31 10 39 51 40 21 1 28 -5 32 -26z m772 -9 c0 -32 -21 -39 -38 -12
-8 12 -7 21 3 32 19 24 35 14 35 -20z m-1218 5 c27 -10 30 -40 7 -63 -22 -23
-34 -20 -84 25 -34 30 -42 41 -31 48 14 9 72 4 108 -10z m1068 -29 c13 -39 -6
-103 -38 -133 -43 -40 -70 -48 -108 -35 -29 10 -31 13 -25 46 6 37 50 91 101
123 39 25 62 24 70 -1z m-1165 -59 c42 -41 49 -69 28 -116 -6 -14 -18 -25 -26
-25 -8 0 -39 25 -68 56 -57 59 -68 95 -36 113 32 19 62 11 102 -28z m200 11
c0 -13 -12 -22 -22 -16 -10 6 -1 24 13 24 5 0 9 -4 9 -8z m1072 -32 c14 -29
16 -43 7 -73 -11 -41 -27 -47 -52 -19 -11 12 -16 31 -13 53 2 19 4 44 5 57 2
35 33 24 53 -18z m-347 20 c3 -5 3 -20 -1 -34 -8 -35 -68 -52 -102 -30 -13 8
-22 22 -20 31 5 28 109 56 123 33z m-248 -36 c5 -14 -38 -27 -50 -15 -5 5 -6
14 -2 21 8 14 47 9 52 -6z m-259 -78 c-3 -28 -6 -31 -38 -31 -34 0 -35 1 -38
45 -3 34 1 47 15 58 16 11 21 10 41 -14 16 -18 22 -36 20 -58z m-288 56 c0 -5
-7 -17 -15 -28 -15 -19 -20 -8 -9 20 6 17 24 22 24 8z m-533 -27 c32 -23 52
-106 46 -195 -2 -41 0 -118 5 -170 11 -117 10 -121 -31 -107 -18 5 -37 11 -44
13 -6 1 -14 22 -18 46 -4 24 -17 64 -30 89 -13 25 -27 62 -30 83 -4 20 -13 40
-20 44 -9 5 -10 24 -3 77 4 39 6 80 3 93 -3 13 -3 27 0 32 10 16 98 12 122 -5z
m970 -7 c47 -53 30 -88 -35 -72 -41 10 -52 36 -32 73 14 27 42 27 67 -1z
m-685 -14 c7 -9 33 -35 57 -59 43 -41 44 -43 31 -74 -17 -43 -22 -44 -72 -22
-24 10 -69 27 -100 36 -56 18 -94 52 -86 77 2 6 20 12 39 14 20 1 51 12 70 23
42 24 45 25 61 5z m908 -8 c6 -8 10 -25 8 -38 -3 -22 -7 -23 -63 -19 -74 4
-77 6 -63 36 8 18 20 25 52 28 22 2 44 4 47 5 4 1 12 -5 19 -12z m161 -36
c121 -57 136 -77 155 -203 8 -53 18 -107 24 -121 10 -28 5 -36 -27 -36 -45 0
-61 17 -74 77 -22 102 -84 201 -126 203 -18 0 -42 40 -36 59 3 9 7 22 9 29 5
17 25 15 75 -8z m243 -16 c46 -39 54 -59 44 -113 -5 -25 -6 -83 -2 -128 6 -73
4 -83 -10 -83 -25 0 -52 75 -59 163 -4 60 -11 88 -30 116 -18 27 -22 42 -15
54 13 24 35 21 72 -9z m-864 -28 c0 -3 -4 -8 -10 -11 -5 -3 -10 -1 -10 4 0 6
5 11 10 11 6 0 10 -2 10 -4z m77 -90 c-4 -50 -35 -92 -61 -83 -20 7 -7 125 17
155 8 10 14 9 29 -5 16 -15 19 -27 15 -67z m363 64 c15 0 31 -38 41 -101 7
-46 6 -69 -6 -106 -8 -27 -16 -79 -18 -118 -2 -69 -5 -73 -38 -60 -10 4 -27
-3 -44 -19 -32 -30 -57 -33 -76 -9 -8 9 -33 25 -56 35 -37 16 -43 23 -43 48 0
29 0 30 45 23 56 -7 60 9 10 38 -35 21 -49 44 -20 33 18 -7 19 9 3 35 -16 26
-3 51 26 51 35 0 43 20 16 40 -16 12 -19 19 -10 25 6 4 17 2 23 -4 15 -15 27
-14 27 4 0 8 -4 15 -10 15 -17 0 -11 26 10 45 21 19 77 35 98 29 8 -2 18 -4
22 -4z m-214 -15 c3 -8 -6 -29 -20 -46 -14 -17 -26 -40 -26 -52 0 -12 -4 -28
-9 -35 -9 -15 -22 -2 -35 32 -8 22 11 98 28 108 19 13 56 9 62 -7z m-453 -22
c11 -21 14 -77 14 -236 l0 -208 -26 6 c-14 3 -41 21 -59 39 -28 27 -32 36 -24
57 5 13 15 60 22 104 12 81 9 104 -22 147 -10 14 -8 26 12 67 30 60 61 69 83
24z m-283 -42 c90 -32 134 -67 146 -117 8 -32 -13 -156 -35 -204 -11 -24 -16
-63 -16 -127 1 -79 4 -96 22 -115 19 -22 20 -26 8 -73 -9 -32 -16 -150 -21
-320 -4 -148 -11 -278 -16 -287 -9 -19 -38 -25 -38 -8 0 5 9 14 20 20 11 6 20
20 20 31 0 12 -8 23 -20 26 -24 6 -22 -7 -25 254 -2 169 -5 210 -18 230 -9 13
-21 49 -28 79 -6 30 -17 66 -24 80 -7 14 -16 41 -20 60 -4 19 -16 47 -27 63
-12 17 -21 50 -24 85 -2 31 -9 85 -15 119 -6 35 -9 68 -6 75 2 7 0 42 -4 78
-11 74 -6 95 19 87 9 -4 55 -20 102 -36z m-398 2 c8 -10 20 -38 28 -63 7 -25
19 -55 27 -68 8 -13 16 -37 18 -53 2 -17 7 -44 10 -60 9 -38 -9 -91 -37 -108
-20 -12 -24 -11 -46 15 -13 16 -28 40 -34 54 -12 29 -18 219 -7 226 4 2 5 13
2 24 -6 23 2 50 15 50 5 0 16 -8 24 -17z m1508 -45 c11 -18 23 -44 26 -58 2
-14 14 -58 26 -98 13 -45 18 -76 12 -82 -5 -5 -40 -12 -78 -16 l-69 -7 7 69
c7 67 25 186 32 212 6 21 24 13 44 -20z m382 -40 c5 -65 -4 -87 -14 -33 -10
56 -10 85 1 85 5 0 11 -24 13 -52z m-873 -99 c1 -15 8 -32 16 -39 8 -7 15 -24
15 -38 0 -31 33 -85 65 -106 25 -16 36 -66 15 -66 -11 0 -103 92 -127 127 -16
24 -21 152 -7 174 9 16 22 -14 23 -52z m-87 -51 c3 -71 7 -89 32 -126 34 -50
29 -64 -13 -31 -32 26 -38 48 -45 172 -4 51 -1 67 9 67 9 0 14 -23 17 -82z
m965 -140 c2 -106 0 -128 -12 -128 -8 0 -19 17 -25 43 -7 23 -20 71 -31 107
-10 36 -19 71 -19 77 0 17 31 33 60 30 l25 -2 2 -127z m-162 78 c18 -27 37
-87 30 -94 -3 -3 -17 7 -31 21 -15 15 -34 27 -42 27 -22 0 -52 30 -52 52 0 30
75 25 95 -6z m-1579 -46 c5 -5 27 -12 48 -14 21 -3 40 -7 41 -8 13 -21 55
-120 60 -143 4 -16 13 -47 21 -68 8 -20 14 -52 14 -70 0 -18 7 -43 16 -56 20
-28 17 -31 -71 -64 -85 -32 -133 -44 -208 -53 l-57 -6 1 204 1 205 39 17 c22
10 47 29 55 42 18 26 25 29 40 14z m1470 -29 c9 -12 27 -27 42 -35 42 -22 151
-134 158 -161 5 -21 -2 -33 -42 -73 -27 -26 -69 -70 -94 -97 -74 -83 -106
-102 -177 -107 l-62 -4 16 30 c11 21 16 54 15 101 -2 63 -5 72 -29 92 -16 13
-42 23 -60 23 -18 0 -33 4 -33 10 0 5 25 40 55 77 30 38 65 91 79 119 l26 52
46 -3 c33 -2 50 -9 60 -24z m-228 -7 c12 -4 22 -11 22 -16 0 -27 -220 -288
-244 -288 -18 0 18 270 37 282 7 4 28 8 47 8 19 0 42 5 50 10 17 11 54 13 88
4z m-804 -50 c9 -23 -3 -56 -17 -51 -22 7 -21 67 2 67 5 0 12 -7 15 -16z
m-962 -40 c10 -20 9 -27 -2 -34 -18 -11 -40 6 -40 30 0 37 26 40 42 4z m1066
-23 c4 -27 -23 -71 -44 -71 -13 0 -15 7 -9 38 11 62 46 83 53 33z m302 -101
c6 0 19 9 29 19 19 19 19 18 23 -67 5 -100 -5 -122 -57 -122 -50 0 -68 36 -70
144 -1 54 0 57 13 37 21 -31 32 -26 26 12 l-5 32 16 -27 c8 -16 20 -28 25 -28z
m-373 -103 c2 -34 4 -73 5 -87 3 -22 -1 -25 -27 -25 l-30 0 1 82 c2 130 47
156 51 30z m80 -28 c1 -79 0 -88 -9 -59 -6 19 -13 64 -15 99 -4 50 -2 62 9 59
9 -3 13 -30 15 -99z m-1099 41 c6 -38 -8 -90 -23 -90 -11 0 -15 13 -15 53 0
30 3 57 7 61 12 12 28 0 31 -24z m1796 14 c23 -22 20 -96 -4 -144 -14 -28 -42
-54 -90 -86 -108 -71 -131 -113 -94 -169 18 -27 46 -31 91 -14 32 12 82 67 83
90 1 37 101 108 134 96 9 -4 23 -31 32 -62 15 -53 15 -60 -1 -102 -20 -51 -65
-102 -115 -129 -50 -27 -173 -26 -220 2 l-35 20 1 155 c1 141 4 158 26 204 37
77 57 103 102 130 48 29 69 31 90 9z m458 -206 c2 -124 -1 -213 -7 -229 -14
-34 -50 -76 -110 -124 -47 -38 -53 -40 -132 -44 -65 -2 -89 1 -108 13 -25 16
-34 46 -15 46 24 0 105 88 127 138 26 59 28 87 11 145 -11 38 -11 40 18 60 32
24 61 53 136 139 28 32 57 58 64 58 9 0 13 -50 16 -202z m-1481 3 c0 -42 2
-153 3 -247 l3 -172 -38 -6 c-22 -4 -56 0 -81 8 -24 8 -61 17 -83 21 -45 7
-69 24 -103 73 -21 29 -22 36 -12 68 16 46 7 68 -24 60 -21 -5 -24 -2 -28 30
-4 30 -1 37 19 45 57 21 103 62 113 99 9 34 15 39 58 50 26 6 70 22 97 34 28
13 56 21 63 18 8 -3 12 -29 13 -81z m755 76 c2 -7 -2 -32 -10 -55 -13 -36 -14
-59 -4 -147 16 -152 -5 -189 -70 -122 -46 48 -76 121 -68 169 7 45 60 143 84
158 24 14 62 12 68 -3z m-1467 -141 c6 -15 27 -52 46 -81 19 -28 35 -62 35
-75 0 -20 -4 -22 -32 -16 -59 12 -75 29 -82 93 -3 32 -9 80 -12 106 -3 32 0
54 8 65 11 13 14 10 19 -24 3 -21 11 -52 18 -68z m1281 90 c0 -16 -18 -31 -27
-22 -8 8 5 36 17 36 5 0 10 -6 10 -14z m-318 -115 c-2 -51 2 -116 8 -142 16
-64 7 -95 -33 -119 -42 -26 -47 -25 -47 5 0 24 2 25 36 19 35 -6 35 -6 32 27
-3 29 -6 34 -27 31 -14 -1 -28 3 -32 9 -3 6 -7 62 -8 124 -1 123 9 149 53 143
20 -3 21 -8 18 -97z m-542 75 c0 -15 -45 -56 -61 -56 -5 0 -9 13 -9 29 0 25 5
30 28 34 15 2 30 5 35 6 4 0 7 -5 7 -13z m620 -115 c0 -11 -4 -23 -10 -26 -6
-4 -10 5 -10 19 0 14 5 26 10 26 6 0 10 -9 10 -19z m-1120 -47 c0 -13 -4 -24
-10 -24 -5 0 -10 14 -10 31 0 17 4 28 10 24 6 -3 10 -17 10 -31z m1363 -44
c15 -28 27 -57 27 -65 0 -18 -49 -21 -55 -2 -9 29 -15 117 -8 117 4 0 20 -23
36 -50z m-276 -42 c-3 -8 -6 -5 -6 6 -1 11 2 17 5 13 3 -3 4 -12 1 -19z
m-1079 -66 c2 -40 0 -52 -11 -52 -9 0 -17 15 -21 38 -10 61 -8 74 12 70 13 -2
18 -15 20 -56z m115 33 c16 -15 15 -91 -1 -107 -13 -13 -39 1 -46 25 -8 30 -8
82 1 90 11 11 31 8 46 -8z m122 -37 l28 -21 -8 -133 c-3 -73 -14 -157 -22
-186 -9 -29 -18 -74 -20 -100 -5 -53 -8 -55 -41 -32 -27 19 -28 45 -4 68 22
19 46 91 36 107 -13 21 -26 146 -24 224 2 106 6 111 55 73z m875 -25 c0 -21 2
-114 4 -206 2 -160 2 -169 -18 -183 -11 -8 -17 -14 -13 -14 11 0 -18 -52 -41
-73 -29 -26 -97 -20 -97 8 1 40 16 213 27 313 l11 103 42 29 c22 15 47 35 54
44 21 25 31 19 31 -21z m358 0 c2 -9 -7 -13 -29 -13 -18 0 -48 -5 -66 -12 -29
-10 -36 -10 -43 2 -7 11 -4 19 8 28 22 16 124 12 130 -5z m137 -33 c0 -20 -6
-26 -26 -28 -19 -2 -28 2 -31 15 -8 30 2 44 31 41 20 -2 26 -8 26 -28z m221
-2 c4 -6 8 -28 9 -47 1 -20 5 -56 10 -80 l8 -43 -34 8 c-19 4 -44 7 -57 6 -15
-1 -25 6 -31 22 -12 30 -17 119 -7 134 9 16 93 16 102 0z m-1351 -28 c10 -11
41 -27 69 -35 28 -8 77 -22 108 -31 52 -15 58 -15 79 0 13 9 38 16 57 16 18 0
42 5 54 11 11 6 31 8 44 5 l25 -7 -6 -117 c-12 -245 -14 -262 -39 -262 -12 0
-27 5 -34 12 -9 9 -24 8 -65 -1 -54 -12 -91 -40 -115 -87 -21 -40 -70 -54
-197 -54 -134 0 -169 12 -178 59 -8 38 1 164 15 216 6 22 12 60 13 85 2 25 9
78 16 119 15 81 23 89 95 90 29 1 46 -5 59 -19z m1747 -9 c15 -8 30 -22 33
-32 4 -10 16 -26 28 -36 39 -31 46 -70 52 -294 l7 -217 -57 -25 c-45 -21 -70
-26 -128 -25 -40 0 -78 -1 -86 -3 -21 -6 -59 56 -71 119 -7 31 -18 77 -26 102
-15 49 -66 319 -68 360 l-1 25 90 -3 c81 -4 95 -1 140 22 28 14 52 24 55 23 3
-1 17 -9 32 -16z m-742 2 c0 -5 -5 -25 -11 -47 l-11 -38 -45 6 c-24 3 -49 8
-54 12 -18 11 -9 51 14 62 25 12 107 16 107 5z m-1473 -39 c2 -10 -6 -30 -17
-44 l-20 -25 0 41 c0 22 3 44 7 48 11 11 28 1 30 -20z m94 -4 c11 -6 19 -21
19 -36 0 -13 7 -35 16 -48 18 -28 5 -42 -25 -26 -11 5 -31 10 -45 10 -33 0
-35 7 -19 63 15 49 22 54 54 37z m1473 -24 c5 -21 1 -55 -19 -153 -3 -12 -13
-24 -23 -27 -10 -4 -26 -22 -35 -41 -9 -19 -21 -35 -27 -35 -12 0 -13 37 -1
76 5 16 19 63 32 104 12 41 27 81 32 88 15 20 34 14 41 -12z m100 -63 c11
-101 15 -262 6 -268 -4 -3 -25 2 -45 11 l-38 15 6 62 c4 34 8 73 11 87 2 14 7
44 10 67 8 55 24 96 35 89 5 -3 12 -32 15 -63z m-469 7 c3 -5 -1 -10 -9 -10
-9 0 -16 5 -16 10 0 6 4 10 9 10 6 0 13 -4 16 -10z m198 -12 c54 -21 26 -53
-50 -57 -43 -2 -43 -1 -43 32 0 18 3 37 7 41 8 8 42 2 86 -16z m458 -54 c3 -2
12 -32 18 -66 7 -35 16 -79 20 -98 12 -53 6 -59 -37 -44 -20 7 -52 13 -70 14
-18 0 -34 6 -37 13 -7 23 -15 179 -9 189 5 8 98 2 115 -8z m-1809 -41 c9 -10
19 -37 23 -60 l7 -42 -54 4 -53 3 -3 37 c-5 62 45 98 80 58z m77 8 c9 -6 11
-16 7 -27 -7 -18 -8 -18 -22 0 -23 32 -16 46 15 27z m1249 -17 c25 -7 27 -23
10 -71 -10 -28 -10 -36 2 -43 10 -6 11 -12 3 -22 -6 -7 -14 -33 -18 -58 -4
-25 -12 -51 -17 -58 -16 -19 -40 5 -37 37 3 40 -18 81 -41 81 -11 0 -20 5 -20
10 0 6 5 10 10 10 6 0 10 6 10 14 0 8 7 16 15 20 8 3 15 15 15 26 0 28 18 60
33 60 7 0 22 -3 35 -6z m155 -166 c-2 -35 -6 -92 -10 -128 -6 -64 -6 -64 -15
-27 -4 22 -17 50 -28 64 -23 29 -25 54 -9 86 13 26 50 67 59 67 3 0 5 -28 3
-62z m-1483 18 c93 -26 118 -43 131 -85 11 -35 9 -42 -10 -67 -12 -15 -40 -43
-62 -62 l-40 -34 -43 16 c-25 9 -47 26 -53 39 -13 30 -5 189 10 199 15 10 13
10 67 -6z m1075 -84 c-2 -26 -4 -51 -5 -55 0 -5 -10 -7 -22 -5 -32 4 -36 55
-8 91 29 36 40 26 35 -31z m743 11 c18 -11 27 -12 38 -3 16 14 13 20 44 -90
11 -41 23 -83 27 -92 5 -16 -2 -18 -55 -18 -33 0 -72 4 -87 10 -30 11 -55 63
-57 118 0 20 -5 48 -10 60 -4 13 -6 28 -3 32 7 12 75 1 103 -17z m-1034 8 c3
-5 42 -12 87 -16 55 -5 82 -12 86 -21 8 -20 -13 -65 -48 -103 l-30 -33 -107 5
c-59 3 -114 8 -122 11 -19 7 -41 -10 -65 -51 -11 -18 -22 -33 -26 -33 -12 0
-79 82 -74 90 3 4 22 10 43 14 50 8 100 41 133 91 17 25 38 42 56 46 43 10 61
10 67 0z m838 -17 c35 -18 36 -20 44 -97 7 -67 7 -67 -18 -67 -28 0 -88 18
-102 31 -9 8 -9 136 0 151 6 10 34 3 76 -18z m-322 -105 c0 -12 16 -37 36 -57
l36 -36 -26 -23 c-34 -29 -42 -29 -62 1 -12 19 -14 38 -9 80 7 54 25 79 25 35z
m95 0 c-10 -15 -25 -10 -19 6 4 8 10 12 15 9 5 -3 7 -10 4 -15z m-323 -25 c9
-6 11 -49 2 -92 l-6 -30 -59 5 c-42 4 -72 1 -102 -11 -40 -15 -47 -15 -80 -1
-20 8 -46 15 -57 15 -19 0 -38 25 -28 36 3 2 40 6 82 8 85 5 117 20 141 65 14
28 16 29 56 20 23 -6 46 -12 51 -15z m-718 -5 c15 -14 -15 -59 -61 -90 -23
-16 -46 -29 -51 -29 -5 0 -12 24 -16 53 -10 91 -14 86 57 80 34 -3 66 -9 71
-14z m-191 -38 c4 -18 7 -49 5 -69 -2 -29 -8 -37 -32 -45 -25 -8 -32 -6 -48
14 -24 31 -17 69 19 108 34 37 44 35 56 -8z m309 -30 c29 -36 103 -82 121 -75
7 2 18 22 23 42 7 30 14 38 35 40 24 3 27 -2 43 -56 18 -66 20 -109 6 -146 -8
-23 -14 -25 -67 -24 -32 1 -68 5 -81 9 -13 5 -43 4 -72 -3 -66 -15 -80 -3 -80
69 l0 55 -60 -7 c-74 -9 -74 6 1 54 27 18 54 41 59 52 15 27 45 23 72 -10z
m-513 10 c17 -11 8 -39 -14 -48 -23 -8 -38 11 -30 36 7 22 21 26 44 12z m2325
-7 c3 -9 6 -38 6 -66 0 -50 0 -50 -27 -43 -16 4 -117 9 -226 10 -200 4 -232 9
-220 41 4 10 23 14 72 14 40 0 78 6 96 16 24 12 49 14 120 9 77 -5 95 -3 125
13 45 25 47 25 54 6z m-610 -18 c36 -3 70 -7 76 -11 5 -3 10 -24 10 -46 l0
-39 -42 0 c-24 -1 -54 -7 -67 -14 -38 -21 -101 5 -101 43 0 23 39 83 49 77 5
-4 39 -8 75 -10z m-188 -79 c4 -11 1 -23 -7 -28 -16 -10 -103 -10 -139 0 -30
8 -40 41 -13 41 10 1 34 9 53 19 32 17 37 18 67 3 18 -9 36 -24 39 -35z
m-1456 28 c19 -23 0 -37 -44 -33 -36 3 -36 3 -21 26 19 26 47 29 65 7z m1010
-38 c27 -35 29 -81 4 -91 -41 -16 -147 -26 -159 -16 -25 21 20 126 57 133 58
11 73 7 98 -26z m-209 -10 c4 -5 3 -21 0 -36 -14 -49 -71 -34 -71 19 0 14 3
30 6 33 9 9 57 -3 65 -16z m-770 -38 c3 -6 11 -4 19 6 13 15 50 21 50 8 0 -5
-5 -25 -11 -47 -10 -35 -13 -37 -37 -30 -15 4 -57 6 -94 5 -82 -2 -94 11 -47
51 29 24 40 28 74 23 22 -3 42 -10 46 -16z m229 8 c14 0 32 2 40 4 11 3 15 -5
15 -36 l0 -39 -65 -3 c-89 -3 -100 1 -100 41 0 43 6 48 49 39 20 -4 47 -7 61
-6z m1520 -22 c19 -23 0 -37 -58 -43 -31 -3 -52 0 -57 7 -11 18 13 39 48 44
18 2 37 5 43 5 6 1 17 -5 24 -13z m273 7 c20 -2 23 -37 4 -45 -7 -3 -55 -4
-107 -3 -84 1 -95 3 -98 20 -2 10 1 21 6 25 9 5 141 7 195 3z m157 -8 c54 -22
50 -34 -9 -34 -51 0 -67 10 -57 35 7 19 16 19 66 -1z m-918 -5 c34 -18 170
-19 191 -1 21 18 43 3 34 -22 -5 -11 -20 -16 -54 -17 -26 0 -79 -2 -118 -4
-73 -4 -95 4 -95 36 0 22 12 24 42 8z m288 -29 c0 -5 -9 -10 -21 -10 -11 0
-17 5 -14 10 3 6 13 10 21 10 8 0 14 -4 14 -10z m-1547 -147 c11 -7 8 -40 -5
-51 -10 -8 -94 -10 -130 -3 -10 1 -10 33 -2 56 5 13 16 15 68 9 33 -4 64 -9
69 -11z m3066 -1599 c11 -3 11 -7 0 -20 -24 -29 -144 -6 -125 24 6 10 92 7
125 -4z m-139 -59 c29 -30 40 -35 81 -35 37 0 54 6 75 25 33 31 46 32 42 3 -2
-15 -11 -24 -25 -26 -28 -4 -29 -10 -1 -39 l21 -23 -32 0 c-21 0 -34 -6 -38
-17 -28 -81 -31 -85 -54 -69 -12 8 -27 12 -33 10 -7 -3 -21 5 -32 17 l-19 22
27 -7 c32 -7 39 1 27 32 -9 24 -47 30 -67 10 -19 -19 -15 12 5 34 15 17 15 20
-10 46 -15 16 -27 33 -27 40 0 22 26 12 60 -23z m1330 -1062 c1 -27 7 -66 15
-88 26 -69 45 -177 45 -251 0 -83 14 -105 55 -86 23 11 25 16 19 54 -4 24 -10
50 -14 58 -5 8 -11 51 -15 95 -4 44 -16 99 -26 123 -22 51 -26 142 -6 142 18
0 41 -43 71 -133 40 -119 48 -157 46 -220 -1 -62 18 -107 45 -107 11 0 15 13
15 55 0 55 21 115 40 115 6 0 10 -12 11 -27 0 -16 2 -82 5 -149 4 -96 2 -129
-11 -165 -9 -24 -25 -71 -34 -104 -21 -72 -47 -131 -61 -140 -5 -3 -10 -14
-10 -24 0 -16 -8 -17 -80 -13 -54 3 -95 0 -127 -10 -26 -8 -77 -23 -112 -33
-70 -21 -80 -33 -63 -78 7 -18 8 -35 3 -41 -5 -6 -12 -66 -16 -134 -4 -67 -12
-125 -17 -128 -5 -3 -16 3 -24 15 -24 34 -35 15 -29 -52 6 -61 -3 -95 -23 -83
-5 3 -12 28 -14 56 -3 28 -10 56 -17 63 -22 22 -31 -16 -26 -120 4 -82 2 -103
-9 -103 -22 0 -33 22 -39 75 -16 136 -25 165 -52 165 -22 0 -25 -28 -10 -93 8
-34 15 -90 17 -124 4 -102 -24 -98 -37 6 -4 31 -10 61 -15 66 -4 6 -10 29 -13
53 -7 56 -31 92 -61 92 -17 0 -27 9 -36 29 -13 33 -30 43 -51 31 -11 -7 -5
-25 29 -88 36 -67 83 -226 70 -236 -1 -2 -15 -6 -29 -9 -30 -8 -39 9 -39 71 0
18 -4 40 -10 50 -13 23 -90 193 -90 198 0 3 -18 32 -39 66 -38 58 -59 113 -47
125 6 6 16 2 71 -31 26 -16 49 -22 66 -19 20 4 31 -1 48 -22 11 -15 21 -36 21
-45 0 -10 7 -23 15 -30 13 -10 19 -10 35 5 11 10 20 26 20 36 0 22 -97 108
-130 115 -43 10 -79 26 -92 41 -21 26 5 38 227 102 106 31 123 34 142 26 15
-6 117 -8 264 -5 15 0 29 7 33 15 3 9 -6 73 -21 143 -15 70 -27 150 -28 177
-1 28 -8 91 -15 140 -12 80 -11 93 3 122 10 18 17 41 17 53 0 11 5 20 11 20 8
0 10 -14 6 -44 -6 -43 14 -189 34 -253 11 -36 37 -51 46 -27 3 9 -2 60 -12
113 -18 104 -36 320 -27 335 8 14 20 -24 21 -66 1 -38 14 -133 32 -243 11 -63
29 -92 49 -80 8 5 9 20 5 41 -3 19 -12 103 -20 187 -8 84 -19 166 -25 181 -11
30 -4 96 11 96 5 0 9 -21 9 -47z m2825 -156 c10 -133 13 -1837 3 -1843 -13 -8
-35 13 -42 42 -12 47 -174 274 -196 274 -4 0 -10 42 -13 93 -3 50 -13 117 -22
147 -8 30 -18 73 -22 95 -3 22 -12 49 -19 60 -8 11 -14 29 -14 40 0 39 -21 93
-50 131 -49 65 -71 85 -83 77 -18 -11 -71 -4 -87 12 -21 22 0 41 29 26 37 -20
23 7 -18 34 -50 34 -92 40 -177 26 -38 -7 -97 -16 -132 -21 -35 -6 -77 -17
-94 -26 -21 -11 -44 -14 -72 -10 -22 3 -69 9 -102 12 l-61 6 -29 -43 c-33 -48
-123 -103 -185 -113 -26 -4 -44 -14 -55 -32 -15 -22 -15 -31 -4 -80 8 -31 22
-66 32 -79 17 -21 24 -45 14 -45 -2 0 -11 -3 -19 -6 -8 -3 -22 3 -32 12 -14
15 -18 15 -27 3 -8 -11 -9 -10 -4 4 13 39 -32 88 -75 82 -36 -4 -79 -30 -79
-48 -1 -6 -18 23 -38 65 -27 56 -47 84 -74 102 -36 24 -38 24 -38 6 0 -11 -7
-20 -15 -20 -19 0 -33 32 -17 38 12 4 -115 72 -136 72 -7 0 -31 12 -53 26 -23
14 -61 34 -84 44 -24 10 -58 35 -76 54 -20 23 -41 36 -57 36 -14 0 -33 7 -43
16 -10 9 -44 18 -81 21 -43 4 -69 12 -81 24 -13 14 -32 19 -67 19 -28 0 -50 3
-50 7 0 5 13 48 29 98 61 191 64 208 57 297 -8 87 -39 225 -56 242 -6 6 -19 5
-35 -2 -14 -7 -30 -12 -34 -12 -12 0 -24 71 -14 80 4 4 348 11 763 14 845 8
1302 15 1307 20 2 2 120 4 262 4 l259 2 7 -83z m-3050 -184 c-4 -10 -11 -93
-15 -185 -6 -138 -11 -171 -26 -195 -11 -15 -24 -37 -30 -48 -6 -11 -21 -21
-33 -23 -18 -3 -21 2 -21 28 0 17 12 58 26 92 16 39 29 94 34 147 8 84 29 161
51 188 16 18 23 16 14 -4z m329 -582 c3 -5 -8 -14 -24 -20 -21 -7 -30 -17 -30
-32 0 -20 4 -21 43 -17 31 4 54 0 78 -13 37 -20 34 -22 -23 -19 -34 1 -38 -1
-38 -23 0 -14 7 -28 16 -31 15 -6 15 -8 -1 -26 -24 -26 -13 -51 22 -48 38 2
75 -11 70 -25 -2 -7 -14 -11 -26 -10 -31 4 -63 -15 -59 -35 2 -11 15 -17 42
-19 44 -2 61 -15 53 -37 -5 -11 -14 -14 -36 -10 -23 5 -32 2 -37 -10 -8 -22
13 -46 42 -46 25 0 50 -33 38 -51 -3 -6 -19 -9 -35 -7 -62 9 -60 -43 1 -56 38
-7 38 -26 0 -48 -39 -22 -40 -48 -1 -48 22 0 32 -6 37 -22 4 -12 2 -24 -3 -25
-6 -2 -19 -10 -29 -17 -15 -12 -16 -16 -5 -30 7 -9 19 -16 25 -16 6 0 24 -14
39 -31 25 -28 31 -31 67 -25 33 5 40 3 45 -14 9 -28 -4 -82 -18 -77 -7 2 -19
19 -28 38 -14 29 -21 33 -45 30 -48 -5 -60 -45 -19 -61 15 -6 25 -17 25 -29 0
-16 -12 -24 -52 -35 -84 -24 -176 -39 -198 -33 -22 6 -53 -18 -47 -37 8 -21
131 -5 282 37 47 13 51 13 78 -7 26 -19 28 -25 22 -66 -4 -34 -1 -54 15 -85
11 -22 17 -41 13 -43 -58 -20 -81 -66 -61 -124 6 -16 8 -32 4 -35 -8 -9 -103
43 -151 83 -22 18 -64 55 -94 83 -59 56 -78 64 -93 41 -7 -11 -2 -24 24 -50
57 -61 161 -142 206 -162 64 -29 59 -36 -57 -89 -55 -25 -76 -30 -79 -21 -2 8
-17 27 -33 43 -16 16 -32 42 -35 57 -3 15 -19 54 -35 88 -30 63 -63 90 -90 73
-8 -5 -21 -6 -29 -4 -13 4 -15 -14 -16 -127 l-1 -132 -32 -28 c-29 -26 -64
-35 -111 -28 -26 3 -24 8 22 62 46 53 78 126 78 174 0 19 -4 25 -14 21 -8 -3
-20 0 -26 8 -19 23 -37 6 -60 -58 -31 -84 -66 -138 -85 -131 -8 3 -19 22 -25
42 -8 32 -6 41 16 74 30 42 47 108 38 143 -4 15 1 35 12 54 18 31 18 31 -11
61 -16 16 -37 30 -47 30 -19 0 -36 26 -24 38 4 3 16 1 26 -6 39 -24 50 -16
119 79 33 47 44 93 65 279 3 25 10 72 16 105 6 33 13 92 15 130 3 39 9 115 14
170 5 55 8 119 8 142 -1 24 4 48 10 54 28 28 224 61 237 40z m356 -10 c0 -6
-4 -13 -10 -16 -5 -3 -10 1 -10 9 0 9 5 16 10 16 6 0 10 -4 10 -9z m-35 -49
c6 -1 11 -6 13 -12 6 -16 -24 -23 -47 -11 -14 8 -34 8 -63 2 -46 -11 -62 -4
-52 22 8 21 39 25 94 11 25 -6 50 -12 55 -12z m210 -10 c92 -68 291 -173 375
-197 37 -11 47 -22 91 -96 51 -88 69 -106 83 -87 15 21 97 31 117 15 21 -16
80 -110 111 -177 14 -30 46 -86 71 -124 25 -38 49 -83 53 -100 3 -17 13 -40
20 -51 8 -11 14 -34 14 -52 0 -21 5 -33 14 -33 17 0 50 -66 42 -86 -8 -20 -35
-18 -42 4 -16 47 -27 72 -32 67 -11 -11 -32 17 -22 30 10 12 -8 75 -21 75 -19
0 -39 35 -39 66 0 31 -3 34 -28 34 -29 0 -69 31 -113 90 l-27 35 -32 -23 c-37
-27 -60 -23 -60 12 0 13 -3 26 -7 28 -5 2 -27 28 -49 58 -36 47 -41 61 -40
102 1 52 -4 61 -28 52 -11 -4 -16 -18 -16 -48 0 -30 -3 -37 -10 -26 -5 8 -10
36 -10 62 0 55 -16 70 -41 40 -14 -18 -18 -19 -23 -7 -9 24 -36 18 -36 -9 0
-28 -24 -51 -46 -42 -10 4 -15 16 -14 33 4 59 -7 68 -43 36 -19 -17 -21 -16
-59 27 -47 55 -104 145 -113 181 -4 15 -20 39 -35 54 -27 26 -31 27 -60 15
-17 -7 -37 -22 -45 -33 -18 -26 -41 -16 -47 21 -6 40 3 60 32 77 40 21 62 17
115 -23z m1537 2 c20 -5 33 -19 49 -52 16 -32 19 -47 11 -50 -15 -5 -16 -42
-2 -42 17 0 70 -43 70 -57 0 -7 7 -28 17 -47 13 -29 14 -39 4 -65 -15 -35 -35
-45 -52 -25 -9 11 -9 21 -1 39 9 20 8 28 -5 41 -10 10 -16 30 -15 50 2 30 0
34 -22 34 -35 0 -39 -13 -15 -44 12 -15 18 -30 14 -34 -4 -4 -15 3 -25 16 -21
26 -30 28 -30 7 0 -16 -59 -48 -81 -43 -8 2 -15 -7 -17 -19 -4 -25 -17 -30
-29 -10 -8 12 -57 47 -68 47 -3 0 -5 -20 -5 -45 0 -49 -6 -55 -26 -27 -10 13
-15 14 -25 5 -10 -10 -16 -10 -30 3 -16 14 -18 14 -28 -4 -14 -26 -4 -52 20
-52 13 0 21 -12 29 -40 12 -46 48 -75 80 -65 14 4 22 1 27 -10 7 -21 -15 -37
-42 -29 -26 8 -73 52 -81 76 -8 26 -70 25 -79 -1 -5 -15 -20 -20 -83 -27 -42
-4 -79 -7 -82 -7 -44 7 -64 6 -67 -4 -3 -7 2 -13 10 -13 8 0 27 -16 42 -36 16
-20 33 -33 41 -30 7 3 16 1 20 -5 3 -6 12 -8 20 -5 8 3 19 -4 25 -16 17 -31
-7 -47 -74 -50 -33 -1 -63 -8 -69 -16 -9 -10 -15 -9 -32 7 -12 11 -32 24 -46
29 -29 11 -96 130 -82 144 5 5 24 2 46 -8 34 -17 37 -17 54 -1 13 14 14 21 4
35 -6 9 -23 37 -36 62 -13 25 -40 63 -60 85 -38 42 -42 58 -26 100 9 23 14 26
40 20 23 -5 32 -2 42 14 7 12 21 21 31 21 9 0 25 4 35 9 9 5 25 12 35 15 10 3
24 21 32 39 21 51 36 59 97 51 29 -4 70 -13 91 -20 34 -12 39 -12 57 6 11 11
31 22 44 26 20 5 24 3 20 -13 -4 -14 5 -23 38 -38 35 -16 45 -27 54 -59 6 -22
16 -42 23 -44 15 -5 31 15 31 38 0 19 -55 81 -92 105 -38 23 -26 36 26 29 25
-4 51 -2 62 5 11 6 28 9 39 6 11 -3 32 -8 47 -11z m-3792 -11 c36 -3 93 -7
127 -8 146 -8 229 -16 263 -25 19 -5 47 -12 62 -14 24 -6 27 -11 35 -78 6 -56
12 -74 25 -76 23 -4 40 31 29 61 -12 30 1 55 18 35 19 -22 75 -119 104 -183
15 -33 44 -93 64 -133 26 -52 33 -76 25 -84 -14 -14 -32 -1 -32 23 0 11 -7 22
-15 25 -20 8 -45 -13 -45 -37 0 -11 -7 -19 -15 -19 -10 0 -15 11 -15 35 0 31
-3 35 -25 35 -21 0 -25 -5 -25 -29 0 -31 -25 -64 -43 -58 -6 2 -15 17 -19 35
-10 36 -20 45 -42 36 -10 -4 -16 -18 -16 -40 0 -49 -26 -45 -40 6 -8 29 -16
40 -30 40 -24 0 -33 -14 -34 -54 -1 -44 -37 -43 -52 2 -13 41 -26 54 -48 46
-14 -5 -16 -14 -10 -50 5 -37 4 -44 -10 -44 -10 0 -16 8 -16 21 0 34 -19 59
-44 59 -22 0 -24 -3 -19 -40 4 -26 2 -40 -5 -40 -11 0 -17 16 -24 65 -2 12
-11 20 -23 20 -16 0 -21 -8 -23 -40 -5 -56 -22 -70 -22 -17 0 38 -2 42 -24 42
-24 0 -36 -16 -36 -51 0 -11 -4 -17 -10 -14 -5 3 -10 19 -10 34 0 15 -6 36
-14 46 -24 33 -46 3 -46 -61 0 -46 -3 -54 -19 -54 -26 0 -39 19 -43 64 -5 69
-50 55 -52 -15 -1 -62 -19 -64 -29 -4 -9 58 -17 68 -41 59 -15 -6 -17 -14 -12
-46 8 -51 -2 -90 -23 -86 -11 2 -17 17 -21 52 -3 27 -10 51 -16 53 -19 6 -44
-27 -44 -59 0 -41 -24 -31 -30 13 -4 28 -9 34 -30 34 -22 0 -25 -4 -25 -35 0
-42 -19 -56 -23 -17 -3 22 -13 32 -49 49 -44 21 -46 21 -59 3 -8 -10 -14 -34
-14 -52 0 -18 -4 -33 -10 -33 -11 0 -13 8 -14 60 -1 32 -3 35 -30 33 -17 -1
-36 3 -43 9 -9 7 -17 7 -28 -2 -11 -9 -15 -34 -15 -95 0 -65 -4 -85 -17 -96
-15 -13 -16 -11 -9 21 15 77 17 116 7 143 -11 28 -38 36 -58 16 -18 -18 -27
29 -12 57 18 34 3 45 -46 34 -67 -16 -82 -13 -89 16 -5 19 -1 33 13 48 28 29
26 43 -8 98 -38 60 -28 69 82 75 96 4 152 15 152 28 0 6 -11 11 -25 13 -53 6
-69 13 -75 32 -8 26 -25 26 -32 0 -5 -20 -33 -29 -33 -10 0 15 -28 12 -37 -4
-10 -18 -103 -33 -103 -17 0 6 7 14 16 18 12 5 15 14 10 43 -6 36 -5 38 27 45
17 3 59 7 93 9 33 1 66 6 72 10 7 4 79 7 160 7 81 0 159 5 175 11 20 8 31 7
41 -1 11 -10 20 -10 36 -1 12 7 32 9 43 6 12 -2 47 -1 77 4 52 7 148 5 290 -7z
m600 -23 c0 -5 -4 -10 -10 -10 -5 0 -10 5 -10 10 0 6 5 10 10 10 6 0 10 -4 10
-10z m-2255 -30 c10 -11 30 -20 44 -20 22 0 81 -40 81 -55 0 -3 -20 -2 -45 2
-42 5 -45 4 -45 -17 0 -13 -8 -24 -20 -27 -32 -8 -23 -31 25 -65 25 -18 45
-38 45 -45 0 -17 -12 -16 -36 2 -10 8 -29 15 -41 15 -35 0 -30 -36 7 -55 37
-19 40 -38 4 -29 -17 4 -29 2 -35 -7 -10 -17 12 -43 53 -60 30 -12 30 -13 24
-73 -9 -94 -14 -107 -41 -136 -29 -30 -31 -57 -10 -125 14 -50 14 -62 -3 -51
-16 10 -32 88 -36 173 -3 77 -2 82 18 85 15 2 22 11 24 31 3 23 0 27 -20 27
-13 0 -29 -5 -36 -12 -16 -16 -42 7 -42 39 0 33 -21 81 -64 144 -51 76 -48 95
29 189 81 97 91 103 120 70z m3575 -15 c0 -8 -4 -15 -10 -15 -5 0 -10 7 -10
15 0 8 5 15 10 15 6 0 10 -7 10 -15z m-2997 -25 c3 -11 1 -18 -4 -14 -5 3 -9
12 -9 20 0 20 7 17 13 -6z m5068 -8 c26 -24 32 -36 33 -72 1 -35 -3 -45 -16
-48 -15 -3 -17 2 -12 25 5 24 -1 35 -35 68 -22 21 -38 43 -35 47 10 15 34 8
65 -20z m-1736 -33 c38 -74 27 -90 -18 -29 -35 47 -43 80 -17 80 5 0 21 -23
35 -51z m-1568 25 c1 -5 -2 -16 -7 -24 -12 -20 -35 2 -26 25 6 17 27 16 33 -1z
m-1804 -11 c2 -5 7 -25 11 -45 9 -48 -7 -57 -110 -59 -105 -1 -101 -2 -108 26
-10 39 7 61 51 64 21 1 56 6 78 11 54 11 73 11 78 3z m57 -24 c0 -6 -4 -7 -10
-4 -5 3 -10 11 -10 16 0 6 5 7 10 4 6 -3 10 -11 10 -16z m3025 4 c13 -17 14
-17 33 0 17 15 24 17 42 7 17 -9 21 -18 17 -39 -3 -16 -1 -33 5 -39 17 -17 38
-2 38 30 0 17 4 27 10 23 6 -3 10 -21 10 -38 0 -43 13 -61 38 -53 16 6 21 1
27 -23 9 -42 34 -48 42 -11 9 46 8 47 80 -69 13 -21 20 -42 16 -51 -4 -8 -9
-48 -12 -89 -4 -46 -11 -76 -18 -79 -9 -2 -13 11 -13 45 0 52 -12 79 -29 69
-13 -9 -13 -223 0 -232 14 -8 10 -40 -6 -54 -21 -17 -19 -24 15 -62 17 -18 33
-44 36 -58 3 -14 10 -36 16 -50 23 -55 28 -87 22 -137 -4 -35 -11 -53 -20 -53
-8 0 -14 -4 -14 -10 0 -5 -4 -10 -9 -10 -4 0 -11 28 -15 63 -20 194 -30 230
-75 280 -15 18 -14 20 7 37 20 17 22 25 17 92 -3 40 -9 100 -15 133 -5 33 -10
61 -10 63 0 1 -7 2 -15 2 -18 0 -17 3 -16 -120 1 -62 -4 -109 -13 -135 l-15
-40 -1 45 c-1 25 -1 70 0 100 1 58 -20 104 -39 85 -9 -10 -20 -101 -21 -182 0
-29 -4 -43 -13 -43 -11 0 -16 30 -21 123 -4 67 -8 127 -9 134 -1 19 -24 23
-38 7 -8 -10 -10 -38 -5 -94 5 -68 4 -80 -9 -80 -11 0 -15 12 -15 52 0 65 -18
118 -41 118 -14 0 -17 10 -16 58 1 31 -3 103 -7 160 -7 94 -6 105 10 122 24
24 34 24 49 3z m-3375 -42 c0 -33 -11 -51 -31 -51 -28 0 -35 27 -14 50 23 25
45 26 45 1z m3577 -3 c-3 -8 -6 -5 -6 6 -1 11 2 17 5 13 3 -3 4 -12 1 -19z
m-3517 2 c0 -5 -2 -10 -4 -10 -3 0 -8 5 -11 10 -3 6 -1 10 4 10 6 0 11 -4 11
-10z m2124 -33 c-7 -19 -31 -22 -54 -7 -13 9 -11 13 10 30 20 15 27 17 38 6 7
-7 10 -20 6 -29z m-2314 7 c0 -12 -4 -12 -20 -4 -11 6 -18 15 -15 20 8 13 35
0 35 -16z m428 -77 c13 -26 12 -30 -6 -43 -16 -11 -20 -21 -15 -48 5 -33 -9
-57 -22 -36 -3 5 -17 10 -31 10 -26 0 -30 -13 -15 -52 5 -14 4 -48 -4 -88 -13
-68 -15 -67 -35 15 -16 62 -36 82 -61 59 -16 -14 -18 -13 -24 16 -7 30 -9 31
-40 26 -18 -4 -36 -3 -38 1 -3 4 11 42 31 83 l37 75 42 1 c24 0 46 4 50 8 4 4
32 6 63 4 49 -3 56 -6 68 -31z m102 3 c0 -33 -11 -38 -30 -15 -15 18 -6 45 15
45 10 0 15 -10 15 -30z m1860 -18 c0 -7 -4 -10 -10 -7 -5 3 -10 16 -10 28 0
18 2 19 10 7 5 -8 10 -21 10 -28z m1490 12 c0 -8 -4 -12 -10 -9 -5 3 -10 13
-10 21 0 8 5 12 10 9 6 -3 10 -13 10 -21z m-3788 -24 c-5 -51 -55 -165 -72
-165 -12 0 -14 13 -12 60 3 92 29 148 66 143 18 -3 20 -9 18 -38z m-556 -23
c12 -26 34 -61 48 -78 14 -17 26 -36 26 -42 0 -6 8 -20 19 -31 22 -24 37 -66
23 -66 -5 0 -14 11 -20 25 -7 15 -20 25 -32 25 -24 0 -24 -5 -5 -60 20 -55 32
-180 18 -180 -13 0 -23 24 -23 52 0 11 -7 45 -16 75 -13 46 -19 54 -37 51 -24
-3 -24 -1 -7 -110 7 -42 10 -84 7 -92 -12 -31 -25 -15 -32 37 -10 75 -30 117
-54 117 -12 0 -22 -6 -22 -12 -2 -25 3 -53 12 -62 5 -6 9 -31 9 -57 0 -50 -16
-73 -47 -67 -14 3 -20 17 -25 67 -9 84 -13 93 -40 89 -25 -3 -25 -3 -17 -113
4 -59 3 -60 -23 -63 -25 -3 -27 0 -33 45 -12 86 -24 113 -51 113 -26 0 -29 -7
-15 -42 13 -34 21 -106 15 -123 -4 -8 -14 -15 -24 -15 -13 0 -19 11 -24 49
-10 75 -25 111 -47 111 -22 0 -23 -13 -7 -91 13 -65 3 -89 -37 -89 -24 0 -35
30 -35 97 0 42 -15 73 -36 73 -12 0 -14 -14 -8 -91 l7 -91 -29 4 c-28 3 -29 5
-36 72 -8 80 -19 97 -46 73 -10 -9 -31 -17 -45 -17 -15 0 -27 -6 -28 -12 0 -7
-1 -33 -2 -58 -2 -41 -4 -45 -29 -48 -36 -4 -36 -8 -24 278 8 200 11 219 39
225 76 18 109 20 161 12 40 -6 67 -5 83 2 13 6 40 11 59 11 19 0 49 7 65 16
17 8 59 17 92 19 34 2 74 8 89 12 16 4 58 8 95 7 l66 0 23 -47z m5864 1 c0
-18 7 -46 15 -62 20 -39 19 -48 -12 -89 -16 -20 -36 -48 -47 -63 -13 -19 -21
-23 -26 -13 -10 15 -3 34 23 72 14 21 18 42 16 90 -2 63 6 97 22 97 5 0 9 -15
9 -32z m-1441 -41 c2 -20 -32 1 -52 33 l-22 35 37 -30 c20 -16 37 -34 37 -38z
m-4226 -12 c26 -52 45 -141 28 -131 -5 4 -24 31 -41 61 -17 30 -36 55 -42 55
-6 0 -7 13 -3 33 14 62 19 60 58 -18z m2677 34 c0 -6 -4 -7 -10 -4 -5 3 -10
11 -10 16 0 6 5 7 10 4 6 -3 10 -11 10 -16z m-1910 -18 c16 -30 12 -51 -9 -51
-29 0 -45 25 -31 49 13 26 26 27 40 2z m3670 -2 c0 -11 -4 -17 -10 -14 -5 3
-10 13 -10 21 0 8 5 14 10 14 6 0 10 -9 10 -21z m1053 -23 c6 -15 -1 -26 -15
-26 -4 0 -8 9 -8 20 0 23 15 27 23 6z m94 -23 c-3 -10 -5 -4 -5 12 0 17 2 24
5 18 2 -7 2 -21 0 -30z m-37 -23 c0 -17 -26 -40 -44 -40 -12 0 -5 34 10 51 19
21 34 16 34 -11z m-2815 -11 c6 -6 2 -17 -11 -29 -18 -18 -24 -19 -54 -9 -45
15 -44 14 -30 39 10 19 17 21 48 15 21 -4 41 -11 47 -16z m-2023 -56 c2 -32 0
-73 -5 -92 -5 -19 -7 -50 -4 -68 6 -35 -3 -42 -23 -18 -10 13 -10 28 0 83 7
37 12 86 11 110 -2 64 17 50 21 -15z m3708 36 c66 -13 97 -32 102 -64 2 -15
-2 -19 -17 -17 -38 5 -43 8 -70 40 -26 31 -67 43 -80 23 -8 -13 -113 -43 -125
-36 -18 11 -10 41 13 53 22 12 83 21 103 16 7 -1 40 -8 74 -15z m-3523 -41
c-3 -8 -6 -5 -6 6 -1 11 2 17 5 13 3 -3 4 -12 1 -19z m4969 -32 c-4 -25 -12
-48 -17 -52 -9 -5 -4 60 7 95 9 30 16 0 10 -43z m-116 11 c0 -26 -43 -90 -53
-80 -14 13 -7 51 14 77 25 32 39 33 39 3z m-5465 -70 c4 -23 11 -49 16 -58 15
-29 29 -143 19 -153 -6 -6 -12 -2 -15 10 -4 10 -11 27 -17 38 -10 19 -11 24
-28 119 -11 58 -6 102 10 92 4 -3 11 -24 15 -48z m2468 31 c7 -26 1 -38 -19
-38 -9 0 -14 11 -14 30 0 35 25 41 33 8z m-168 -10 l27 -21 19 24 c16 20 20
22 29 9 16 -24 12 -51 -7 -49 -10 1 -24 1 -31 0 -19 -2 -41 -61 -35 -94 5 -24
3 -27 -18 -25 -22 3 -24 -1 -24 -41 0 -35 -4 -45 -20 -51 -30 -11 -45 -1 -45
30 0 20 -6 31 -20 35 -28 9 -40 -2 -40 -34 0 -34 -24 -59 -36 -39 -4 6 -8 26
-8 43 -1 23 -6 31 -23 33 -25 4 -46 -27 -37 -52 9 -23 -3 -47 -20 -40 -9 3
-18 21 -22 40 -5 30 -10 34 -36 34 -28 0 -29 -2 -26 -37 3 -35 1 -38 -22 -38
-22 0 -25 5 -28 38 -3 35 -6 38 -30 35 -23 -3 -27 -8 -30 -41 -4 -51 -35 -48
-42 3 -4 29 -10 36 -32 38 -24 3 -27 0 -30 -35 l-3 -38 -52 -3 c-53 -3 -53 -3
-53 27 0 33 -20 48 -58 45 -31 -2 -35 -8 -21 -38 15 -32 12 -36 -37 -39 -39
-2 -39 -1 -44 38 -4 35 -8 40 -30 40 -22 0 -25 -4 -25 -40 0 -34 -3 -40 -24
-43 -31 -5 -44 10 -45 50 -1 28 -5 33 -28 36 -23 3 -28 -1 -33 -25 -4 -15 -8
-33 -10 -39 -5 -16 -45 -25 -50 -11 -23 64 -26 68 -47 65 -17 -2 -22 -10 -23
-33 0 -26 -4 -30 -32 -33 -29 -3 -33 0 -33 22 0 39 -10 56 -35 56 -27 0 -35
-16 -28 -53 5 -25 3 -27 -30 -27 -19 0 -42 -3 -51 -6 -13 -5 -16 3 -16 46 0
48 -2 51 -22 48 -19 -2 -24 -10 -26 -43 -3 -42 -23 -65 -54 -65 -15 0 -18 8
-18 44 0 76 -36 72 -55 -7 -7 -27 -17 -43 -29 -45 -15 -3 -17 3 -14 45 3 45 2
48 -22 48 -19 0 -25 -6 -31 -32 -7 -37 -35 -83 -49 -83 -14 0 -12 22 5 63 21
52 19 59 -17 55 -22 -2 -33 1 -32 10 1 6 2 28 3 47 1 31 4 35 26 33 14 -1 25
-8 25 -15 0 -26 53 -35 166 -29 163 9 352 25 409 36 69 13 192 21 612 39 308
14 412 21 438 31 15 6 25 20 29 44 8 42 14 44 51 14z m-2505 -131 c0 -31 6
-66 13 -78 10 -17 9 -22 -13 -39 -46 -36 -72 -13 -29 26 17 15 18 20 6 29 -8
5 -19 40 -26 77 -10 59 -9 72 5 100 l17 33 13 -45 c8 -25 14 -71 14 -103z
m2308 126 c2 -8 -6 -13 -22 -13 -25 0 -33 10 -19 24 10 10 36 3 41 -11z m92 7
c0 -5 -7 -10 -15 -10 -8 0 -15 5 -15 10 0 6 7 10 15 10 8 0 15 -4 15 -10z
m2920 0 c0 -5 -17 -12 -37 -16 -50 -9 -140 -68 -164 -107 -10 -18 -19 -44 -19
-59 0 -18 -5 -28 -15 -28 -32 0 -5 107 38 148 51 49 197 95 197 62z m-3243
-26 c2 -6 -3 -11 -12 -11 -8 0 -15 7 -15 15 0 15 22 12 27 -4z m103 6 c0 -5
-5 -10 -11 -10 -5 0 -7 5 -4 10 3 6 8 10 11 10 2 0 4 -4 4 -10z m1891 -16 c9
-11 8 -15 -5 -20 -24 -9 -46 3 -46 25 0 14 5 18 20 14 10 -3 24 -11 31 -19z
m-3625 -62 c-13 -12 -22 11 -17 45 l4 38 9 -39 c5 -21 6 -41 4 -44z m1534 68
c0 -5 -7 -10 -15 -10 -8 0 -15 5 -15 10 0 6 7 10 15 10 8 0 15 -4 15 -10z
m3421 -23 c-8 -8 -11 -7 -11 4 0 20 13 34 18 19 3 -7 -1 -17 -7 -23z m-61 15
c0 -15 -24 -32 -44 -32 -29 0 -82 -53 -96 -96 -15 -43 2 -109 32 -128 23 -14
23 -22 1 -30 -11 -5 -23 1 -34 15 -20 27 -49 20 -49 -12 0 -11 8 -34 17 -50
16 -27 16 -30 1 -45 -10 -10 -23 -14 -34 -10 -13 5 -14 10 -6 18 8 8 5 22 -10
51 -18 36 -19 47 -9 94 6 30 21 68 33 84 55 72 84 103 118 125 34 22 80 32 80
16z m-4993 -39 c-3 -10 -5 -4 -5 12 0 17 2 24 5 18 2 -7 2 -21 0 -30z m3813
18 c0 -26 13 -33 80 -48 75 -16 100 -16 100 1 0 28 22 28 83 -2 81 -40 117
-49 127 -31 7 11 13 11 35 -1 19 -10 28 -11 37 -2 15 15 54 -5 99 -51 47 -48
60 -72 80 -145 19 -70 4 -82 -17 -13 -20 68 -57 99 -82 69 -7 -9 0 -39 24
-103 39 -100 40 -134 7 -235 -16 -50 -18 -52 -21 -25 -1 17 1 55 5 85 15 101
-4 144 -47 105 -14 -12 -18 -25 -14 -42 4 -13 2 -29 -4 -36 -5 -6 -13 -46 -17
-87 -9 -97 -19 -110 -25 -35 -4 43 -9 61 -20 62 -26 5 -38 -11 -43 -57 -5 -52
-41 -159 -58 -174 -9 -8 -10 -4 -5 14 4 14 9 46 13 72 5 40 3 49 -12 54 -29
12 -50 -10 -57 -61 -8 -58 -23 -77 -32 -40 -8 31 -33 31 -50 0 -29 -54 -38
-65 -45 -61 -5 3 -5 27 0 53 11 57 1 70 -37 52 -22 -11 -30 -25 -39 -64 l-12
-50 -5 35 c-12 71 -6 122 18 158 13 19 24 43 24 53 0 28 -27 23 -42 -8 -7 -16
-17 -27 -21 -25 -4 1 -20 2 -36 2 l-28 0 0 120 c0 66 4 120 8 120 5 0 9 -4 9
-10 0 -15 27 -12 33 3 8 20 -8 39 -28 35 -13 -2 -22 7 -32 30 -11 27 -11 32 1
32 18 0 27 23 15 41 -6 11 -11 11 -21 1 -21 -21 -30 -13 -26 23 3 27 -1 40
-19 57 -25 23 -20 42 21 85 12 12 29 32 39 43 22 25 37 26 37 1z m1400 12 c-2
-50 -205 -152 -205 -103 0 9 21 22 55 33 30 9 68 31 85 47 27 27 65 41 65 23z
m260 -50 c0 -7 -4 -13 -9 -13 -16 0 -33 30 -27 46 6 16 8 15 21 -2 8 -10 15
-25 15 -31z m-4375 27 c-3 -5 -13 -10 -21 -10 -8 0 -14 5 -14 10 0 6 9 10 21
10 11 0 17 -4 14 -10z m4149 -52 c-25 -49 -55 -78 -81 -78 -13 0 -40 -7 -60
-15 -42 -18 -43 -18 -43 -5 0 5 23 22 52 36 73 37 107 64 126 99 23 42 29 7 6
-37z m-2926 1 c4 -31 -18 -52 -50 -47 -29 4 -36 39 -12 62 24 25 58 17 62 -15z
m232 -44 c0 -2 -13 -10 -30 -19 -28 -13 -30 -13 -30 4 0 10 6 20 13 23 12 4
47 -2 47 -8z m2820 6 c0 -5 -7 -14 -15 -21 -12 -10 -15 -10 -15 2 0 8 3 18 7
21 9 10 23 9 23 -2z m-5050 -47 c0 -16 -16 -19 -25 -4 -8 13 4 32 16 25 5 -4
9 -13 9 -21z m2370 16 c0 -5 -4 -10 -10 -10 -5 0 -10 5 -10 10 0 6 5 10 10 10
6 0 10 -4 10 -10z m2278 -18 c21 -26 14 -42 -18 -42 -34 0 -53 25 -39 52 10
19 36 15 57 -10z m-6238 -2 c0 -5 -5 -10 -11 -10 -5 0 -7 5 -4 10 3 6 8 10 11
10 2 0 4 -4 4 -10z m6725 -30 c-3 -5 -10 -10 -16 -10 -5 0 -9 5 -9 10 0 6 7
10 16 10 8 0 12 -4 9 -10z m-6721 -16 c10 -25 7 -34 -9 -28 -8 4 -15 15 -15
25 0 23 16 25 24 3z m3586 -8 c0 -14 -5 -28 -10 -31 -13 -8 -24 20 -16 40 9
24 26 17 26 -9z m-145 -63 c-5 -23 -7 -24 -29 -10 -40 27 -49 9 -47 -97 2 -77
-1 -96 -12 -96 -11 0 -13 10 -10 43 10 85 -30 156 -63 112 -12 -16 -17 -17
-23 -7 -5 8 -19 12 -32 10 -17 -2 -25 -11 -29 -32 l-5 -30 -12 26 c-12 27 -49
43 -56 24 -2 -6 -1 -38 3 -71 8 -71 5 -85 -22 -85 -18 0 -20 6 -16 72 3 64 1
73 -16 76 -29 6 -38 -11 -40 -74 -1 -47 -5 -59 -18 -62 -15 -3 -17 4 -15 47 2
57 -13 82 -40 65 -13 -8 -16 -23 -14 -61 2 -36 -2 -52 -12 -56 -25 -9 -34 7
-33 63 1 53 0 55 -26 58 -30 4 -30 5 -32 -68 -1 -35 -5 -45 -19 -48 -17 -3
-18 3 -15 59 3 55 1 64 -16 67 -25 5 -35 -7 -37 -48 -4 -54 -13 -60 -19 -10
-4 40 -8 45 -30 45 -22 0 -26 -5 -30 -45 -7 -59 -21 -57 -25 3 -3 58 -15 73
-43 58 -27 -14 -32 -14 -32 4 0 9 -9 15 -23 15 -18 0 -25 -9 -37 -52 -21 -74
-35 -70 -35 9 0 56 -3 68 -17 71 -19 4 -29 -14 -49 -91 -15 -61 -30 -56 -33
10 -2 60 -17 83 -44 67 -13 -8 -17 -25 -17 -65 0 -47 -2 -54 -20 -54 -18 0
-20 6 -17 68 4 66 3 67 -21 67 -29 0 -37 -16 -37 -70 0 -42 -23 -72 -34 -44
-3 8 -6 40 -6 70 0 47 -3 54 -20 54 -28 0 -43 -34 -35 -82 5 -29 3 -43 -6 -49
-33 -20 -53 39 -24 71 22 25 9 50 -26 50 -35 0 -49 -27 -42 -77 4 -27 2 -33
-12 -33 -15 0 -17 7 -11 53 9 73 28 86 125 89 42 1 92 2 111 1 173 -5 411 -4
485 2 59 4 100 3 119 -4 16 -6 34 -8 40 -3 6 4 49 7 96 6 47 -2 92 -3 100 -3
111 -3 297 25 328 48 l27 20 3 -26 c2 -14 1 -37 -3 -50z m1398 35 c25 -69 39
-250 27 -332 -7 -46 -24 -69 -45 -63 -12 4 -26 141 -23 217 2 30 3 92 3 138 0
93 14 108 38 40z m1927 7 c0 -18 31 -35 64 -35 35 0 33 -18 -1 -22 -20 -2 -29
-9 -31 -25 -4 -26 -10 -28 -34 -10 -14 11 -24 68 -19 110 2 14 21 -3 21 -18z
m-243 7 c7 -4 15 -33 19 -63 6 -51 4 -58 -16 -72 -14 -10 -34 -13 -54 -10 -26
4 -35 1 -48 -19 -21 -31 -8 -63 31 -76 23 -8 31 -17 31 -35 0 -22 -4 -25 -41
-25 -57 -1 -82 25 -68 70 6 18 13 42 16 53 9 29 72 103 94 110 12 4 19 16 19
31 0 21 -4 24 -20 19 -14 -5 -20 -2 -20 9 0 17 36 22 57 8z m-2786 -45 c-8 -8
-11 -5 -11 9 0 27 14 41 18 19 2 -9 -1 -22 -7 -28z m999 12 c7 -16 12 -42 11
-57 -1 -15 -2 -46 -4 -69 -3 -54 -10 -60 -36 -27 -27 34 -27 71 -1 79 30 10
24 33 -15 56 -45 27 -46 49 -1 49 28 0 36 -5 46 -31z m-3404 10 c48 -12 59
-29 19 -29 -40 0 -125 21 -125 31 0 12 52 11 106 -2z m4614 -10 c0 -5 -4 -9
-10 -9 -5 0 -10 7 -10 16 0 8 5 12 10 9 6 -3 10 -10 10 -16z m50 11 c0 -5 -4
-10 -10 -10 -5 0 -10 5 -10 10 0 6 5 10 10 10 6 0 10 -4 10 -10z m-4946 -29
c13 -14 14 -20 4 -23 -20 -8 -58 10 -58 27 0 21 33 19 54 -4z m5191 -40 c-5
-58 -4 -61 35 -106 22 -25 40 -50 40 -55 0 -52 -95 36 -104 95 -4 22 -12 59
-20 83 l-14 42 34 0 34 0 -5 -59z m-4765 34 c0 -17 -4 -18 -37 -9 -33 9 -28
24 7 24 20 0 30 -5 30 -15z m486 -22 c-4 -9 -10 -36 -13 -60 -8 -59 -20 -54
-25 10 -5 62 -3 67 24 67 15 0 18 -4 14 -17z m-101 -53 c0 -52 -1 -55 -25 -55
-22 0 -25 5 -28 38 -3 32 -7 37 -27 37 -18 0 -26 -7 -31 -24 -3 -14 -3 -30 1
-35 8 -13 -36 -31 -75 -31 -15 0 -30 6 -33 14 -7 19 1 26 30 26 15 0 23 5 20
13 -2 7 -16 11 -35 9 -37 -4 -43 14 -9 27 21 9 102 26 157 35 52 7 55 4 55
-54z m1865 50 c0 -5 -5 -10 -11 -10 -5 0 -7 5 -4 10 3 6 8 10 11 10 2 0 4 -4
4 -10z m-160 -51 c0 -48 -22 -61 -52 -31 -35 35 -6 90 40 74 7 -2 12 -21 12
-43z m-2950 -6 c0 -7 -6 -13 -14 -13 -20 0 -39 27 -32 46 6 15 8 15 26 -1 11
-10 20 -24 20 -32z m-320 2 c0 -8 -7 -15 -15 -15 -8 0 -15 7 -15 15 0 8 7 15
15 15 8 0 15 -7 15 -15z m83 0 c-4 -15 -36 -12 -41 3 -3 9 3 13 19 10 13 -1
23 -7 22 -13z m417 0 c0 -8 -7 -15 -15 -15 -16 0 -20 12 -8 23 11 12 23 8 23
-8z m2490 -65 c0 -19 -4 -41 -9 -49 -11 -18 -33 -4 -27 17 2 10 7 35 11 56 8
48 25 31 25 -24z m-690 15 c0 -28 -4 -35 -20 -35 -23 0 -25 9 -8 45 16 35 28
31 28 -10z m-1661 -18 c19 -24 -10 -36 -39 -17 -13 9 -13 11 0 20 20 13 26 12
39 -3z m341 -2 c0 -10 -10 -15 -30 -15 -47 0 -35 27 13 29 9 1 17 -6 17 -14z
m90 5 c0 -5 -12 -10 -27 -10 -22 0 -25 2 -13 10 20 13 40 13 40 0z m-640 -15
c0 -8 -9 -15 -20 -15 -11 0 -20 7 -20 15 0 8 9 15 20 15 11 0 20 -7 20 -15z
m70 5 c0 -5 -7 -10 -15 -10 -8 0 -15 5 -15 10 0 6 7 10 15 10 8 0 15 -4 15
-10z m630 0 c0 -5 -2 -10 -4 -10 -3 0 -8 5 -11 10 -3 6 -1 10 4 10 6 0 11 -4
11 -10z m4670 -10 c0 -5 -4 -10 -10 -10 -5 0 -10 5 -10 10 0 6 5 10 10 10 6 0
10 -4 10 -10z m568 -17 c2 -9 -7 -13 -27 -13 -30 0 -39 9 -24 24 11 10 46 3
51 -11z m122 1 c0 -8 -5 -12 -10 -9 -6 4 -8 11 -5 16 9 14 15 11 15 -7z m-914
-51 c17 -23 18 -43 0 -43 -20 0 -39 27 -32 45 7 20 16 19 32 -2z m269 4 c21
-16 13 -37 -15 -37 -19 0 -34 25 -24 41 7 12 17 11 39 -4z m-115 -16 c0 -20
-32 -37 -50 -26 -23 14 -10 41 20 43 24 2 30 -2 30 -17z m680 9 c0 -5 -12 -10
-27 -9 l-28 1 25 8 c14 4 26 8 28 9 1 1 2 -3 2 -9z m-2023 -45 c0 -28 -4 -44
-11 -42 -12 4 -20 52 -12 73 11 29 23 13 23 -31z m2293 -12 c23 -53 23 -53 10
-53 -12 0 -50 73 -50 95 0 26 18 7 40 -42z m-7030 30 c25 -2 57 -3 72 -3 15 0
29 -4 33 -10 4 -6 -16 -10 -53 -10 -33 0 -74 -3 -91 -6 -29 -6 -31 -4 -31 20
0 19 4 25 13 19 6 -4 32 -9 57 -10z m422 -4 c7 -4 10 -11 6 -14 -11 -12 -259
-14 -286 -3 l-27 11 25 8 c32 10 265 8 282 -2z m1666 -11 c135 0 232 -3 232
-9 0 -5 -60 -10 -132 -10 -73 -1 -209 -3 -303 -5 -235 -4 -328 -5 -340 -5 -5
1 2 8 18 16 34 18 98 23 207 17 47 -3 190 -5 318 -4z m2713 -29 c-9 -23 -10
-22 -10 11 -1 23 2 31 9 24 7 -7 7 -19 1 -35z m192 1 c-7 -28 -13 -25 -13 6 0
14 4 23 9 20 5 -3 7 -15 4 -26z m1656 5 c2 -2 1 -11 -2 -20 -4 -9 -19 -15 -42
-15 -28 0 -35 4 -35 19 0 11 6 22 13 25 12 5 58 -2 66 -9z m149 -2 c-3 -12
-12 -17 -28 -15 -31 3 -38 11 -20 22 25 16 52 12 48 -7z m-5400 -25 c-19 -19
-37 -24 -98 -29 -134 -9 -653 1 -666 14 -17 17 15 22 141 23 73 1 138 5 144 9
6 3 27 1 47 -5 19 -7 43 -9 52 -5 9 5 100 10 202 12 101 2 186 6 189 8 2 3 6
3 9 1 2 -2 -7 -15 -20 -28z m4982 17 c10 -12 10 -18 0 -30 -27 -32 -71 -8 -56
30 3 8 14 15 24 15 11 0 25 -7 32 -15z m110 -11 c0 -8 -4 -12 -10 -9 -5 3 -10
13 -10 21 0 8 5 12 10 9 6 -3 10 -13 10 -21z m430 16 c0 -5 -4 -10 -10 -10 -5
0 -10 5 -10 10 0 6 5 10 10 10 6 0 10 -4 10 -10z m-667 -12 c7 -21 -4 -38 -23
-38 -22 0 -35 30 -18 42 19 11 36 10 41 -4z m-5680 -4 c44 -13 8 -23 -95 -28
-62 -3 -153 -8 -203 -11 -110 -8 -155 -8 -163 -1 -14 15 17 21 99 20 49 0 89
3 89 7 0 11 240 22 273 13z m5554 -10 c3 -8 1 -20 -6 -27 -14 -14 -47 15 -37
32 10 16 36 13 43 -5z m-128 -13 c12 -21 5 -32 -15 -24 -16 6 -19 43 -4 43 5
0 14 -8 19 -19z m-128 -1 c19 -11 27 -40 10 -40 -12 0 -41 29 -41 41 0 12 7
11 31 -1z m-5801 -10 c0 -5 -9 -10 -20 -10 -11 0 -20 5 -20 10 0 6 9 10 20 10
11 0 20 -4 20 -10z m2855 -5 c55 -3 105 -7 112 -7 7 -1 10 -5 7 -9 -3 -5 -109
-6 -237 -4 -128 3 -360 5 -517 5 -159 1 -278 5 -271 10 8 4 64 9 124 9 61 1
112 3 114 4 5 6 567 -1 668 -8z m-1140 -5 c3 -5 -3 -10 -14 -10 -12 0 -21 5
-21 10 0 6 6 10 14 10 8 0 18 -4 21 -10z m165 0 c0 -5 -4 -10 -10 -10 -5 0
-10 5 -10 10 0 6 5 10 10 10 6 0 10 -4 10 -10z m40 0 c0 -5 -5 -10 -11 -10 -5
0 -7 5 -4 10 3 6 8 10 11 10 2 0 4 -4 4 -10z m1280 -10 c43 -1 44 -1 25 -16
-14 -10 -29 -13 -50 -8 -16 4 -42 8 -57 9 -67 6 -72 8 -33 14 22 4 47 6 55 5
8 -1 35 -3 60 -4z m3434 -9 c26 -28 12 -41 -43 -41 -54 0 -61 4 -54 30 3 12
16 20 37 23 17 2 34 5 37 5 3 1 14 -7 23 -17z m116 9 c0 -5 -4 -10 -10 -10 -5
0 -10 5 -10 10 0 6 5 10 10 10 6 0 10 -4 10 -10z m-5233 -18 c12 -7 43 -12 68
-12 25 0 55 -5 66 -11 15 -8 24 -7 35 2 17 14 245 14 272 0 9 -5 109 -7 222
-4 272 6 461 8 463 6 3 -2 404 -12 719 -17 l267 -5 18 24 c11 14 33 27 56 30
l37 7 0 -36 c0 -26 7 -44 26 -63 14 -14 34 -50 44 -79 11 -30 30 -65 44 -79
14 -14 26 -29 26 -34 0 -4 19 -20 42 -35 40 -26 46 -27 135 -22 76 4 99 9 123
28 l31 22 44 -23 c35 -19 47 -21 65 -11 12 6 29 9 37 6 9 -4 27 1 41 10 17 12
52 18 106 20 45 1 106 11 136 20 144 45 228 75 265 94 51 26 116 27 139 1 21
-23 179 -55 229 -47 18 3 58 8 90 12 33 4 83 19 113 34 l54 28 0 -23 c0 -83
101 -100 500 -82 167 7 544 19 565 17 160 -12 155 -11 155 -36 0 -12 5 -26 10
-29 6 -3 10 -17 10 -29 0 -29 22 -49 44 -40 10 4 18 0 22 -10 10 -26 105 -51
151 -39 44 11 103 -2 111 -26 3 -10 -3 -12 -27 -6 -17 3 -286 8 -598 10 -313
2 -662 7 -778 11 -115 3 -721 6 -1345 6 -624 -1 -1585 -1 -2135 -1 -812 0
-2058 7 -2300 13 l-50 1 -3 186 -2 186 32 8 c48 10 323 14 463 7 66 -4 158 -4
205 0 47 4 209 8 360 9 151 2 302 6 335 9 93 10 238 5 262 -8z m4943 -18 c0
-8 -4 -14 -10 -14 -5 0 -10 9 -10 21 0 11 5 17 10 14 6 -3 10 -13 10 -21z
m590 22 c0 -3 -4 -8 -10 -11 -5 -3 -10 -1 -10 4 0 6 5 11 10 11 6 0 10 -2 10
-4z m-2218 -28 c-7 -7 -12 -8 -12 -2 0 14 12 26 19 19 2 -3 -1 -11 -7 -17z
m1368 8 c0 -8 -4 -17 -9 -21 -12 -7 -24 12 -16 25 9 15 25 12 25 -4z m160 4
c0 -5 -3 -10 -7 -11 -86 -6 -95 -5 -76 14 10 11 83 8 83 -3z m-264 -11 c7 -12
-15 -31 -31 -26 -5 2 -11 11 -13 20 -4 19 32 24 44 6z m-216 -52 c0 -12 -6
-17 -17 -15 -22 4 -30 38 -12 49 15 9 29 -7 29 -34z m98 31 c-3 -7 -8 -13 -13
-13 -5 0 -10 6 -12 13 -3 6 3 12 12 12 9 0 15 -6 13 -12z m-223 -19 c4 -11 4
-23 1 -26 -8 -9 -38 26 -31 37 10 16 23 12 30 -11z m-1535 -116 c-9 -14 -10
-10 -6 22 3 22 7 54 8 70 1 17 3 6 5 -22 2 -29 -1 -61 -7 -70z m1435 96 c4
-11 4 -23 1 -26 -7 -7 -36 22 -36 36 0 20 28 11 35 -10z m1370 0 c4 -6 8 -24
9 -40 2 -26 -1 -29 -30 -29 -17 0 -37 7 -45 16 -11 14 -9 15 21 12 38 -3 55
20 21 29 -12 3 -21 9 -21 14 0 13 37 11 45 -2z m-2585 -66 c-1 -33 -24 -68
-39 -59 -6 4 -8 12 -6 19 2 7 6 24 9 40 4 15 13 27 21 27 10 0 15 -10 15 -27z
m-325 -23 c-39 -40 -57 -40 -35 -1 6 12 19 21 30 21 10 0 22 5 25 10 3 6 9 10
13 10 3 0 -12 -18 -33 -40z m225 20 c0 -5 -4 -10 -10 -10 -5 0 -10 5 -10 10 0
6 5 10 10 10 6 0 10 -4 10 -10z m-433 -32 c-3 -8 -6 -5 -6 6 -1 11 2 17 5 13
3 -3 4 -12 1 -19z m3043 -17 c0 -12 -20 -25 -27 -18 -7 7 6 27 18 27 5 0 9 -4
9 -9z m-2743 -23 c-3 -8 -6 -5 -6 6 -1 11 2 17 5 13 3 -3 4 -12 1 -19z m-197
-14 c0 -8 -4 -12 -10 -9 -5 3 -10 10 -10 16 0 5 5 9 10 9 6 0 10 -7 10 -16z
m3010 -33 c0 -9 -11 -33 -25 -54 -38 -56 -82 -47 -77 15 2 19 -2 28 -13 28
-29 0 -15 18 23 30 20 7 41 16 46 21 12 11 46 -19 46 -40z m-6989 -210 c-6
-10 -7 -27 -4 -39 8 -31 -5 -72 -22 -72 -12 0 -15 14 -15 64 0 53 3 65 18 69
25 5 33 -2 23 -22z m166 12 c-9 -9 -20 -13 -24 -9 -4 4 -1 11 7 16 25 16 35
11 17 -7z m53 7 c13 -9 13 -11 0 -20 -22 -15 -30 -12 -30 10 0 22 8 25 30 10z
m93 1 c4 0 7 -31 5 -68 -3 -60 -5 -68 -23 -68 -16 0 -21 8 -25 45 -3 25 -11
55 -18 66 -17 32 -9 35 61 25z m4020 -1 l178 0 -20 -26 c-16 -20 -21 -41 -21
-85 0 -61 -8 -74 -40 -64 -16 5 -20 16 -21 48 -2 83 -19 109 -53 84 -16 -12
-17 -19 -8 -63 12 -55 10 -59 -35 -69 l-33 -7 0 59 c0 66 -9 87 -36 81 -16 -3
-19 -12 -17 -65 1 -64 -9 -79 -43 -66 -13 5 -15 15 -11 46 8 61 -2 107 -24
107 -24 0 -33 -37 -25 -99 l6 -49 -35 -6 c-19 -4 -44 -2 -55 4 -18 10 -20 19
-18 77 2 37 -1 67 -7 69 -22 8 -37 -16 -45 -75 -5 -35 -10 -64 -12 -66 -2 -2
-23 -5 -48 -6 l-45 -4 -3 73 c-2 55 -7 74 -18 79 -24 9 -34 -15 -34 -83 0 -47
-4 -63 -16 -68 -29 -11 -36 4 -30 71 10 107 1 102 189 106 89 1 171 2 182 0
11 -1 100 -3 198 -3z m-4419 -62 c-7 -64 -15 -78 -46 -78 -17 0 -37 45 -25 56
3 4 2 17 -3 30 -15 38 -3 54 42 54 l39 0 -7 -62z m163 -5 c-2 -57 -5 -68 -21
-71 -16 -4 -18 0 -12 28 3 18 6 50 6 71 0 28 4 39 15 39 12 0 14 -13 12 -67z
m353 -3 l0 -70 -29 0 c-28 0 -29 0 -26 59 2 67 9 81 36 81 17 0 19 -7 19 -70z
m110 31 c0 -21 3 -52 6 -69 5 -25 2 -31 -15 -37 -32 -10 -48 9 -45 52 2 21 3
50 3 66 1 22 6 27 26 27 22 0 25 -4 25 -39z m106 -30 c0 -59 -3 -70 -18 -74
-22 -6 -24 -3 -32 56 -9 61 -1 87 28 87 20 0 22 -4 22 -69z m122 -3 l-3 -73
-30 0 c-30 0 -30 1 -33 59 -4 75 1 86 38 86 l31 0 -3 -72z m498 60 c4 -6 0
-16 -9 -23 -13 -9 -16 -26 -14 -66 2 -48 0 -54 -18 -54 -17 0 -21 8 -25 57 -6
62 -12 73 -35 65 -11 -5 -15 -20 -15 -55 0 -53 -15 -78 -37 -61 -7 7 -13 32
-13 61 0 46 -2 49 -22 46 -20 -3 -23 -9 -23 -51 -1 -30 -6 -52 -15 -57 -20
-12 -52 7 -46 28 16 60 16 73 1 78 -25 10 -45 -15 -45 -58 0 -26 -5 -41 -15
-45 -25 -9 -29 3 -27 68 2 58 2 60 -20 57 -20 -3 -24 -10 -28 -60 -5 -60 -12
-74 -29 -63 -14 8 -14 100 -1 126 10 18 23 19 220 19 147 0 211 -3 216 -12z
m378 2 c2 -3 6 -37 8 -75 3 -69 3 -70 -22 -70 -23 0 -25 4 -28 58 -3 62 -19
80 -48 56 -11 -9 -15 -27 -12 -63 3 -49 2 -51 -22 -51 -23 0 -25 4 -28 45 -4
72 -10 90 -32 90 -24 0 -33 -30 -28 -91 3 -38 0 -44 -17 -44 -18 0 -20 6 -17
55 3 65 -9 90 -35 74 -13 -8 -19 -26 -21 -67 -2 -40 -7 -57 -19 -61 -25 -10
-31 3 -35 76 l-4 67 36 4 c47 5 318 3 324 -3z m494 -75 c-3 -79 -3 -80 -30
-83 -26 -3 -34 5 -29 32 1 5 -1 27 -4 48 -5 28 -12 38 -25 38 -23 0 -34 -31
-26 -75 5 -25 3 -34 -11 -39 -29 -12 -48 19 -45 74 1 37 -2 52 -13 56 -30 12
-47 -16 -43 -70 2 -42 0 -51 -14 -54 -15 -3 -18 5 -18 52 0 58 -11 76 -36 55
-10 -8 -14 -27 -13 -56 3 -47 -9 -67 -34 -57 -20 7 -30 52 -22 98 9 43 -14 59
-44 32 -13 -12 -21 -14 -26 -6 -20 32 2 35 219 35 l217 0 -3 -80z m190 75 l26
0 -22 -20 c-16 -15 -22 -32 -22 -65 0 -56 -8 -75 -30 -75 -24 0 -29 15 -23 71
4 30 1 49 -6 54 -19 11 -41 -15 -41 -47 0 -17 -4 -27 -10 -23 -5 3 -8 25 -6
48 3 23 5 46 5 51 1 4 11 6 24 3 12 -4 29 -2 37 3 8 6 21 8 28 5 8 -3 25 -5
40 -5z m436 -8 c-1 -7 -2 -43 -2 -82 -2 -62 -4 -70 -22 -70 -29 0 -42 33 -34
90 5 41 4 51 -10 56 -30 12 -46 -15 -46 -78 0 -44 -4 -60 -16 -65 -23 -9 -35
16 -28 59 4 24 0 48 -9 67 l-15 30 76 3 c100 4 107 3 106 -10z m234 8 l67 0 0
-78 c0 -70 -2 -77 -20 -77 -17 0 -20 7 -20 50 -1 58 -9 75 -36 75 -17 0 -19
-7 -19 -61 0 -52 -2 -60 -17 -57 -14 3 -18 14 -18 55 0 95 -50 95 -58 0 -5
-53 -16 -71 -39 -62 -20 8 -26 41 -20 104 l4 50 42 4 c22 2 47 2 54 0 8 -2 44
-3 80 -3z m292 -1 c0 -6 -4 -19 -10 -29 -5 -10 -11 -42 -12 -70 -3 -56 -8 -64
-38 -55 -18 6 -19 12 -14 76 7 66 6 69 -15 69 -12 0 -24 -8 -27 -17 -3 -10
-11 -30 -19 -45 -11 -22 -11 -29 1 -45 17 -23 17 -33 0 -33 -20 0 -27 13 -36
73 -4 29 -10 59 -14 68 -6 14 5 16 88 17 60 1 96 -3 96 -9z m331 -55 c7 -75
-5 -106 -40 -102 -21 2 -26 8 -24 28 4 49 -6 72 -30 68 -18 -2 -23 -10 -25
-46 -6 -85 -62 -59 -62 29 0 54 -5 60 -39 48 -22 -9 -23 -13 -16 -64 8 -65 4
-74 -31 -67 -34 6 -40 25 -24 85 11 45 11 52 -4 62 -9 7 -16 15 -16 18 0 4 69
5 153 3 l152 -3 6 -59z m91 -21 c-3 -55 -7 -73 -18 -73 -15 0 -17 19 -14 100
2 42 17 69 30 52 3 -4 4 -40 2 -79z m890 69 c-25 -19 -47 -92 -37 -122 3 -9
-1 -23 -9 -29 -25 -21 -39 20 -28 80 5 28 7 59 5 70 -5 17 0 19 43 19 49 0 49
0 26 -18z m344 -4 c-3 -13 -6 -53 -6 -90 0 -59 -2 -67 -21 -73 -33 -11 -44 10
-41 79 3 47 0 65 -12 75 -13 11 -19 11 -32 0 -14 -11 -15 -26 -10 -81 3 -37 3
-69 -1 -71 -5 -2 -28 -2 -52 1 l-44 4 6 59 c6 68 -13 106 -47 93 -16 -6 -18
-15 -13 -68 2 -34 3 -67 0 -73 -5 -14 -49 -18 -56 -5 -3 4 0 44 6 90 l11 82
159 0 159 0 -6 -22z m590 12 l31 0 6 -82 c5 -91 -4 -115 -41 -104 -20 7 -36
57 -44 141 -2 22 -8 30 -23 30 -18 0 -20 -6 -19 -60 1 -33 3 -69 5 -80 3 -16
-1 -20 -21 -20 -24 0 -25 2 -22 60 3 68 -13 103 -43 91 -14 -5 -16 -14 -11
-48 7 -40 -8 -108 -23 -108 -5 0 -11 31 -13 69 -6 80 -11 91 -39 84 -19 -5
-21 -11 -16 -52 4 -25 9 -58 13 -73 6 -27 5 -28 -30 -28 -34 0 -36 2 -36 33
-1 43 -16 107 -29 120 -8 8 -15 7 -26 -4 -12 -12 -13 -25 -5 -73 5 -32 7 -63
4 -68 -6 -9 -151 -5 -159 4 -2 2 -1 40 2 86 5 66 9 82 22 82 13 0 16 -12 16
-71 0 -58 3 -74 18 -83 26 -16 37 7 37 80 0 33 5 65 11 71 8 8 71 10 208 7
108 -2 210 -4 227 -4z m-3076 -10 c0 -5 -4 -12 -10 -15 -5 -3 -10 -19 -10 -34
0 -16 -3 -43 -6 -60 -6 -26 -11 -31 -35 -31 -29 0 -29 1 -29 59 0 33 -2 66 -5
73 -5 11 6 15 45 16 27 0 50 -3 50 -8z m110 2 c0 -4 -4 -12 -10 -18 -5 -5 -10
-36 -12 -69 -3 -57 -4 -60 -28 -60 -24 0 -25 2 -27 78 l-1 77 39 0 c21 0 39
-4 39 -8z m3371 -9 c12 -12 12 -29 3 -111 -6 -57 -9 -63 -28 -60 -18 3 -22 12
-28 72 -7 76 -19 96 -43 76 -11 -9 -15 -32 -15 -82 0 -61 -2 -69 -17 -66 -14
3 -20 19 -26 75 -7 60 -12 73 -29 79 -29 9 -36 -9 -25 -70 6 -30 6 -62 2 -72
-6 -14 -13 5 -24 66 -14 76 -18 85 -40 88 -23 4 -23 2 -18 -50 3 -29 9 -66 13
-81 6 -25 4 -28 -12 -25 -21 4 -31 37 -33 115 -1 32 4 53 12 57 20 9 298 -1
308 -11z m104 -60 c3 -38 8 -78 11 -91 4 -21 1 -23 -23 -20 -27 3 -28 5 -31
68 -4 76 3 110 22 110 10 0 16 -19 21 -67z m98 25 c8 -63 -5 -132 -24 -136
-14 -3 -18 10 -24 77 -7 86 -4 101 24 101 14 0 20 -10 24 -42z m103 -19 c-6
-64 -24 -113 -41 -114 -10 0 -20 138 -11 162 3 7 17 13 32 13 l27 0 -7 -61z
m90 49 c5 -7 9 -50 9 -96 l2 -83 -36 3 c-33 3 -36 5 -34 33 5 54 14 130 18
143 6 16 32 16 41 0z m127 -45 c11 -133 11 -133 -27 -133 -42 0 -49 16 -47
103 1 67 12 87 46 87 21 0 24 -6 28 -57z m85 44 c6 -7 12 -44 14 -82 3 -61 6
-70 22 -70 16 0 19 9 20 80 1 78 2 80 26 80 24 0 25 -4 36 -90 6 -49 10 -92 8
-94 -6 -6 -156 -2 -162 4 -7 7 -3 166 4 177 7 12 20 10 32 -5z m204 -52 c3
-33 8 -73 10 -90 3 -28 1 -30 -35 -33 -35 -3 -37 -2 -28 15 5 10 7 46 4 80 -7
72 0 96 24 91 14 -2 20 -17 25 -63z m153 51 c23 6 24 4 27 -58 3 -57 5 -63 26
-66 23 -4 24 -2 20 60 l-3 63 33 3 32 3 0 -85 c0 -78 -2 -85 -21 -91 -13 -5
-25 -2 -30 6 -6 11 -16 11 -51 2 -39 -11 -45 -10 -60 8 -22 26 -25 57 -5 40
11 -8 14 0 15 42 1 45 -2 53 -17 54 -15 1 -20 -8 -25 -52 -13 -114 -46 -144
-46 -42 0 35 -5 68 -11 74 -29 29 20 58 69 41 13 -4 34 -5 47 -2z m-5625 -47
c0 -5 -4 -9 -10 -9 -5 0 -10 7 -10 16 0 8 5 12 10 9 6 -3 10 -10 10 -16z
m5817 -1 c-3 -8 -6 -5 -6 6 -1 11 2 17 5 13 3 -3 4 -12 1 -19z m-6877 -29 c0
-10 -7 -19 -15 -19 -16 0 -19 9 -9 34 8 20 24 11 24 -15z m-319 -447 c11 -5
44 -5 73 -2 29 3 150 5 269 4 119 0 221 3 228 7 7 4 20 4 28 -1 9 -4 169 -11
356 -15 187 -3 426 -8 530 -10 609 -12 899 -15 1835 -19 801 -4 2121 -14 2195
-17 6 0 98 0 205 1 107 1 339 -2 515 -5 176 -4 454 -8 618 -9 253 -1 299 -3
307 -16 14 -22 12 -90 -2 -91 -40 -2 -448 2 -653 6 -132 3 -368 7 -525 9 -157
3 -352 7 -435 11 -82 3 -157 5 -165 5 -80 0 -354 3 -515 6 -110 2 -405 3 -655
3 -250 -1 -462 -1 -470 -1 -8 0 -267 3 -575 5 -553 5 -1002 12 -1470 22 -132
3 -346 5 -475 5 -129 0 -242 0 -250 0 -136 6 -929 8 -957 2 -35 -7 -38 -11
-41 -43 -2 -23 3 -43 15 -58 19 -23 21 -23 308 -27 160 -2 414 -9 565 -15 151
-6 433 -13 625 -14 193 -2 467 -6 610 -9 143 -4 546 -9 895 -11 723 -5 1881
-15 2230 -20 129 -2 321 -3 425 -4 537 -1 829 -6 842 -14 5 -3 48 -3 94 2 46
4 134 6 194 4 61 -2 173 -6 250 -8 l140 -4 0 -128 0 -128 -295 2 c-162 1 -522
4 -800 8 -278 3 -860 8 -1295 10 -1945 10 -2764 18 -3130 29 -82 2 -456 7
-830 11 -374 3 -707 8 -741 11 -52 4 -65 1 -88 -17 -55 -44 -55 -44 669 -54
270 -3 513 -8 540 -9 64 -5 168 -8 175 -6 16 5 362 4 365 -1 2 -3 44 -6 92 -7
649 -8 2461 -22 2848 -21 289 1 584 -2 1675 -16 201 -3 466 -6 590 -8 l225 -2
0 -30 0 -30 -75 0 c-41 0 -316 4 -610 9 -294 4 -681 9 -860 11 -1251 14 -1763
23 -1855 31 -33 3 -67 5 -75 4 -8 -1 -67 -2 -130 -2 -63 0 -227 1 -365 1 -137
0 -257 0 -265 0 -84 3 -569 11 -960 16 -267 3 -559 8 -650 10 -91 3 -307 7
-480 9 -298 5 -776 16 -830 19 -22 2 -25 -2 -23 -32 0 -18 6 -38 13 -45 7 -7
57 -12 133 -12 67 -1 212 -4 322 -8 476 -14 640 -18 970 -21 193 -1 422 -5
510 -9 88 -3 387 -8 665 -11 472 -4 1413 -15 1435 -16 6 0 132 0 280 1 200 1
1220 -7 1355 -11 8 0 228 0 489 0 486 1 992 -7 1000 -14 6 -7 12 -1094 5
-1148 l-6 -47 -26 19 c-15 10 -36 20 -47 23 -15 3 -19 10 -17 31 2 17 -2 27
-10 28 -80 4 -190 17 -196 23 -4 4 1 14 12 21 13 10 48 14 120 13 105 -2 126
3 126 28 0 12 -27 20 -55 15 -29 -6 -190 0 -197 7 -5 5 -2 15 7 22 13 11 25
11 61 2 61 -16 94 -15 94 3 0 18 -50 31 -138 34 -7 1 -10 6 -7 12 4 6 35 9 73
8 109 -4 152 14 152 64 0 18 -55 52 -100 62 -59 13 -146 8 -173 -10 -22 -14
-27 -25 -29 -73 l-3 -57 -100 -6 c-132 -8 -155 -15 -155 -45 0 -13 9 -28 21
-35 19 -10 110 -27 183 -34 54 -6 62 -45 8 -44 -56 2 -183 -14 -188 -23 -4 -5
3 -19 15 -32 14 -15 47 -27 111 -40 123 -25 136 -44 33 -52 -104 -9 -105 -9
-101 -56 3 -46 31 -75 48 -48 5 8 7 25 4 36 -7 27 21 39 67 29 23 -5 35 -16
46 -43 8 -21 21 -44 29 -53 13 -15 6 -17 -83 -23 -127 -8 -1575 6 -1953 19
-268 9 -1833 20 -3640 24 -429 1 -759 3 -850 3 -47 1 -107 0 -135 -2 -70 -4
-224 6 -233 14 -4 4 -8 51 -9 103 -1 60 -6 99 -13 103 -8 5 -7 9 3 13 21 8 20
-42 19 1077 0 783 1 845 18 865 13 16 15 15 23 -14 4 -18 17 -35 28 -39z m939
-147 c-7 -8 -17 -15 -22 -15 -6 0 -5 7 2 15 7 8 17 15 22 15 6 0 5 -7 -2 -15z
m6062 -1451 c9 -3 19 -11 22 -19 7 -19 -25 -27 -94 -23 -43 2 -56 7 -58 21 -6
31 55 41 130 21z m-198 -150 c16 -41 -33 -49 -138 -22 -64 16 -24 33 85 37 35
1 48 -3 53 -15z m216 -160 c12 -12 8 -14 -32 -14 -25 0 -59 -3 -77 -6 -24 -5
-32 -2 -37 11 -4 9 -2 20 5 24 19 12 124 0 141 -15z m-214 5 c3 -6 1 -16 -4
-21 -13 -13 -114 2 -119 17 -4 14 114 17 123 4z m267 -76 c15 -9 6 -31 -15
-36 -41 -9 -186 -8 -192 2 -15 23 7 40 57 44 52 4 136 -2 150 -10z m99 -75 c1
-60 -1 -90 -7 -96 -7 -7 -221 -17 -285 -13 -11 1 -15 14 -16 52 l0 51 92 -5
c73 -4 95 -2 105 9 7 8 17 13 23 11 14 -5 66 21 66 33 0 6 5 10 10 10 6 0 11
-24 12 -52z m-7164 -118 c12 0 22 -4 22 -10 0 -5 -22 -10 -50 -10 -47 0 -60 7
-43 24 4 4 17 5 28 2 11 -3 30 -6 43 -6z m122 -10 c0 -5 -6 -10 -12 -13 -17
-5 -48 3 -48 13 0 10 30 18 48 12 6 -2 12 -8 12 -12z m695 7 c22 0 49 1 60 1
11 1 74 0 140 -3 66 -2 361 -4 655 -5 294 -1 564 -5 600 -9 36 -4 78 -4 95 0
29 9 1228 13 1400 5 77 -4 344 -6 425 -4 14 1 131 -2 260 -6 321 -9 972 -16
1615 -17 226 -1 651 -4 840 -7 11 0 73 1 138 4 l118 4 -3 -28 -3 -27 -170 -6
c-180 -6 -708 -3 -1140 7 -143 3 -386 7 -540 9 -154 3 -383 6 -510 9 -936 18
-1768 28 -2065 24 -107 -1 -349 -1 -537 0 -273 2 -343 0 -343 -10 0 -10 -2
-10 -9 0 -6 11 -116 14 -552 17 -299 2 -632 7 -739 10 -107 4 -217 6 -244 5
-60 -2 -126 9 -126 20 0 5 86 9 191 9 105 0 193 1 195 4 2 2 50 1 106 -2 57
-3 121 -5 143 -4z m-160 -93 c154 -3 289 -6 300 -6 11 0 110 0 220 1 537 3
1161 -3 1173 -12 8 -7 20 -6 35 0 16 7 29 8 41 1 10 -5 29 -7 44 -2 28 7 1208
7 1407 -1 164 -6 482 -13 930 -20 220 -3 470 -8 555 -11 85 -3 162 -5 170 -5
8 1 53 0 100 -1 84 -2 296 -2 335 0 71 5 805 -4 810 -9 3 -4 38 -5 78 -2 85 5
255 7 279 3 29 -5 42 -54 32 -123 -9 -61 -10 -62 -44 -67 -20 -4 -40 -9 -46
-13 -9 -5 -234 -10 -454 -9 -36 0 -132 0 -215 0 -82 0 -438 3 -790 6 -352 4
-858 9 -1125 11 -267 3 -541 8 -610 12 -97 6 -1275 7 -2090 2 -204 -1 -1864
11 -1866 14 -7 7 -6 225 1 237 5 9 60 10 229 5 121 -4 347 -9 501 -11z"/>
<path d="M1120 7984 c0 -15 26 -19 34 -5 3 5 -3 11 -14 14 -13 3 -20 0 -20 -9z"/>
<path d="M2138 13399 c-22 -12 -24 -85 -4 -111 24 -32 44 -22 51 25 13 82 -4
112 -47 86z"/>
<path d="M2562 13388 c-28 -28 -2 -108 32 -95 29 11 17 107 -14 107 -3 0 -11
-5 -18 -12z"/>
<path d="M937 13144 c-74 -31 -107 -53 -107 -70 0 -7 -8 -19 -18 -26 -22 -17
-64 -73 -86 -116 -17 -33 -17 -34 4 -39 18 -5 20 -10 14 -42 -4 -20 -7 -40 -8
-46 0 -5 8 -10 19 -10 14 0 23 11 33 40 22 71 72 160 95 170 12 6 24 21 27 35
5 21 13 26 50 31 25 4 59 4 76 2 23 -4 33 -1 37 11 4 10 1 19 -8 22 -23 9 -18
26 5 19 14 -4 20 -2 20 9 0 19 -6 23 -55 29 -29 4 -55 -1 -98 -19z"/>
<path d="M954 13018 c-4 -6 -2 -14 4 -16 7 -2 12 -8 12 -13 0 -4 -7 -6 -15 -3
-26 10 -17 -31 10 -46 23 -12 28 -11 50 10 33 31 32 46 -5 65 -35 18 -46 19
-56 3z"/>
<path d="M1092 12938 c-6 -6 -12 -19 -12 -29 0 -9 -5 -30 -11 -48 -9 -26 -16
-31 -38 -29 -35 4 -44 -36 -9 -46 39 -10 47 -7 64 27 20 38 31 47 61 47 26 0
42 43 26 69 -13 20 -64 26 -81 9z"/>
<path d="M947 12803 c-14 -13 -7 -50 12 -67 16 -14 26 -16 48 -9 38 13 35 27
-10 57 -42 29 -41 29 -50 19z"/>
<path d="M5760 12813 c-68 -47 -90 -85 -90 -156 0 -28 8 -53 26 -79 l26 -37
-24 -63 c-36 -90 -51 -198 -46 -326 l3 -112 -25 -2 c-14 0 -85 -2 -158 -2
-121 -1 -135 -3 -148 -21 -8 -11 -11 -26 -8 -35 4 -8 8 -36 10 -61 4 -93 12
-98 158 -105 44 -2 85 -5 92 -8 16 -6 31 -62 40 -148 6 -64 5 -68 -13 -68 -11
0 -26 -6 -32 -14 -14 -17 -8 -33 47 -109 41 -57 38 -17 46 -575 3 -194 8 -357
11 -362 3 -4 7 -221 10 -482 6 -561 13 -932 19 -1083 6 -137 15 -585 21 -1110
12 -954 15 -1080 28 -1094 51 -57 135 -121 160 -121 15 0 27 4 27 9 0 5 15 31
33 57 18 27 37 58 41 69 4 11 9 290 11 620 3 330 7 656 9 725 9 207 24 1385
33 2515 6 839 5 798 21 818 7 9 16 41 19 71 6 53 5 56 -22 66 -30 11 -30 24
-3 142 18 79 26 85 88 69 54 -14 100 -8 100 11 0 7 11 21 24 33 19 16 25 33
30 87 5 65 4 68 -22 86 -25 18 -38 19 -147 13 -71 -4 -125 -4 -132 2 -8 6 -13
33 -14 66 0 31 -5 92 -11 136 -5 44 -10 98 -9 119 0 22 -4 43 -9 46 -6 4 -13
17 -16 31 -15 71 -15 88 0 117 23 44 20 109 -8 167 -28 60 -49 80 -105 100
-55 19 -61 19 -91 -2z m102 -74 c27 -15 60 -92 52 -123 -7 -28 -41 -63 -68
-68 -10 -1 -23 -10 -29 -19 -14 -22 16 -85 43 -94 27 -8 25 -28 -2 -40 -39
-17 -29 -40 17 -40 33 0 40 -3 40 -20 0 -15 -9 -21 -39 -26 -37 -6 -60 -25
-50 -41 3 -4 25 -8 48 -8 45 0 74 -19 61 -40 -4 -7 -27 -10 -54 -8 -44 3 -46
2 -49 -24 -3 -26 -1 -27 50 -30 45 -3 53 -6 53 -23 0 -16 -7 -20 -35 -20 -34
0 -35 -1 -33 -37 l2 -38 -64 0 -64 0 -7 57 c-9 78 3 284 22 363 23 96 23 112
3 141 -32 45 -33 73 -4 107 22 27 36 34 78 41 5 0 17 -4 29 -10z m155 -765
c125 -3 228 -6 229 -7 1 -1 4 -23 7 -49 l7 -48 -103 -1 c-56 -1 -111 -1 -122
0 -11 0 -33 2 -50 2 -16 1 -102 -1 -190 -5 -88 -5 -167 -7 -175 -6 -8 1 -61 4
-117 6 -57 3 -103 8 -104 12 0 4 -2 19 -4 34 -6 47 16 58 113 59 48 0 96 5
107 10 11 5 54 7 97 4 42 -3 179 -8 305 -11z m-138 -170 c3 -3 -5 -11 -17 -20
-40 -28 -28 -44 36 -45 69 -1 115 -13 91 -23 -9 -4 -20 -6 -25 -4 -5 1 -24 -1
-41 -5 -41 -8 -46 -42 -8 -51 18 -5 25 -13 25 -31 0 -31 -26 -39 -120 -36
-130 3 -123 -1 -144 101 -10 50 -16 97 -13 105 8 20 195 28 216 9z m159 -275
c-3 -22 -7 -22 -173 -26 -134 -3 -174 -1 -189 10 -11 8 -16 18 -13 23 3 6 89
11 192 12 l187 3 -4 -22z m-223 -101 c2 -7 6 -254 10 -548 3 -294 8 -623 10
-730 2 -107 7 -820 10 -1585 3 -764 8 -1479 11 -1588 4 -175 3 -198 -11 -204
-47 -18 -50 9 -59 637 -3 201 -8 424 -11 495 -3 72 -7 315 -10 540 -8 738 -25
1684 -30 1751 -7 76 -14 340 -20 779 -4 220 -7 407 -7 415 -3 46 1 50 52 50
32 0 52 -5 55 -12z m197 -493 c-4 -706 -11 -1480 -17 -1895 -12 -840 -16
-1094 -21 -1589 -3 -289 -7 -551 -9 -584 -3 -55 -30 -127 -47 -127 -4 0 -7 78
-7 173 0 94 -3 465 -6 822 -3 358 -8 1053 -11 1545 -2 492 -7 994 -9 1115 -8
394 -12 1034 -6 1040 3 3 35 5 71 3 l65 -3 -3 -500z"/>
<path d="M4624 12803 c-12 -10 -31 -24 -42 -32 -48 -34 -52 -101 -10 -193 21
-47 21 -48 3 -90 -10 -24 -24 -50 -31 -58 -6 -8 -15 -37 -19 -65 -4 -27 -10
-61 -12 -75 -3 -14 -5 -74 -6 -135 -2 -124 -1 -122 -84 -108 -29 5 -71 4 -108
-2 -59 -11 -60 -12 -57 -40 2 -17 4 -64 5 -105 l2 -75 120 -10 120 -10 6 -60
c4 -33 12 -73 18 -88 16 -42 14 -56 -13 -69 -14 -6 -27 -16 -30 -23 -6 -17 28
-89 55 -116 22 -22 23 -30 25 -204 3 -256 19 -1229 29 -1755 9 -474 17 -1353
18 -2034 l2 -698 24 -17 c12 -9 42 -33 66 -54 24 -21 57 -42 74 -47 28 -8 34
-5 68 34 21 24 43 63 50 87 8 32 12 230 13 709 1 366 4 757 6 870 2 113 5 852
8 1643 l5 1438 31 49 c38 59 39 113 3 118 -24 4 -31 30 -13 48 5 5 15 37 20
69 18 103 18 103 103 103 49 0 84 5 105 16 31 16 32 19 32 80 0 81 -15 124
-46 132 -13 3 -78 5 -144 3 -139 -5 -133 -9 -127 96 5 87 -30 301 -59 357 -18
34 -18 30 12 63 22 24 26 35 22 74 -10 105 -81 182 -172 188 -38 3 -56 -1 -72
-14z m140 -93 c45 -50 49 -95 11 -130 -15 -14 -25 -35 -25 -52 0 -38 -25 -46
-54 -19 -12 11 -28 21 -34 21 -6 0 -14 11 -18 25 -3 14 -15 42 -25 62 -26 50
-24 72 8 105 42 44 90 39 137 -12z m-15 -268 c42 -9 54 -32 16 -32 -26 0 -26
-1 -21 -52 6 -52 17 -68 49 -68 26 0 21 -19 -9 -30 -33 -13 -27 -32 14 -45 37
-11 42 -32 10 -37 -34 -5 -36 -41 -3 -56 33 -15 33 -42 0 -42 -18 0 -28 -7
-35 -25 -9 -24 -12 -24 -102 -22 l-93 2 2 110 c1 120 25 266 48 301 13 20 18
21 52 12 21 -5 53 -13 72 -16z m379 -475 c14 -9 17 -83 3 -91 -5 -4 -22 -1
-37 4 -20 8 -40 7 -81 -5 -36 -11 -68 -13 -101 -9 -52 8 -73 9 -247 5 -66 -2
-168 1 -227 4 l-108 8 0 42 c0 23 3 44 6 47 8 9 777 3 792 -5z m-281 -160 c4
-5 0 -13 -10 -18 -41 -23 -5 -56 47 -43 15 3 26 2 26 -4 0 -12 -24 -22 -55
-22 -33 0 -55 -10 -55 -25 0 -15 22 -25 56 -25 32 0 31 -18 -2 -26 -22 -6 -25
-11 -20 -35 l5 -28 -102 1 c-81 0 -104 -3 -112 -16 -14 -22 -6 -25 71 -28 48
-1 80 4 103 15 18 9 38 14 44 10 5 -3 23 -6 39 -5 33 1 47 -20 28 -43 -10 -12
-39 -15 -139 -15 -190 0 -237 14 -181 53 18 12 19 19 10 63 -19 91 -30 173
-25 186 4 10 38 13 134 13 71 0 133 -4 138 -8z m-111 -527 c13 -1364 18 -3103
13 -4247 -2 -318 -3 -322 -53 -262 -25 30 -26 34 -26 177 0 81 -3 431 -6 777
-3 347 -7 972 -9 1390 -3 418 -7 832 -10 920 -14 416 -20 1379 -10 1396 4 5
28 9 53 7 l47 -3 1 -155z m121 152 c9 -6 12 -87 13 -312 0 -168 1 -629 2
-1025 3 -798 -9 -2833 -18 -3130 -5 -187 -14 -235 -44 -235 -10 0 -10 57 -11
860 0 1408 -2 3151 -2 3460 -1 195 2 363 6 373 7 18 33 22 54 9z"/>
<path d="M6878 12807 c-46 -21 -64 -45 -83 -108 l-19 -61 23 -44 c13 -24 28
-44 33 -44 5 0 16 -7 24 -15 13 -13 13 -17 0 -37 -20 -32 -47 -181 -59 -334
l-10 -130 -151 2 c-133 2 -154 0 -189 -18 l-39 -20 6 -50 c7 -54 25 -97 48
-116 8 -6 57 -12 113 -13 142 -2 141 -1 147 -96 3 -43 9 -86 13 -95 4 -11 0
-23 -14 -35 -12 -9 -21 -26 -21 -36 0 -19 24 -69 47 -98 13 -16 18 -141 28
-729 3 -140 8 -340 11 -445 3 -104 7 -449 9 -765 2 -316 6 -726 10 -910 3
-184 7 -499 10 -700 3 -201 7 -444 11 -540 3 -96 7 -274 9 -395 2 -212 8 -275
25 -275 4 0 36 -27 70 -60 81 -78 106 -77 147 5 11 22 28 55 37 72 22 41 21
15 41 2763 14 1954 14 1964 28 1975 8 6 17 24 20 40 3 17 8 40 12 51 5 15 1
27 -13 40 -17 17 -18 25 -10 74 6 30 11 77 12 104 l1 49 138 -1 c171 -1 173 1
175 107 2 107 2 107 -199 110 -90 1 -165 4 -167 6 -2 2 -4 38 -4 80 1 55 5 82
16 94 17 19 11 61 -9 61 -8 0 -18 22 -25 58 -11 56 -26 106 -51 169 -12 28
-11 37 8 70 29 54 36 105 20 145 -19 46 -81 98 -116 98 -16 0 -41 2 -57 5 -16
2 -41 -1 -56 -8z m107 -61 c23 -10 41 -28 52 -51 17 -36 17 -37 -16 -103 -19
-37 -45 -79 -59 -94 -30 -32 -23 -46 23 -45 19 1 37 -2 41 -6 13 -13 -6 -37
-30 -37 -15 0 -30 -8 -36 -19 -15 -28 -13 -31 19 -31 74 0 109 -42 49 -58 -23
-6 -34 -15 -36 -30 -3 -21 0 -22 40 -20 40 3 43 1 46 -24 3 -24 0 -27 -35 -30
-31 -2 -39 -7 -41 -26 -3 -21 -1 -23 25 -18 15 3 34 2 42 -3 19 -12 6 -41 -17
-41 -11 0 -25 -7 -33 -16 -16 -19 2 -34 44 -34 29 0 35 -11 15 -28 -8 -6 -44
-7 -98 -2 -47 4 -91 5 -97 3 -18 -7 -33 40 -33 105 0 72 37 258 74 375 15 47
15 48 -9 69 -14 12 -25 26 -25 31 0 5 -7 24 -16 43 -14 28 -14 39 -4 64 17 41
57 50 115 26z m180 -772 c121 -3 236 -7 255 -8 33 -1 35 -3 38 -36 5 -69 77
-64 -835 -60 -126 0 -146 9 -141 64 l3 31 142 5 c78 3 145 9 149 13 5 4 44 6
89 3 44 -3 179 -8 300 -12z m-160 -176 c6 -14 24 -26 48 -31 45 -11 47 -19 6
-34 -42 -16 -32 -38 18 -39 53 -2 68 -11 52 -31 -7 -8 -21 -12 -30 -10 -25 7
-54 -16 -46 -36 5 -14 -8 -16 -120 -13 -123 2 -126 3 -135 27 -12 30 -28 162
-22 169 7 6 97 17 164 19 48 1 57 -2 65 -21z m161 -259 c6 -11 -63 -40 -96
-40 -93 -1 -268 9 -282 15 -21 9 -23 22 -5 29 21 9 377 5 383 -4z m-208 -111
c7 -9 9 -307 6 -918 -2 -498 -4 -1554 -5 -2347 -2 -1553 1 -1471 -51 -1423
-20 18 -22 31 -23 152 -8 585 -16 1194 -20 1458 -3 173 -7 536 -10 805 -3 270
-8 591 -11 715 -4 124 -8 333 -10 465 -2 132 -7 431 -12 665 -4 234 -6 428 -4
433 6 12 129 8 140 -5z m155 -2 c3 -7 4 -128 1 -267 -2 -140 -6 -994 -8 -1899
-3 -905 -8 -1715 -11 -1800 -3 -85 -7 -281 -10 -434 -5 -241 -8 -282 -22 -298
-9 -10 -21 -28 -27 -41 -6 -12 -21 -23 -32 -25 -28 -4 -41 28 -19 44 9 7 13
18 9 28 -3 9 -3 24 2 34 4 9 9 215 10 457 1 242 5 807 8 1255 3 448 5 914 4
1035 -5 564 7 1899 17 1916 9 14 72 11 78 -5z"/>
<path d="M2330 11475 c0 -14 29 -35 49 -35 18 0 12 29 -8 40 -27 14 -41 13
-41 -5z"/>
<path d="M2300 11427 c0 -19 21 -37 42 -37 23 0 24 35 2 44 -26 10 -44 7 -44
-7z"/>
<path d="M1181 10336 c-9 -11 -10 -20 -1 -36 16 -29 54 -23 58 9 6 37 -34 55
-57 27z"/>
<path d="M1333 10313 c-31 -12 -1 -79 30 -67 13 5 17 15 15 38 -3 30 -19 41
-45 29z"/>
<path d="M4938 5507 c-32 -13 -37 -37 -9 -44 11 -3 21 -15 23 -27 3 -18 9 -21
53 -21 47 0 50 2 53 27 2 19 -2 28 -17 33 -12 3 -26 15 -31 26 -12 21 -31 23
-72 6z"/>
<path d="M5123 4513 c-13 -2 -23 -11 -23 -18 0 -16 97 -46 143 -44 17 1 49 -2
70 -6 33 -6 37 -5 37 13 0 28 -8 32 -90 37 -39 2 -79 9 -90 15 -10 5 -20 9
-22 9 -2 -1 -13 -4 -25 -6z"/>
<path d="M6293 5103 c-20 -7 -15 -31 7 -43 16 -9 22 -8 26 5 7 17 -1 45 -13
44 -4 0 -14 -3 -20 -6z"/>
<path d="M6198 5079 c-28 -16 -21 -41 27 -94 34 -38 46 -47 53 -36 13 19 -1
72 -28 110 -26 34 -27 35 -52 20z"/>
<path d="M6350 4985 c0 -29 34 -36 44 -9 8 21 -1 34 -25 34 -14 0 -19 -7 -19
-25z"/>
<path d="M6384 4879 c-9 -16 35 -54 49 -40 5 5 7 17 5 27 -4 22 -43 31 -54 13z"/>
<path d="M6680 5396 c0 -35 10 -56 26 -56 15 0 18 21 8 58 -8 30 -34 29 -34
-2z"/>
<path d="M6917 5393 c-3 -4 -3 -21 0 -36 7 -38 83 -78 107 -57 9 7 16 21 16
32 0 17 -5 19 -30 13 -25 -5 -34 -1 -59 25 -16 18 -31 28 -34 23z"/>
<path d="M6594 5323 c4 -16 10 -41 13 -58 7 -39 21 -55 40 -48 19 7 11 52 -18
99 -25 41 -44 45 -35 7z"/>
<path d="M6803 5174 c-7 -19 11 -39 26 -30 16 10 13 33 -4 40 -9 3 -18 -1 -22
-10z"/>
<path d="M3643 5418 c-6 -7 -13 -22 -16 -33 -5 -19 -5 -19 -12 3 -10 30 -29
28 -44 -5 l-13 -28 -15 23 c-19 27 -34 28 -51 2 -17 -28 -50 -25 -62 5 -12 32
-23 32 -44 -1 -20 -30 -38 -27 -46 6 -8 35 -26 35 -39 0 -12 -36 -33 -35 -41
1 -8 31 -32 31 -40 -1 -7 -28 -50 -42 -50 -16 0 27 -21 28 -49 2 -15 -14 -30
-26 -34 -26 -4 0 -13 16 -22 36 -17 41 -38 41 -43 1 -4 -34 -20 -35 -32 -2
-11 29 -25 32 -39 8 -9 -17 -10 -17 -28 0 -27 23 -31 22 -41 -15 -11 -45 -30
-46 -48 -3 -19 47 -40 41 -37 -11 5 -68 -6 -65 200 -57 214 7 512 6 593 -3 45
-5 147 -7 183 -5 13 1 3 104 -10 108 -7 3 -19 -12 -27 -32 -20 -46 -47 -44
-57 3 -9 42 -22 57 -36 40z"/>
<path d="M3829 5402 c-20 -28 -13 -94 10 -90 21 4 32 72 16 95 -11 14 -13 14
-26 -5z"/>
<path d="M2660 5385 c-11 -13 -11 -19 3 -33 20 -19 41 -5 35 24 -4 24 -22 28
-38 9z"/>
<path d="M2725 5388 c-2 -7 -6 -26 -7 -43 -3 -26 0 -30 22 -30 18 0 26 6 28
22 6 40 -31 84 -43 51z"/>
<path d="M3686 5258 c-3 -13 -7 -34 -8 -48 -2 -17 -9 -25 -23 -25 -15 0 -21 9
-26 38 -7 44 -13 52 -34 44 -10 -4 -15 -19 -15 -46 0 -33 -4 -40 -25 -45 -35
-9 -45 -1 -45 39 0 19 -5 37 -11 40 -14 9 -40 -26 -35 -47 4 -18 -20 -45 -30
-35 -4 3 -9 21 -13 39 -9 42 -32 43 -43 1 -11 -41 -24 -42 -32 -2 -7 38 -26
34 -46 -9 -17 -35 -50 -44 -50 -13 0 59 -36 69 -46 14 -7 -38 -18 -53 -41 -53
-8 0 -13 15 -13 41 0 36 -2 40 -22 37 -20 -3 -23 -9 -22 -40 1 -37 0 -38 -33
-38 -34 0 -36 3 -47 53 -9 41 -36 35 -36 -8 0 -25 -4 -35 -16 -35 -8 0 -13 4
-9 10 3 5 3 21 -1 35 -9 38 -38 28 -44 -15 -6 -44 -24 -46 -28 -2 -6 56 -42
35 -42 -24 0 -17 -6 -24 -19 -24 -14 0 -17 6 -13 26 5 28 -12 46 -35 37 -7 -3
-13 -16 -13 -28 0 -29 -10 -36 -55 -40 -38 -3 -54 10 -36 28 6 6 11 24 11 39
0 21 -5 28 -19 28 -13 0 -25 -15 -40 -50 -23 -53 -51 -67 -51 -26 0 34 -23 54
-54 49 -59 -12 -60 -63 -1 -63 33 0 35 -2 29 -26 l-7 -26 89 6 c110 7 298 17
424 21 52 2 109 6 125 9 17 3 98 8 180 12 83 4 155 11 161 16 7 5 33 4 63 -3
44 -9 56 -8 77 6 13 8 28 14 32 11 4 -3 14 -1 22 4 11 7 12 19 4 56 -10 52
-30 69 -38 32z"/>
<path d="M3772 5267 c-19 -23 -23 -54 -8 -66 24 -20 42 -4 38 34 -5 40 -15 51
-30 32z"/>
<path d="M3859 5264 c-7 -9 -12 -29 -11 -44 2 -20 -3 -33 -19 -44 -15 -10 -20
-19 -14 -25 9 -9 84 -14 178 -12 l37 1 0 48 c0 62 -12 81 -39 65 -18 -11 -22
-10 -31 8 -16 29 -42 6 -40 -35 3 -49 1 -58 -12 -54 -8 3 -14 23 -15 47 -2 52
-14 68 -34 45z"/>
<path d="M2671 2754 c0 -11 3 -14 6 -6 3 7 2 16 -1 19 -3 4 -6 -2 -5 -13z"/>
<path d="M6637 2303 c-4 -3 -7 -14 -7 -23 0 -10 -6 -23 -14 -29 -11 -9 -14
-41 -15 -129 0 -64 0 -123 -1 -129 0 -9 -24 -13 -85 -13 -77 0 -86 2 -110 26
-28 28 -48 26 -95 -7 -22 -15 -63 -18 -370 -24 -312 -6 -426 -7 -470 -2 -8 1
-62 -2 -120 -6 -58 -4 -215 -9 -350 -12 -135 -3 -310 -8 -390 -10 -80 -3 -293
-7 -475 -10 -181 -3 -388 -8 -460 -10 -286 -11 -571 -14 -1245 -14 -388 0
-718 0 -735 0 -16 0 -183 -3 -370 -6 l-340 -8 -51 -46 c-28 -25 -63 -54 -78
-64 -14 -10 -26 -22 -26 -27 0 -16 62 -70 88 -77 15 -3 41 -17 58 -31 29 -23
39 -24 185 -28 85 -2 269 -8 409 -13 140 -4 289 -9 330 -9 41 0 203 -3 360 -7
157 -3 386 -8 510 -10 124 -3 290 -7 370 -11 303 -13 518 -19 1070 -29 173 -4
340 -8 370 -10 30 -3 390 -7 800 -11 1025 -8 907 -3 959 -42 40 -29 46 -31 66
-18 25 16 176 11 187 -7 11 -18 21 -194 13 -252 -3 -30 -4 -64 0 -75 9 -28 66
-41 128 -29 84 15 89 25 87 159 -3 207 -2 226 13 238 14 12 123 38 212 52 28
4 68 12 90 18 22 6 62 16 88 23 27 7 51 18 54 26 3 7 11 13 19 13 17 0 18 12
2 28 -9 9 -7 12 8 12 12 0 29 -9 39 -20 13 -15 31 -20 67 -20 61 0 102 18 156
68 39 37 42 44 42 91 0 54 -19 113 -47 143 -23 26 -120 51 -171 44 -47 -6
-111 -36 -131 -60 -16 -19 -48 -20 -87 -5 -40 15 -179 32 -251 30 -53 -1 -64
2 -73 19 -6 11 -10 74 -8 152 2 131 -5 170 -36 190 -14 10 -160 10 -169 1z
m113 -50 l33 -6 -9 -446 c-4 -245 -9 -482 -10 -526 0 -44 -2 -87 -3 -96 -2
-23 -54 -44 -78 -31 -16 9 -18 25 -19 124 -1 62 -4 181 -7 263 -6 137 9 683
18 713 5 13 27 15 75 5z m-355 -325 c4 -18 6 -57 4 -88 -2 -30 -4 -103 -4
-162 0 -83 -3 -108 -13 -108 -11 0 -13 28 -10 138 1 75 -1 163 -5 195 -6 47
-5 57 7 57 8 0 17 -14 21 -32z m193 -4 c13 -4 17 -135 6 -218 -6 -41 -10 -46
-32 -46 -25 0 -25 0 -19 -71 5 -60 4 -70 -10 -67 -20 4 -25 63 -12 139 11 68
5 89 -27 89 -21 0 -24 -5 -24 -39 0 -22 -5 -43 -12 -47 -8 -5 -9 14 -3 77 4
46 8 106 9 132 1 30 7 52 16 57 13 8 73 5 108 -6z m-281 -23 c4 -14 7 -53 8
-86 l0 -60 -1345 2 c-740 0 -1624 5 -1965 9 -759 9 -1162 10 -1625 5 -195 -2
-368 0 -383 4 -24 6 -29 4 -34 -14 -3 -11 -13 -21 -22 -21 -46 0 -34 29 32 77
l52 38 90 -4 c50 -3 167 -4 260 -3 94 0 267 1 385 1 118 0 231 -1 250 -1 1027
2 1239 2 1450 7 91 2 350 6 575 9 226 3 439 8 475 11 36 3 180 8 320 11 503
11 581 13 598 18 9 3 156 8 325 10 170 3 310 6 312 8 2 2 56 3 119 4 l116 1 7
-26z m1160 14 c57 -24 73 -43 73 -87 0 -56 -23 -102 -63 -126 -42 -27 -67 -28
-108 -3 -40 25 -59 62 -59 120 0 51 20 80 70 100 35 14 45 13 87 -4z m-335
-43 c48 -10 92 -22 98 -28 12 -12 15 -114 5 -166 -4 -22 -13 -38 -21 -38 -9 0
-14 12 -14 38 0 44 -8 59 -35 64 -18 3 -20 -2 -17 -56 3 -63 -6 -77 -40 -68
-16 4 -19 12 -16 61 3 60 -5 81 -27 81 -24 0 -36 -38 -33 -98 3 -55 2 -57 -22
-57 -24 0 -25 2 -25 69 -1 54 -5 72 -18 80 -27 17 -39 -6 -45 -83 -3 -53 -8
-71 -19 -71 -12 0 -13 15 -7 90 l7 90 -26 0 c-24 0 -26 -4 -32 -57 -10 -89
-22 -106 -19 -28 2 71 11 154 21 189 5 17 12 18 102 12 53 -4 135 -14 183 -24z
m-6034 -169 c3 -19 -1 -23 -22 -23 -29 0 -39 11 -30 35 10 24 48 15 52 -12z
m183 10 c19 -23 -2 -33 -67 -33 -49 0 -64 3 -64 15 0 7 8 19 18 24 23 14 101
10 113 -6z m119 -8 c17 -21 5 -32 -30 -27 -28 4 -39 20 -23 35 11 12 40 8 53
-8z m137 0 c8 -22 0 -27 -47 -31 -41 -3 -52 10 -28 34 17 17 67 15 75 -3z
m124 -5 c27 -22 27 -21 -19 -25 -37 -3 -49 9 -32 30 16 20 23 19 51 -5z m563
-3 c15 -24 -4 -39 -44 -35 l-32 3 22 28 c24 30 37 31 54 4z m156 -8 c24 28 53
22 48 -10 -3 -20 -9 -22 -81 -23 -62 -1 -77 2 -77 14 1 44 38 56 68 22 l23
-27 19 24z m-600 11 c0 -5 -4 -10 -10 -10 -5 0 -10 5 -10 10 0 6 5 10 10 10 6
0 10 -4 10 -10z m179 -3 c6 -8 8 -17 4 -20 -10 -11 -51 -8 -58 3 -17 27 33 42
54 17z m161 9 c0 -2 3 -11 6 -19 6 -16 -32 -31 -42 -16 -9 15 4 39 21 39 8 0
15 -2 15 -4z m411 -28 c6 -25 4 -28 -16 -28 -28 0 -47 22 -39 44 10 27 46 15
55 -16z m157 8 c13 -28 7 -36 -25 -36 -26 0 -26 0 -13 34 12 32 24 33 38 2z
m-92 -2 c-3 -9 -6 -20 -6 -25 0 -5 -9 -9 -21 -9 -19 0 -19 1 -5 16 9 8 16 20
16 25 0 5 5 9 11 9 6 0 8 -7 5 -16z m494 -10 c13 -33 4 -47 -21 -34 -27 15
-25 60 3 60 5 0 13 -12 18 -26z m125 16 c4 -6 0 -22 -9 -35 -18 -27 -46 -24
-46 4 0 32 40 55 55 31z m300 -30 c0 -35 -21 -53 -31 -26 -9 23 5 68 19 63 7
-2 12 -19 12 -37z m-755 10 c0 -19 -11 -26 -23 -14 -8 8 3 34 14 34 5 0 9 -9
9 -20z m150 -1 c0 -11 -4 -18 -10 -14 -5 3 -7 12 -3 20 7 21 13 19 13 -6z m84
12 c8 -13 -4 -42 -15 -35 -12 7 -12 44 0 44 6 0 12 -4 15 -9z m381 -1 c10 -15
-14 -50 -34 -50 -19 0 -31 18 -31 46 0 16 55 20 65 4z m62 -6 c1 -5 -2 -16 -7
-24 -12 -20 -35 2 -26 25 6 17 27 16 33 -1z m178 -19 c0 -23 -4 -30 -20 -30
-21 0 -31 25 -21 51 11 28 41 12 41 -21z m611 11 c7 -29 -1 -46 -22 -46 -14 0
-19 26 -8 54 9 23 23 19 30 -8z m1652 12 c5 -7 9 -31 8 -53 -1 -33 -5 -40 -21
-40 -17 0 -20 8 -23 53 -2 40 0 52 11 52 8 0 19 -6 25 -12z m115 -1 c-2 -4 -3
-28 -3 -53 0 -41 -2 -45 -22 -42 -21 3 -23 8 -19 48 1 25 5 49 8 53 6 10 39 5
36 -6z m91 -3 c3 -9 6 -33 6 -55 0 -32 -3 -39 -20 -39 -17 0 -20 7 -20 39 0
43 8 71 20 71 4 0 11 -7 14 -16z m107 -6 c3 -60 -10 -98 -32 -98 -10 0 -12
103 -2 113 14 15 33 6 34 -15z m111 -28 c6 -33 4 -48 -6 -59 -26 -26 -46 -6
-46 47 0 53 6 64 29 60 10 -2 18 -20 23 -48z m-3462 26 c0 -8 -7 -16 -15 -20
-17 -6 -18 -4 -9 18 8 20 24 21 24 2z m435 -6 c0 -7 -6 -15 -12 -17 -8 -3 -13
4 -13 17 0 13 5 20 13 18 6 -3 12 -11 12 -18z m420 2 c0 -20 -19 -18 -23 2 -3
12 1 17 10 14 7 -3 13 -10 13 -16z m170 -7 c0 -10 -6 -20 -12 -22 -8 -3 -13 5
-13 22 0 17 5 25 13 23 6 -3 12 -13 12 -23z m110 15 c9 -15 -4 -50 -19 -50
-20 0 -39 27 -32 45 6 17 42 20 51 5z m83 -23 c4 -29 -12 -37 -22 -11 -10 26
-7 46 7 42 6 -3 13 -17 15 -31z m277 -2 c0 -23 -5 -31 -21 -33 -26 -4 -38 22
-23 49 16 30 44 20 44 -16z m101 9 c7 -27 -7 -51 -24 -40 -6 3 -9 14 -7 24 2
9 4 23 4 30 2 22 20 13 27 -14z m88 1 c7 -27 1 -45 -14 -45 -10 0 -22 48 -15
60 11 17 23 11 29 -15z m184 -9 c4 -32 -15 -51 -35 -34 -14 11 -18 50 -6 62
15 15 38 -1 41 -28z m92 -1 c0 -24 -5 -35 -15 -35 -15 0 -22 50 -8 63 15 15
23 5 23 -28z m187 -30 c-3 -18 -5 -17 -15 7 -6 15 -9 35 -5 45 5 14 8 12 15
-7 5 -13 7 -33 5 -45z m171 22 c2 -28 -1 -37 -12 -37 -12 0 -16 11 -16 41 0
52 24 48 28 -4z m92 13 c0 -31 -16 -41 -26 -15 -8 19 2 45 16 45 5 0 10 -13
10 -30z m96 6 c8 -34 1 -61 -16 -61 -8 0 -16 8 -18 18 -5 25 6 67 18 67 5 0
12 -11 16 -24z m84 -10 c0 -19 -4 -38 -10 -41 -6 -4 -10 10 -10 34 0 23 5 41
10 41 6 0 10 -15 10 -34z m90 -5 c0 -39 -11 -57 -29 -47 -11 7 8 86 20 86 5 0
9 -18 9 -39z m165 18 c10 -29 -3 -69 -21 -69 -12 0 -15 6 -10 23 3 12 6 32 6
45 0 28 16 29 25 1z m-787 -21 c-2 -18 -7 -33 -13 -33 -5 0 -11 15 -12 33 -2
23 1 32 13 32 11 0 14 -8 12 -32z m880 0 c10 -37 -1 -60 -24 -51 -14 5 -20 64
-7 76 13 14 23 6 31 -25z m-191 -25 c-3 -10 -5 -2 -5 17 0 19 2 27 5 18 2 -10
2 -26 0 -35z m869 -70 c-11 -11 -19 6 -11 24 8 17 8 17 12 0 3 -10 2 -21 -1
-24z"/>
<path d="M5185 2280 c-3 -5 -1 -10 4 -10 6 0 11 5 11 10 0 6 -2 10 -4 10 -3 0
-8 -4 -11 -10z"/>
<path d="M7610 1035 c0 -21 30 -31 40 -14 11 17 3 29 -21 29 -10 0 -19 -7 -19
-15z"/>
<path d="M70 6930 c0 -5 5 -10 10 -10 6 0 10 5 10 10 0 6 -4 10 -10 10 -5 0
-10 -4 -10 -10z"/>
</g>
</svg>
