<?xml version="1.0" standalone="no"?>
<!DOCTYPE svg PUBLIC "-//W3C//DTD SVG 20010904//EN"
 "http://www.w3.org/TR/2001/REC-SVG-20010904/DTD/svg10.dtd">
<svg version="1.0" xmlns="http://www.w3.org/2000/svg"
 width="850.000000pt" height="1411.000000pt" viewBox="0 0 850.000000 1411.000000"
 preserveAspectRatio="xMidYMid meet">
<metadata>
Created by potrace 1.16, written by Peter Selinger 2001-2019
</metadata>
<g transform="translate(0.000000,1411.000000) scale(0.100000,-0.100000)"
fill="#000000" stroke="none">
<path d="M1247 13533 c-4 -7 -137 -9 -366 -8 -197 2 -365 -1 -372 -5 -17 -11
-26 -131 -18 -250 8 -103 4 -234 -11 -400 -5 -58 -7 -152 -4 -210 7 -125 6
-657 -1 -785 -2 -49 -3 -187 -2 -305 2 -222 1 -501 -2 -745 -1 -77 1 -194 3
-260 6 -145 6 -690 1 -982 -2 -138 0 -224 8 -248 7 -23 7 -39 1 -43 -5 -4 -11
-88 -13 -187 -4 -170 -5 -1760 -2 -2375 1 -316 -8 -1539 -14 -1750 -4 -126
-17 -1087 -16 -1120 3 -102 10 -714 10 -987 1 -264 4 -358 13 -373 10 -16 10
-24 0 -40 -9 -16 -10 -30 -2 -59 13 -48 8 -158 -9 -189 -9 -16 -12 -161 -11
-565 0 -611 4 -751 18 -787 6 -16 6 -35 -1 -54 -7 -21 -7 -34 2 -48 10 -16 9
-23 -4 -38 -16 -18 -18 -33 -16 -139 1 -58 2 -58 234 -60 116 -1 311 -4 432
-6 121 -2 495 -7 830 -10 336 -4 754 -8 930 -10 176 -2 419 -6 540 -10 121 -3
391 -5 600 -5 209 0 389 0 400 0 11 -1 234 -3 495 -5 700 -6 1328 -14 1470
-19 69 -2 256 -7 415 -10 160 -3 324 -8 365 -11 41 -2 233 -8 426 -11 l352 -7
13 24 c21 36 28 1626 13 2639 -3 212 -6 396 -6 410 0 14 0 180 -1 370 -1 190
1 431 3 535 3 105 5 260 4 345 -1 318 -1 894 0 1530 0 360 -1 671 -2 690 -2
19 -1 347 1 728 3 459 1 692 -5 692 -6 0 -5 7 2 15 8 10 14 62 16 158 6 249 4
1239 -2 1263 -4 13 -10 24 -15 24 -5 0 -9 5 -9 10 0 6 7 10 15 10 18 0 17 -46
20 535 2 264 7 567 10 674 6 151 8 714 3 896 0 17 1 251 2 522 1 271 -1 496
-3 500 -3 4 -1 80 3 168 5 88 5 164 1 168 -5 5 -6 38 -4 75 7 108 11 106 -208
103 -101 -2 -308 -2 -459 -1 -511 4 -1933 1 -2210 -4 -151 -3 -282 -6 -290 -6
-464 -7 -2731 4 -2875 14 -94 7 -255 14 -440 20 -60 2 -142 7 -181 11 -44 5
-74 4 -77 -2z m-467 -85 c131 2 375 1 460 -2 58 -2 146 -4 195 -4 151 0 368
-2 410 -4 22 -1 58 0 80 1 75 6 538 -9 599 -19 84 -14 249 -13 263 1 8 8 24 9
50 3 21 -5 64 -7 96 -4 32 3 226 0 430 -6 358 -11 530 -11 684 2 40 3 252 5
470 4 506 -2 453 -2 633 8 85 5 182 7 215 3 33 -3 141 -2 240 2 99 4 203 7
230 6 51 -3 71 -2 160 1 28 1 93 -1 146 -5 65 -5 98 -4 103 3 4 7 16 5 36 -5
17 -8 38 -12 48 -8 13 6 417 17 537 16 11 0 136 -3 277 -5 158 -3 260 -1 263
5 4 6 13 6 24 -1 10 -5 93 -9 185 -9 92 -1 175 -5 185 -10 10 -6 34 -8 53 -5
31 6 36 3 46 -22 13 -36 20 -617 11 -1009 -2 -88 -3 -351 -2 -585 0 -234 0
-749 -2 -1145 -1 -396 -2 -774 -2 -840 1 -249 -1 -424 -8 -535 -3 -63 -7 -119
-7 -125 0 -5 2 -111 6 -235 6 -203 1 -268 -18 -250 -2 3 -7 77 -10 165 -6 214
-20 329 -45 395 -20 53 -20 56 -3 80 10 14 24 50 30 81 11 50 11 60 -8 101
-22 51 -68 86 -116 90 -66 5 -183 -83 -185 -138 -3 -82 2 -99 35 -129 l32 -30
-11 -56 c-6 -30 -16 -62 -21 -70 -5 -8 -10 -59 -11 -114 -5 -175 -10 -202 -44
-215 -18 -8 -48 -10 -79 -6 -64 8 -80 15 -80 31 0 7 -5 15 -10 17 -6 2 -12 72
-14 179 -2 97 -8 185 -14 195 -6 11 -8 32 -5 48 3 16 0 66 -6 111 -11 72 -11
87 3 113 26 50 20 103 -17 158 -27 41 -41 52 -88 68 -49 17 -60 18 -89 6 -18
-7 -41 -27 -51 -44 -24 -39 -25 -129 -3 -181 16 -38 11 -97 -17 -220 -20 -89
-41 -287 -43 -400 l-1 -80 -89 -3 c-88 -3 -89 -3 -82 20 16 50 18 214 5 283
-7 39 -14 124 -14 190 0 118 -7 165 -26 165 -5 0 -9 -22 -9 -49 0 -34 -7 -58
-23 -82 -21 -31 -28 -34 -69 -33 -49 0 -71 15 -88 59 -20 54 13 139 63 158 19
7 12 37 -9 37 -22 0 -85 -61 -100 -97 -19 -44 -18 -66 6 -118 22 -47 19 -95
-11 -190 -7 -22 -14 -103 -16 -180 -8 -285 -10 -310 -23 -310 -8 0 -19 25 -28
63 -12 56 -12 68 2 103 9 22 16 46 16 55 0 26 -41 107 -64 125 -32 27 -90 41
-118 29 -33 -14 -58 -35 -58 -50 0 -29 -12 1 -18 47 -7 47 -8 48 -44 51 -20 2
-44 12 -53 23 -42 46 -124 11 -160 -68 -14 -30 -31 -53 -40 -53 -8 0 -15 5
-15 10 0 6 -11 16 -25 22 -21 9 -30 7 -65 -17 -25 -17 -40 -36 -40 -49 0 -11
-4 -27 -9 -35 -12 -19 -2 -49 20 -56 24 -8 25 -35 1 -35 -10 0 -33 -13 -52
-30 -19 -16 -43 -29 -52 -30 -10 0 -18 -4 -18 -8 0 -19 -181 -88 -195 -74 -16
16 -1 79 35 147 22 42 40 84 40 95 0 17 -52 70 -69 70 -20 0 -103 -63 -111
-86 -18 -45 -13 -91 10 -97 19 -5 21 -12 18 -69 l-3 -63 -40 0 -40 0 -2 70
c-4 102 6 173 26 193 10 9 26 31 36 48 17 29 17 38 3 120 l-14 89 -52 19 c-29
10 -52 24 -52 31 0 12 -40 67 -85 118 -35 39 -154 3 -173 -53 -6 -16 -15 -30
-20 -30 -6 0 -32 18 -58 40 -50 41 -60 45 -81 32 -13 -8 -103 -152 -103 -165
0 -5 -9 -21 -20 -37 -16 -23 -17 -30 -6 -45 16 -22 36 -12 36 19 0 12 15 37
35 56 30 30 35 40 35 82 0 35 4 50 16 55 19 7 60 -30 68 -62 3 -12 21 -34 39
-48 l34 -26 31 20 c26 15 32 25 32 54 0 31 4 38 29 46 15 5 34 21 41 34 13 24
15 24 32 8 10 -9 18 -26 18 -38 0 -12 9 -30 19 -39 10 -10 22 -32 25 -51 4
-18 14 -43 24 -55 16 -20 19 -20 54 -6 35 15 38 15 48 -3 5 -11 10 -50 9 -88
-1 -67 -1 -68 -45 -106 -30 -27 -54 -39 -76 -40 -32 -2 -33 0 -36 38 -4 48
-28 80 -49 64 -7 -6 -13 -20 -13 -31 0 -24 -23 -33 -49 -18 -17 8 -21 19 -19
45 2 37 -13 62 -31 51 -6 -4 -11 -22 -11 -41 0 -43 -9 -65 -26 -65 -13 0 -19
15 -26 65 -2 11 -10 20 -18 20 -12 0 -15 -13 -15 -54 1 -60 18 -81 66 -81 l27
0 -5 -72 c-8 -105 -8 -120 0 -145 7 -20 2 -26 -47 -50 -31 -15 -58 -25 -61
-22 -5 5 -8 232 -5 368 1 34 -2 67 -7 71 -14 14 -53 -8 -53 -30 0 -35 -30 -37
-57 -4 -19 24 -25 27 -33 14 -26 -41 2 -84 54 -83 20 1 38 -3 41 -7 3 -4 -4
-28 -15 -53 -14 -32 -18 -52 -12 -69 5 -12 10 -67 11 -120 1 -97 1 -97 -26
-112 -16 -8 -37 -23 -47 -35 -25 -28 -50 -27 -64 4 -10 22 -7 29 27 69 43 49
43 54 6 156 -20 55 -31 66 -72 75 -23 4 -35 2 -45 -10 -7 -9 -30 -35 -50 -57
-21 -22 -38 -45 -39 -52 -6 -58 16 -110 50 -121 15 -5 18 -15 17 -61 l-1 -55
-40 8 c-56 10 -87 7 -153 -16 -97 -33 -163 -51 -186 -51 -12 0 -28 -6 -34 -12
-10 -10 -15 -10 -21 1 -7 10 -19 12 -47 6 -53 -10 -358 -16 -417 -9 l-48 6 6
57 c5 50 2 66 -21 114 -23 49 -30 57 -54 57 -35 0 -60 23 -60 55 0 56 -99 117
-164 101 -23 -6 -72 13 -85 32 -10 14 -73 42 -82 36 -5 -3 -9 -12 -9 -21 0
-11 -6 -14 -22 -8 -13 4 -43 8 -68 8 -44 2 -45 3 -63 52 -21 53 -67 230 -67
254 0 8 -9 33 -19 55 -20 42 -33 97 -52 221 -6 38 -15 78 -21 88 -9 17 -11 18
-28 2 -17 -15 -20 -14 -50 15 -27 27 -36 30 -67 24 -51 -10 -40 16 15 36 35
12 46 12 63 2 32 -21 42 -5 34 57 -6 56 -14 84 -45 176 -32 94 -85 329 -96
425 -5 44 -4 46 40 78 l45 34 -4 121 c-4 134 -26 213 -79 294 -18 26 -26 49
-22 61 10 31 -30 73 -68 70 -43 -3 -57 8 -54 42 1 15 -3 35 -10 43 -15 17 -42
104 -42 134 0 12 -11 57 -25 99 -14 42 -25 85 -25 95 0 19 -2 26 -33 87 -10
19 -20 52 -23 75 -3 23 -17 76 -29 117 -13 41 -36 116 -50 165 -40 134 -85
259 -106 294 -16 27 -25 31 -60 31 -70 0 -197 -95 -185 -138 2 -9 10 -40 16
-69 6 -29 18 -57 26 -64 8 -6 18 -30 24 -53 6 -22 17 -63 24 -91 22 -78 36
-143 36 -169 0 -12 9 -31 20 -41 14 -13 17 -25 13 -46 -3 -17 3 -55 15 -92 11
-34 25 -84 32 -112 7 -27 21 -70 30 -95 23 -58 57 -180 70 -247 5 -29 19 -73
30 -97 11 -25 20 -56 20 -70 0 -15 10 -32 27 -44 27 -20 27 -21 10 -40 -10
-11 -27 -44 -38 -73 -17 -47 -18 -59 -8 -92 10 -31 10 -45 0 -70 -7 -18 -18
-59 -25 -92 l-11 -60 -75 -5 c-72 -5 -75 -6 -94 -39 -21 -37 -35 -96 -42 -181
-3 -30 -9 -64 -14 -75 -9 -21 -20 -91 -22 -140 0 -17 -9 -36 -19 -43 -11 -7
-19 -18 -19 -24 0 -5 -13 -38 -30 -72 -16 -34 -36 -87 -44 -117 -17 -61 -36
-116 -71 -205 -37 -93 -47 -186 -50 -449 -2 -232 -12 -325 -36 -325 -5 0 -14
11 -20 24 -17 36 -74 44 -105 15 -13 -12 -24 -28 -24 -35 0 -22 -16 -24 -57
-10 -35 12 -43 12 -76 -4 -20 -10 -35 -14 -31 -9 3 5 -8 9 -25 9 -34 0 -61 22
-61 51 0 10 -4 19 -9 19 -5 0 -8 14 -6 30 3 18 0 28 -5 25 -6 -4 -10 -1 -10 5
0 6 -5 8 -10 5 -5 -3 -10 -21 -10 -40 0 -45 -18 -49 -70 -14 -23 16 -46 27
-50 24 -14 -8 -18 34 -10 93 8 59 4 84 -11 61 -5 -8 -9 -9 -9 -3 0 19 13 24
28 11 8 -6 27 -12 41 -12 17 0 30 -8 38 -25 7 -14 18 -24 23 -22 6 1 16 -10
23 -25 7 -16 19 -28 27 -28 10 0 15 -10 15 -32 0 -17 3 -35 8 -39 4 -4 7 14 7
40 0 26 -4 45 -9 42 -5 -3 -11 0 -14 8 -4 10 0 12 14 9 11 -3 21 1 25 10 4 11
12 14 27 8 31 -12 88 9 98 36 5 13 11 55 14 94 5 71 5 71 -30 105 -19 18 -44
52 -54 76 -22 52 -58 76 -90 58 -36 -19 -60 -4 -68 42 -7 49 -33 78 -68 78
-14 0 -39 10 -55 22 -24 17 -32 19 -45 8 -22 -18 -19 -30 9 -30 13 0 26 -6 29
-14 4 -9 19 -14 38 -14 44 1 72 -33 63 -77 -5 -27 -1 -36 26 -58 39 -33 44
-33 67 -1 l19 26 27 -32 c22 -26 26 -38 21 -65 -6 -31 8 -56 21 -36 3 6 17 6
36 -1 l31 -11 -7 -60 c-3 -34 -13 -73 -20 -88 -14 -26 -16 -26 -92 -24 -43 2
-82 4 -86 4 -5 1 -5 15 -2 32 7 32 7 32 -28 26 -41 -6 -57 6 -57 45 0 33 -13
36 -32 9 -8 -11 -26 -23 -40 -26 -15 -4 -29 -13 -32 -21 -8 -20 -23 -17 -29 6
-7 28 -25 25 -33 -5 -4 -15 -13 -25 -25 -25 -10 0 -30 -11 -45 -25 -15 -14
-31 -25 -37 -25 -5 0 -31 -18 -57 -40 -56 -46 -72 -49 -94 -15 -20 31 -20 46
1 106 17 46 17 48 -2 69 -23 26 -23 101 0 137 13 19 23 23 53 20 34 -2 37 -5
38 -32 1 -36 30 -105 44 -105 6 0 10 12 10 28 0 26 43 75 109 122 15 11 23 31
28 75 4 37 12 65 22 72 12 9 13 14 4 24 -22 22 -41 2 -48 -52 -6 -41 -14 -59
-39 -81 -17 -16 -40 -37 -52 -48 -28 -26 -38 -25 -52 5 -10 21 -19 25 -51 25
-22 0 -51 -4 -65 -10 -45 -17 -70 -95 -46 -140 12 -23 13 -45 5 -136 -5 -67
-4 -74 21 -103 19 -23 35 -32 53 -31 50 4 52 2 49 -42 l-3 -41 -65 -22 c-142
-49 -202 -65 -238 -65 l-37 0 -2 248 c-1 136 -6 283 -10 327 -5 44 -5 132 -1
195 3 63 7 340 7 614 1 464 0 500 -17 512 -16 13 -16 15 2 25 17 11 18 31 16
448 -2 240 0 526 3 636 5 175 20 1491 21 1758 0 70 3 97 12 97 7 0 15 -10 17
-22 3 -14 5 -9 6 15 1 29 5 37 20 37 11 0 23 5 27 11 4 8 24 9 58 4 28 -4 62
-7 76 -7z m1859 -2560 c15 -41 -6 -62 -47 -47 -22 8 -22 10 -7 39 18 36 42 39
54 8z m-23 -113 c9 -21 -13 -44 -58 -62 -40 -16 -68 -55 -68 -93 0 -12 14 -49
30 -84 30 -61 30 -63 15 -105 -8 -24 -15 -63 -15 -86 0 -26 -6 -48 -15 -55
-19 -16 -19 -30 4 -126 25 -104 35 -234 18 -234 -6 0 -27 28 -44 63 -18 34
-53 90 -78 123 -36 49 -53 63 -80 68 -19 4 -39 14 -44 24 -12 22 4 52 29 52
15 0 23 13 35 52 8 28 15 59 15 67 0 9 9 33 20 54 20 37 20 41 5 94 -15 50
-15 57 -1 79 9 13 16 32 16 43 0 11 11 36 24 56 14 20 26 40 28 46 4 13 89 37
131 38 16 1 30 -5 33 -14z m87 -90 c-1 -45 -6 -73 -16 -82 -26 -26 -40 -5 -34
51 11 119 53 145 50 31z m61 -81 c12 -30 -20 -104 -44 -104 -16 0 -17 55 -2
87 17 35 36 43 46 17z m-4 -174 c0 -33 -24 -50 -42 -32 -17 17 -1 62 22 62 16
0 20 -7 20 -30z m-536 -213 c17 -12 17 -18 6 -51 -6 -21 -18 -40 -25 -42 -23
-9 -55 15 -55 42 0 56 35 80 74 51z m150 -130 c15 -19 26 -39 26 -44 0 -6 7
-16 16 -24 17 -14 41 -63 70 -142 16 -44 19 -47 45 -42 15 3 30 2 33 -3 6 -10
60 -252 76 -342 5 -25 16 -70 25 -100 10 -30 23 -82 31 -115 7 -33 20 -80 29
-104 8 -24 15 -54 15 -66 0 -12 7 -35 15 -52 8 -16 19 -63 25 -104 6 -40 19
-100 30 -132 11 -31 20 -64 20 -72 0 -8 -18 -28 -39 -43 -22 -15 -42 -38 -46
-52 -11 -42 -54 -108 -75 -115 -13 -4 -20 -15 -20 -31 0 -20 -5 -24 -27 -24
-16 0 -50 -3 -78 -6 l-50 -6 -13 48 c-7 27 -20 81 -28 119 -8 39 -24 108 -34
155 -10 47 -21 112 -25 145 -4 33 -15 78 -25 100 -10 22 -17 42 -16 45 28 58
38 91 47 156 6 44 19 108 30 144 17 56 42 191 54 283 2 15 15 39 29 52 14 13
26 34 26 46 0 17 -4 20 -24 15 -33 -8 -58 16 -101 99 -50 94 -69 114 -96 97
-17 -11 -25 -10 -55 9 -39 24 -64 20 -64 -11 0 -17 -5 -21 -27 -18 -24 3 -26
7 -29 61 -2 59 7 72 26 36 14 -26 53 -22 58 6 7 37 34 84 50 88 26 5 68 -19
96 -56z m-130 -163 c10 -4 16 -18 16 -35 0 -23 5 -29 21 -29 16 0 20 5 17 27
-2 20 2 29 14 31 20 4 58 -51 58 -84 0 -11 11 -31 25 -44 31 -29 49 -88 33
-107 -18 -22 -42 -15 -79 23 -43 45 -65 57 -89 49 -27 -9 -25 -34 4 -45 13 -5
27 -14 31 -19 3 -6 15 -11 25 -11 12 0 26 -13 36 -32 9 -18 25 -39 35 -46 11
-7 19 -20 19 -28 0 -15 -25 -19 -34 -5 -3 5 -17 11 -32 14 -56 10 -35 -48 27
-73 20 -9 29 -19 29 -36 0 -33 -10 -35 -59 -13 -54 24 -71 24 -71 1 0 -24 27
-49 68 -63 26 -9 32 -16 32 -39 0 -34 -14 -40 -58 -27 -23 8 -36 7 -44 -1 -15
-15 2 -35 42 -52 30 -12 39 -33 20 -45 -5 -3 -20 1 -32 9 -26 18 -54 21 -63 6
-13 -21 7 -47 50 -64 52 -22 60 -46 15 -46 -18 0 -33 -6 -36 -15 -5 -13 29
-82 47 -95 10 -7 29 -57 29 -76 0 -8 -9 -14 -19 -14 -11 0 -22 -4 -26 -9 -7
-12 22 -41 40 -41 12 0 32 -37 23 -44 -1 -2 -16 -8 -33 -13 -20 -6 -30 -16
-30 -29 0 -16 6 -19 38 -16 32 3 38 -1 47 -24 13 -34 -3 -56 -39 -52 -22 3
-26 -1 -26 -22 0 -22 5 -25 37 -28 30 -3 39 -8 44 -27 8 -32 -3 -46 -31 -39
-27 7 -39 -8 -30 -37 6 -17 12 -20 39 -15 26 5 36 2 54 -19 34 -39 29 -55 -17
-55 -42 0 -72 -23 -54 -41 6 -6 39 -13 74 -16 35 -3 65 -6 65 -6 1 -1 4 -19 8
-39 l7 -37 -32 11 c-17 6 -53 8 -80 5 -27 -3 -51 -2 -54 4 -4 5 -14 9 -23 9
-21 -1 -129 -48 -163 -72 l-24 -17 27 0 c14 -1 46 7 70 18 38 16 48 17 69 5
15 -8 42 -11 74 -8 30 3 73 0 108 -10 71 -19 77 -22 77 -47 0 -24 -36 -26 -62
-2 -25 22 -99 20 -174 -6 -32 -12 -70 -21 -84 -21 -30 0 -50 -17 -50 -42 0
-10 -7 -29 -15 -42 -21 -32 -126 -136 -137 -136 -4 0 -5 18 -2 40 4 24 3 40
-4 40 -10 0 -87 -87 -117 -132 -31 -49 -40 -35 -59 95 l-18 123 21 43 22 43
-20 5 c-55 14 13 165 87 194 29 11 24 33 -9 37 -19 2 -33 -8 -63 -48 -21 -28
-44 -49 -50 -47 -6 2 -10 21 -8 43 4 66 11 84 32 84 11 0 26 12 34 28 8 15 23
36 35 46 23 21 28 46 9 46 -6 0 -24 -15 -39 -32 -33 -39 -52 -29 -47 23 2 24
10 37 28 46 31 15 86 71 77 79 -3 3 -16 -1 -29 -10 -29 -20 -58 -21 -58 -1 0
9 16 31 35 51 19 19 35 41 35 49 0 18 -12 19 -27 4 -22 -22 -31 1 -27 64 5 65
20 117 35 117 13 0 36 53 32 73 -5 19 -43 23 -59 7 -8 -8 -15 -6 -24 5 -11 13
-10 22 4 53 11 24 15 54 13 86 -5 59 2 86 66 226 32 72 47 118 47 147 0 16 8
27 26 33 46 18 56 13 49 -20 -5 -23 -3 -30 8 -30 15 0 39 50 52 109 4 18 16
49 28 68 19 33 22 35 64 28 51 -7 57 8 18 45 -24 22 -34 68 -18 83 8 8 8 8 27
1z m-76 -45 c3 -36 -13 -57 -35 -43 -25 16 -28 45 -7 61 24 18 38 12 42 -18z
m5785 6 c-7 -21 -13 -19 -13 6 0 11 4 18 10 14 5 -3 7 -12 3 -20z m-5186 -1
c5 -14 -22 -25 -41 -18 -8 3 -12 12 -9 20 6 17 44 15 50 -2z m38 -103 c-10
-16 -25 -3 -25 22 0 20 1 20 16 5 9 -9 13 -21 9 -27z m-695 0 c0 -36 -30 -91
-49 -91 -28 0 -30 20 -10 68 13 30 24 42 39 42 13 0 20 -7 20 -19z m650 -10
c0 -5 9 -11 21 -14 29 -8 18 -33 -12 -29 -39 4 -49 10 -49 32 0 13 7 20 20 20
11 0 20 -4 20 -9z m4477 -89 c29 -22 51 -75 45 -111 -2 -15 -14 -41 -27 -56
-21 -28 -24 -28 -71 -19 -45 8 -51 13 -71 54 -32 67 -22 107 31 130 52 23 66
24 93 2z m-4393 -156 c15 -24 -16 -46 -66 -46 -67 0 -64 44 4 60 41 10 49 8
62 -14z m4889 -7 c21 -5 35 -14 32 -20 -4 -5 1 -9 9 -9 21 0 29 -33 21 -90
-10 -69 -30 -84 -106 -77 -66 6 -94 23 -102 64 -7 37 20 95 56 120 38 25 41
26 90 12z m-478 -80 c9 -10 24 -244 26 -419 1 -74 6 -145 10 -157 12 -33 -11
-41 -126 -44 l-100 -3 -6 39 c-4 22 -4 44 -1 50 3 5 7 32 8 60 1 27 9 100 18
160 9 61 19 150 22 199 6 121 10 127 84 123 33 -2 62 -6 65 -8z m-4381 -40
c-7 -13 -31 -11 -40 2 -9 16 18 30 33 17 7 -6 10 -14 7 -19z m-96 -18 c3 -8
-1 -12 -9 -9 -7 2 -15 10 -17 17 -3 8 1 12 9 9 7 -2 15 -10 17 -17z m4956
-102 c18 -9 27 -24 35 -58 13 -58 32 -254 37 -391 2 -58 5 -118 7 -135 l2 -30
-92 -2 c-121 -3 -125 1 -118 110 3 45 7 125 10 177 3 52 7 111 10 130 14 98
29 177 37 193 10 20 36 22 72 6z m-958 -34 c14 -21 15 -54 12 -230 -2 -127 -7
-205 -13 -206 -5 0 -40 0 -76 0 -77 1 -86 -6 -91 -68 -2 -25 -9 -46 -15 -49
-18 -5 -17 148 2 263 8 50 15 111 15 136 0 47 25 145 42 167 6 6 32 12 59 12
41 0 51 -4 65 -25z m-3871 1 c29 -21 12 -46 -30 -46 -42 0 -59 25 -30 46 10 8
24 14 30 14 6 0 20 -6 30 -14z m33 -148 c7 -7 12 -20 12 -30 0 -23 -58 -26
-66 -3 -14 37 26 61 54 33z m3192 -48 c12 -44 33 -52 50 -20 20 37 33 11 26
-53 -8 -81 -19 -93 -61 -68 -28 16 -35 17 -56 5 -13 -7 -29 -13 -36 -14 -13 0
-36 61 -29 81 2 8 7 26 10 41 7 32 43 68 68 68 12 0 21 -12 28 -40z m-4259
-37 c-9 -16 -10 -14 -11 12 0 21 3 26 11 18 8 -8 8 -16 0 -30z m4525 -32 c63
-38 71 -136 14 -166 -27 -14 -60 -12 -60 5 0 4 -11 11 -24 14 -16 4 -32 21
-45 49 -24 50 -26 70 -8 85 9 8 61 27 87 31 3 1 19 -8 36 -18z m-468 -24 c25
-37 29 -85 8 -93 -17 -6 -66 17 -86 41 -11 13 -11 21 3 50 21 44 45 45 75 2z
m-400 -38 c3 -18 -38 -69 -56 -69 -6 0 -16 9 -21 19 -8 14 -6 25 10 45 23 30
62 32 67 5z m-382 -40 c1 -21 4 -44 7 -52 3 -8 -3 -32 -14 -53 -10 -21 -16
-47 -13 -57 4 -14 2 -18 -12 -15 -15 3 -18 17 -21 111 l-4 108 28 -3 c25 -3
28 -7 29 -39z m945 -56 c-7 -43 -31 -58 -31 -19 0 33 21 80 30 66 4 -6 4 -27
1 -47z m-869 35 c6 -17 -1 -38 -13 -38 -5 0 -9 11 -9 25 0 26 14 34 22 13z
m-2083 -9 c35 -12 63 -49 37 -49 -8 0 -25 4 -38 9 -13 5 -31 12 -42 15 -15 5
-16 9 -6 21 15 18 10 17 49 4z m2158 -42 c-8 -58 -27 -72 -27 -20 0 50 8 75
22 67 6 -4 8 -24 5 -47z m-4166 -19 c-3 -54 -22 -78 -46 -58 -21 17 -14 73 11
101 24 27 38 9 35 -43z m4876 46 c3 -8 0 -27 -6 -41 l-12 -26 -30 29 -29 28
27 12 c38 17 43 17 50 -2z m221 4 c5 -7 7 -37 5 -66 l-6 -53 -21 19 c-11 11
-31 23 -43 27 -13 3 -24 15 -24 26 -1 10 -2 25 -3 32 -1 6 15 15 34 18 19 4
38 7 41 8 4 0 11 -5 17 -11z m-358 -8 c0 -5 -2 -10 -4 -10 -3 0 -8 5 -11 10
-3 6 -1 10 4 10 6 0 11 -4 11 -10z m-1164 -64 c11 -43 11 -49 -7 -67 -10 -10
-30 -19 -43 -19 -29 0 -57 35 -48 59 11 24 66 81 77 77 5 -1 15 -24 21 -50z
m-3688 -7 c2 -34 -2 -52 -17 -70 -26 -32 -44 -15 -45 44 -2 84 57 108 62 26z
m1972 22 c0 -12 -12 -23 -32 -31 -18 -6 -40 -16 -48 -21 -28 -17 -41 -21 -47
-15 -15 15 78 85 115 86 6 0 12 -8 12 -19z m2902 -19 c21 -44 25 -47 41 -34
18 15 55 -10 68 -47 10 -25 11 -25 24 -7 8 10 16 23 17 28 3 9 106 13 163 7
22 -3 30 -9 30 -24 0 -17 -9 -21 -54 -27 -29 -3 -57 -11 -61 -18 -4 -7 -6 -49
-4 -93 3 -78 5 -83 35 -109 20 -17 29 -32 26 -42 -6 -16 -35 -19 -249 -21 -69
-1 -102 -15 -82 -35 14 -14 154 -14 221 -1 58 11 78 8 87 -16 12 -31 -5 -36
-98 -29 -83 5 -231 -5 -277 -19 -16 -6 -19 -17 -19 -80 0 -63 4 -78 23 -101
23 -26 23 -26 182 -28 l160 -2 2 -86 c1 -63 6 -94 19 -113 37 -57 37 -50 50
-1350 4 -390 8 -764 9 -830 2 -66 4 -217 5 -335 1 -133 5 -219 12 -227 7 -9 7
-22 -2 -42 -8 -21 -10 -71 -6 -173 8 -194 21 -705 19 -746 -2 -42 -16 -59 -56
-68 -18 -3 -49 -15 -70 -26 l-38 -19 -14 35 c-8 20 -15 42 -15 50 0 9 -12 50
-26 93 -26 78 -39 154 -50 288 -4 38 -14 91 -24 116 -23 58 -35 136 -23 152 5
6 22 43 38 80 26 64 27 75 22 160 -8 121 -51 265 -95 322 -12 15 -22 33 -22
39 0 32 -82 114 -148 149 -44 23 -61 27 -96 22 -36 -6 -44 -4 -50 12 -4 10 -6
399 -3 866 3 547 1 849 -5 853 -5 4 -15 1 -20 -4 -8 -8 -12 -272 -13 -849 0
-461 -4 -844 -8 -850 -4 -6 -25 -11 -48 -11 -22 -1 -53 -4 -69 -7 -17 -4 -31
-2 -35 6 -4 6 -9 50 -11 98 -13 363 -21 1611 -10 1629 3 5 47 12 97 15 130 8
132 11 136 173 2 90 6 130 15 136 7 4 72 8 144 8 126 0 131 1 154 25 20 21 22
31 17 76 -11 88 -14 90 -206 88 l-166 -2 3 134 c3 107 -1 155 -18 238 -12 58
-22 110 -23 115 -1 8 44 10 139 8 101 -3 144 0 149 8 15 24 -16 33 -122 37
-102 4 -175 19 -156 32 15 11 33 61 33 92 0 31 -39 107 -65 129 -23 19 -18 40
10 40 13 0 34 4 47 9 13 5 48 17 79 26 31 9 80 32 110 51 30 19 66 38 82 41
15 3 30 10 33 15 11 18 39 3 56 -30z m445 17 c15 -7 40 -11 54 -10 36 2 51
-20 47 -66 l-3 -38 -75 0 -75 0 -3 42 c-3 36 10 83 23 83 2 0 16 -5 32 -11z
m1193 1 c25 -14 37 -74 19 -101 -13 -19 -27 -21 -199 -26 -227 -8 -700 -7
-708 2 -13 13 -13 98 0 107 7 4 34 8 60 8 26 0 49 3 51 8 8 11 755 14 777 2z
m-4424 -11 c3 -6 2 -15 -2 -19 -12 -12 -38 5 -30 19 9 14 23 14 32 0z m-2166
-29 c0 -5 -4 -10 -10 -10 -5 0 -10 5 -10 10 0 6 5 10 10 10 6 0 10 -4 10 -10z
m4350 -7 c0 -5 -3 -19 -7 -32 -6 -23 -7 -23 -13 -5 -4 10 -5 25 -3 32 5 13 23
17 23 5z m-2120 -30 c-1 -27 -25 -53 -49 -53 -28 0 -27 27 2 51 28 23 47 24
47 2z m-1818 -35 c-3 -11 1 -24 9 -29 10 -6 9 -8 -6 -7 -17 2 -20 8 -16 41 2
23 6 34 11 27 4 -7 5 -21 2 -32z m-80 -36 c40 -21 86 -51 101 -66 24 -24 33
-27 65 -22 91 16 111 17 144 8 23 -6 41 -6 53 1 13 7 24 6 36 -1 10 -7 36 -15
59 -18 22 -4 45 -14 50 -23 5 -11 3 -55 -6 -117 -35 -235 -35 -248 2 -362 19
-56 34 -115 34 -130 0 -15 9 -47 20 -71 19 -41 19 -47 5 -85 -20 -54 -34 -201
-23 -250 5 -24 5 -59 -1 -90 -17 -83 -51 -297 -56 -355 -3 -30 -8 -58 -12 -63
-3 -6 -9 -47 -13 -92 -5 -44 -13 -99 -19 -121 -13 -44 -59 -255 -71 -325 -14
-76 -30 -142 -51 -204 -24 -74 -25 -163 -2 -211 16 -35 16 -36 -5 -51 -18 -12
-22 -25 -22 -64 0 -42 -4 -52 -25 -66 -30 -19 -67 -80 -90 -144 -9 -25 -25
-64 -36 -86 -11 -23 -24 -66 -29 -95 -5 -30 -16 -79 -25 -109 -8 -30 -20 -111
-25 -180 -5 -69 -12 -143 -15 -165 -3 -22 -7 -71 -10 -110 -18 -242 -26 -326
-37 -375 -15 -70 -14 -73 27 -115 29 -29 35 -41 35 -78 0 -79 10 -105 47 -127
19 -11 50 -20 69 -20 20 0 45 -5 57 -12 12 -6 53 -11 90 -11 38 1 83 -5 100
-12 18 -7 58 -16 90 -20 l58 -7 23 -51 c37 -84 49 -187 42 -349 -10 -245 -14
-265 -51 -293 -17 -14 -35 -25 -40 -25 -4 0 -33 -25 -65 -56 -31 -30 -66 -62
-78 -69 -36 -26 -93 -123 -105 -180 -11 -53 -13 -56 -52 -66 -43 -12 -125 -88
-125 -118 0 -9 -9 -36 -20 -60 -11 -24 -18 -51 -15 -60 6 -19 72 -54 86 -46
15 10 10 23 -11 30 -25 8 -25 22 2 102 22 64 23 65 87 95 83 39 155 46 229 24
77 -24 169 -71 213 -109 39 -34 89 -123 90 -159 1 -53 -9 -136 -20 -157 -7
-12 -9 -26 -5 -32 4 -8 -1 -9 -17 -4 -27 8 -51 35 -74 81 -36 76 -146 194
-179 194 -26 0 -18 -21 22 -58 24 -23 32 -37 24 -39 -7 -3 -21 2 -30 10 -9 8
-44 27 -77 42 -33 16 -71 41 -85 56 -29 31 -68 43 -87 27 -11 -9 -11 -14 3
-29 20 -22 12 -36 -27 -44 -35 -8 -37 -38 -3 -43 12 -2 26 -14 32 -28 7 -13
19 -24 28 -24 30 0 88 -42 152 -108 34 -37 62 -72 62 -78 0 -6 16 -31 36 -57
40 -52 40 -59 -8 -133 -18 -27 -48 -80 -68 -119 -55 -105 -110 -205 -142 -254
-15 -25 -28 -54 -28 -65 0 -11 -10 -30 -23 -41 -13 -11 -38 -46 -56 -77 -28
-51 -31 -62 -25 -108 7 -51 6 -51 -40 -95 -42 -41 -61 -85 -35 -85 18 0 118
114 124 142 6 26 17 34 40 28 6 -1 44 -6 85 -11 41 -4 96 -11 122 -15 32 -4
53 -3 63 6 12 10 23 8 59 -9 63 -31 126 -79 126 -96 0 -42 -119 -90 -307 -125
-60 -11 -148 -27 -198 -36 -49 -9 -106 -25 -125 -35 -19 -11 -50 -22 -70 -25
-19 -4 -60 -13 -90 -22 -30 -9 -79 -16 -108 -16 -47 -1 -57 3 -78 27 -32 37
-30 71 7 154 28 60 57 138 128 333 11 30 27 87 36 125 49 204 98 345 121 345
6 0 17 6 23 14 10 12 8 13 -8 9 -24 -6 -24 -6 -12 33 5 16 15 56 22 89 7 33
16 65 20 70 3 6 10 26 14 45 8 45 33 116 53 157 15 29 15 35 2 47 -14 13 -45
20 -77 17 -18 -1 -16 -21 3 -42 18 -20 12 -70 -10 -88 -7 -6 -44 -22 -82 -35
-38 -13 -96 -33 -129 -45 -129 -46 -177 -61 -186 -55 -5 3 -9 -5 -9 -16 0 -15
-5 -20 -15 -17 -8 4 -17 2 -20 -3 -4 -6 -17 -10 -31 -10 -37 0 -145 -40 -182
-67 -18 -13 -38 -23 -45 -20 -7 2 -34 -7 -60 -21 -37 -18 -52 -21 -60 -13 -12
12 -13 1670 -2 2801 9 869 10 2230 1 2331 -7 93 -7 96 14 102 20 5 20 7 6 29
-12 19 -15 72 -17 290 -1 148 1 271 5 275 8 9 32 10 233 12 73 1 137 0 142 -3
14 -9 41 4 41 19 0 13 -43 25 -91 25 -33 0 -47 16 -21 23 23 5 269 -1 300 -8
12 -3 22 -13 22 -21 0 -14 -9 -16 -50 -12 -55 6 -93 -10 -68 -28 17 -12 321
-6 313 7 -4 5 -16 9 -29 9 -12 0 -26 3 -29 6 -4 4 -32 7 -64 8 -48 1 -58 4
-61 20 -4 17 2 18 66 14 44 -3 79 0 93 7 21 12 21 13 3 18 -10 2 -53 5 -94 6
-41 0 -111 3 -155 6 -44 3 -147 8 -230 10 -82 2 -172 7 -199 11 -44 6 -48 5
-44 -12 3 -16 18 -21 95 -29 84 -10 113 -18 102 -29 -12 -12 -201 -17 -234 -6
-33 11 -35 14 -35 55 0 63 9 67 154 61 120 -5 126 -4 126 14 0 19 -8 20 -133
20 -143 0 -157 5 -157 50 0 54 10 68 53 76 23 3 66 15 97 26 30 10 60 20 65
22 6 2 17 5 25 8 8 4 49 18 90 33 41 15 100 36 130 48 126 46 177 44 282 -11z
m1570 27 c-2 -8 -6 -30 -9 -49 -8 -46 -49 -140 -62 -140 -18 0 -20 16 -7 71
16 68 53 142 69 136 7 -3 10 -11 9 -18z m2326 -18 c18 -2 15 -32 -6 -55 -59
-67 -38 -183 43 -235 22 -14 41 -25 42 -26 1 0 -5 -25 -12 -55 -24 -95 -50
-313 -54 -453 -1 -17 -12 -18 -157 -16 -189 4 -189 3 -179 -103 8 -77 11 -75
-105 -80 -63 -2 -74 -1 -71 12 10 39 -23 378 -44 450 -29 95 -29 94 4 129 17
18 33 48 37 66 7 39 22 48 61 35 15 -5 37 -8 47 -7 10 1 21 -4 24 -12 4 -11
-6 -13 -47 -9 -28 3 -54 1 -57 -4 -11 -18 32 -37 84 -38 l54 0 -7 29 -6 30
111 3 c61 2 117 1 125 -2 33 -12 16 -25 -35 -30 -42 -4 -56 -9 -58 -22 -3 -16
6 -18 77 -17 82 1 108 12 78 34 -23 17 -21 24 8 35 14 5 25 16 25 24 0 17
-111 27 -255 24 -49 -1 -121 2 -158 6 -62 7 -73 12 -118 52 -46 40 -62 48
-113 56 -11 2 -20 8 -20 13 -1 6 39 11 97 12 93 2 104 5 236 57 75 31 153 64
172 73 19 10 54 20 79 23 41 5 57 5 98 1z m1362 -23 c0 -10 2 -10 9 1 6 9 16
11 27 6 16 -6 301 -18 389 -15 17 0 45 -2 63 -5 l33 -6 -6 -56 c-2 -31 -7 -58
-9 -60 -2 -2 -198 -5 -435 -7 l-431 -4 -4 21 c-12 56 -15 103 -8 114 8 12 44
15 260 21 88 3 112 1 112 -10z m1367 -33 c2 -22 1 -54 -2 -71 l-5 -31 -233 -3
c-127 -1 -281 -3 -340 -4 -121 -1 -125 1 -132 70 -3 39 15 63 48 65 167 10
354 16 492 15 l169 -1 3 -40z m-2507 27 c33 -3 100 -89 100 -129 0 -30 -32
-90 -59 -110 -14 -10 -14 -15 -3 -34 19 -30 40 -102 53 -179 11 -65 15 -337 5
-347 -3 -3 -62 -6 -133 -7 l-128 -1 2 85 c1 47 9 126 17 175 9 50 16 107 16
128 0 51 23 104 50 112 34 11 20 39 -23 46 -99 16 -148 137 -91 224 l25 40 72
-1 c40 0 83 -1 97 -2z m-3744 -17 c-3 -8 0 -15 6 -15 6 0 9 -3 5 -6 -10 -11
-26 6 -20 21 3 8 7 15 10 15 3 0 3 -7 -1 -15z m77 -4 c-3 -12 -11 -17 -19 -14
-21 8 -17 33 5 33 14 0 18 -5 14 -19z m5442 6 c11 -9 14 -16 7 -20 -5 -4 -8
-17 -4 -29 3 -14 2 -19 -6 -14 -16 10 -16 -35 0 -70 12 -26 14 -26 79 -21 60
5 70 3 100 -19 18 -13 27 -24 21 -24 -10 0 -10 -5 -2 -20 6 -11 7 -20 2 -20
-5 0 -12 -13 -15 -30 -7 -31 -7 -31 -89 -32 -64 -1 -46 -20 29 -33 48 -8 89
31 98 93 11 73 20 84 68 80 41 -3 42 -3 39 -39 -1 -19 9 -80 23 -134 14 -54
23 -110 21 -124 -3 -14 -8 -215 -11 -446 -3 -231 -7 -481 -10 -555 -3 -74 -7
-681 -9 -1349 -3 -1100 -4 -1215 -19 -1226 -9 -6 -35 -17 -59 -24 -24 -7 -59
-22 -79 -32 -20 -11 -45 -19 -54 -19 -17 0 -17 58 -11 1098 4 603 9 1158 11
1232 2 74 7 250 10 390 3 140 7 332 10 425 3 94 8 255 11 360 3 104 2 205 -1
224 -6 31 -7 32 -19 15 -10 -14 -14 -68 -15 -199 0 -99 -3 -202 -6 -230 -8
-86 -21 -633 -23 -1005 -1 -113 -1 -212 -2 -220 -5 -119 -9 -433 -14 -1285 -7
-1016 -9 -1205 -22 -1575 -4 -107 -7 -308 -6 -447 0 -209 -2 -254 -14 -264 -8
-6 -17 -9 -20 -6 -3 3 -7 497 -10 1098 -2 602 -6 1249 -8 1439 -2 190 -5 501
-6 693 -1 256 -5 347 -13 347 -9 0 -9 2 -1 8 8 5 13 161 19 517 12 865 13
1055 4 1055 -5 0 -9 5 -9 11 0 5 5 7 10 4 11 -7 13 15 4 39 -3 9 -10 13 -15
10 -5 -3 -9 0 -9 5 0 6 5 11 10 11 6 0 10 6 10 14 0 8 9 18 21 21 39 13 14 30
-38 27 -29 -2 -54 1 -58 7 -3 6 -17 8 -31 5 -17 -4 -24 -2 -24 9 0 8 9 17 20
20 11 3 18 2 16 -2 -3 -5 86 -7 130 -2 20 2 25 30 6 29 -63 -2 -176 13 -183
24 -15 23 -10 37 19 50 24 12 28 20 32 76 4 48 10 67 24 78 25 17 37 18 61 1z
m-3705 -49 c0 -5 -7 -11 -16 -15 -19 -7 -34 13 -34 46 l0 24 25 -23 c14 -13
25 -27 25 -32z m-170 -28 c0 -5 -4 -10 -10 -10 -5 0 -10 5 -10 10 0 6 5 10 10
10 6 0 10 -4 10 -10z m75 -48 c0 -20 -19 -18 -23 2 -3 12 1 17 10 14 7 -3 13
-10 13 -16z m-725 -29 c0 -15 -10 -18 -55 -20 -38 -1 -55 3 -55 11 0 19 5 21
59 24 43 2 51 -1 51 -15z m1750 -7 c0 -8 -7 -16 -15 -20 -8 -3 -24 -20 -34
-37 l-19 -32 -336 -3 c-293 -3 -337 -2 -350 12 -9 8 -16 23 -16 33 0 16 12 17
118 17 193 -1 535 18 592 33 51 13 60 13 60 -3z m2466 9 c19 -4 22 -14 28
-107 4 -57 11 -107 17 -112 14 -15 11 -26 -7 -26 -8 0 -13 3 -11 8 3 4 -24 8
-59 9 -39 2 -64 -1 -64 -8 0 -5 -4 -7 -10 -4 -6 3 -10 -4 -10 -17 0 -17 3 -19
9 -9 6 9 16 11 32 5 24 -8 32 -10 57 -12 11 -2 12 -83 6 -434 -8 -551 -8
-1368 3 -2428 8 -936 8 -1676 -1 -2130 -6 -249 -10 -308 -22 -320 -10 -10 -19
-12 -29 -5 -13 8 -15 44 -15 220 0 116 1 224 1 240 1 17 -2 314 -5 660 -5 560
-12 956 -32 1955 -3 157 -8 708 -10 1225 -5 1085 -4 1035 -11 1015 -2 -8 -7
-22 -10 -30 -8 -19 -10 -27 -12 -40 -1 -11 -41 6 -52 22 -3 5 -10 -2 -16 -15
-7 -14 -8 -29 -2 -38 6 -9 9 -10 9 -2 0 15 41 8 52 -9 10 -16 10 -49 7 -413
-5 -563 6 -2246 16 -2440 3 -55 8 -356 11 -670 3 -313 6 -572 6 -575 0 -3 0
-114 -1 -247 -1 -203 -3 -243 -15 -243 -17 0 -30 83 -28 175 3 142 1 1158 -3
1240 -2 50 -7 245 -10 435 -8 561 -15 885 -20 1060 -3 91 -8 469 -10 840 -2
371 -7 690 -11 707 -8 40 -24 33 -23 -10 0 -18 0 -318 0 -667 -1 -349 1 -707
4 -795 2 -88 7 -268 9 -400 3 -132 9 -321 13 -420 7 -206 7 -186 17 -610 4
-176 3 -418 -1 -538 l-8 -219 -59 -24 c-33 -13 -61 -22 -63 -21 -11 12 0 2548
12 2640 3 21 5 227 5 458 0 294 4 427 11 442 13 23 18 197 7 197 -5 0 -8 5 -8
11 0 5 4 8 9 4 6 -3 9 7 8 22 -2 21 -8 28 -22 28 -23 0 -33 -45 -34 -157 -1
-39 -6 -70 -12 -74 -7 -4 -37 -6 -67 -5 -31 1 -80 -4 -109 -10 -40 -9 -59 -9
-78 -1 -28 13 -25 37 7 45 32 9 10 29 -23 22 -26 -6 -31 -3 -44 29 -18 42 -19
91 -4 150 l11 44 56 6 c32 3 113 6 182 6 138 -1 178 7 194 35 26 46 50 56 75
33 10 -11 12 -7 9 17 -2 22 1 29 12 27 8 -2 11 0 7 5 -11 11 -67 12 -67 2 0
-5 -4 -9 -10 -9 -5 0 -10 6 -10 14 0 7 -9 16 -20 19 -11 3 -20 10 -20 16 0 25
64 32 155 19 12 -2 21 4 23 14 4 22 -19 28 -118 31 -74 3 -75 3 -84 35 -5 20
-5 45 0 65 8 26 16 33 44 37 50 7 211 11 236 5z m1015 -12 c12 -12 -5 -191
-20 -206 -4 -4 -21 -1 -37 7 -18 10 -69 16 -138 18 l-109 3 -12 35 c-7 19 -15
61 -19 92 -7 54 -6 57 16 61 47 10 307 2 319 -10z m-1412 -11 c8 -15 15 -74
12 -110 -1 -10 -22 -12 -87 -10 -80 3 -88 5 -106 29 -11 14 -20 41 -21 60 -2
33 -1 34 43 40 96 13 149 10 159 -9z m94 3 c-3 -9 -8 -14 -10 -11 -3 3 -2 9 2
15 9 16 15 13 8 -4z m416 -7 c21 -55 28 -128 14 -148 -11 -16 -14 -72 -12
-277 1 -142 1 -544 -1 -893 -2 -614 1 -723 22 -736 6 -4 5 -10 -3 -15 -16 -9
-16 -147 1 -429 5 -102 12 -275 14 -385 2 -110 8 -373 13 -585 4 -212 8 -428
8 -480 l0 -94 -44 -13 c-25 -7 -49 -17 -55 -23 -5 -5 -18 -10 -27 -10 -15 0
-17 25 -17 288 -1 158 -3 627 -7 1042 -7 939 -7 1520 1 1715 3 83 7 293 8 469
2 302 3 319 22 333 17 12 19 28 21 131 1 64 2 120 2 125 2 17 32 5 40 -15z
m-2393 -28 c30 -22 44 -53 44 -98 0 -35 -6 -46 -43 -79 -45 -40 -46 -50 -10
-94 20 -25 42 -162 48 -301 3 -75 10 -150 16 -168 6 -17 9 -34 5 -37 -3 -3
-34 -5 -68 -3 -35 1 -91 2 -125 2 -35 -1 -65 4 -69 10 -19 30 1 255 36 408 6
25 13 62 17 83 5 31 10 37 29 37 29 0 33 30 5 37 -32 8 -81 78 -81 115 0 56
11 77 52 102 36 21 44 22 81 12 23 -6 52 -18 63 -26z m-1982 24 c20 -8 21 -30
1 -38 -16 -6 -45 2 -45 13 0 6 21 31 26 31 1 0 9 -3 18 -6z m74 -64 c2 0 9
-14 16 -31 9 -22 10 -46 4 -85 -10 -63 -4 -78 24 -71 11 3 31 2 45 -4 21 -8
23 -13 18 -46 -4 -21 -9 -46 -12 -55 -6 -26 -42 -22 -52 5 -5 12 -25 38 -45
57 -23 22 -41 53 -51 85 -8 29 -27 63 -45 80 -33 31 -36 44 -17 64 8 8 28 11
62 7 28 -3 51 -6 53 -6z m1070 -46 c23 -7 12 -23 -20 -32 -36 -10 -68 1 -68
23 0 23 33 26 88 9z m597 -40 c7 -23 22 -51 34 -63 23 -23 27 -64 10 -108 -16
-40 -38 -187 -50 -328 -5 -66 -11 -125 -14 -132 -2 -7 -50 -13 -137 -17 -73
-3 -158 -9 -188 -13 l-55 -8 -3 -42 c-2 -23 2 -59 7 -81 11 -38 13 -39 64 -46
28 -3 116 -6 193 -6 l142 0 17 -42 c14 -35 14 -44 3 -53 -14 -11 -14 -8 -6
-1832 2 -413 0 -754 -4 -758 -6 -6 -109 42 -241 112 -17 9 -29 33 -46 95 -13
46 -29 103 -37 128 -7 25 -25 90 -38 145 -14 55 -52 204 -85 330 -33 127 -84
322 -112 435 l-53 204 12 106 c7 58 12 127 12 152 0 26 4 69 10 95 17 83 30
336 18 350 -18 22 -1 46 28 40 58 -11 74 52 46 183 -11 51 -25 96 -30 99 -5 3
-21 52 -35 109 -27 106 -36 124 -116 207 -26 28 -57 64 -69 82 -12 17 -42 43
-67 57 -38 22 -45 32 -45 57 0 16 -6 42 -14 57 -22 42 -108 118 -149 131 -20
7 -37 16 -37 19 -1 4 -3 24 -6 45 -5 29 -2 38 12 44 12 4 22 0 32 -15 10 -16
25 -22 49 -22 23 0 46 -9 65 -25 39 -33 51 -32 43 5 -9 41 8 61 46 53 36 -7
37 6 4 45 -34 41 -33 62 4 62 17 0 33 5 36 10 10 16 25 12 25 -7 0 -15 9 -18
58 -17 32 0 67 -6 79 -14 25 -15 93 -7 93 12 0 14 -96 37 -158 38 -37 0 -45 4
-57 29 -27 52 -16 72 25 47 16 -10 24 -10 40 0 11 6 39 12 64 12 56 0 82 25
41 40 -50 19 -15 29 102 29 64 0 117 2 119 3 1 2 71 3 155 3 l152 0 12 -41z
m2205 -15 c0 -10 14 -31 31 -46 46 -41 54 -62 32 -80 -10 -8 -12 -11 -4 -7 9
4 12 3 7 -4 -5 -8 -15 -8 -32 -2 -15 6 -168 7 -388 3 l-364 -6 -7 56 c-4 31
-5 63 -2 71 5 13 200 18 613 16 66 0 83 3 88 15 8 21 26 10 26 -16z m567 15
c30 -6 30 -6 39 -97 11 -117 6 -470 -7 -520 -6 -21 -12 -150 -15 -285 -5 -281
-5 -377 -2 -2197 2 -1464 1 -1705 -11 -1705 -5 0 -15 7 -22 17 -11 13 -15 91
-17 392 -1 207 -4 444 -7 526 -3 83 -7 269 -10 415 -3 146 -8 324 -10 395 -2
72 -7 274 -10 450 -4 176 -9 322 -10 325 -2 3 -5 100 -6 215 -3 229 -5 245
-25 245 -8 0 -14 5 -14 10 0 6 7 10 15 10 17 0 16 -52 20 1135 2 369 3 671 4
673 2 4 59 2 88 -4z m783 -44 c0 -5 -5 -10 -11 -10 -5 0 -7 5 -4 10 3 6 8 10
11 10 2 0 4 -4 4 -10z m-275 -10 c3 -5 1 -10 -4 -10 -6 0 -11 5 -11 10 0 6 2
10 4 10 3 0 8 -4 11 -10z m172 -12 c-2 -9 -21 -12 -53 -11 -68 2 -66 2 -59 13
9 15 118 13 112 -2z m-5282 -26 c52 -19 129 -64 139 -81 4 -6 1 -20 -6 -31
-11 -18 -10 -23 12 -40 14 -11 35 -20 48 -20 28 0 89 44 97 71 7 22 76 45 102
34 10 -4 28 -7 41 -6 30 3 52 -16 52 -45 0 -29 14 -38 30 -19 16 20 36 19 44
-1 4 -11 13 -14 30 -10 14 3 28 2 31 -4 11 -18 40 -11 50 12 6 12 18 26 27 32
27 16 45 -10 52 -74 l6 -55 -113 -1 c-61 0 -155 -4 -207 -8 -52 -4 -108 -8
-125 -8 -51 -3 -152 34 -204 73 -27 20 -58 40 -68 43 -23 7 -46 -14 -38 -35 6
-16 125 -74 193 -94 58 -18 224 -21 329 -6 164 23 339 -22 396 -103 12 -17 25
-33 29 -34 14 -6 -3 -22 -23 -22 -12 0 -25 13 -36 35 -15 31 -21 36 -48 33
-23 -2 -33 -11 -44 -35 -16 -36 -73 -63 -145 -68 -50 -3 -142 -49 -163 -82 -8
-12 -13 -34 -11 -50 2 -22 9 -29 30 -31 22 -3 29 3 44 34 18 39 57 62 102 60
30 -1 41 -21 14 -28 -22 -6 -82 -94 -82 -120 0 -18 4 -20 50 -22 22 -1 25 -6
28 -43 2 -24 5 -43 8 -43 19 0 64 34 64 48 0 9 9 34 20 55 11 20 20 44 20 52
0 8 22 26 50 40 46 23 79 59 66 72 -3 4 -14 -1 -24 -10 -28 -26 -93 -50 -104
-39 -11 11 16 72 32 72 5 0 24 14 42 30 38 35 41 35 59 14 7 -8 29 -24 49 -34
20 -10 61 -44 91 -74 30 -30 82 -83 115 -118 64 -66 102 -125 87 -138 -4 -4
-20 -10 -35 -14 -24 -5 -28 -3 -34 21 -8 33 -20 43 -52 43 -21 0 -22 -3 -16
-37 3 -21 7 -42 8 -48 2 -16 -40 -17 -54 0 -20 24 -39 18 -54 -20 -17 -40 -45
-54 -98 -47 -35 4 -38 2 -38 -21 0 -20 -10 -31 -40 -48 -40 -23 -50 -42 -29
-55 6 -3 16 -1 22 5 6 6 21 11 33 11 45 0 34 -49 -16 -75 -40 -21 -44 -20 -59
20 -8 23 -19 35 -31 35 -28 0 -33 -17 -20 -67 13 -44 13 -45 -16 -68 -24 -19
-27 -26 -16 -37 10 -10 16 -10 34 1 19 12 23 11 34 -4 17 -23 37 -112 30 -130
-3 -8 -18 -15 -33 -15 -15 0 -40 -6 -55 -14 -58 -30 -94 -51 -110 -64 -10 -9
-27 -12 -46 -8 -26 6 -36 -1 -116 -84 -71 -74 -92 -90 -117 -90 -36 0 -46 20
-26 52 9 13 23 52 32 88 10 36 24 76 32 88 8 13 21 46 29 73 10 34 29 63 57
90 32 32 39 44 31 57 -6 9 -16 18 -23 20 -17 6 -107 -94 -131 -145 -21 -44
-36 -54 -46 -28 -10 26 76 183 137 250 118 128 121 132 104 149 -21 21 -18 21
-58 -16 -174 -166 -318 -435 -262 -491 11 -11 25 -15 41 -11 21 5 24 3 24 -23
0 -16 -7 -38 -15 -49 -8 -10 -15 -24 -15 -31 0 -7 -11 -28 -23 -47 -13 -19
-30 -56 -37 -83 -7 -26 -25 -64 -39 -83 -32 -42 -53 -88 -43 -93 4 -3 23 -8
42 -12 60 -12 82 -32 75 -66 -8 -34 16 -50 47 -30 23 14 58 5 58 -15 0 -8 -13
-33 -30 -56 -16 -22 -30 -49 -30 -59 0 -26 -21 -69 -34 -69 -6 0 -20 7 -30 15
-11 8 -27 15 -35 15 -34 0 -92 22 -120 45 -33 29 -69 32 -78 9 -6 -17 11 -34
79 -79 21 -14 46 -25 55 -25 28 -1 103 -38 103 -51 0 -17 -40 -59 -57 -59 -12
0 -15 6 -17 40 -1 16 -118 79 -149 79 -10 1 -20 -6 -24 -15 -13 -33 80 -93
145 -94 17 0 23 -5 20 -17 -3 -16 -17 -18 -126 -17 -114 0 -124 2 -138 22 -12
18 -25 22 -68 22 -44 0 -60 5 -91 30 -21 17 -45 30 -53 30 -9 0 -26 9 -38 21
-26 24 -48 17 -39 -12 9 -29 -15 -33 -82 -14 -32 10 -75 17 -95 16 -30 0 -42
6 -67 35 -17 19 -31 32 -31 29 0 -2 -25 5 -56 16 -30 12 -58 18 -62 14 -4 -3
1 -20 11 -37 24 -41 7 -59 -21 -23 -57 72 -42 196 75 635 27 102 38 166 53
300 18 153 47 329 76 463 12 54 13 74 4 103 -10 30 -9 47 4 93 9 31 20 74 24
96 7 37 10 40 42 41 26 1 40 9 64 40 17 21 54 63 82 93 43 45 58 55 95 60 39
5 44 9 44 31 0 39 -33 36 -103 -10 -122 -78 -94 -15 43 101 46 39 100 75 119
80 24 7 36 16 38 32 5 38 112 49 193 19z m5397 1 c0 -10 1 -24 1 -30 -1 -7 4
-13 11 -13 7 0 6 -3 -2 -9 -18 -11 -12 -97 6 -93 6 1 12 -2 12 -8 0 -5 -7 -10
-15 -10 -23 0 -28 -42 -16 -147 8 -66 9 -203 4 -423 -11 -543 -10 -843 5 -848
6 -2 12 -10 12 -17 0 -7 -6 -15 -12 -18 -10 -3 -13 -197 -13 -927 l0 -924 -32
-9 c-67 -20 -64 -38 -58 380 3 208 8 702 11 1098 3 396 7 756 9 800 3 77 10
336 20 750 9 334 13 444 20 455 10 16 35 11 37 -7z m-282 -3 c0 -5 11 -12 24
-16 l24 -6 -1 -224 c-1 -123 2 -224 6 -224 5 0 1 -7 -8 -16 -14 -14 -15 -65
-11 -496 3 -274 1 -490 -4 -503 -5 -14 -11 -598 -15 -1342 -3 -725 -7 -1394
-9 -1488 -4 -202 -4 -213 -3 -245 0 -14 0 -119 -1 -233 l-2 -208 -35 -15 c-20
-8 -40 -12 -45 -9 -6 4 -10 28 -10 55 0 27 -5 52 -10 55 -7 4 -6 13 1 26 11
22 24 188 21 284 -2 56 -3 645 -4 2325 0 377 0 694 0 705 -1 11 0 40 1 65 0
25 0 56 0 70 -1 14 1 75 4 135 3 61 8 349 12 640 6 586 8 631 32 657 18 20 33
24 33 8z m196 -108 c1 -51 4 -96 8 -99 3 -3 0 -13 -7 -21 -10 -13 -9 -14 3 -7
13 8 13 6 2 -7 -15 -19 -7 -103 12 -127 8 -11 8 -13 -1 -8 -18 11 -21 -15 -28
-193 -19 -466 -25 -1302 -22 -2990 0 -197 -3 -385 -14 -705 -4 -148 -11 -355
-14 -459 -5 -200 -12 -228 -55 -239 -33 -9 -39 26 -34 190 2 81 5 180 7 218 1
39 0 178 -1 310 -2 132 -1 503 2 825 5 447 7 1638 4 1830 -1 14 4 84 10 155 5
72 9 153 7 180 -7 81 -5 615 2 680 3 33 5 139 4 235 -1 96 1 205 4 242 7 65 8
68 39 77 67 20 71 16 72 -87z m-5796 -195 c0 -31 -71 -100 -93 -91 -34 13 -20
50 33 88 44 31 60 32 60 3z m3831 -93 c19 -23 25 -114 8 -115 -190 -15 -889
-18 -934 -5 -39 12 -45 21 -45 77 l0 47 63 -5 c34 -2 152 0 262 5 110 5 298 9
417 10 179 1 219 -2 229 -14z m642 -33 c10 -10 11 -480 2 -571 -4 -38 -7
-2109 -5 -3128 1 -349 -1 -636 -4 -639 -8 -9 -125 -31 -131 -25 -9 9 -6 42 5
42 9 0 6 1252 -4 1268 -11 19 -21 881 -20 1926 0 1014 1 1119 16 1130 19 14
126 12 141 -3z m-3143 -1 c0 -5 -4 -10 -10 -10 -5 0 -10 5 -10 10 0 6 5 10 10
10 6 0 10 -4 10 -10z m2944 -7 c3 -10 5 -416 4 -903 0 -487 2 -943 5 -1015 6
-140 20 -1450 21 -1990 1 -284 -1 -330 -14 -330 -8 0 -21 19 -30 42 -13 35
-15 88 -14 305 1 156 7 277 13 298 14 44 14 106 1 131 -6 11 -13 103 -15 207
-6 339 -17 942 -20 1071 -1 69 -5 589 -10 1154 -7 882 -6 1030 6 1038 23 14
47 10 53 -8z m-763 -238 c-2 -80 -7 -125 -16 -134 -9 -9 -48 -14 -126 -17
-114 -4 -184 7 -176 29 4 13 10 14 80 16 41 1 47 4 47 22 0 20 -3 21 -61 15
-47 -6 -64 -4 -70 6 -15 23 -11 166 5 175 8 4 84 8 168 8 l153 0 -4 -120z
m-367 98 c2 -10 5 -128 5 -263 0 -135 3 -384 6 -555 3 -170 7 -536 9 -812 l5
-502 -32 -21 c-80 -52 -97 -68 -117 -115 -12 -27 -26 -57 -31 -65 -14 -23 -17
-32 -29 -77 -8 -33 -17 -44 -36 -49 -14 -4 -29 -17 -34 -29 -5 -13 -25 -46
-44 -73 -31 -42 -42 -50 -78 -56 -23 -4 -47 -10 -53 -15 -5 -4 -18 -11 -29
-15 -18 -6 -19 15 -13 891 3 494 8 952 11 1018 3 66 8 208 11 315 8 262 4 246
73 254 31 3 104 9 162 12 58 3 107 7 109 9 1 2 0 8 -4 14 -8 13 -97 14 -228 1
-81 -8 -214 -11 -337 -8 -33 1 -285 -1 -330 -2 -19 -1 -70 2 -112 5 l-78 7 0
53 0 53 153 7 c83 3 235 5 337 4 102 -1 271 -1 376 1 105 1 197 0 203 -4 6 -4
11 -16 11 -26 0 -10 5 -31 10 -46 9 -24 13 -26 25 -13 12 12 12 21 3 51 -15
50 -6 68 36 68 24 0 36 -5 40 -17z m-1970 -97 c-7 -28 -34 -36 -34 -10 0 15
31 47 38 39 2 -1 0 -14 -4 -29z m36 -6 c0 -5 -4 -10 -10 -10 -5 0 -10 5 -10
10 0 6 5 10 10 10 6 0 10 -4 10 -10z m1369 -69 l76 -6 -4 -95 c-1 -52 -7 -100
-13 -107 -8 -10 -70 -18 -183 -25 -51 -3 -85 10 -85 32 0 26 32 38 114 43 36
1 69 6 73 11 15 15 -23 25 -77 20 -104 -11 -103 -11 -110 16 -4 14 -5 44 -2
67 l4 41 56 9 c32 5 61 7 66 5 4 -3 43 -7 85 -11z m-835 -127 c11 -28 6 -42
-16 -47 -26 -7 -48 8 -48 33 0 30 53 42 64 14z m1524 8 c9 -6 14 -169 19 -723
5 -393 8 -785 8 -872 l0 -159 -28 -24 c-15 -13 -35 -24 -43 -24 -16 0 -16 0
-20 485 -1 171 -4 409 -7 530 -6 238 -8 404 -7 643 l0 152 33 0 c17 0 38 -4
45 -8z m-1652 -58 c8 -31 -7 -48 -35 -39 -20 6 -29 43 -14 58 16 16 43 6 49
-19z m-112 -39 c8 -21 -30 -57 -57 -53 -12 2 -23 11 -25 21 -7 36 69 65 82 32z
m274 -49 c-2 -15 -11 -22 -34 -24 -26 -3 -33 1 -38 20 -10 38 -7 48 17 58 17
6 26 4 40 -12 10 -12 17 -31 15 -42z m-139 -17 c12 -34 7 -49 -15 -49 -17 0
-37 47 -30 67 9 23 34 14 45 -18z m809 -1228 c1 -725 6 -1249 11 -1255 12 -15
2 -68 -12 -63 -7 2 -15 18 -18 36 -4 19 -16 46 -27 60 -19 26 -20 49 -27 532
-9 611 -9 1915 0 1930 4 5 21 9 38 7 l32 -3 3 -1244z m194 424 c-3 -1169 -7
-1386 -22 -1416 -7 -13 -28 -41 -47 -62 -18 -21 -41 -53 -50 -72 -9 -19 -20
-35 -25 -35 -4 0 -9 100 -9 223 -1 122 -3 238 -4 257 -2 19 -4 260 -5 535 -1
376 2 501 10 503 9 3 9 6 0 12 -9 6 -12 60 -11 211 3 319 11 651 17 661 3 5
38 8 77 6 l72 -3 -3 -820z m-1101 761 c6 -23 4 -32 -14 -47 -29 -24 -43 -24
-61 3 -21 29 -20 34 5 59 28 28 61 21 70 -15z m260 -17 c4 -13 7 -41 8 -61 1
-45 -26 -68 -80 -68 -20 0 -49 -7 -65 -15 -19 -9 -32 -11 -38 -5 -15 15 -35
12 -63 -10 -19 -15 -29 -17 -39 -9 -43 35 -16 89 45 89 30 0 39 6 54 31 13 23
22 29 35 24 34 -15 57 -11 60 11 3 19 45 44 67 40 5 -2 12 -13 16 -27z m-392
-65 c13 -35 12 -37 -21 -65 -45 -39 -70 -34 -81 14 -8 31 -6 42 9 59 21 23 53
37 70 31 5 -2 16 -20 23 -39z m39 -116 c7 -7 12 -19 12 -28 0 -22 -65 -84 -79
-76 -20 13 -12 66 14 91 27 28 36 30 53 13z m277 -34 c19 -41 15 -49 -28 -49
-44 0 -48 -28 -5 -40 33 -10 47 -38 34 -70 -4 -12 -11 -12 -41 1 -40 16 -75
11 -75 -12 0 -20 43 -35 80 -28 26 6 30 3 30 -14 0 -19 -6 -20 -62 -19 -50 2
-63 -1 -66 -14 -2 -13 8 -18 48 -23 67 -9 80 -15 80 -36 0 -35 -30 -46 -132
-49 -22 -1 -24 -27 -2 -35 9 -3 33 -6 55 -6 33 0 40 -4 45 -24 3 -14 3 -34 -1
-46 -6 -19 -11 -21 -48 -14 -23 5 -58 8 -77 9 -28 0 -35 -4 -35 -19 0 -17 11
-22 62 -31 74 -14 78 -17 63 -44 -13 -26 -21 -26 -70 -1 -47 24 -90 26 -90 5
0 -29 47 -48 100 -42 39 5 50 3 50 -8 0 -8 -4 -17 -10 -20 -5 -3 -10 -17 -10
-30 0 -27 -46 -121 -72 -147 -10 -10 -19 -29 -19 -43 -1 -14 -3 -29 -4 -35 -1
-5 -3 -14 -4 -20 0 -5 -16 -13 -33 -18 -42 -11 -46 -33 -9 -53 28 -17 88 -116
76 -128 -3 -3 -20 -6 -38 -7 -45 -2 -87 -21 -87 -39 0 -18 9 -19 44 -5 33 12
86 2 86 -16 0 -8 -10 -14 -23 -14 -34 0 -59 -22 -51 -44 5 -13 13 -16 30 -12
13 3 34 9 47 12 20 5 25 -1 41 -47 l19 -52 -24 -19 c-19 -16 -21 -21 -9 -25
28 -12 82 -76 106 -127 27 -58 29 -76 12 -95 -9 -10 -10 -15 -2 -18 6 -2 19
-10 29 -17 16 -12 15 -16 -19 -60 -35 -47 -45 -79 -27 -91 9 -5 31 19 57 61 9
15 15 16 25 7 10 -10 7 -21 -12 -57 -17 -33 -21 -48 -12 -57 8 -8 16 -7 32 3
39 24 43 -8 11 -71 -15 -31 -35 -79 -43 -107 -21 -70 -50 -124 -85 -157 -29
-28 -31 -28 -60 -13 -39 20 -60 74 -63 162 -2 64 -1 69 19 72 25 4 46 36 38
58 -8 20 -29 18 -59 -6 l-25 -20 -51 67 c-47 64 -95 151 -137 251 -15 36 -16
49 -6 75 11 28 9 34 -13 57 -14 14 -25 34 -25 43 0 22 -28 33 -43 18 -18 -18
-35 -13 -77 25 -45 41 -60 91 -39 130 10 19 10 37 1 87 -20 108 -23 161 -13
212 5 28 6 53 2 58 -4 4 -4 38 0 76 8 72 50 171 74 171 7 0 18 15 25 33 6 17
19 50 28 72 12 28 16 63 14 122 l-2 82 41 12 c34 11 42 10 50 -2 5 -8 7 -20 4
-26 -2 -7 -7 -35 -11 -63 -6 -46 -5 -50 13 -50 24 0 34 41 26 111 -5 44 -4 47
59 118 36 40 84 88 108 107 23 19 60 57 81 86 61 81 78 86 104 32z m-207 -77
c2 -10 -3 -17 -12 -17 -10 0 -16 9 -16 21 0 24 23 21 28 -4z m-171 -11 c-6
-17 -21 -13 -25 6 -3 13 1 16 13 12 9 -4 14 -12 12 -18z m4563 -11 c0 -5 -5
-3 -10 5 -8 12 -10 12 -10 1 0 -8 -2 -12 -5 -9 -3 3 -2 13 1 22 5 14 9 15 15
4 5 -7 9 -17 9 -23z m-4623 -32 c2 -6 -10 -14 -26 -18 -17 -4 -55 -28 -83 -55
-29 -26 -83 -74 -119 -107 -99 -88 -173 -172 -202 -230 -15 -28 -31 -54 -36
-57 -17 -11 -20 10 -5 39 8 15 17 46 21 69 15 98 128 266 180 266 12 0 24 4
27 9 3 5 32 24 63 41 31 18 63 38 70 46 16 16 105 14 110 -3z m-67 -224 c0 -5
-7 -9 -15 -9 -15 0 -20 12 -9 23 8 8 24 -1 24 -14z m-430 -41 c0 -6 -5 -28
-11 -48 -9 -31 -15 -37 -33 -32 -37 9 -48 24 -42 55 9 47 22 57 57 45 16 -5
29 -15 29 -20z m346 -21 c9 -28 7 -39 -16 -82 -15 -28 -31 -81 -37 -120 -6
-38 -19 -95 -28 -125 -27 -88 -35 -237 -20 -385 15 -154 39 -223 94 -279 22
-23 40 -44 41 -48 0 -5 0 -17 0 -27 0 -14 11 -23 38 -31 44 -15 72 -37 72 -59
1 -50 68 -188 147 -302 49 -72 56 -89 63 -148 13 -118 25 -146 76 -180 25 -17
51 -31 59 -31 8 0 30 14 49 31 20 17 43 29 51 27 9 -2 34 -36 55 -76 22 -40
49 -85 60 -99 11 -14 20 -34 20 -44 0 -10 9 -33 19 -51 38 -67 37 -74 -19
-109 -44 -27 -55 -41 -90 -113 -44 -93 -63 -203 -40 -231 7 -8 10 -26 8 -40
-3 -14 -2 -43 2 -64 4 -22 4 -44 1 -49 -6 -9 -58 -34 -138 -67 -52 -22 -130
-95 -149 -140 -7 -18 -18 -37 -24 -40 -17 -10 -98 -181 -116 -243 -18 -64 -41
-95 -62 -87 -17 6 -63 -6 -132 -35 -25 -10 -96 -35 -159 -55 -62 -20 -130 -43
-150 -52 -20 -8 -47 -17 -61 -19 -39 -5 -60 -11 -140 -43 -199 -80 -320 -120
-320 -108 0 35 33 206 48 247 11 30 23 67 26 82 3 15 33 58 66 95 50 57 64 81
84 148 14 44 30 109 37 145 6 36 22 99 34 140 22 71 61 239 71 305 3 17 7 44
10 62 3 20 12 34 24 38 10 3 22 15 25 26 5 14 14 19 34 17 16 -1 39 5 52 14
14 8 39 19 58 23 50 11 63 52 55 168 -3 51 -14 124 -24 162 -35 131 -58 280
-69 440 -24 345 -38 455 -67 500 -7 11 -18 45 -23 75 -6 30 -15 82 -22 114 -8
40 -8 65 -2 75 6 9 20 52 32 96 52 183 64 223 88 280 57 134 68 155 93 165 46
19 69 36 130 95 34 31 64 54 68 50 4 -3 12 -21 18 -38z m52 -44 c-2 -16 -7
-28 -13 -28 -5 0 -11 12 -13 28 -2 20 1 27 13 27 12 0 15 -7 13 -27z m-18 -74
c0 -5 -7 -9 -15 -9 -15 0 -20 12 -9 23 8 8 24 -1 24 -14z m-430 -5 c0 -17 -22
-14 -28 4 -2 7 3 12 12 12 9 0 16 -7 16 -16z m937 -46 c-3 -8 -6 -5 -6 6 -1
11 2 17 5 13 3 -3 4 -12 1 -19z m-527 -34 c0 -8 -4 -12 -10 -9 -5 3 -10 13
-10 21 0 8 5 12 10 9 6 -3 10 -13 10 -21z m-71 -317 c1 -5 -3 -5 -9 -2 -5 3
-10 16 -9 28 0 21 1 21 9 2 5 -11 9 -24 9 -28z m-1423 -52 c9 -8 11 -15 6 -15
-12 0 -47 -121 -67 -233 -15 -86 -15 -89 5 -121 12 -20 20 -51 20 -75 0 -36
-4 -44 -32 -61 -28 -17 -30 -20 -12 -20 29 0 36 -22 29 -89 -6 -60 -16 -243
-15 -276 0 -11 2 -55 5 -97 l4 -77 -30 -6 c-36 -8 -38 -27 -2 -23 21 2 28 -2
34 -25 10 -39 2 -57 -27 -57 -13 0 -24 -4 -24 -10 0 -5 8 -10 19 -10 22 0 36
-16 44 -50 9 -36 -3 -49 -42 -47 -48 3 -50 -19 -2 -27 47 -7 51 -16 51 -107 0
-73 -14 -95 -45 -69 -17 14 -57 10 -62 -7 -3 -7 11 -14 34 -18 51 -8 67 -18
71 -42 5 -32 -18 -43 -72 -35 -73 11 -77 29 -75 342 2 298 2 297 -11 284 -20
-20 -37 -209 -35 -389 1 -99 4 -189 6 -200 3 -15 -2 -21 -21 -23 -14 -1 -31 1
-37 6 -17 11 -20 129 -6 212 6 36 10 148 9 250 -1 151 -5 190 -18 210 -13 20
-15 36 -8 75 4 28 11 106 15 175 4 69 12 134 18 145 6 11 14 38 19 60 5 22 13
58 19 80 5 22 14 62 19 89 5 26 16 58 24 70 8 13 16 33 18 47 2 16 10 25 25
27 19 3 21 6 10 23 -17 27 3 55 37 52 23 -2 26 1 23 30 -2 27 2 32 28 38 17 4
31 7 33 8 2 0 10 -6 18 -14z m69 -25 c4 -6 -5 -43 -18 -83 -27 -79 -40 -217
-21 -224 7 -2 14 16 18 44 3 26 10 61 15 78 6 16 15 57 22 90 17 83 25 95 59
95 28 0 57 -29 43 -44 -8 -7 -25 -163 -25 -226 -1 -127 32 -201 44 -100 3 24
6 25 56 22 42 -3 52 0 52 12 0 13 -12 16 -54 16 -44 0 -55 3 -59 19 -9 35 5
40 67 24 39 -10 62 -11 68 -5 14 14 -53 42 -98 42 -29 0 -34 3 -34 24 0 27 33
44 53 28 7 -6 29 -13 50 -17 29 -6 37 -4 37 8 0 8 -7 17 -15 21 -24 9 -17 26
10 26 29 0 34 18 8 27 -41 15 -105 65 -95 75 14 14 109 -8 147 -35 20 -14 53
-23 105 -28 41 -4 86 -10 100 -14 14 -3 36 -2 50 3 18 7 44 4 90 -9 36 -11 78
-19 93 -19 20 0 30 -6 34 -20 3 -11 13 -21 22 -21 9 -1 21 -2 26 -4 6 -1 18
-3 28 -3 9 -1 17 -6 17 -12 0 -5 16 -30 35 -56 19 -25 35 -52 35 -61 0 -8 13
-27 29 -42 28 -26 28 -28 35 -176 15 -332 52 -635 90 -728 16 -36 31 -216 22
-245 -4 -11 -28 -29 -54 -41 -26 -12 -55 -27 -64 -33 -13 -10 -20 -10 -29 -1
-9 9 -6 19 14 42 33 39 58 117 52 161 -3 19 -18 150 -34 290 -17 140 -37 284
-45 320 -8 36 -26 124 -40 195 -14 72 -30 153 -36 180 -5 28 -12 67 -15 88 -5
33 -9 37 -34 37 -15 0 -30 -3 -34 -6 -6 -6 20 -103 33 -119 13 -18 37 -107 55
-205 10 -52 24 -111 32 -130 8 -19 16 -79 18 -135 4 -114 12 -209 25 -310 5
-38 14 -112 21 -164 l11 -93 -31 -45 c-17 -24 -31 -56 -31 -72 0 -16 -7 -35
-16 -42 -14 -12 -20 -9 -41 15 -21 25 -24 36 -18 70 23 150 13 275 -34 426
-50 159 -114 425 -125 520 -3 25 -10 72 -16 104 -10 62 -3 86 27 86 23 0 9 25
-16 28 -25 4 -26 36 -1 38 8 1 22 2 32 3 11 1 15 7 11 21 -7 25 -64 28 -87 4
-27 -26 -28 -59 -8 -171 11 -59 23 -137 27 -173 3 -36 13 -90 21 -120 7 -30
25 -104 39 -165 14 -60 35 -135 45 -165 30 -87 44 -177 44 -285 0 -129 -12
-203 -33 -209 -37 -10 -162 0 -170 13 -17 27 -43 6 -68 -56 -23 -57 -27 -62
-62 -68 -60 -10 -171 -8 -241 4 -92 17 -101 21 -98 40 1 9 -7 30 -20 45 -12
16 -22 39 -22 52 0 25 10 29 63 25 15 -1 27 2 27 8 0 11 -24 19 -75 23 -27 3
-30 6 -30 38 0 38 -1 38 83 24 24 -4 42 -3 42 3 0 14 -67 43 -101 43 -35 0
-49 24 -26 47 14 14 18 14 46 0 35 -17 47 -9 26 19 -13 19 -17 20 -55 23 -17
1 -20 8 -20 51 l0 50 47 0 c25 0 44 3 40 6 -3 4 -24 6 -46 6 -41 -1 -56 14
-45 43 4 10 20 15 45 15 41 0 52 14 20 25 -10 3 -23 5 -27 4 -23 -4 -32 4 -38
32 -3 17 -1 40 5 50 9 17 17 19 57 14 44 -6 46 -5 28 9 -11 9 -34 16 -52 16
-27 0 -33 4 -37 28 -8 40 8 53 55 45 32 -5 40 -3 36 8 -3 8 -23 16 -49 19 -47
5 -56 19 -45 66 6 22 12 24 61 24 30 0 55 4 55 9 0 12 -47 23 -68 17 -25 -8
-44 8 -40 35 3 22 7 24 51 21 70 -5 58 33 -13 40 -34 3 -35 4 -38 51 -3 39 -6
47 -23 47 -18 0 -19 -8 -20 -147 -2 -238 -2 -260 0 -433 1 -91 -1 -192 -4
-225 -4 -39 -1 -82 9 -123 20 -86 9 -112 -46 -110 -75 3 -79 16 -93 313 -3 66
-10 145 -15 175 -10 59 -6 520 6 635 5 60 3 80 -16 132 l-22 62 31 123 c38
146 64 194 86 158z m2029 -11 c-3 -5 -10 -7 -15 -3 -5 3 -7 10 -3 15 3 5 10 7
15 3 5 -3 7 -10 3 -15z m-1604 -39 c0 -5 -7 -7 -15 -4 -8 4 -15 8 -15 10 0 2
7 4 15 4 8 0 15 -4 15 -10z m418 -27 c2 -7 -8 -18 -23 -25 -21 -10 -28 -9 -35
2 -4 7 -6 19 -3 27 7 17 55 13 61 -4z m2997 -256 c46 6 89 -13 145 -64 14 -13
28 -23 32 -23 15 0 103 -149 129 -220 15 -41 32 -111 38 -154 9 -74 8 -86 -16
-155 -13 -42 -28 -79 -32 -84 -4 -4 -23 4 -42 18 -19 13 -44 30 -56 36 -38 20
-37 44 0 94 28 36 36 57 42 111 5 53 4 70 -8 81 -23 23 -34 9 -40 -55 -10 -95
-66 -192 -102 -178 -15 6 -14 10 10 41 28 37 30 68 5 73 -16 3 -51 -49 -60
-88 -4 -21 -11 -25 -58 -27 -77 -5 -146 -33 -150 -61 -5 -31 22 -38 53 -14 15
12 50 26 80 32 46 9 61 8 114 -10 118 -39 183 -111 210 -229 5 -23 16 -50 25
-60 11 -12 16 -35 15 -72 -1 -60 43 -304 65 -359 18 -43 66 -204 66 -219 0 -6
-6 -11 -14 -11 -24 0 -27 -15 -15 -68 11 -51 1 -206 -20 -318 -14 -76 -76
-250 -122 -344 -51 -105 -82 -150 -153 -223 -59 -60 -67 -77 -38 -77 38 0 182
181 239 300 45 95 53 118 88 230 48 152 57 191 62 278 3 39 8 72 12 72 5 0 18
-35 31 -77 22 -76 23 -79 7 -188 -10 -76 -12 -114 -5 -122 24 -30 33 -13 57
106 9 47 22 86 27 88 6 2 17 -16 24 -39 8 -24 27 -64 42 -89 37 -61 60 -163
53 -240 -3 -44 -15 -81 -45 -137 -47 -91 -50 -112 -16 -112 19 0 26 8 35 43
15 52 36 81 53 74 21 -8 58 -91 58 -130 0 -25 6 -40 20 -50 31 -22 40 -67 29
-148 -6 -39 -7 -75 -2 -80 4 -4 27 5 51 21 42 28 124 62 227 94 28 8 97 34
155 57 58 22 125 47 150 55 25 8 54 18 65 24 11 5 49 21 85 34 91 33 272 105
292 116 10 6 22 10 27 10 12 0 198 86 295 135 38 20 73 32 77 28 5 -5 12 -29
15 -54 l6 -44 -68 -32 c-70 -32 -130 -56 -194 -75 -19 -5 -39 -14 -45 -18 -5
-4 -36 -17 -68 -29 -32 -11 -104 -42 -160 -67 -221 -100 -272 -122 -349 -150
-26 -9 -53 -23 -59 -30 -6 -8 -19 -14 -28 -14 -9 0 -21 -4 -26 -9 -14 -12
-170 -80 -230 -99 -27 -9 -65 -26 -83 -39 -19 -12 -43 -25 -55 -28 -12 -4 -45
-18 -74 -31 -28 -14 -77 -31 -109 -40 -32 -8 -63 -18 -68 -23 -6 -5 -24 -11
-41 -15 -16 -4 -57 -20 -90 -35 -33 -15 -87 -38 -120 -51 -33 -12 -67 -29 -76
-36 -8 -8 -20 -14 -25 -14 -5 0 -31 -11 -59 -24 -27 -13 -86 -41 -130 -61 -44
-21 -116 -55 -160 -75 -45 -21 -94 -42 -110 -46 -17 -4 -48 -17 -70 -29 -22
-12 -67 -31 -100 -42 -33 -11 -82 -30 -110 -41 -27 -12 -99 -39 -160 -61 -60
-22 -123 -46 -140 -55 -16 -9 -42 -16 -56 -16 -22 0 -28 7 -42 53 -27 85 -33
78 113 131 19 8 60 23 90 35 30 13 75 28 100 36 41 12 161 58 237 91 17 8 35
14 41 14 5 0 27 13 49 29 29 21 57 31 99 36 33 4 97 17 144 30 47 13 117 27
155 31 49 4 107 21 192 55 66 27 126 49 131 49 6 0 41 23 77 50 36 28 73 50
81 50 25 0 114 51 114 66 0 19 -19 18 -42 -3 -12 -11 -33 -16 -63 -15 -40 2
-47 -1 -72 -34 -31 -39 -88 -72 -184 -105 -34 -12 -76 -30 -93 -39 -33 -19
-173 -53 -185 -45 -10 6 -111 -19 -139 -34 -21 -11 -164 -23 -250 -21 -32 1
-33 0 -27 -29 6 -27 3 -32 -22 -42 -15 -7 -42 -18 -60 -25 -17 -8 -36 -14 -43
-14 -6 0 -55 -19 -108 -41 -100 -43 -325 -119 -352 -119 -14 0 -91 293 -191
725 -10 44 -34 147 -54 228 -20 82 -42 179 -50 215 -7 37 -25 108 -39 157 -14
50 -26 101 -26 115 0 14 -7 50 -15 80 -60 216 -84 322 -76 343 33 88 73 247
75 302 1 22 10 57 19 77 32 69 42 124 29 153 -17 37 -15 54 6 48 21 -5 31 13
69 127 14 41 34 94 44 117 10 24 19 47 19 52 0 13 82 89 126 116 28 17 54 24
91 25 42 0 54 4 63 20 6 11 26 26 44 34 19 8 37 23 40 34 4 10 17 24 30 30 17
7 29 31 50 94 15 45 31 92 36 103 5 11 16 37 26 58 20 45 108 121 201 173 71
40 160 57 217 42 15 -4 48 -5 71 -1z m-1735 -137 c0 -5 -4 -10 -10 -10 -5 0
-10 5 -10 10 0 6 5 10 10 10 6 0 10 -4 10 -10z m102 -502 c36 -53 40 -56 88
-60 35 -4 69 -17 112 -43 34 -21 105 -60 159 -86 53 -27 99 -54 102 -62 8 -22
-4 -67 -19 -67 -15 0 -47 23 -73 53 -29 33 -102 79 -117 73 -22 -8 -18 -46 6
-46 17 0 133 -99 182 -155 25 -29 31 -70 17 -112 -7 -21 -12 -50 -11 -64 2
-25 -22 -58 -34 -46 -3 3 2 29 11 57 25 76 7 128 -63 175 -20 14 -52 37 -71
50 -19 14 -42 25 -52 25 -29 0 -23 -28 9 -44 16 -8 54 -36 85 -61 41 -33 57
-53 57 -71 0 -13 -2 -24 -5 -24 -4 0 -43 22 -88 49 -120 72 -155 87 -169 73
-14 -14 6 -42 31 -42 10 0 33 -12 52 -26 19 -14 53 -34 77 -45 31 -14 48 -30
58 -54 18 -43 18 -116 1 -140 -18 -23 -25 -11 -33 52 -8 63 -26 90 -66 98 -18
4 -66 19 -106 33 -60 22 -79 35 -103 67 -16 22 -48 61 -71 86 -24 25 -52 62
-64 81 -18 30 -19 38 -8 69 18 49 17 51 -16 44 -36 -8 -39 7 -13 54 17 29 17
31 1 43 -16 12 -16 18 -4 63 7 28 21 66 31 84 l18 35 26 -31 c14 -17 43 -55
63 -85z m-2600 -125 c2 -10 0 -36 -4 -57 -5 -22 -6 -53 -2 -69 9 -42 -4 -117
-21 -117 -24 0 -25 14 -8 139 15 113 26 146 35 104z m6540 -107 c6 -31 -6 -53
-41 -70 -32 -17 -51 -6 -51 29 0 28 11 42 40 54 38 15 47 13 52 -13z m-30
-203 c-3 -55 -7 -73 -18 -73 -17 0 -20 94 -4 136 17 43 26 16 22 -63z m-362
48 c0 -16 -2 -36 -6 -44 -3 -8 -50 -34 -105 -58 -109 -47 -122 -45 -110 14 7
33 11 36 121 86 84 39 100 39 100 2z m420 -21 c0 -11 -4 -20 -10 -20 -5 0 -10
9 -10 20 0 11 5 20 10 20 6 0 10 -9 10 -20z m-430 -190 c0 -64 -3 -80 -15 -80
-12 0 -15 14 -15 64 0 68 6 96 21 96 5 0 9 -36 9 -80z m-64 57 c2 -7 1 -44 -3
-82 -6 -54 -12 -70 -25 -73 -15 -3 -16 5 -12 70 3 40 7 79 10 86 5 16 23 16
30 -1z m-398 -55 c2 -20 -2 -33 -10 -36 -7 -2 -35 -11 -63 -20 -27 -9 -53 -16
-57 -16 -10 0 -10 52 0 66 14 21 67 44 97 41 26 -2 30 -6 33 -35z m317 -55
c-4 -60 -15 -85 -33 -73 -13 8 -3 126 11 144 17 22 25 -5 22 -71z m-3393 36
c6 -16 14 -46 18 -68 4 -22 19 -87 33 -145 15 -58 37 -150 50 -205 27 -111 83
-323 97 -370 18 -58 71 -290 95 -410 13 -66 28 -132 33 -145 6 -14 18 -61 28
-105 9 -44 23 -99 30 -123 8 -23 14 -50 14 -59 0 -9 4 -30 9 -47 5 -17 17 -67
26 -111 9 -44 21 -90 26 -103 5 -13 9 -34 9 -48 0 -13 4 -32 9 -42 6 -9 26
-87 46 -172 20 -85 39 -163 41 -172 4 -12 -6 -22 -33 -35 -21 -10 -40 -18 -43
-19 -3 0 -17 -4 -33 -8 -16 -5 -32 -4 -40 2 -13 11 -119 54 -242 100 -44 16
-89 33 -100 37 -11 4 -24 9 -30 10 -5 2 -54 24 -107 49 -53 25 -105 46 -115
46 -11 0 -23 4 -28 9 -6 4 -22 11 -37 15 -21 5 -28 3 -28 -8 0 -9 21 -21 53
-31 28 -9 61 -20 72 -25 104 -42 297 -115 333 -125 12 -3 26 -15 32 -25 6 -11
31 -23 62 -30 108 -26 136 -57 65 -72 -45 -9 -110 6 -229 56 -48 20 -100 36
-116 36 -16 0 -35 6 -41 14 -6 7 -32 19 -56 26 -25 7 -45 16 -45 20 0 4 -14
10 -31 14 -17 3 -47 13 -67 22 -49 21 -70 30 -112 44 -42 14 -57 21 -134 54
-32 14 -63 26 -68 26 -5 0 -37 13 -71 29 -34 16 -81 32 -104 36 -24 4 -43 10
-43 15 0 4 -13 10 -29 13 -16 3 -35 12 -43 20 -20 20 -67 43 -106 52 -19 4
-68 25 -110 47 -76 39 -182 78 -214 78 -9 0 -33 9 -55 19 -21 11 -76 31 -123
46 -104 32 -226 89 -238 111 -10 18 5 84 19 84 5 0 28 -9 51 -19 24 -11 81
-32 128 -46 47 -15 139 -53 205 -85 66 -32 203 -86 303 -120 101 -33 209 -74
239 -90 31 -17 62 -30 70 -30 7 0 30 -10 51 -23 93 -57 271 -122 309 -113 53
14 153 17 175 5 35 -19 119 -26 178 -15 68 12 95 19 106 28 8 6 29 -11 64 -51
43 -49 60 -61 99 -71 26 -6 52 -10 57 -9 26 5 47 -5 89 -41 25 -22 50 -40 56
-40 21 0 6 35 -31 72 -33 33 -48 41 -97 48 -79 11 -105 23 -137 60 -37 44 -53
78 -59 125 -4 22 -10 60 -16 85 -5 27 -6 64 0 95 12 67 58 432 72 573 8 85 8
115 -1 124 -23 23 -33 -8 -34 -98 -1 -49 -7 -106 -14 -128 -8 -21 -14 -57 -14
-80 0 -23 -5 -68 -10 -98 -6 -31 -13 -108 -15 -170 -4 -114 -11 -184 -21 -199
-3 -5 -1 -26 5 -46 5 -21 12 -58 15 -83 l7 -45 -65 -13 c-91 -17 -137 -15
-204 7 -31 11 -64 19 -72 18 -8 0 -34 3 -58 8 -35 6 -50 16 -77 52 -19 24 -42
65 -51 91 -20 53 -33 66 -51 51 -8 -7 -9 -18 -4 -33 21 -54 53 -113 76 -140
14 -16 25 -33 25 -37 0 -7 -76 -3 -126 6 -50 10 -106 66 -140 140 -29 64 -34
84 -34 151 0 61 4 84 21 111 18 29 22 52 23 125 1 61 -3 92 -11 95 -17 7 -43
77 -37 100 4 15 0 22 -15 26 -21 5 -28 37 -15 71 5 12 9 13 25 3 24 -15 29 -8
63 83 15 41 34 86 41 100 8 15 14 55 14 91 0 46 8 88 26 140 15 41 33 94 39
119 7 25 19 55 26 66 16 25 111 87 170 110 25 10 54 24 66 31 12 7 32 12 45
10 13 -2 35 1 48 7 19 8 26 7 35 -7 16 -21 87 -33 115 -18 32 18 25 31 -16 31
-52 0 -103 20 -103 41 0 31 -12 49 -31 49 -16 0 -19 8 -19 48 0 56 -9 75 -30
62 -29 -18 -33 -10 -26 52 11 105 87 238 137 238 12 0 24 -10 31 -27z m-1343
-47 c33 -30 33 -48 5 -142 -14 -49 -30 -114 -35 -144 -19 -113 -34 -186 -59
-290 -48 -197 -55 -218 -91 -252 -27 -25 -47 -52 -124 -163 -19 -27 -43 -61
-54 -75 -42 -55 -101 -155 -101 -172 0 -10 -4 -18 -10 -18 -5 0 -19 -18 -30
-40 -24 -48 -34 -50 -54 -11 -18 34 -100 106 -173 150 -55 34 -186 75 -214 68
-27 -7 -49 12 -49 43 0 30 71 133 119 172 16 13 36 35 46 51 9 15 22 27 27 27
5 0 24 11 41 24 37 28 101 56 129 56 10 0 21 7 24 15 8 20 -13 45 -39 45 -18
0 -19 5 -14 53 20 171 17 321 -9 480 -6 36 -6 37 23 37 16 0 55 -5 87 -11 43
-9 74 -9 129 0 130 21 142 27 159 70 18 45 21 46 154 46 76 0 95 -3 113 -19z
m4043 -32 c11 -42 3 -57 -42 -77 -73 -31 -85 -28 -88 21 -3 34 0 43 15 48 10
3 34 13 53 23 44 24 52 22 62 -15z m-2287 4 c-4 -13 -15 -59 -24 -102 -18 -84
-34 -104 -51 -62 -7 20 -4 38 16 83 15 32 30 68 35 81 5 12 14 22 20 22 7 0 9
-8 4 -22z m2589 -105 c-5 -43 -13 -78 -19 -78 -15 0 -18 144 -4 161 24 29 32
-2 23 -83z m66 -4 c0 -36 -4 -49 -12 -47 -17 6 -21 38 -9 71 15 40 21 33 21
-24z m-787 -23 c3 -8 3 -31 0 -50 -5 -31 -9 -35 -46 -42 -23 -3 -49 -11 -59
-17 -23 -15 -37 -1 -40 43 -3 34 -2 35 57 57 72 26 81 27 88 9z m380 -81 c-2
-43 -5 -80 -7 -82 -2 -3 -14 1 -26 7 -20 11 -22 18 -17 65 12 120 53 128 50
10z m-413 -145 c0 -49 -3 -60 -16 -60 -14 0 -16 8 -10 46 3 26 6 53 6 60 0 8
5 14 10 14 6 0 10 -27 10 -60z m-2360 20 c0 -11 -4 -20 -10 -20 -5 0 -10 9
-10 20 0 11 5 20 10 20 6 0 10 -9 10 -20z m2893 -477 c3 -38 6 -177 6 -309 l2
-242 -88 -28 c-48 -15 -98 -34 -110 -42 -32 -20 -44 -7 -37 38 7 40 -20 140
-37 140 -5 0 -9 15 -9 34 0 19 -10 51 -22 71 -13 19 -33 51 -45 70 -18 28 -22
51 -24 124 -1 49 1 94 5 99 12 20 78 25 143 12 51 -10 69 -10 94 0 21 9 33 10
41 2 7 -7 10 -88 10 -238 -1 -240 2 -274 24 -274 17 0 15 -32 16 310 0 157 2
288 5 293 12 20 21 0 26 -60z m385 -146 c1 -112 4 -215 7 -229 5 -21 2 -27
-15 -33 -12 -4 -23 -5 -26 -3 -10 11 -2 439 9 456 21 31 25 -2 25 -191z
m-3737 -9 c-12 -28 -21 -59 -21 -68 0 -19 -23 -43 -32 -34 -9 8 19 140 38 176
l17 33 10 -28 c7 -22 4 -40 -12 -79z m3569 -59 c22 -28 40 -54 40 -59 0 -4 12
-19 26 -33 23 -23 25 -30 18 -84 l-6 -58 -67 -21 c-36 -12 -69 -20 -73 -18 -6
4 -5 310 1 322 5 11 27 -6 61 -49z m-3662 18 c2 -10 -7 -28 -20 -41 -25 -25
-209 -95 -325 -124 -39 -10 -77 -23 -85 -29 -7 -6 -58 -25 -113 -43 -55 -18
-122 -41 -149 -51 -27 -11 -56 -19 -65 -19 -10 0 -21 -4 -27 -8 -5 -5 -29 -14
-54 -21 -25 -7 -60 -19 -78 -27 -18 -8 -44 -14 -57 -14 -21 0 -25 5 -25 30 0
20 6 32 18 36 9 3 25 10 34 15 10 5 26 9 37 9 10 0 24 7 31 15 7 8 21 15 30
15 10 0 58 14 107 31 48 17 108 37 133 44 25 7 68 22 95 33 59 24 395 145 445
160 46 13 64 11 68 -11z m-996 -117 c-10 -33 -17 -71 -56 -290 -9 -47 -23
-139 -31 -205 -9 -66 -21 -137 -27 -157 -10 -34 -9 -39 18 -67 16 -17 32 -31
36 -31 16 0 7 41 -12 57 -22 20 -27 43 -7 43 6 0 26 -8 42 -18 62 -38 126 -72
135 -72 6 0 10 11 10 25 0 38 25 45 126 35 101 -10 129 -17 162 -38 12 -8 37
-18 55 -21 28 -6 32 -11 30 -37 -3 -36 -41 -68 -108 -90 -27 -10 -59 -23 -70
-29 -32 -20 -115 -35 -180 -33 -90 2 -224 -51 -264 -105 -7 -11 -20 -16 -29
-12 -9 3 -30 -6 -51 -22 -31 -24 -44 -28 -93 -27 -31 1 -61 5 -67 8 -15 10
-23 104 -13 177 9 76 -1 226 -17 242 -17 17 -13 34 9 40 11 3 20 14 20 24 0
11 8 27 18 36 9 9 50 49 90 89 70 70 73 74 71 118 -2 70 12 143 31 165 10 11
19 25 21 30 2 6 38 64 79 129 60 94 76 114 78 95 2 -13 -1 -39 -6 -59z m5605
18 c-3 -8 -6 -5 -6 6 -1 11 2 17 5 13 3 -3 4 -12 1 -19z m-59 -28 c10 -16 16
-18 32 -10 10 5 22 10 26 10 4 0 4 -80 0 -177 -15 -385 -17 -685 -7 -732 6
-25 13 -67 15 -92 3 -41 1 -46 -16 -41 -10 2 -21 8 -24 13 -12 20 -67 8 -106
-23 l-40 -31 -17 21 c-9 12 -34 27 -55 33 -33 9 -41 8 -48 -6 -7 -11 -17 -15
-37 -10 -19 4 -35 0 -53 -15 -14 -11 -30 -20 -36 -20 -5 0 -26 -11 -46 -25
-20 -14 -49 -27 -64 -31 -15 -3 -36 -9 -47 -14 -11 -4 -28 -11 -37 -14 -10 -3
-18 -15 -18 -26 0 -24 -7 -25 -50 -3 -71 35 -206 5 -250 -57 -19 -27 -25 -29
-66 -24 -33 4 -46 1 -50 -9 -3 -9 -13 -13 -25 -10 -14 4 -19 0 -19 -16 0 -25
8 -26 46 -6 16 8 37 15 47 15 32 0 85 -28 130 -69 68 -63 162 -102 250 -105
67 -2 117 -17 117 -34 0 -7 -31 -28 -89 -62 -33 -18 -104 -18 -204 3 -90 18
-90 18 -182 113 -61 63 -78 74 -137 93 -37 11 -81 21 -98 21 -42 0 -99 -25
-135 -60 -17 -16 -48 -36 -70 -43 -49 -17 -58 -37 -15 -37 32 0 68 18 110 56
14 13 42 30 62 39 76 31 176 -14 251 -113 49 -65 74 -78 178 -97 44 -7 91 -20
104 -29 21 -14 30 -13 98 8 46 14 92 37 119 58 24 19 54 38 68 41 54 14 230
-30 230 -57 0 -6 18 -30 40 -53 22 -24 42 -53 45 -65 8 -30 78 -70 96 -54 9 8
10 8 4 -3 -5 -9 -2 -18 7 -25 17 -12 32 -166 16 -166 -5 0 -18 5 -28 10 -15 8
-23 5 -39 -11 -18 -19 -27 -21 -78 -15 -31 4 -65 14 -75 23 -17 15 -18 15 -18
-5 0 -15 -6 -22 -19 -22 -29 0 -149 58 -205 100 -84 61 -268 138 -351 145 -77
6 -117 -6 -123 -39 -4 -16 0 -18 25 -10 15 5 57 9 93 8 56 -1 78 -7 163 -49
54 -26 124 -66 155 -89 67 -49 151 -90 207 -101 22 -4 85 -7 140 -5 77 1 104
6 118 18 18 16 20 15 33 -3 24 -33 17 -71 -21 -108 -32 -31 -42 -35 -112 -41
-124 -10 -225 -7 -288 9 -33 9 -118 44 -190 79 -71 35 -164 77 -205 94 -173
69 -354 75 -650 21 -144 -26 -293 -30 -365 -10 -45 13 -112 43 -185 85 -40 22
-122 46 -157 46 -20 0 -33 5 -33 13 0 19 52 72 89 91 48 25 150 32 192 13 19
-8 52 -21 74 -28 22 -6 67 -25 99 -41 88 -44 140 -57 251 -63 102 -5 170 3
170 20 0 6 -45 13 -101 16 -55 3 -110 12 -123 18 -13 7 -39 15 -59 17 -21 2
-55 13 -77 24 -54 25 -154 70 -185 82 -14 6 -34 15 -45 21 -32 16 -143 8 -186
-14 -21 -10 -43 -19 -49 -19 -5 0 -18 -7 -27 -15 -10 -9 -33 -28 -51 -42 -19
-14 -38 -37 -43 -50 -7 -19 -16 -23 -48 -23 -21 0 -82 -16 -135 -37 -78 -29
-96 -39 -90 -52 21 -51 19 -54 -21 -37 -69 29 -154 17 -256 -34 -21 -11 -43
-20 -48 -20 -18 0 -99 304 -89 332 3 7 61 35 129 62 68 27 166 69 218 93 51
23 97 43 102 43 5 0 37 13 71 29 35 16 110 48 168 71 130 52 410 179 430 197
9 7 32 19 53 28 20 8 37 20 37 25 0 12 -27 14 -32 3 -3 -9 -129 -74 -141 -73
-4 0 -60 -25 -123 -55 -64 -30 -122 -55 -129 -55 -8 0 -16 -4 -20 -9 -3 -5
-22 -15 -43 -21 -20 -6 -46 -15 -57 -20 -11 -5 -49 -21 -85 -35 -36 -15 -74
-31 -85 -36 -11 -4 -56 -24 -100 -45 -128 -59 -163 -73 -282 -119 -62 -23
-115 -40 -118 -37 -15 16 1 32 48 46 88 28 261 105 497 223 124 62 265 126
314 143 49 18 116 44 148 60 32 16 72 31 89 35 16 4 49 17 72 30 23 12 60 28
81 35 22 7 68 28 103 46 35 19 68 34 74 34 5 0 47 18 92 39 45 21 125 59 177
84 52 24 160 76 240 115 80 38 177 82 215 97 39 15 102 42 140 60 39 18 88 40
110 49 22 9 52 24 67 32 35 19 50 18 70 -5 14 -17 25 -19 72 -14 46 5 57 3 62
-11 7 -19 -7 -39 -32 -42 -9 -1 -45 -13 -81 -26 -64 -22 -100 -53 -116 -101
-7 -18 23 -57 43 -57 14 0 13 33 -2 48 -23 23 23 65 103 94 41 15 77 28 81 28
4 0 7 -42 7 -92 -1 -98 11 -148 35 -148 12 0 13 19 9 115 -7 127 -2 139 50
151 17 3 38 10 47 15 8 4 37 16 64 25 60 22 76 37 76 75 0 23 -5 30 -27 35
-16 3 -38 10 -50 16 -20 10 -55 8 -115 -7 -23 -6 -28 -4 -28 12 0 15 12 22 53
33 28 7 65 15 81 17 35 4 40 8 31 23 -9 14 -83 5 -131 -15 -17 -7 -36 -10 -42
-6 -24 15 10 34 89 50 48 10 84 22 87 30 5 14 -14 13 -135 -5 -36 -5 -43 -3
-43 10 0 19 2 20 95 34 97 15 120 53 54 87 -34 18 -59 19 -111 3 -29 -8 -40
-18 -45 -37 -3 -14 -14 -39 -24 -56 -18 -30 -19 -34 -19 -58 0 -7 -25 -24 -55
-36 -40 -17 -55 -28 -55 -42 0 -24 40 -41 80 -33 25 6 30 3 30 -13 0 -15 -12
-22 -52 -32 -29 -8 -58 -18 -65 -23 -8 -6 -18 -6 -29 0 -20 11 -28 9 -129 -38
-124 -57 -148 -68 -245 -108 -165 -69 -319 -139 -375 -169 -43 -25 -284 -143
-289 -143 -2 0 -46 -20 -98 -44 -110 -52 -348 -146 -369 -146 -8 0 -19 -4 -25
-9 -17 -17 -175 -81 -200 -81 -17 0 -24 6 -24 19 0 21 23 38 90 66 25 10 68
28 95 41 28 12 73 32 100 44 28 11 68 30 90 40 22 10 67 31 100 45 311 138
328 150 320 214 -16 135 -17 130 15 146 44 23 50 19 50 -32 0 -76 8 -95 39
-91 26 3 26 3 26 91 0 74 3 90 18 98 30 17 52 7 52 -25 0 -16 7 -33 17 -40 27
-16 43 7 41 60 -1 35 3 46 19 55 11 6 21 9 22 7 2 -2 8 -36 15 -75 13 -75 18
-81 52 -63 15 9 19 22 19 63 0 29 -6 61 -14 72 -18 27 -16 50 3 53 60 9 66 7
69 -20 4 -32 26 -52 48 -44 14 5 16 16 11 61 -5 47 -3 57 13 65 32 17 48 11
55 -20 5 -24 12 -30 32 -30 23 0 24 3 21 48 -3 42 -1 47 20 50 16 3 22 -2 22
-16 0 -31 22 -43 50 -29 20 10 26 22 30 57 4 31 10 46 22 48 12 2 18 -5 20
-24 8 -65 68 -51 68 16 0 29 6 41 26 55 24 16 26 16 31 -4 10 -37 53 -18 53
23 1 20 2 20 14 4 15 -20 26 -14 26 14 0 11 11 23 28 30 128 51 280 107 292
107 8 1 21 -8 28 -19z m-83 -131 c10 -14 4 -18 -38 -23 -27 -3 -37 -1 -37 9 0
23 63 35 75 14z m-4935 -14 c0 -8 1 -15 3 -16 1 0 36 -6 77 -14 101 -18 284
-68 344 -94 26 -12 56 -20 65 -19 13 2 17 -8 19 -53 2 -43 -3 -70 -23 -115
-25 -56 -25 -62 -14 -129 6 -38 16 -83 21 -98 15 -39 5 -43 -39 -13 -20 14
-43 26 -51 26 -15 0 -183 65 -233 91 -21 10 -77 29 -126 42 -48 14 -117 38
-153 55 -36 17 -89 40 -117 51 -29 12 -77 30 -105 42 -41 16 -148 68 -177 87
-16 10 38 36 110 53 88 21 253 72 304 94 69 29 95 32 95 10z m-1175 -97 c26
-12 30 -24 16 -46 -7 -11 -17 -8 -50 13 -22 15 -41 32 -41 36 0 13 45 11 75
-3z m230 -100 c15 -29 37 -66 48 -81 22 -33 10 -57 -29 -57 -21 0 -24 5 -24
39 0 40 -22 105 -40 116 -15 9 -12 35 3 35 8 0 26 -24 42 -52z m5710 32 c3 -5
-1 -10 -9 -10 -9 0 -16 5 -16 10 0 6 4 10 9 10 6 0 13 -4 16 -10z m-5855 -25
c7 -8 18 -15 24 -15 14 0 76 -71 76 -87 0 -27 -28 -11 -75 44 -28 31 -51 60
-53 65 -6 14 15 9 28 -7z m5990 -65 c0 -9 -61 -30 -69 -24 -2 2 -1 10 2 19 7
16 67 22 67 5z m104 -18 c9 -14 -27 -36 -98 -60 -47 -16 -72 -20 -79 -13 -15
15 10 41 39 41 12 0 26 5 29 10 3 6 18 10 33 10 15 0 34 5 42 10 19 12 27 12
34 2z m-247 -19 c4 -12 -46 -28 -56 -18 -8 8 30 36 43 32 5 -2 11 -8 13 -14z
m-6255 -64 c-4 -40 -18 -59 -42 -59 -18 0 -109 -36 -214 -85 -33 -15 -98 -40
-145 -56 -47 -15 -158 -55 -245 -88 -88 -33 -163 -58 -168 -55 -4 3 -8 19 -8
35 0 38 38 75 88 83 20 4 64 20 97 35 87 41 123 56 185 76 30 10 83 29 117 42
34 13 77 26 95 30 18 3 56 16 83 29 63 28 137 53 150 50 6 -2 8 -18 7 -37z
m586 -27 c3 -17 -2 -22 -17 -22 -14 0 -21 6 -21 18 0 38 33 41 38 4z m-620
-102 c4 -35 -35 -170 -49 -170 -4 0 -42 16 -83 35 -42 19 -80 35 -85 35 -14 0
-30 25 -23 36 9 14 107 59 159 73 23 6 45 16 48 22 12 19 30 3 33 -31z m5131
-34 c13 -76 10 -89 -32 -109 -62 -31 -208 -97 -213 -97 -3 0 -43 -18 -90 -40
-47 -22 -88 -40 -91 -40 -4 0 -25 -9 -47 -19 -100 -47 -116 -52 -125 -46 -6 3
-11 26 -11 50 0 48 -14 95 -29 95 -5 0 -19 -8 -31 -18 -23 -19 -24 -23 -17
-147 2 -21 -3 -30 -15 -33 -16 -3 -18 6 -18 92 l0 96 50 25 c27 14 53 25 58
25 10 0 28 -55 37 -112 7 -43 5 -41 38 -29 31 12 39 58 22 126 -10 36 -10 52
-2 57 20 12 27 -2 27 -53 0 -41 3 -49 18 -49 25 0 42 20 42 48 0 18 3 22 13
14 20 -17 47 10 47 47 0 24 -4 31 -20 31 -25 0 -26 16 -1 30 35 18 61 13 61
-14 0 -55 31 -74 65 -39 13 13 16 27 11 60 -5 38 -3 45 20 59 28 19 41 12 46
-25 4 -28 29 -47 52 -38 11 5 16 19 16 52 0 25 5 45 10 45 6 0 10 -11 10 -25
0 -14 6 -25 13 -25 19 1 57 36 57 54 0 9 4 16 9 16 5 0 14 -29 20 -64z m-4558
-63 c1 -21 1 -72 1 -113 -1 -41 -2 -99 -2 -129 l0 -53 -27 8 c-16 4 -39 8 -53
8 -20 1 -50 15 -89 43 -4 3 90 191 121 241 27 44 48 42 49 -5z m-879 -15 c2
-7 3 -56 3 -108 0 -79 -3 -95 -16 -98 -19 -3 -29 51 -29 154 0 56 2 64 19 64
10 0 21 -6 23 -12z m5008 -23 c0 -8 -4 -15 -10 -15 -5 0 -10 7 -10 15 0 8 5
15 10 15 6 0 10 -7 10 -15z m-5088 -46 c-3 -28 1 -75 8 -105 15 -61 4 -87 -34
-82 -17 2 -22 13 -28 53 -10 82 -9 160 4 173 7 7 22 12 34 12 19 0 21 -4 16
-51z m-99 -79 c4 -47 8 -96 10 -109 1 -14 -5 -28 -16 -35 -31 -19 -47 16 -46
101 1 80 -2 89 -27 79 -14 -5 -15 -20 -12 -103 3 -85 1 -98 -14 -101 -10 -2
-19 6 -24 20 -8 25 -7 189 2 197 12 12 90 40 104 38 11 -2 17 -23 23 -87z
m324 54 c53 -31 52 -50 -3 -46 -45 4 -50 8 -59 45 -9 35 5 35 62 1z m-497
-145 c5 -110 1 -134 -25 -126 -20 7 -29 207 -10 237 19 31 30 -3 35 -111z
m2095 46 c28 -8 115 -37 195 -65 80 -28 172 -59 205 -69 33 -11 105 -35 160
-53 144 -50 196 -62 206 -46 5 8 11 4 20 -14 12 -27 29 -34 102 -45 23 -3 76
-25 118 -49 42 -24 82 -44 90 -44 29 0 94 -29 97 -42 3 -17 -13 -26 -148 -78
-58 -23 -118 -47 -135 -55 -16 -7 -43 -17 -60 -21 -16 -4 -57 -20 -89 -36 -71
-34 -74 -34 -78 -6 -2 17 -19 28 -73 49 -125 47 -175 61 -204 57 -19 -3 -32 1
-39 12 -5 9 -45 27 -88 40 -44 13 -83 27 -89 31 -5 4 -37 14 -71 23 -34 9 -78
23 -99 32 -20 8 -49 17 -64 19 -14 2 -57 15 -96 28 -117 40 -205 67 -220 67
-9 0 -42 14 -75 30 -33 17 -92 37 -132 45 -39 9 -74 18 -76 20 -10 10 22 35
44 35 13 0 34 10 46 23 63 63 162 102 229 91 37 -5 94 5 159 30 76 29 95 32
105 19 6 -8 33 -20 60 -28z m-2182 14 c6 -21 0 -110 -9 -138 -3 -11 -7 -11
-19 -1 -15 13 -21 112 -9 144 9 23 31 20 37 -5z m5100 -16 c11 -67 7 -151 -8
-163 -18 -15 -18 -13 -15 67 1 33 -3 71 -10 82 -12 24 -6 41 15 41 7 0 15 -12
18 -27z m-73 -77 c0 -44 5 -67 15 -76 27 -22 16 -37 -41 -59 -86 -33 -92 -31
-99 37 -3 31 -8 66 -10 78 -5 24 17 60 32 51 6 -4 13 -34 15 -67 5 -65 10 -75
33 -67 12 5 15 23 15 80 0 76 4 87 27 87 9 0 13 -17 13 -64z m-3835 -23 c25
-3 45 -10 45 -14 0 -5 12 -9 27 -9 17 0 39 -12 59 -31 28 -27 40 -32 95 -34
45 -2 64 -7 71 -19 5 -9 7 -20 4 -25 -6 -9 -91 10 -123 27 -10 6 -20 10 -23
10 -12 1 -47 15 -74 29 -16 9 -43 19 -60 24 -59 15 -110 37 -114 49 -3 9 3 11
22 6 14 -3 46 -9 71 -13z m3645 -35 c0 -24 5 -61 10 -83 8 -32 6 -42 -6 -52
-32 -24 -61 16 -32 45 9 9 8 16 -4 29 -21 24 -30 77 -15 92 6 6 19 11 29 11
14 0 18 -8 18 -42z m2286 -25 c27 -20 51 -40 54 -44 9 -13 114 -49 142 -49 29
0 48 -23 48 -59 0 -17 -4 -18 -27 -12 -34 9 -189 4 -212 -8 -9 -4 -52 -5 -96
0 -44 4 -82 6 -84 3 -26 -25 136 -44 266 -30 127 13 143 5 143 -68 l0 -55 -52
6 c-29 3 -84 6 -121 7 -48 1 -71 5 -78 16 -8 11 -12 12 -16 3 -2 -7 -10 -13
-16 -13 -7 0 -35 -12 -62 -27 -44 -24 -63 -28 -153 -30 -165 -4 -245 24 -357
125 -11 10 -28 21 -38 25 -30 11 -17 49 23 69 78 38 170 14 309 -80 51 -35 66
-41 125 -44 36 -1 67 1 69 6 2 5 13 4 24 -3 30 -15 63 -14 63 3 0 17 -37 26
-107 25 -41 -1 -64 6 -100 27 -68 39 -113 74 -113 88 0 7 43 32 96 56 53 25
115 57 138 72 54 37 74 35 132 -9z m194 25 c22 -7 40 -17 40 -23 0 -5 3 -20 6
-31 11 -42 -58 -35 -95 10 -7 9 -17 13 -22 10 -13 -7 -11 3 3 26 15 24 16 24
68 8z m-2586 -14 c10 -26 7 -69 -6 -82 -7 -7 -22 -12 -35 -12 -23 0 -30 22
-23 70 5 38 52 55 64 24z m-4699 -56 c17 -10 41 -18 55 -18 14 -1 61 -10 105
-21 44 -11 98 -24 120 -28 45 -8 141 -44 195 -72 22 -11 34 -25 33 -36 -2 -32
-54 -165 -85 -219 -18 -32 -32 -74 -35 -106 -5 -48 -2 -57 21 -85 15 -17 40
-34 56 -38 16 -4 32 -11 35 -16 9 -13 60 -11 97 5 35 15 139 36 177 36 14 0
25 7 28 20 4 13 17 21 42 26 20 3 47 10 61 15 14 5 84 20 155 33 72 14 144 30
160 36 17 6 48 15 70 20 22 4 55 14 73 21 25 11 37 11 52 2 10 -7 49 -17 86
-23 74 -12 91 -19 117 -48 10 -11 51 -30 90 -42 40 -12 91 -30 115 -41 23 -10
61 -22 85 -25 23 -4 59 -15 79 -25 21 -11 44 -19 51 -19 14 0 78 -20 232 -74
39 -14 79 -34 91 -45 11 -11 45 -26 75 -33 38 -10 57 -20 64 -36 5 -12 18 -22
27 -22 10 0 18 -6 18 -14 0 -8 11 -17 25 -20 34 -9 32 -26 -4 -26 -27 0 -29
-3 -37 -57 -8 -53 -12 -60 -44 -76 -34 -17 -35 -17 -53 5 -10 12 -15 28 -11
37 4 9 9 28 12 44 6 37 -19 36 -51 -3 -24 -28 -26 -46 -10 -90 10 -24 3 -44
-20 -62 -33 -26 -36 -23 -35 33 0 64 -19 88 -57 71 -29 -14 -30 -23 -9 -86 14
-41 14 -50 3 -57 -20 -13 -49 26 -49 67 0 42 -18 44 -64 9 -18 -14 -69 -33
-117 -45 -46 -12 -120 -32 -164 -46 -93 -28 -128 -31 -123 -9 3 14 106 54 308
121 25 8 54 19 65 24 11 5 49 21 85 35 161 65 282 125 288 144 6 18 -21 9
-133 -44 -49 -24 -121 -55 -160 -69 -38 -15 -79 -32 -89 -37 -11 -6 -51 -20
-90 -31 -39 -11 -84 -25 -101 -33 -29 -13 -257 -85 -268 -85 -3 0 -18 -5 -34
-12 -115 -47 -165 -52 -190 -21 -7 9 -43 26 -80 38 -58 19 -70 21 -79 9 -13
-17 -44 -8 -44 12 0 19 -41 34 -200 74 -99 25 -126 33 -150 41 -45 15 -100 22
-100 12 0 -16 36 -44 66 -52 20 -5 35 -19 48 -46 11 -22 25 -43 31 -47 7 -4
18 -21 25 -38 7 -16 16 -30 21 -30 10 0 69 -85 69 -99 0 -24 -32 -9 -48 21 -9
18 -31 46 -48 63 -52 51 -168 191 -186 224 -10 19 -25 31 -37 31 -24 0 -168
38 -193 51 -11 6 -21 4 -32 -6 -21 -22 -36 -18 -33 7 1 18 -4 24 -23 26 -14 2
-45 9 -70 17 -25 7 -65 19 -90 25 -25 7 -55 17 -67 22 -12 6 -33 8 -48 6 -17
-4 -28 -1 -32 8 -3 8 -13 14 -23 14 -10 0 -23 7 -30 15 -7 8 -29 19 -49 25
-20 5 -48 20 -64 32 -26 22 -27 25 -19 88 4 36 4 112 1 170 -9 138 -12 487 -4
499 6 11 26 5 70 -21z m4582 -28 c6 -46 -4 -60 -44 -60 -19 0 -23 6 -23 30 0
19 -5 30 -14 30 -23 0 -37 -26 -30 -54 7 -30 -9 -56 -36 -56 -12 0 -20 11 -24
35 -11 57 -46 36 -46 -27 0 -25 -5 -38 -13 -38 -20 0 -17 110 3 121 46 24 206
76 213 69 5 -4 11 -27 14 -50z m483 0 c0 -24 -6 -33 -27 -42 -64 -25 -139 -62
-153 -73 -8 -7 -49 -27 -90 -45 -41 -18 -102 -46 -135 -62 -33 -16 -105 -47
-159 -69 -55 -22 -114 -48 -131 -59 -18 -11 -37 -20 -42 -20 -14 0 -73 237
-73 290 0 15 7 20 25 20 24 0 25 -2 25 -64 l0 -63 38 1 c36 1 37 0 38 -34 2
-66 3 -72 22 -68 14 3 17 15 17 73 l0 70 33 3 c29 3 32 1 32 -22 0 -15 6 -26
13 -26 22 0 37 22 37 55 0 29 6 34 73 68 86 43 127 55 127 37 0 -7 -8 -19 -17
-26 -17 -12 -17 -14 -1 -30 16 -16 19 -16 55 3 21 11 64 27 95 37 32 10 60 22
64 27 3 5 13 9 23 9 11 0 38 9 62 20 24 11 45 20 47 20 1 0 2 -14 2 -30z
m2180 20 c0 -5 -4 -10 -10 -10 -5 0 -10 5 -10 10 0 6 5 10 10 10 6 0 10 -4 10
-10z m-5690 -25 c0 -8 -7 -15 -15 -15 -16 0 -20 12 -8 23 11 12 23 8 23 -8z
m2406 -32 c3 -16 10 -43 16 -61 13 -43 6 -58 -29 -65 -26 -5 -79 -28 -258
-112 -27 -13 -69 -29 -93 -36 -23 -7 -47 -18 -53 -26 -6 -7 -16 -13 -21 -13
-6 0 -65 -27 -132 -59 -156 -76 -253 -121 -262 -121 -5 0 -95 -40 -262 -117
-263 -121 -287 -129 -331 -113 -20 7 -47 21 -60 31 -13 11 -31 19 -40 19 -26
0 -114 35 -118 46 -2 7 15 19 39 28 24 10 61 26 83 36 22 10 62 28 88 39 30
13 51 29 54 41 6 22 18 26 29 9 4 -8 13 -4 25 12 14 18 21 21 27 11 7 -10 18
-10 58 3 27 9 58 23 70 30 11 7 49 22 85 33 35 12 82 30 104 41 21 12 44 21
51 21 6 0 36 11 65 24 30 13 111 47 181 76 70 29 129 59 132 67 3 8 10 11 16
8 6 -3 27 -1 48 6 20 7 57 19 82 26 25 8 68 25 95 38 108 52 164 75 204 84 24
5 45 12 48 15 4 3 17 6 29 6 18 0 25 -7 30 -27z m-2253 -18 c9 -4 17 -11 17
-15 0 -12 -52 -22 -59 -12 -3 6 -17 12 -30 13 -14 2 -26 9 -28 15 -4 13 68 12
100 -1z m5004 -7 c-3 -8 -6 -5 -6 6 -1 11 2 17 5 13 3 -3 4 -12 1 -19z m-3326
-72 c5 3 9 1 9 -4 0 -21 -26 -19 -27 2 0 11 1 15 4 8 3 -6 9 -10 14 -6z
m-1431 -36 c0 -5 -4 -10 -10 -10 -5 0 -10 5 -10 10 0 6 5 10 10 10 6 0 10 -4
10 -10z m225 -31 c10 -15 -1 -23 -20 -15 -9 3 -13 10 -10 16 8 13 22 13 30 -1z
m-545 -14 c0 -8 -4 -15 -9 -15 -13 0 -22 16 -14 24 11 11 23 6 23 -9z m619 -4
c13 -11 28 -22 34 -24 7 -2 9 -7 6 -10 -3 -4 -20 -1 -37 5 -28 11 -33 10 -47
-7 -20 -28 -20 3 1 33 18 27 16 26 43 3z m1752 -18 c19 -52 10 -65 -76 -100
-44 -18 -83 -33 -86 -33 -4 0 -10 17 -14 37 -4 21 -11 41 -17 44 -12 8 49 69
68 69 8 0 14 -11 14 -25 0 -36 35 -33 55 5 19 37 42 39 56 3z m-1567 -44 c21
-11 44 -18 50 -16 7 3 20 -1 31 -9 10 -8 27 -14 37 -14 10 0 36 -9 58 -20 22
-11 52 -20 68 -20 32 0 92 -26 92 -41 0 -5 -9 -9 -20 -9 -25 0 -142 38 -155
51 -5 5 -17 9 -27 9 -10 0 -37 9 -61 19 -23 11 -57 23 -76 26 -29 6 -33 5 -28
-9 4 -10 1 -16 -9 -16 -8 0 -14 7 -12 16 2 11 -8 21 -31 29 -19 6 -37 17 -39
24 -6 18 71 5 122 -20z m4769 -2 c21 -3 43 -10 50 -15 7 -6 23 -12 37 -14 25
-3 25 -4 28 -115 3 -119 0 -124 -41 -101 -12 7 -31 13 -42 13 -14 0 -23 10
-31 33 -16 50 -89 119 -134 126 -39 6 -66 28 -55 46 3 5 12 10 20 10 7 0 15 6
18 13 5 14 67 15 150 4z m-3429 -69 c7 -30 -14 -58 -45 -58 -16 0 -19 7 -19
40 0 33 4 42 23 49 26 10 32 6 41 -31z m-169 12 c3 -5 1 -10 -4 -10 -6 0 -11
5 -11 10 0 6 2 10 4 10 3 0 8 -4 11 -10z m425 -12 c5 -13 16 -61 25 -108 9
-47 29 -134 44 -195 41 -156 52 -204 58 -251 4 -39 3 -42 -29 -55 -18 -7 -50
-29 -70 -47 l-38 -34 -81 12 c-90 14 -186 9 -269 -15 -66 -19 -136 -50 -145
-65 -3 -5 -18 -10 -32 -10 -14 0 -62 -18 -107 -39 -44 -22 -101 -42 -126 -46
-25 -4 -77 -17 -117 -31 -39 -13 -82 -24 -96 -24 -13 0 -32 -9 -42 -20 -10
-11 -30 -20 -45 -20 -15 0 -41 -7 -58 -16 -28 -13 -71 -15 -313 -11 -154 3
-285 9 -290 14 -6 6 1 15 18 23 16 8 35 19 43 25 8 6 35 18 60 25 25 7 63 21
85 30 22 9 60 23 85 32 25 8 54 19 64 23 17 7 18 5 12 -18 -5 -22 -3 -25 11
-20 10 3 25 11 33 18 8 6 40 22 70 34 88 37 142 71 136 87 -7 18 23 37 104 69
35 14 70 31 79 38 9 8 48 27 86 42 39 16 84 39 101 52 17 13 40 23 52 23 12 0
25 8 31 17 5 10 13 15 16 11 4 -4 22 4 40 17 17 14 38 25 46 25 8 0 19 4 25 8
5 5 34 19 64 32 30 12 78 33 105 45 28 13 75 31 105 41 66 20 270 123 270 135
0 14 -33 10 -54 -6 -11 -8 -28 -15 -38 -15 -10 0 -56 -18 -101 -40 -96 -47
-102 -45 -110 47 -4 48 -2 65 10 75 19 16 49 -2 46 -28 -4 -32 7 -64 21 -64
18 0 26 22 26 75 0 50 6 56 96 94 86 36 83 36 94 9z m-1552 -6 c3 -9 -2 -13
-14 -10 -9 1 -19 9 -22 16 -3 9 2 13 14 10 9 -1 19 -9 22 -16z m107 -32 c-6
-9 -55 0 -55 9 0 16 13 19 36 9 13 -6 21 -14 19 -18z m1085 -11 c0 -42 -41
-79 -66 -58 -22 18 -17 58 8 68 24 9 58 3 58 -10z m-124 -54 c4 -16 0 -34 -10
-50 -16 -24 -15 -25 3 -25 20 0 86 32 106 51 21 20 32 4 46 -66 14 -70 14 -79
4 -80 -10 -1 -36 -12 -100 -40 -16 -8 -48 -21 -70 -30 -22 -9 -173 -82 -335
-162 -162 -80 -313 -153 -335 -163 -130 -61 -251 -112 -325 -138 -171 -60
-246 -90 -310 -123 -58 -31 -73 -34 -147 -34 -45 0 -85 4 -89 8 -14 14 20 35
100 62 43 14 98 34 121 45 23 11 57 22 76 25 19 3 43 12 54 18 39 24 134 59
145 52 5 -3 10 -13 10 -21 0 -18 9 -18 31 1 13 13 15 24 9 51 -4 19 -4 37 1
40 18 10 29 -8 29 -47 0 -42 0 -42 24 -33 13 5 15 16 10 54 -5 42 -4 49 14 59
11 6 28 11 38 11 14 0 100 38 217 96 41 20 56 17 63 -12 10 -41 39 -27 37 18
-2 36 -1 37 55 58 31 12 67 28 78 35 19 12 25 12 44 -5 25 -22 44 -17 37 10
-7 26 2 34 68 60 33 13 70 30 83 38 12 8 22 11 22 7 0 -4 7 -2 15 5 13 11 12
14 -4 29 -15 13 -17 25 -12 76 5 52 10 61 34 75 24 13 29 13 36 1 5 -8 7 -29
4 -48 -4 -26 -2 -33 10 -33 18 0 33 57 24 89 -6 23 1 33 33 48 38 18 49 15 56
-12z m-166 -11 c0 -8 -4 -14 -9 -14 -11 0 -22 26 -14 34 9 9 23 -3 23 -20z
m-80 -34 c0 -5 -4 -10 -10 -10 -5 0 -10 5 -10 10 0 6 5 10 10 10 6 0 10 -4 10
-10z m-2460 -4 c0 -3 -4 -8 -10 -11 -5 -3 -10 -1 -10 4 0 6 5 11 10 11 6 0 10
-2 10 -4z m2420 -6 c0 -5 -4 -10 -10 -10 -5 0 -10 5 -10 10 0 6 5 10 10 10 6
0 10 -4 10 -10z m-50 -20 c0 -5 -5 -10 -11 -10 -5 0 -7 5 -4 10 3 6 8 10 11
10 2 0 4 -4 4 -10z m-70 -40 c0 -5 -9 -10 -20 -10 -11 0 -20 5 -20 10 0 6 9
10 20 10 11 0 20 -4 20 -10z m120 0 c0 -5 -7 -10 -15 -10 -9 0 -15 -9 -15 -24
0 -29 -26 -42 -38 -18 -13 23 -4 42 18 42 10 0 22 5 25 10 3 6 10 10 16 10 5
0 9 -4 9 -10z m40 -17 c-1 -27 -1 -27 -15 -9 -14 19 -12 36 6 36 5 0 9 -12 9
-27z m-1040 -43 c0 -5 -4 -10 -10 -10 -5 0 -10 5 -10 10 0 6 5 10 10 10 6 0
10 -4 10 -10z m878 -17 c2 -14 -4 -23 -17 -28 -25 -8 -27 -21 -6 -42 23 -23
15 -35 -45 -65 -64 -33 -113 -37 -108 -10 2 11 23 23 61 35 34 11 56 23 54 30
-3 7 -8 11 -13 11 -5 -1 -28 -4 -51 -8 -38 -6 -43 -4 -43 14 0 15 18 29 72 55
40 19 77 34 83 32 5 -2 11 -13 13 -24z m169 -35 c-5 -14 -86 -35 -135 -36
l-24 -1 27 27 c23 23 29 25 47 13 19 -12 24 -11 41 14 18 24 21 25 35 12 8 -9
12 -22 9 -29z m-365 -8 c-2 -16 -8 -30 -12 -30 -14 0 -21 32 -9 46 18 22 26
16 21 -16z m2138 -6 c62 -7 169 -43 245 -81 101 -51 173 -67 305 -66 47 0 260
34 381 62 69 15 260 13 332 -4 99 -23 292 -106 377 -161 69 -45 145 -63 301
-68 153 -5 198 2 252 38 36 24 49 12 45 -43 -3 -46 -9 -51 -99 -90 -52 -23
-214 -41 -320 -36 -60 2 -154 23 -204 44 -11 5 -42 17 -70 26 -27 9 -69 25
-92 36 -24 10 -47 19 -53 19 -6 0 -18 4 -28 9 -38 22 -182 61 -256 72 -82 11
-131 7 -206 -16 -140 -44 -168 -50 -327 -69 -24 -3 -91 5 -160 19 -181 37
-229 52 -283 91 -8 6 -37 19 -65 29 -27 10 -57 23 -65 29 -34 27 -142 65 -243
87 -32 7 -56 17 -54 22 6 20 159 67 202 61 17 -2 55 -6 85 -10z m-2174 -55 c9
-16 -12 -33 -31 -25 -14 5 -15 9 -5 21 15 18 26 19 36 4z m-2924 -25 c10 -3
56 -64 104 -135 47 -71 122 -166 165 -211 111 -116 135 -178 69 -176 -24 1
-34 7 -42 27 -5 14 -17 35 -27 46 -10 11 -42 61 -72 110 -29 50 -61 96 -71
103 -10 7 -27 30 -37 50 -11 20 -33 50 -50 65 -16 15 -38 45 -47 67 -10 22
-21 40 -26 40 -4 0 -8 7 -8 16 0 9 5 13 13 10 6 -3 20 -9 29 -12z m2828 -8 c0
-29 -12 -39 -34 -30 -19 7 -21 25 -4 42 20 20 38 14 38 -12z m1960 -16 c163
-41 200 -54 345 -125 131 -64 169 -78 295 -106 170 -39 246 -41 400 -11 58 11
117 18 130 15 14 -2 61 6 105 18 128 37 203 30 357 -35 20 -9 39 -20 42 -25
15 -23 126 -66 261 -100 17 -4 42 -14 55 -21 40 -22 280 -27 320 -6 17 8 59
21 93 27 34 7 79 21 100 31 22 11 40 18 42 16 2 -2 0 -64 -3 -138 l-7 -135
-175 0 c-263 0 -684 14 -709 23 -12 4 -32 26 -44 47 -18 31 -38 48 -92 75 -69
34 -72 35 -190 34 -122 -1 -190 -13 -307 -54 -88 -31 -293 -43 -422 -25 -103
15 -362 95 -432 134 -11 5 -103 51 -206 101 -147 71 -197 91 -232 92 -26 0
-47 3 -47 7 -1 3 -3 17 -5 31 -1 14 -6 48 -10 75 l-7 50 22 -20 c20 -17 24
-18 34 -4 37 47 164 60 287 29z m-2058 -30 c-5 -44 -47 -55 -54 -15 -4 17 0
29 11 35 26 16 46 7 43 -20z m198 1 c0 -27 -4 -30 -65 -46 -36 -10 -70 -24
-76 -31 -12 -14 -69 -20 -69 -7 0 14 34 43 50 43 9 0 25 7 36 15 10 8 25 15
32 15 8 0 25 9 39 20 36 28 53 25 53 -9z m-2710 -26 c16 -8 42 -36 57 -63 30
-52 87 -127 166 -216 29 -33 59 -71 68 -85 9 -14 23 -32 32 -40 20 -16 22 -38
5 -43 -30 -10 -60 6 -79 44 -28 54 -87 131 -110 142 -10 5 -19 13 -19 17 0 4
-27 41 -59 82 -73 91 -119 177 -96 177 4 0 19 -7 35 -15z m-234 -97 c16 -24
31 -45 34 -48 24 -22 108 -135 132 -177 16 -28 36 -57 43 -63 18 -15 20 -50 3
-50 -24 1 -77 56 -94 95 -9 22 -29 56 -45 76 -16 20 -29 41 -29 47 0 5 -8 16
-17 23 -25 21 -73 100 -73 121 0 29 15 21 46 -24z m455 32 c10 -6 19 -19 19
-29 0 -20 74 -129 101 -148 10 -7 28 -30 40 -50 13 -21 42 -60 66 -87 48 -54
52 -66 23 -66 -11 0 -26 12 -34 28 -8 15 -27 40 -43 57 -60 63 -145 170 -171
214 -14 25 -32 52 -39 59 -28 29 -3 43 38 22z m2237 -22 c-5 -15 -48 -24 -48
-10 0 14 12 22 33 22 10 0 17 -5 15 -12z m-2044 -28 c7 0 20 -18 29 -39 18
-39 51 -86 108 -151 62 -71 100 -123 96 -134 -10 -31 -67 -10 -67 24 0 10 -16
38 -35 62 -19 24 -53 69 -75 100 -22 31 -46 61 -53 65 -7 4 -23 21 -35 37 -23
30 -20 51 5 42 8 -3 20 -6 27 -6z m3560 -19 c19 -29 82 -328 73 -338 -12 -12
-56 11 -59 30 -3 25 -90 89 -191 142 -58 30 -80 36 -154 41 -48 2 -120 -1
-161 -7 -100 -16 -115 0 -30 33 125 48 326 33 417 -32 16 -11 31 -20 34 -20 3
0 19 -13 35 -30 30 -29 62 -40 62 -20 0 18 -70 88 -105 104 -19 10 -35 20 -35
25 0 16 80 80 102 81 4 0 9 -4 12 -9z m402 -55 c84 -35 142 -64 149 -76 3 -5
17 -10 31 -10 13 0 24 -4 24 -10 0 -9 140 -80 158 -80 4 0 34 -11 67 -24 33
-13 80 -30 104 -37 24 -7 53 -21 64 -29 44 -36 17 -40 -291 -34 -163 3 -304 7
-314 10 -9 3 -19 12 -23 22 -24 60 -76 273 -69 284 9 14 38 9 100 -16z m-3503
-48 c9 -5 17 -16 17 -25 0 -14 62 -94 113 -145 20 -21 22 -38 5 -38 -32 0
-208 191 -208 225 0 7 48 -4 73 -17z m1077 -12 c18 -23 8 -61 -17 -64 -24 -4
-38 25 -28 58 7 23 28 26 45 6z m-2183 -42 c61 -103 76 -144 55 -144 -13 0
-39 32 -46 56 -4 12 -18 34 -31 50 -26 30 -35 89 -13 82 7 -3 22 -22 35 -44z
m2765 4 c-6 -6 -15 -7 -22 -3 -8 5 -6 11 7 20 20 15 32 0 15 -17z m1168 -13
c67 -14 218 -95 245 -131 32 -42 27 -43 -234 -42 l-249 1 -11 24 c-6 13 -19
23 -30 23 -28 0 -143 69 -138 83 2 7 46 18 98 25 52 7 110 16 129 20 44 9 144
7 190 -3z m-1932 -7 c26 -26 13 -46 -38 -57 -27 -6 -81 -22 -119 -35 -66 -23
-70 -23 -76 -7 -13 42 3 53 125 90 79 23 93 24 108 9z m-674 -24 c37 -31 66
-73 65 -94 0 -15 -109 96 -109 112 0 14 11 9 44 -18z m376 12 c0 -18 -15 -29
-75 -53 -53 -21 -75 -20 -75 3 0 8 6 14 13 14 6 0 32 11 56 23 52 27 81 31 81
13z m-1276 -47 c-3 -5 -10 -7 -15 -3 -5 3 -7 10 -3 15 3 5 10 7 15 3 5 -3 7
-10 3 -15z m-170 -20 c-3 -5 -10 -7 -15 -3 -5 3 -7 10 -3 15 3 5 10 7 15 3 5
-3 7 -10 3 -15z m3241 -19 c6 -4 27 -13 48 -20 27 -8 37 -17 35 -28 -3 -15
-25 -17 -182 -19 -98 -1 -193 -2 -210 -3 -17 -1 -49 -1 -71 -1 l-40 2 24 19
c13 11 31 20 41 20 9 0 43 10 76 21 98 35 239 40 279 9z m-1785 -10 c0 -11 -7
-20 -15 -20 -8 0 -15 9 -15 20 0 11 7 20 15 20 8 0 15 -9 15 -20z m-925 0 c3
-5 1 -10 -4 -10 -6 0 -11 5 -11 10 0 6 2 10 4 10 3 0 8 -4 11 -10z m5489 -13
c35 -15 64 -34 72 -48 28 -50 23 -52 -103 -45 -65 4 -163 7 -218 7 -129 -1
-295 10 -295 18 0 4 39 17 88 31 48 13 105 31 126 40 27 11 76 17 155 19 103
2 123 -1 175 -22z m-4664 -12 c0 -8 -7 -15 -15 -15 -8 0 -15 7 -15 15 0 8 7
15 15 15 8 0 15 -7 15 -15z m360 -5 c0 -5 -7 -10 -15 -10 -8 0 -15 5 -15 10 0
6 7 10 15 10 8 0 15 -4 15 -10z m-1995 -10 c3 -5 1 -10 -4 -10 -6 0 -11 5 -11
10 0 6 2 10 4 10 3 0 8 -4 11 -10z m461 -27 c-10 -10 -19 5 -10 18 6 11 8 11
12 0 2 -7 1 -15 -2 -18z m1864 -3 c0 -5 -7 -10 -16 -10 -8 0 -12 5 -9 10 3 6
10 10 16 10 5 0 9 -4 9 -10z"/>
<path d="M7847 13383 c-12 -12 -7 -22 8 -17 8 4 15 10 15 15 0 11 -14 12 -23
2z"/>
<path d="M3938 13202 l-138 -3 0 -34 c0 -32 3 -34 38 -40 57 -9 82 -26 120
-79 61 -87 105 -191 71 -171 -6 4 -16 -1 -23 -11 -14 -18 -72 -22 -137 -8 -43
8 -91 -51 -58 -72 6 -4 44 -6 83 -4 39 1 166 4 281 5 116 2 219 4 230 5 11 1
43 -1 70 -5 58 -8 193 16 206 37 11 17 11 21 -3 41 -12 15 -22 16 -100 6 -48
-6 -94 -9 -103 -5 -13 5 -15 26 -14 140 l2 134 46 5 c25 3 68 3 96 0 55 -6 80
9 73 44 -3 17 -23 18 -303 18 -165 0 -362 -1 -437 -3z m247 -83 c4 -5 -3 -40
-15 -77 -38 -115 -39 -116 -55 -102 -8 7 -15 17 -15 23 0 5 -13 32 -30 59 -16
26 -30 62 -30 78 l0 30 69 0 c39 0 73 -5 76 -11z m194 -11 c10 -28 6 -217 -6
-229 -5 -5 -46 -12 -92 -15 l-84 -7 7 57 c9 68 51 197 69 208 6 4 31 8 55 8
35 0 44 -4 51 -22z"/>
<path d="M5532 8263 c-25 -10 9 -33 50 -33 32 0 39 3 36 18 -3 17 -58 27 -86
15z"/>
<path d="M5587 8144 c-11 -12 3 -24 29 -24 15 0 24 6 24 15 0 15 -40 21 -53 9z"/>
<path d="M5672 8008 c5 -15 37 -18 41 -3 1 6 -9 12 -22 13 -16 3 -22 -1 -19
-10z"/>
<path d="M1580 8379 c-19 -4 -51 -5 -70 -3 -62 8 -121 -16 -72 -30 9 -2 73 -2
142 2 95 5 125 10 125 21 0 15 -71 21 -125 10z"/>
<path d="M893 8373 c-20 -3 -33 -10 -33 -19 0 -10 13 -14 48 -14 26 0 77 -3
115 -7 56 -5 67 -3 67 9 0 20 -125 40 -197 31z"/>
<path d="M1173 8357 c7 -23 237 -20 237 3 0 5 -54 9 -121 9 -91 0 -120 -3
-116 -12z"/>
<path d="M1681 8311 c-9 -6 -10 -11 -2 -15 13 -8 31 1 31 15 0 11 -11 11 -29
0z"/>
<path d="M1465 8281 c-41 -13 -23 -26 33 -24 31 1 61 -2 67 -7 6 -5 21 -2 35
5 l25 13 -25 10 c-29 11 -106 13 -135 3z"/>
<path d="M1380 8266 c0 -2 7 -6 15 -10 8 -3 15 -1 15 4 0 6 -7 10 -15 10 -8 0
-15 -2 -15 -4z"/>
<path d="M1382 8208 c-7 -7 -12 -16 -12 -20 0 -12 53 -5 62 7 5 6 8 5 8 -3 0
-9 5 -10 19 -3 10 6 21 7 25 4 3 -3 6 -1 6 5 0 7 -12 12 -27 10 -16 -1 -37 2
-48 5 -12 4 -26 2 -33 -5z"/>
<path d="M1650 8204 c0 -8 5 -12 10 -9 6 3 10 10 10 16 0 5 -4 9 -10 9 -5 0
-10 -7 -10 -16z"/>
<path d="M1500 8198 c0 -4 4 -8 9 -8 6 0 12 4 15 8 3 5 -1 9 -9 9 -8 0 -15 -4
-15 -9z"/>
<path d="M583 8114 c-7 -3 -13 -12 -13 -20 0 -11 12 -13 53 -11 28 2 77 -2
107 -9 72 -17 205 -13 205 6 0 18 -43 29 -77 19 -15 -4 -56 -3 -90 2 -90 14
-171 20 -185 13z"/>
<path d="M1520 8108 c-14 -5 -96 -10 -182 -9 -128 0 -158 -2 -158 -13 0 -18
200 -34 234 -18 12 5 44 10 71 10 72 0 75 1 75 16 0 21 -11 25 -40 14z"/>
<path d="M1018 8012 c-40 -5 -34 -18 15 -31 60 -17 60 -17 64 -4 6 16 -46 39
-79 35z"/>
<path d="M593 7965 c2 -5 7 -9 10 -7 4 1 21 2 37 2 17 0 30 4 30 9 0 6 -18 9
-40 8 -23 -1 -39 -6 -37 -12z"/>
<path d="M1385 7970 c-3 -5 -3 -10 2 -11 4 0 16 -2 25 -4 9 -2 25 3 35 11 16
12 15 13 -19 14 -20 0 -40 -4 -43 -10z"/>
<path d="M1690 7969 c0 -5 5 -7 10 -4 6 3 10 8 10 11 0 2 -4 4 -10 4 -5 0 -10
-5 -10 -11z"/>
<path d="M1425 5940 c-3 -5 1 -10 10 -10 9 0 13 5 10 10 -3 6 -8 10 -10 10 -2
0 -7 -4 -10 -10z"/>
<path d="M1676 2981 c-16 -25 40 -59 105 -66 23 -2 49 -10 58 -18 9 -7 38 -26
64 -41 43 -25 48 -30 42 -55 -4 -19 0 -33 15 -49 12 -12 25 -20 29 -17 12 7
22 80 15 100 -10 26 -169 115 -194 108 -13 -4 -29 2 -43 16 -27 25 -82 38 -91
22z"/>
<path d="M4778 8162 c-27 -2 -38 -8 -38 -19 0 -14 10 -15 70 -10 40 3 83 1
100 -5 23 -7 34 -7 46 3 13 11 11 14 -18 26 -29 13 -57 13 -160 5z"/>
<path d="M5057 8134 c-12 -12 14 -34 39 -34 15 0 24 6 24 15 0 8 -6 15 -14 15
-8 0 -21 2 -28 5 -8 3 -17 3 -21 -1z"/>
<path d="M4760 8021 c0 -12 57 -24 96 -19 52 6 30 23 -33 26 -38 2 -63 -1 -63
-7z"/>
<path d="M7260 8355 c0 -10 11 -15 35 -15 24 0 35 5 35 15 0 10 -11 15 -35 15
-24 0 -35 -5 -35 -15z"/>
<path d="M3965 8260 c-18 -3 -31 -12 -33 -23 -3 -15 7 -17 106 -17 60 0 130
-3 156 -6 42 -6 46 -5 46 14 0 14 -8 23 -22 27 -34 7 -219 11 -253 5z"/>
<path d="M4012 8118 c6 -18 106 -34 120 -20 20 20 -4 32 -63 32 -44 0 -60 -3
-57 -12z"/>
<path d="M3590 7968 c-20 -9 -22 -12 -8 -15 9 -2 25 0 35 5 13 7 28 6 50 -3
32 -14 51 -6 38 15 -8 13 -83 12 -115 -2z"/>
<path d="M3970 7960 c0 -5 7 -10 15 -10 8 0 15 5 15 10 0 6 -7 10 -15 10 -8 0
-15 -4 -15 -10z"/>
<path d="M1957 7683 c-11 -10 -67 -131 -67 -143 0 -14 26 -12 38 3 12 15 52
117 52 135 0 13 -13 16 -23 5z"/>
<path d="M3132 7148 c-19 -25 -42 -77 -42 -98 0 -42 50 -16 75 39 14 33 15 43
5 56 -15 18 -24 19 -38 3z"/>
<path d="M3016 7035 c-3 -8 -1 -15 4 -15 6 0 10 7 10 15 0 8 -2 15 -4 15 -2 0
-6 -7 -10 -15z"/>
<path d="M3065 6880 c-10 -11 -24 -20 -30 -20 -18 0 -28 -31 -15 -44 17 -17
104 33 108 62 3 18 -1 22 -21 22 -13 0 -32 -9 -42 -20z"/>
<path d="M2540 6172 c-41 -33 -11 -60 107 -97 38 -12 43 -12 59 6 17 18 17 20
-2 34 -10 8 -39 21 -63 30 -24 8 -52 22 -61 30 -15 14 -19 14 -40 -3z"/>
<path d="M3510 6221 c-20 -14 -4 -27 42 -35 37 -7 59 7 41 25 -14 14 -67 20
-83 10z"/>
<path d="M3206 6108 c-19 -26 -22 -148 -5 -180 15 -27 14 -109 -1 -195 -15
-85 -10 -111 32 -155 18 -19 45 -50 60 -70 21 -27 38 -38 67 -43 42 -7 64 -26
75 -62 4 -13 13 -23 21 -23 21 0 26 29 9 62 -10 19 -14 42 -10 60 4 20 0 34
-14 48 -29 29 -43 25 -35 -9 4 -21 2 -30 -10 -35 -24 -9 -72 20 -79 48 -3 14
-20 33 -36 41 -48 25 -53 44 -39 148 9 72 9 105 0 152 -22 105 -24 149 -8 187
21 50 2 68 -27 26z"/>
<path d="M3541 5577 c-37 -18 -31 -30 16 -33 47 -2 62 9 43 31 -15 18 -27 19
-59 2z"/>
<path d="M3364 5335 c-4 -8 1 -24 9 -33 10 -11 14 -27 10 -40 -8 -32 30 -29
52 4 14 22 15 28 4 35 -8 5 -20 9 -27 9 -7 0 -12 8 -10 17 4 22 -30 30 -38 8z"/>
<path d="M3434 5217 c-26 -23 -27 -47 0 -47 15 0 57 55 49 64 -11 10 -21 7
-49 -17z"/>
<path d="M3476 5112 c-3 -5 -2 -19 1 -31 7 -26 36 -24 41 3 5 25 -29 48 -42
28z"/>
<path d="M3743 4998 c-17 -23 -35 -77 -29 -87 12 -18 34 0 50 40 9 22 16 44
16 49 0 14 -26 12 -37 -2z"/>
<path d="M3610 4781 c0 -36 25 -59 48 -44 37 23 20 73 -24 73 -20 0 -24 -5
-24 -29z"/>
<path d="M1535 5657 c-10 -8 -15 -19 -12 -24 4 -6 -2 -43 -13 -82 -11 -39 -25
-126 -30 -192 -12 -141 -16 -426 -7 -435 3 -4 12 -4 20 -1 12 4 16 54 22 257
4 158 13 274 22 313 8 34 19 83 26 110 13 55 2 75 -28 54z"/>
<path d="M1557 4884 c-4 -4 -4 -10 -1 -15 6 -10 34 0 34 12 0 10 -24 12 -33 3z"/>
<path d="M1530 4480 c-21 -13 -8 -21 42 -27 l43 -4 -24 20 c-26 23 -39 25 -61
11z"/>
<path d="M2403 5669 c-34 -12 -28 -27 15 -38 51 -15 82 -14 82 3 0 29 -59 51
-97 35z"/>
<path d="M1910 5430 c0 -5 11 -10 25 -10 14 0 25 5 25 10 0 6 -11 10 -25 10
-14 0 -25 -4 -25 -10z"/>
<path d="M1907 5294 c-16 -17 -4 -24 39 -24 32 0 44 4 42 13 -5 13 -69 22 -81
11z"/>
<path d="M2545 5248 c4 -18 13 -51 20 -73 23 -70 37 -167 40 -273 1 -56 5
-105 9 -109 30 -31 46 152 23 267 -22 106 -62 214 -82 218 -14 3 -16 -2 -10
-30z"/>
<path d="M5430 5419 c-19 -11 -68 -53 -107 -92 -56 -55 -72 -76 -67 -92 4 -14
3 -16 -4 -7 -19 27 -96 -97 -120 -193 -27 -107 -34 -125 -57 -159 -34 -50 -53
-122 -37 -138 13 -13 42 5 42 27 0 8 15 44 34 82 19 37 49 111 66 163 39 113
59 156 107 218 38 50 125 129 186 168 20 13 37 29 37 34 0 17 -43 11 -80 -11z"/>
<path d="M5326 5198 c-28 -37 -96 -183 -96 -205 0 -8 -6 -27 -14 -41 -7 -15
-23 -54 -34 -87 -11 -33 -31 -84 -43 -113 -21 -49 -22 -53 -7 -69 16 -15 18
-15 26 8 13 33 61 149 72 174 5 11 25 63 46 115 20 52 52 126 71 163 31 63 35
87 13 87 -5 0 -20 -15 -34 -32z"/>
<path d="M5850 5088 c0 -52 -6 -103 -16 -132 -26 -76 17 -91 50 -18 35 80 24
222 -17 230 -15 3 -17 -8 -17 -80z"/>
<path d="M5528 4987 c-25 -35 -8 -55 26 -31 27 20 31 47 6 51 -8 2 -22 -8 -32
-20z"/>
<path d="M4935 4789 c-116 -103 -156 -151 -212 -252 -40 -71 -46 -97 -24 -97
4 0 29 42 55 93 52 103 69 127 113 154 64 39 125 101 121 124 -3 20 -7 19 -53
-22z"/>
<path d="M5745 3163 c-9 -20 -27 -51 -40 -69 -14 -18 -25 -37 -25 -41 0 -5 -8
-18 -17 -29 -10 -10 -38 -44 -63 -74 -62 -75 -155 -164 -196 -186 -19 -10 -34
-22 -34 -26 0 -5 -11 -8 -25 -8 -28 0 -33 -21 -10 -40 11 -9 15 -9 15 -1 0 6
10 16 23 22 64 28 153 106 235 206 124 152 187 246 178 270 -9 23 -25 14 -41
-24z"/>
<path d="M3780 3711 c-104 -33 -170 -83 -170 -127 0 -39 17 -36 42 8 29 54
114 102 164 92 24 -4 33 -2 38 11 6 17 0 35 -12 34 -4 0 -32 -8 -62 -18z"/>
<path d="M3910 3671 c-8 -5 -44 -21 -80 -37 -36 -15 -74 -36 -85 -45 -11 -9
-37 -26 -57 -37 -81 -42 -150 -144 -119 -175 7 -7 19 8 40 54 31 69 45 84 116
123 25 14 57 33 71 42 13 9 53 27 86 39 34 12 64 28 66 34 4 13 -16 14 -38 2z"/>
<path d="M3498 3323 c-11 -26 -31 -85 -44 -132 -12 -47 -29 -111 -37 -141 -34
-125 -36 -144 -22 -166 20 -31 61 -35 135 -12 68 22 130 24 163 7 25 -14 50 6
27 21 -46 30 -88 33 -153 11 -73 -24 -129 -27 -146 -7 -12 14 -11 16 20 151 6
22 19 68 29 102 11 34 20 67 20 73 0 6 14 38 30 72 35 70 35 68 14 68 -8 0
-24 -20 -36 -47z"/>
<path d="M3735 3020 c-11 -5 -29 -11 -39 -14 -12 -4 -16 -10 -10 -16 6 -6 31
-6 64 -1 56 9 143 -2 167 -21 6 -5 17 -8 25 -7 39 5 70 -4 98 -28 25 -21 34
-23 40 -13 22 36 -35 73 -129 86 -28 4 -54 11 -57 15 -7 11 -132 10 -159 -1z"/>
<path d="M3557 2843 c-4 -3 -7 -31 -7 -60 0 -66 20 -69 34 -5 11 54 -3 90 -27
65z"/>
<path d="M3491 2823 c-17 -32 -2 -230 21 -282 14 -31 23 -40 30 -33 8 8 7 24
-2 55 -6 25 -13 92 -14 151 -1 109 -14 147 -35 109z"/>
<path d="M7850 2810 c0 -5 5 -10 10 -10 6 0 10 5 10 10 0 6 -4 10 -10 10 -5 0
-10 -4 -10 -10z"/>
<path d="M7260 2506 c-30 -13 -62 -27 -70 -31 -15 -6 -26 -12 -95 -56 -22 -13
-87 -47 -145 -75 -58 -28 -168 -82 -245 -119 -77 -37 -169 -78 -205 -92 -108
-39 -120 -45 -120 -54 0 -14 27 -10 73 10 23 11 53 23 67 27 14 3 70 29 125
55 56 27 104 49 109 49 12 0 296 144 351 178 28 17 87 49 133 71 45 22 82 44
82 50 0 14 5 15 -60 -13z"/>
<path d="M7742 2443 c5 -26 38 -29 38 -4 0 15 -6 21 -21 21 -14 0 -19 -5 -17
-17z"/>
<path d="M6233 2019 c-18 -5 -33 -12 -33 -14 0 -11 48 -4 66 10 22 16 13 17
-33 4z"/>
<path d="M6185 1535 c-22 -8 -48 -15 -57 -15 -10 0 -26 -10 -38 -22 -18 -19
-19 -24 -5 -37 13 -13 20 -11 63 12 100 54 189 44 285 -34 80 -64 154 -89 267
-89 91 0 154 14 147 34 -2 7 -34 10 -101 7 -80 -2 -109 1 -166 20 -40 13 -82
35 -98 51 -76 73 -206 105 -297 73z"/>
<path d="M4465 1244 c-39 -20 -42 -24 -19 -24 22 0 62 25 54 34 -3 3 -19 -2
-35 -10z"/>
<path d="M4154 1113 c-181 -90 -207 -104 -224 -117 -8 -7 -40 -23 -70 -35 -30
-12 -64 -26 -75 -31 -11 -5 -42 -17 -70 -26 -56 -18 -175 -84 -175 -96 0 -11
8 -10 33 6 12 8 44 17 70 21 65 9 163 49 216 88 13 9 31 17 41 17 10 0 29 9
43 20 14 11 80 47 148 81 68 33 144 70 168 82 24 12 46 27 48 33 10 29 -33 17
-153 -43z"/>
<path d="M175 12579 c-4 -6 -4 -13 -1 -16 8 -8 36 5 36 17 0 13 -27 13 -35 -1z"/>
</g>
</svg>
