<?xml version="1.0" standalone="no"?>
<!DOCTYPE svg PUBLIC "-//W3C//DTD SVG 20010904//EN"
 "http://www.w3.org/TR/2001/REC-SVG-20010904/DTD/svg10.dtd">
<svg version="1.0" xmlns="http://www.w3.org/2000/svg"
 width="846.000000pt" height="1379.000000pt" viewBox="0 0 846.000000 1379.000000"
 preserveAspectRatio="xMidYMid meet">
<metadata>
Created by potrace 1.16, written by Peter Selinger 2001-2019
</metadata>
<g transform="translate(0.000000,1379.000000) scale(0.100000,-0.100000)"
fill="#000000" stroke="none">
<path d="M4708 13509 c-7 -5 -26 -9 -43 -9 -16 0 -75 -2 -130 -4 -55 -3 -246
-8 -425 -11 -179 -3 -401 -8 -495 -11 -93 -4 -181 -6 -195 -6 -14 0 -73 1
-132 1 -63 0 -109 4 -113 11 -3 6 -12 7 -18 3 -7 -4 -57 -8 -112 -10 -248 -6
-1055 -15 -1195 -13 -85 0 -166 1 -180 1 -78 -2 -714 -10 -815 -10 l-119 -1
22 -22 c21 -21 31 -22 229 -25 115 -2 330 -6 478 -8 224 -4 474 -4 620 -2 17
0 50 0 75 -2 43 -1 482 4 1070 13 151 3 334 8 405 12 72 4 137 6 145 6 38 -2
537 1 635 4 122 4 360 4 535 2 63 -1 635 -1 1270 1 719 2 1166 0 1185 -6 17
-6 43 -6 59 -2 16 5 36 4 44 0 9 -5 62 -6 118 -3 97 5 105 3 121 -16 10 -12
36 -25 58 -30 40 -8 40 -8 47 -62 4 -30 7 -107 7 -170 1 -63 3 -128 5 -145 7
-39 20 -423 18 -500 0 -33 -1 -249 -2 -480 0 -319 -3 -421 -13 -427 -9 -6 -9
-10 0 -16 8 -5 10 -29 5 -82 -9 -89 -8 -402 1 -445 3 -16 4 -22 1 -12 -3 9 -9
15 -14 12 -5 -3 -4 -20 2 -38 6 -20 12 -257 14 -627 2 -327 7 -667 12 -755 6
-123 8 -1905 3 -3195 -1 -69 3 -327 8 -575 5 -247 10 -503 10 -568 l1 -117
-167 5 c-191 6 -268 19 -289 49 -8 12 -14 44 -14 78 l0 57 58 -6 c31 -3 62
-11 67 -17 33 -37 151 -73 203 -61 17 3 40 0 57 -9 16 -8 32 -13 37 -10 28 18
-27 76 -63 67 -12 -3 -25 1 -32 10 -8 11 -31 17 -69 18 -66 3 -73 14 -27 48
26 19 38 22 76 16 28 -4 56 -2 74 5 24 10 29 18 29 47 0 33 -1 34 -39 32 -26
-2 -46 4 -64 18 -21 16 -36 20 -70 16 -36 -4 -47 -2 -58 14 -8 11 -22 22 -31
26 -12 4 -18 17 -18 35 0 23 -7 32 -27 42 -16 6 -48 36 -72 67 -35 45 -44 64
-46 102 -3 62 -3 61 -20 61 -28 0 -36 -49 -30 -175 4 -66 6 -127 6 -135 0 -8
1 -44 2 -80 1 -36 1 -118 1 -183 0 -108 -2 -120 -21 -135 -11 -10 -53 -44 -92
-77 -165 -138 -165 -138 -157 -2 9 144 9 146 6 302 -4 209 -2 1427 2 1600 l6
230 24 5 c20 5 25 15 35 75 7 44 8 103 4 160 -4 50 -6 95 -3 102 6 18 28 23
117 24 109 1 235 19 236 33 3 44 -1 178 -6 186 -7 12 -264 12 -343 1 -59 -8
-74 3 -66 49 3 14 -5 90 -16 170 -11 80 -23 172 -25 205 -2 33 -18 107 -34
165 l-30 105 23 21 c57 51 63 129 16 211 -49 85 -74 94 -181 65 -61 -16 -92
-36 -121 -77 -38 -56 -37 -104 3 -150 l32 -36 -12 -92 c-6 -51 -15 -126 -20
-167 -5 -41 -15 -164 -22 -273 -7 -109 -16 -200 -19 -202 -16 -10 -105 -16
-255 -19 l-160 -3 -3 -95 -3 -96 37 -21 c20 -12 44 -19 54 -16 10 3 82 7 160
9 l142 3 9 -25 c5 -13 10 -53 10 -89 1 -36 5 -79 9 -94 6 -20 4 -31 -6 -40
-20 -16 -18 -73 4 -92 17 -16 19 -39 21 -275 1 -141 4 -270 6 -287 5 -31 13
-365 20 -790 5 -299 13 -574 21 -707 4 -63 3 -98 -4 -98 -15 0 -63 49 -95 96
-15 22 -36 50 -46 61 -17 18 -38 127 -34 181 0 6 1 21 2 32 2 29 24 24 43 -10
14 -24 24 -30 53 -30 43 0 47 22 9 47 -14 9 -30 27 -35 40 -6 17 -16 23 -39
23 -32 0 -70 -15 -81 -33 -7 -10 -3 -122 6 -174 5 -28 1 -35 -40 -68 -25 -21
-62 -61 -82 -89 -21 -28 -74 -89 -119 -135 -74 -77 -83 -82 -103 -71 -21 11
-22 18 -20 93 3 89 -7 1006 -16 1466 -3 156 -3 297 0 313 4 18 13 28 25 28 38
0 43 20 40 170 -2 147 2 211 16 225 16 16 24 16 259 19 l139 1 8 42 c3 22 4
63 0 89 -8 55 -35 77 -87 69 -79 -12 -315 -16 -334 -5 -19 10 -21 20 -21 108
0 114 -33 391 -67 565 -4 21 0 34 16 48 27 26 48 66 55 109 5 29 0 45 -28 90
-41 64 -38 76 31 116 27 15 64 40 83 56 19 15 42 28 52 28 18 0 82 -72 143
-160 21 -30 43 -58 49 -62 20 -14 61 -8 78 10 8 9 30 30 47 45 25 23 31 37 31
68 0 50 -53 135 -128 206 -48 45 -54 54 -48 79 4 16 23 42 43 59 74 63 147
142 214 232 41 54 78 93 87 93 44 0 118 93 131 165 12 67 -29 165 -69 165 -10
0 -22 5 -25 11 -9 14 -130 1 -167 -17 -36 -18 -66 -59 -74 -99 -4 -24 -14 -37
-33 -45 -15 -6 -38 -21 -52 -33 -13 -13 -32 -26 -41 -30 -10 -3 -43 -22 -73
-42 -31 -19 -62 -35 -69 -35 -8 0 -39 -22 -69 -50 -59 -54 -67 -58 -67 -35 0
8 7 15 15 15 30 0 14 27 -25 43 -44 17 -49 29 -22 49 17 13 46 55 96 138 15
25 38 60 51 79 14 19 25 42 25 52 0 12 7 19 19 19 10 0 42 25 71 56 l53 56 -5
67 c-5 70 -23 119 -48 132 -8 4 -40 18 -71 30 l-56 22 -40 -24 c-51 -30 -113
-111 -120 -155 -3 -19 -10 -34 -16 -34 -9 0 -84 79 -101 107 -6 11 5 27 38 60
52 50 192 256 220 323 25 60 33 82 39 102 3 9 26 26 51 37 61 26 86 69 86 143
0 31 -5 69 -10 85 -14 37 -60 76 -108 92 -35 12 -43 11 -78 -8 -53 -28 -67
-40 -97 -84 -14 -21 -75 -80 -134 -132 -104 -90 -185 -170 -286 -285 l-48 -55
-63 66 c-52 55 -173 139 -199 139 -19 0 -127 -120 -132 -146 -9 -41 48 -113
147 -189 43 -33 78 -67 78 -76 0 -9 -13 -36 -30 -60 -16 -24 -30 -47 -30 -51
0 -8 -30 -54 -71 -108 -15 -19 -30 -46 -34 -60 -4 -14 -26 -46 -49 -71 -87
-98 -146 -166 -185 -214 -81 -101 -104 -125 -116 -125 -16 0 -26 135 -12 167
7 16 6 27 -2 37 -10 12 -8 18 13 31 16 11 35 15 50 11 34 -8 41 8 21 50 -9 20
-15 37 -13 40 3 2 19 -2 36 -8 47 -18 63 2 28 37 -34 34 -33 46 4 39 26 -6 30
-4 30 16 0 13 -8 24 -20 27 -11 3 -20 14 -20 24 0 13 9 19 38 21 46 4 50 27 8
47 l-29 14 23 17 c14 10 20 22 15 29 -4 7 0 20 9 29 19 22 11 34 -41 61 -24
12 -43 26 -43 31 0 5 -10 10 -22 12 -17 2 -22 9 -21 26 2 16 -4 25 -20 31 -24
9 -24 10 -21 173 1 96 7 175 14 193 22 57 -6 172 -54 223 -95 98 -357 195
-486 181 -30 -3 -61 -2 -67 4 -20 15 -100 -2 -132 -29 -16 -13 -39 -24 -51
-24 -30 0 -96 -69 -103 -107 -6 -35 -23 -83 -53 -148 -14 -33 -24 -78 -28
-132 -8 -119 -46 -179 -76 -122 -9 16 -14 18 -26 8 -8 -6 -14 -18 -14 -25 0
-19 -17 -18 -28 2 -10 19 -32 11 -32 -11 0 -19 -39 -45 -67 -45 -25 0 -29 -11
-12 -41 8 -16 7 -25 -7 -40 -16 -18 -16 -22 -3 -47 20 -34 15 -56 -16 -70 -26
-12 -25 -36 1 -46 19 -7 18 -56 -1 -56 -9 0 -15 -9 -15 -22 0 -13 -19 -48 -42
-78 -87 -114 -167 -242 -174 -275 -3 -19 -9 -35 -13 -35 -3 0 -26 14 -51 30
-25 16 -50 30 -57 30 -6 0 -48 27 -93 61 -163 121 -190 126 -241 47 -64 -97
-71 -140 -28 -153 10 -4 19 -11 19 -16 0 -5 6 -9 14 -9 8 0 28 -11 44 -25 17
-14 33 -25 37 -25 13 0 114 -75 115 -85 0 -11 -102 2 -140 17 -8 4 -51 12 -94
18 -103 16 -108 18 -100 44 4 11 8 37 10 56 4 35 7 52 44 240 11 58 23 134 25
170 4 54 10 69 35 95 51 53 60 111 34 203 -13 42 -28 67 -57 94 -39 35 -44 37
-109 37 -83 0 -123 -23 -156 -90 -36 -73 -38 -107 -8 -181 l26 -65 -45 -89
c-52 -105 -100 -219 -110 -263 -4 -17 -13 -44 -21 -61 -16 -30 -6 -70 17 -70
10 0 11 0 28 75 16 68 65 193 114 290 41 82 54 98 71 88 5 -3 25 -8 45 -10 60
-6 84 -12 93 -21 10 -10 -5 -144 -27 -242 -8 -36 -25 -111 -37 -167 -22 -100
-23 -103 -50 -103 -15 0 -29 4 -32 8 -2 4 -19 9 -36 10 -18 1 -40 6 -49 11 -9
5 -33 11 -54 15 -21 4 -71 20 -112 37 -40 16 -84 29 -97 29 -13 0 -28 4 -34 8
-5 5 -29 17 -53 26 -25 10 -57 26 -72 37 -15 11 -53 22 -86 25 -51 6 -60 4
-77 -15 -11 -12 -24 -45 -28 -74 -5 -29 -11 -66 -14 -84 -6 -29 -3 -33 22 -38
16 -4 67 -19 114 -35 47 -15 100 -31 117 -35 18 -3 35 -11 38 -16 4 -5 15 -9
25 -9 28 0 30 -11 15 -71 -29 -110 -38 -206 -25 -267 11 -54 10 -65 -20 -177
-18 -66 -36 -140 -40 -165 -5 -25 -20 -90 -35 -145 -14 -55 -30 -116 -35 -135
-5 -19 -16 -60 -24 -90 -37 -132 -56 -213 -92 -375 -8 -38 -23 -99 -33 -135
-10 -36 -33 -128 -51 -205 -18 -77 -41 -165 -50 -195 -19 -60 -40 -143 -45
-175 -2 -11 -12 -47 -23 -80 -11 -33 -23 -78 -27 -100 -3 -22 -13 -60 -21 -85
-14 -46 -60 -226 -97 -382 -20 -83 -22 -87 -57 -103 -21 -9 -74 -54 -119 -99
l-81 -81 11 -115 c12 -122 25 -154 54 -130 13 11 14 15 2 29 -9 10 -17 53 -21
115 l-7 100 73 68 c40 37 78 68 85 68 10 0 12 -14 7 -57 -6 -61 -30 -106 -57
-111 -14 -3 -16 2 -10 29 8 40 -17 37 -28 -4 -10 -36 5 -197 20 -225 15 -28 5
-82 -14 -82 -8 0 -17 9 -20 20 -12 39 -38 16 -83 -75 -40 -82 -240 -468 -316
-610 -21 -39 -20 -90 1 -127 16 -26 22 -29 51 -24 45 7 99 49 117 92 15 37 43
70 51 61 3 -2 -2 -36 -11 -73 -9 -38 -23 -98 -31 -134 -7 -36 -20 -81 -28
-100 -46 -117 -54 -193 -26 -239 19 -30 25 -33 56 -28 49 8 131 79 139 120 4
18 10 37 14 42 12 20 31 81 37 122 3 23 12 50 19 59 12 16 15 17 45 2 40 -20
81 -10 121 28 20 19 33 24 46 19 10 -5 23 -7 28 -7 6 1 193 182 415 402 382
377 407 400 441 400 23 0 42 -7 54 -20 17 -19 78 -41 114 -42 31 0 156 24 166
33 6 4 33 13 60 19 27 6 56 17 65 24 21 18 145 86 157 86 5 0 19 -17 31 -39
13 -22 35 -44 52 -51 17 -7 35 -21 41 -31 5 -11 15 -19 22 -19 31 0 87 22 113
45 16 14 34 25 41 25 7 0 26 20 42 43 16 24 41 51 55 61 19 12 26 25 26 47 0
30 2 31 31 25 19 -3 41 0 59 9 16 8 40 15 54 15 13 0 38 11 53 24 18 15 41 24
60 24 17 -1 44 8 59 19 42 29 123 63 151 63 14 0 62 18 108 41 76 37 88 40
127 32 l43 -9 7 -79 c4 -44 9 -208 10 -365 2 -229 6 -289 18 -307 12 -19 12
-24 -3 -41 -10 -11 -17 -35 -17 -58 0 -21 -5 -66 -10 -99 -27 -165 -31 -262
-14 -332 30 -121 84 -143 58 -23 -18 84 -18 171 1 302 8 59 15 154 16 213 0
59 2 105 4 103 8 -8 35 -133 35 -161 0 -18 4 -46 8 -62 11 -38 5 -55 -19 -55
-26 0 -33 -35 -27 -138 6 -91 22 -142 45 -142 15 0 16 22 4 107 -5 34 -6 75
-2 90 l8 28 6 -25 c3 -14 11 -59 17 -100 20 -128 58 -266 93 -342 39 -85 130
-211 182 -251 41 -33 47 -67 12 -67 -32 0 -111 73 -140 130 -13 25 -34 74 -47
110 -13 36 -26 70 -30 75 -4 6 -22 54 -40 108 -30 92 -50 117 -58 73 -3 -16
33 -145 49 -176 4 -8 19 -44 33 -80 42 -110 84 -183 136 -235 76 -77 63 -125
-43 -154 -59 -17 -89 -11 -104 19 -7 13 -20 28 -30 31 -28 12 -101 10 -109 -2
-7 -11 -37 -9 -174 11 -41 6 -93 10 -115 9 -46 -2 -103 9 -111 22 -3 5 -13 9
-23 9 -10 0 -65 32 -123 70 -58 39 -114 70 -123 70 -9 0 -30 11 -47 25 -36 30
-48 31 -48 5 0 -28 32 -54 85 -68 26 -7 62 -24 79 -37 18 -14 36 -25 40 -25 4
0 22 -11 39 -23 47 -35 175 -76 253 -82 114 -7 157 -15 174 -30 19 -17 41 -19
55 -6 19 17 73 21 85 6 9 -11 9 -15 1 -15 -6 0 -31 -18 -54 -39 -33 -31 -58
-43 -111 -55 -37 -9 -71 -14 -75 -11 -5 2 -23 0 -42 -6 -19 -5 -99 -11 -179
-13 -80 -2 -176 -7 -215 -11 -58 -6 -88 -3 -176 19 -135 32 -148 37 -188 75
-18 17 -46 39 -61 48 -15 9 -35 31 -44 49 -8 19 -22 34 -29 34 -8 0 -22 10
-33 21 -10 12 -38 34 -61 50 -56 39 -95 106 -133 230 -52 170 -113 308 -159
363 -9 10 -32 26 -52 37 -23 11 -41 30 -47 47 -10 31 -26 52 -77 107 -52 56
-183 83 -320 66 -71 -8 -187 -42 -223 -65 -7 -4 -16 -5 -20 -2 -11 11 32 42
74 54 57 17 92 47 104 91 5 20 21 48 35 61 23 21 29 23 56 13 26 -10 39 -9 80
8 37 14 55 16 69 9 10 -5 28 -10 39 -10 11 0 33 -11 49 -25 17 -14 35 -25 41
-25 19 0 12 26 -15 49 -29 25 -27 45 3 49 20 3 188 -48 225 -69 10 -5 23 -9
30 -9 17 0 134 -59 178 -89 54 -37 71 -62 64 -95 -5 -24 0 -33 29 -57 35 -29
127 -151 127 -169 0 -5 8 -15 18 -22 10 -7 35 -38 54 -68 101 -155 344 -348
397 -315 21 12 -8 44 -46 51 -20 4 -55 19 -77 35 -47 32 -223 210 -252 254
-10 17 -36 53 -56 80 -21 28 -38 55 -38 60 0 6 -25 42 -55 80 -36 45 -55 78
-55 95 0 15 -9 39 -21 54 -39 50 -209 146 -258 146 -7 0 -44 14 -83 31 -81 35
-176 62 -195 55 -7 -3 -18 -17 -23 -31 -8 -21 -15 -25 -33 -20 -32 10 -66 36
-85 67 -15 26 -15 27 23 70 21 24 50 51 64 60 31 21 34 41 7 46 -14 3 -39 -16
-83 -63 -35 -37 -63 -71 -63 -76 0 -4 -6 -12 -13 -16 -7 -4 -28 -27 -47 -50
-18 -24 -41 -43 -50 -43 -26 0 -59 -37 -85 -95 -21 -48 -28 -55 -66 -65 -28
-8 -61 -30 -102 -68 -64 -61 -98 -117 -104 -170 -2 -19 -11 -45 -20 -58 -12
-19 -15 -41 -11 -99 4 -52 1 -78 -8 -87 -18 -18 -45 -129 -54 -223 -9 -96 -32
-186 -57 -220 -16 -22 -23 -24 -68 -19 -40 5 -56 13 -80 39 -32 35 -86 65
-118 65 -11 0 -37 -5 -58 -11 -36 -11 -40 -10 -75 20 -20 18 -46 36 -58 40
-50 19 -242 -6 -310 -41 -47 -24 -58 -34 -85 -79 -18 -29 -25 -33 -58 -31 -45
3 -118 -38 -154 -87 -13 -17 -26 -31 -30 -31 -12 0 2 101 17 132 8 15 22 31
31 37 15 8 16 13 6 30 -15 24 -2 118 27 194 24 62 25 73 5 80 -19 8 -60 -80
-70 -148 -4 -27 -14 -75 -22 -105 -8 -30 -20 -80 -25 -110 -5 -30 -14 -72 -20
-93 -11 -36 -13 -37 -42 -31 -42 9 -53 21 -38 42 22 31 25 44 15 61 -16 25
-36 19 -52 -14 -8 -16 -24 -37 -35 -45 -60 -42 -93 -98 -67 -114 11 -7 24
-197 22 -306 -2 -87 9 -138 31 -144 7 -2 30 -9 50 -15 21 -7 44 -9 50 -4 7 4
22 8 33 9 11 1 47 9 80 18 32 9 81 16 108 16 26 0 58 5 70 12 12 6 60 13 107
14 67 1 87 -2 96 -14 10 -14 14 -14 39 2 18 12 50 19 89 21 34 1 91 5 128 10
51 6 76 4 105 -7 21 -8 43 -13 50 -11 20 7 23 -14 8 -51 -16 -38 -35 -45 -55
-21 -35 42 -55 -4 -20 -48 21 -26 27 -67 10 -67 -5 0 -10 11 -10 25 0 28 -32
65 -55 65 -24 0 -17 -38 10 -56 14 -9 25 -23 25 -31 0 -15 -12 -15 -66 2 -31
10 -39 -20 -12 -45 12 -11 30 -20 41 -20 10 0 27 -5 38 -10 24 -14 26 -43 2
-36 -10 3 -40 8 -66 12 -47 6 -49 6 -45 -17 2 -19 12 -25 46 -32 44 -9 65 -33
42 -47 -8 -5 -29 0 -52 12 -43 22 -68 18 -68 -11 0 -14 12 -23 43 -34 48 -16
59 -47 17 -54 -13 -2 -27 -9 -31 -15 -9 -15 8 -38 27 -38 19 0 18 -9 -6 -55
-11 -22 -20 -50 -20 -63 0 -13 -11 -48 -25 -78 -14 -30 -25 -57 -25 -61 0 -20
-92 -180 -141 -246 -33 -43 -59 -81 -59 -84 0 -3 -12 -18 -27 -33 -16 -16 -44
-47 -63 -69 -19 -22 -41 -40 -48 -41 -8 0 -31 -17 -53 -39 l-39 -38 -289 1
c-159 0 -292 4 -296 8 -3 3 -7 80 -7 170 0 90 -4 200 -8 243 -7 67 -5 83 8 98
9 10 22 15 31 11 9 -4 43 -9 76 -11 33 -3 79 -13 102 -24 23 -10 45 -19 48
-19 21 0 74 -34 78 -51 7 -26 35 -24 107 6 69 29 101 30 236 10 136 -20 253
-20 261 1 9 25 -8 31 -82 25 -42 -4 -93 -1 -128 6 -104 23 -205 22 -275 -3
-64 -23 -92 -23 -92 1 0 9 -9 12 -25 9 -15 -3 -31 3 -42 15 -26 27 -105 49
-203 56 -47 4 -86 8 -86 9 -1 0 -5 20 -9 42 -9 55 4 59 91 28 38 -13 79 -24
92 -24 13 0 37 -7 54 -16 31 -16 236 -29 358 -23 30 2 78 2 105 1 117 -4 231
-10 249 -13 25 -5 31 15 10 36 -12 12 -25 15 -43 10 -14 -4 -37 -7 -51 -6 -14
0 -108 2 -210 4 -113 2 -199 8 -222 16 -27 9 -43 9 -57 2 -11 -6 -36 -11 -56
-11 -28 0 -43 7 -63 30 -24 27 -33 30 -87 31 -44 0 -75 7 -115 27 l-55 27 -3
83 c-2 45 -7 80 -11 77 -5 -3 -7 4 -4 16 5 17 11 20 32 15 14 -4 96 -11 182
-16 90 -5 175 -16 200 -24 51 -18 79 -20 79 -6 0 6 71 9 183 9 273 -2 327 1
327 16 0 28 -28 37 -92 29 -84 -11 -194 -11 -433 0 -110 4 -247 9 -305 11
-128 4 -160 14 -161 52 0 16 -2 58 -3 95 -2 41 1 65 6 61 6 -3 49 -14 96 -25
48 -11 97 -22 110 -25 15 -4 22 -1 22 10 0 23 -104 60 -172 61 -32 1 -58 4
-58 8 0 4 -7 14 -16 22 -11 11 -12 16 -3 16 7 0 4 6 -7 14 -15 12 -17 17 -6
27 6 7 12 22 12 34 0 34 34 46 131 46 48 0 91 3 93 8 12 20 -25 31 -115 34
l-94 3 -2 59 c-6 201 -11 269 -20 272 -11 4 -6 128 7 168 7 19 8 113 5 255 -4
124 -8 466 -10 760 -3 294 -7 803 -10 1130 -2 327 -7 989 -10 1470 -5 929 -10
1275 -25 1670 -20 539 -24 722 -22 1114 1 225 7 447 12 494 6 47 13 225 15
396 2 171 7 527 11 791 9 703 10 1005 2 1007 -11 4 -16 51 -7 69 9 18 75 24
113 9 21 -8 28 -7 33 6 8 21 4 23 -74 29 -66 5 -72 4 -97 -21 -14 -15 -29 -37
-31 -48 -3 -12 -6 -146 -8 -299 -4 -259 -5 -279 -23 -292 -18 -13 -18 -14 -1
-21 18 -6 18 -33 11 -668 -4 -363 -7 -681 -7 -706 1 -43 2 -289 1 -688 0 -100
3 -205 7 -234 6 -44 5 -50 -9 -45 -10 4 -16 1 -16 -8 0 -9 6 -12 15 -9 13 5
15 -60 15 -542 0 -302 2 -679 5 -839 2 -159 7 -427 9 -595 2 -170 9 -320 14
-338 6 -18 7 -30 2 -27 -4 2 -13 -1 -19 -8 -12 -16 6 -87 23 -87 6 0 5 -4 -3
-9 -16 -11 -20 -26 -21 -91 -2 -146 9 -1128 14 -1190 2 -41 8 -480 12 -975 6
-811 24 -1530 40 -1642 4 -32 2 -46 -10 -58 -19 -20 -20 -66 -2 -117 11 -30
12 -64 4 -160 -5 -68 -8 -143 -7 -168 1 -25 2 -135 1 -245 0 -110 3 -204 6
-210 3 -5 7 -70 8 -145 2 -74 6 -265 10 -425 3 -159 7 -301 7 -315 0 -14 -3
-140 -7 -280 -12 -410 -6 -1563 7 -1577 6 -5 373 -13 627 -13 2165 4 4586 17
4805 26 108 5 656 12 875 12 74 0 277 0 450 1 173 0 408 1 522 1 238 0 226 -5
228 96 1 32 -1 201 -4 374 -3 173 -9 491 -12 705 -3 215 -8 444 -10 510 -2 66
-7 354 -9 640 -8 822 -15 1267 -22 1305 -8 44 -10 541 -3 545 3 2 4 77 2 167
-2 90 -3 186 -1 213 2 28 3 75 2 105 -3 154 -16 1463 -16 1645 0 116 1 370 2
565 4 700 5 1463 2 2187 -1 446 -3 503 -17 511 -15 8 -15 10 -1 15 14 5 15 24
12 129 -2 68 -4 128 -5 133 0 6 2 237 5 515 4 278 6 514 5 525 -1 11 -3 169
-5 350 -2 182 -6 353 -9 380 -3 28 -4 115 -4 195 2 161 1 377 -2 605 -1 83 -2
202 -2 265 1 63 -5 160 -12 215 -7 55 -9 102 -5 103 15 6 10 38 -9 55 -11 10
-43 18 -82 21 -36 3 -103 8 -150 12 -47 4 -96 7 -110 7 -113 -5 -413 -2 -422
3 -18 11 -267 13 -1908 14 -201 0 -402 2 -447 4 -45 1 -88 -1 -95 -5z m-1088
-59 c0 -5 -4 -10 -10 -10 -5 0 -10 5 -10 10 0 6 5 10 10 10 6 0 10 -4 10 -10z
m300 -10 c0 -5 -4 -10 -10 -10 -5 0 -10 5 -10 10 0 6 5 10 10 10 6 0 10 -4 10
-10z m3985 -22 c0 -30 -9 -37 -19 -13 -3 8 -12 15 -21 15 -15 0 -20 12 -9 22
3 3 15 5 27 4 17 -1 22 -7 22 -28z m-9 -535 c-10 -10 -19 5 -10 18 6 11 8 11
12 0 2 -7 1 -15 -2 -18z m37 -227 c6 -14 0 -26 -13 -26 -3 0 -6 9 -6 20 0 23
11 27 19 6z m-3418 -2026 c14 -28 19 -30 54 -24 30 5 46 1 79 -20 44 -27 60
-32 140 -41 56 -6 65 4 35 37 -22 24 -4 23 53 -3 38 -18 45 -26 42 -47 -2 -20
5 -29 36 -47 21 -12 48 -20 60 -18 30 5 54 -34 62 -100 6 -51 5 -55 -16 -62
-20 -6 -21 -11 -15 -44 5 -20 9 -71 10 -114 2 -42 6 -97 9 -122 5 -27 3 -45
-3 -45 -5 0 -11 6 -14 13 -3 10 -9 10 -26 0 -30 -18 -49 -16 -56 7 -3 11 -14
20 -24 20 -10 0 -24 7 -31 15 -7 8 -18 14 -24 14 -6 -1 -19 1 -28 5 -21 10
-78 -14 -78 -32 0 -7 -4 -11 -10 -7 -5 3 -7 12 -4 19 3 7 -2 16 -10 19 -9 4
-16 16 -16 27 0 18 -4 20 -34 15 -28 -6 -35 -3 -40 12 -5 15 -15 19 -45 19
-22 -1 -43 -5 -48 -9 -14 -15 -75 -37 -100 -37 -23 0 -25 -3 -18 -36 3 -20 2
-34 -2 -31 -5 3 -15 2 -23 -3 -12 -8 -11 -14 8 -39 29 -40 28 -51 -7 -51 -34
0 -45 -21 -26 -47 21 -27 18 -43 -9 -43 -14 0 -37 -5 -52 -10 -37 -14 -53 3
-23 24 17 11 20 19 12 27 -10 10 -46 4 -95 -16 -14 -5 -18 -2 -18 13 0 26 42
56 100 72 25 7 51 14 59 16 11 3 11 7 1 19 -16 19 -50 19 -99 -1 -54 -21 -63
-16 -44 23 12 26 13 36 3 48 -6 8 -9 19 -5 25 10 17 -14 40 -42 40 -23 0 -25
3 -19 33 5 28 17 42 73 87 7 6 32 13 57 16 52 8 71 18 62 33 -10 16 -35 14
-101 -9 -69 -24 -65 -23 -65 -6 0 33 119 75 224 80 71 3 82 8 71 27 -6 8 -30
10 -86 6 -74 -6 -79 -5 -79 13 0 15 -7 20 -25 20 -29 0 -45 28 -24 41 8 5 34
9 59 9 51 0 76 12 65 30 -4 7 -26 10 -56 9 -61 -3 -71 5 -30 28 17 10 31 20
31 23 0 4 15 4 33 3 17 -2 39 1 47 7 13 9 12 13 -9 29 -33 25 -21 58 22 64 18
2 38 5 44 5 7 1 19 -12 28 -28z m255 -21 c0 -10 -7 -11 -37 -3 -13 4 -23 12
-23 20 0 10 6 11 30 3 17 -6 30 -15 30 -20z m1671 -76 c16 -9 35 -34 44 -56
15 -37 15 -44 -1 -93 -9 -30 -22 -58 -28 -63 -46 -37 -153 -2 -168 54 -17 65
18 141 74 162 44 16 46 15 79 -4z m-205 -175 c12 -40 46 -77 76 -83 45 -10 37
-51 -39 -200 -37 -71 -132 -203 -174 -242 -42 -37 -83 -21 -183 74 -47 45 -86
89 -86 99 0 22 282 301 360 356 32 23 37 23 46 -4z m-1961 -8 c-3 -5 -10 -10
-16 -10 -5 0 -9 5 -9 10 0 6 7 10 16 10 8 0 12 -4 9 -10z m1322 -216 c24 -19
69 -60 101 -91 31 -30 73 -67 92 -81 19 -15 57 -49 84 -77 27 -27 63 -60 80
-73 59 -43 196 -184 195 -201 0 -9 -23 -33 -52 -54 l-52 -38 -23 28 c-39 49
-77 88 -102 106 -14 9 -39 27 -56 40 -82 58 -144 110 -199 166 -33 34 -63 61
-67 61 -9 0 -82 56 -135 104 -18 16 -33 36 -33 45 0 22 81 101 104 101 10 0
39 -16 63 -36z m-2546 1 c86 -13 146 -136 110 -223 -7 -17 -29 -42 -49 -56
-33 -22 -42 -24 -85 -16 -27 6 -62 19 -78 31 -34 24 -69 87 -69 124 0 72 70
158 120 149 8 -2 31 -6 51 -9z m1566 -101 c-9 -9 -28 6 -21 18 4 6 10 6 17 -1
6 -6 8 -13 4 -17z m83 -30 c0 -8 -5 -12 -10 -9 -6 4 -8 11 -5 16 9 14 15 11
15 -7z m78 -46 c-3 -7 -11 -13 -18 -13 -7 0 -15 6 -17 13 -3 7 4 12 17 12 13
0 20 -5 18 -12z m1681 -183 c54 -27 61 -43 53 -125 -4 -42 -10 -55 -40 -81
-32 -29 -40 -31 -85 -25 -32 3 -59 14 -74 28 -29 28 -46 88 -34 120 11 29 97
108 118 108 7 0 35 -11 62 -25z m-767 -17 c17 -13 49 -40 72 -61 22 -21 58
-50 79 -63 20 -13 37 -30 37 -37 0 -22 -112 -147 -131 -147 -10 0 -23 9 -29
20 -13 24 -28 26 -37 3 -5 -11 5 -27 32 -50 35 -30 37 -35 24 -49 -14 -13 -20
-13 -55 3 -70 32 -189 157 -178 187 9 24 27 19 59 -14 55 -57 78 -24 25 37
-16 18 -30 38 -30 44 0 16 82 149 92 149 5 0 23 -10 40 -22z m-1192 -48 c0 -5
-9 -10 -20 -10 -11 0 -20 5 -20 10 0 6 9 10 20 10 11 0 20 -4 20 -10z m567
-22 c-3 -8 -6 -5 -6 6 -1 11 2 17 5 13 3 -3 4 -12 1 -19z m-657 -19 c0 -26
-48 -49 -60 -29 -11 18 -3 36 23 47 27 13 37 8 37 -18z m432 -8 c24 -11 56
-23 71 -26 16 -3 32 -16 39 -30 6 -14 19 -27 29 -30 21 -7 29 -25 39 -95 5
-30 10 -64 12 -75 2 -15 -3 -21 -23 -23 -47 -5 -44 -40 15 -207 18 -50 22 -73
14 -82 -15 -18 -25 -16 -60 8 -25 18 -36 20 -66 13 -48 -12 -50 -27 -7 -53 20
-12 35 -27 33 -33 -6 -18 -54 -19 -69 -2 -6 8 -29 14 -50 14 -22 0 -48 6 -60
13 -17 10 -22 9 -35 -7 -20 -27 -18 -46 5 -46 21 0 76 -29 128 -68 26 -20 31
-28 23 -42 -6 -10 -10 -37 -10 -60 0 -22 -7 -54 -15 -71 l-16 -30 -62 33 c-34
18 -66 39 -70 46 -4 6 -15 12 -23 12 -8 0 -33 14 -56 30 -23 17 -61 36 -85 42
-32 8 -48 19 -64 44 -24 39 -39 36 -39 -6 0 -31 27 -58 79 -80 39 -16 76 -74
85 -132 8 -54 -13 -130 -70 -245 -25 -50 -43 -75 -58 -78 -88 -20 -116 -25
-148 -25 -20 0 -39 4 -43 9 -3 6 -27 13 -53 17 -26 4 -63 12 -82 19 -19 8 -48
16 -65 20 -16 3 -47 18 -69 31 -27 19 -41 23 -49 15 -16 -16 35 -65 86 -84 23
-9 93 -30 156 -47 105 -28 118 -30 162 -19 27 7 52 9 56 6 4 -4 -9 -24 -29
-44 -45 -44 -103 -53 -197 -29 -71 18 -177 21 -186 5 -4 -5 1 -19 10 -29 16
-18 16 -21 -10 -54 -30 -39 -52 -46 -63 -18 -18 41 -48 83 -65 88 -13 4 -17
12 -14 25 4 13 -4 26 -25 42 -68 51 -80 67 -73 95 3 15 10 58 15 95 5 37 17
94 26 125 9 31 18 89 19 129 3 85 9 97 45 90 15 -3 32 -1 39 6 9 9 20 7 46 -7
39 -21 42 -31 20 -63 -8 -12 -22 -65 -30 -119 -12 -83 -12 -101 0 -130 8 -19
21 -34 29 -34 12 0 15 18 15 98 0 108 19 181 70 261 16 25 35 64 42 86 7 22
23 49 35 60 13 11 24 29 26 40 2 14 12 21 33 23 17 2 35 10 42 19 7 9 20 13
32 10 22 -6 44 13 33 29 -4 5 -33 23 -65 38 -61 29 -77 52 -77 106 0 16 5 32
10 35 6 3 10 19 10 36 0 37 20 39 21 2 2 -69 6 -86 24 -99 32 -22 43 -32 47
-45 2 -7 11 -10 21 -6 23 9 22 64 0 90 -17 18 -17 19 1 32 24 18 40 10 57 -28
16 -36 54 -46 102 -28 49 19 56 94 11 111 -27 10 -30 20 -12 38 17 17 44 -3
52 -40 7 -34 41 -78 61 -78 20 0 49 39 51 70 2 36 11 50 30 50 8 0 22 16 31
35 16 33 16 38 0 83 -22 60 -15 80 29 88 19 3 34 12 34 18 0 16 21 36 37 36 7
0 32 -9 55 -19z m-663 -12 c-16 -10 -23 -4 -14 10 3 6 11 8 17 5 6 -4 5 -9 -3
-15z m371 -19 c0 -5 -2 -10 -4 -10 -3 0 -8 5 -11 10 -3 6 -1 10 4 10 6 0 11
-4 11 -10z m-280 -15 c16 -19 6 -45 -19 -45 -22 0 -34 33 -18 49 15 15 22 14
37 -4z m-412 -8 c10 -12 9 -35 -4 -120 -4 -26 -1 -51 11 -77 13 -29 16 -52 11
-86 -5 -40 -3 -52 19 -80 27 -36 32 -54 13 -54 -7 0 -60 29 -118 65 -58 35
-113 69 -122 75 -20 11 -13 25 99 203 55 86 71 99 91 74z m330 -55 c5 -30 -21
-28 -42 3 -21 33 -21 34 12 26 17 -5 28 -15 30 -29z m247 19 c-10 -33 16 -37
41 -6 16 20 27 26 40 21 18 -7 18 -8 -3 -24 -11 -9 -24 -27 -28 -39 -4 -15
-14 -23 -28 -23 -25 0 -34 6 -61 37 -15 19 -16 25 -6 38 19 23 53 20 45 -4z
m159 -36 c0 -63 -13 -81 -62 -91 -40 -8 -43 11 -7 54 14 17 30 44 36 61 18 50
34 38 33 -24z m1674 8 c11 -10 32 -26 46 -36 14 -10 26 -27 26 -38 0 -39 -53
-129 -145 -244 -18 -22 -17 -23 -88 69 -15 20 -34 36 -42 36 -18 0 -110 -58
-146 -92 -15 -14 -30 -39 -34 -56 -5 -27 -3 -33 17 -43 22 -10 64 -76 54 -86
-2 -3 -28 0 -58 5 -54 11 -199 20 -409 26 -67 2 -125 9 -139 16 l-24 13 26 22
c14 12 33 34 43 49 16 24 21 26 64 20 25 -3 52 -6 59 -5 81 5 193 1 215 -8 16
-6 46 -11 67 -11 40 0 34 -5 135 117 5 7 46 57 90 111 102 125 149 163 192
158 17 -3 40 -13 51 -23z m-2144 -18 c19 -35 19 -36 0 -49 -37 -28 -68 16 -48
68 10 26 28 18 48 -19z m-145 16 c17 -11 7 -41 -13 -41 -9 0 -16 -12 -18 -32
-2 -25 -8 -34 -24 -36 -29 -4 -38 32 -18 74 14 28 24 37 54 43 3 0 11 -3 19
-8z m-664 -34 c17 -12 50 -38 75 -59 62 -54 66 -56 97 -70 29 -13 199 -108
257 -143 70 -44 124 -74 186 -107 58 -31 65 -38 62 -62 -3 -22 5 -36 38 -66
l42 -39 -23 -33 c-34 -48 -37 -49 -87 -17 -25 16 -50 29 -54 29 -5 0 -14 5
-21 10 -7 6 -57 38 -112 71 -55 34 -121 75 -147 92 -25 18 -91 58 -145 90 -54
32 -123 75 -154 95 -180 118 -179 117 -132 190 37 56 57 60 118 19z m1052 11
c28 -26 29 -38 5 -38 -23 0 -42 19 -42 42 0 24 9 23 37 -4z m1617 -9 c14 -17
26 -34 26 -39 0 -9 -80 -109 -136 -170 -18 -19 -41 -45 -51 -58 -18 -22 -20
-22 -78 -9 -77 17 -80 34 -18 84 54 43 144 133 186 187 16 20 33 36 37 36 5 0
20 -14 34 -31z m-1697 -9 c1 -11 -6 -22 -17 -25 -10 -3 -21 -12 -24 -20 -7
-20 -35 -19 -43 2 -4 11 3 24 23 40 35 28 59 30 61 3z m1227 -32 c9 -12 16
-27 16 -33 0 -6 -27 -40 -60 -75 -33 -36 -60 -70 -60 -75 0 -6 -9 -16 -20 -22
-10 -7 -38 -38 -61 -69 -23 -31 -70 -86 -104 -123 -59 -62 -210 -234 -300
-341 -95 -114 -191 -226 -205 -240 -8 -8 -33 -37 -55 -64 -21 -26 -53 -63 -70
-80 -40 -42 -134 -151 -160 -185 -11 -15 -33 -42 -50 -60 -49 -55 -69 -77 -89
-102 -11 -13 -61 -69 -111 -124 -50 -55 -113 -127 -140 -160 -26 -33 -65 -78
-86 -99 -22 -22 -41 -48 -44 -57 -3 -9 -16 -24 -29 -33 -13 -8 -50 -48 -83
-88 -80 -98 -103 -126 -133 -158 -14 -15 -54 -60 -90 -101 -35 -41 -74 -83
-85 -95 -11 -11 -49 -54 -85 -94 -36 -41 -93 -103 -126 -139 -34 -36 -92 -102
-130 -145 -58 -67 -137 -157 -285 -322 -15 -18 -31 -33 -36 -35 -5 -2 -22 -22
-38 -44 -16 -22 -53 -67 -82 -101 -29 -34 -53 -71 -53 -83 0 -13 -6 -21 -17
-21 -22 0 -53 -29 -53 -51 0 -33 -12 -49 -36 -49 -13 0 -24 -4 -24 -10 0 -5
-6 -10 -12 -10 -7 0 -23 -15 -35 -33 -13 -17 -48 -59 -78 -91 -31 -33 -68 -76
-83 -95 -15 -20 -59 -72 -98 -116 -39 -44 -84 -100 -99 -125 -27 -43 -48 -44
-26 -1 6 11 11 27 11 35 0 16 51 88 95 136 13 14 47 52 76 85 28 33 82 94 119
135 37 41 88 102 113 135 25 33 62 78 82 100 20 22 80 91 133 154 53 62 131
150 172 196 95 104 206 227 256 285 21 25 62 70 90 100 89 96 264 297 348 398
21 26 58 70 82 97 75 85 78 89 119 140 68 84 117 143 181 215 20 23 96 115
121 147 29 38 75 94 93 114 8 9 24 28 36 40 12 13 56 65 99 114 43 50 89 99
102 110 12 11 23 25 23 31 0 5 34 43 76 84 120 117 125 123 138 155 21 48 125
162 154 169 50 10 80 46 86 101 3 27 11 54 18 60 7 5 29 31 48 58 19 26 46 60
59 75 64 71 260 298 287 332 75 93 150 170 166 170 9 0 24 -10 32 -22z m-1464
-18 c0 -5 -4 -10 -9 -10 -6 0 -13 5 -16 10 -3 6 1 10 9 10 9 0 16 -4 16 -10z
m-1643 -37 c37 -20 97 -44 133 -54 36 -10 97 -30 135 -45 39 -14 90 -30 115
-35 25 -5 90 -20 145 -33 55 -13 125 -29 155 -35 153 -30 220 -41 247 -41 16
0 37 -6 47 -13 16 -12 15 -15 -14 -52 -18 -22 -36 -51 -41 -64 -9 -21 -13 -23
-56 -16 -26 4 -70 15 -98 25 -27 10 -99 28 -160 40 -60 11 -139 29 -175 40
-111 33 -203 58 -240 65 -19 4 -47 14 -62 21 -22 12 -246 74 -265 74 -6 0 7
141 14 153 10 16 55 5 120 -30z m4535 -13 c51 -56 47 -104 -16 -174 -37 -43
-63 -45 -126 -13 -48 24 -68 61 -69 128 -1 48 25 79 75 90 63 13 106 3 136
-31z m-2602 -1 c0 -18 -2 -19 -15 -9 -8 7 -15 16 -15 21 0 5 7 9 15 9 9 0 15
-9 15 -21z m-330 -9 c0 -5 -4 -10 -10 -10 -5 0 -10 5 -10 10 0 6 5 10 10 10 6
0 10 -4 10 -10z m1620 -29 l45 -39 -43 -42 c-43 -40 -44 -41 -107 -36 -73 5
-89 11 -78 31 19 33 109 125 123 125 8 -1 35 -18 60 -39z m-1160 -27 c0 -22
-40 -27 -61 -8 -22 19 -25 50 -6 57 15 5 67 -33 67 -49z m-342 15 c-4 -43 -34
-61 -54 -35 -20 27 -18 41 9 54 39 19 49 15 45 -19z m-130 -1 c7 -7 12 -25 12
-40 0 -21 -5 -28 -19 -28 -22 0 -35 30 -26 60 7 23 16 25 33 8z m1037 -39 c9
-27 -8 -45 -24 -26 -12 15 -5 47 9 47 5 0 12 -9 15 -21z m1062 -72 c18 -23 35
-51 39 -62 4 -11 33 -45 64 -75 30 -30 93 -111 139 -180 46 -69 91 -132 100
-141 9 -9 27 -32 41 -50 23 -30 51 -62 137 -154 43 -47 75 -96 69 -110 -2 -7
-25 -27 -50 -45 l-46 -31 -28 32 c-15 18 -34 42 -42 55 -24 35 -73 97 -100
126 -77 81 -166 181 -169 191 -6 16 -137 186 -175 227 -18 19 -47 46 -64 59
-18 13 -32 29 -32 36 0 7 -9 20 -20 30 -11 10 -20 24 -20 30 0 29 84 105 115
105 6 0 24 -20 42 -43z m603 3 c11 -22 38 -51 60 -65 22 -14 40 -30 40 -36 0
-13 -71 -108 -105 -139 -15 -14 -36 -42 -46 -62 -11 -21 -32 -44 -47 -52 -35
-19 -92 -72 -92 -85 0 -6 -6 -11 -12 -10 -16 0 -78 84 -78 103 0 8 -3 16 -7
18 -11 4 -67 78 -82 107 -12 21 -10 26 20 57 18 19 65 53 104 76 38 23 81 48
94 57 37 25 115 70 123 70 4 1 17 -17 28 -39z m-2654 -21 c-3 -17 -6 -40 -6
-49 0 -23 -36 -15 -50 11 -8 14 -4 23 17 44 37 33 47 32 39 -6z m88 9 c12 -47
8 -60 -21 -56 -34 4 -42 32 -17 59 22 25 30 24 38 -3z m-629 -78 c4 -6 22 -17
42 -25 20 -8 52 -30 72 -48 20 -17 66 -52 104 -76 37 -25 67 -48 67 -52 0 -3
-11 -23 -25 -43 -14 -21 -34 -55 -45 -77 -11 -21 -25 -39 -30 -39 -5 0 -11 -8
-14 -17 -4 -10 -14 -29 -24 -41 -16 -21 -20 -22 -33 -9 -8 8 -28 22 -44 31
-106 59 -225 140 -225 154 0 21 60 5 91 -24 28 -27 69 -32 69 -9 0 16 -55 54
-113 78 -19 8 -38 20 -41 26 -10 15 22 71 74 130 45 50 63 60 75 41z m-837
-11 c17 -6 93 -25 169 -42 134 -31 138 -33 141 -60 2 -15 -9 -65 -23 -110 -54
-165 -46 -152 -95 -155 -91 -7 -273 39 -268 67 3 13 16 16 61 14 54 -2 58 -1
55 19 -4 26 -48 41 -96 33 l-34 -6 5 63 c8 96 28 188 42 188 7 0 26 -5 43 -11z
m1460 -47 c2 -23 -2 -34 -14 -39 -24 -9 -49 11 -46 38 6 50 55 51 60 1z m1172
-29 c9 -10 25 -35 38 -56 l22 -38 -45 -59 c-25 -33 -50 -62 -56 -65 -5 -4 -80
-85 -167 -182 -277 -308 -294 -327 -341 -378 -26 -27 -91 -99 -145 -160 -55
-60 -119 -131 -143 -158 -23 -26 -43 -51 -43 -55 0 -4 -35 -43 -78 -88 -42
-44 -106 -113 -142 -153 -36 -40 -97 -107 -136 -149 -39 -43 -133 -147 -209
-232 -76 -85 -145 -162 -154 -170 -20 -18 -111 -117 -206 -224 -38 -43 -92
-102 -120 -131 -27 -29 -86 -93 -130 -141 -44 -49 -120 -130 -170 -182 -49
-51 -94 -101 -99 -110 -10 -19 -107 -112 -118 -112 -4 0 -13 -6 -20 -12 -27
-25 -81 -49 -90 -40 -9 9 110 151 306 368 56 61 118 131 140 155 21 24 66 73
100 109 33 36 93 101 132 145 38 44 99 111 134 148 35 38 71 78 79 90 8 12 40
49 72 82 32 33 68 74 81 90 32 42 137 167 158 187 10 9 39 44 65 77 26 34 51
61 56 61 4 0 23 21 41 48 38 52 152 187 231 274 29 31 59 64 67 74 8 10 57 65
109 123 51 58 125 144 164 191 39 47 92 108 117 135 82 92 158 179 229 265
149 177 246 290 251 290 3 0 12 -8 20 -17z m-2199 -24 c29 -6 70 -20 93 -30
23 -10 53 -19 68 -19 40 0 50 -27 32 -81 -9 -24 -20 -49 -26 -56 -5 -7 -68
-128 -140 -270 -121 -240 -315 -620 -466 -913 -35 -69 -71 -138 -79 -153 -21
-41 -26 -27 -10 24 19 59 57 189 63 214 6 24 52 175 105 340 31 97 106 352
184 620 6 22 18 56 27 75 19 41 57 159 64 197 5 27 22 63 29 63 2 0 27 -5 56
-11z m2744 -21 c33 -5 88 -11 122 -13 68 -4 111 -30 99 -60 -5 -14 -14 -16
-59 -9 -28 4 -72 8 -97 8 -44 1 -45 0 -45 -30 0 -33 -40 -86 -88 -117 -17 -11
-27 -26 -27 -41 0 -36 -23 -49 -75 -42 -24 4 -47 11 -50 17 -4 5 -19 9 -34 9
-40 0 -131 31 -131 44 0 6 9 17 20 24 16 10 27 9 60 -4 74 -30 97 3 25 35 -25
11 -45 22 -45 25 0 13 66 79 89 87 17 7 21 13 14 20 -18 18 -125 39 -167 32
-38 -6 -62 9 -49 31 7 11 351 -1 438 -16z m2092 -10 c-3 -8 -6 -5 -6 6 -1 11
2 17 5 13 3 -3 4 -12 1 -19z m-3046 -29 c25 -18 40 -49 23 -49 -12 0 -72 55
-68 62 7 12 13 10 45 -13z m613 -15 c25 -10 20 -22 -44 -96 -33 -38 -60 -77
-60 -86 0 -16 -68 -98 -160 -193 -25 -26 -61 -63 -80 -83 -19 -20 -38 -36 -43
-36 -4 0 -24 16 -43 36 -33 36 -34 37 -17 65 10 16 23 29 30 29 7 0 13 4 13 9
0 4 15 24 33 43 30 33 68 77 183 208 90 104 83 98 161 109 6 0 18 -2 27 -5z
m2433 -36 c-3 -7 -5 -2 -5 12 0 14 2 19 5 13 2 -7 2 -19 0 -25z m-4082 -8 c3
-5 1 -10 -4 -10 -6 0 -11 5 -11 10 0 6 2 10 4 10 3 0 8 -4 11 -10z m2123 -30
c19 0 14 -28 -8 -40 -11 -6 -42 -37 -69 -70 -47 -56 -49 -62 -39 -90 6 -17 9
-32 7 -33 -27 -15 -77 -56 -374 -305 -11 -9 -47 -39 -80 -66 -33 -27 -71 -60
-84 -73 -18 -18 -27 -21 -37 -12 -8 6 -14 16 -14 21 0 15 443 454 474 469 16
8 37 28 46 46 9 17 40 57 68 88 29 31 52 61 52 67 0 6 10 8 23 4 12 -3 28 -6
35 -6z m198 -73 c28 -41 74 -101 102 -132 29 -31 52 -64 52 -74 0 -22 -61 -72
-124 -101 -37 -18 -49 -20 -61 -10 -8 7 -15 18 -15 26 0 7 -9 18 -20 24 -11 6
-20 16 -20 23 0 7 -15 35 -34 63 -19 28 -46 75 -60 105 l-26 54 37 33 c50 43
96 73 108 69 5 -2 32 -38 61 -80z m-2802 10 c50 -28 65 -51 50 -74 -15 -25
-158 -281 -176 -318 -21 -41 -114 -207 -217 -388 -13 -23 -50 -91 -81 -152
-83 -161 -145 -275 -169 -315 -12 -19 -28 -51 -37 -70 -9 -19 -22 -42 -29 -50
-6 -8 -41 -71 -77 -140 -36 -69 -80 -152 -98 -185 -63 -115 -135 -251 -227
-430 -120 -234 -135 -261 -200 -377 -53 -94 -57 -98 -89 -98 -42 0 -43 11 -5
81 35 67 263 514 511 1004 191 377 305 598 368 715 40 75 341 664 387 757 16
35 35 63 40 63 6 0 28 -10 49 -23z m406 -77 c0 -32 -5 -71 -11 -87 -10 -27
-38 -215 -39 -259 0 -12 11 -38 25 -58 l25 -36 -20 -20 c-16 -16 -18 -25 -10
-40 20 -38 42 -33 60 14 10 27 12 28 26 14 14 -14 14 -20 0 -59 -33 -96 -64
-163 -101 -220 -84 -132 -98 -224 -45 -298 29 -40 32 -41 73 -35 51 9 87 30
87 53 0 9 22 38 49 65 61 60 111 176 111 256 0 27 45 115 82 161 27 34 33 36
61 28 17 -5 35 -13 41 -19 5 -5 29 -10 52 -10 75 0 72 -9 -58 -151 -40 -44
-97 -105 -125 -136 -29 -31 -53 -62 -53 -69 0 -7 -8 -19 -19 -26 -10 -7 -43
-44 -74 -83 -30 -38 -71 -88 -91 -110 -19 -22 -46 -53 -58 -70 -12 -16 -39
-50 -61 -75 -21 -25 -47 -54 -56 -65 -10 -11 -44 -51 -76 -90 -32 -38 -75 -86
-96 -105 -22 -20 -39 -40 -39 -45 -1 -21 -258 -305 -277 -305 -20 0 -16 14 17
55 36 46 42 100 10 90 -17 -5 -20 -2 -20 22 1 15 7 39 15 53 8 14 14 51 15 83
0 49 -4 62 -26 84 -25 25 -26 29 -16 77 5 28 10 82 11 120 1 39 4 73 7 77 2 4
9 65 15 135 6 71 14 134 19 139 4 6 10 46 14 90 5 62 14 95 42 155 20 41 43
83 51 92 13 14 147 250 200 351 8 15 24 33 34 40 10 6 19 17 19 23 0 6 9 19
20 29 11 10 20 23 20 30 0 25 32 76 45 71 17 -6 55 21 55 40 0 21 51 95 61 88
5 -3 9 -32 9 -64z m-1087 0 c5 -4 4 -16 -1 -26 -9 -18 -26 -80 -88 -324 -13
-52 -34 -126 -45 -165 -11 -38 -24 -86 -29 -105 -20 -79 -42 -157 -51 -185
-16 -46 -25 -82 -44 -170 -9 -44 -21 -88 -26 -97 -5 -10 -13 -39 -19 -65 -6
-26 -23 -88 -39 -138 -15 -49 -33 -115 -40 -145 -7 -30 -22 -84 -33 -120 -36
-119 -58 -194 -83 -290 -15 -52 -39 -138 -55 -190 -16 -52 -34 -116 -40 -142
-5 -26 -33 -93 -62 -148 -49 -97 -68 -124 -68 -100 0 14 69 288 115 460 19 69
61 231 94 360 33 129 78 305 101 390 22 85 51 207 65 270 14 63 30 126 35 140
5 14 12 36 14 50 3 14 19 79 36 145 18 66 40 154 50 195 35 143 90 355 101
388 11 34 12 34 58 27 25 -4 50 -10 54 -15z m4315 -34 c38 -58 44 -122 13
-150 -24 -21 -80 -35 -115 -29 -41 8 -116 80 -116 111 0 40 35 90 67 98 15 3
39 10 53 14 44 15 64 7 98 -44z m-3468 8 l50 -36 -27 -46 c-15 -26 -39 -66
-55 -89 -16 -23 -32 -50 -36 -60 -6 -16 -44 -81 -130 -221 -12 -20 -33 -57
-47 -82 -14 -25 -39 -67 -55 -95 -17 -27 -39 -68 -51 -90 -75 -145 -100 -183
-126 -190 -13 -3 -23 -12 -23 -21 0 -9 -14 -50 -31 -92 -27 -69 -46 -105 -139
-266 -14 -24 -50 -90 -81 -147 -70 -131 -219 -390 -259 -449 -16 -25 -45 -77
-63 -115 -40 -82 -138 -246 -176 -292 -52 -65 -151 -165 -151 -153 0 7 17 45
39 84 94 174 117 217 163 306 26 52 64 122 83 155 19 33 52 92 72 130 21 39
43 79 50 90 7 11 17 31 24 45 6 14 15 32 20 40 4 8 43 78 86 155 43 77 85 152
93 167 8 15 39 72 67 127 29 56 90 170 136 254 46 83 115 211 152 282 37 72
75 141 85 155 9 14 51 90 92 170 42 80 92 174 112 210 20 36 42 75 48 88 6 12
15 22 20 22 4 0 30 -16 58 -36z m2424 -14 c14 -22 26 -42 26 -45 0 -4 11 -21
25 -39 14 -18 25 -36 25 -41 0 -17 56 -95 73 -101 9 -3 17 -12 17 -21 0 -12
-6 -14 -27 -8 -30 7 -70 50 -118 125 -16 26 -42 66 -58 89 -22 33 -25 45 -17
61 15 28 24 25 54 -20z m-3095 15 c7 -3 11 -13 8 -23 -2 -9 -27 -91 -55 -182
-28 -91 -60 -199 -71 -240 -11 -41 -33 -115 -49 -165 -31 -94 -55 -174 -116
-385 -20 -69 -52 -174 -70 -235 -55 -179 -66 -217 -66 -231 0 -11 -234 -488
-246 -503 -13 -15 -10 13 6 69 10 36 35 121 55 190 20 69 47 166 60 215 13 50
42 158 64 240 22 83 44 162 50 177 5 14 19 66 31 115 11 48 34 131 50 184 17
53 30 103 30 111 0 9 11 49 24 89 23 71 110 388 120 439 8 39 33 127 39 137 6
9 110 7 136 -2z m2624 -5 c9 -8 -59 -82 -313 -343 -284 -293 -254 -260 -453
-482 -55 -60 -170 -184 -256 -274 -86 -91 -190 -201 -231 -245 -315 -335 -629
-648 -645 -642 -36 13 -7 54 153 215 42 43 101 105 130 137 30 32 99 106 155
164 56 58 143 150 192 205 50 54 113 122 140 150 28 28 79 85 115 125 36 41
101 111 145 155 44 45 141 147 215 226 74 79 155 164 180 188 24 25 62 65 84
90 21 26 71 80 110 122 39 42 103 110 141 152 64 70 73 76 100 71 17 -3 34
-10 38 -14z m-772 0 c25 -14 24 -28 -3 -57 -31 -33 -38 -29 -38 22 0 46 7 53
41 35z m884 -34 c19 -8 35 -21 35 -27 0 -7 -62 -74 -137 -150 -76 -75 -208
-210 -293 -299 -85 -90 -221 -230 -302 -312 -82 -82 -148 -152 -148 -156 0 -4
-22 -28 -48 -54 -26 -26 -108 -109 -182 -185 -497 -504 -816 -818 -1232 -1215
-10 -10 -18 -22 -18 -28 0 -5 -13 -10 -30 -10 -41 0 -38 16 14 69 24 25 88 93
142 151 55 57 140 145 189 195 267 271 707 729 923 960 321 346 314 338 577
607 110 112 258 263 328 336 70 72 132 132 138 132 5 0 25 -7 44 -14z m301
-74 c15 -10 74 -99 74 -111 0 -5 -6 -14 -14 -18 -16 -9 -74 -56 -159 -128 -33
-27 -72 -59 -87 -70 -15 -11 -72 -59 -126 -107 -54 -48 -119 -101 -144 -119
-25 -18 -65 -50 -89 -71 -24 -21 -50 -38 -58 -38 -7 0 -21 -13 -31 -28 -18
-29 -60 -69 -147 -137 -27 -22 -57 -46 -65 -55 -8 -8 -33 -28 -55 -44 -54 -40
-125 -100 -194 -166 -88 -84 -153 -142 -196 -175 -44 -35 -90 -73 -154 -131
-26 -22 -84 -71 -131 -108 -47 -38 -112 -92 -145 -122 -33 -29 -89 -77 -125
-107 -88 -73 -113 -95 -174 -147 -29 -25 -63 -54 -77 -65 -98 -80 -186 -154
-213 -177 -30 -28 -46 -35 -46 -21 0 4 159 165 353 359 193 193 454 454 578
580 125 126 259 256 299 289 40 33 76 70 81 82 4 12 24 29 44 37 19 8 59 37
88 63 28 27 74 67 102 88 27 22 93 82 145 134 52 51 109 99 127 107 17 7 51
31 75 51 192 165 436 363 447 363 3 0 11 -4 17 -8z m-5414 -28 c-7 -12 -11
-13 -17 -4 -4 7 -2 16 6 21 18 11 23 4 11 -17z m4128 -29 c0 -8 -7 -15 -15
-15 -8 0 -15 7 -15 15 0 8 7 15 15 15 8 0 15 -7 15 -15z m3330 0 c0 -8 -4 -15
-10 -15 -5 0 -10 7 -10 15 0 8 5 15 10 15 6 0 10 -7 10 -15z m-1021 -69 c49
-1 51 -3 77 -86 24 -76 60 -353 66 -509 l3 -84 -142 -5 -142 -4 -7 26 c-3 14
-6 36 -7 48 -1 55 25 396 33 428 5 19 12 67 16 105 7 76 18 100 43 89 9 -4 36
-8 60 -8z m-1872 -55 c14 -16 13 -18 -201 -245 -72 -76 -147 -157 -166 -179
-19 -23 -50 -55 -67 -71 -18 -17 -40 -38 -48 -46 -9 -8 -30 -33 -46 -55 -35
-46 -111 -128 -283 -305 -66 -70 -204 -213 -306 -320 -102 -107 -231 -242
-288 -301 -56 -58 -109 -115 -116 -125 -13 -16 -17 -17 -40 -5 -14 8 -26 19
-26 25 0 6 41 54 91 106 50 52 146 156 213 231 67 74 166 185 221 246 170 187
240 265 315 353 108 126 181 209 219 249 19 20 122 133 230 251 243 267 229
255 261 227 14 -12 31 -28 37 -36z m1084 -67 c29 -30 34 -42 33 -79 -1 -54
-37 -112 -76 -120 -65 -15 -168 45 -168 97 0 75 45 137 89 123 11 -3 29 -2 38
4 30 18 48 12 84 -25z m-267 -84 c0 -66 -2 -71 -31 -92 -18 -13 -64 -50 -104
-83 -39 -33 -89 -73 -110 -90 -36 -29 -86 -69 -174 -143 -22 -18 -45 -36 -50
-40 -19 -13 -160 -136 -182 -159 -12 -13 -26 -23 -30 -23 -4 0 -24 -14 -43
-31 -19 -17 -60 -49 -90 -72 -30 -23 -84 -66 -120 -97 -36 -31 -90 -75 -120
-97 -76 -57 -146 -113 -179 -143 -16 -14 -57 -50 -92 -80 -35 -30 -82 -71
-104 -92 -22 -21 -64 -55 -94 -75 -30 -21 -73 -56 -96 -78 -63 -61 -161 -143
-229 -194 -33 -25 -95 -75 -138 -111 -42 -36 -120 -97 -175 -137 -54 -39 -138
-106 -186 -147 -84 -72 -127 -103 -127 -92 0 3 -11 1 -25 -4 -41 -16 -38 6 7
47 23 21 74 67 113 103 38 36 88 79 110 95 22 16 76 61 120 100 44 39 96 82
115 97 19 14 46 36 60 50 14 13 48 42 76 64 93 73 224 187 224 196 0 5 8 12
18 15 9 4 46 32 82 62 35 31 69 59 75 63 38 28 327 273 438 373 49 44 117 103
151 130 34 28 71 59 83 70 11 11 49 43 83 70 34 28 106 88 159 135 54 47 128
110 165 140 37 30 78 64 91 75 12 11 55 47 95 80 40 33 105 88 144 122 39 34
76 62 81 62 6 1 10 -28 9 -69z m-1964 -125 c0 -20 -5 -25 -25 -25 -26 0 -32
19 -19 54 9 24 44 1 44 -29z m2010 10 c10 -13 10 -19 -4 -34 -22 -24 -44 -231
-51 -472 -3 -103 -10 -188 -16 -203 -15 -33 -54 -44 -159 -46 -99 -2 -92 -3
-150 6 -36 5 -50 2 -69 -13 -30 -24 -37 -102 -13 -153 l17 -35 158 -1 c86 0
159 -3 161 -5 3 -2 9 -54 14 -114 7 -88 6 -116 -5 -138 -18 -35 -9 -78 22
-115 21 -26 24 -40 31 -207 11 -215 10 -223 -14 -245 -15 -14 -18 -26 -13 -57
5 -27 11 -37 23 -35 14 2 16 -22 17 -205 1 -115 2 -215 3 -223 1 -8 0 -70 0
-138 -2 -104 -5 -124 -18 -129 -10 -4 -22 1 -30 12 -12 16 -16 16 -51 2 -36
-14 -40 -14 -61 4 -30 23 -52 14 -52 -21 0 -34 15 -47 35 -30 10 9 19 9 36 0
13 -7 38 -9 63 -6 79 12 82 7 90 -171 l4 -102 -46 -49 c-54 -57 -120 -149
-150 -207 -11 -22 -30 -49 -42 -60 -12 -10 -42 -56 -66 -102 -25 -46 -62 -96
-81 -112 -32 -26 -36 -36 -38 -78 -1 -26 -8 -70 -15 -97 -15 -58 -11 -63 79
-97 40 -15 61 -18 76 -11 45 22 58 22 71 4 7 -11 31 -22 54 -26 22 -3 40 -8
40 -11 0 -15 -45 -75 -56 -75 -8 0 -14 -10 -14 -25 0 -25 -1 -25 -30 -10 -38
20 -53 19 -74 -4 -10 -11 -25 -17 -33 -14 -11 4 -4 17 29 50 33 34 48 43 66
38 31 -8 28 9 -5 24 -24 11 -29 9 -70 -31 -42 -41 -45 -42 -58 -24 -10 14 -21
17 -41 12 -25 -7 -26 -5 -22 26 3 18 8 41 13 51 5 13 2 17 -13 17 -20 0 -42
-42 -42 -79 0 -9 -7 -29 -15 -45 -8 -15 -15 -36 -15 -45 0 -9 -12 -49 -26 -88
-28 -78 -36 -83 -91 -62 -72 27 -113 28 -170 2 -30 -14 -56 -23 -58 -22 -2 2
-6 16 -10 30 -5 22 0 31 34 58 24 19 41 41 41 53 0 11 11 33 25 50 40 48 34
79 -27 126 -29 21 -66 58 -83 81 -16 23 -40 54 -53 69 -12 15 -31 51 -42 80
-11 30 -27 67 -35 83 -18 34 -30 87 -51 219 -20 131 -22 140 -39 140 -12 0
-13 4 -3 19 14 24 -6 246 -26 277 -11 16 -12 32 -4 74 11 59 7 120 -12 220 -6
36 -23 124 -37 195 -13 72 -26 162 -28 201 -3 69 -2 72 26 93 15 11 40 21 54
21 72 0 170 85 217 188 35 76 68 198 68 249 0 19 15 81 34 136 36 110 76 241
107 349 12 43 18 94 17 145 -2 105 7 191 29 292 17 81 20 84 70 125 201 160
550 443 561 453 17 17 27 16 42 -2z m-680 -17 c0 -7 -47 -52 -105 -101 -58
-48 -105 -84 -105 -80 0 13 184 193 197 193 7 0 13 -6 13 -12z m861 -49 c9 -5
19 -25 23 -46 3 -21 13 -83 22 -138 9 -55 18 -111 20 -125 15 -88 24 -224 19
-278 -8 -78 -11 -79 -155 -78 l-105 1 -7 95 c-10 123 -2 305 18 450 8 63 17
121 20 128 3 10 19 11 66 6 35 -4 70 -10 79 -15z m-2151 -18 c14 -27 13 -47
-5 -65 -21 -21 -41 -11 -54 26 -8 22 -8 35 0 44 16 20 47 17 59 -5z m-100 -72
c0 -16 -55 -47 -65 -37 -6 6 19 69 31 81 10 10 34 -21 34 -44z m44 -75 c12
-32 5 -39 -46 -52 -41 -9 -53 -9 -60 1 -16 24 -2 42 42 54 60 15 57 15 64 -3z
m-148 -93 c-11 -18 -36 -13 -36 7 0 10 3 22 7 26 10 10 37 -20 29 -33z m112
-13 c-6 -18 -28 -21 -28 -4 0 9 7 16 16 16 9 0 14 -5 12 -12z m-698 -12 c0
-15 -18 -31 -26 -23 -7 7 7 37 17 37 5 0 9 -6 9 -14z m622 -33 c10 -9 18 -27
18 -40 0 -20 -5 -23 -35 -23 -28 0 -38 5 -47 26 -11 22 -10 28 7 40 24 18 34
18 57 -3z m3661 -5 c33 1 47 -22 47 -77 0 -29 -5 -43 -18 -50 -16 -8 -92 -21
-142 -23 -175 -8 -623 -20 -773 -21 -223 -2 -217 -5 -217 75 0 35 5 50 18 56
9 5 105 13 212 16 286 11 425 16 615 25 94 4 184 6 200 3 17 -3 42 -4 58 -4z
m-4308 -62 c-7 -36 -13 -129 -18 -281 -2 -60 -12 -156 -22 -213 -16 -97 -16
-106 0 -175 21 -90 19 -112 -9 -91 -17 12 -18 17 -8 39 11 24 9 29 -20 53 -69
58 -84 64 -95 36 -3 -9 3 -21 16 -30 26 -19 27 -30 1 -37 -23 -6 -27 -37 -5
-37 19 0 82 -56 73 -66 -8 -8 -57 21 -75 45 -9 12 -16 13 -29 5 -26 -15 -28
-31 -5 -39 26 -8 131 -93 131 -106 0 -18 -30 -9 -62 20 -38 33 -118 52 -118
29 0 -8 23 -25 50 -38 61 -28 74 -42 65 -70 -8 -26 -41 -26 -55 0 -12 22 -50
27 -50 7 0 -7 7 -22 15 -33 16 -21 20 -54 7 -54 -5 0 -28 23 -51 50 -29 35
-50 50 -67 50 -37 0 -29 -22 26 -76 30 -29 50 -57 50 -71 0 -38 -15 -33 -55
18 -40 49 -71 62 -82 33 -3 -9 6 -27 26 -46 34 -34 46 -75 13 -45 -10 10 -28
17 -40 17 -25 0 -30 -25 -8 -33 22 -9 49 -55 42 -72 -5 -13 -9 -13 -26 -3 -32
20 -48 -4 -25 -38 14 -22 15 -31 5 -53 l-12 -26 -19 37 c-26 50 -83 106 -117
114 -15 4 -38 15 -51 26 -13 10 -32 18 -42 18 -23 0 -24 8 -2 32 9 10 29 18
44 18 32 0 48 17 25 26 -9 3 -22 20 -31 36 -13 27 -13 33 2 58 9 16 28 31 42
34 14 3 39 17 55 32 l29 26 -26 21 -27 22 45 70 c24 39 49 81 55 95 20 50 39
75 59 80 27 7 169 169 179 205 17 58 -9 76 -32 23 -18 -44 -73 -118 -87 -118
-10 0 49 117 76 150 7 8 25 40 41 70 15 30 51 93 80 140 28 47 61 104 73 128
19 37 24 42 37 31 11 -9 14 -22 9 -43z m2048 -203 c-13 -327 -14 -330 -119
-656 -37 -113 -43 -141 -33 -158 8 -16 8 -28 -2 -48 -13 -28 -51 -129 -74
-199 -8 -24 -25 -52 -37 -63 -38 -33 -120 -68 -168 -71 -49 -3 -60 -11 -60
-44 0 -29 -28 -39 -50 -19 -24 22 -78 11 -128 -24 -70 -51 -103 -63 -135 -50
-25 11 -31 9 -55 -13 -39 -36 -70 -51 -97 -44 -28 7 -42 -9 -25 -29 14 -16 5
-35 -16 -35 -8 0 -14 9 -14 19 0 28 -29 35 -48 12 -22 -26 -85 -51 -103 -41
-8 5 -34 7 -59 7 -35 -2 -47 -7 -56 -24 -6 -13 -17 -31 -25 -40 -8 -10 -21
-31 -29 -47 l-15 -29 -11 67 c-6 39 -19 76 -30 89 -11 12 -29 39 -40 60 -28
56 -58 83 -109 97 -66 18 -73 33 -32 64 19 14 36 26 40 26 3 0 40 20 82 45 68
40 80 44 118 39 23 -4 44 -10 47 -14 3 -4 29 -28 58 -53 51 -45 72 -57 72 -39
0 18 -87 101 -122 117 -29 13 -38 23 -38 41 0 23 8 28 40 25 25 -3 117 -51
136 -72 9 -10 21 -19 26 -19 17 0 7 28 -22 55 -16 16 -30 35 -30 42 0 7 17 24
38 37 22 13 65 47 97 75 32 28 62 52 67 52 4 1 14 2 20 3 7 0 19 14 26 30 12
24 12 33 -3 66 -16 35 -16 40 0 69 9 19 31 39 51 47 22 9 34 21 34 33 0 11 12
29 28 40 40 29 136 109 196 162 28 25 128 107 221 181 94 75 217 176 275 226
58 49 108 88 111 86 3 -2 4 -38 2 -81z m1947 67 c7 -4 10 -44 8 -111 l-3 -104
-60 -5 c-65 -6 -85 -14 -85 -35 0 -21 39 -40 53 -26 13 13 74 15 82 2 15 -26
-27 -31 -265 -35 -25 0 -54 3 -64 7 -19 7 -19 8 2 23 15 10 33 13 57 8 28 -5
36 -3 42 11 9 26 -31 55 -77 55 -21 0 -43 6 -49 14 -6 7 -13 52 -15 99 -5 98
-8 95 83 96 30 0 56 3 59 5 7 7 220 4 232 -4z m-510 -190 c11 -18 13 -87 3
-93 -10 -6 -333 -25 -553 -32 -607 -21 -574 -23 -586 41 -11 61 4 68 166 70
77 2 144 5 150 9 6 4 75 7 153 7 78 0 174 3 212 7 39 3 155 6 258 6 156 0 189
-3 197 -15z m-419 -202 c3 -20 3 -68 0 -105 l-6 -68 -55 -5 c-47 -4 -55 -8
-58 -27 -2 -16 4 -24 31 -32 19 -7 47 -9 62 -5 25 6 26 4 23 -22 -2 -22 -9
-30 -28 -33 -14 -1 -28 -8 -32 -15 -8 -12 -2 -895 7 -1041 7 -112 7 -94 6
-255 -1 -74 1 -187 3 -250 17 -461 25 -2210 13 -2615 -8 -241 -12 -278 -31
-272 -8 3 -11 133 -13 468 -3 898 -13 1568 -27 1864 -3 66 -9 282 -12 480 -3
198 -7 394 -9 435 -12 345 -19 586 -19 645 1 39 2 129 3 200 3 268 2 293 -10
301 -7 4 -18 -1 -26 -12 -13 -16 -14 -63 -9 -289 3 -148 8 -439 11 -645 3
-206 8 -418 12 -470 4 -52 5 -99 4 -105 -2 -5 2 -165 8 -355 14 -440 20 -793
26 -1510 3 -316 6 -594 7 -617 1 -28 -5 -49 -15 -61 -12 -13 -14 -21 -6 -29
13 -13 20 -143 12 -241 l-6 -73 -41 3 -41 3 -1 400 c-1 401 -10 1055 -19 1365
-9 356 -16 558 -20 615 -7 102 -15 395 -20 745 -5 331 -12 586 -20 770 -10
204 -7 502 4 513 6 6 50 13 98 14 60 3 92 8 102 18 28 28 -2 40 -95 38 -54 -2
-83 1 -79 7 3 6 15 10 25 10 25 0 35 17 20 35 -8 9 -30 15 -56 15 -53 0 -63
16 -59 100 2 30 3 74 4 98 l1 42 73 1 c39 0 95 4 122 7 28 4 68 5 90 2 37 -5
40 -8 46 -42z m865 -1240 c8 -2256 8 -2447 0 -2843 -9 -495 -14 -622 -21 -646
-7 -21 -30 -25 -41 -8 -4 6 -8 284 -10 618 -3 726 -14 1629 -20 1726 -6 106
-14 474 -19 925 -2 222 -7 530 -11 685 -3 154 -8 388 -9 520 -2 132 -3 246 -4
253 -1 6 -10 12 -21 12 -11 0 -20 -6 -21 -12 -2 -40 3 -611 7 -648 2 -25 6
-243 9 -485 2 -242 7 -512 10 -600 20 -611 23 -843 30 -1970 3 -495 2 -929 -2
-965 -8 -61 -10 -65 -35 -68 -22 -3 -28 2 -32 20 -3 13 -8 358 -10 768 -3 410
-8 817 -10 905 -3 88 -8 266 -11 395 -3 129 -10 334 -16 455 -5 121 -10 229
-10 240 2 80 -1 499 -4 580 -14 390 -18 583 -19 970 l-1 439 123 2 c68 2 126
5 130 8 3 3 7 4 9 2 3 -2 6 -577 9 -1278z m-3904 1199 c5 -65 -4 -78 -34 -51
-16 15 -19 27 -15 57 6 41 26 73 37 60 4 -4 10 -34 12 -66z m-62 -262 c0 -8
-4 -15 -9 -15 -13 0 -22 16 -14 24 11 11 23 6 23 -9z m1100 -135 c0 -26 -37
-63 -57 -56 -8 3 -20 6 -26 6 -13 1 63 70 76 70 4 0 7 -9 7 -20z m-760 -45 c0
-20 -13 -25 -43 -17 -26 7 -27 8 -12 30 13 18 20 20 36 12 10 -6 19 -17 19
-25z m120 -19 c0 -18 -39 -31 -52 -18 -15 15 0 32 28 32 14 0 24 -6 24 -14z
m566 -37 c3 -6 -2 -20 -13 -31 -16 -15 -27 -18 -57 -13 -48 10 -46 37 4 46 55
10 58 10 66 -2z m-776 -3 c0 -2 3 -11 6 -20 5 -13 -1 -16 -25 -16 -33 0 -39 8
-19 28 11 11 38 17 38 8z m133 -22 c3 -3 1 -15 -6 -25 -21 -33 -67 -19 -53 16
5 15 47 21 59 9z m-205 -77 c8 -9 2 -21 -19 -45 -37 -41 -50 -41 -42 1 10 53
37 73 61 44z m727 2 c10 -16 -26 -38 -62 -39 -34 0 -43 16 -21 38 15 15 74 16
83 1z m-599 -10 c4 -6 -8 -26 -27 -43 -19 -18 -78 -78 -131 -134 -54 -56 -102
-102 -107 -102 -5 0 -13 6 -19 13 -9 10 18 43 114 145 119 125 152 149 170
121z m-872 -34 c56 -24 116 -82 116 -114 0 -15 8 -31 20 -39 27 -16 25 -34 -6
-71 -37 -44 -48 -40 -40 17 5 42 3 51 -23 83 -44 53 -107 81 -172 77 -65 -4
-74 17 -19 44 44 21 78 22 124 3z m626 -49 c0 -19 -36 -96 -54 -116 -13 -14
-26 -33 -29 -42 -5 -14 -11 -16 -29 -9 -37 13 -31 32 27 95 30 32 55 62 55 67
0 5 7 9 15 9 8 0 15 -2 15 -4z m365 -26 c-10 -11 -21 -18 -23 -15 -3 3 3 12
14 20 27 20 30 18 9 -5z m-1130 -46 c13 -8 31 -27 40 -41 16 -23 15 -25 -2
-38 -15 -11 -16 -18 -7 -42 14 -38 2 -68 -33 -80 -15 -6 -59 -32 -98 -58 -64
-43 -74 -46 -110 -40 -22 4 -53 9 -70 11 -16 2 -48 6 -70 10 -36 5 -44 2 -70
-24 -36 -36 -84 -57 -98 -43 -7 7 8 31 43 71 62 72 82 84 124 76 21 -4 44 0
71 14 22 11 53 20 70 20 41 1 99 31 103 53 4 17 2 18 -28 2 -18 -9 -34 -14
-37 -12 -5 6 128 136 140 137 4 0 18 -7 32 -16z m155 -123 c0 -6 -4 -13 -10
-16 -5 -3 -10 1 -10 9 0 9 5 16 10 16 6 0 10 -4 10 -9z m515 -26 c24 -11 69
-20 110 -22 59 -3 75 -8 105 -32 47 -37 81 -42 168 -25 110 23 109 23 163
-189 10 -43 17 -82 14 -87 -5 -8 -58 -6 -112 5 -37 8 -82 -12 -158 -69 -26
-20 -55 -36 -65 -36 -10 0 -22 -4 -25 -10 -10 -17 -107 -41 -192 -49 -74 -6
-83 -5 -83 10 0 12 6 16 18 12 20 -5 47 20 38 36 -3 5 -23 7 -43 4 -91 -14
-173 -4 -173 21 0 14 49 26 107 26 59 0 133 21 133 37 0 13 -11 14 -72 7 -40
-4 -95 -7 -123 -7 -27 1 -55 -3 -62 -9 -7 -6 -18 -5 -30 1 -55 31 -104 48
-126 44 -30 -6 -90 23 -81 39 9 14 105 5 167 -16 26 -9 59 -17 75 -18 70 -4
187 33 179 56 -5 13 -24 13 -103 -4 -59 -13 -61 -13 -130 19 -93 43 -99 46
-102 64 -6 27 33 28 91 1 31 -14 61 -23 65 -20 5 3 26 1 47 -5 27 -8 44 -8 59
0 12 6 44 14 71 19 l50 8 -2 58 c-3 85 -33 108 -91 68 -15 -10 -49 -29 -75
-42 -46 -21 -51 -22 -80 -7 -29 13 -30 16 -12 22 61 20 119 52 136 74 11 14
35 27 57 31 43 8 35 9 87 -15z m566 -68 c15 -12 37 -42 49 -67 12 -25 28 -58
37 -74 22 -40 27 -96 12 -131 l-12 -30 -7 50 c-12 84 -38 159 -60 173 -11 7
-20 17 -20 23 0 6 -12 26 -26 45 -30 39 -14 46 27 11z m-921 -32 c0 -8 -4 -15
-10 -15 -5 0 -7 7 -4 15 4 8 8 15 10 15 2 0 4 -7 4 -15z m280 -17 c0 -35 -29
-58 -72 -58 -42 0 -47 9 -20 32 19 17 73 47 85 48 4 0 7 -10 7 -22z m-922 -69
c3 -19 -9 -51 -40 -101 -72 -115 -336 -553 -354 -585 -12 -21 -44 -74 -71
-118 -27 -44 -56 -91 -63 -105 -48 -83 -73 -118 -96 -130 -31 -17 -44 -3 -44
51 0 36 34 107 220 464 114 219 121 230 133 230 39 0 -4 -105 -129 -312 -24
-40 -44 -75 -44 -78 0 -2 -20 -35 -44 -72 -66 -104 -129 -231 -122 -249 8 -22
20 -11 51 48 15 29 37 67 49 83 38 51 286 488 286 503 0 16 54 109 86 149 19
23 34 46 34 51 0 17 81 167 98 180 21 16 46 12 50 -9z m392 4 c0 -5 -30 -39
-66 -78 -36 -38 -76 -86 -88 -105 -13 -19 -37 -48 -54 -63 l-30 -29 -7 24 c-4
12 -11 25 -14 28 -4 3 -14 17 -24 32 -21 33 -22 68 -2 68 20 0 142 56 150 69
3 6 18 11 33 11 15 1 41 12 57 25 31 25 45 31 45 18z m1530 -48 c0 -8 -7 -15
-15 -15 -16 0 -20 12 -8 23 11 12 23 8 23 -8z m-2077 -31 c-10 -37 -46 -104
-57 -104 -8 0 -16 16 -19 38 -3 20 -9 47 -13 59 -6 21 -3 22 42 19 27 -1 48
-7 47 -12z m625 -76 c22 -22 13 -39 -70 -126 -46 -48 -123 -131 -173 -184 -55
-59 -101 -99 -117 -103 -16 -4 -28 -5 -28 -2 0 18 103 146 193 240 20 22 37
43 37 47 0 8 132 140 141 140 3 0 10 -5 17 -12z m102 -52 c0 -7 -60 -75 -132
-150 -73 -75 -144 -149 -158 -166 -14 -16 -84 -89 -155 -162 -72 -73 -183
-189 -247 -258 -65 -68 -118 -121 -118 -118 0 4 30 45 68 92 37 46 76 97 87
112 41 57 261 284 275 284 6 0 10 3 10 8 0 11 93 117 220 250 108 113 150 143
150 108z m-600 -32 c6 -14 10 -37 10 -52 l0 -27 -31 31 c-27 27 -29 34 -20 53
15 28 29 27 41 -5z m1685 5 c7 -22 -14 -52 -48 -71 -31 -16 -31 -2 -1 46 33
51 40 55 49 25z m-1015 -28 c-5 -9 -60 -67 -122 -129 -62 -62 -129 -131 -148
-153 -19 -23 -57 -62 -84 -87 -26 -26 -74 -74 -105 -107 -113 -121 -184 -186
-194 -176 -5 5 -5 16 -1 24 18 30 392 425 527 556 27 25 62 61 79 78 24 25 34
30 44 22 9 -8 11 -16 4 -28z m74 -20 c8 -13 -164 -191 -185 -191 -11 0 -21 -9
-25 -24 -3 -14 -73 -88 -156 -168 -83 -79 -206 -199 -274 -268 -68 -69 -124
-120 -124 -113 0 12 112 131 350 373 58 59 169 173 247 254 79 80 147 146 152
146 5 0 12 -4 15 -9z m-799 -43 c2 -13 6 -45 7 -73 2 -39 0 -50 -13 -53 -12
-2 -19 7 -23 30 -4 18 -9 45 -13 61 -5 26 10 57 28 57 5 0 11 -10 14 -22z
m215 17 c0 -2 -27 -35 -61 -72 -33 -37 -74 -92 -91 -121 -26 -45 -29 -59 -21
-85 8 -28 13 -32 48 -35 66 -5 65 -17 -11 -95 -39 -39 -98 -106 -131 -147 -67
-83 -103 -119 -103 -102 0 6 24 84 54 174 29 90 61 190 71 224 14 47 25 66 50
83 22 15 35 33 39 56 4 18 13 38 21 45 7 6 17 24 20 40 7 30 6 30 98 38 9 1
17 0 17 -3z m5275 -124 c-12 -40 -55 -17 -55 29 0 39 11 44 38 17 17 -18 22
-31 17 -46z m-5552 -29 c7 -36 2 -64 -38 -190 -26 -81 -58 -176 -70 -212 -13
-36 -38 -112 -55 -170 -18 -58 -42 -139 -55 -180 -12 -41 -30 -101 -40 -133
-12 -42 -24 -62 -41 -69 -13 -6 -26 -9 -29 -6 -6 5 26 145 55 243 10 33 25 87
35 120 18 65 69 233 92 305 27 85 53 193 53 219 0 32 57 124 73 118 6 -2 15
-22 20 -45z m5657 -76 c0 -17 -46 -37 -65 -30 -14 6 -21 35 -10 45 9 10 75 -4
75 -15z m188 -50 c19 -18 6 -21 -33 -6 -22 8 -34 6 -60 -10 -18 -11 -35 -20
-39 -20 -12 0 -6 24 11 43 14 15 27 18 62 14 23 -3 50 -12 59 -21z m-6023
-132 c-10 -33 -26 -86 -37 -119 -11 -33 -26 -87 -33 -120 -14 -64 -42 -168
-76 -280 -11 -38 -26 -95 -33 -126 -15 -66 -25 -84 -38 -71 -9 9 -4 34 42 212
15 58 31 121 35 140 6 35 34 144 60 235 8 28 17 64 20 81 6 31 63 119 72 111
2 -3 -3 -31 -12 -63z m4148 -186 c3 -40 7 -179 9 -309 l3 -237 -34 4 c-48 4
-61 -10 -61 -67 l0 -48 -32 6 c-18 3 -41 10 -50 15 -19 9 -24 43 -8 53 17 10
11 44 -9 55 -27 14 -74 13 -96 -3 -14 -11 -17 -22 -13 -55 7 -49 2 -55 -26
-37 -12 8 -31 16 -41 18 -36 5 -45 17 -39 45 4 15 11 32 16 39 6 7 7 30 3 51
-7 45 13 74 34 48 22 -27 214 -55 227 -34 4 6 -3 20 -16 30 -18 15 -32 17 -65
13 -39 -6 -115 14 -115 30 0 33 50 60 65 36 3 -5 31 -13 63 -16 31 -4 72 -11
90 -17 24 -7 37 -7 48 3 26 22 -4 37 -113 56 -57 9 -103 22 -103 28 0 5 19 39
43 74 23 34 47 70 52 79 6 9 28 40 50 69 22 28 53 72 68 97 16 26 32 46 37 46
5 0 11 -33 13 -72z m707 57 c0 -33 -56 -98 -140 -162 -30 -24 -61 -48 -68 -54
-7 -6 -18 -9 -25 -6 -7 2 2 17 24 38 19 19 50 54 69 78 44 56 111 120 128 121
6 0 12 -7 12 -15z m1135 -67 c72 -1 140 2 153 6 l22 7 0 -265 c0 -188 -3 -266
-11 -266 -6 0 -9 7 -6 15 4 8 2 17 -4 21 -6 3 -13 -3 -16 -15 -3 -12 -10 -22
-17 -23 -46 -6 -104 -3 -119 7 -12 8 -30 10 -55 4 -20 -4 -59 -13 -87 -19 -27
-6 -96 -11 -153 -11 -85 -1 -106 2 -123 16 -18 17 -20 17 -38 1 -27 -25 -101
-14 -101 15 0 25 -27 24 -35 -1 -8 -25 -22 -26 -29 -2 -8 29 -3 282 6 282 4 0
27 19 51 43 72 72 225 192 247 193 12 1 26 6 31 11 6 6 35 5 82 -4 40 -8 131
-15 202 -15z m-4900 -27 c22 -12 56 -21 75 -21 41 0 115 -48 125 -81 4 -11 28
-30 53 -43 26 -13 54 -32 63 -42 25 -31 61 -97 69 -129 5 -16 19 -58 33 -93
23 -55 24 -64 11 -77 -9 -8 -20 -15 -26 -15 -5 0 -24 -6 -41 -14 -60 -28 -112
-48 -158 -62 -56 -17 -208 -96 -270 -141 -26 -18 -51 -33 -57 -33 -17 0 -110
-116 -128 -158 -14 -35 -14 -37 7 -53 20 -15 21 -22 15 -80 -4 -35 -10 -84
-12 -109 -15 -168 -101 -410 -167 -475 -42 -41 -69 -54 -93 -44 -24 8 -29 3
-25 -28 1 -7 -7 -17 -18 -22 -15 -8 -22 -6 -33 10 -13 21 -13 21 -43 -6 l-29
-28 -17 22 c-22 26 -45 27 -59 1 -15 -28 -29 -25 -42 11 -9 27 -14 29 -39 24
-25 -6 -29 -4 -29 14 0 25 -35 29 -44 6 -10 -28 -26 -16 -19 15 5 27 3 30 -19
30 -17 0 -29 8 -36 25 -6 14 -16 25 -22 25 -5 0 -10 7 -10 15 0 8 7 15 16 15
9 0 18 10 21 23 3 12 47 103 98 202 51 99 100 207 110 240 9 33 32 93 51 133
19 40 34 78 34 85 0 6 14 35 30 62 16 28 30 61 30 74 0 14 9 58 21 99 11 40
18 79 16 86 -6 15 28 150 49 193 8 18 32 47 54 64 25 20 46 49 57 78 9 25 26
56 37 68 12 11 34 43 50 70 42 70 97 95 197 89 51 -2 88 -11 114 -25z m-806 0
c10 -7 -1 -24 -50 -76 -63 -66 -96 -91 -106 -82 -2 3 5 15 16 26 12 12 21 26
21 33 0 12 89 108 100 108 3 0 11 -4 19 -9z m4696 -57 c15 -24 15 -28 0 -66
-34 -86 -156 -209 -261 -264 -41 -21 -77 -47 -80 -57 -3 -10 0 -41 7 -68 12
-47 12 -52 -6 -65 -10 -8 -29 -14 -41 -14 -23 0 -34 30 -34 90 0 16 -3 35 -6
44 -7 18 -40 22 -46 5 -6 -19 -48 0 -48 21 0 14 11 21 42 27 30 6 44 14 46 27
4 17 -1 18 -42 12 -44 -7 -46 -6 -46 18 0 21 6 26 34 32 42 7 52 2 70 -39 18
-42 53 -74 67 -60 7 7 3 25 -13 57 -26 55 -20 72 32 90 19 7 55 25 80 41 54
34 178 152 186 177 8 26 39 22 59 -8z m-490 -194 c18 -19 17 -20 -3 -20 -15 0
-22 6 -22 20 0 11 2 20 3 20 2 0 12 -9 22 -20z m567 -196 c2 -42 0 -80 -3 -86
-3 -5 -33 -8 -65 -5 -60 4 -69 12 -73 64 -1 11 115 103 130 103 4 0 9 -34 11
-76z m-532 -105 c0 -22 5 -49 11 -61 10 -18 17 -19 63 -14 l53 7 21 -56 c12
-31 22 -61 22 -65 0 -10 -44 2 -93 25 -20 9 -44 14 -55 11 -20 -7 -42 -45 -42
-73 0 -24 -23 -83 -32 -83 -16 0 -11 352 5 362 24 14 47 -11 47 -53z m1084 1
c100 -8 157 -8 205 0 121 20 182 20 187 2 16 -50 24 -61 40 -55 12 4 14 14 10
34 l-5 29 59 0 60 0 0 -76 c0 -66 -2 -75 -17 -72 -13 2 -17 11 -15 30 2 14 -2
29 -8 33 -15 9 -35 -10 -35 -33 0 -14 -11 -17 -69 -17 l-69 0 -11 40 c-14 50
-46 59 -72 20 -15 -24 -16 -30 -1 -74 18 -55 10 -114 -15 -119 -12 -2 -18 5
-20 29 -2 26 -9 34 -38 43 -44 15 -120 -6 -127 -35 -7 -26 -23 -24 -23 2 0 40
-18 59 -58 59 -48 -1 -90 -33 -72 -55 7 -8 19 -15 27 -15 24 0 10 -34 -17 -40
-38 -10 -50 -1 -50 39 -1 53 -19 72 -63 64 l-37 -6 0 91 0 91 33 4 c17 2 39 2
47 1 8 -2 77 -8 154 -14z m-550 -34 c7 -27 -1 -56 -15 -56 -19 0 -21 -31 -4
-50 15 -17 19 -45 23 -185 l4 -165 -26 0 c-40 0 -27 -34 14 -35 18 0 24 -34
11 -54 -8 -12 -17 -8 -50 22 -23 20 -48 37 -57 37 -8 0 -41 -24 -72 -53 -66
-62 -99 -67 -87 -14 4 18 13 55 19 82 15 66 19 71 62 78 20 3 51 18 69 32 19
14 45 29 59 35 14 5 26 14 26 20 0 21 -30 22 -62 2 -18 -11 -43 -23 -55 -27
-43 -13 -14 21 44 51 59 31 73 48 54 67 -6 6 -11 22 -11 37 0 32 -15 55 -30
45 -6 -4 -21 2 -33 13 -12 12 -39 22 -61 24 -44 3 -55 18 -31 42 24 24 75 21
75 -3 0 -21 32 -37 50 -26 7 4 8 23 4 50 -6 43 -6 44 27 48 19 2 37 5 40 5 4
1 10 -9 13 -22z m-324 5 c0 -21 -13 -41 -26 -41 -17 0 -18 22 -2 38 14 14 28
16 28 3z m67 -33 c-3 -7 -5 -2 -5 12 0 14 2 19 5 13 2 -7 2 -19 0 -25z m-712
-90 c7 -29 -26 -236 -45 -283 -4 -11 -12 -42 -18 -70 -30 -153 -110 -312 -283
-565 -17 -25 -36 -54 -43 -64 -12 -18 -16 -15 -54 40 -22 32 -61 81 -86 108
-26 27 -44 51 -41 54 3 3 11 0 17 -6 13 -13 58 -17 58 -5 0 4 -9 16 -20 28
l-21 22 43 45 c66 70 143 168 169 216 13 24 36 65 51 90 15 26 33 57 39 70 7
12 16 22 21 22 4 0 20 24 33 53 33 67 43 85 82 134 18 22 42 61 52 87 22 50
38 58 46 24z m-4127 -9 c56 -30 86 -92 83 -173 -2 -68 -15 -86 -64 -86 -18 0
-27 -5 -25 -12 8 -24 33 -30 75 -19 55 15 66 44 62 158 l-4 88 29 3 c38 5 77
-13 112 -49 26 -27 29 -38 32 -109 4 -75 3 -80 -23 -105 -16 -14 -36 -25 -46
-25 -19 0 -49 -55 -49 -90 0 -10 -14 -30 -31 -44 -35 -30 -74 -32 -128 -9 -18
8 -41 16 -50 17 -9 2 -25 17 -36 34 -11 17 -28 34 -38 37 -9 4 -26 24 -37 46
-26 51 -61 54 -81 8 -12 -29 -11 -33 10 -50 13 -11 32 -19 43 -19 14 0 19 -6
16 -22 -3 -20 -10 -23 -57 -26 -45 -3 -58 1 -78 20 -14 13 -29 33 -34 46 -11
28 -38 40 -49 22 -10 -16 9 -57 39 -84 33 -30 26 -39 -26 -32 -58 8 -123 48
-123 77 0 34 -19 59 -45 59 -27 0 -45 -25 -45 -63 0 -30 -20 -49 -39 -38 -7 5
-19 31 -26 57 -14 57 -38 66 -43 17 -4 -39 -19 -43 -28 -8 -9 37 34 125 60
122 13 -1 29 12 49 41 49 72 148 107 166 59 12 -30 37 -51 46 -38 3 6 8 34 10
63 9 103 79 146 242 147 75 1 98 -3 131 -20z m4902 -28 c7 -13 7 -22 0 -26
-15 -9 -30 4 -30 26 0 25 16 25 30 0z m-235 -28 c46 -23 59 -25 74 -16 15 10
22 9 32 -3 6 -8 19 -12 28 -9 10 3 26 -1 36 -9 20 -15 21 -14 -19 -191 -18
-78 -39 -184 -60 -306 -8 -45 -17 -83 -20 -86 -3 -3 -17 2 -31 11 -27 18 -55
15 -55 -5 0 -6 -11 -20 -25 -31 -28 -22 -32 -38 -10 -38 8 0 22 12 31 26 13
19 23 24 38 19 12 -4 29 -7 39 -6 13 0 17 -5 13 -16 -4 -9 -14 -57 -22 -107
-9 -50 -18 -95 -21 -99 -10 -16 -73 57 -84 98 -6 22 -18 48 -27 58 -14 16 -13
24 23 97 22 44 43 80 49 80 5 0 20 -10 33 -22 15 -14 27 -18 33 -12 7 7 -2 22
-25 44 -44 43 -59 36 -97 -43 -15 -32 -30 -57 -32 -57 -3 0 -18 21 -33 48 -28
46 -28 49 -32 245 -3 174 -1 197 13 197 21 0 46 40 57 92 18 81 15 80 94 41z
m1001 -79 c-9 -23 -54 -40 -68 -26 -9 9 -6 17 10 35 12 13 22 34 22 48 0 22 1
22 21 -10 11 -18 18 -40 15 -47z m-1863 31 c20 -18 37 -39 37 -44 0 -23 21 -9
45 29 27 43 40 48 70 26 19 -14 19 -15 -7 -68 -15 -29 -36 -62 -47 -72 -12
-11 -21 -24 -21 -31 0 -7 -8 -20 -19 -29 -18 -16 -19 -16 -25 9 -6 25 -54 105
-63 105 -10 0 -69 -34 -75 -44 -4 -6 -10 -8 -13 -4 -10 9 35 131 53 145 23 17
22 17 65 -22z m1151 9 c33 -13 11 -44 -30 -44 -17 0 -18 22 -2 38 14 14 12 14
32 6z m-3629 -35 c5 -5 -1 -9 -15 -9 -14 0 -48 -11 -76 -24 -59 -27 -91 -35
-160 -41 -27 -2 -61 -6 -75 -10 -24 -6 -27 -3 -32 31 -4 21 -4 40 -1 43 5 6
118 18 221 24 29 2 55 6 59 9 6 7 64 -10 79 -23z m4161 4 c19 -16 49 -40 68
-55 18 -16 39 -28 45 -28 7 0 49 18 94 40 73 36 88 40 149 38 64 -1 68 -3 68
-25 0 -16 -9 -27 -26 -35 -23 -11 -28 -9 -44 12 -19 25 -19 25 -47 7 -76 -49
-135 -64 -228 -56 -23 2 -137 108 -129 121 8 12 14 10 50 -19z m-3984 -34 c14
-11 31 -19 36 -19 14 0 101 -53 102 -61 0 -4 -21 -3 -47 2 -46 8 -203 77 -203
89 0 15 87 6 112 -11z m-1112 -4 c10 -12 9 -24 -5 -60 -9 -25 -21 -45 -26 -45
-5 0 -9 27 -9 60 0 62 13 77 40 45z m5680 -19 c25 -10 51 -22 57 -28 25 -20 2
-27 -45 -13 -26 8 -59 15 -74 15 -20 0 -28 5 -28 18 0 24 21 44 34 33 6 -4 31
-16 56 -25z m-599 -36 c40 -47 45 -50 91 -50 49 0 61 -13 36 -38 -16 -16 -36
-15 -55 4 -12 11 -18 12 -27 4 -8 -9 -5 -16 11 -27 l22 -15 -46 -53 c-42 -47
-49 -52 -69 -43 -22 10 -23 17 -26 130 -2 65 -1 123 0 128 7 19 21 10 63 -40z
m-4017 -20 c72 -41 98 -50 137 -50 51 0 82 -20 72 -46 -4 -11 -15 -13 -42 -9
l-36 5 33 -17 c17 -9 32 -21 32 -27 0 -6 -26 -26 -57 -44 l-56 -33 -23 22
c-42 40 -115 20 -145 -39 -34 -68 -72 -112 -97 -112 -52 0 -219 -66 -232 -91
-8 -14 -16 -16 -42 -8 -18 4 -50 11 -71 14 -30 5 -37 10 -33 23 25 79 47 206
49 279 l3 88 35 17 c19 10 54 18 79 18 25 0 81 13 125 29 124 44 162 41 269
-19z m1647 -1 c26 -13 15 -29 -21 -29 -35 0 -47 15 -23 29 23 13 21 13 44 0z
m683 -8 c12 -13 15 -27 11 -40 -3 -12 -1 -37 5 -57 7 -19 9 -38 6 -41 -8 -8
-34 25 -47 60 -12 29 -36 35 -70 17 -34 -19 -22 12 18 47 45 38 54 40 77 14z
m2106 -5 c0 -16 -41 -29 -53 -17 -14 14 2 31 29 31 14 0 24 -6 24 -14z m-2595
-16 c6 -10 -34 -30 -61 -30 -23 0 -16 15 14 27 36 14 40 15 47 3z m205 -4 c8
-3 36 -8 63 -12 31 -4 47 -11 47 -21 0 -8 -8 -13 -17 -12 -10 1 -31 -3 -47
-10 -16 -6 -54 -13 -85 -14 -42 -1 -56 -6 -56 -17 0 -12 16 -15 88 -13 101 2
99 7 40 -86 -28 -44 -44 -60 -60 -61 -14 0 -23 6 -23 15 0 8 4 15 9 15 5 0 12
7 15 16 5 13 -2 15 -49 9 -58 -8 -62 -6 -43 25 17 28 5 34 -31 15 -33 -16 -39
-8 -19 25 10 15 10 22 0 32 -9 9 -19 5 -47 -22 l-35 -34 -22 21 c-27 27 -18
49 24 58 42 8 93 31 138 62 34 23 54 25 110 9z m-4252 -4 c10 -7 10 -18 0 -55
-7 -26 -15 -47 -19 -47 -9 0 -39 58 -39 75 0 27 33 42 58 27z m6836 -13 c-8
-14 -24 -10 -24 6 0 9 6 12 15 9 8 -4 12 -10 9 -15z m-4323 1 c10 -6 19 -17
19 -25 0 -8 5 -15 10 -15 6 0 10 5 10 10 0 16 43 11 85 -10 22 -11 45 -20 52
-20 8 0 25 -7 38 -16 19 -12 25 -25 25 -51 0 -36 29 -101 64 -140 10 -12 54
-39 97 -59 44 -21 79 -42 79 -48 0 -18 -47 -18 -116 0 -35 8 -68 13 -73 10 -5
-3 -29 -3 -54 0 -41 6 -45 9 -56 43 -10 36 -107 151 -127 151 -6 0 -23 14 -39
30 -16 17 -34 30 -41 30 -16 0 -24 23 -24 69 0 52 12 61 51 41z m4045 -7 c15
-16 15 -18 -12 -40 -39 -31 -65 -38 -75 -22 -14 21 -6 43 19 54 12 5 22 13 22
17 0 14 28 8 46 -9z m194 2 c13 -16 6 -65 -10 -65 -5 0 -12 9 -15 20 -3 11
-13 20 -21 20 -14 0 -19 21 -7 33 11 12 40 8 53 -8z m-2957 -28 c23 -18 53
-39 67 -46 32 -15 115 -93 129 -120 6 -11 11 -35 11 -53 0 -28 5 -35 30 -45
17 -6 30 -18 30 -27 0 -21 -13 -20 -60 4 -41 21 -56 15 -46 -18 4 -12 -1 -26
-14 -37 -24 -22 -25 -38 -5 -55 21 -18 19 -33 -5 -26 -11 3 -29 9 -40 12 -31
10 -25 -22 10 -48 29 -21 40 -48 20 -48 -6 0 -24 7 -41 15 -26 14 -30 14 -35
1 -3 -8 1 -25 9 -37 17 -23 12 -49 -8 -49 -7 0 -24 10 -39 21 -29 23 -36 21
-40 -7 -2 -11 -14 -21 -32 -25 -16 -3 -33 -8 -39 -10 -21 -6 -75 16 -245 102
-47 23 -119 60 -160 80 -41 21 -115 57 -165 80 -178 81 -239 115 -276 149 -46
44 -55 76 -35 125 l16 37 52 -7 c29 -4 62 -12 72 -18 13 -6 67 -7 150 -3 72 4
167 7 211 6 44 0 105 5 135 13 30 8 80 15 110 15 62 1 136 21 152 39 17 20 37
15 81 -20z m-3213 -8 c0 -5 -4 -9 -10 -9 -5 0 -10 7 -10 16 0 8 5 12 10 9 6
-3 10 -10 10 -16z m3323 14 c-7 -2 -19 -2 -25 0 -7 3 -2 5 12 5 14 0 19 -2 13
-5z m575 -25 c7 -7 12 -24 12 -38 0 -14 7 -35 15 -46 21 -28 19 -41 -17 -85
-36 -45 -58 -50 -58 -13 0 59 -30 77 -82 50 -25 -13 -38 -12 -38 4 0 17 72 96
107 117 44 27 45 27 61 11z m-3408 -48 c-23 -58 -42 -90 -53 -90 -10 0 -27 46
-27 73 0 15 13 29 38 44 58 34 65 30 42 -27z m5835 33 c8 -11 14 -13 19 -5 4
7 14 12 22 12 17 0 19 -41 2 -58 -9 -9 -9 -20 1 -48 7 -19 10 -38 6 -42 -12
-13 -40 16 -40 42 0 40 -39 61 -99 52 -41 -6 -48 -12 -66 -47 -23 -44 -45 -50
-55 -16 -8 23 -51 67 -68 67 -26 0 -102 -49 -129 -82 -33 -42 -48 -42 -48 0 1
44 117 121 183 122 33 0 40 -5 58 -35 12 -19 26 -35 33 -35 15 0 76 55 76 69
0 9 15 13 69 19 13 1 29 -5 36 -15z m-473 -18 c3 -3 3 -17 0 -30 -4 -22 -9
-25 -48 -25 -25 0 -59 -9 -79 -20 -19 -11 -35 -15 -35 -9 0 25 23 48 57 59 21
7 42 16 48 21 10 10 48 12 57 4z m-664 -48 c7 -15 31 -36 53 -48 28 -14 39
-25 37 -37 -3 -9 -11 -15 -19 -13 -8 2 -25 6 -39 9 -14 3 -36 13 -49 23 -34
27 -47 24 -91 -21 -42 -43 -60 -49 -80 -25 -17 20 -5 45 21 45 29 0 76 35 95
71 19 38 53 36 72 -4z m-5736 -19 c-7 -7 -12 -8 -12 -2 0 14 12 26 19 19 2 -3
-1 -11 -7 -17z m2424 -3 c4 -8 13 -15 21 -15 8 0 13 -7 11 -17 -3 -15 -16 -19
-66 -21 -71 -3 -82 11 -34 47 32 24 60 27 68 6z m-2346 -29 c0 -31 -28 -56
-40 -36 -5 8 -7 17 -6 20 2 3 6 13 9 23 10 26 37 21 37 -7z m6522 7 c19 -17
25 -58 9 -67 -4 -3 -19 3 -31 14 -26 23 -23 22 -44 14 -9 -3 -16 -12 -16 -20
0 -8 -4 -14 -10 -14 -20 0 -10 32 19 61 34 33 47 36 73 12z m241 -18 c9 -20
17 -40 17 -45 0 -18 -29 -10 -40 10 -13 24 -38 26 -46 5 -4 -8 -12 -15 -20
-15 -11 0 -10 8 6 40 27 53 59 55 83 5z m-473 -42 c0 -31 -2 -33 -35 -33 -28
0 -35 4 -35 19 0 11 -4 23 -10 26 -18 11 -10 26 23 40 28 12 33 12 45 -2 6 -9
12 -32 12 -50z m-4180 47 c0 -5 -4 -10 -10 -10 -5 0 -10 5 -10 10 0 6 5 10 10
10 6 0 10 -4 10 -10z m1844 4 c23 -9 20 -23 -4 -17 -11 3 -20 9 -20 14 0 11 3
11 24 3z m2112 -31 c-10 -10 -19 5 -10 18 6 11 8 11 12 0 2 -7 1 -15 -2 -18z
m-5206 -87 c-28 -48 -32 -51 -67 -50 -21 1 -58 5 -83 10 -42 9 -45 12 -59 57
-16 53 -12 64 18 48 26 -14 95 -4 141 20 l34 19 23 -26 22 -26 -29 -52z m3438
29 c3 -37 1 -55 -7 -55 -6 0 -11 12 -11 26 0 43 -18 67 -46 60 -13 -4 -24 -3
-24 2 0 13 64 39 74 30 5 -4 11 -32 14 -63z m1872 19 c0 -22 -17 -34 -47 -34
-11 0 -13 7 -8 33 11 48 25 61 41 40 7 -10 14 -28 14 -39z m-530 21 c14 -15
39 -27 66 -31 l44 -6 0 -44 c0 -36 -3 -44 -18 -44 -18 0 -52 38 -65 73 -4 12
-17 17 -43 17 -30 0 -43 -8 -84 -51 -42 -45 -51 -49 -69 -40 -35 19 -26 48 23
69 24 11 54 34 67 51 28 37 48 39 79 6z m-5245 -47 c-26 -31 -34 -49 -30 -65
7 -31 -13 -30 -25 1 -8 23 -52 42 -70 31 -11 -7 -30 26 -30 52 0 16 10 18 73
19 40 1 82 6 93 12 33 18 28 -6 -11 -50z m145 7 c0 -19 -4 -35 -10 -35 -11 0
-14 53 -3 63 11 12 13 8 13 -28z m1644 0 c25 -39 21 -48 -21 -41 -21 3 -56 8
-78 11 -81 12 -88 15 -75 30 10 12 33 17 131 23 19 1 32 -6 43 -23z m291 17
c6 -4 15 -19 22 -33 11 -25 11 -25 -38 -26 -56 -1 -63 5 -49 41 9 26 42 35 65
18z m1773 -30 c2 -16 -2 -22 -15 -22 -10 0 -32 -17 -50 -37 -31 -38 -58 -39
-35 -2 15 24 8 39 -19 39 -33 0 -21 19 19 29 91 23 96 23 100 -7z m-4287 -49
c9 -17 8 -26 -7 -47 -11 -14 -23 -24 -29 -22 -5 1 -11 34 -13 72 l-2 69 19
-25 c11 -14 25 -35 32 -47z m2339 59 c0 -5 -6 -16 -13 -26 -12 -16 -14 -16
-26 -2 -7 8 -10 20 -6 26 7 12 45 14 45 2z m-1830 -11 c0 -21 -13 -41 -26 -41
-15 0 -17 10 -8 34 7 17 34 22 34 7z m6291 -10 c83 -19 101 -29 97 -53 -2 -14
-12 -24 -27 -28 -13 -3 -29 -14 -35 -25 -6 -11 -12 -22 -13 -24 -1 -2 -9 4
-19 13 -12 13 -19 14 -29 6 -19 -16 -9 -37 21 -44 46 -12 23 -66 -28 -66 -30
0 -33 5 -75 115 -11 28 -26 50 -34 50 -8 0 -30 -31 -50 -70 -38 -74 -60 -90
-79 -55 -13 24 -6 36 24 42 29 5 25 23 -6 26 -22 3 -30 10 -36 35 -6 25 -14
33 -35 35 -20 3 -27 -1 -29 -15 -2 -34 -4 -38 -31 -81 -37 -57 -69 -72 -98
-46 -18 16 -20 27 -16 65 7 54 -2 72 -34 67 -19 -2 -25 -11 -32 -48 -16 -94
-14 -90 -56 -90 -56 0 -67 18 -50 83 18 67 47 82 189 98 58 6 130 14 160 18
83 9 269 5 321 -8z m-1117 -7 c9 -8 16 -28 16 -43 0 -36 30 -63 66 -59 25 3
29 0 26 -21 -4 -36 -21 -51 -58 -51 -30 0 -34 4 -45 40 -7 22 -18 45 -24 50
-19 16 -58 -4 -101 -50 -31 -34 -43 -40 -64 -35 -32 8 -39 21 -31 54 6 22 15
27 51 32 25 3 49 13 56 24 31 43 65 75 78 75 8 0 22 -7 30 -16z m416 -16 c-1
-26 -3 -30 -10 -16 -6 9 -7 23 -4 32 9 25 14 19 14 -16z m-1814 -63 c-14 -15
-31 -25 -38 -23 -9 3 -1 16 22 37 40 38 53 26 16 -14z m-2122 13 c12 -7 48 -8
95 -4 161 15 276 6 327 -25 23 -14 50 -19 99 -19 37 0 93 -6 124 -14 69 -18
152 -14 185 8 24 15 29 15 93 -15 37 -17 78 -35 91 -40 12 -5 22 -16 22 -24 0
-18 -19 -15 -78 12 -60 27 -211 31 -372 11 -206 -26 -248 -36 -261 -60 -6 -11
-8 -22 -6 -25 3 -2 42 2 88 11 45 8 85 14 88 11 4 -2 47 3 96 12 109 18 116
18 232 10 65 -4 105 -13 135 -28 33 -17 62 -22 133 -23 62 -2 100 -8 122 -19
18 -9 40 -17 50 -17 22 -1 59 -27 50 -37 -4 -3 -28 -14 -54 -23 -38 -12 -77
-15 -183 -12 -74 2 -184 4 -245 6 -62 1 -147 10 -195 20 -104 23 -234 34 -278
25 -28 -6 -35 -3 -48 17 -9 13 -12 29 -8 35 5 8 2 11 -7 7 -12 -5 -141 9 -264
28 -22 3 -49 14 -60 24 -39 34 -67 41 -183 46 -64 2 -126 8 -137 13 -11 5 -32
12 -47 15 -16 4 -28 10 -28 14 0 18 132 64 215 76 46 6 187 -5 209 -16z m1770
-14 c4 -15 2 -32 -3 -37 -8 -8 -11 -5 -11 10 0 12 -3 28 -6 37 -3 9 -2 16 4
16 5 0 13 -12 16 -26z m836 6 c0 -5 -4 -10 -10 -10 -5 0 -10 5 -10 10 0 6 5
10 10 10 6 0 10 -4 10 -10z m-732 -29 c3 -8 -1 -12 -9 -9 -7 2 -15 10 -17 17
-3 8 1 12 9 9 7 -2 15 -10 17 -17z m688 -38 c-11 -11 -19 6 -11 24 8 17 8 17
12 0 3 -10 2 -21 -1 -24z m519 -96 c25 -49 27 -59 15 -67 -20 -13 -21 -12 -47
8 -17 14 -22 31 -27 98 -6 89 3 117 19 57 6 -21 24 -64 40 -96z m409 107 c12
-31 6 -44 -19 -44 -16 0 -25 -6 -25 -15 0 -21 30 -31 41 -14 7 12 13 11 38 -4
23 -14 35 -15 50 -7 47 24 64 -1 52 -77 -5 -29 -12 -39 -31 -43 -29 -8 -94 21
-103 44 -3 8 -19 22 -36 30 -35 19 -59 12 -128 -35 -56 -39 -67 -30 -52 39 11
52 29 79 29 44 0 -23 25 -46 40 -37 5 3 10 13 10 21 0 20 91 113 111 114 9 0
20 -7 23 -16z m-3984 -4 c11 0 28 -10 40 -22 30 -33 101 -50 230 -57 l115 -6
-3 -32 c-5 -46 24 -59 96 -43 70 16 227 4 259 -19 12 -9 23 -22 23 -30 0 -11
-19 -13 -107 -7 -121 7 -228 -7 -353 -48 -179 -58 -217 -66 -303 -66 -64 0
-89 4 -101 16 -9 8 -16 20 -16 25 0 5 -16 15 -35 23 -47 20 -44 34 7 38 56 4
66 33 16 46 -40 11 -54 6 -61 -19 -5 -20 -27 -27 -27 -9 0 17 27 65 45 80 10
8 28 38 40 67 19 42 30 54 57 62 18 5 39 7 46 5 8 -2 22 -4 32 -4z m2285 -10
c-3 -5 -11 -10 -16 -10 -6 0 -7 5 -4 10 3 6 11 10 16 10 6 0 7 -4 4 -10z m729
-16 c6 -10 18 -31 27 -45 21 -31 10 -49 -29 -49 -21 0 -24 4 -19 28 3 15 0 35
-8 45 -15 20 -9 50 8 44 6 -2 15 -12 21 -23z m2001 -24 c27 -54 54 -73 98 -72
35 1 63 24 72 60 l7 27 19 -24 c16 -20 19 -40 19 -137 l0 -114 -27 -6 c-16 -4
-49 -25 -75 -46 -58 -48 -73 -96 -40 -131 11 -12 24 -34 27 -49 6 -23 14 -28
58 -35 l52 -9 -2 -68 c-2 -86 -11 -97 -60 -69 -31 18 -44 35 -71 100 -19 43
-40 114 -47 158 -8 44 -19 103 -25 130 -7 28 -16 75 -20 105 -5 30 -13 73 -19
95 -9 34 -5 135 5 135 2 0 15 -22 29 -50z m-2499 -6 c-5 -13 -10 -14 -18 -6
-6 6 -8 18 -4 28 5 13 10 14 18 6 6 -6 8 -18 4 -28z m427 -21 c-6 -59 -53
-157 -81 -168 -14 -5 -52 15 -52 28 0 4 19 36 43 71 23 35 50 78 59 95 26 48
37 38 31 -26z m1883 22 c8 -20 25 -40 38 -45 35 -13 37 -23 15 -56 -10 -16
-19 -44 -19 -61 0 -18 -9 -61 -19 -95 -29 -92 -63 -230 -94 -378 -21 -97 -26
-110 -48 -110 -10 0 -29 11 -41 25 -28 32 -61 32 -82 0 -14 -21 -20 -24 -36
-15 -11 6 -20 17 -20 24 0 23 -34 44 -75 48 l-40 3 -3 84 c-2 46 1 88 7 94 5
5 18 -3 32 -23 28 -37 96 -80 128 -80 12 0 45 10 72 21 61 27 79 57 79 134 0
74 -25 109 -98 142 -48 21 -59 22 -91 12 -20 -7 -48 -25 -62 -41 -15 -15 -34
-28 -43 -28 -14 0 -15 19 -15 141 1 125 3 143 20 160 16 16 23 17 40 8 23 -12
79 -5 111 14 17 10 22 9 35 -10 28 -41 87 -26 138 35 35 41 52 41 71 -3z
m-1730 10 c8 -21 -6 -41 -17 -24 -12 19 -11 39 1 39 6 0 13 -7 16 -15z m103
-68 c16 11 26 12 33 5 17 -17 1 -44 -21 -37 -11 3 -34 -1 -50 -9 -17 -9 -40
-16 -53 -16 -13 -1 -48 -9 -78 -20 -36 -12 -58 -15 -65 -9 -14 14 11 27 65 35
68 10 90 21 90 44 0 19 2 20 29 6 25 -13 31 -13 50 1z m-587 -54 c21 -20 38
-42 38 -49 0 -6 11 -23 25 -38 14 -15 25 -33 25 -41 0 -8 18 -35 40 -60 27
-31 40 -56 40 -76 0 -30 5 -32 52 -29 30 2 48 -22 48 -63 0 -18 8 -28 28 -35
15 -5 54 -32 87 -61 33 -28 65 -51 70 -51 6 0 30 -16 54 -35 24 -19 48 -35 52
-35 20 0 49 -42 49 -71 0 -37 -33 -84 -111 -159 -68 -65 -94 -123 -104 -231
-12 -126 -63 -294 -95 -314 -5 -3 -10 -15 -10 -25 0 -34 -36 -37 -367 -31 -48
1 -42 25 13 51 51 25 111 81 142 133 18 32 19 42 10 133 -6 55 -9 129 -9 166
1 38 -3 69 -9 73 -7 4 -2 22 16 52 24 41 25 47 11 61 -9 8 -30 15 -47 14 -22
0 -35 6 -46 23 -9 13 -24 27 -34 30 -11 3 -32 27 -48 53 -28 45 -123 178 -139
195 -5 4 -29 24 -55 44 -33 25 -51 47 -58 72 -14 50 -13 53 9 41 28 -14 31
-13 31 16 0 36 -17 64 -40 64 -16 0 -20 7 -20 31 0 43 30 35 53 -14 9 -20 23
-37 31 -37 20 0 46 44 39 69 -3 11 -1 21 5 21 5 0 12 10 16 22 5 22 6 22 19 4
28 -38 52 -4 60 84 2 24 12 29 82 39 5 0 26 -16 47 -36z m-352 -50 c0 -25 -16
-13 -34 25 l-18 37 26 -24 c14 -14 26 -30 26 -38z m1695 30 c23 -38 86 -67
129 -59 30 6 34 4 40 -19 9 -35 -1 -47 -33 -40 -20 4 -32 0 -46 -15 -10 -11
-26 -20 -36 -20 -19 0 -64 61 -70 96 -5 23 -50 31 -70 12 -65 -63 -139 -89
-139 -50 0 23 24 44 67 61 17 7 46 24 64 37 44 32 74 31 94 -3z m-717 -25 l-3
-43 -57 -1 c-62 0 -74 -5 -65 -27 3 -9 28 -17 66 -21 l61 -7 0 -199 c0 -135
-4 -201 -11 -206 -6 -3 -14 -3 -18 2 -6 9 -12 13 -89 62 -62 39 -98 69 -90 77
3 3 41 2 85 -3 80 -10 100 -5 90 22 -5 12 -20 16 -54 16 -72 0 -91 8 -95 39
-4 33 -30 34 -38 1 -11 -49 -78 -38 -104 16 -22 48 -11 58 47 43 47 -11 206
-7 227 6 6 4 9 12 7 18 -2 8 -37 12 -103 12 -85 1 -135 7 -202 26 -8 2 -19 -5
-25 -16 -7 -11 -13 -22 -14 -24 -2 -2 -9 2 -18 9 -21 18 -20 60 3 60 31 0 215
49 226 61 8 7 5 15 -9 25 -17 13 -18 16 -3 30 9 9 41 18 76 21 42 4 67 12 78
24 26 29 35 23 32 -23z m-840 -1 c3 -21 0 -26 -12 -21 -19 7 -22 58 -3 52 6
-3 13 -17 15 -31z m1201 -16 c22 -14 3 -31 -34 -31 -35 0 -51 12 -40 30 8 12
55 13 74 1z m76 -65 c-16 -42 -19 -44 -76 -57 -57 -13 -75 -31 -43 -43 8 -3
23 -2 32 3 25 13 62 -5 62 -30 0 -22 1 -22 -120 -4 -11 1 -15 15 -14 54 1 29
4 54 7 58 3 3 27 6 52 8 40 3 50 8 65 33 19 31 42 46 48 31 2 -5 -4 -29 -13
-53z m-2595 29 c29 -8 58 -11 66 -8 23 9 74 -17 74 -38 0 -10 -4 -20 -9 -24
-5 -3 -90 2 -188 11 -98 9 -185 15 -193 15 -8 -1 -46 -3 -85 -4 -67 -2 -70 -3
-72 -27 0 -14 -1 -31 -2 -37 -1 -8 -16 -13 -39 -13 -53 0 -183 -36 -252 -70
-8 -4 -17 -24 -20 -45 -5 -38 -6 -39 -80 -65 -99 -35 -119 -46 -126 -75 -5
-18 -19 -28 -67 -44 -33 -12 -77 -21 -97 -21 -42 0 -151 -27 -165 -41 -5 -5
-16 -9 -25 -9 -10 0 -32 -8 -51 -17 -28 -15 -65 -18 -216 -20 -143 -2 -183 0
-183 10 0 16 59 97 70 97 5 0 12 -4 15 -10 12 -19 25 -10 25 17 l0 27 35 -34
c33 -32 36 -33 48 -16 11 15 18 16 33 8 12 -6 26 -7 35 -2 12 8 12 13 1 31
-17 27 -11 33 22 18 19 -9 30 -9 38 -1 8 8 -3 24 -41 60 -46 44 -50 52 -45 81
4 19 2 37 -6 46 -21 25 -2 30 23 7 13 -12 32 -22 43 -22 11 0 25 -5 31 -11 6
-6 30 -13 52 -14 35 -3 41 0 41 16 0 10 -11 26 -25 35 -31 20 -23 37 12 23 36
-13 56 -4 48 21 -4 14 -1 22 12 27 10 4 23 13 29 21 9 13 19 13 57 4 101 -26
227 -10 414 53 128 43 232 54 374 41 85 -7 114 -7 133 3 13 7 33 10 44 7 11
-4 23 -2 27 5 9 13 106 5 185 -16z m810 15 c0 -5 -4 -10 -9 -10 -6 0 -13 5
-16 10 -3 6 1 10 9 10 9 0 16 -4 16 -10z m1108 -12 c-4 -12 -117 -42 -126 -33
-3 3 3 14 13 25 13 15 31 20 67 20 34 0 48 -4 46 -12z m-1028 -13 c0 -8 -7
-15 -15 -15 -9 0 -12 6 -9 15 4 8 10 15 15 15 5 0 9 -7 9 -15z m841 5 c28 -16
23 -30 -11 -30 -28 0 -40 17 -23 33 8 9 11 9 34 -3z m1114 -30 c11 -48 42 -80
80 -80 18 0 38 7 45 15 13 15 70 21 70 8 1 -5 3 -81 5 -171 5 -162 5 -163 -17
-171 -31 -12 -56 4 -108 64 -23 28 -51 54 -61 59 -42 20 -9 38 59 32 54 -4 68
-17 51 -45 -10 -16 -11 -23 -2 -32 16 -16 43 5 36 30 -2 9 3 23 11 30 22 19
20 28 -10 48 -21 13 -46 16 -124 15 -96 -2 -97 -2 -123 28 -27 30 -27 30 -65
14 -76 -32 -80 -33 -91 -21 -17 22 5 42 47 43 23 0 51 9 69 22 42 30 53 28 88
-19 35 -47 63 -56 115 -39 21 7 50 10 64 6 23 -6 26 -3 26 18 0 31 -30 38 -82
18 -51 -19 -78 -10 -111 38 -16 22 -34 40 -42 40 -7 0 -33 -11 -56 -25 -51
-29 -87 -32 -96 -9 -8 21 11 50 29 45 29 -8 53 -1 101 33 63 44 83 46 92 6z
m-4225 11 c0 -6 -4 -13 -10 -16 -5 -3 -10 1 -10 9 0 9 5 16 10 16 6 0 10 -4
10 -9z m2145 -3 c25 -24 -109 -38 -230 -23 -62 7 -67 9 -40 17 17 4 46 6 65 3
20 -3 47 -2 60 3 26 10 135 10 145 0z m-2615 -30 c0 -5 -11 -8 -25 -8 -23 0
-34 18 -19 33 7 7 44 -14 44 -25z m2257 10 c-3 -8 -6 -5 -6 6 -1 11 2 17 5 13
3 -3 4 -12 1 -19z m873 12 c0 -5 -4 -10 -10 -10 -5 0 -10 5 -10 10 0 6 5 10
10 10 6 0 10 -4 10 -10z m-739 -56 c4 -2 48 -5 98 -5 68 0 91 -4 91 -14 0 -18
-14 -21 -90 -25 -93 -4 -94 -4 -215 19 -64 12 -126 18 -147 14 -32 -5 -38 -3
-38 12 0 15 13 16 147 10 81 -3 150 -8 154 -11z m290 -28 c-12 -12 -21 -28
-21 -34 0 -7 -4 -12 -10 -12 -15 0 -12 28 4 37 7 4 19 19 26 33 9 16 15 20 18
12 2 -7 -5 -24 -17 -36z m259 35 c0 -9 -24 -21 -42 -21 -6 0 -6 6 2 15 14 16
40 20 40 6z m-2770 -25 c0 -8 -4 -17 -9 -21 -12 -7 -24 12 -16 25 9 15 25 12
25 -4z m1578 -8 c-3 -7 -18 -14 -34 -16 -27 -2 -143 -27 -189 -39 -17 -5 -18
-4 -7 10 8 9 38 19 67 22 30 4 62 13 72 21 23 17 96 19 91 2z m1120 -8 c-7
-11 -17 -20 -22 -20 -5 0 -1 9 9 20 10 11 20 20 22 20 2 0 -2 -9 -9 -20z
m-920 -5 c56 -19 -97 -67 -318 -101 -58 -8 -121 -20 -140 -26 -19 -5 -51 -8
-70 -6 -37 4 -31 8 35 26 22 5 78 21 125 35 47 13 126 30 175 37 63 10 94 19
102 31 12 16 49 18 91 4z m-1520 -25 c13 -37 -1 -49 -17 -14 -13 30 -14 44 -2
44 5 0 14 -13 19 -30z m2572 12 c0 -11 -11 -24 -25 -30 -22 -10 -25 -9 -25 6
0 21 19 42 37 42 7 0 13 -8 13 -18z m2348 -1 c27 -23 30 -85 6 -120 -13 -19
-22 -22 -47 -17 -71 14 -100 85 -55 133 26 28 65 29 96 4z m588 -28 c15 -43 2
-82 -20 -63 -19 15 -28 68 -15 92 13 24 19 19 35 -29z m69 22 c0 -10 -5 -20
-11 -22 -13 -4 -27 24 -18 38 9 15 29 4 29 -16z m-545 -72 c0 -43 -12 -65 -45
-87 -37 -24 -49 -10 -23 26 14 20 23 51 26 86 l5 56 18 -23 c11 -13 19 -39 19
-58z m-5480 52 c10 -12 10 -15 -4 -15 -9 0 -16 7 -16 15 0 8 2 15 4 15 2 0 9
-7 16 -15z m1507 -9 c3 -2 -11 -7 -29 -11 -18 -3 -70 -18 -115 -32 -77 -24
-133 -26 -133 -4 0 14 137 54 162 48 13 -4 29 -2 36 2 13 8 71 6 79 -3z m830
-28 c29 -25 46 -27 80 -6 27 16 38 17 70 9 21 -6 68 -11 104 -11 52 0 69 -4
83 -19 20 -22 42 -18 51 10 7 21 43 44 53 35 3 -4 -2 -20 -12 -37 -24 -40 -8
-61 23 -30 28 28 39 26 43 -6 3 -26 6 -28 48 -29 25 0 50 -1 55 -3 22 -7 35 0
35 18 0 53 27 69 32 19 3 -30 6 -33 32 -31 28 2 55 -15 120 -75 31 -29 100
-122 123 -168 12 -24 35 -50 51 -58 15 -8 34 -25 41 -39 7 -14 26 -35 42 -46
24 -18 28 -25 19 -41 -8 -15 -7 -26 4 -42 12 -18 13 -32 6 -63 -6 -26 -6 -60
2 -98 7 -39 7 -62 1 -68 -11 -11 -2973 -23 -2973 -12 0 19 55 52 97 58 27 3
55 7 63 8 8 1 16 10 18 19 9 45 -118 27 -168 -24 -16 -15 -39 -28 -53 -28 -13
0 -37 -10 -52 -22 -24 -18 -43 -22 -126 -25 -53 -2 -100 1 -103 6 -4 5 -22 5
-48 0 -27 -7 -45 -6 -52 1 -5 5 -7 10 -3 10 3 0 0 21 -8 46 -11 36 -11 66 -4
137 5 50 13 94 17 98 10 10 52 15 312 40 84 9 122 17 142 31 23 16 34 17 65 9
84 -21 224 -33 305 -26 155 13 260 4 421 -39 32 -9 81 -16 109 -16 62 0 155
-16 222 -37 28 -9 95 -22 150 -29 114 -14 225 -36 244 -48 7 -4 24 -1 39 9 20
13 31 15 49 7 27 -13 77 -1 106 24 10 10 21 35 25 56 l6 39 71 -5 c101 -7 190
-22 217 -36 22 -12 22 -13 4 -26 -11 -8 -45 -14 -79 -15 -136 -2 -148 -5 -127
-38 10 -15 42 -18 254 -23 77 -1 124 2 145 11 28 12 42 11 100 -4 140 -36 177
-38 268 -10 45 14 87 25 93 25 15 0 14 -27 -1 -32 -7 -3 -9 -12 -5 -22 6 -15
15 -17 74 -11 109 11 119 41 29 87 -35 18 -51 20 -120 14 -85 -7 -106 -17
-106 -47 0 -23 -13 -24 -30 -4 -7 9 -20 13 -28 10 -18 -7 -124 17 -230 51 -40
13 -83 24 -95 24 -13 0 -45 14 -72 31 -34 21 -69 34 -110 39 -33 5 -94 17
-135 27 -59 16 -94 18 -162 14 -47 -3 -90 -9 -93 -13 -14 -14 5 -38 29 -38 22
0 56 -31 56 -52 0 -5 -15 -17 -32 -28 -53 -32 -153 -23 -256 22 -27 12 -62 18
-91 17 -66 -3 -75 4 -67 58 5 39 3 47 -21 69 -14 13 -38 24 -53 24 -61 0 -83
-60 -25 -70 21 -4 31 -12 33 -28 4 -26 -4 -27 -90 -8 -35 8 -97 17 -138 21
-41 3 -115 14 -165 25 -49 10 -116 24 -147 30 -65 13 -201 16 -218 5 -26 -16
-158 -17 -241 -1 -47 9 -99 16 -116 16 -16 0 -33 3 -36 7 -10 10 13 33 34 33
10 0 61 14 113 30 52 17 98 30 103 28 17 -4 113 14 119 23 7 12 50 11 96 -1
25 -7 42 -20 50 -38 17 -34 65 -41 116 -15 34 16 94 21 147 12 16 -3 20 1 20
26 l0 30 -68 3 c-47 2 -78 -2 -99 -13 -47 -23 -68 -19 -79 15 -7 18 -18 30
-29 30 -10 0 -23 6 -29 14 -15 18 -1 29 74 56 84 31 133 38 270 38 66 1 143 6
170 12 80 17 233 41 325 50 47 5 110 15 140 23 105 28 136 32 227 31 69 0 97
-4 110 -16z m1993 -8 c0 -5 -4 -10 -10 -10 -5 0 -10 5 -10 10 0 6 5 10 10 10
6 0 10 -4 10 -10z m80 -9 c0 -16 -5 -18 -27 -12 -39 10 -41 31 -4 31 24 0 31
-4 31 -19z m-4487 -3 c2 -7 -4 -24 -14 -38 -28 -39 -27 -62 1 -76 13 -7 28
-22 32 -33 9 -25 38 -28 38 -5 0 9 8 29 17 45 16 26 16 31 3 39 -10 6 -22 3
-37 -12 -23 -21 -23 -21 -23 -1 0 28 23 45 62 46 29 2 33 -1 36 -25 2 -15 -4
-38 -12 -51 -14 -20 -14 -26 -2 -42 8 -12 19 -16 31 -11 10 3 15 9 12 12 -3 3
-1 19 5 35 13 39 53 38 54 -1 0 -14 4 -34 7 -46 5 -15 -1 -31 -22 -58 -33 -41
-66 -107 -74 -146 -3 -14 -14 -48 -25 -76 -27 -73 -37 -204 -21 -299 l13 -77
-31 -28 c-17 -15 -57 -36 -89 -45 -40 -12 -69 -28 -91 -52 -19 -19 -59 -54
-91 -77 -31 -23 -81 -66 -111 -94 -30 -29 -58 -52 -62 -52 -4 0 -38 -25 -75
-55 -50 -42 -83 -60 -133 -74 -91 -26 -178 -41 -234 -41 -44 0 -48 2 -67 40
-22 42 -20 50 13 87 14 16 18 30 14 50 -4 22 1 36 24 62 16 19 29 42 29 52 0
10 4 20 9 23 4 3 11 18 14 34 8 39 102 112 145 112 42 0 77 17 93 46 10 20 18
24 39 19 33 -7 106 20 114 42 10 25 -4 53 -30 63 -13 5 -24 17 -24 26 0 14 7
16 47 10 26 -3 61 -11 79 -18 35 -12 64 -6 64 14 0 7 -9 28 -20 46 -19 31 -24
33 -63 30 -50 -3 -63 20 -22 42 14 7 25 17 25 22 0 4 14 22 30 40 17 17 30 37
30 44 0 7 20 53 44 101 55 110 105 224 120 277 9 33 17 41 44 48 18 5 35 15
39 23 6 18 40 20 46 3z m404 -47 c1 -51 -2 -60 -19 -64 -26 -7 -33 14 -17 60
7 21 14 41 15 46 1 4 2 9 3 12 0 3 5 5 9 5 5 0 9 -27 9 -59z m4289 14 c20 -14
47 -25 60 -25 13 0 24 -4 24 -10 0 -5 -9 -10 -20 -10 -35 0 -91 -29 -135 -69
-70 -64 -135 -90 -135 -53 0 16 20 84 41 140 5 12 17 22 28 22 10 0 34 7 52
15 44 19 42 19 85 -10z m-4456 -3 c0 -5 -7 -17 -15 -28 -14 -18 -14 -18 -15 9
0 17 5 27 15 27 8 0 15 -4 15 -8z m4233 -21 c7 -7 7 -18 0 -33 -7 -13 -14 -34
-17 -48 -8 -40 -42 -130 -54 -142 -7 -7 -11 13 -14 67 -2 42 -1 81 2 85 3 5
18 14 34 19 33 13 30 35 -7 39 -17 2 -27 9 -27 19 0 12 8 14 37 10 20 -4 41
-11 46 -16z m-4173 -41 c0 -5 -4 -10 -10 -10 -5 0 -10 5 -10 10 0 6 5 10 10
10 6 0 10 -4 10 -10z m4522 -54 c13 -24 69 -88 90 -104 17 -12 17 -15 2 -43
-14 -29 -17 -30 -62 -23 -26 3 -56 15 -68 25 -33 30 -93 25 -174 -16 -52 -26
-82 -35 -120 -35 -42 0 -50 3 -50 19 0 24 25 47 35 31 17 -27 171 17 210 60
24 27 47 25 75 -5 13 -14 31 -25 39 -25 9 -1 27 -7 41 -14 17 -10 30 -11 43
-5 20 11 14 29 -10 29 -8 0 -40 18 -72 40 -31 22 -66 40 -76 40 -11 0 -39 -16
-63 -34 -39 -32 -97 -55 -108 -43 -2 2 21 20 51 41 30 20 55 40 55 45 0 5 15
18 32 28 39 23 115 16 130 -11z m-332 -96 c0 -5 -2 -10 -4 -10 -3 0 -8 5 -11
10 -3 6 -1 10 4 10 6 0 11 -4 11 -10z m879 -53 c34 -52 67 -59 98 -21 19 25
25 27 40 16 10 -6 28 -16 41 -22 28 -12 38 -36 22 -55 -11 -13 -16 -13 -41 0
-40 21 -64 19 -83 -10 -22 -33 -46 -32 -82 6 -16 17 -44 38 -61 45 -35 15 -40
32 -22 65 17 33 59 21 88 -24z m-379 -8 c0 -28 -4 -39 -12 -36 -7 2 -13 9 -12
15 1 7 2 23 3 37 2 42 21 28 21 -16z m1092 22 c21 -8 23 -14 20 -51 l-4 -42
-29 34 c-28 32 -38 68 -20 68 5 0 20 -4 33 -9z m-82 -48 c16 -27 30 -53 30
-60 0 -7 6 -16 13 -20 35 -22 60 -85 64 -166 5 -96 -2 -95 -61 14 -33 61 -96
235 -96 266 0 26 21 12 50 -34z m-1263 6 c6 -6 35 -19 65 -29 33 -11 53 -23
52 -32 -1 -8 -24 -44 -53 -80 -28 -36 -51 -70 -51 -76 0 -5 -7 -16 -16 -23
-14 -11 -18 -11 -29 4 -7 9 -25 17 -42 17 -20 0 -38 9 -54 28 -14 15 -37 36
-52 47 -15 11 -29 34 -33 51 -6 30 -4 32 27 39 19 4 46 16 60 26 22 15 63 29
110 38 3 1 10 -4 16 -10z m-4252 -31 c31 -14 33 -38 3 -39 -13 0 -34 -3 -48
-5 -14 -3 -57 -4 -96 -4 -39 0 -93 -7 -120 -15 -80 -24 -85 -21 -60 39 l14 34
141 1 c86 0 151 -4 166 -11z m4479 -8 c16 -6 26 -17 26 -29 0 -17 -5 -19 -37
-14 -47 7 -47 7 -33 32 12 24 11 24 44 11z m372 -29 c6 -3 29 -18 52 -33 44
-29 67 -28 77 3 4 10 12 20 18 20 23 2 52 -3 61 -11 9 -9 -22 -100 -33 -100
-4 0 -12 -19 -18 -43 -7 -23 -23 -59 -37 -80 -14 -21 -26 -49 -26 -62 0 -21
-5 -23 -57 -27 -32 -2 -69 -1 -83 2 -25 6 -25 8 -26 114 -1 124 10 154 45 122
12 -11 24 -16 28 -12 13 12 -13 41 -41 44 -23 3 -26 8 -26 41 0 55 3 56 66 22z
m-870 -7 c18 7 20 -44 2 -62 -18 -18 -75 -15 -82 4 -10 25 -7 42 10 58 12 12
20 14 35 5 12 -6 27 -8 35 -5z m-351 -57 c-3 -192 -7 -264 -14 -275 -10 -16
-175 -22 -190 -7 -6 7 -3 39 8 92 l18 83 78 75 c43 42 83 74 89 72 6 -2 11
-20 11 -40z m835 11 l40 -13 0 -125 c0 -69 -4 -131 -8 -138 -13 -19 -348 -20
-344 -1 2 8 36 45 76 84 40 38 92 100 115 138 47 72 54 76 121 55z m-422 -84
c26 -18 45 -51 34 -58 -5 -3 -25 7 -45 21 -31 22 -41 24 -60 15 -47 -23 -67
-25 -67 -4 0 14 11 21 53 29 28 5 54 11 57 11 3 1 16 -5 28 -14z m-1208 -74
c0 -5 -2 -10 -4 -10 -3 0 -8 5 -11 10 -3 6 -1 10 4 10 6 0 11 -4 11 -10z
m1176 -27 c-7 -7 -26 7 -26 19 0 6 6 6 15 -2 9 -7 13 -15 11 -17z m-74 -19
c10 -21 9 -30 -4 -52 -27 -43 -38 -39 -38 16 0 67 20 85 42 36z m156 -22 c3
-9 -2 -13 -14 -10 -9 1 -19 9 -22 16 -3 9 2 13 14 10 9 -1 19 -9 22 -16z m-70
-49 c5 -17 -26 -29 -40 -15 -6 6 -7 15 -3 22 9 14 37 9 43 -7z m-4978 -38 c0
-8 -7 -15 -15 -15 -8 0 -15 7 -15 15 0 8 7 15 15 15 8 0 15 -7 15 -15z m6270
-4 c57 3 237 2 267 -2 58 -8 68 -40 18 -59 -13 -5 -250 -12 -527 -15 -277 -3
-595 -7 -708 -10 -113 -2 -373 -7 -577 -10 l-373 -7 0 31 c0 16 4 32 9 35 12
8 328 15 986 22 297 3 594 9 660 13 66 5 143 6 170 4 28 -2 61 -3 75 -2z
m-2284 -42 c18 -15 18 -43 -1 -59 -19 -16 -144 -18 -1580 -25 -610 -3 -1153
-7 -1205 -9 -150 -8 -651 -9 -658 -2 -3 4 10 22 29 41 l34 33 280 7 c154 3
705 8 1224 10 519 2 945 5 946 7 2 2 209 4 460 6 333 2 461 -1 471 -9z m-4254
-38 c-3 -15 -57 -63 -81 -72 -13 -5 -180 -5 -388 0 l-43 1 6 38 c3 20 8 40 10
43 2 3 115 5 251 5 200 -1 247 -4 245 -15z m6856 -316 c1 -159 3 -342 5 -404
l2 -115 -212 -2 c-203 -2 -213 -2 -213 17 0 28 29 31 185 20 100 -7 143 -7
153 1 23 20 -4 30 -75 29 -85 -1 -133 7 -133 24 0 14 71 25 165 25 58 0 96 12
83 25 -11 12 -142 14 -213 4 -100 -14 -155 -17 -161 -7 -3 4 -2 18 1 29 7 20
12 21 59 14 65 -10 158 -7 171 6 24 24 -39 36 -140 26 -46 -4 -89 8 -80 23 3
5 31 10 61 10 59 0 144 33 144 56 0 7 -10 25 -22 39 -20 22 -31 26 -83 26 -83
1 -134 -10 -145 -32 -6 -10 -10 -40 -10 -68 0 -27 -4 -52 -8 -55 -5 -3 -30 -6
-58 -6 -27 -1 -60 -6 -74 -10 -14 -5 -37 -11 -52 -14 -16 -4 -28 -13 -28 -21
0 -9 -10 -15 -25 -15 -25 0 -51 -32 -40 -50 12 -19 53 -11 60 11 6 17 12 19
33 14 15 -4 54 -10 87 -14 43 -4 61 -10 63 -21 2 -12 -13 -19 -58 -28 -34 -7
-63 -19 -66 -27 -9 -22 13 -52 41 -57 21 -4 25 -1 25 18 0 41 81 62 88 22 2
-12 -5 -17 -25 -20 -39 -4 -35 -22 7 -28 53 -8 52 -36 -1 -44 -81 -13 -120
-63 -86 -111 19 -25 37 -11 37 29 0 41 15 56 57 56 31 0 33 -2 33 -35 0 -19 3
-92 6 -162 4 -70 7 -175 8 -233 1 -101 2 -105 23 -108 l23 -3 -7 269 c-5 215
-4 270 7 277 7 4 91 8 186 9 95 1 176 4 180 8 4 4 2 14 -5 21 -9 11 -8 17 4
27 19 16 29 7 32 -28 2 -15 5 -235 8 -490 5 -524 12 -482 -81 -465 -43 8 -54
7 -54 -4 0 -16 -92 -18 -121 -2 -16 8 -25 7 -37 -4 -13 -11 -32 -13 -87 -7
-56 6 -309 14 -400 12 -11 0 -344 -3 -740 -6 -899 -7 -1540 -14 -1845 -22
-275 -6 -1087 -13 -1445 -12 -137 0 -585 0 -995 0 -616 -1 -1012 -1 -1170 0
-14 0 -81 0 -150 0 -69 -1 -152 1 -185 3 l-60 4 -1 238 c-1 131 -5 339 -9 463
-3 124 -6 254 -5 290 0 36 2 223 4 416 1 193 6 356 10 362 5 9 59 11 197 8
104 -2 192 -6 196 -10 3 -3 1 -17 -5 -31 -7 -14 -12 -33 -12 -41 0 -8 -15 -39
-33 -67 -39 -61 -68 -141 -65 -179 1 -15 14 -41 29 -60 l28 -33 103 -1 c91 0
114 3 196 32 52 18 101 39 110 46 10 8 35 29 58 48 23 19 63 53 89 75 27 22
69 60 95 85 56 55 81 75 119 94 16 9 36 24 43 34 12 18 33 19 313 21 165 0
442 3 615 5 275 4 735 8 2222 20 196 2 362 0 368 -4 19 -12 0 -38 -44 -59 -52
-24 -78 -61 -74 -104 5 -50 31 -57 198 -53 191 5 177 4 240 22 70 20 80 29 80
70 0 34 36 143 48 145 24 4 307 8 851 14 343 3 628 8 633 11 5 3 15 4 21 1 7
-3 40 -2 72 2 33 4 195 7 360 7 l300 -1 3 -290z m-294 -191 c23 -9 19 -31 -6
-38 -13 -3 -42 -6 -66 -6 -36 0 -43 3 -40 18 2 12 16 19 48 23 25 3 46 7 47 7
1 1 8 -1 17 -4z m-179 -179 c0 -18 -6 -20 -50 -17 -27 2 -54 8 -59 13 -13 12
32 29 74 26 28 -2 35 -6 35 -22z m105 -64 c0 -9 -24 -21 -41 -21 -5 0 -9 7 -9
15 0 9 9 15 25 15 14 0 25 -4 25 -9z m218 -125 c11 -12 -7 -15 -113 -22 -61
-3 -114 -7 -120 -7 -5 -1 -10 5 -10 13 0 11 12 15 42 16 23 0 44 2 47 5 6 6
147 1 154 -5z m99 -2 c5 -14 -36 -23 -62 -14 -19 7 -19 7 0 18 24 14 57 12 62
-4z"/>
<path d="M4694 10526 c-15 -12 -16 -16 -5 -30 25 -29 161 -50 176 -27 7 13
-34 41 -61 41 -12 0 -37 7 -56 15 -30 12 -38 12 -54 1z"/>
<path d="M4987 10434 c-4 -4 -7 -16 -7 -26 0 -14 6 -19 23 -16 14 2 22 10 22
23 0 20 -25 32 -38 19z"/>
<path d="M4238 10188 c-17 -6 -28 -17 -28 -29 0 -21 12 -24 38 -9 9 5 30 14
45 20 16 5 25 14 22 20 -8 12 -41 12 -77 -2z"/>
<path d="M4284 10119 c-3 -6 -1 -16 5 -22 9 -9 14 -8 21 3 9 15 4 30 -10 30
-5 0 -12 -5 -16 -11z"/>
<path d="M4812 9472 c-69 -3 -73 -4 -70 -25 2 -14 11 -23 25 -25 12 -2 25 -12
28 -22 3 -11 17 -20 33 -22 21 -2 27 -8 27 -28 0 -32 -32 -29 -58 6 -10 13
-23 24 -28 24 -20 0 -8 -43 19 -68 16 -15 31 -35 35 -44 9 -26 20 -22 41 15
11 17 34 51 53 74 33 41 33 43 18 72 -21 41 -37 47 -123 43z"/>
<path d="M3907 8785 c-4 -25 -16 -64 -28 -87 -17 -34 -20 -54 -16 -104 5 -69
41 -144 60 -125 7 7 7 18 -1 36 -19 42 -15 146 9 199 24 54 23 119 -2 124 -12
2 -18 -8 -22 -43z"/>
<path d="M4098 8169 c-22 -12 -23 -42 -3 -59 12 -10 20 -9 41 4 48 32 12 85
-38 55z"/>
<path d="M3700 8144 c-13 -32 2 -54 36 -54 21 0 24 5 24 40 0 36 -2 40 -25 40
-18 0 -28 -7 -35 -26z"/>
<path d="M4057 8034 c-4 -4 -7 -18 -7 -31 0 -21 4 -24 28 -21 21 2 27 8 27 28
0 18 -6 26 -20 28 -12 2 -24 0 -28 -4z"/>
<path d="M3642 7994 c-28 -19 -29 -54 -3 -54 32 0 51 11 51 30 0 30 -23 42
-48 24z"/>
<path d="M3582 7798 c-15 -15 -16 -55 -1 -64 6 -3 21 3 32 15 17 16 19 25 11
38 -14 22 -27 26 -42 11z"/>
<path d="M6956 8155 c4 -8 10 -15 15 -15 5 0 9 7 9 15 0 8 -7 15 -15 15 -9 0
-12 -6 -9 -15z"/>
<path d="M3043 7438 c-11 -13 -27 -85 -37 -168 -5 -35 -2 -52 14 -77 20 -34
50 -44 50 -18 0 8 -5 24 -12 34 -9 15 -9 39 1 108 7 48 14 97 14 107 2 23 -16
31 -30 14z"/>
<path d="M2663 6923 c-15 -3 -23 -12 -23 -25 0 -18 4 -20 32 -14 42 8 58 24
38 36 -8 5 -17 9 -20 8 -3 0 -15 -3 -27 -5z"/>
<path d="M7465 4640 c-3 -6 1 -13 10 -16 19 -8 30 0 20 15 -8 14 -22 14 -30 1z"/>
<path d="M2459 4399 c-28 -36 -37 -61 -38 -107 -1 -29 2 -33 21 -30 18 2 24
12 30 47 4 24 14 51 23 61 19 21 20 60 1 60 -7 0 -24 -14 -37 -31z"/>
<path d="M6743 4624 c-7 -18 17 -38 31 -24 11 11 1 40 -14 40 -6 0 -13 -7 -17
-16z"/>
<path d="M7263 4522 c-13 -2 -23 -10 -23 -18 0 -19 28 -30 42 -16 16 16 5 37
-19 34z"/>
<path d="M7482 4508 c4 -27 33 -36 42 -13 8 22 -1 35 -25 35 -15 0 -20 -6 -17
-22z"/>
<path d="M7164 4505 c-8 -20 4 -35 27 -35 21 0 25 20 7 38 -16 16 -27 15 -34
-3z"/>
<path d="M7386 4471 c-4 -5 -3 -16 0 -25 8 -20 44 -21 44 -1 0 17 -36 39 -44
26z"/>
<path d="M7537 4467 c-3 -8 -2 -20 3 -27 11 -18 42 -4 38 17 -4 22 -34 29 -41
10z"/>
<path d="M6704 4139 c-10 -17 23 -46 37 -32 7 7 9 19 6 27 -7 18 -33 21 -43 5z"/>
<path d="M6600 4055 c0 -21 30 -31 40 -14 11 17 3 29 -21 29 -10 0 -19 -7 -19
-15z"/>
<path d="M6316 4321 c-19 -21 -19 -72 0 -78 7 -2 15 8 18 22 5 20 11 25 24 20
46 -20 94 -27 104 -17 16 16 1 30 -41 37 -22 3 -47 13 -58 20 -24 19 -27 18
-47 -4z"/>
<path d="M6287 4193 c-6 -9 -30 -123 -46 -208 -12 -63 -3 -88 22 -66 8 6 16
38 19 74 7 75 27 147 45 154 7 3 40 -9 74 -26 67 -34 99 -39 99 -17 0 8 -37
32 -83 55 -79 39 -121 50 -130 34z"/>
<path d="M6316 4058 c-8 -13 -19 -52 -25 -88 -5 -36 -13 -75 -17 -87 -5 -17
-2 -23 9 -23 17 0 26 28 43 125 7 41 13 51 32 53 12 2 38 -6 57 -18 31 -19 36
-20 41 -5 8 19 11 16 -55 43 -66 27 -67 27 -85 0z"/>
<path d="M7160 4115 c0 -18 5 -25 20 -25 22 0 26 20 8 38 -19 19 -28 14 -28
-13z"/>
<path d="M3124 4076 c-7 -28 12 -69 29 -63 17 5 28 59 15 74 -17 20 -37 15
-44 -11z"/>
<path d="M3210 4081 c0 -5 10 -11 23 -15 36 -9 43 -6 23 9 -22 17 -46 20 -46
6z"/>
<path d="M7367 3693 c-3 -5 -2 -15 3 -22 10 -17 43 -6 38 12 -6 15 -34 22 -41
10z"/>
<path d="M7190 3661 c0 -11 4 -22 8 -25 14 -9 35 12 29 28 -9 23 -37 20 -37
-3z"/>
<path d="M6747 3544 c-3 -3 -3 -12 -1 -19 7 -17 44 -7 44 11 0 14 -31 20 -43
8z"/>
<path d="M7736 3484 c-8 -21 -1 -28 19 -20 9 3 15 11 13 18 -7 19 -25 20 -32
2z"/>
<path d="M7772 3374 c2 -11 8 -18 13 -16 15 3 12 25 -3 30 -9 3 -13 -2 -10
-14z"/>
<path d="M7823 3064 c-3 -8 1 -23 10 -32 15 -14 17 -14 23 1 8 21 -1 47 -16
47 -6 0 -13 -7 -17 -16z"/>
<path d="M7510 3490 c0 -5 5 -10 10 -10 6 0 10 5 10 10 0 6 -4 10 -10 10 -5 0
-10 -4 -10 -10z"/>
<path d="M7476 3393 c-9 -9 -7 -33 3 -33 12 0 22 28 12 34 -5 3 -11 3 -15 -1z"/>
<path d="M7450 3225 c0 -8 5 -15 10 -15 6 0 10 7 10 15 0 8 -4 15 -10 15 -5 0
-10 -7 -10 -15z"/>
<path d="M7405 3049 c-4 -11 -4 -23 0 -27 7 -7 25 17 25 36 0 20 -18 14 -25
-9z"/>
<path d="M7375 2957 c-4 -10 -5 -21 -1 -24 10 -10 18 4 13 24 -4 17 -4 17 -12
0z"/>
<path d="M5762 3324 c3 -16 16 -20 78 -26 43 -4 79 -3 85 3 19 19 -17 34 -91
37 -70 4 -76 3 -72 -14z"/>
<path d="M5826 3061 c-10 -15 24 -42 48 -39 13 2 21 10 21 23 0 15 -8 21 -32
23 -17 2 -34 -1 -37 -7z"/>
<path d="M2333 3163 c-35 -14 3 -55 68 -73 66 -19 63 25 -4 56 -53 24 -50 23
-64 17z"/>
<path d="M3404 2836 c-10 -26 5 -36 52 -36 41 0 45 2 42 23 -2 18 -10 23 -46
25 -30 2 -44 -1 -48 -12z"/>
<path d="M2425 2646 c-48 -22 -99 -36 -128 -36 -14 0 -28 -4 -31 -9 -3 -4 -34
-14 -68 -21 -140 -28 -198 -51 -198 -81 0 -12 7 -11 38 5 31 15 134 43 207 56
28 4 64 14 80 20 17 7 47 14 69 16 21 2 45 9 52 15 13 10 61 12 166 7 42 -2
51 3 43 23 -7 20 -188 23 -230 5z"/>
<path d="M2265 2515 c-38 -14 -78 -25 -87 -25 -20 0 -32 -16 -23 -31 5 -7 15
-5 31 5 13 9 32 16 42 16 10 0 22 4 28 10 5 5 34 13 63 17 30 5 56 14 59 21 6
19 -35 14 -113 -13z"/>
<path d="M2688 2489 c-77 -6 -89 -13 -66 -35 12 -12 23 -14 49 -6 19 5 111 6
214 2 183 -7 245 0 245 26 0 10 -12 14 -42 13 -24 0 -108 1 -188 3 -80 2 -175
0 -212 -3z"/>
<path d="M2081 2461 c-15 -10 -8 -41 8 -41 13 0 32 35 24 44 -8 8 -15 7 -32
-3z"/>
<path d="M1846 2814 c-19 -19 -20 -36 -4 -52 30 -30 75 0 64 43 -7 29 -36 33
-60 9z"/>
<path d="M1786 2605 c-24 -22 -27 -31 -22 -60 8 -39 45 -57 71 -35 20 17 19
73 -3 100 l-17 22 -29 -27z"/>
<path d="M6384 3075 c-7 -18 3 -35 21 -35 15 0 24 19 18 38 -6 17 -32 15 -39
-3z"/>
<path d="M6492 2778 c-7 -7 -12 -20 -12 -31 0 -13 6 -18 23 -15 16 2 22 10 22
27 0 28 -15 37 -33 19z"/>
<path d="M6544 2716 c-8 -22 3 -49 19 -43 6 2 12 14 12 27 0 27 -22 39 -31 16z"/>
<path d="M7239 2669 c-8 -5 -24 -9 -36 -9 -13 0 -23 -5 -23 -11 0 -8 12 -9 38
-4 20 4 45 7 55 6 9 0 17 4 17 8 0 13 -36 20 -51 10z"/>
<path d="M7250 2600 c0 -5 5 -10 10 -10 6 0 10 5 10 10 0 6 -4 10 -10 10 -5 0
-10 -4 -10 -10z"/>
<path d="M7180 2504 c0 -8 5 -12 10 -9 6 3 10 10 10 16 0 5 -4 9 -10 9 -5 0
-10 -7 -10 -16z"/>
<path d="M7676 1312 c-8 -14 5 -52 19 -52 20 0 26 28 9 45 -18 17 -21 18 -28
7z"/>
<path d="M675 13441 c-3 -5 -2 -12 3 -15 13 -8 46 0 50 12 4 14 -44 16 -53 3z"/>
<path d="M3940 13039 c-15 -6 -83 -8 -167 -5 -159 5 -183 2 -183 -25 0 -24 37
-33 105 -25 57 6 85 1 85 -18 0 -6 18 -48 40 -94 22 -46 40 -87 40 -93 0 -6
12 -30 26 -54 14 -25 23 -49 19 -55 -4 -6 -55 -10 -128 -10 -122 0 -153 -7
-145 -30 3 -10 43 -12 163 -10 741 11 958 18 967 32 15 25 7 28 -55 22 -49 -5
-65 -3 -75 9 -14 16 -28 264 -17 298 6 18 14 19 127 17 87 -2 122 0 125 9 9
25 -39 35 -161 33 -324 -5 -656 -4 -696 2 -25 4 -56 2 -70 -3z m387 -47 c15
-9 39 -266 29 -305 l-7 -28 -155 4 c-99 3 -159 8 -166 15 -9 9 -7 27 10 74 44
128 78 217 84 223 3 4 46 10 95 14 48 5 90 9 93 9 3 1 10 -2 17 -6z m214 -13
c5 -8 9 -80 9 -160 l0 -146 -57 -7 c-80 -9 -83 -4 -83 163 0 135 4 154 27 162
29 9 95 2 104 -12z m-487 -7 c4 -6 -37 -132 -73 -226 -16 -40 -33 -22 -67 67
-15 40 -36 87 -46 105 -33 54 -22 62 86 62 52 0 97 -3 100 -8z"/>
<path d="M4487 6038 c3 -18 10 -42 16 -52 14 -28 22 -233 10 -248 -7 -8 -8
-41 -4 -88 9 -98 -5 -294 -30 -398 -10 -46 -19 -94 -19 -106 0 -12 -9 -46 -19
-76 -11 -30 -35 -109 -54 -175 -30 -107 -34 -131 -31 -226 1 -58 7 -123 13
-145 6 -21 11 -58 11 -81 0 -40 4 -45 55 -83 62 -46 78 -49 73 -18 -2 13 -21
35 -47 52 -39 26 -43 32 -38 61 3 18 -1 50 -8 72 -22 62 -29 174 -15 234 28
124 34 148 58 219 25 75 44 158 83 365 28 147 30 508 3 625 -18 80 -28 100
-50 100 -10 0 -12 -9 -7 -32z"/>
<path d="M4446 5888 c-3 -13 -8 -51 -10 -84 -7 -74 -28 -171 -62 -273 -13 -42
-34 -107 -45 -146 -12 -38 -37 -104 -57 -146 -34 -76 -37 -114 -8 -103 16 6
81 167 110 274 10 36 31 108 46 160 15 52 34 117 41 145 17 65 18 187 2 192
-7 3 -15 -6 -17 -19z"/>
<path d="M3282 5563 c4 -22 58 -42 113 -42 97 -2 369 -148 396 -213 13 -31 34
-37 43 -12 8 20 -5 42 -46 79 -94 87 -236 158 -352 176 -33 6 -75 14 -92 20
-47 14 -66 12 -62 -8z"/>
<path d="M6550 5565 c-10 -12 -10 -18 0 -30 17 -21 37 -19 45 5 12 37 -20 55
-45 25z"/>
<path d="M3802 5048 c6 -18 28 -21 28 -4 0 9 -7 16 -16 16 -9 0 -14 -5 -12
-12z"/>
<path d="M665 4134 c-31 -17 -55 -41 -55 -57 0 -5 11 -2 25 7 13 9 36 16 50
16 15 0 35 5 46 11 16 8 18 13 8 25 -15 18 -36 17 -74 -2z"/>
<path d="M618 3682 c-36 -3 -48 -14 -29 -26 5 -4 12 0 14 6 4 10 6 10 6 1 1
-7 11 -13 24 -13 12 -1 44 -7 71 -14 55 -14 96 -10 96 10 0 7 -10 16 -22 19
-59 12 -126 20 -160 17z"/>
<path d="M1430 3602 c-19 -1 -63 -7 -97 -12 -34 -6 -91 -13 -125 -16 -81 -7
-217 -30 -226 -38 -10 -10 14 -41 29 -39 8 1 42 9 77 17 34 9 79 16 100 16 39
0 54 2 167 20 39 6 108 10 154 8 85 -2 99 3 81 32 -9 15 -68 19 -160 12z"/>
<path d="M1380 3490 c0 -28 18 -34 104 -35 57 -1 80 3 83 13 10 23 -10 30 -99
35 -81 5 -88 3 -88 -13z"/>
</g>
</svg>
