<?xml version="1.0" standalone="no"?>
<!DOCTYPE svg PUBLIC "-//W3C//DTD SVG 20010904//EN"
 "http://www.w3.org/TR/2001/REC-SVG-20010904/DTD/svg10.dtd">
<svg version="1.0" xmlns="http://www.w3.org/2000/svg"
 width="850.000000pt" height="1366.000000pt" viewBox="0 0 850.000000 1366.000000"
 preserveAspectRatio="xMidYMid meet">
<metadata>
Created by potrace 1.16, written by Peter Selinger 2001-2019
</metadata>
<g transform="translate(0.000000,1366.000000) scale(0.100000,-0.100000)"
fill="#000000" stroke="none">
<path d="M578 13392 c-49 -4 -58 -23 -54 -108 1 -38 -1 -84 -6 -101 -5 -20 -5
-40 1 -51 11 -20 13 -99 12 -462 0 -146 1 -348 3 -450 1 -102 -1 -207 -6 -235
-5 -27 -11 -196 -13 -375 -2 -179 -7 -543 -12 -810 -4 -267 -7 -503 -6 -525
16 -516 19 -1566 6 -1770 -10 -167 -7 -557 6 -675 9 -88 11 -166 10 -380 0
-14 -1 -119 -1 -235 -1 -267 -1 -281 -16 -278 -7 2 -12 -2 -12 -7 0 -6 7 -10
15 -10 12 0 15 -14 15 -68 0 -38 5 -73 11 -79 9 -9 9 -19 0 -41 -11 -26 -15
-510 -9 -1162 0 -47 -4 -202 -8 -345 -5 -143 -8 -350 -7 -460 1 -110 1 -319 0
-465 -3 -417 -1 -626 10 -900 9 -208 9 -698 0 -1185 0 -44 0 -159 1 -255 1
-96 -2 -204 -7 -239 -6 -36 -7 -69 -4 -75 11 -17 13 -885 3 -966 -14 -107 -15
-199 -3 -211 6 -6 44 -11 84 -11 41 0 79 -4 84 -8 11 -9 171 3 182 13 3 3 12
0 20 -8 9 -10 21 -12 36 -6 13 5 146 7 297 4 323 -6 439 -6 575 0 55 2 150 0
210 -5 99 -8 468 -16 760 -17 61 0 121 -1 135 -1 14 -1 93 -1 175 0 83 1 312
4 510 6 198 2 448 6 555 10 197 6 360 6 790 -2 129 -2 267 -5 305 -5 39 -1
232 3 430 7 198 4 407 7 465 5 126 -3 129 -3 345 -4 549 -2 878 2 1012 14 125
10 172 10 265 -1 142 -17 178 -15 203 10 19 20 20 34 22 476 1 318 5 459 13
469 7 8 9 40 6 87 -7 94 -8 442 -1 1153 3 406 2 599 -7 673 -9 81 -9 133 1
250 13 146 17 1601 6 2327 -2 160 -3 571 -2 915 1 344 -1 706 -3 805 -7 251
-6 381 5 1295 5 443 9 832 9 865 0 33 -1 186 -2 340 -1 154 0 939 2 1745 2
806 2 1470 0 1475 -4 8 -385 12 -814 7 -41 -1 -160 -1 -265 -1 -104 0 -323 -1
-485 -1 -162 -1 -356 2 -430 6 -131 7 -410 10 -615 7 -55 -1 -109 -2 -120 -2
-256 -3 -552 2 -595 10 -30 6 -91 8 -135 5 -101 -8 -80 -8 -280 -4 -93 2 -231
0 -305 -4 -74 -4 -232 -9 -352 -10 -120 -1 -218 -5 -218 -9 0 -4 -8 -5 -17 -3
-10 2 -178 5 -373 8 -268 3 -376 8 -440 20 -47 9 -137 17 -200 18 -123 1 -358
-10 -370 -17 -17 -10 -333 -7 -435 5 -158 17 -596 21 -657 4 -34 -8 -69 -10
-116 -4 -96 12 -152 16 -194 12z m2752 -62 c12 -8 11 -10 -7 -10 -13 0 -23 5
-23 10 0 13 11 13 30 0z m287 -22 c-3 -7 -5 -2 -5 12 0 14 2 19 5 13 2 -7 2
-19 0 -25z m3453 -38 c0 -5 -4 -10 -10 -10 -5 0 -10 5 -10 10 0 6 5 10 10 10
6 0 10 -4 10 -10z m-3354 -47 c-10 -10 -19 5 -10 18 6 11 8 11 12 0 2 -7 1
-15 -2 -18z m2668 2 c3 -8 1 -15 -4 -15 -6 0 -10 7 -10 15 0 8 2 15 4 15 2 0
6 -7 10 -15z m60 -11 c7 -28 3 -39 -12 -30 -11 7 -13 56 -2 56 4 0 11 -12 14
-26z m-2141 -106 c67 1 139 3 160 6 32 4 38 1 43 -19 9 -35 0 -42 -62 -47 -53
-5 -60 -8 -100 -53 -24 -26 -44 -56 -44 -65 0 -10 21 -39 48 -65 43 -44 52
-48 102 -52 59 -4 93 -24 73 -44 -7 -7 -44 -11 -100 -9 -82 2 -249 0 -353 -3
-42 -2 -45 0 -48 26 -3 28 2 30 96 31 12 0 22 3 22 7 0 13 54 17 74 5 26 -16
102 -21 110 -7 4 5 -6 24 -22 42 -28 31 -30 32 -53 16 -27 -19 -59 -22 -59 -6
0 7 9 26 20 44 l20 32 -51 56 c-51 57 -51 57 -109 57 -40 0 -62 5 -70 15 -26
31 28 46 128 37 29 -2 108 -4 175 -4z m3535 -133 c6 -14 16 -25 22 -25 5 0 10
-4 10 -10 0 -21 -26 -9 -43 19 -19 33 -21 41 -9 41 5 0 14 -11 20 -25z m-6498
-71 c0 -8 -5 -12 -10 -9 -6 4 -8 11 -5 16 9 14 15 11 15 -7z m6480 6 c0 -5 -4
-10 -10 -10 -5 0 -10 5 -10 10 0 6 5 10 10 10 6 0 10 -4 10 -10z m-3170 -1134
c0 -3 -4 -8 -10 -11 -5 -3 -10 -1 -10 4 0 6 5 11 10 11 6 0 10 -2 10 -4z
m-1870 -340 c0 -11 -19 -15 -25 -6 -3 5 1 10 9 10 9 0 16 -2 16 -4z m2419
-736 c59 -17 69 -24 84 -55 21 -45 22 -107 1 -147 -12 -23 -14 -44 -9 -82 4
-28 9 -69 11 -91 3 -22 9 -53 14 -70 13 -43 17 -281 5 -293 -2 -2 -32 -7 -67
-12 -35 -4 -86 -11 -114 -15 -42 -6 -54 -4 -69 11 -16 17 -17 31 -12 160 4 85
12 159 22 185 8 24 15 58 15 76 0 28 3 32 38 38 53 9 102 40 102 65 0 23 -16
25 -72 8 -77 -23 -150 45 -128 121 11 41 47 98 68 111 24 14 37 12 111 -10z
m-819 -135 c5 -14 21 -31 36 -37 14 -7 32 -24 39 -39 13 -24 12 -33 -10 -89
-32 -81 -42 -93 -67 -79 -14 8 -25 7 -43 -5 -30 -20 -58 -20 -94 -2 -50 27
-98 118 -93 178 3 34 8 40 49 58 25 11 55 20 67 20 11 0 28 5 36 10 30 19 70
12 80 -15z m2258 -57 c61 -31 87 -78 70 -128 -3 -8 -9 -28 -14 -45 -12 -40
-70 -68 -144 -69 -72 -1 -105 20 -120 75 -13 47 -4 84 37 147 26 40 30 42 77
42 31 0 65 -8 94 -22z m-4008 -90 c0 -21 5 -38 11 -38 6 0 8 9 4 20 -4 11 -2
20 4 20 18 0 32 -39 34 -96 2 -44 -2 -58 -17 -69 -12 -9 -25 -11 -35 -6 -21
11 -39 4 -52 -20 -8 -15 -5 -26 12 -51 31 -43 39 -126 14 -145 -18 -12 -18
-16 -3 -65 45 -146 41 -153 -86 -153 -53 0 -96 1 -96 1 0 1 5 48 10 104 8 73
8 106 0 115 -8 9 -8 15 0 20 5 3 10 23 10 44 0 46 13 58 65 63 46 4 62 32 23
42 -85 23 -98 31 -123 67 -32 49 -32 78 1 126 33 49 64 62 152 61 l72 -2 0
-38z m522 -78 c70 -31 82 -50 74 -115 -3 -31 -14 -67 -23 -81 -15 -23 -14 -28
1 -63 10 -21 16 -44 15 -52 -2 -8 4 -26 14 -40 18 -28 44 -157 49 -248 l3 -55
-38 -9 c-24 -6 -42 -6 -48 0 -5 5 -11 37 -13 72 -2 34 -7 65 -10 68 -3 3 -41
8 -83 10 -43 1 -84 5 -92 8 -14 5 -13 34 5 171 l6 52 62 8 c44 7 61 13 61 24
0 11 -12 15 -46 16 -25 0 -60 9 -77 20 -27 15 -32 24 -32 56 0 21 -5 47 -12
58 -10 16 -9 23 12 45 13 14 27 25 31 25 5 0 19 11 33 25 30 30 50 31 108 5z
m569 -37 c35 -30 68 -94 69 -134 0 -53 -99 -104 -180 -92 -48 8 -60 20 -60 60
0 18 -7 45 -16 59 -15 22 -15 30 -4 65 18 53 43 69 106 69 42 0 59 -5 85 -27z
m476 -43 c16 -13 41 -20 67 -20 60 0 67 -17 68 -169 1 -70 -2 -133 -6 -140 -6
-9 -34 -11 -114 -5 -59 3 -111 10 -115 14 -13 11 18 248 38 298 19 48 27 50
62 22z m2497 -28 c7 -12 32 -186 46 -322 14 -137 8 -165 -42 -175 -18 -4 -70
-16 -115 -27 -46 -11 -93 -18 -105 -16 -22 3 -23 8 -23 79 0 41 6 134 12 205
22 228 29 249 63 204 19 -26 55 -21 65 9 8 27 87 61 99 43z m-2920 -228 c15
-38 7 -54 -27 -54 -18 0 -48 -11 -68 -24 -34 -23 -36 -29 -41 -88 -7 -86 -30
-130 -66 -126 l-27 3 1 105 c0 58 6 124 12 147 l13 42 72 4 c39 1 84 4 98 5
17 1 29 -4 33 -14z m-1890 -29 c52 -22 68 -52 67 -132 0 -63 -3 -70 -30 -93
-34 -28 -51 -66 -51 -113 0 -36 6 -47 34 -63 27 -14 36 -52 40 -159 2 -49 7
-97 10 -106 12 -29 -17 -37 -149 -40 l-130 -4 1 80 c0 44 2 126 3 183 l3 104
47 -6 c54 -7 95 9 99 40 4 30 -24 51 -49 36 -30 -19 -52 -14 -91 21 -51 44
-58 69 -39 142 22 84 30 94 87 109 67 18 105 19 148 1z m3858 -66 c-2 -24 -6
-47 -10 -51 -9 -9 -57 -15 -243 -29 -224 -16 -238 -17 -257 -23 -9 -3 -44 -8
-77 -11 -33 -3 -114 -13 -180 -21 -66 -9 -147 -18 -180 -20 -81 -4 -169 -15
-174 -20 -2 -2 -13 3 -23 13 -12 11 -18 30 -18 57 0 68 5 70 137 73 204 5 385
19 543 42 91 14 164 20 320 27 74 4 137 8 139 10 15 14 26 -9 23 -47z m-1622
-29 c74 -5 164 -13 200 -16 36 -4 97 -7 135 -8 l70 -2 8 -55 c4 -30 8 -63 10
-74 2 -19 -3 -20 -103 -19 -257 3 -510 17 -575 31 -38 8 -90 18 -115 22 -45 6
-45 6 -46 46 -1 73 5 83 45 88 45 6 195 1 371 -13z m-989 -100 c3 -40 1 -101
-3 -105 -5 -5 -271 -19 -373 -20 l-60 0 0 50 0 50 40 6 c22 4 76 3 120 -3 75
-9 81 -8 94 11 12 18 24 21 97 21 49 0 84 -4 85 -10z m-779 -24 c9 -13 -1 -86
-13 -102 -5 -6 -55 -14 -111 -18 -121 -9 -127 -10 -151 -20 -10 -5 -32 -4 -50
1 -32 9 -32 9 -35 80 l-3 72 33 -5 c18 -2 69 0 113 5 92 10 207 4 217 -13z
m4899 -42 c8 -79 -10 -100 -89 -107 -172 -16 -259 -28 -315 -43 -34 -9 -91
-23 -127 -29 -140 -27 -259 -56 -350 -84 -120 -37 -323 -79 -375 -77 l-40 1
-15 58 c-14 57 -9 87 15 90 51 6 187 36 306 67 20 6 50 10 68 10 38 0 104 16
431 106 30 9 80 19 110 24 173 28 184 29 197 18 9 -7 17 -7 29 2 18 16 78 28
119 25 29 -2 30 -4 36 -61z m-4635 35 c6 -5 10 -30 10 -56 l-1 -48 -90 0 c-49
0 -96 -4 -102 -8 -18 -11 -35 1 -29 21 2 10 7 39 11 66 l7 48 91 -7 c51 -4 97
-11 103 -16z m2725 -10 c17 -17 19 -28 13 -75 -5 -41 -2 -63 10 -89 10 -19 15
-39 12 -44 -3 -5 -27 -11 -53 -14 -27 -4 -84 -13 -128 -22 -84 -16 -189 -19
-213 -6 -11 6 -11 10 2 20 10 9 51 13 120 14 83 0 106 3 111 15 13 34 -39 49
-185 55 -25 1 -45 7 -45 12 2 39 19 106 29 112 6 4 22 6 36 5 15 -2 55 2 90 8
36 6 83 14 105 17 22 3 42 7 44 9 10 10 33 2 52 -17z m-1567 -67 c7 -12 -16
-72 -41 -108 -26 -36 -31 -37 -255 -54 -95 -8 -143 -8 -157 -1 -13 7 -45 7
-101 0 -46 -5 -121 -12 -168 -14 -46 -3 -89 -9 -96 -14 -14 -11 -179 -22 -193
-13 -5 4 -10 23 -12 42 -1 19 -3 49 -4 65 l-2 30 175 5 c146 4 181 8 209 24
26 15 38 16 52 8 12 -8 35 -8 76 -2 78 13 159 19 338 25 82 3 151 8 154 10 7
8 19 6 25 -3z m391 -18 c39 -4 87 -8 109 -10 21 -2 40 -5 43 -8 3 -2 7 -23 10
-46 5 -32 11 -44 29 -51 29 -10 30 -26 5 -58 -18 -23 -23 -24 -188 -27 -144
-3 -173 -2 -183 11 -28 34 1 39 152 28 100 -8 147 -8 156 0 7 5 9 13 5 18 -8
7 -147 28 -225 33 -48 4 -71 22 -62 50 4 12 7 29 8 39 1 22 25 37 51 32 11 -2
52 -7 90 -11z m3381 -66 c68 -19 119 -67 138 -132 21 -71 20 -98 -4 -119 -11
-9 -20 -23 -20 -31 0 -9 -16 -28 -35 -43 l-35 -28 1 -182 c0 -146 -3 -187 -15
-212 -21 -39 -25 -41 -72 -31 -38 9 -65 14 -148 28 -53 10 -64 29 -47 89 8 26
17 68 21 93 4 25 23 83 43 130 38 91 33 88 113 75 41 -7 90 8 80 24 -3 5 -27
14 -53 21 -83 23 -103 37 -129 96 l-24 55 40 77 c35 67 66 100 92 102 4 0 28
-6 54 -12z m-4994 -8 c133 0 139 -4 118 -81 -10 -37 -9 -45 4 -55 9 -6 16 -23
16 -37 0 -23 -5 -26 -52 -32 -29 -4 -60 -11 -68 -15 -29 -14 -120 -18 -120 -5
0 7 17 16 38 19 54 10 92 27 92 41 0 22 -29 26 -95 13 -87 -16 -95 -8 -95 89
0 73 1 75 23 69 12 -3 75 -6 139 -6z m1409 -26 c9 -11 4 -22 -17 -48 -30 -35
-58 -46 -134 -51 -25 -2 -130 -11 -233 -21 -141 -13 -191 -14 -199 -6 -7 7 -9
15 -5 18 4 4 76 12 160 19 103 8 161 17 178 27 13 9 41 19 61 22 21 4 43 15
51 26 19 27 118 38 138 14z m2808 -109 c-2 -24 3 -50 10 -58 10 -12 8 -23 -6
-53 -17 -35 -23 -39 -103 -60 -47 -13 -119 -27 -160 -30 l-75 -7 -17 35 c-10
22 -13 40 -7 49 5 8 9 33 9 57 0 25 5 44 13 46 124 35 316 75 330 68 4 -2 7
-23 6 -47z m-3481 2 c6 -7 14 -36 18 -64 l6 -51 -73 -6 c-41 -4 -99 -7 -129
-9 -51 -2 -55 -4 -55 -27 l0 -25 118 -3 c93 -2 117 -6 117 -17 0 -21 -8 -23
-100 -30 -47 -3 -108 -8 -136 -11 -37 -5 -59 -2 -83 11 -32 16 -32 17 -15 42
13 21 16 41 11 105 l-5 78 81 1 c98 1 189 8 196 14 9 10 39 5 49 -8z m2024
-28 c1 -130 -17 -618 -32 -874 -11 -176 -22 -401 -26 -500 -3 -99 -7 -193 -9
-210 -1 -16 2 -41 7 -54 5 -14 5 -28 -1 -35 -11 -13 -16 -72 -36 -431 -8 -148
-20 -355 -26 -460 -6 -104 -15 -255 -19 -335 -4 -80 -11 -163 -14 -185 -3 -22
-11 -130 -17 -240 -7 -110 -13 -216 -14 -235 -4 -54 -16 -247 -20 -330 -3 -41
-7 -118 -10 -170 -2 -52 -7 -156 -10 -230 -4 -74 -11 -184 -16 -245 -6 -60
-12 -171 -15 -245 -2 -74 -6 -163 -9 -197 -5 -65 -6 -63 37 -67 7 -1 12 19 14
49 1 28 7 107 13 177 8 96 8 134 -1 154 -8 18 -9 27 -1 32 6 4 14 52 19 107
l9 100 52 5 c29 3 129 3 223 0 134 -4 173 -8 180 -19 9 -16 9 -16 -19 -296
-11 -104 -25 -248 -31 -320 -6 -71 -17 -193 -25 -270 -8 -77 -17 -174 -20
-215 -3 -41 -8 -90 -11 -109 l-5 -33 -102 7 c-56 4 -150 7 -209 7 -71 0 -108
4 -111 12 -2 6 0 61 4 121 15 201 19 396 9 390 -6 -4 -10 -15 -10 -25 0 -10
-6 -25 -14 -33 -10 -10 -17 -69 -26 -223 -6 -115 -13 -236 -15 -269 -3 -33 -9
-132 -14 -220 -17 -277 -22 -315 -43 -326 -35 -19 -41 -2 -34 90 3 47 11 176
16 286 5 110 14 281 20 380 16 275 19 321 30 595 6 140 14 341 20 445 5 105 9
197 9 205 0 8 4 134 10 280 6 146 13 333 16 415 2 83 9 215 14 295 5 80 13
253 16 385 4 132 13 350 21 485 7 135 16 351 19 480 7 266 30 790 49 1108 3
40 8 153 11 250 3 97 8 197 11 222 3 25 7 108 10 185 2 76 8 142 12 146 12 12
96 26 105 18 5 -4 9 -18 9 -30z m110 10 c2 -7 31 -13 68 -15 102 -6 134 -11
138 -22 1 -5 -7 -10 -20 -10 -105 -2 -168 -9 -182 -21 -9 -7 -16 -28 -16 -47
0 -18 -4 -35 -9 -39 -6 -3 -6 -16 0 -33 l9 -27 263 -2 c144 0 354 -3 467 -7
113 -3 208 -6 213 -6 4 0 7 -6 7 -14 0 -14 -26 -29 -38 -22 -11 7 -234 16
-377 16 -71 -1 -218 0 -325 0 -172 0 -237 -7 -220 -24 5 -4 684 -20 903 -21
92 0 98 -1 95 -20 -3 -18 -13 -20 -128 -26 -141 -7 -346 -4 -433 7 -32 4 -140
1 -239 -6 -178 -13 -180 -14 -209 -42 -33 -33 -53 -29 -44 10 3 15 9 79 14
143 6 81 14 124 26 142 16 24 16 28 1 42 -16 16 -22 56 -10 68 8 8 41 -9 46
-24z m-294 -11 c7 -9 7 -70 2 -183 -8 -157 -15 -372 -25 -750 -3 -82 -9 -206
-14 -275 -6 -69 -13 -208 -16 -310 -3 -102 -10 -277 -15 -390 -11 -224 -14
-291 -29 -665 -6 -137 -15 -326 -21 -420 -13 -197 -17 -302 -25 -550 -3 -99
-9 -272 -15 -385 -5 -113 -10 -252 -11 -310 0 -58 -4 -143 -9 -190 -5 -47 -10
-134 -11 -195 -1 -60 -5 -150 -10 -200 -4 -49 -10 -153 -13 -230 -6 -158 -21
-459 -36 -705 -5 -91 -12 -232 -15 -315 -8 -183 -9 -187 -43 -183 l-27 3 3
170 c1 94 9 269 17 390 8 121 19 351 25 510 7 160 13 322 15 360 6 107 21 724
30 1205 3 140 10 300 15 355 11 122 18 299 25 675 4 255 14 484 30 710 3 41 7
185 10 320 3 135 10 308 15 385 10 148 17 335 25 605 3 91 8 228 12 305 9 181
9 205 -1 237 -8 26 -6 27 36 31 23 2 48 4 54 5 6 1 16 -4 22 -10z m722 -24 c0
-8 -4 -12 -10 -9 -5 3 -10 10 -10 16 0 5 5 9 10 9 6 0 10 -7 10 -16z m-1554
-7 c4 -4 6 -33 6 -64 -1 -32 -4 -328 -7 -658 -3 -330 -7 -717 -10 -860 -2
-143 -7 -438 -10 -655 -3 -217 -10 -458 -15 -535 -5 -77 -9 -245 -10 -374 0
-129 -2 -237 -4 -240 -2 -3 -7 -161 -11 -351 -4 -190 -8 -394 -10 -455 -2 -60
-6 -330 -9 -600 -3 -269 -8 -573 -12 -675 -3 -102 -7 -256 -9 -343 -2 -107 -7
-163 -16 -173 -7 -8 -16 -11 -20 -7 -4 4 -8 82 -10 173 -3 216 10 2551 15
2559 2 3 7 416 11 916 11 1572 14 1815 19 1823 3 5 6 113 7 241 1 203 -1 235
-15 249 -12 12 -19 13 -28 4 -8 -8 -12 -310 -14 -1204 -1 -656 -4 -1337 -8
-1513 -3 -176 -8 -475 -11 -665 -3 -190 -8 -466 -10 -615 -9 -521 -16 -1024
-20 -1487 -2 -258 -6 -472 -10 -478 -3 -5 -13 -6 -21 -3 -14 5 -15 147 -9
1342 9 1719 8 4531 0 4598 -6 48 -5 52 17 56 36 6 217 2 224 -6z m-506 -7 c12
-8 12 -13 -3 -44 -9 -20 -13 -36 -7 -36 14 0 24 -90 11 -103 -7 -7 -14 -8 -21
-1 -6 6 -30 8 -63 3 -80 -11 -185 -10 -193 2 -10 17 12 32 47 33 52 2 49 26
-4 26 -60 0 -74 17 -54 67 l15 38 82 3 c45 2 101 7 123 12 23 4 44 8 47 9 3 0
12 -3 20 -9z m-2593 -41 c21 -12 51 -29 67 -38 29 -17 61 -83 52 -107 -2 -6
-19 -11 -36 -12 -45 -1 -53 -12 -51 -75 1 -49 -2 -57 -26 -72 -16 -11 -44 -17
-72 -17 -38 1 -50 6 -69 29 -12 15 -26 41 -30 58 -6 20 -16 31 -33 35 -21 5
-24 12 -27 52 -3 42 1 51 35 89 37 41 101 78 135 79 10 0 34 -10 55 -21z
m1458 -50 c4 -11 6 -66 4 -122 -2 -102 5 -670 15 -1222 3 -159 8 -438 11 -620
5 -317 11 -584 20 -935 5 -187 14 -1049 18 -1835 2 -291 6 -701 9 -910 4 -256
3 -384 -4 -392 -19 -24 -36 -13 -42 25 -3 20 -8 269 -11 552 -2 283 -7 702
-10 930 -3 228 -8 636 -10 905 -3 270 -7 544 -10 610 -3 66 -7 242 -10 390 -3
149 -7 320 -10 380 -2 61 -7 236 -10 390 -6 309 -12 518 -21 790 -8 203 -11
1074 -5 1081 2 2 17 4 32 4 19 0 30 -6 34 -21z m-141 3 c9 -16 25 -648 30
-1262 2 -168 8 -435 15 -595 6 -159 10 -297 9 -305 -1 -8 1 -89 5 -180 6 -135
21 -847 19 -900 0 -8 4 -242 9 -520 5 -278 11 -755 14 -1060 2 -305 8 -652 12
-770 12 -317 10 -467 -4 -481 -7 -7 -15 -10 -18 -7 -12 11 -17 148 -30 742 -3
127 -8 292 -10 366 -3 74 -7 326 -10 560 -2 234 -7 502 -10 595 -11 371 -25
764 -30 840 -3 44 -7 202 -10 350 -3 149 -9 353 -14 455 -5 102 -9 196 -9 210
0 14 -3 104 -6 200 -7 191 -23 863 -32 1330 -5 278 -12 372 -29 412 -5 14 0
17 32 21 21 2 43 4 50 5 6 1 14 -1 17 -6z m3025 2 c17 -4 31 -10 31 -14 0 -12
-92 -19 -118 -9 -54 21 11 38 87 23z m302 -4 c5 0 9 -4 9 -10 0 -12 -47 -13
-54 -1 -8 12 6 22 22 16 7 -3 18 -5 23 -5z m-3449 -13 c-6 -7 -12 -40 -14 -72
l-3 -60 -35 -3 c-19 -2 -40 -8 -46 -13 -7 -5 -37 -7 -68 -3 -53 6 -77 3 -251
-32 -38 -7 -113 -16 -165 -19 -130 -8 -311 -25 -320 -30 -4 -2 -49 -9 -100
-16 -107 -13 -110 -11 -110 63 0 51 6 57 59 69 192 42 310 60 421 65 220 8
323 17 418 36 56 11 113 18 125 14 12 -3 29 -1 37 4 8 5 26 10 39 10 18 0 21
-3 13 -13z m3896 4 c10 -6 6 -10 -15 -14 -31 -6 -46 0 -38 14 8 11 36 12 53 0z
m420 -58 c5 -11 5 -116 0 -248 -5 -126 -11 -303 -13 -391 -2 -89 -9 -191 -15
-225 -5 -35 -10 -83 -10 -106 0 -29 -5 -45 -17 -52 -14 -7 -15 -12 -4 -25 9
-11 11 -39 6 -103 -3 -48 -7 -152 -10 -231 -2 -99 -8 -148 -17 -159 -9 -11
-13 -48 -14 -112 -2 -211 -41 -895 -69 -1216 -27 -317 -35 -430 -35 -495 0
-36 -4 -81 -9 -100 -5 -19 -12 -114 -16 -210 -3 -96 -10 -207 -16 -245 -5 -39
-8 -86 -7 -105 1 -19 -1 -73 -5 -120 -8 -105 -36 -502 -41 -590 -2 -36 -9
-112 -15 -170 -6 -58 -15 -195 -21 -305 -6 -110 -15 -229 -20 -265 -5 -36 -13
-141 -19 -235 -14 -212 -31 -347 -45 -342 -6 2 -12 35 -14 73 -4 84 36 793 72
1269 17 220 37 622 41 810 2 72 8 198 14 280 5 83 13 215 16 295 3 80 10 201
15 270 13 161 28 477 35 700 3 96 12 236 20 310 8 74 16 203 19 285 11 315 17
423 26 515 8 84 21 261 25 345 1 17 4 80 8 140 4 61 10 166 13 235 3 69 7 143
10 165 2 22 8 109 12 193 5 84 13 157 18 161 9 9 36 17 61 20 7 0 16 -7 21
-16z m542 -12 c66 -5 85 -9 85 -21 0 -19 -32 -22 -260 -21 -342 1 -307 -2
-303 24 3 19 11 23 58 28 60 6 285 1 420 -10z m-694 -58 c-3 -27 -8 -147 -12
-268 -3 -121 -8 -223 -10 -227 -3 -4 -7 -65 -9 -135 -3 -70 -9 -195 -15 -278
-5 -82 -13 -220 -16 -305 -3 -85 -17 -357 -30 -605 -13 -247 -29 -549 -34
-670 -6 -121 -12 -231 -14 -245 -3 -14 -8 -104 -11 -200 -4 -96 -8 -193 -10
-215 -1 -22 -6 -105 -9 -185 -11 -232 -25 -487 -41 -745 -9 -132 -20 -307 -25
-390 -5 -82 -16 -247 -24 -365 -23 -318 -36 -514 -47 -710 -19 -323 -32 -445
-49 -445 -22 0 -24 142 -5 445 9 140 18 336 20 435 3 99 9 254 14 345 5 91 9
185 9 210 0 25 3 92 6 150 4 58 11 247 16 420 6 173 14 383 20 465 5 83 16
319 24 525 25 616 41 905 71 1265 10 119 26 458 40 859 4 88 8 162 10 165 1 3
6 65 10 136 4 72 8 150 10 175 2 25 7 125 11 223 7 188 9 182 -38 178 -29 -3
-20 18 10 25 15 3 32 7 37 9 6 2 30 4 53 4 l44 1 -6 -47z m-3295 -49 c3 -27 6
-312 7 -634 0 -322 4 -615 9 -651 5 -37 6 -75 2 -85 -3 -11 -4 -208 -1 -439 4
-231 6 -838 5 -1350 -1 -511 -2 -1331 -2 -1821 -1 -766 -3 -893 -16 -904 -8
-6 -18 -9 -24 -6 -5 3 -10 68 -11 144 0 75 -3 178 -5 227 -2 50 -6 425 -10
835 -3 410 -8 873 -10 1030 -3 157 -7 510 -10 785 -3 275 -7 640 -10 810 -5
305 -14 1217 -19 1755 -1 151 -6 283 -10 293 -5 11 -17 17 -30 15 -20 -3 -21
-8 -19 -128 1 -69 4 -343 7 -610 7 -588 13 -936 21 -1175 3 -99 7 -331 10
-515 3 -184 8 -434 11 -555 3 -121 8 -833 11 -1582 l5 -1363 -21 0 c-28 0 -29
12 -36 395 -4 182 -8 362 -10 400 -8 155 -15 471 -20 865 -7 563 -18 1038 -35
1485 -5 138 -12 383 -15 545 -3 162 -8 347 -12 410 -4 63 -6 144 -5 180 2 109
-8 180 -27 181 -12 1 -12 2 2 6 18 5 18 15 13 171 -7 198 -15 525 -22 937 -3
165 -6 316 -7 335 l-2 35 85 7 c47 4 105 12 130 17 25 5 50 8 55 7 6 -2 13
-25 16 -52z m490 39 c22 -26 20 -1757 -4 -3618 -7 -522 -14 -1109 -22 -1823
-2 -222 -7 -407 -10 -412 -4 -6 -19 -10 -34 -10 l-27 0 -2 668 c-2 1011 -2
1135 1 1707 1 292 1 582 0 645 -2 201 6 2479 10 2630 4 178 2 190 -29 190
l-24 0 -2 -332 c-3 -423 -3 -417 -16 -430 -14 -14 -16 -54 -3 -62 29 -18 31
-159 26 -1756 -2 -894 -5 -1638 -6 -1655 -1 -16 0 -147 1 -290 3 -293 -9
-1258 -16 -1292 -2 -13 -11 -23 -19 -23 -13 0 -15 27 -16 168 -1 92 -3 223 -4
292 -2 69 -6 701 -9 1405 -3 704 -8 1404 -11 1555 -3 151 -7 745 -10 1320 -3
677 -9 1046 -15 1048 -6 2 -10 19 -10 37 0 31 2 33 45 39 25 4 48 5 52 3 5 -3
28 -1 53 3 72 12 87 11 101 -7z m3409 -26 c128 -2 135 -3 135 -22 0 -23 32
-21 -325 -13 -159 4 -196 7 -198 19 -2 12 18 15 110 17 62 2 114 5 116 7 2 2
9 2 16 -1 6 -2 72 -5 146 -7z m-1193 -60 c79 -4 89 -8 79 -32 -5 -14 -15 -15
-61 -10 -31 4 -126 9 -213 10 -255 5 -337 9 -342 20 -3 6 15 11 43 11 27 1 50
4 53 7 5 5 295 1 441 -6z m1171 -22 c95 -5 112 -9 112 -26 0 -12 -432 -1 -444
11 -17 17 70 29 169 24 39 -2 112 -6 163 -9z m-5133 -12 c-5 -10 -8 -25 -8
-33 0 -8 3 -23 8 -32 5 -14 2 -18 -12 -18 -22 0 -43 -18 -43 -38 0 -9 7 -11
20 -7 11 3 25 3 32 -1 7 -5 58 -9 113 -11 55 -1 125 -4 155 -6 30 -3 65 -5 78
-6 14 -1 21 -5 16 -12 -5 -8 -54 -10 -168 -6 -166 6 -306 -3 -411 -26 -87 -20
-108 -12 -120 49 -5 27 -15 59 -22 70 -24 42 42 68 201 80 33 2 61 6 64 9 3 3
28 5 55 5 43 0 48 -2 42 -17z m4278 -13 l47 -30 0 -59 c0 -33 -4 -71 -10 -86
-33 -87 -238 -58 -270 39 -13 41 -7 57 47 124 32 40 37 42 87 42 41 0 62 -7
99 -30z m-5040 -31 c20 -9 29 -29 51 -109 35 -131 34 -165 -1 -179 -55 -23
-118 -63 -161 -103 -24 -22 -48 -36 -52 -32 -18 18 -30 149 -26 275 3 72 6
133 8 134 2 2 23 0 48 -5 37 -7 48 -5 68 11 29 22 33 23 65 8z m4282 -4 c55
-3 178 -7 274 -10 95 -3 177 -8 182 -11 5 -3 9 -11 9 -19 0 -16 -133 -13 -430
10 -41 3 -103 7 -138 9 -67 4 -78 8 -67 26 4 7 20 10 39 6 17 -3 76 -8 131
-11z m1656 -5 c41 -22 17 -30 -95 -30 -63 0 -121 3 -130 6 -39 15 -8 24 92 27
59 1 108 4 110 5 2 1 12 -3 23 -8z m-256 -10 c9 -14 -5 -18 -84 -21 -51 -3
-76 0 -78 8 -4 12 19 17 104 20 29 1 55 -2 58 -7z m95 -96 c19 -3 51 -11 70
-16 19 -6 46 -12 60 -13 14 -2 68 -12 120 -23 52 -11 115 -23 140 -27 76 -12
343 -82 375 -99 17 -9 39 -16 50 -16 29 0 95 -47 95 -68 0 -9 -3 -34 -7 -55
-4 -30 -9 -37 -22 -32 -36 15 -124 35 -151 35 -16 0 -31 4 -34 9 -3 5 -20 11
-38 14 -18 3 -53 12 -77 21 -24 10 -82 24 -127 31 -46 8 -107 24 -136 34 -29
11 -69 22 -88 25 -44 7 -73 13 -130 25 -77 17 -224 44 -237 44 -7 0 -20 8 -29
18 -14 15 -14 23 -4 56 7 21 18 41 24 45 11 7 77 4 146 -8z m-5403 -64 c-6
-26 -4 -30 16 -30 18 0 122 12 200 22 18 3 19 -10 23 -212 4 -228 19 -526 33
-675 4 -49 9 -139 10 -200 1 -60 6 -171 11 -245 6 -74 15 -232 21 -350 5 -118
14 -271 19 -340 5 -69 12 -222 15 -340 4 -118 8 -221 11 -228 2 -7 6 -106 10
-220 3 -114 7 -213 10 -221 3 -8 9 -116 14 -240 5 -124 14 -307 19 -406 6 -99
15 -322 21 -495 6 -173 15 -360 21 -415 5 -55 11 -181 14 -280 5 -173 7 -211
19 -355 3 -36 7 -132 8 -214 3 -133 1 -150 -15 -160 -27 -17 -32 1 -35 116 -2
57 -9 186 -17 288 -8 102 -18 272 -21 377 -3 106 -7 205 -10 220 -2 16 -8 116
-13 223 -6 107 -13 227 -16 265 -3 39 -9 176 -15 305 -6 129 -15 307 -20 395
-6 88 -15 239 -20 335 -5 96 -12 193 -15 215 -2 22 -7 90 -10 150 -3 61 -11
157 -16 215 -9 103 -20 258 -39 570 -5 85 -16 247 -24 360 -9 113 -18 250 -21
305 -3 55 -8 123 -10 150 -2 28 -6 95 -10 150 -13 232 -18 319 -36 580 -13
197 -13 206 -5 248 12 56 -5 89 -41 81 -41 -8 -73 -26 -73 -39 0 -6 -25 -29
-57 -51 -31 -21 -62 -45 -70 -52 -7 -7 -91 -65 -185 -129 -95 -64 -175 -119
-178 -122 -5 -6 -124 -100 -172 -136 -14 -11 -58 -46 -98 -78 -39 -33 -77 -56
-85 -53 -15 5 -29 76 -23 121 3 28 52 75 147 143 13 9 53 43 90 75 94 84 359
266 386 267 6 0 38 23 70 51 66 56 120 88 149 89 15 0 17 -5 13 -30z m333 -3
c0 -7 -5 -18 -12 -25 -8 -8 -8 -53 1 -184 7 -94 16 -179 21 -187 4 -8 5 -50 3
-93 -4 -53 -2 -82 6 -92 9 -10 9 -20 3 -33 -6 -10 -8 -29 -6 -43 2 -14 8 -117
14 -230 16 -314 20 -388 25 -480 3 -47 7 -141 11 -210 3 -69 12 -206 20 -305
8 -99 16 -229 18 -290 3 -123 21 -511 36 -800 5 -104 12 -239 15 -300 3 -60 7
-150 10 -200 10 -207 16 -339 20 -485 9 -301 25 -712 29 -719 2 -3 7 -85 10
-181 8 -203 13 -297 21 -360 2 -25 7 -103 10 -175 3 -71 8 -131 10 -134 8 -8
-16 -41 -30 -41 -12 0 -15 15 -16 68 0 37 -2 87 -3 112 -9 135 -18 256 -26
340 -6 52 -14 244 -20 425 -6 182 -12 353 -15 380 -6 72 -15 238 -25 485 -5
118 -14 298 -20 400 -5 102 -12 228 -15 280 -2 52 -7 122 -10 155 -2 33 -8
137 -11 230 -4 94 -8 173 -10 176 -6 11 -29 364 -40 619 -2 36 -5 126 -8 200
-4 74 -8 153 -11 175 -6 52 -24 338 -30 485 -3 63 -7 160 -10 215 -7 155 -19
606 -17 640 4 64 2 141 -4 168 -5 25 -3 27 25 27 19 0 31 -5 31 -13z m428 -16
c-3 -14 -26 -16 -196 -18 -105 -1 -192 1 -192 6 0 27 30 32 208 30 164 -1 183
-3 180 -18z m-1598 -37 c218 -2 222 -3 215 -14 -7 -12 -414 -10 -421 2 -10 16
8 29 29 22 12 -4 92 -8 177 -10z m5421 -9 c37 8 51 -18 49 -93 -1 -31 0 -86 3
-122 2 -36 1 -99 -2 -140 l-6 -75 -47 -5 c-27 -3 -48 -2 -48 2 0 4 -26 8 -58
8 -37 0 -66 6 -81 16 -22 16 -23 21 -16 83 4 36 8 77 9 91 3 28 25 99 36 115
6 9 34 84 45 122 3 8 15 9 46 2 23 -6 55 -7 70 -4z m-3811 -41 c0 -11 -22 -14
-102 -15 -57 0 -116 -2 -133 -4 -46 -4 -165 7 -165 16 0 12 56 15 238 16 133
1 162 -1 162 -13z m-1422 -32 c12 -1 22 -5 22 -10 0 -4 -78 -8 -172 -10 -95
-1 -190 -5 -210 -8 -29 -4 -38 -2 -38 8 0 8 2 17 4 19 4 4 348 5 394 1z m1405
-47 c4 -8 3 -17 -2 -19 -16 -11 -321 -2 -318 9 2 6 56 11 137 13 74 2 136 5
139 7 10 11 39 4 44 -10z m4977 -12 c30 -9 87 -25 125 -36 39 -11 74 -24 79
-28 11 -9 -12 -142 -28 -164 -12 -17 -17 -17 -82 2 -38 11 -103 28 -144 38
-81 19 -100 29 -100 52 0 17 6 16 117 -16 85 -24 113 -26 113 -7 0 21 -134 66
-199 66 -36 0 -42 15 -29 75 l10 47 42 -6 c22 -4 66 -14 96 -23z m-6375 -28
c27 -12 23 -13 -50 -10 -44 2 -94 -1 -112 -8 -24 -8 -35 -8 -46 1 -11 10 -17
9 -25 -1 -6 -7 -28 -14 -48 -15 -20 -2 -39 -3 -43 -4 -22 -2 -41 4 -36 12 3 6
23 10 45 10 23 0 40 5 43 14 7 19 229 20 272 1z m1963 -28 c3 -16 -5 -17 -104
-15 -71 2 -109 7 -111 15 -5 14 25 18 132 18 69 0 80 -2 83 -18z m485 7 c41
-7 50 -29 15 -37 -66 -14 -148 8 -132 35 6 9 64 10 117 2z m-1045 -38 c4 -18
-1 -18 -80 -12 -99 9 -130 15 -123 27 3 4 49 7 103 6 86 -2 97 -4 100 -21z
m2266 -27 c18 -17 -5 -23 -87 -24 -87 -1 -107 -7 -107 -30 0 -10 22 -14 93
-17 50 -2 105 0 121 4 16 4 35 4 43 0 8 -5 36 -5 64 -2 34 5 53 3 60 -6 8 -10
16 -10 35 -2 28 13 78 -4 71 -25 -4 -13 -232 -14 -437 -1 -58 3 -118 7 -135 7
-27 2 -30 6 -33 40 -5 59 4 63 125 66 59 1 110 4 112 7 7 7 64 -6 75 -17z
m-3654 -2 c0 -23 -28 -43 -42 -29 -8 8 -65 12 -175 12 -144 0 -175 4 -159 21
3 2 88 6 190 8 158 2 186 1 186 -12z m2480 -27 c0 -18 -7 -20 -75 -19 -41 1
-77 4 -80 9 -7 12 16 18 63 16 23 -1 47 1 54 6 22 14 38 9 38 -12z m473 9 c66
2 75 -1 58 -27 -11 -18 -181 -5 -181 14 0 16 20 24 40 16 8 -3 45 -4 83 -3z
m-1003 -22 c0 -25 -18 -29 -130 -31 -95 -1 -100 0 -100 20 0 11 3 24 6 27 4 4
56 5 115 4 97 -2 109 -4 109 -20z m-1562 -20 c3 -12 -3 -17 -22 -17 -31 0 -32
-13 -9 -66 9 -22 18 -46 19 -54 1 -8 5 -27 9 -42 4 -16 3 -28 -2 -28 -5 0 -32
-19 -60 -42 -92 -77 -179 -138 -196 -138 -23 0 -26 9 -33 96 -8 110 -8 115 16
131 12 8 54 41 95 74 41 32 78 59 82 59 5 0 22 11 38 25 34 28 58 29 63 2z
m997 12 c10 -15 -1 -23 -20 -15 -9 3 -13 10 -10 16 8 13 22 13 30 -1z m-1535
-25 c119 -15 -66 -31 -237 -21 -32 2 -45 21 -20 30 14 5 191 -1 257 -9z m2638
-36 c3 -14 -8 -16 -82 -15 -59 2 -86 6 -86 14 0 8 22 13 58 16 89 6 107 4 110
-15z m529 -15 c9 -23 -3 -26 -79 -24 -86 2 -108 7 -108 26 0 20 180 18 187 -2z
m1451 4 c6 -5 17 -5 24 -1 7 4 41 9 76 10 48 2 65 -1 69 -12 4 -11 8 -12 19
-3 9 7 58 12 127 13 91 1 112 -2 112 -13 0 -10 -16 -16 -55 -20 -59 -5 -82 -5
-317 -2 -83 1 -163 -1 -177 -5 -22 -5 -26 -3 -26 14 0 15 8 22 28 24 47 5 107
3 120 -5z m1797 -1 l50 -13 -1 -44 c-1 -67 -43 -439 -55 -481 -5 -21 -12 -70
-14 -110 -2 -40 -13 -125 -24 -188 -11 -63 -27 -171 -36 -240 -9 -69 -21 -154
-26 -190 -6 -36 -16 -112 -24 -170 -7 -58 -16 -127 -20 -155 -3 -27 -11 -86
-16 -130 -6 -44 -13 -84 -17 -89 -3 -6 -9 -55 -13 -110 -11 -141 -24 -238 -53
-411 -14 -82 -32 -224 -41 -315 -9 -90 -19 -169 -22 -174 -3 -5 -9 -47 -13
-95 -8 -91 -49 -384 -76 -537 -8 -50 -17 -108 -18 -130 -5 -56 -59 -437 -76
-529 -5 -27 -12 -86 -16 -130 -4 -44 -11 -85 -16 -92 -6 -7 -5 -19 2 -33 6
-11 9 -24 6 -29 -3 -4 -15 -68 -26 -142 -12 -74 -28 -174 -36 -224 -8 -49 -22
-144 -30 -210 -26 -202 -24 -193 -47 -199 -42 -11 -47 -7 -47 39 0 24 4 66 10
92 5 26 19 125 30 218 11 94 26 213 34 265 8 52 17 124 20 160 3 36 15 142 26
235 12 94 25 205 31 248 5 43 14 108 20 145 16 98 17 107 44 347 14 121 34
294 45 385 11 91 25 208 31 260 6 52 13 106 14 120 2 14 11 84 19 155 8 72 19
166 25 210 5 44 19 166 31 270 11 105 25 213 30 240 6 28 14 97 20 155 9 103
13 129 46 335 9 55 17 125 19 155 2 30 8 87 14 125 28 187 33 226 36 300 2 44
13 139 25 210 12 72 28 184 35 250 8 66 21 151 29 190 9 38 16 71 16 72 0 4
-4 4 55 -11z m-4320 -16 c10 -16 -16 -21 -115 -24 -71 -2 -101 1 -104 10 -3 7
-3 14 -1 16 8 8 215 6 220 -2z m1670 -11 c11 0 64 0 118 1 130 1 185 -7 198
-31 9 -17 6 -19 -28 -21 -43 -2 -56 -1 -133 7 -112 11 -157 14 -253 18 -54 3
-101 7 -104 11 -4 3 -17 -1 -30 -9 -26 -17 -45 -12 -37 10 6 15 89 22 194 17
30 -1 64 -3 75 -3z m2814 -10 c30 -11 31 -12 31 -73 0 -33 -5 -77 -10 -96 -6
-19 -15 -73 -19 -120 -18 -171 -43 -357 -57 -425 -9 -38 -15 -82 -14 -97 0
-15 -4 -47 -10 -70 -5 -24 -17 -106 -25 -183 -8 -77 -19 -167 -24 -200 -6 -33
-22 -139 -36 -235 -14 -96 -33 -220 -42 -275 -9 -55 -19 -125 -23 -155 -4 -30
-15 -107 -24 -170 -44 -301 -48 -333 -86 -630 -6 -47 -22 -161 -36 -255 -14
-93 -31 -217 -39 -275 -8 -58 -21 -148 -29 -200 -18 -117 -58 -396 -61 -430
-2 -14 -10 -61 -19 -105 -9 -44 -20 -120 -25 -170 -11 -98 -45 -347 -60 -435
-22 -125 -41 -251 -52 -340 -6 -52 -16 -105 -22 -117 -10 -22 -43 -40 -54 -30
-2 3 3 65 12 139 9 73 18 144 19 158 34 292 49 401 56 430 5 19 14 53 19 75 6
22 17 101 26 175 21 188 42 352 54 435 20 128 69 508 81 615 6 58 18 155 26
215 8 61 24 189 34 285 11 96 27 218 36 270 9 52 18 127 20 165 5 79 30 274
44 350 5 28 14 91 20 140 16 127 37 279 60 425 11 69 24 172 30 230 6 58 15
132 21 165 5 33 21 146 34 250 14 105 32 235 40 290 8 55 20 136 26 180 15
117 14 116 78 94z m-3944 -38 c-6 -11 -160 -5 -160 6 0 4 26 9 59 10 32 1 61
4 63 7 8 8 44 -14 38 -23z m2220 -2 c50 -6 126 -12 170 -13 95 -4 296 -22 415
-39 l85 -12 3 -37 c2 -21 -2 -47 -8 -58 -11 -20 -16 -21 -128 -14 -64 4 -124
7 -132 6 -24 -1 -191 18 -240 28 -25 5 -85 11 -135 14 -49 3 -105 10 -124 16
-19 5 -37 7 -42 5 -4 -3 -18 -1 -32 4 -20 8 -26 19 -32 60 -4 27 -4 54 -1 59
3 5 27 6 58 0 29 -4 94 -13 143 -19z m-274 10 c28 -14 14 -29 -24 -25 -17 2
-42 0 -56 -5 -31 -12 -50 3 -31 26 14 17 81 20 111 4z m-1412 -23 c6 -4 11
-14 11 -22 0 -12 -16 -13 -97 -8 -89 6 -119 16 -107 35 5 9 178 4 193 -5z
m-1072 -23 c8 -23 -36 -33 -127 -31 -85 3 -90 4 -90 25 0 21 3 21 107 20 72
-1 108 -6 110 -14z m1803 0 c134 -6 144 -7 158 -16 26 -17 1 -23 -61 -16 -94
11 -200 14 -214 6 -6 -4 -65 -6 -130 -5 l-118 3 -15 -32 c-8 -18 -18 -33 -22
-33 -11 0 -10 62 0 78 11 17 149 32 237 25 39 -3 113 -7 165 -10z m690 -30 c0
-13 -8 -14 -41 -9 -26 4 -46 2 -55 -5 -19 -16 -30 -4 -15 15 23 27 111 26 111
-1z m-1946 8 c10 -16 -22 -33 -51 -27 -15 4 -47 7 -71 8 -42 1 -46 12 -7 21
36 8 124 7 129 -2z m487 -21 c16 0 29 -4 29 -10 0 -5 -15 -10 -34 -10 -19 0
-38 -5 -41 -11 -4 -6 -14 -7 -24 -3 -9 4 -26 6 -38 5 -22 -1 -31 18 -15 33 4
4 27 5 51 2 24 -3 57 -6 72 -6z m3142 -26 c21 -8 22 -18 3 -33 -9 -8 -37 -10
-83 -6 -37 3 -96 7 -130 10 -34 3 -84 14 -110 25 l-48 20 175 -4 c97 -3 183
-8 193 -12z m667 -17 c118 -2 140 -7 140 -33 0 -12 -10 -17 -30 -16 -3 0 -90
3 -195 7 -205 7 -225 9 -225 30 0 18 47 24 130 18 36 -2 117 -5 180 -6z
m-2872 -9 c25 -22 9 -26 -80 -22 -51 3 -145 6 -208 8 -217 5 -230 6 -230 16 0
15 500 12 518 -2z m-1968 -13 c0 -12 -15 -15 -72 -16 -40 -1 -82 0 -93 1 -73
9 -68 7 -60 20 4 6 53 10 116 10 90 0 109 -3 109 -15z m2535 0 c22 -3 102 -9
178 -14 111 -7 142 -12 155 -26 16 -17 10 -17 -118 -10 -174 9 -188 9 -217
-10 -45 -30 -41 -30 245 -34 101 -1 122 -4 122 -16 0 -28 -281 -16 -512 21
-34 6 -38 9 -38 36 0 16 5 38 11 49 11 21 42 22 174 4z m-4105 -5 c0 -14 -57
-63 -130 -112 -33 -22 -71 -55 -85 -74 -14 -19 -32 -34 -39 -34 -8 0 -19 -6
-25 -14 -15 -18 -114 -26 -348 -30 -137 -3 -173 -1 -177 10 -7 19 -2 20 104
23 52 1 133 6 180 11 47 6 112 10 145 10 57 0 63 3 105 41 25 22 88 72 140
110 89 64 130 83 130 59z m2107 -2 c-2 -9 -26 -13 -72 -13 -46 0 -70 4 -73 13
-3 9 16 12 73 12 57 0 76 -3 72 -12z m520 -32 c15 -14 -15 -21 -93 -21 -77 0
-89 2 -92 18 -3 15 5 17 88 13 51 -3 94 -7 97 -10z m623 -6 c14 -7 25 -7 38 1
21 13 52 6 52 -11 0 -5 -11 -10 -24 -10 -14 0 -27 -4 -30 -9 -6 -9 -125 -7
-236 4 -77 8 -93 12 -86 23 7 12 264 14 286 2z m2385 -4 c99 -4 105 -5 105
-22 0 -14 -8 -16 -54 -10 -30 3 -108 9 -173 12 -133 6 -162 12 -123 25 14 5
63 6 110 2 47 -3 108 -6 135 -7z m-911 -7 c50 -6 101 -15 114 -20 32 -13 17
-32 -19 -24 -16 4 -59 6 -96 6 -38 0 -80 5 -95 10 -18 8 -32 7 -47 -1 -29 -15
-68 4 -50 26 14 17 69 18 193 3z m1819 -26 c27 -17 -8 -23 -123 -22 -71 0
-130 5 -130 10 0 23 217 34 253 12z m-4436 -10 c5 -13 -47 -22 -107 -18 -45 2
-66 20 -33 28 33 8 137 0 140 -10z m-2102 -25 c7 -46 32 -395 35 -498 1 -47 4
-101 5 -120 1 -19 5 -73 8 -120 4 -47 11 -184 17 -305 6 -121 16 -239 21 -262
5 -23 9 -81 9 -130 0 -48 5 -128 10 -178 5 -49 12 -166 15 -260 4 -93 11 -224
16 -290 5 -66 14 -208 19 -315 5 -107 11 -215 15 -240 5 -45 20 -389 30 -725
3 -99 10 -207 15 -240 5 -33 12 -121 15 -195 3 -74 7 -148 10 -165 2 -16 9
-116 15 -220 5 -105 15 -247 20 -315 5 -69 10 -169 10 -223 0 -88 -2 -98 -17
-95 -15 3 -19 20 -26 108 -4 58 -16 204 -27 325 -11 121 -25 310 -30 420 -6
110 -12 236 -15 280 -6 121 -25 376 -36 500 -6 61 -12 157 -15 215 -3 58 -11
182 -19 275 -20 232 -24 281 -31 420 -3 66 -10 150 -15 186 -4 36 -11 119 -14
185 -3 65 -8 139 -10 164 -3 25 -7 72 -10 105 -3 33 -8 82 -11 109 -3 26 -7
89 -10 140 -2 50 -9 138 -14 196 -8 89 -18 216 -45 550 -8 107 -24 387 -30
540 l-7 156 39 26 c21 15 41 27 45 27 4 1 10 -14 13 -31z m1565 17 c0 -8 -7
-15 -15 -15 -8 0 -15 7 -15 15 0 8 7 15 15 15 8 0 15 -7 15 -15z m3930 -10
c58 -3 122 -6 142 -5 43 1 78 -14 78 -34 0 -11 -9 -12 -42 -4 -89 20 -251 28
-310 15 -36 -7 -38 -6 -38 16 0 32 7 37 38 27 15 -5 74 -11 132 -15z m-4710
-16 c0 -5 -18 -8 -40 -7 -38 1 -80 -22 -80 -44 0 -4 45 -8 100 -8 60 0 100 -4
100 -10 0 -5 -17 -10 -37 -10 -21 0 -68 -2 -104 -4 l-67 -4 -6 41 c-5 30 -3
44 7 52 17 12 127 7 127 -6z m-1271 -14 c106 0 155 -4 158 -11 2 -7 -13 -14
-39 -16 -49 -6 -310 9 -348 19 -22 6 -21 7 15 13 22 3 45 4 50 1 6 -3 79 -6
164 -6z m5283 0 c46 -9 66 -32 64 -74 0 -23 -4 -41 -8 -41 -4 0 -8 -19 -10
-42 l-3 -43 -125 3 c-171 3 -176 4 -172 30 2 12 -2 22 -7 22 -6 0 -11 -5 -11
-12 0 -9 -3 -9 -11 -1 -15 15 4 152 23 165 12 8 211 2 260 -7z m1753 -16 c15
-15 -8 -30 -46 -30 -152 -1 -303 35 -182 43 80 5 217 -3 228 -13z m-395 1 c0
-5 -7 -10 -15 -10 -8 0 -15 5 -15 10 0 6 7 10 15 10 8 0 15 -4 15 -10z m-5833
-14 c13 -12 -6 -15 -131 -21 -104 -6 -127 -4 -124 6 3 9 27 15 69 17 35 2 65
5 68 7 6 6 111 -2 118 -9z m-458 -158 c6 -79 16 -197 21 -263 21 -260 31 -381
37 -415 3 -19 7 -75 9 -125 2 -49 10 -173 19 -275 8 -102 19 -239 25 -305 5
-66 12 -158 15 -205 2 -47 13 -202 24 -345 11 -143 23 -325 26 -405 3 -80 10
-179 15 -220 10 -78 27 -315 34 -480 6 -127 26 -465 31 -515 8 -87 25 -294 30
-375 6 -89 23 -307 30 -375 18 -180 27 -387 17 -397 -20 -20 -40 11 -47 75 -4
34 -9 69 -10 77 -1 8 -6 78 -10 155 -3 77 -13 202 -21 279 -8 76 -14 168 -14
206 0 37 -11 185 -25 330 -13 144 -23 265 -21 269 3 4 -4 76 -14 161 -10 85
-23 214 -29 285 -6 72 -17 195 -25 275 -7 80 -10 154 -6 166 5 11 4 27 -1 36
-5 8 -13 91 -19 184 -6 93 -15 210 -20 259 -5 50 -12 140 -15 200 -4 61 -10
139 -15 175 -9 63 -34 338 -44 470 -3 36 -12 142 -20 235 -21 232 -32 379 -52
655 -9 129 -21 246 -27 259 -11 21 -8 27 27 57 22 19 45 34 51 34 8 0 16 -45
24 -142z m5757 133 c5 -5 27 -11 49 -13 27 -2 40 -8 40 -18 0 -9 -8 -14 -20
-12 -22 3 -165 12 -260 16 -93 5 -95 5 -95 21 0 13 22 15 138 15 76 0 142 -4
148 -9z m-4031 -41 c3 -5 -1 -10 -9 -10 -9 0 -16 5 -16 10 0 6 4 10 9 10 6 0
13 -4 16 -10z m-1253 -18 c6 -6 10 -14 7 -16 -2 -2 -60 -7 -129 -9 -69 -3
-133 -9 -142 -12 -14 -5 -18 -2 -18 14 0 22 17 29 85 33 90 6 186 1 197 -10z
m638 -16 c19 0 37 -5 40 -11 3 -6 -57 -10 -170 -10 -107 0 -177 4 -180 10 -6
13 124 24 210 17 36 -2 81 -5 100 -6z m-1286 -36 c14 -5 26 -16 26 -25 0 -18
-22 -19 -348 -16 -126 1 -163 4 -159 14 3 9 39 12 133 13 145 2 294 11 302 19
8 7 17 6 46 -5z m661 -30 c14 -22 -10 -29 -125 -35 -89 -5 -118 -10 -128 -23
-6 -9 -9 -19 -4 -24 4 -4 66 -9 137 -10 108 -3 130 -6 130 -18 0 -13 -24 -15
-146 -18 l-147 -3 -7 56 c-3 30 -4 59 -1 64 3 5 34 9 67 10 34 0 63 2 65 3 10
10 153 7 159 -2z m672 -14 c17 -17 -27 -23 -169 -24 -117 -1 -155 -5 -166 -16
-30 -30 -3 -36 156 -36 86 0 164 -5 172 -10 11 -7 -1 -10 -40 -10 -98 -1 -194
-8 -249 -19 -30 -6 -57 -9 -60 -6 -2 3 -5 31 -5 63 l-1 57 45 5 c67 7 309 5
317 -4z m3587 -43 c9 -6 3 -134 -15 -298 -5 -49 -13 -151 -18 -225 -5 -74 -19
-232 -31 -350 -11 -118 -30 -314 -41 -435 -11 -121 -24 -258 -29 -305 -5 -47
-15 -130 -20 -185 -6 -55 -13 -116 -15 -135 -13 -107 -26 -241 -35 -360 -6
-74 -15 -157 -20 -185 -5 -27 -14 -113 -20 -190 -6 -77 -15 -174 -20 -215 -6
-41 -15 -131 -20 -200 -6 -69 -15 -154 -20 -190 -6 -36 -16 -132 -24 -215 -41
-418 -45 -458 -87 -779 -10 -78 -13 -105 -18 -164 -1 -10 -10 -12 -33 -7 -18
4 -35 9 -37 11 -1 1 4 31 13 66 9 36 16 91 16 124 0 32 7 124 15 204 8 80 22
219 30 310 8 91 24 250 35 353 11 104 20 217 20 253 0 35 7 106 15 157 8 50
19 166 25 257 5 91 12 188 15 215 3 28 12 136 20 240 8 105 21 253 30 330 43
409 69 694 80 900 7 121 32 379 72 725 14 124 27 243 28 265 2 22 3 42 4 44 1
4 73 -9 85 -16z m160 -83 c-1 -47 -6 -139 -12 -205 -31 -349 -43 -476 -47
-487 -3 -11 -18 -139 -31 -278 -1 -19 -7 -73 -13 -120 -5 -47 -15 -134 -20
-195 -6 -60 -13 -125 -16 -143 -15 -85 -63 -508 -75 -652 -5 -63 -13 -146 -19
-185 -6 -38 -17 -151 -26 -250 -8 -99 -22 -229 -30 -290 -8 -60 -24 -195 -35
-300 -12 -104 -25 -224 -31 -265 -61 -480 -79 -663 -66 -678 8 -10 7 -16 -3
-22 -10 -6 -21 -59 -35 -157 l-20 -148 -28 -3 c-32 -4 -33 5 -16 128 5 41 12
125 14 185 2 61 9 144 14 185 12 87 28 247 41 410 5 63 14 149 20 190 5 41 14
125 20 185 6 61 13 128 15 150 6 54 30 329 60 680 14 160 28 300 30 312 3 12
10 77 15 145 6 68 14 157 20 198 15 120 30 280 45 495 17 227 39 465 55 575 6
41 21 190 34 331 13 141 29 267 36 278 9 19 19 22 58 19 l47 -3 -1 -85z
m-5044 65 c28 -34 9 -37 -232 -37 -131 0 -251 3 -268 7 -28 6 -39 23 -23 38 3
4 120 7 258 7 210 0 255 -2 265 -15z m3464 -1 c7 -19 8 -17 -21 -33 -56 -29 0
-51 167 -66 67 -6 100 -18 87 -31 -4 -4 -57 -3 -119 2 -97 8 -240 4 -328 -8
-19 -2 -26 2 -28 19 -3 20 2 22 68 29 39 3 73 11 76 16 10 16 -11 29 -55 35
-57 8 -56 33 2 34 23 0 60 4 82 8 59 13 62 12 69 -5z m-1643 1 c47 -15 13 -26
-81 -24 -90 1 -110 5 -95 20 7 8 154 11 176 4z m1037 -52 c-3 -14 -12 -17 -42
-16 -44 3 -51 7 -41 22 3 6 24 11 46 11 33 0 40 -3 37 -17z m-1014 -34 c5 -5
8 -10 5 -12 -11 -10 -229 6 -229 17 0 14 210 10 224 -5z m-1837 -16 c9 -24
-10 -29 -104 -25 -193 7 -243 7 -243 -2 0 -9 -177 -2 -187 7 -3 4 -3 13 1 22
5 14 37 15 267 14 219 -1 262 -4 266 -16z m1297 -2 c10 -16 -27 -23 -149 -27
-66 -2 -137 -10 -158 -16 -27 -8 -41 -8 -48 -1 -15 15 -1 36 18 29 9 -4 21 -2
27 3 16 14 57 18 188 20 64 0 119 -3 122 -8z m-691 -16 c40 -16 11 -25 -85
-26 -114 -1 -171 1 -177 7 -2 2 -1 10 3 19 5 13 23 15 123 11 65 -2 126 -7
136 -11z m3185 -8 c3 -15 -1 -17 -25 -11 -35 8 -37 10 -28 24 10 17 49 8 53
-13z m-878 -17 c0 -32 0 -32 -75 -30 -63 1 -85 8 -85 25 0 16 70 26 87 12 9
-6 20 -4 35 6 33 23 38 21 38 -13z m1750 13 c30 -5 55 -12 55 -18 0 -15 -100
-24 -307 -27 -171 -2 -189 -1 -201 15 -7 10 -19 17 -26 15 -7 -2 -15 2 -18 9
-3 7 9 13 29 15 53 6 408 -1 468 -9z m-3020 -18 c0 -8 -4 -15 -9 -15 -13 0
-22 16 -14 24 11 11 23 6 23 -9z m192 -13 c9 -9 -1 -12 -54 -12 -70 0 -131 16
-111 28 18 11 151 -2 165 -16z m405 7 c6 -6 36 -12 67 -13 32 0 55 -5 53 -11
-2 -5 -28 -9 -58 -7 -46 2 -56 -1 -67 -19 -7 -11 -12 -22 -10 -24 2 -2 37 -7
77 -12 104 -11 108 -33 7 -33 -61 0 -78 -3 -83 -16 -9 -23 15 -34 74 -34 60 0
83 -7 83 -26 0 -10 -17 -13 -72 -11 -40 1 -80 0 -88 -3 -13 -4 -15 11 -18 94
-3 123 4 146 35 115z m-2579 -46 c13 -3 21 -10 19 -17 -2 -7 -27 -10 -71 -8
-65 4 -126 -11 -126 -29 0 -5 -4 -9 -10 -9 -13 0 -13 36 1 62 10 19 17 20 88
14 42 -4 86 -10 99 -13z m344 4 c3 -6 4 -16 1 -23 -4 -11 -35 -13 -137 -12
-72 0 -137 3 -143 6 -19 6 -16 18 7 28 30 13 263 14 272 1z m1288 -3 c0 -7
-30 -12 -82 -14 -46 -1 -108 -3 -139 -4 -58 -2 -119 -22 -119 -38 0 -5 -4 -6
-10 -3 -17 11 -11 34 13 46 43 24 337 35 337 13z m2475 -4 c58 -22 7 -30 -190
-29 -110 1 -237 1 -282 0 -74 -1 -83 1 -83 17 0 10 3 22 7 26 11 11 516 -2
548 -14z m-3138 -5 c6 -18 -67 -31 -157 -29 -119 2 -120 2 -120 19 0 11 19 15
88 17 145 5 185 3 189 -7z m4033 -9 c0 -7 11 -19 25 -26 53 -28 19 -52 -64
-44 -25 2 -125 6 -221 8 -96 2 -183 7 -192 11 -45 19 -4 24 161 20 167 -4 180
-3 201 15 13 11 31 18 41 15 10 -3 19 1 23 10 7 18 26 11 26 -9z m440 -6 c0
-26 4 -30 38 -35 52 -9 62 -13 62 -25 0 -17 -106 -12 -124 6 -19 18 -21 55 -4
72 19 19 28 14 28 -18z m1236 20 c15 0 24 -6 24 -16 0 -11 -5 -14 -16 -10 -9
4 -23 1 -30 -5 -11 -9 -18 -8 -28 1 -18 14 -9 43 11 36 8 -3 26 -6 39 -6z
m374 -9 c0 -16 -19 -23 -40 -16 -30 10 -24 25 10 25 17 0 30 -4 30 -9z m-4864
-14 c15 -15 -7 -18 -110 -19 -103 0 -126 4 -126 22 0 11 226 8 236 -3z m1044
3 c10 -6 11 -12 5 -19 -14 -14 -167 1 -173 17 -5 15 144 17 168 2z m1280 -24
c0 -3 -4 -8 -10 -11 -5 -3 -10 -1 -10 4 0 6 5 11 10 11 6 0 10 -2 10 -4z
m-4235 -26 c3 -5 21 -10 40 -10 31 0 55 -23 35 -35 -12 -7 -478 -7 -490 0 -15
9 -40 -13 -40 -35 0 -25 41 -29 298 -30 123 0 228 -3 233 -6 6 -4 6 -11 -1
-19 -14 -17 -515 -21 -536 -4 -17 14 -19 115 -3 124 6 4 99 7 207 6 113 0 203
3 212 9 19 13 37 13 45 0z m692 -17 c3 -9 -33 -13 -137 -15 -138 -3 -176 3
-128 21 36 13 261 8 265 -6z m383 5 c28 7 107 12 176 12 104 0 124 -2 124 -15
0 -12 -16 -15 -87 -15 -214 -1 -266 -12 -249 -55 5 -13 15 -15 48 -11 102 13
277 16 283 6 4 -6 5 -14 2 -16 -4 -4 -232 -15 -326 -16 -32 0 -41 17 -41 77 0
34 3 45 9 36 8 -12 18 -13 61 -3z m1888 -3 c2 -2 2 -12 -2 -21 -5 -13 -14 -15
-59 -8 -28 4 -70 8 -92 9 -28 0 -41 5 -43 16 -3 14 9 16 94 13 54 -2 99 -6
102 -9z m327 5 c3 -5 1 -10 -4 -10 -6 0 -11 5 -11 10 0 6 2 10 4 10 3 0 8 -4
11 -10z m513 0 c37 0 52 -4 52 -14 0 -7 -10 -16 -22 -20 -24 -6 -430 12 -510
23 -5 1 -8 6 -8 11 0 7 74 9 218 5 119 -2 241 -5 270 -5z m3055 -9 c26 -26
-11 -29 -258 -26 -140 2 -260 7 -265 10 -24 15 7 26 71 24 38 -1 73 1 76 5 11
10 365 -2 376 -13z m-5053 -1 c42 6 90 1 90 -11 0 -12 -58 -20 -115 -15 -27 2
-58 5 -67 5 -10 1 -18 5 -18 10 0 12 40 19 60 11 8 -3 31 -4 50 0z m4182 -18
c25 -25 -12 -33 -120 -28 -64 4 -111 1 -126 -5 -18 -9 -33 -8 -57 0 -27 9 -36
9 -47 -3 -8 -8 -12 -18 -8 -24 3 -5 74 -13 158 -17 148 -7 195 -16 183 -35 -7
-12 -364 -10 -372 2 -3 6 0 15 6 21 6 6 11 25 11 43 0 61 -5 59 185 59 129 0
177 -3 187 -13z m-1248 -19 c16 -5 32 -15 34 -23 4 -11 -19 -12 -134 -5 -77 4
-204 9 -284 11 -80 2 -144 6 -142 9 1 3 2 8 2 13 0 11 489 7 524 -5z m-1204
-19 c91 -4 198 -7 239 -8 84 -1 98 -12 87 -67 l-6 -34 -137 3 c-76 1 -145 3
-153 3 -8 0 -27 -3 -41 -6 -20 -5 -29 -2 -42 19 -16 23 -16 25 1 30 17 5 67 9
90 7 6 -1 12 -7 12 -15 0 -12 21 -13 122 -9 68 2 125 6 127 9 2 2 -1 10 -8 17
-14 18 -164 29 -383 28 -137 0 -168 2 -168 14 0 14 36 22 75 18 11 -1 94 -5
185 -9z m1673 5 c48 -1 67 -6 67 -15 0 -17 -32 -34 -63 -34 -29 0 -97 27 -97
38 0 12 12 22 20 17 4 -2 37 -5 73 -6z m-4508 -18 c-15 -14 -285 -26 -285 -13
0 16 25 20 165 21 79 1 125 -3 120 -8z m2243 -9 c5 -16 -134 -10 -151 7 -9 9
5 11 67 9 51 -2 81 -8 84 -16z m3752 5 c173 -2 175 -2 178 -24 3 -23 1 -23
-105 -24 -200 -1 -414 -9 -424 -14 -5 -4 -9 -14 -9 -23 0 -14 10 -17 63 -16
220 5 445 5 460 -1 9 -4 17 -13 17 -20 0 -9 -34 -13 -132 -14 -186 -3 -409
-16 -432 -26 -16 -7 -18 -4 -13 31 4 21 9 62 12 91 l7 52 101 -5 c56 -3 181
-6 277 -7z m-4760 -36 c0 -17 -6 -33 -12 -38 -7 -4 -58 -8 -113 -8 -93 0 -100
-1 -100 -20 0 -17 8 -20 53 -23 39 -2 52 -7 52 -19 0 -15 1 -15 -105 -1 -17 3
-20 11 -20 53 l0 50 95 8 c52 5 102 13 110 18 28 16 40 10 40 -20z m2290 19
c0 -5 -4 -10 -10 -10 -5 0 -10 5 -10 10 0 6 5 10 10 10 6 0 10 -4 10 -10z
m518 -15 c6 -2 12 -11 12 -20 0 -16 15 -16 -375 1 -66 3 -122 7 -124 9 -1 2 0
8 3 13 6 10 455 6 484 -3z m-2320 -21 c12 -2 22 -12 22 -20 0 -13 -11 -15 -67
-13 -63 4 -68 2 -71 -17 -4 -28 40 -44 97 -37 34 5 41 3 41 -11 0 -23 -35 -34
-88 -26 -25 4 -53 5 -63 3 -23 -6 -32 26 -24 88 l7 50 61 -6 c34 -3 72 -8 85
-11z m1000 -6 c2 -10 11 -18 20 -18 13 0 13 -3 4 -12 -10 -10 -17 -10 -32 -1
-16 11 -20 9 -25 -6 -5 -18 -43 -31 -91 -31 -18 0 -24 7 -30 34 -3 19 -3 39 0
45 4 6 38 10 78 9 60 -1 72 -4 76 -20z m-2711 -12 c-2 -7 -50 -13 -131 -16
-98 -4 -129 -8 -136 -20 -19 -31 -3 -35 130 -35 88 0 134 -4 137 -11 3 -8 -36
-11 -123 -11 -108 -1 -128 -3 -136 -17 -16 -28 -2 -46 37 -46 19 0 35 -4 35
-9 0 -12 -64 -21 -68 -10 -2 5 -10 9 -18 9 -8 0 -14 8 -14 18 -1 9 -3 43 -7
74 -5 56 -5 58 23 69 16 7 70 14 119 16 50 2 94 5 100 7 20 5 56 -7 52 -18z
m4562 8 c23 -20 -106 -35 -138 -15 -7 5 -10 14 -6 21 5 8 27 9 74 4 36 -3 68
-8 70 -10z m-2319 -10 c0 -11 -19 -14 -80 -14 -44 0 -80 4 -80 9 0 14 16 17
91 17 52 1 69 -2 69 -12z m-1593 -10 c2 -7 -15 -11 -44 -13 -29 -1 -44 2 -38
8 22 20 76 24 82 5z m-137 -8 c0 -12 -15 -14 -70 -13 -72 1 -83 12 -20 20 74
8 90 7 90 -7z m-1136 -22 c3 -9 6 -20 6 -25 0 -5 -92 -9 -217 -9 -251 1 -349
8 -334 23 6 6 109 11 257 14 137 2 250 6 253 8 10 10 29 4 35 -11z m966 -13
c0 -21 6 -30 22 -35 32 -8 9 -29 -28 -24 -31 3 -40 23 -30 64 9 35 36 31 36
-5z m3658 15 c15 -16 -27 -23 -140 -25 -67 -1 -125 -4 -130 -7 -4 -3 -49 -6
-100 -7 -66 -1 -92 2 -95 11 -3 8 7 12 29 13 18 0 44 2 58 4 14 1 56 5 94 9
38 3 71 7 72 9 6 6 205 -1 212 -7z m1255 -15 c23 -23 -11 -28 -172 -25 -170 2
-191 5 -191 27 0 15 348 13 363 -2z m-4048 -10 c3 -5 1 -13 -5 -16 -14 -9 -70
4 -70 16 0 12 67 12 75 0z m1052 -13 c14 -11 17 -47 5 -64 -8 -12 -139 -18
-184 -8 -25 5 -28 10 -28 43 0 21 2 40 5 42 9 9 190 -3 202 -13z m713 -10 c38
14 162 9 167 -5 3 -8 -4 -13 -16 -13 -11 0 -22 -4 -25 -9 -3 -5 -45 -9 -92
-10 -48 -1 -90 -3 -94 -6 -4 -3 -27 2 -50 10 -51 18 -92 19 -108 3 -8 -8 -15
-8 -27 2 -13 11 -18 10 -33 -4 -10 -9 -30 -16 -44 -16 -29 0 -43 23 -25 38 13
11 24 12 123 12 34 0 72 3 85 8 15 6 39 4 68 -5 30 -9 54 -10 71 -5z m1548 3
c4 -11 -4 -13 -37 -7 -37 6 -42 4 -39 -11 2 -14 16 -19 58 -23 40 -4 55 -9 55
-20 0 -22 -54 -44 -102 -42 -47 2 -60 -9 -39 -31 12 -11 26 -12 72 -5 44 7 59
6 65 -4 13 -20 -17 -36 -61 -34 -22 1 -42 -3 -44 -8 -2 -6 -5 -3 -5 6 -1 12
-12 18 -38 20 -32 2 -37 6 -35 23 2 11 6 40 8 65 10 94 7 91 76 88 42 -2 63
-7 66 -17z m-4048 -21 c0 -5 -4 -10 -10 -10 -5 0 -10 5 -10 10 0 6 5 10 10 10
6 0 10 -4 10 -10z m175 0 c-3 -5 -15 -10 -25 -10 -10 0 -22 5 -25 10 -4 6 7
10 25 10 18 0 29 -4 25 -10z m3358 -2 c35 0 38 -2 35 -25 l-3 -26 -190 -1
c-166 -1 -190 -3 -193 -17 -2 -14 5 -15 50 -11 43 3 51 2 41 -9 -14 -15 -53
-20 -173 -22 l-85 -2 0 45 0 45 40 1 c153 6 327 17 356 24 19 5 45 6 59 3 14
-3 42 -5 63 -5z m2125 -17 c15 -1 22 -7 22 -21 0 -19 -7 -20 -105 -20 -93 0
-105 2 -105 18 -1 16 -1 16 -14 0 -10 -13 -26 -17 -67 -16 -30 1 -103 0 -164
-1 -109 -4 -110 -4 -113 20 l-3 24 113 0 c62 -1 158 2 213 5 55 3 123 2 150
-2 28 -3 60 -7 73 -7z m-6805 -16 c43 -18 6 -24 -135 -23 -246 2 -284 -1 -303
-22 -29 -32 -10 -42 61 -35 43 5 69 4 78 -4 9 -8 16 -8 20 -2 4 5 37 10 75 9
38 0 74 3 80 6 14 9 181 -4 181 -14 0 -14 -78 -20 -255 -21 -165 0 -176 -2
-186 -21 -6 -11 -9 -22 -6 -24 2 -2 107 -5 233 -6 l229 -3 3 -53 3 -53 -38 5
c-21 2 -46 5 -55 5 -12 1 -16 9 -15 28 2 25 -2 28 -43 35 -25 5 -49 8 -55 7
-5 0 -71 -2 -145 -4 -74 -2 -135 -5 -135 -6 0 -7 -86 -5 -90 1 -10 16 -12 89
-4 92 5 2 5 19 -1 38 -18 63 -11 69 98 72 161 5 386 1 405 -7z m5885 3 c19 -5
31 -15 29 -21 -8 -23 -347 -3 -355 21 -3 11 25 13 144 11 82 -1 164 -6 182
-11z m-4000 -15 c3 -10 -22 -13 -102 -13 -60 0 -106 4 -106 9 0 21 201 24 208
4z m-1250 1 c12 -4 22 -10 22 -15 0 -12 -107 -12 -115 0 -9 16 52 26 93 15z
m717 -14 c3 -5 8 -79 11 -164 l5 -156 -93 -1 c-51 -1 -97 0 -103 1 -5 1 -47 3
-93 4 l-83 1 -4 70 c-2 39 -7 109 -10 157 l-6 87 28 3 c65 7 343 5 348 -2z
m1055 -9 c0 -23 -163 -24 -168 -1 -2 12 13 15 83 16 71 1 85 -2 85 -15z m1366
9 c15 0 24 -6 24 -15 0 -11 -11 -15 -37 -16 -21 0 -54 -2 -73 -4 -19 -2 -126
-6 -237 -9 -173 -5 -203 -3 -203 9 0 16 40 30 68 23 9 -2 91 1 182 8 91 7 185
10 209 8 24 -2 54 -4 67 -4z m889 -21 c4 -6 5 -12 4 -14 -2 -2 -48 -6 -102 -9
-75 -4 -97 -2 -94 7 7 21 180 36 192 16z m1094 -25 c127 -7 141 -10 141 -31 0
-12 -15 -13 -87 -9 -49 3 -127 5 -175 6 -70 0 -88 3 -88 15 0 21 31 35 65 30
17 -2 81 -7 144 -11z m1061 -9 c7 -9 10 -19 6 -23 -4 -4 -125 -7 -269 -8 -144
0 -272 -4 -284 -8 -19 -6 -23 -4 -23 13 0 12 1 22 3 22 3 2 358 15 463 17 71
2 94 -1 104 -13z m-6123 -17 c7 -6 11 -13 9 -17 -3 -4 2 -72 10 -152 8 -79 12
-155 9 -168 l-6 -23 -130 7 c-98 6 -133 4 -145 -5 -9 -8 -18 -10 -24 -4 -8 8
-21 191 -24 334 l-1 35 75 5 c94 7 211 0 227 -12z m1208 10 c3 -3 8 -167 6
-201 -1 -17 -11 -18 -128 -15 l-128 4 -1 104 c-1 58 1 109 4 114 4 7 240 2
247 -6z m1012 -13 c1 -5 -1 -16 -6 -24 -8 -12 -14 -12 -40 -2 -17 7 -51 14
-77 15 -27 0 -49 6 -51 13 -3 9 18 12 83 10 48 -1 89 -6 91 -12z m-559 -10
c53 -4 54 -5 58 -52 6 -70 3 -73 -92 -73 -48 0 -85 4 -85 10 -5 33 -2 35 61
40 57 4 65 8 65 25 0 18 -7 20 -62 20 -52 0 -63 3 -63 17 0 21 18 28 50 21 14
-3 44 -6 68 -8z m1446 -1 c3 -9 4 -19 1 -23 -7 -12 -498 -34 -547 -25 -35 7
-36 21 -3 36 18 8 28 8 39 -1 11 -9 52 -11 158 -6 78 4 145 8 148 10 4 2 34 5
68 6 33 1 67 6 74 10 22 14 55 10 62 -7z m751 6 c4 -6 16 -8 28 -4 12 4 41 8
64 9 34 2 44 -1 49 -17 3 -11 3 -23 -1 -26 -8 -8 -445 -10 -494 -2 -19 3 -34
9 -35 14 -1 12 22 14 174 17 69 1 134 6 145 10 29 11 63 11 70 -1z m505 -30
c0 -5 -4 -10 -10 -10 -5 0 -10 5 -10 10 0 6 5 10 10 10 6 0 10 -4 10 -10z
m154 -19 c4 -5 3 -17 0 -26 -6 -14 -18 -16 -75 -12 -37 3 -72 8 -78 12 -16 10
-13 23 7 28 32 9 141 7 146 -2z m606 -2 c45 -1 70 -9 70 -24 0 -12 -27 -14
-171 -11 -93 2 -173 6 -176 9 -3 4 -3 13 0 22 5 13 24 14 129 9 68 -3 134 -5
148 -5z m949 5 c18 -4 31 -13 31 -21 0 -12 -12 -14 -65 -9 -35 3 -67 1 -70 -3
-2 -5 -55 -12 -117 -16 -137 -8 -148 -11 -148 -37 0 -18 4 -19 34 -14 55 11
93 -15 41 -28 -44 -11 -106 4 -115 29 -17 45 -80 38 -80 -9 0 -16 -7 -26 -21
-29 -13 -4 -20 -12 -17 -24 2 -14 14 -19 56 -21 60 -4 71 -22 13 -22 -21 0
-53 -3 -70 -6 l-31 -6 1 43 c0 24 6 71 13 103 l12 60 119 -3 c66 -1 122 -4
125 -6 4 -2 26 2 51 10 46 14 184 19 238 9z m-3919 -27 c66 3 90 -4 90 -27 0
-19 -5 -20 -52 -16 -113 10 -158 19 -158 31 0 21 13 26 45 18 16 -4 50 -7 75
-6z m1834 -19 c5 -9 7 -21 2 -25 -13 -14 -530 -7 -534 7 -3 7 0 15 6 19 6 3
106 6 222 5 117 -1 224 2 238 6 36 11 53 8 66 -12z m-879 -12 c0 -16 -9 -19
-70 -21 -38 -2 -99 -6 -135 -9 -36 -3 -103 -8 -149 -11 -55 -3 -90 -9 -99 -19
-21 -21 -5 -39 30 -32 21 4 28 2 25 -7 -6 -17 -155 -18 -172 0 -15 14 -9 83 8
94 9 6 212 5 232 -1 6 -2 21 0 35 4 14 4 37 3 52 -3 15 -6 29 -6 35 0 8 8 160
28 193 25 8 -1 15 -10 15 -20z m1405 -34 c0 -23 -3 -24 -41 -19 -23 3 -51 2
-63 -2 -26 -10 -66 4 -66 23 0 18 27 24 108 23 59 -1 62 -2 62 -25z m658 4 c7
-4 12 -14 12 -22 0 -13 -22 -14 -162 -10 -156 6 -206 16 -160 33 26 10 294 9
310 -1z m-6022 -8 c4 -5 2 -8 -5 -8 -7 0 -16 -12 -22 -27 l-9 -28 -98 2 c-53
1 -123 2 -154 2 -58 0 -58 0 -58 30 l0 30 107 0 c58 1 108 2 109 4 7 6 123 2
130 -5z m6982 -11 c15 -17 16 -80 9 -437 -7 -330 -10 -830 -5 -975 l3 -90 -25
2 c-14 1 -83 5 -155 8 -82 3 -141 10 -161 20 -20 9 -81 16 -185 20 -85 3 -169
9 -187 14 -23 7 -40 6 -59 -4 -40 -21 -47 -6 -34 72 6 37 13 93 15 123 14 178
57 454 77 491 6 13 6 25 0 38 -6 10 -8 21 -5 24 3 2 12 60 19 128 20 170 44
312 54 322 11 11 47 14 241 21 167 6 257 22 265 45 3 9 22 23 43 30 38 14 52
27 52 48 0 17 -107 55 -128 44 -34 -17 -127 -22 -148 -7 -12 10 -16 18 -9 24
19 18 101 35 200 42 55 3 103 7 106 8 4 1 11 -4 17 -11z m-2567 -13 c53 -18
54 -30 4 -36 -22 -2 -30 -8 -30 -23 0 -19 7 -20 195 -20 107 -1 205 2 217 7
13 4 25 2 30 -5 11 -14 -6 -273 -32 -497 -9 -80 -19 -170 -21 -200 -2 -30 -8
-89 -13 -130 -6 -41 -17 -167 -26 -280 -17 -226 -23 -281 -34 -299 -5 -7 -24
-16 -43 -20 -45 -10 -184 34 -252 79 -26 18 -76 41 -112 52 l-64 19 -1 67 c-1
37 0 72 1 77 1 6 4 66 6 135 2 69 8 190 14 270 10 145 26 407 36 595 9 182 13
205 37 215 30 12 32 12 88 -6z m-1422 -6 c51 -1 86 -6 92 -14 6 -7 9 -32 7
-56 l-3 -43 -60 0 c-81 -1 -138 8 -142 21 -2 7 21 9 74 7 85 -5 122 9 110 41
-5 12 -20 16 -59 17 -105 2 -112 3 -116 23 -2 10 0 16 6 12 5 -3 46 -7 91 -8z
m1842 -5 c7 -7 11 -15 8 -17 -3 -4 -306 -10 -351 -7 -24 1 -23 20 2 29 36 13
327 9 341 -5z m-2291 -2 c6 0 10 -5 10 -11 0 -13 -127 -13 -134 -1 -4 5 -2 11
4 13 9 3 95 2 120 -1z m1383 -11 c30 -1 46 -25 29 -42 -8 -8 -19 -8 -39 1 -15
6 -91 12 -167 14 -95 1 -141 6 -143 14 -2 6 4 13 14 15 15 3 194 2 306 -2z
m1418 -23 c44 -28 11 -35 -60 -13 -64 19 -68 41 -6 31 26 -3 56 -12 66 -18z
m-112 -3 c3 -3 -1 -10 -7 -16 -7 -7 -12 -15 -12 -19 0 -11 88 -32 115 -27 19
4 29 0 36 -14 17 -32 4 -47 -43 -46 -24 0 -52 -2 -63 -5 -11 -3 -23 -6 -27 -6
-5 -1 -8 -8 -8 -16 0 -17 49 -28 105 -23 l40 3 1 -55 c1 -30 -2 -122 -7 -205
-4 -82 -10 -199 -13 -260 -3 -60 -8 -159 -11 -220 -3 -60 -7 -177 -9 -260 -8
-266 -28 -600 -36 -608 -4 -5 -65 -8 -134 -8 -70 1 -135 -3 -145 -9 -24 -12
-33 7 -22 47 4 15 9 71 10 123 1 52 6 124 12 160 6 36 14 101 19 145 5 44 18
150 29 235 11 85 20 166 20 180 0 14 4 63 10 110 5 47 17 166 26 265 8 99 20
218 26 265 6 47 13 121 16 165 7 97 16 119 46 109 12 -3 24 -8 26 -10z m-4979
-33 l0 -40 -122 4 c-68 2 -124 4 -126 4 -2 1 6 13 18 29 19 24 30 28 93 33
149 12 137 14 137 -30z m5774 19 c4 -5 5 -13 1 -20 -5 -8 -51 -9 -168 -4 -89
3 -165 8 -169 11 -5 2 -8 10 -8 16 0 10 40 12 168 9 92 -2 171 -8 176 -12z
m-4126 -16 c39 -11 24 -24 -27 -24 -72 0 -76 20 -6 29 6 0 20 -2 33 -5z
m-1938 -25 c19 -11 15 -11 -122 -13 -73 -1 -108 2 -108 9 0 7 29 12 77 13 42
2 79 5 81 7 6 6 51 -5 72 -16z m2060 11 c-36 -12 -60 -12 -60 0 0 6 19 10 43
9 36 -1 38 -2 17 -9z m1926 -187 c-2 -109 -7 -227 -10 -263 -3 -36 -8 -94 -11
-130 -3 -36 -7 -92 -10 -125 -3 -33 -7 -125 -10 -205 -2 -80 -8 -191 -11 -247
l-7 -103 -41 0 c-47 0 -159 -33 -264 -79 -75 -32 -84 -32 -167 -9 -70 20 -67
10 -60 232 3 111 7 379 10 596 2 217 6 402 10 411 5 13 23 16 93 17 48 0 94 1
102 1 8 0 63 -2 123 -4 101 -5 107 -4 107 14 0 11 -5 23 -10 26 -6 4 -96 7
-200 9 -180 2 -220 7 -192 25 11 7 194 15 262 11 105 -5 265 1 273 9 6 6 13
11 14 11 2 0 2 -89 -1 -197z m2871 171 c6 -19 -40 -26 -53 -8 -7 8 -14 11 -15
6 -2 -5 -45 -12 -96 -15 -50 -3 -100 -10 -110 -15 -28 -15 -101 -23 -108 -12
-3 5 -12 7 -20 3 -9 -3 -15 1 -15 11 0 20 23 25 138 30 51 2 95 6 97 8 10 9
179 2 182 -8z m-4267 -4 c0 -5 -11 -10 -25 -10 -14 0 -25 5 -25 10 0 6 11 10
25 10 14 0 25 -4 25 -10z m-1113 -6 c33 -9 18 -24 -23 -24 -33 0 -46 13 -21
23 17 7 19 7 44 1z m4398 -4 c8 -12 -38 -24 -70 -17 -20 3 -27 -1 -31 -20 -4
-13 -3 -27 1 -31 4 -4 59 -6 123 -4 167 5 160 13 138 -174 -9 -82 -21 -167
-26 -189 -5 -22 -12 -74 -15 -115 -3 -41 -10 -102 -15 -135 -11 -65 -24 -185
-41 -360 -6 -60 -14 -128 -19 -150 -5 -22 -10 -59 -10 -83 0 -59 -14 -82 -50
-82 -15 0 -41 -11 -57 -23 -15 -13 -48 -27 -73 -31 -25 -4 -55 -14 -68 -22
-37 -24 -45 -9 -38 70 4 39 7 78 8 86 0 8 4 69 9 134 5 66 11 167 14 225 3 58
12 180 20 271 8 91 17 220 20 288 4 67 8 132 11 145 3 12 5 56 5 97 0 42 4 82
9 90 16 26 142 51 155 30z m65 -4 c0 -9 -7 -12 -20 -9 -11 3 -20 9 -20 14 0 5
9 9 20 9 11 0 20 -6 20 -14z m-4544 -5 c-3 -4 -39 -7 -80 -5 -55 3 -77 0 -86
-11 -21 -25 -1 -36 59 -34 31 2 76 2 101 1 75 -3 32 -21 -66 -26 -50 -3 -97
-6 -105 -8 -10 -2 -15 10 -17 45 l-3 47 101 0 c56 0 99 -4 96 -9z m4634 -6 c0
-8 -6 -15 -14 -15 -7 0 -19 7 -26 15 -11 13 -8 15 14 15 16 0 26 -5 26 -15z
m-3960 -5 c0 -5 -4 -10 -10 -10 -5 0 -10 5 -10 10 0 6 5 10 10 10 6 0 10 -4
10 -10z m4335 1 c3 -5 1 -12 -5 -16 -5 -3 -10 1 -10 9 0 18 6 21 15 7z m-6375
-11 c0 -5 -8 -10 -19 -10 -10 0 -24 -6 -30 -14 -7 -8 -28 -13 -54 -12 -23 1
-70 3 -105 4 -42 1 -61 6 -57 13 4 6 12 9 19 6 6 -2 54 2 106 8 125 16 140 17
140 5z m60 0 c0 -5 -4 -10 -9 -10 -6 0 -13 5 -16 10 -3 6 1 10 9 10 9 0 16 -4
16 -10z m85 0 c-3 -5 -17 -10 -31 -10 -13 0 -24 5 -24 10 0 6 14 10 31 10 17
0 28 -4 24 -10z m65 0 c0 -13 -20 -13 -40 0 -12 8 -9 10 13 10 15 0 27 -4 27
-10z m1759 6 c-11 -9 -99 -15 -99 -6 0 6 23 10 52 10 28 0 49 -2 47 -4z m-449
-36 c0 -18 -7 -20 -55 -20 -30 0 -55 5 -55 10 0 6 17 10 38 10 20 0 44 5 52
10 20 13 20 13 20 -10z m1502 7 l73 -2 -1 -290 c-1 -159 -2 -440 -3 -623 -1
-257 -4 -333 -13 -336 -30 -8 -126 -28 -160 -33 -32 -4 -38 -2 -38 13 -1 26 1
387 3 868 2 388 3 399 22 406 11 4 26 5 32 3 7 -3 45 -6 85 -6z m-441 -139 c4
-438 2 -520 -11 -528 -8 -5 -19 -6 -24 -2 -6 3 -40 6 -76 7 l-65 0 -1 90 c0
50 -2 176 -3 280 -2 105 -3 213 -2 240 l1 51 90 2 90 3 1 -143z m-511 108 c7
-10 13 -78 16 -203 2 -103 6 -227 8 -276 5 -118 2 -129 -39 -124 -55 8 -76 33
-32 39 14 2 22 10 22 22 0 18 -9 20 -104 22 -57 2 -106 6 -110 9 -9 10 -18
296 -12 373 l6 67 85 5 c70 4 85 8 88 22 3 15 -8 18 -79 20 -53 2 -84 7 -86
15 -3 9 17 13 69 16 40 1 92 4 114 5 26 1 46 -3 54 -12z m-1810 -51 c-7 -9
-18 -12 -26 -7 -7 4 -46 4 -86 1 -40 -3 -166 -7 -280 -8 -177 -1 -208 1 -208
13 0 23 23 25 200 22 173 -3 362 8 389 24 12 7 17 4 19 -11 2 -11 -2 -27 -8
-34z m570 22 c41 -1 55 -6 55 -17 0 -13 -21 -15 -130 -15 -71 0 -142 -4 -158
-9 -26 -8 -27 -7 -19 15 8 20 18 25 58 29 27 3 69 4 94 2 25 -2 70 -4 100 -5z
m655 -21 c11 -1 18 -5 15 -11 -3 -6 -56 -9 -135 -6 -120 3 -132 1 -157 -18
-34 -27 -40 -27 -36 7 l3 27 100 6 c55 3 120 3 145 1 24 -3 54 -5 65 -6z
m-1208 -73 c6 -18 -6 -20 -167 -27 -310 -12 -455 -10 -455 5 0 11 30 16 140
21 77 4 146 9 154 10 43 8 325 0 328 -9z m1138 8 c18 -7 17 -8 -6 -13 -30 -5
-51 0 -43 13 6 11 21 11 49 0z m-526 -11 c2 0 -2 -6 -8 -13 -7 -10 -50 -16
-135 -20 -69 -4 -130 -8 -138 -9 -7 -2 -13 6 -13 17 0 16 9 21 40 26 29 5 207
4 254 -1z m544 -43 c53 1 97 -1 98 -5 0 -4 2 -20 4 -37 2 -16 7 -105 11 -196
6 -136 4 -168 -7 -175 -8 -5 -54 -10 -103 -11 -78 -1 -120 -13 -105 -27 3 -3
53 -6 112 -8 99 -3 108 -4 112 -23 6 -29 7 -165 3 -252 -2 -21 1 -113 4 -205
9 -205 10 -203 -106 -219 -87 -12 -196 -5 -207 13 -4 6 -10 68 -13 137 -3 69
-10 171 -16 226 -5 55 -11 174 -12 265 l-3 165 60 2 c33 1 51 -1 40 -3 -38 -9
-75 -26 -75 -35 0 -12 251 -11 270 1 12 7 12 12 2 22 -6 6 -12 20 -12 30 0 16
-10 18 -75 20 -79 2 -100 3 -177 14 l-48 7 0 96 c0 53 -3 119 -6 148 l-7 52
44 4 c24 2 60 1 79 -2 19 -3 79 -5 133 -4z m-1368 -26 c6 -1 -5 -9 -22 -17
-27 -14 -36 -14 -48 -4 -12 10 -19 10 -27 2 -7 -7 -35 -12 -64 -12 -56 0 -104
-26 -90 -49 6 -10 58 -11 225 -6 170 5 219 3 232 -7 30 -24 31 -133 1 -114 -5
3 -42 6 -81 7 -74 2 -113 19 -43 19 45 0 71 20 49 39 -13 10 -347 18 -364 8
-5 -2 -46 1 -93 7 l-85 11 -3 39 c-2 21 1 43 6 48 5 5 63 10 129 12 65 2 126
7 135 12 14 7 101 10 143 5z m175 -7 c0 -14 -10 -15 -72 -9 -104 10 -109 25
-10 25 69 0 82 -3 82 -16z m665 -99 c4 -48 4 -89 1 -92 -3 -3 -45 -7 -93 -9
-114 -4 -164 -9 -185 -18 -14 -6 -17 1 -23 48 -11 83 -8 86 77 86 40 0 79 -4
86 -9 22 -13 76 2 80 23 6 27 -17 37 -65 30 -47 -7 -136 3 -129 14 2 4 58 9
124 10 l120 3 7 -86z m-1032 -74 c91 -1 147 -5 147 -11 0 -6 -45 -10 -115 -10
-95 0 -117 -3 -122 -15 -3 -9 -3 -19 1 -22 3 -4 87 -6 186 -5 110 1 181 -2
185 -8 4 -6 -13 -11 -42 -11 -131 -4 -155 -7 -166 -18 -21 -22 21 -44 72 -37
24 3 77 6 119 6 l75 0 -6 30 -6 30 49 0 c43 0 50 -3 54 -22 9 -45 18 -150 31
-353 3 -44 10 -146 16 -228 7 -81 9 -150 6 -153 -3 -3 -55 -7 -116 -9 -102 -2
-114 -5 -150 -30 -38 -26 -43 -26 -128 -20 -101 8 -216 -6 -261 -32 -17 -10
-34 -15 -37 -11 -4 4 -6 67 -5 140 1 73 2 138 2 143 0 6 -3 151 -7 322 -3 172
-4 317 -1 322 3 5 20 7 38 5 18 -1 99 -3 181 -3z m922 -90 c-8 -13 -55 -15
-55 -2 0 5 12 11 28 13 32 4 36 3 27 -11z m100 9 c3 -5 -3 -10 -14 -10 -12 0
-21 5 -21 10 0 6 6 10 14 10 8 0 18 -4 21 -10z m-250 -30 c-3 -5 -10 -10 -16
-10 -5 0 -9 5 -9 10 0 6 7 10 16 10 8 0 12 -4 9 -10z m253 -42 c-3 -9 -39 -15
-116 -18 -105 -5 -142 -15 -129 -37 3 -5 65 -8 137 -8 124 1 131 0 135 -20 2
-11 9 -101 15 -200 6 -99 14 -207 18 -240 4 -33 7 -103 7 -155 l0 -95 -75 1
c-41 0 -94 7 -118 14 -28 8 -47 9 -53 3 -14 -14 -1 -39 27 -52 24 -11 25 -35
1 -26 -16 6 -41 -10 -33 -23 6 -10 43 -20 111 -28 51 -7 95 9 95 35 0 22 29
36 43 22 17 -17 31 -260 16 -277 -10 -12 -34 -13 -134 -8 -82 4 -125 3 -129
-4 -14 -23 37 -33 151 -31 107 2 117 1 123 -17 7 -18 22 -205 22 -269 -1 -16
4 -88 9 -160 5 -71 10 -150 10 -175 1 -25 7 -146 15 -270 8 -124 17 -283 20
-355 3 -71 6 -139 7 -150 2 -15 -4 -20 -25 -21 -14 -1 -50 -17 -80 -36 -29
-20 -64 -39 -78 -43 -14 -4 -40 -18 -58 -32 -25 -19 -32 -31 -30 -51 4 -35 30
-39 60 -9 12 14 35 27 49 31 39 9 122 67 134 94 5 12 14 21 20 19 18 -6 23
-51 24 -208 l1 -157 -40 -40 c-22 -22 -40 -47 -40 -56 0 -9 -8 -16 -18 -16
-21 0 -50 -29 -77 -77 -16 -27 -17 -36 -7 -58 10 -21 18 -26 40 -23 21 2 32
13 50 50 19 39 30 49 60 58 20 5 42 10 49 10 16 0 34 55 21 68 -17 17 -2 28
59 41 32 7 63 17 68 21 6 4 35 13 66 19 48 10 59 16 69 41 15 36 5 69 -25 80
-21 8 -23 15 -26 97 -7 208 -8 200 32 209 38 9 233 23 239 18 3 -3 7 -99 8
-214 l4 -208 -24 -13 c-34 -18 -48 -41 -37 -61 11 -21 37 -23 73 -7 19 9 36 8
82 -7 54 -17 59 -17 86 -1 16 9 36 17 43 17 8 0 24 14 36 31 20 29 21 33 6 63
-11 24 -16 74 -18 189 -2 86 -1 158 2 162 3 3 28 -5 55 -17 27 -13 87 -27 134
-33 l85 -10 6 -155 c3 -85 2 -165 -3 -177 -7 -23 -48 -33 -48 -13 0 24 -123 1
-152 -28 -9 -9 -9 -15 0 -24 9 -9 23 -8 62 4 27 9 50 14 50 11 0 -2 -25 -28
-56 -56 -72 -68 -100 -112 -84 -132 18 -22 38 -19 105 15 33 16 74 30 92 30
97 1 333 141 333 199 0 8 -7 22 -16 32 -13 14 -16 43 -18 133 0 63 2 117 5
121 4 3 18 1 32 -6 20 -9 35 -8 73 5 34 11 51 13 58 6 7 -7 10 -54 10 -116 -1
-84 -5 -108 -19 -124 -11 -12 -15 -28 -12 -41 4 -13 -2 -32 -15 -50 -49 -65
18 -81 82 -19 51 50 63 56 130 64 30 4 66 15 80 26 24 18 25 21 21 129 -1 60
0 114 3 119 3 6 25 3 52 -6 45 -15 49 -15 85 6 21 12 41 22 44 22 11 0 32 -63
28 -81 -3 -11 -13 -19 -23 -19 -24 0 -51 -33 -59 -72 -5 -27 -13 -34 -36 -38
-34 -6 -41 -36 -12 -54 22 -14 47 0 65 37 7 15 21 27 32 27 10 0 22 5 25 11 5
6 31 8 74 3 54 -5 74 -3 100 11 18 9 42 18 53 20 31 6 32 10 29 90 -2 61 1 76
13 81 9 3 16 14 16 24 0 10 8 27 18 38 22 25 129 64 173 61 19 0 91 -1 161 0
125 1 128 0 133 -22 3 -12 4 -40 1 -62 -2 -22 -5 -43 -5 -46 -1 -4 -31 -14
-68 -23 -77 -19 -221 -75 -293 -112 -27 -14 -77 -36 -112 -49 -217 -79 -268
-101 -268 -113 0 -9 6 -12 18 -9 9 4 37 11 62 18 25 6 57 17 73 25 15 7 34 11
42 8 8 -3 27 1 42 10 25 13 115 56 293 138 67 31 190 69 202 62 4 -3 8 -19 8
-35 0 -27 -6 -33 -62 -59 -35 -16 -97 -38 -138 -49 -160 -42 -194 -53 -262
-86 -74 -36 -120 -67 -178 -120 -171 -157 -164 -149 -270 -310 -121 -184 -205
-305 -212 -305 -14 0 -79 -63 -94 -93 -9 -16 -45 -59 -81 -96 -36 -36 -76 -82
-88 -101 -20 -31 -149 -120 -174 -120 -8 0 -61 -22 -166 -69 -22 -10 -60 -24
-85 -31 -25 -6 -54 -16 -65 -20 -11 -4 -54 -13 -95 -19 -41 -7 -100 -18 -130
-26 -106 -26 -192 -37 -232 -32 -23 3 -65 2 -92 -3 -28 -5 -67 -11 -86 -13
-20 -2 -49 -10 -65 -18 -28 -14 -33 -25 -24 -58 6 -21 -48 -32 -99 -20 -25 5
-64 7 -87 4 -42 -7 -74 12 -60 35 3 5 2 10 -4 10 -20 0 -34 -41 -21 -64 24
-44 56 -57 148 -61 135 -6 231 34 201 84 -7 11 -10 23 -7 27 14 13 181 24 216
14 19 -5 40 -6 46 -2 39 25 146 43 146 25 0 -25 -269 -167 -355 -189 -14 -3
-28 -10 -31 -16 -3 -5 -11 -4 -20 3 -8 6 -21 8 -31 3 -10 -4 -25 -8 -33 -9 -8
-1 -60 -8 -115 -15 -111 -14 -219 -10 -370 15 -55 8 -140 20 -190 26 -49 5
-101 13 -115 17 -14 5 -56 7 -95 5 -38 -1 -121 -3 -182 -4 -64 -1 -113 -6
-113 -12 0 -5 -8 -6 -17 -3 -20 8 -118 -11 -157 -31 -37 -19 -116 -92 -116
-108 0 -19 31 -50 70 -69 28 -14 49 -16 108 -10 50 4 76 3 87 -6 8 -7 26 -9
42 -6 28 6 63 -7 51 -19 -12 -12 -82 -25 -136 -25 -69 0 -236 -27 -280 -46
-45 -18 -43 -20 -36 24 3 20 -2 84 -11 142 -9 58 -18 154 -20 214 -3 139 2
146 111 146 60 0 84 4 110 21 41 25 53 62 30 88 -9 10 -16 21 -16 24 0 11 65
8 76 -3 7 -7 21 -7 40 -1 16 5 61 12 99 16 39 3 115 19 170 35 130 37 145 39
158 18 9 -13 7 -22 -8 -38 -18 -20 -18 -24 -4 -48 8 -15 25 -28 39 -30 14 -2
30 -7 35 -12 24 -18 92 -19 231 -4 82 9 172 17 199 19 28 2 74 6 103 10 56 8
70 -4 27 -23 -26 -12 -34 -45 -13 -58 24 -15 194 -5 258 16 58 19 80 21 149
20 13 -1 31 6 40 14 10 9 23 16 30 16 31 0 164 65 203 99 24 21 62 48 84 59
39 20 74 69 74 104 0 8 11 30 25 49 70 95 175 262 175 278 0 23 131 105 169
106 19 0 27 6 29 23 5 34 -36 29 -125 -15 -59 -29 -91 -54 -149 -117 -46 -49
-74 -88 -74 -101 0 -13 -7 -25 -17 -27 -10 -3 -33 -36 -51 -74 -18 -38 -39
-80 -47 -94 -8 -14 -25 -48 -38 -76 -14 -28 -41 -63 -63 -81 -36 -27 -68 -41
-219 -88 -62 -20 -184 -43 -190 -36 -3 2 -3 19 1 36 8 47 -12 58 -103 57 -42
-1 -104 -8 -137 -16 -34 -8 -101 -17 -151 -20 -49 -3 -142 -10 -207 -16 -151
-15 -183 -11 -103 14 33 10 80 25 105 33 77 25 134 33 143 20 5 -9 11 -7 20 5
7 9 26 20 41 24 15 3 49 17 75 30 26 12 65 26 87 30 27 5 49 18 71 43 18 20
32 40 33 44 0 5 16 42 35 82 36 76 111 155 185 192 19 10 41 24 48 30 7 7 22
13 32 13 10 0 33 13 51 30 18 16 48 37 66 45 18 9 42 25 52 37 20 21 18 48 -3
48 -16 0 -239 -133 -278 -165 -16 -14 -35 -25 -42 -25 -21 0 -121 -112 -135
-150 -35 -99 -89 -170 -128 -170 -8 0 -29 -7 -46 -15 -18 -8 -59 -21 -92 -29
-33 -8 -123 -31 -200 -52 -160 -43 -255 -54 -255 -31 0 9 14 17 38 22 20 4 42
10 47 15 6 4 36 10 68 13 64 6 238 85 311 141 35 27 98 114 151 207 40 72 217
257 298 312 23 16 62 38 87 49 162 72 180 83 180 106 0 12 -6 25 -14 28 -20 7
-188 -77 -272 -136 -76 -54 -264 -243 -303 -306 -13 -22 -40 -66 -58 -99 -19
-33 -49 -75 -66 -93 -31 -32 -95 -72 -116 -72 -6 0 -38 -13 -72 -30 -34 -16
-78 -32 -98 -36 -50 -9 -296 -69 -411 -100 -80 -22 -115 -26 -225 -25 -133 0
-229 -16 -238 -42 -2 -6 5 -29 17 -49 11 -20 18 -40 14 -43 -9 -9 -98 -9 -125
-1 -18 6 -20 14 -18 82 2 100 9 104 129 84 43 -7 63 -6 73 2 10 8 20 8 38 -2
22 -12 27 -11 38 3 7 10 54 27 112 41 55 13 132 32 170 42 39 9 82 17 96 18
32 1 119 91 119 122 0 45 131 235 138 201 5 -24 -35 -145 -60 -180 -11 -18
-32 -44 -46 -59 -41 -45 -7 -76 51 -47 39 20 107 102 107 130 0 37 50 171 71
192 11 10 19 23 19 29 0 6 25 37 55 69 30 32 55 65 55 73 0 21 -34 21 -66 0
-50 -33 -34 -4 25 43 40 32 60 55 60 71 2 68 -130 -33 -241 -185 -13 -17 -52
-66 -87 -109 -35 -43 -81 -115 -103 -159 -21 -44 -47 -88 -57 -98 -20 -21
-179 -66 -232 -67 -20 0 -56 -7 -79 -15 -48 -17 -90 -20 -90 -6 0 6 27 24 59
41 32 17 71 45 86 60 27 28 29 28 57 14 17 -9 40 -13 52 -10 31 8 65 58 76
113 9 52 32 104 62 142 10 13 18 32 18 43 0 30 35 89 84 140 25 27 46 52 46
56 0 30 -43 16 -108 -36 -67 -53 -63 -28 6 36 63 58 79 92 42 92 -23 0 -103
-75 -154 -145 -20 -27 -72 -123 -116 -212 -44 -89 -92 -174 -107 -189 -33 -31
-119 -74 -149 -74 -35 0 -68 -32 -60 -58 6 -16 15 -22 38 -22 19 0 28 -4 25
-12 -3 -9 -26 -12 -78 -11 -164 6 -179 10 -179 46 0 43 14 51 61 39 40 -11 49
-9 92 13 27 14 54 25 60 25 7 0 23 24 37 53 14 28 52 86 86 127 33 41 69 91
80 110 10 19 25 41 32 48 7 8 24 39 39 70 15 31 47 77 72 102 25 25 59 63 76
85 37 50 177 190 228 228 32 24 38 26 43 12 4 -9 -1 -24 -10 -34 -9 -10 -16
-23 -16 -29 0 -6 -13 -27 -30 -45 -30 -35 -35 -52 -24 -81 11 -28 43 -17 95
33 39 38 64 53 102 62 28 7 71 21 94 31 46 20 53 39 28 72 -11 15 -15 51 -16
140 -1 67 -4 165 -8 219 -3 54 -3 107 1 118 4 11 1 45 -7 77 -8 31 -20 153
-25 272 -20 402 -29 565 -39 740 -6 96 -13 227 -15 290 -9 209 -27 503 -41
665 -26 284 -30 438 -13 452 9 8 59 14 129 16 63 1 120 4 127 5 8 1 12 -4 10
-10z m1022 -48 c0 -5 -13 -10 -30 -10 -16 0 -30 5 -30 10 0 6 14 10 30 10 17
0 30 -4 30 -10z m40 0 c0 -5 -5 -10 -11 -10 -5 0 -7 5 -4 10 3 6 8 10 11 10 2
0 4 -4 4 -10z m-100 -61 c0 -5 -7 -9 -15 -9 -15 0 -20 12 -9 23 8 8 24 -1 24
-14z m707 -37 c15 -10 22 -577 7 -591 -5 -5 -44 -12 -86 -16 l-78 -7 0 78 c-1
44 -3 174 -6 290 -6 221 -4 235 36 214 24 -13 70 -3 70 15 0 21 35 31 57 17z
m-602 -14 c17 -1 38 1 48 5 10 4 25 3 35 -2 9 -5 24 -12 33 -14 19 -6 28 -131
29 -408 1 -154 -1 -178 -16 -190 -13 -10 -45 -13 -122 -12 -58 1 -109 6 -113
10 -4 4 -10 121 -13 258 -3 138 -8 270 -11 295 -8 67 -3 73 53 66 26 -3 61 -6
77 -8z m1922 -623 c-7 -91 -7 -145 1 -181 15 -73 5 -133 -22 -139 -11 -2 -97
-6 -191 -9 -172 -5 -303 4 -314 22 -8 13 -5 308 3 320 3 5 40 10 83 11 100 2
113 5 203 46 41 18 93 38 115 43 86 22 120 28 126 23 4 -3 2 -64 -4 -136z
m420 103 c15 -7 48 -27 73 -45 25 -17 59 -35 75 -39 17 -4 48 -16 70 -27 27
-14 62 -21 110 -22 l70 -2 -1 -34 c-1 -53 -15 -222 -19 -239 -4 -13 -39 -15
-234 -15 -126 0 -231 2 -234 5 -6 6 11 374 18 408 6 25 29 28 72 10z m-3962
-69 c18 -18 -14 -26 -67 -18 -28 5 -53 8 -57 7 -32 -4 -83 4 -75 11 20 20 179
20 199 0z m2742 -169 c0 -104 -3 -180 -9 -187 -7 -8 -38 -11 -101 -9 -110 4
-104 -8 -101 186 2 164 0 150 22 150 9 0 35 9 57 20 24 11 58 18 85 17 l45 -2
2 -175z m3177 159 c33 1 63 4 66 6 9 6 173 -20 188 -29 7 -4 15 -1 18 8 8 21
37 20 82 -3 45 -23 237 -38 258 -20 9 7 19 7 33 0 11 -6 29 -11 40 -11 35 0
51 -48 51 -154 0 -52 -4 -98 -10 -101 -5 -3 -19 -1 -30 5 -26 14 -27 -4 -1
-22 15 -11 -45 -13 -358 -14 -253 0 -389 -4 -416 -12 -22 -6 -43 -8 -47 -4 -5
5 -1 55 7 113 8 57 15 133 16 169 3 76 5 84 28 75 9 -4 43 -6 75 -6z m-6158
-28 c5 -6 63 -17 129 -25 81 -11 124 -21 131 -31 13 -17 29 -228 20 -244 -4
-6 -31 -8 -64 -5 -72 7 -598 6 -634 -1 -15 -3 -29 -1 -33 5 -9 14 -10 174 -1
188 4 7 16 12 27 12 11 0 37 14 58 30 32 26 46 31 110 33 55 3 77 8 86 20 17
24 26 21 19 -7 -6 -27 13 -36 84 -36 35 0 42 3 42 19 0 20 -17 30 -53 32 -14
1 -9 4 13 9 52 11 55 11 66 1z m-346 -11 c-8 -5 -19 -10 -25 -10 -5 0 -3 5 5
10 8 5 20 10 25 10 6 0 3 -5 -5 -10z m2821 -42 c3 -265 1 -296 -23 -282 -6 4
-38 8 -70 9 -38 2 -63 7 -69 16 -5 8 -9 78 -9 157 0 132 1 143 18 139 9 -3 37
-2 62 3 91 16 90 16 91 -42z m3277 0 c-10 -98 -30 -233 -39 -256 -9 -22 -11
-23 -99 -16 -79 6 -90 5 -96 -10 -12 -30 12 -39 103 -40 82 -1 88 -2 85 -21
-1 -11 -13 -103 -27 -205 -13 -102 -26 -201 -29 -220 -2 -19 -13 -93 -24 -165
-11 -71 -23 -159 -27 -195 -3 -36 -10 -90 -16 -120 -5 -30 -13 -93 -19 -140
-5 -47 -16 -123 -25 -170 -8 -47 -15 -103 -15 -125 -1 -70 -28 -88 -100 -66
l-50 16 5 175 c3 96 8 207 11 245 3 39 7 97 10 130 2 33 14 175 25 315 12 140
23 289 24 331 2 42 5 94 9 115 7 48 19 220 17 253 -1 33 16 42 66 35 33 -5 47
-2 72 17 46 34 26 48 -60 43 -64 -4 -70 -3 -67 13 2 12 11 17 26 15 13 -2 35
4 49 13 24 16 27 16 35 1 10 -18 44 -21 83 -6 23 9 26 14 21 36 -5 19 -2 30
11 40 36 27 46 18 41 -38z m-6148 13 c0 -11 -39 -21 -45 -11 -2 4 -2 10 2 14
10 9 43 7 43 -3z m2251 -7 c30 -3 72 -1 94 5 22 6 43 7 47 3 4 -4 10 -63 13
-132 6 -102 4 -128 -7 -138 -8 -6 -59 -12 -123 -14 -76 -2 -110 -7 -113 -15
-3 -10 25 -13 117 -13 66 0 122 -4 125 -9 3 -4 8 -197 12 -427 3 -231 9 -518
12 -639 4 -121 6 -253 4 -293 -3 -63 -6 -72 -21 -67 -9 3 -49 9 -89 14 -41 5
-86 18 -105 30 -19 12 -41 21 -49 21 -13 0 -15 43 -17 303 -1 166 -4 538 -6
827 -2 289 -2 533 1 543 4 13 12 17 28 13 12 -3 46 -8 77 -12z m-390 -16 c0
-13 1 -77 2 -143 l2 -119 -152 -3 c-83 -2 -154 0 -156 5 -3 4 -8 64 -12 134
l-7 128 73 -6 c47 -3 99 0 144 9 100 21 105 21 106 -5z m5047 -284 c7 -13 35
-16 175 -18 213 -3 207 1 207 -140 0 -56 1 -157 1 -226 1 -109 -8 -670 -11
-710 -1 -8 2 -63 6 -121 5 -74 3 -108 -4 -113 -6 -4 -9 -12 -6 -19 3 -10 -12
-13 -63 -13 -91 0 -205 -21 -277 -50 -63 -25 -111 -31 -121 -14 -4 6 -12 10
-18 9 -7 -1 -20 1 -30 6 -22 9 -95 -10 -120 -33 -12 -10 -21 -12 -27 -6 -12
12 -129 0 -175 -19 -44 -17 -54 -17 -102 -1 -29 10 -59 13 -88 8 -45 -6 -52
-1 -45 31 1 6 8 62 15 125 8 63 21 149 30 190 28 133 45 233 54 330 12 122 42
341 61 450 5 30 12 75 15 100 11 100 26 205 31 209 2 2 46 6 97 7 182 5 331
15 347 24 23 14 38 12 48 -6z m-6216 -69 c11 -112 26 -294 43 -525 9 -118 22
-267 30 -330 8 -63 16 -151 19 -195 5 -118 26 -265 42 -302 19 -41 17 -63 -5
-90 -14 -16 -30 -23 -56 -23 -20 0 -68 -7 -107 -16 -65 -15 -74 -15 -105 0
-25 12 -43 14 -71 7 -44 -11 -100 -30 -125 -43 -14 -7 -22 -5 -30 6 -9 11 -33
16 -82 17 -38 1 -86 8 -105 16 -22 9 -65 14 -115 13 -99 -2 -98 -3 -88 13 4 6
8 145 9 307 1 162 3 360 4 440 2 80 -2 278 -9 441 -6 163 -9 304 -5 312 3 9
15 18 27 20 12 2 180 3 372 3 l350 -1 7 -70z m3480 -1 c1 -27 -2 -101 -5 -163
-3 -63 -8 -169 -12 -235 -3 -67 -8 -260 -11 -431 -6 -369 -7 -395 -28 -410
-10 -7 -66 -13 -143 -14 -139 -2 -205 -13 -270 -43 -74 -35 -78 -29 -78 102 0
256 17 1203 21 1215 9 23 44 27 273 30 123 2 226 6 229 10 13 12 23 -15 24
-61z m1420 44 c2 -13 1 -63 -4 -113 -4 -49 -10 -160 -14 -245 -3 -85 -7 -182
-9 -215 -2 -33 -6 -139 -9 -235 -13 -397 -15 -412 -41 -478 -16 -39 -16 -44
-2 -60 11 -12 13 -22 6 -34 -11 -19 -33 -15 -65 13 -32 29 -130 56 -229 64
-49 3 -90 7 -91 8 0 1 3 31 7 67 5 36 15 137 24 225 9 88 20 181 26 206 6 26
12 91 14 145 2 55 9 122 15 149 7 28 12 61 11 75 0 25 34 333 45 400 l5 36
142 3 c78 1 144 4 146 7 10 10 19 3 23 -18z m-3728 3 c4 -7 10 -244 21 -821 3
-162 8 -332 11 -377 5 -77 4 -82 -16 -93 -16 -8 -29 -9 -44 -2 -14 6 -53 7
-107 1 -46 -4 -88 -4 -92 0 -16 16 -26 85 -32 201 -6 145 -22 459 -39 791 -8
141 -11 269 -9 283 l5 26 149 -1 c82 -1 151 -4 153 -8z m1001 -2 c9 -10 12
-1439 2 -1439 -5 0 -15 -8 -22 -17 -15 -20 -58 -23 -105 -7 l-35 12 -3 731 -3
732 81 -4 c44 -2 82 -6 85 -8z m505 -3 c1 -6 1 -238 0 -516 0 -494 -13 -917
-29 -933 -5 -4 -50 -9 -102 -10 l-93 -2 2 80 c1 44 5 370 8 725 4 417 10 649
16 658 14 16 198 15 198 -2z m1313 -1300 c88 -1 109 -5 127 -21 27 -25 24 -77
-5 -82 -11 -2 -33 -5 -50 -8 -67 -11 -179 -45 -186 -56 -9 -15 -38 -21 -54
-11 -8 5 -8 14 2 32 7 14 13 21 13 16 0 -6 7 -1 15 10 14 17 17 17 27 3 10
-14 16 -14 66 3 30 10 65 18 78 18 51 0 76 32 34 43 -24 6 -144 -22 -218 -52
-60 -24 -110 -27 -118 -8 -3 8 -1 36 3 63 l8 49 55 6 c30 3 64 3 76 1 12 -2
69 -4 127 -6z m491 -55 c3 -5 -3 -11 -14 -14 -22 -6 -37 8 -18 16 20 8 26 8
32 -2z m2111 -56 c0 -22 -16 -24 -115 -12 -30 3 -58 6 -62 7 -5 0 -8 5 -8 10
0 6 15 10 33 11 17 1 43 4 57 8 14 4 41 4 60 1 26 -4 35 -10 35 -25z m-484
-36 c24 -12 57 -22 73 -21 16 0 38 -4 49 -9 18 -10 18 -11 -4 -27 -30 -21 -74
-17 -149 14 -33 13 -78 24 -100 24 -48 0 -52 13 -7 28 51 16 90 14 138 -9z
m-1529 -11 c23 -16 47 -19 134 -21 l106 -2 -7 -150 c-8 -159 -14 -185 -45
-185 -10 0 -22 -5 -25 -10 -11 -17 15 -40 45 -40 41 0 60 -10 60 -31 0 -23 44
-53 66 -45 11 4 15 14 11 31 -5 27 15 45 48 45 24 0 11 -63 -22 -106 -39 -51
-54 -117 -44 -183 10 -64 7 -78 -20 -86 -11 -4 -19 -15 -19 -27 0 -17 5 -19
26 -15 22 4 28 0 40 -29 16 -38 18 -74 5 -74 -5 0 -11 7 -15 15 -6 17 -41 20
-51 5 -3 -5 1 -23 10 -39 8 -17 15 -39 15 -49 0 -11 10 -26 22 -34 22 -15 22
-18 10 -54 -22 -66 -45 -114 -53 -114 -4 0 -6 21 -2 48 5 47 -16 122 -34 122
-29 -1 -33 -17 -18 -76 12 -45 13 -66 4 -91 -15 -46 -27 -41 -35 15 -3 26 -10
54 -15 63 -10 20 -42 30 -60 18 -12 -7 -11 -14 4 -40 24 -42 31 -100 18 -140
-6 -19 -12 -56 -15 -83 -4 -52 -1 -49 -96 -128 -40 -35 -58 -35 -66 -1 -8 32
15 53 58 53 24 0 32 7 48 43 33 73 23 132 -21 125 -22 -3 -24 -7 -24 -61 l0
-59 -39 -13 c-46 -16 -49 -15 -66 22 -35 80 -290 257 -390 270 -32 5 -44 12
-55 33 -8 15 -22 30 -30 34 -36 13 -213 19 -261 7 -83 -19 -115 -20 -112 -4 4
20 86 63 121 63 56 0 117 48 117 92 0 21 -6 29 -25 34 -23 6 -24 7 -10 33 7
15 21 33 29 40 20 17 21 61 1 61 -52 0 -104 -73 -115 -160 -5 -40 -8 -45 -37
-51 -49 -10 -123 -58 -142 -92 -9 -17 -29 -43 -44 -57 -34 -32 -193 -117 -203
-108 -3 4 -1 21 5 39 12 34 8 49 -13 49 -23 0 -38 -27 -39 -72 -2 -39 -4 -43
-27 -43 -20 0 -26 5 -28 30 -5 56 -11 63 -33 36 -10 -13 -19 -34 -19 -47 0
-24 -33 -50 -50 -39 -13 8 -13 66 -1 99 7 17 6 27 -2 34 -22 19 -49 -14 -58
-69 -8 -53 -22 -71 -49 -66 -10 1 -15 17 -17 55 -1 30 -4 56 -7 59 -10 11 -26
-9 -26 -33 0 -28 -25 -43 -43 -25 -18 18 -45 13 -53 -11 l-6 -21 -17 21 c-11
15 -23 20 -38 16 -18 -5 -20 -9 -10 -25 16 -25 1 -36 -21 -16 -27 24 -39 21
-51 -13 -8 -23 -16 -30 -36 -30 -19 0 -26 5 -24 18 3 36 -1 39 -61 38 -57 -1
-61 -3 -66 -26 -12 -56 -21 -75 -35 -75 -9 0 -16 15 -20 43 -10 78 -41 82 -57
7 -6 -30 -13 -41 -30 -43 -20 -3 -22 1 -22 40 0 24 -5 50 -10 58 -9 13 -13 12
-30 -9 -11 -13 -20 -34 -20 -47 0 -13 -4 -24 -10 -24 -5 0 -10 20 -10 45 0 34
-5 47 -19 55 -17 9 -22 4 -40 -45 -12 -31 -21 -60 -21 -65 0 -6 -3 -10 -7 -10
-5 0 -8 27 -8 60 0 62 13 87 91 179 17 20 37 47 43 59 7 13 36 55 64 92 29 37
64 90 80 116 58 102 120 181 153 196 12 6 27 21 33 34 6 13 16 24 23 24 7 0
42 25 78 55 66 55 172 117 222 129 17 4 34 18 43 37 19 36 50 49 113 49 70 0
154 29 204 69 29 23 46 -1 41 -57 -4 -36 -12 -53 -34 -73 -16 -14 -29 -30 -29
-36 0 -6 -13 -16 -30 -23 -16 -7 -30 -19 -30 -27 0 -8 -12 -25 -26 -38 -28
-26 -27 -55 1 -55 9 0 31 16 51 35 19 19 43 35 52 35 10 0 23 5 28 10 7 7 27
7 58 1 28 -5 76 -5 115 0 36 4 72 8 78 9 31 0 43 46 48 181 7 157 10 175 31
158 11 -9 20 -9 37 -1 53 28 158 56 251 68 22 3 46 9 54 13 8 5 24 6 34 3 19
-5 20 -11 14 -115 -5 -91 -10 -114 -26 -129 -14 -13 -18 -29 -17 -60 2 -39 5
-43 30 -46 23 -3 27 0 27 20 0 39 29 49 96 33 74 -18 126 -19 143 -2 11 10 15
9 19 -2 9 -25 66 -72 94 -78 15 -3 38 -18 52 -34 25 -28 66 -40 66 -19 0 24
-32 70 -48 70 -23 0 -42 19 -42 43 0 10 -18 36 -39 57 -33 33 -40 36 -46 22
-6 -15 -8 -15 -15 3 -8 19 -6 81 6 202 l5 51 62 0 c45 0 69 -5 89 -20z m1335
-4 c2 -5 -16 -18 -39 -29 -24 -11 -41 -24 -38 -30 6 -12 20 -11 75 5 55 16 74
14 106 -9 30 -22 183 -47 225 -37 13 4 30 18 36 31 6 14 19 25 29 25 10 0 22
7 27 17 5 9 18 17 28 18 11 0 25 4 32 9 7 4 41 4 75 0 34 -4 76 -8 92 -8 29 0
31 -2 32 -37 l2 -37 -37 9 c-20 5 -52 12 -69 16 -18 3 -33 9 -33 14 0 4 -13 3
-30 -2 -16 -6 -30 -15 -30 -20 0 -11 36 -30 43 -23 3 3 28 -1 56 -11 28 -9 61
-15 73 -13 21 3 23 -1 26 -47 4 -58 -8 -206 -16 -186 -3 10 -6 11 -12 1 -5 -7
-6 -20 -3 -27 3 -9 8 -10 12 -5 3 5 7 -31 9 -80 l3 -90 -38 7 c-115 18 -118
18 -150 -9 -25 -21 -41 -26 -86 -26 -66 0 -107 -13 -107 -35 0 -23 162 -10
209 17 31 17 41 18 103 8 37 -7 69 -15 69 -18 8 -39 5 -98 -4 -104 -7 -4 -32
-8 -57 -8 -57 -1 -174 -50 -179 -75 -2 -15 1 -17 20 -11 81 26 128 36 173 38
l51 3 0 -102 c1 -78 -2 -100 -11 -92 -8 7 -14 6 -19 -1 -3 -6 -11 -8 -16 -5
-17 11 -134 16 -148 7 -19 -13 -5 -32 25 -32 28 0 32 -18 7 -26 -35 -11 -98
-38 -107 -45 -20 -17 17 -37 79 -44 36 -3 68 -11 71 -17 11 -18 -28 -40 -61
-35 -16 3 -38 0 -48 -5 -10 -5 -26 -6 -35 -2 -9 4 -41 6 -69 5 -50 -3 -53 -1
-53 21 0 12 7 32 15 42 8 10 24 48 36 83 17 51 20 77 15 122 -4 31 -10 86 -14
122 -7 67 -30 109 -58 109 -7 0 -15 13 -19 30 -4 16 -11 32 -16 35 -5 4 -9 34
-9 67 0 76 -25 131 -88 194 -68 68 -86 77 -153 77 -48 -1 -61 3 -70 18 -31 59
-202 95 -303 63 -58 -18 -73 -16 -63 11 5 10 20 15 52 15 35 0 45 4 45 16 0
14 -7 15 -39 10 -41 -6 -55 2 -46 26 8 20 156 14 189 -7 27 -18 76 -11 76 11
0 23 -56 44 -115 44 -42 0 -55 3 -55 15 0 18 40 20 119 4 51 -10 62 -9 121 14
67 26 82 27 87 11z m-815 -26 c-15 -15 -26 -4 -18 18 5 13 9 15 18 6 9 -9 9
-15 0 -24z m88 12 c0 -5 -4 -10 -10 -10 -5 0 -10 5 -10 10 0 6 5 10 10 10 6 0
10 -4 10 -10z m-1440 -10 c0 -5 -4 -10 -10 -10 -5 0 -10 5 -10 10 0 6 5 10 10
10 6 0 10 -4 10 -10z m1825 -1 c9 -13 7 -15 -27 -23 -21 -5 -28 -3 -28 8 0 12
13 20 42 25 4 0 10 -4 13 -10z m-370 -44 c-1 -16 -15 -134 -27 -218 -12 -91
-29 -97 -35 -12 -2 34 -15 84 -29 114 -29 65 -29 64 -1 58 12 -3 33 0 47 8 22
12 23 14 7 20 -10 4 -36 5 -57 1 -35 -5 -40 -4 -40 12 0 10 2 21 5 23 9 10
130 4 130 -6z m-5815 -13 c0 -4 -23 -16 -51 -27 -28 -11 -55 -26 -61 -32 -15
-19 -28 -16 -28 7 0 35 39 60 92 60 26 0 48 -4 48 -8z m130 -21 c0 -6 -4 -13
-10 -16 -5 -3 -10 1 -10 9 0 9 5 16 10 16 6 0 10 -4 10 -9z m60 -28 c0 -5 -19
-21 -41 -38 -23 -16 -47 -42 -55 -56 -9 -18 -25 -29 -47 -33 -43 -8 -70 -37
-97 -105 -46 -117 -72 -163 -85 -150 -2 2 -6 25 -10 51 -7 44 -5 49 23 75 16
15 37 43 47 62 25 49 149 169 182 177 15 3 39 10 53 14 14 5 26 9 28 9 1 1 2
-2 2 -6z m544 -13 c25 -9 26 -14 26 -79 0 -70 0 -70 -34 -86 -35 -17 -220
-194 -298 -285 -25 -30 -60 -71 -77 -91 -17 -20 -31 -44 -31 -53 0 -9 -4 -16
-8 -16 -4 0 -13 -15 -20 -33 -19 -53 -144 -217 -164 -217 -18 0 -6 39 27 89
19 29 35 55 35 59 0 14 96 150 134 189 31 34 37 46 28 55 -10 10 -20 8 -49 -7
-58 -31 -124 -111 -204 -245 -18 -30 -36 -56 -41 -58 -4 -2 -8 -8 -8 -14 0 -5
-14 -29 -31 -53 -33 -46 -35 -71 -7 -89 13 -8 25 -6 47 7 56 33 55 18 -2 -44
-54 -60 -73 -69 -142 -69 l-57 0 7 43 c8 46 20 67 41 67 24 0 90 74 104 117
10 34 10 45 1 57 -19 22 -37 9 -51 -37 -17 -54 -39 -79 -64 -75 -19 3 -21 10
-21 78 l0 74 45 -2 c40 -3 47 0 61 25 9 15 29 67 43 114 19 59 38 100 62 128
39 45 41 75 6 77 -31 2 -115 -92 -137 -153 -25 -70 -67 -153 -77 -153 -4 0 -8
33 -8 74 0 67 2 75 24 89 13 9 27 28 31 44 3 15 13 35 21 45 9 9 30 56 48 105
19 48 44 112 57 141 21 48 26 52 56 52 25 0 49 13 95 50 34 28 66 50 70 50 17
0 7 -19 -24 -46 -53 -43 -168 -178 -168 -195 0 -9 9 -24 19 -33 18 -16 20 -16
40 13 12 16 24 43 27 60 4 17 12 31 19 31 6 0 23 15 36 34 31 43 133 126 184
150 37 17 40 17 52 0 12 -16 17 -17 56 -5 39 12 121 26 174 30 12 0 33 -3 47
-9z m-764 -14 c0 -20 -107 -109 -113 -94 -6 18 3 38 17 38 7 0 27 16 46 35 36
37 50 43 50 21z m345 -6 c-3 -5 -11 -10 -16 -10 -6 0 -7 5 -4 10 3 6 11 10 16
10 6 0 7 -4 4 -10z m5865 -58 c0 -10 -18 -27 -47 -42 -26 -14 -64 -40 -86 -57
-21 -18 -43 -33 -48 -33 -5 0 -9 -7 -9 -15 0 -8 7 -15 15 -15 31 0 13 -21 -39
-45 -61 -28 -66 -29 -66 -16 0 6 12 16 28 23 20 10 27 21 27 42 1 17 8 32 21
40 11 6 54 36 95 67 63 47 86 62 107 68 1 1 2 -7 2 -17z m139 9 c14 -4 26 -12
29 -19 3 -9 -3 -10 -22 -2 -14 5 -47 7 -74 3 -39 -4 -50 -2 -55 11 -5 14 2 16
46 15 29 -1 63 -4 76 -8z m-620 -99 c12 -76 9 -92 -14 -92 -20 0 -39 127 -25
165 15 40 25 22 39 -73z m700 7 c41 -18 44 -18 73 -1 29 16 31 16 42 -1 32
-53 34 -54 56 -27 l21 25 54 -58 c29 -32 61 -73 69 -92 27 -56 18 -156 -20
-225 -7 -14 -19 -37 -25 -52 -6 -16 -15 -28 -20 -28 -5 0 -9 -9 -9 -20 0 -32
37 -25 55 10 16 32 42 43 30 13 -4 -10 -10 -31 -14 -48 -5 -23 -14 -32 -44
-40 -20 -6 -44 -19 -52 -30 -15 -19 -16 -15 -10 55 4 60 10 79 30 100 55 58
89 212 49 227 -28 10 -39 -12 -26 -56 15 -50 7 -73 -23 -65 -18 4 -24 1 -29
-20 -3 -14 -13 -26 -21 -26 -8 0 -15 -6 -15 -12 0 -18 -44 -118 -52 -118 -4 0
-10 9 -13 21 -5 14 -14 19 -28 17 -19 -3 -22 -9 -22 -54 0 -55 -23 -94 -55
-94 -9 0 -25 -7 -36 -15 -10 -8 -35 -14 -54 -14 -34 0 -34 0 -15 15 11 9 34
22 52 30 18 8 36 20 40 27 4 8 16 16 26 20 19 7 23 32 7 42 -6 4 -17 1 -25 -5
-8 -7 -21 -10 -29 -7 -8 3 -17 -1 -20 -9 -3 -8 -26 -23 -50 -34 -24 -10 -47
-27 -50 -38 -4 -13 -22 -24 -50 -31 -24 -6 -51 -13 -60 -17 -9 -3 -16 -1 -16
5 0 6 11 16 25 21 14 5 28 17 31 25 4 9 25 25 48 37 22 11 55 31 73 44 17 13
37 24 43 24 6 0 38 23 71 50 33 28 63 50 66 50 4 0 14 -7 24 -16 24 -21 34
-13 48 39 6 25 17 49 24 56 17 13 40 116 35 151 -1 14 -11 26 -20 28 -15 3
-18 -4 -18 -35 0 -51 -14 -97 -37 -120 -10 -11 -23 -28 -29 -39 -7 -10 -15
-15 -20 -11 -5 5 3 32 18 60 47 91 57 192 19 185 -11 -2 -18 -19 -22 -58 -3
-31 -12 -66 -18 -79 -16 -28 -76 -83 -104 -94 -29 -11 -44 8 -18 22 12 7 21
18 21 26 0 8 8 15 18 15 18 0 51 45 72 97 17 44 -5 80 -52 85 -25 2 -34 9 -38
27 -4 16 -16 28 -35 33 -32 10 -167 4 -200 -8 -16 -6 -18 -4 -8 6 19 20 114
40 168 34 28 -3 70 -14 94 -25z m-5502 -9 c1 -11 -2 -18 -8 -15 -11 7 -12 35
-1 35 4 0 8 -9 9 -20z m5343 -25 c0 -3 -5 -14 -12 -24 -9 -15 -9 -23 2 -36 11
-13 30 -16 97 -14 49 1 89 -3 95 -9 11 -11 4 -43 -9 -41 -27 4 -41 -5 -56 -36
-11 -23 -24 -35 -37 -35 -12 0 -40 -9 -63 -21 -31 -15 -68 -21 -142 -24 -116
-5 -175 -17 -187 -39 -11 -19 -41 -22 -36 -3 11 33 177 76 296 77 35 0 42 3
42 19 0 26 -14 29 -79 19 -30 -5 -61 -6 -68 -3 -33 12 -212 -53 -250 -91 -8
-8 -19 -14 -24 -14 -17 0 -9 26 14 47 27 26 151 93 170 93 8 0 20 7 27 15 7 8
30 20 51 25 38 10 66 41 54 60 -7 12 11 22 55 31 47 9 60 10 60 4z m-435 -126
c4 -6 -2 -20 -13 -32 -43 -47 -81 -123 -84 -167 -3 -43 -2 -45 22 -42 28 3 51
-22 43 -46 -3 -10 -12 -32 -20 -51 -14 -31 -14 -35 7 -63 20 -28 21 -33 10
-75 -11 -39 -16 -44 -34 -38 -12 4 -46 10 -76 14 l-55 6 -11 85 c-5 47 -16
109 -23 138 -18 72 -8 127 29 164 17 16 30 40 30 52 0 41 21 55 85 59 33 2 65
4 72 5 6 1 15 -3 18 -9z m452 -165 c-3 -4 -14 -3 -24 0 -15 6 -15 8 -3 16 16
10 39 -4 27 -16z m-81 4 c8 -12 -15 -19 -77 -24 -33 -2 -77 -11 -96 -19 -44
-18 -53 -19 -53 -2 0 17 29 43 55 50 30 7 166 4 171 -5z m264 -6 c0 -5 -11
-19 -25 -32 -19 -18 -28 -21 -37 -12 -9 9 -7 16 7 32 18 20 55 28 55 12z
m-656 -17 c-4 -8 -8 -15 -10 -15 -2 0 -4 7 -4 15 0 8 4 15 10 15 5 0 7 -7 4
-15z m510 -4 c11 -17 -20 -30 -58 -24 -41 6 -37 19 9 26 17 2 33 5 37 6 4 0 9
-3 12 -8z m-6024 -35 c0 -3 -4 -8 -10 -11 -5 -3 -10 -1 -10 4 0 6 5 11 10 11
6 0 10 -2 10 -4z m5890 -16 c0 -5 -4 -10 -10 -10 -5 0 -10 5 -10 10 0 6 5 10
10 10 6 0 10 -4 10 -10z m-50 -8 c0 -15 -24 -32 -47 -32 -19 0 -51 -23 -145
-105 -20 -17 -48 -20 -48 -6 0 5 15 29 33 52 26 35 46 47 107 70 80 29 100 34
100 21z m-240 -30 c0 -23 -65 -88 -74 -73 -9 14 19 67 41 80 26 15 33 13 33
-7z m-5340 -45 c0 -8 -54 -136 -76 -180 -13 -26 -28 -64 -33 -85 -12 -43 -52
-93 -59 -73 -10 31 53 185 118 286 11 17 23 36 26 43 5 10 24 18 24 9z m6260
-200 c-12 -32 -24 -57 -28 -57 -4 0 -36 -27 -70 -60 -82 -77 -102 -68 -22 11
33 32 60 66 60 75 0 9 16 44 35 78 19 35 36 71 37 82 1 10 3 -2 5 -27 3 -30
-3 -65 -17 -102z m-80 45 c0 -5 -7 -23 -16 -40 -11 -23 -23 -32 -40 -32 l-24
0 28 40 c25 36 52 52 52 32z m-750 -40 c0 -5 -9 -17 -20 -27 -16 -14 -20 -15
-20 -4 0 16 19 39 32 39 4 0 8 -4 8 -8z m400 -42 c0 -26 -29 -40 -119 -56 -75
-13 -191 -9 -191 7 0 4 30 10 68 14 134 12 160 17 188 35 38 24 54 24 54 0z
m-674 -10 c9 0 14 -11 14 -30 0 -19 7 -33 20 -40 27 -14 16 -30 -20 -30 -19 0
-33 -7 -40 -20 -7 -13 -21 -20 -42 -20 l-31 0 5 64 c7 80 12 90 50 82 17 -3
37 -6 44 -6z m954 -10 c12 -8 8 -16 -25 -50 -43 -44 -53 -48 -61 -25 -4 9 5
26 20 42 14 14 26 30 26 34 0 12 21 11 40 -1z m503 -2 c37 -18 34 -30 -5 -23
-18 3 -46 8 -63 10 -42 5 -43 6 -15 15 37 12 53 11 83 -2z m-1303 -5 c0 -5 -5
-25 -11 -45 -8 -30 -15 -38 -33 -38 -36 0 -37 10 -3 51 30 37 47 48 47 32z
m90 -32 c0 -13 -29 -35 -37 -28 -7 8 15 37 28 37 5 0 9 -4 9 -9z m-1461 -25
c22 -24 55 -31 173 -41 78 -6 168 -35 168 -55 0 -4 -20 -20 -44 -34 -26 -15
-58 -47 -80 -81 -21 -30 -40 -55 -45 -55 -4 0 -16 -7 -26 -15 -11 -8 -45 -32
-75 -53 -41 -28 -56 -45 -58 -65 -5 -38 30 -36 77 4 20 17 60 45 90 63 37 21
61 43 74 70 11 21 42 54 69 73 27 20 48 43 48 53 0 11 5 22 10 25 13 8 67 -25
99 -59 24 -26 24 -26 5 -41 -10 -8 -21 -15 -25 -15 -3 0 -17 -20 -33 -44 -15
-24 -40 -56 -56 -71 -23 -22 -27 -32 -19 -42 20 -23 43 -14 103 43 42 39 57
60 53 74 -3 10 1 27 8 37 13 17 16 16 50 -17 34 -33 69 -89 61 -97 -9 -9 -38
12 -47 34 -14 37 -39 25 -75 -37 -18 -30 -46 -64 -63 -75 -31 -20 -42 -60 -19
-67 14 -5 97 48 116 74 29 40 101 4 87 -44 -11 -34 -25 -48 -47 -48 -17 0 -20
5 -14 30 9 48 -20 38 -99 -34 l-70 -64 -77 -3 c-82 -5 -99 -14 -129 -72 -20
-37 -157 -177 -174 -177 -14 0 -54 -15 -130 -51 -22 -10 -60 -27 -85 -38 -54
-24 -94 -57 -85 -71 12 -19 -16 -50 -58 -61 -46 -12 -57 -23 -57 -56 0 -13 -4
-23 -10 -23 -5 0 -10 13 -10 29 0 17 -5 33 -12 37 -14 9 -87 6 -102 -4 -6 -4
-22 -7 -36 -7 -22 0 -25 -4 -22 -28 3 -26 1 -28 -25 -25 -22 2 -29 9 -31 31
-3 22 -7 27 -20 21 -32 -13 -57 -14 -72 -4 -13 9 -13 11 0 20 8 5 29 10 45 10
17 1 48 7 70 15 22 8 50 15 62 15 34 0 53 11 53 30 0 10 -9 22 -20 25 -24 8
-26 33 -4 42 12 5 15 18 12 68 -2 55 0 65 20 81 54 45 49 229 -6 258 -15 8
-38 26 -51 40 -13 14 -36 28 -52 31 -16 4 -29 10 -29 13 0 10 77 72 88 72 18
0 63 43 103 96 22 30 53 61 69 69 30 15 39 38 20 50 -18 11 -78 -23 -106 -61
-51 -67 -147 -155 -189 -174 -79 -34 -98 -41 -103 -35 -3 3 -3 6 -1 8 2 1 22
16 44 32 22 17 52 38 67 48 15 9 44 46 65 81 28 48 47 68 76 81 20 9 37 21 37
26 0 14 76 49 107 49 35 0 48 9 57 37 7 22 70 42 139 44 18 0 48 6 67 13 53
20 74 18 99 -8z m2673 -25 c7 -10 23 -21 36 -25 31 -10 22 -31 -14 -32 -43 -1
-56 6 -51 27 3 11 1 22 -4 25 -11 6 -2 24 11 24 5 0 15 -8 22 -19z m-738 -9
c11 -18 -13 -30 -81 -41 -39 -6 -104 -11 -142 -11 -59 0 -71 3 -71 16 0 14 8
16 43 12 43 -5 192 14 204 26 9 9 41 8 47 -2z m381 -52 c4 -6 13 -7 23 -1 16
8 61 1 175 -27 30 -8 41 -7 59 8 16 12 28 15 43 9 11 -4 37 -10 57 -14 42 -7
45 -15 50 -133 l3 -73 -60 -21 c-63 -21 -95 -42 -95 -64 0 -8 9 -11 25 -8 14
2 25 0 25 -6 0 -10 -20 -15 -54 -11 -11 1 -27 -6 -37 -15 -17 -15 -78 -22 -97
-10 -5 3 -43 12 -84 21 -98 20 -128 11 -128 -39 0 -21 -6 -38 -15 -43 -18 -10
-200 4 -232 17 -15 6 -23 18 -23 34 0 45 -25 49 -212 37 -94 -6 -174 -14 -179
-17 -16 -10 -9 -35 12 -43 12 -4 51 -2 88 5 36 7 102 14 146 16 l80 3 18 -37
c22 -44 55 -56 162 -57 39 -1 77 -2 85 -3 47 -4 78 5 108 32 56 51 65 53 148
34 55 -12 79 -13 87 -5 8 8 14 7 25 -1 12 -11 133 -14 187 -6 27 4 33 -37 9
-63 -19 -21 -54 -26 -54 -6 -1 7 -6 6 -14 -5 -22 -29 -56 -39 -274 -78 -87
-15 -122 -17 -215 -9 -69 6 -124 16 -144 26 -30 16 -33 16 -51 0 -27 -24 -75
-21 -135 10 -106 54 -287 20 -287 -53 0 -36 18 -38 49 -5 22 23 39 31 68 33
64 2 93 -3 141 -24 26 -11 62 -21 80 -23 19 -2 35 -5 37 -7 12 -12 -10 -80
-28 -90 -11 -6 -91 -15 -176 -20 -86 -5 -183 -10 -216 -12 -176 -10 -305 -49
-305 -91 0 -16 -128 -146 -132 -134 -2 4 -21 3 -43 -3 -22 -7 -78 -11 -125
-10 -287 5 -427 3 -515 -8 -55 -7 -133 -12 -173 -10 l-73 1 3 -28 c3 -27 5
-28 58 -27 85 2 111 5 166 19 37 10 103 12 235 8 292 -8 418 -4 448 13 112 63
168 105 187 140 10 19 28 41 40 49 41 26 195 46 369 46 137 0 273 15 303 35
16 11 22 24 22 52 0 27 7 45 23 60 22 21 27 21 112 11 98 -12 223 -5 326 16
36 8 76 11 88 8 12 -3 32 -1 44 5 33 17 148 43 158 36 13 -8 11 -58 -2 -71
-16 -16 -19 -73 -5 -79 14 -5 10 -115 -4 -124 -18 -12 -21 -52 -6 -63 14 -10
16 -30 14 -127 l-3 -115 -100 4 c-55 2 -152 6 -215 10 -109 6 -115 7 -118 28
-6 43 34 48 253 28 28 -3 56 -1 64 4 14 9 -54 19 -151 24 -22 1 -38 7 -38 14
0 8 25 13 78 15 124 5 89 20 -44 20 -141 -1 -164 3 -164 30 0 11 5 16 10 13 6
-4 18 -1 26 6 10 8 36 10 84 6 38 -3 72 -2 75 3 10 16 -59 27 -177 29 -36 1
-38 3 -38 34 0 47 12 59 66 68 139 24 184 20 171 -15 -6 -14 -21 -16 -87 -15
-82 2 -106 -5 -80 -21 21 -14 174 -12 204 1 47 22 43 74 -8 88 -62 17 -234 -3
-298 -35 -26 -13 -27 -18 -21 -59 l6 -45 -49 0 c-53 -1 -129 -33 -148 -63 -24
-37 24 -53 177 -57 4 0 7 -4 7 -10 0 -5 -12 -10 -27 -10 -30 0 -91 -14 -135
-32 -41 -15 -36 -44 10 -64 27 -11 53 -14 99 -9 61 6 62 6 69 -19 10 -42 -1
-56 -45 -56 -22 0 -65 -9 -95 -20 -44 -17 -56 -27 -65 -52 -17 -47 -14 -68 8
-68 13 0 29 17 48 51 29 54 53 69 109 69 25 0 34 -4 35 -17 1 -10 3 -96 4
-191 2 -180 7 -202 42 -184 33 18 46 83 34 165 -16 108 -19 179 -10 205 10 27
44 29 174 7 105 -17 125 -18 125 -6 0 7 -127 23 -265 34 -25 2 -31 7 -33 31
-2 16 1 33 7 39 11 11 281 10 346 -1 l40 -7 0 -50 c0 -46 2 -50 23 -48 22 3
22 1 23 -125 0 -70 3 -189 5 -265 4 -122 2 -138 -13 -144 -9 -4 -64 -2 -122 4
-97 9 -282 3 -351 -12 -14 -3 -203 -5 -420 -4 -827 4 -1262 2 -2090 -6 -470
-5 -997 -10 -1170 -11 -173 -1 -452 -5 -620 -9 -168 -4 -312 -8 -320 -7 -73 3
-358 12 -495 16 -93 2 -226 6 -295 9 -193 10 -764 21 -1083 21 -277 1 -289 2
-304 21 -12 17 -13 43 -8 155 4 74 7 142 6 150 -1 8 -1 27 -1 41 0 15 -6 29
-15 32 -17 7 -10 96 11 138 l13 26 138 1 c89 0 159 6 198 16 189 47 255 65
299 80 56 19 136 72 136 90 0 22 64 74 100 79 110 18 150 26 159 32 6 3 41 8
78 10 63 4 101 9 253 35 30 5 69 12 87 15 63 10 218 93 274 146 30 28 81 64
114 80 109 53 156 84 218 144 l61 60 83 -2 c66 -2 83 1 83 12 0 18 14 25 135
66 55 18 111 41 124 51 13 10 30 18 37 18 22 0 78 33 131 77 27 23 61 45 75
48 29 7 136 -11 155 -27 7 -6 28 -3 60 7 52 19 260 23 318 7 52 -14 405 -9
452 7 44 15 93 9 93 -12 0 -17 -56 -77 -71 -77 -22 0 -138 -94 -139 -112 0
-42 -106 -121 -243 -182 -31 -14 -57 -29 -57 -35 0 -6 -15 -7 -34 -4 -24 4
-49 -1 -81 -17 -41 -20 -57 -22 -141 -17 l-95 5 -57 62 -57 62 -169 3 c-113 3
-174 0 -187 -8 -14 -9 -27 -6 -63 12 -51 25 -71 22 -115 -15 -19 -15 -43 -25
-66 -26 -46 -2 -99 -36 -103 -66 -4 -27 58 -92 87 -92 9 0 29 -13 44 -28 31
-32 35 -71 12 -127 -20 -46 -14 -65 37 -110 l40 -37 162 8 c201 10 218 10 242
-1 10 -4 37 -9 59 -10 67 -4 126 -25 150 -53 21 -24 26 -25 44 -14 12 6 30 12
41 12 11 0 28 9 37 20 17 20 17 20 39 -1 12 -11 36 -22 54 -24 19 -3 38 -9 43
-14 5 -5 24 -5 45 0 20 5 44 6 53 3 9 -2 22 2 29 11 18 21 27 19 60 -15 34
-35 41 -36 64 -11 13 14 26 17 65 13 27 -2 58 1 70 8 49 25 115 36 141 23 14
-7 33 -13 43 -13 9 0 17 -6 17 -13 0 -25 61 -40 164 -40 109 0 181 12 222 39
24 16 27 16 54 1 47 -28 119 -22 203 18 41 19 82 44 92 55 10 11 22 20 26 20
4 0 19 10 33 23 14 12 52 46 85 76 32 29 85 66 117 82 55 28 61 29 153 23 53
-3 99 -8 103 -10 9 -6 119 21 146 35 11 6 32 11 46 11 20 0 27 6 31 28 8 33
27 70 39 74 6 2 13 -11 18 -29 8 -29 12 -32 61 -38 66 -8 144 0 164 17 9 7 31
44 49 83 19 39 59 100 89 135 31 35 54 71 53 80 -5 25 -54 23 -110 -5 -44 -22
-67 -27 -148 -28 -78 -2 -95 1 -95 13 0 18 106 48 185 52 65 4 82 12 79 41 -3
44 2 57 26 73 53 34 185 41 185 9 0 -7 -20 -25 -45 -39 -48 -29 -53 -37 -32
-55 11 -8 18 -7 30 7 35 38 172 85 221 75 33 -7 50 12 34 40 -5 10 -7 21 -4
25 4 3 39 6 78 6 70 1 73 2 82 29 7 19 15 26 25 22 33 -13 101 -17 113 -7 14
11 113 26 167 25 20 -1 50 9 70 21 20 13 62 35 93 50 32 15 60 31 63 37 8 12
42 12 50 -1z m-1199 -15 c7 -18 73 -57 84 -50 5 3 26 6 46 7 27 1 41 -4 54
-22 15 -19 20 -21 40 -10 18 10 24 9 30 -1 7 -10 18 -9 55 5 36 14 61 17 110
11 35 -3 69 -12 75 -20 8 -10 -7 -16 -77 -29 -167 -30 -185 -30 -260 -6 l-70
22 -41 -21 c-23 -12 -50 -21 -61 -21 -11 0 -33 -17 -49 -37 -19 -24 -47 -44
-78 -56 -71 -26 -77 -8 -18 51 62 63 95 106 116 154 18 39 35 48 44 23z
m-2015 -48 c-13 -13 -15 11 -4 40 7 16 8 15 11 -6 2 -13 -1 -28 -7 -34z m-321
1 c0 -16 -3 -19 -11 -11 -6 6 -8 16 -5 22 11 17 16 13 16 -11z m2173 -27 c6
-24 -10 -51 -30 -51 -10 0 -13 5 -8 18 4 9 10 25 12 35 7 22 19 22 26 -2z
m137 -197 c0 -8 -6 -15 -12 -15 -75 -8 -89 4 -41 33 29 17 53 9 53 -18z m-90
-13 c0 -9 -83 -41 -107 -41 -30 0 -10 20 35 33 58 18 72 20 72 8z m-150 -32
c0 -5 -9 -9 -20 -9 -22 0 -27 16 -7 23 15 5 27 -1 27 -14z m-3900 1 c13 -9 12
-12 -4 -25 -22 -17 -54 -19 -76 -5 -16 10 -15 12 15 28 25 14 46 15 65 2z
m2340 -44 c0 -8 -9 -18 -20 -21 -24 -8 -25 -26 -5 -66 17 -32 14 -36 -39 -41
-39 -4 -45 -26 -9 -33 15 -3 49 -10 76 -16 36 -8 51 -8 62 1 24 20 18 59 -10
72 -36 16 -32 44 7 52 67 13 172 -100 108 -117 -23 -6 -17 -37 6 -37 8 0 14
-4 14 -10 0 -5 -20 -10 -45 -10 -50 0 -71 -23 -60 -67 4 -17 0 -31 -10 -43
-24 -26 -10 -70 21 -70 26 0 28 -9 18 -71 -6 -34 -10 -38 -58 -53 -32 -10 -79
-15 -126 -13 l-75 2 -5 52 c-6 59 -10 66 -35 57 -13 -5 -16 -15 -12 -38 2 -17
2 -39 -2 -49 -5 -15 -12 -10 -39 28 -29 41 -36 46 -61 40 -23 -5 -29 -2 -34
14 -3 12 -13 21 -25 21 -24 0 -48 -25 -32 -35 5 -3 10 -17 10 -31 0 -14 7 -35
16 -48 10 -16 12 -26 5 -31 -6 -3 -11 -15 -11 -26 0 -41 -34 -15 -58 46 -24
59 -25 100 -7 162 6 18 2 25 -18 32 -20 8 -24 16 -24 49 0 35 4 41 34 56 18 9
39 16 46 16 43 0 170 88 187 130 12 28 96 80 131 80 13 0 33 7 43 15 25 19 36
19 36 1z m1479 -27 c18 -53 16 -57 -31 -48 -24 4 -46 8 -50 9 -18 1 -6 30 12
30 10 0 24 9 30 20 15 28 26 25 39 -11z m-209 -82 c0 -22 -8 -41 -21 -53 -20
-18 -21 -18 -40 6 -20 27 -25 50 -9 50 5 0 13 -7 18 -16 14 -24 35 -7 28 22
-5 17 -2 24 9 24 10 0 15 -10 15 -33z m128 -7 c29 -21 20 -21 295 -6 59 3 107
3 107 0 0 -3 -8 -18 -19 -32 -10 -15 -21 -38 -24 -52 -13 -55 -30 -65 -104
-64 -54 0 -78 5 -118 27 -60 32 -107 35 -135 7 -22 -22 -25 -36 -10 -45 23
-14 7 -32 -43 -48 -56 -18 -187 -23 -187 -8 0 8 78 84 115 111 21 16 47 56 66
103 13 32 21 33 57 7z m-2790 -60 c34 -8 62 -27 62 -41 0 -15 -43 -49 -62 -49
-10 0 -18 6 -18 14 0 8 -16 20 -35 27 -19 7 -37 19 -40 27 -8 22 15 44 39 37
12 -3 36 -10 54 -15z m162 5 c24 -13 41 -13 103 -3 40 6 84 8 98 5 13 -4 53
-34 88 -68 34 -33 72 -62 83 -64 32 -6 68 -34 77 -58 5 -12 8 -51 7 -86 -1
-64 -1 -65 -34 -73 -28 -8 -32 -13 -30 -36 3 -24 0 -27 -22 -23 -14 2 -144 5
-290 7 -157 1 -276 6 -292 12 -31 13 -48 40 -48 76 0 32 39 136 51 136 15 0
22 -52 12 -92 -11 -41 4 -78 33 -78 22 0 163 39 199 55 50 22 129 26 156 7 13
-9 26 -19 29 -23 3 -3 20 -14 38 -23 26 -14 37 -15 48 -5 20 16 18 26 -10 50
-16 14 -22 27 -18 45 5 26 -21 64 -44 64 -32 0 -64 25 -75 59 -15 46 -26 60
-47 59 -9 0 -44 3 -77 7 -64 7 -92 23 -82 49 8 20 11 20 47 1z m2408 -20 c16
-34 18 -29 -28 -65 -43 -34 -69 -34 -32 0 14 14 22 33 22 55 0 42 21 47 38 10z
m-104 -4 c22 -18 9 -34 -16 -20 -36 19 -45 -5 -19 -51 13 -24 20 -48 16 -58
-5 -14 -11 -9 -26 21 -11 21 -31 43 -44 49 -30 13 -34 52 -7 67 22 13 76 8 96
-8z m1646 -17 c0 -8 -5 -12 -10 -9 -6 4 -8 11 -5 16 9 14 15 11 15 -7z m-4257
-20 c45 -23 67 -44 67 -66 0 -11 -7 -18 -20 -18 -11 0 -20 4 -20 9 0 5 -15 14
-33 20 -34 11 -62 45 -52 61 9 14 21 12 58 -6z m287 -52 c0 -22 -51 -62 -80
-62 -30 0 -24 22 17 53 42 31 63 35 63 9z m-891 -46 c-12 -14 -26 -23 -31 -20
-13 8 -9 24 5 18 8 -3 19 7 27 23 7 15 15 23 17 16 2 -6 -6 -23 -18 -37z
m1005 10 c8 -18 19 -37 25 -40 21 -13 11 -27 -31 -45 -33 -14 -50 -16 -71 -9
-20 8 -38 6 -67 -6 -72 -29 -36 18 54 69 27 16 51 37 54 47 7 27 20 22 36 -16z
m-1870 -10 c77 -10 151 -23 165 -30 14 -8 45 -14 69 -14 24 -1 49 -5 55 -11 7
-5 40 -9 75 -10 35 0 72 -3 82 -6 44 -14 310 38 310 61 0 18 14 18 29 0 16
-19 -6 -56 -32 -56 -10 0 -35 -9 -57 -20 -71 -36 -111 -46 -292 -75 -21 -3
-108 -8 -195 -10 -103 -3 -193 -11 -258 -25 -55 -11 -115 -20 -133 -20 -44 0
-102 -25 -102 -44 0 -17 56 -31 96 -23 29 5 84 -12 84 -27 0 -27 -87 -67 -231
-105 -63 -17 -127 -36 -144 -42 -72 -26 -131 -35 -175 -26 -25 4 -85 11 -135
15 l-90 7 0 40 c0 22 -3 45 -7 50 -10 16 8 39 25 32 8 -3 41 5 74 18 43 18
103 29 224 41 145 15 166 19 185 39 27 29 21 78 -12 104 -24 19 -104 31 -204
32 -64 1 -100 9 -100 22 0 16 87 55 134 61 20 3 44 11 53 18 35 29 284 31 507
4z m3926 -7 c13 -23 13 -49 0 -49 -5 0 -10 7 -10 15 0 8 -9 15 -20 15 -17 0
-20 -7 -20 -45 0 -52 -19 -60 -50 -23 -21 27 -14 48 31 90 31 29 53 28 69 -3z
m-1606 -39 c9 -22 16 -57 16 -78 0 -46 32 -117 59 -134 20 -12 29 -38 14 -38
-5 0 -19 14 -33 30 -23 29 -27 30 -58 19 -18 -6 -37 -20 -43 -31 -6 -11 -13
-17 -16 -15 -2 3 3 20 13 39 15 29 24 120 14 153 -6 22 1 95 9 95 5 0 16 -18
25 -40z m116 21 c0 -12 -29 -35 -36 -28 -11 10 5 37 21 37 8 0 15 -4 15 -9z
m70 -93 c0 -35 7 -83 16 -107 8 -24 12 -46 9 -49 -8 -8 -46 30 -56 55 -5 14
-14 20 -23 17 -8 -3 -24 4 -35 15 -21 21 -29 61 -11 61 5 0 14 -9 20 -20 22
-42 58 -12 40 34 -6 17 -4 28 8 40 27 27 32 19 32 -46z m1280 0 c11 -18 20
-39 20 -46 0 -24 -31 -25 -55 -2 -20 19 -27 21 -40 10 -9 -7 -13 -21 -10 -31
7 -21 -5 -25 -21 -9 -18 18 -47 0 -39 -24 17 -56 17 -63 -4 -69 -16 -4 -21 0
-21 13 0 10 -6 25 -13 32 -8 7 -14 34 -14 59 -1 40 2 48 27 62 27 17 60 14 60
-4 0 -14 28 -11 37 4 7 11 40 36 51 37 1 0 11 -15 22 -32z m-1053 -78 c13 -16
31 -30 39 -30 8 0 20 -11 26 -25 17 -37 -10 -63 -49 -49 -23 8 -29 16 -31 49
-2 22 -8 44 -13 50 -10 10 -12 35 -3 35 3 0 17 -13 31 -30z m803 1 c0 -19 -24
-51 -39 -51 -4 0 -16 9 -26 20 -23 25 -5 50 36 50 22 0 29 -5 29 -19z m2383
-53 c3 -12 4 -25 1 -30 -7 -11 -116 -10 -134 2 -27 18 24 50 80 50 41 0 49 -3
53 -22z m-2371 -60 c-15 -15 -26 -4 -18 18 5 13 9 15 18 6 9 -9 9 -15 0 -24z
m2478 -18 c0 -5 -4 -10 -10 -10 -5 0 -10 5 -10 10 0 6 5 10 10 10 6 0 10 -4
10 -10z m-115 -65 c0 -18 -6 -20 -69 -18 -76 3 -81 5 -72 28 5 13 19 15 73 13
60 -3 68 -5 68 -23z m-3365 -765 c0 -5 -4 -10 -10 -10 -5 0 -10 5 -10 10 0 6
5 10 10 10 6 0 10 -4 10 -10z"/>
<path d="M4209 13032 c39 -55 48 -58 81 -27 47 45 40 55 -36 55 l-65 0 20 -28z"/>
<path d="M6600 9341 c-8 -5 -37 -12 -64 -16 -64 -9 -76 -14 -76 -32 0 -13 10
-14 58 -8 69 8 125 30 120 47 -6 16 -20 19 -38 9z"/>
<path d="M628 6993 c-24 -6 -23 -23 2 -23 11 0 20 7 20 15 0 8 -1 14 -2 14 -2
-1 -11 -3 -20 -6z"/>
<path d="M5982 5319 c-28 -10 -20 -29 21 -53 44 -26 181 -35 190 -13 9 23 -11
34 -76 40 -31 3 -70 12 -85 20 -18 9 -37 11 -50 6z"/>
<path d="M2160 6471 c-14 -4 -25 -13 -25 -21 0 -13 22 -15 130 -12 149 2 175
7 175 27 0 13 -20 15 -127 14 -71 -1 -139 -5 -153 -8z"/>
<path d="M2382 3120 c-45 -42 -21 -68 47 -50 36 10 41 14 41 40 0 27 -3 30
-33 30 -20 0 -42 -8 -55 -20z"/>
<path d="M3779 3105 c-24 -13 -64 -33 -89 -43 -25 -11 -67 -29 -95 -41 -27
-12 -57 -26 -65 -31 -8 -5 -39 -21 -67 -35 -29 -15 -76 -44 -105 -66 -29 -21
-55 -40 -58 -41 -3 -2 -18 -18 -33 -37 -19 -23 -25 -37 -18 -44 7 -7 29 5 68
40 32 27 76 60 98 72 22 12 47 25 55 31 19 12 140 66 205 92 28 11 57 25 65
32 8 6 29 18 45 26 35 16 65 40 65 50 0 19 -30 16 -71 -5z"/>
<path d="M2772 3078 c-42 -22 -50 -32 -33 -42 13 -8 91 27 91 41 0 22 -16 22
-58 1z"/>
<path d="M3829 3017 c-20 -12 -104 -87 -188 -167 -83 -80 -163 -151 -176 -158
-14 -7 -25 -17 -25 -22 0 -5 -32 -46 -70 -92 -39 -46 -85 -107 -103 -137 -18
-30 -37 -62 -43 -72 -33 -56 -134 -127 -193 -135 -62 -9 -91 1 -91 31 0 40 65
102 200 190 128 85 170 126 173 172 3 41 -21 38 -40 -4 -22 -47 -37 -60 -130
-120 -174 -112 -242 -185 -243 -259 0 -49 21 -77 68 -93 28 -9 40 -7 75 11 60
30 213 183 250 249 18 31 50 78 72 105 59 73 430 434 474 462 30 19 41 32 41
50 0 17 -9 15 -51 -11z"/>
<path d="M2245 3003 c-77 -41 -164 -123 -165 -155 0 -23 30 -38 57 -27 12 4
29 23 38 42 19 40 46 68 95 94 21 12 35 27 35 39 0 25 -23 27 -60 7z"/>
<path d="M2729 2913 c-92 -62 -139 -105 -139 -124 0 -28 21 -23 71 14 24 19
58 41 74 50 43 22 79 63 72 81 -9 23 -19 20 -78 -21z"/>
<path d="M3227 2696 c-4 -10 -5 -21 -2 -24 9 -9 17 6 13 25 -3 17 -4 17 -11
-1z"/>
<path d="M2250 2436 c-19 -13 -45 -35 -57 -50 -24 -27 -63 -131 -63 -166 0
-22 -57 -63 -77 -56 -6 3 -17 -2 -23 -10 -7 -8 -19 -14 -26 -14 -23 0 -16 -26
11 -38 14 -7 32 -12 39 -12 23 0 135 62 142 79 3 9 12 49 19 89 11 60 20 80
55 122 25 30 40 56 36 65 -7 20 -16 19 -56 -9z"/>
<path d="M7327 5326 c-21 -13 -47 -21 -58 -19 -34 9 -86 -6 -92 -27 -5 -18 0
-20 60 -20 55 0 72 4 99 25 36 28 69 32 93 12 24 -19 110 -41 161 -41 113 1
184 11 195 28 7 12 6 19 -5 26 -16 10 -95 3 -122 -11 -25 -13 -80 -11 -110 5
-15 8 -40 17 -57 21 -17 4 -33 11 -36 16 -12 18 -89 9 -128 -15z"/>
<path d="M4545 3000 c-9 -14 3 -27 30 -32 14 -2 20 3 20 17 0 22 -38 34 -50
15z"/>
<path d="M4761 2456 c-20 -24 -9 -51 19 -51 21 0 25 5 25 30 0 34 -24 45 -44
21z"/>
<path d="M7664 3375 c-14 -22 -23 -25 -76 -25 -51 0 -59 -2 -56 -17 3 -14 14
-18 58 -19 68 -1 106 9 137 38 33 31 30 48 -12 48 -26 0 -39 -6 -51 -25z"/>
<path d="M7342 3353 c2 -13 15 -19 47 -21 54 -4 76 13 37 28 -15 5 -41 10 -57
10 -24 0 -30 -4 -27 -17z"/>
<path d="M7780 3340 c-21 -14 0 -26 62 -34 56 -8 67 -3 52 22 -13 20 -90 28
-114 12z"/>
<path d="M7809 3249 c-12 -8 -12 -11 1 -19 19 -12 98 -13 85 -1 -19 16 -72 29
-86 20z"/>
<path d="M7645 2690 c-12 -19 5 -28 56 -28 28 -1 76 -4 105 -8 43 -5 54 -3 54
8 0 29 -198 55 -215 28z"/>
<path d="M5374 2340 c-25 -10 -94 -74 -94 -87 0 -5 6 -18 14 -28 13 -18 15
-17 57 18 23 20 48 37 55 37 18 0 28 39 14 55 -14 17 -17 17 -46 5z"/>
<path d="M5573 2252 c-18 -3 -23 -10 -23 -32 0 -35 29 -49 47 -24 24 33 11 61
-24 56z"/>
<path d="M5354 1919 c-80 -86 -237 -240 -269 -264 -16 -13 -42 -26 -56 -30
-24 -6 -27 -3 -33 29 -5 23 -12 36 -23 36 -13 0 -15 -9 -10 -52 6 -53 6 -53
-28 -69 -36 -17 -45 -14 -59 25 -5 14 -9 16 -20 7 -10 -8 -12 -24 -9 -51 8
-54 -18 -54 -40 0 -16 42 -33 51 -44 24 -9 -23 15 -94 32 -94 8 0 15 -7 15
-15 0 -8 -4 -15 -10 -15 -5 0 -10 -7 -10 -15 0 -8 7 -15 15 -15 9 0 18 7 21
15 4 8 12 15 19 15 7 0 20 11 29 24 8 14 74 59 145 101 119 70 141 88 260 211
71 74 141 138 156 144 32 12 28 34 -7 38 -19 2 -36 -9 -74 -49z"/>
<path d="M5040 1676 c0 -19 27 -28 33 -11 7 15 -1 25 -20 25 -7 0 -13 -6 -13
-14z"/>
<path d="M7571 1023 c-23 -15 -23 -17 -6 -30 25 -18 50 -17 66 3 11 14 10 18
-6 30 -24 18 -26 18 -54 -3z"/>
<path d="M4453 1664 c-3 -8 2 -38 11 -66 9 -28 16 -61 16 -74 0 -27 32 -64 54
-64 24 0 28 19 8 40 -17 18 -40 82 -56 153 -7 30 -23 36 -33 11z"/>
<path d="M4374 1488 c4 -18 13 -39 20 -47 12 -11 16 -10 26 9 9 17 8 26 -5 46
-8 13 -23 24 -31 24 -13 0 -15 -7 -10 -32z"/>
</g>
</svg>
