<?xml version="1.0" standalone="no"?>
<!DOCTYPE svg PUBLIC "-//W3C//DTD SVG 20010904//EN"
 "http://www.w3.org/TR/2001/REC-SVG-20010904/DTD/svg10.dtd">
<svg version="1.0" xmlns="http://www.w3.org/2000/svg"
 width="883.000000pt" height="1444.000000pt" viewBox="0 0 883.000000 1444.000000"
 preserveAspectRatio="xMidYMid meet">
<metadata>
Created by potrace 1.16, written by Peter Selinger 2001-2019
</metadata>
<g transform="translate(0.000000,1444.000000) scale(0.100000,-0.100000)"
fill="#000000" stroke="none">
<path d="M7788 14005 c-6 -5 -714 -18 -778 -14 -220 13 -942 -2 -1280 -27 -36
-2 -195 -7 -355 -9 -159 -3 -337 -8 -395 -11 -117 -8 -175 -7 -399 6 -85 5
-158 7 -161 5 -12 -7 -115 -7 -160 1 -25 4 -65 7 -90 6 -41 -1 -194 -1 -310 0
-126 2 -2149 1 -2932 -1 l-318 -1 -15 -37 c-11 -26 -14 -56 -10 -107 14 -197
27 -2672 24 -4941 -1 -720 11 -2785 16 -2930 3 -77 8 -329 11 -560 5 -507 16
-1173 19 -1235 3 -57 18 -1014 17 -1100 0 -36 -1 -85 -3 -110 -1 -25 1 -295 5
-600 4 -305 8 -804 9 -1108 2 -551 2 -554 24 -578 12 -13 32 -24 45 -25 13 0
52 -1 88 -3 36 -1 75 1 88 6 12 4 22 4 22 -2 0 -5 27 -7 63 -4 80 8 81 8 215
1 72 -3 112 -2 112 5 0 6 72 9 203 8 247 -2 649 9 697 19 20 4 44 5 55 1 11
-4 34 -3 50 2 33 10 197 3 320 -13 44 -6 109 -8 144 -4 35 4 111 8 170 10 58
2 156 9 216 16 107 11 254 21 305 20 14 0 96 0 182 0 160 0 212 -6 202 -22 -7
-12 10 -11 22 1 12 12 134 13 384 4 149 -5 346 -11 488 -14 20 -1 91 -1 157 0
66 0 175 -3 243 -6 94 -5 129 -4 148 7 20 10 29 10 44 1 25 -15 214 -16 241
-1 15 7 24 7 35 -1 7 -7 30 -10 51 -8 21 3 46 0 56 -6 15 -9 22 -7 34 11 21
31 53 31 45 1 -3 -14 -2 -19 6 -14 7 4 12 14 12 22 0 8 9 14 20 14 11 0 20 -4
20 -9 0 -18 32 -20 57 -4 23 15 55 17 292 14 146 -1 286 -4 311 -7 68 -7 1193
-11 1285 -4 44 3 125 2 180 -1 86 -6 105 -4 137 12 21 11 43 29 49 42 10 17
12 214 10 831 -1 445 -5 814 -8 820 -4 5 -8 408 -10 895 -6 1555 -11 2541 -19
3531 -9 1231 -13 1904 -13 2500 0 261 0 482 0 490 0 8 -3 124 -5 258 -3 133
-7 246 -10 250 -4 8 -8 279 -8 707 0 311 -2 394 -17 710 -6 127 -11 278 -11
335 0 110 -5 218 -15 335 -8 92 -7 129 6 193 8 38 8 57 0 66 -7 8 -10 54 -9
112 0 54 -2 109 -6 122 -5 13 -3 29 3 36 8 10 10 107 6 337 -4 178 -8 405 -9
504 -3 144 -7 186 -20 211 -19 36 -52 49 -91 34 -15 -6 -31 -7 -37 -4 -10 6
-144 14 -150 9z m189 -151 c3 -99 15 -724 17 -879 1 -88 5 -207 9 -265 6 -99
12 -424 22 -1245 3 -198 9 -457 14 -575 4 -118 8 -242 8 -275 0 -33 3 -337 7
-675 4 -338 9 -900 12 -1248 l6 -634 -24 7 c-12 4 -28 13 -34 21 -19 23 -81
44 -132 44 -116 0 -228 -58 -284 -148 -20 -32 -19 -54 8 -150 8 -26 24 0 24
38 0 72 76 162 162 191 69 23 120 19 207 -17 l71 -29 -2 -310 -3 -310 -43 3
c-24 2 -49 -2 -57 -8 -8 -7 -41 -14 -73 -17 -46 -4 -62 -2 -75 12 -23 23 -22
30 13 55 19 14 30 30 30 46 0 33 -31 32 -76 -2 -45 -34 -95 -36 -158 -4 -62
32 -98 79 -106 139 -8 67 5 108 40 126 36 18 38 38 8 59 -20 15 -24 14 -46 -7
-59 -55 -82 -174 -45 -235 9 -15 26 -42 37 -60 26 -42 113 -87 184 -97 39 -5
57 -13 73 -33 46 -59 113 -77 188 -51 28 10 35 9 55 -10 17 -16 25 -18 34 -9
7 7 12 20 12 30 0 10 4 18 10 18 6 0 9 -138 7 -372 l-2 -373 -35 2 c-22 1 -41
9 -52 23 -20 25 -24 70 -7 87 13 13 31 79 31 113 0 13 7 30 16 37 14 11 15 14
3 22 -24 15 -38 2 -51 -46 -14 -59 -37 -103 -53 -103 -7 0 -22 -23 -35 -50
-24 -53 -98 -121 -159 -146 -41 -18 -243 -35 -280 -25 -109 31 -220 104 -264
173 -36 56 -59 61 -88 19 -57 -80 -238 -51 -347 55 -49 47 -94 128 -94 167 0
63 27 86 122 102 88 14 213 94 206 131 -6 32 -40 27 -95 -15 -29 -22 -68 -42
-85 -46 -18 -4 -62 -16 -96 -27 -46 -15 -67 -17 -75 -9 -7 7 -6 16 6 29 17 18
22 44 11 54 -3 3 -27 -3 -54 -13 -51 -19 -73 -19 -155 2 -50 12 -103 41 -140
76 -11 10 -32 26 -48 36 -76 49 -131 196 -122 324 8 107 48 235 84 267 11 11
21 25 21 31 0 7 14 18 30 25 17 7 34 18 38 24 4 6 31 22 60 35 38 18 54 32 59
50 9 39 12 42 35 30 11 -6 40 -10 64 -9 24 0 52 1 62 1 47 1 176 21 198 31 17
8 24 19 24 40 0 38 -23 45 -68 23 -28 -13 -72 -18 -174 -22 -76 -2 -138 -1
-138 4 0 4 4 15 9 22 16 24 -6 49 -48 56 -43 7 -128 58 -171 102 -47 48 -121
237 -104 264 2 4 0 29 -6 57 -10 53 1 199 21 286 16 69 124 192 249 285 51 39
73 46 127 41 16 -1 29 9 43 33 31 52 101 76 149 51 32 -17 46 -5 37 31 -7 28
-56 55 -99 55 -26 0 -102 -45 -131 -78 -28 -32 -55 -28 -63 9 -7 37 -27 47
-51 26 -31 -28 -77 -26 -93 4 -13 24 4 102 28 130 7 9 11 23 7 32 -4 11 5 26
26 43 24 21 31 33 27 52 -4 19 3 33 30 58 38 36 40 54 15 147 -12 45 1 63 53
73 33 6 95 -19 95 -38 0 -4 7 -8 15 -8 24 0 18 49 -11 88 -26 33 -29 34 -78
29 -28 -3 -62 -9 -75 -13 -23 -7 -24 -5 -17 26 3 18 13 47 22 64 36 73 54 142
54 213 0 66 -2 73 -20 73 -17 0 -20 -7 -20 -52 0 -63 -14 -120 -40 -169 -11
-20 -29 -67 -41 -105 -26 -86 -56 -144 -72 -144 -32 1 -38 16 -29 73 7 42 6
64 -4 82 -12 23 -10 28 12 50 14 14 34 25 46 25 18 0 20 4 15 36 -4 20 -18 54
-32 74 -26 37 -26 39 -10 71 12 22 15 44 11 69 -5 32 -3 38 12 36 12 -1 17 6
17 24 0 23 -3 24 -45 21 -25 -1 -65 -11 -89 -22 -54 -23 -61 -24 -61 -1 1 16
92 97 111 97 4 0 14 6 21 13 6 6 16 12 22 12 20 0 76 46 76 62 0 27 -20 32
-44 9 -12 -12 -29 -21 -37 -21 -20 0 -136 -73 -175 -110 -23 -23 -38 -31 -51
-25 -27 10 173 200 227 215 60 16 63 60 4 60 -34 0 -82 -36 -224 -168 -58 -54
-77 -62 -87 -36 -12 33 40 104 115 156 23 16 59 46 80 66 21 20 46 42 57 48
31 17 12 46 -27 39 -18 -3 -38 -11 -45 -17 -8 -6 -37 -16 -66 -23 -50 -11 -52
-13 -55 -47 -3 -34 -45 -89 -58 -76 -10 10 15 121 31 138 11 12 37 19 86 22
45 4 74 11 80 19 5 9 27 13 67 12 68 -1 98 -14 108 -45 4 -13 16 -35 26 -49
12 -16 21 -46 23 -75 3 -57 20 -136 35 -163 5 -11 10 -39 10 -63 0 -45 22 -89
37 -75 10 11 9 125 -2 156 l-8 24 74 -7 c41 -4 96 -14 124 -22 58 -17 111 -10
126 17 5 11 16 19 23 19 18 0 26 22 26 72 0 24 8 49 19 65 29 35 1 96 -47 106
-15 3 -49 10 -77 16 -27 5 -63 14 -78 20 -16 6 -49 11 -75 11 -80 0 -87 5
-101 69 -12 53 -11 61 7 98 24 47 30 75 42 213 8 96 27 209 50 300 5 19 14 62
20 95 6 33 15 83 20 110 9 50 33 205 51 325 5 36 13 79 18 95 14 43 20 79 31
180 5 50 16 113 24 140 18 61 46 228 52 310 3 33 9 71 14 85 9 27 20 93 45
270 9 63 20 138 25 165 9 47 14 78 46 285 26 166 51 291 60 300 5 5 74 10 153
11 79 1 154 4 167 8 13 3 167 6 341 5 l318 0 2 -50z m-5972 21 c165 -2 347 -4
405 -6 58 -1 245 2 415 7 349 10 573 10 785 0 330 -17 466 -21 935 -30 154 -3
309 -8 345 -12 36 -5 70 -7 75 -5 6 2 57 5 115 7 58 3 130 7 160 10 30 3 111
4 180 3 190 -3 191 -3 260 4 36 4 97 8 135 8 39 0 122 5 185 11 160 14 641 17
646 3 2 -5 -7 -59 -20 -120 -13 -60 -31 -146 -41 -190 -9 -44 -21 -97 -26
-117 -5 -21 -13 -55 -18 -75 -5 -21 -17 -74 -27 -118 -9 -44 -27 -123 -40
-175 -13 -52 -26 -113 -28 -135 -6 -47 -60 -330 -77 -395 -6 -25 -14 -72 -19
-105 -4 -33 -15 -89 -24 -125 -9 -36 -27 -128 -40 -205 -14 -77 -28 -148 -31
-157 -4 -9 -12 -53 -20 -99 -8 -46 -21 -115 -30 -154 -42 -180 -56 -245 -67
-315 -7 -41 -20 -86 -30 -99 -10 -13 -18 -39 -18 -57 0 -18 -8 -48 -19 -66
-13 -23 -17 -46 -14 -75 l5 -41 55 -4 c38 -2 57 1 60 10 7 17 -16 42 -38 42
-11 0 -19 4 -19 9 0 14 25 20 41 10 25 -16 41 -10 37 13 -2 13 -15 29 -30 36
-16 7 -28 17 -28 23 0 12 -1 12 83 -10 39 -11 93 -23 120 -26 45 -7 61 -19 35
-27 -18 -6 2 -29 20 -24 15 5 62 -24 62 -37 0 -3 -21 -5 -46 -4 -30 1 -48 -3
-51 -10 -5 -13 2 -17 50 -27 16 -4 27 -13 27 -22 0 -12 -6 -15 -22 -11 -13 4
-29 0 -39 -9 -15 -14 -30 -13 -149 11 -175 36 -195 36 -223 2 -21 -25 -24 -26
-67 -16 -25 6 -67 15 -95 19 -27 5 -72 14 -100 20 -60 14 -144 13 -162 -2 -13
-10 -34 -52 -47 -90 -7 -22 -29 -23 -46 -4 -6 8 -28 20 -48 27 -20 6 -44 19
-54 29 -33 35 -88 62 -115 57 -14 -3 -52 4 -84 14 -32 10 -65 16 -74 13 -9 -4
-21 1 -29 11 -9 12 -20 16 -37 12 -14 -3 -32 0 -43 9 -11 8 -28 14 -38 14 -10
0 -44 9 -76 20 -32 11 -69 19 -83 18 -21 -3 -26 4 -43 57 -10 33 -29 85 -43
115 -14 30 -26 66 -26 80 -2 25 -1 25 67 22 57 -3 82 2 143 25 70 26 76 31
114 90 43 69 51 125 24 177 -20 38 -19 46 6 46 11 0 27 7 36 15 8 9 23 13 34
10 10 -3 30 1 44 11 30 19 34 5 5 -21 -49 -44 -3 -128 75 -139 37 -6 51 -3 74
13 16 12 34 21 40 21 6 0 28 16 49 35 35 31 41 33 58 21 16 -12 23 -12 49 1
52 27 93 63 99 87 4 17 26 34 78 59 40 20 81 38 91 41 20 6 21 16 4 40 -13 18
-15 18 -53 -2 -21 -11 -57 -29 -79 -39 -46 -21 -85 -52 -85 -67 0 -14 -48 -66
-60 -66 -5 0 -7 7 -3 17 5 13 2 15 -18 8 -13 -4 -46 -7 -72 -6 -36 1 -61 -5
-94 -24 -25 -14 -50 -25 -55 -25 -20 0 17 32 64 56 57 29 65 43 48 85 -14 32
-7 50 12 31 7 -7 25 -12 40 -12 15 0 28 -4 28 -10 0 -20 37 -9 48 14 6 13 26
30 45 37 25 9 39 24 56 60 15 31 33 51 51 59 17 7 33 24 39 42 6 16 20 32 31
35 21 6 70 84 70 114 0 10 -9 23 -19 29 -26 13 -17 44 17 60 15 7 34 16 42 20
8 4 22 19 30 33 11 21 12 29 3 38 -10 10 -17 9 -31 -4 -10 -9 -23 -17 -29 -17
-5 0 -18 -10 -29 -21 -10 -12 -28 -25 -39 -30 -11 -5 -27 -13 -35 -18 -8 -4
-32 -16 -52 -26 -34 -16 -38 -22 -38 -56 0 -38 -12 -49 -51 -49 -24 0 -25 16
0 29 10 6 21 23 24 38 3 16 9 40 13 55 3 15 3 49 -1 74 -5 36 -16 55 -51 90
-43 43 -44 44 -111 44 -62 0 -75 -4 -138 -41 -39 -22 -83 -56 -100 -75 -24
-27 -42 -36 -84 -44 -74 -14 -91 -13 -98 6 -7 20 24 47 87 75 56 25 80 47 80
71 0 32 -29 32 -113 -2 -96 -39 -101 -43 -139 -94 -33 -46 -35 -74 -7 -110 39
-50 72 -59 163 -46 44 6 94 15 110 20 16 5 32 8 34 5 3 -3 -7 -22 -22 -43 -14
-21 -26 -43 -26 -50 0 -13 -57 -57 -86 -66 -16 -5 -26 0 -38 19 -22 33 -58 32
-116 -1 -25 -15 -62 -29 -82 -31 -34 -4 -40 -2 -55 26 -10 17 -32 36 -49 42
-19 7 -35 24 -44 43 -22 52 -50 76 -88 76 -31 0 -34 2 -28 24 12 48 -30 56
-136 26 -31 -9 -38 -16 -38 -35 0 -31 -21 -32 -58 -5 -23 17 -35 19 -80 11
-29 -4 -63 -6 -76 -4 -27 5 -268 -24 -299 -37 -12 -4 -48 -16 -80 -25 -45 -13
-66 -27 -100 -65 -33 -38 -50 -49 -83 -54 -35 -5 -42 -3 -47 13 -2 10 -26 31
-53 46 -27 15 -60 35 -74 45 -51 35 -160 71 -208 69 -26 -1 -67 3 -92 9 -36 9
-48 8 -61 -4 -8 -7 -31 -14 -50 -14 -20 0 -49 -10 -70 -24 -20 -14 -49 -28
-64 -32 -14 -4 -29 -14 -33 -23 -3 -9 -16 -24 -28 -33 -42 -33 -67 -138 -33
-138 5 0 18 19 28 43 20 47 81 105 137 132 76 36 332 11 423 -41 55 -32 111
-83 111 -101 0 -7 9 -18 20 -25 24 -16 25 -25 3 -69 -24 -47 -30 -159 -10
-198 8 -17 18 -48 22 -70 7 -43 39 -92 58 -90 44 5 55 -2 60 -39 4 -21 13 -46
20 -56 12 -17 17 -17 43 -5 19 10 30 23 32 41 2 18 11 28 28 32 20 5 24 12 24
45 0 30 -5 40 -25 51 -24 13 -28 12 -51 -13 -14 -15 -26 -27 -28 -27 -6 0 -76
151 -76 164 0 26 26 66 43 66 14 0 18 7 15 31 -3 32 -3 32 47 33 l50 1 -3 70
c-3 67 -2 71 27 99 34 33 55 30 22 -3 -27 -27 -27 -45 0 -70 13 -12 19 -26 15
-38 -8 -25 7 -46 30 -41 16 3 19 13 19 69 0 45 5 73 18 92 17 27 43 38 33 15
-2 -7 -12 -37 -21 -65 -14 -45 -14 -57 -3 -80 22 -46 44 -36 40 18 -5 72 55
148 131 165 24 5 28 10 25 37 l-3 32 112 -1 c104 0 115 -2 138 -24 37 -35 30
-43 -16 -19 -28 14 -52 19 -73 15 -17 -3 -45 -8 -63 -11 -38 -6 -135 -69 -181
-118 -41 -42 -39 -68 7 -83 18 -6 44 -25 58 -42 31 -41 50 -40 61 1 8 30 12
33 73 43 35 6 66 9 68 8 2 -2 1 -10 -2 -19 -4 -9 -19 -15 -40 -15 -37 0 -58
-15 -50 -36 9 -24 87 -17 157 16 36 16 76 32 90 36 13 3 33 15 43 26 10 11 33
35 51 54 29 29 35 44 39 94 7 74 26 79 55 14 20 -47 20 -47 1 -88 -44 -90 -47
-106 -30 -123 26 -26 67 -3 67 37 0 41 28 96 42 82 16 -16 5 -128 -15 -150
-27 -30 -22 -54 10 -50 30 3 62 52 63 96 0 35 24 21 28 -16 3 -25 -6 -46 -37
-89 -30 -43 -38 -60 -29 -70 19 -24 36 -14 72 44 31 50 77 93 99 93 4 0 7 -8
7 -18 0 -11 -15 -26 -37 -38 -21 -11 -39 -28 -41 -37 -4 -21 15 -22 37 -3 9 7
27 17 41 21 23 7 24 7 10 -10 -8 -10 -34 -27 -57 -37 -30 -13 -43 -25 -43 -39
0 -27 21 -33 56 -14 60 31 81 17 64 -44 -7 -28 -24 -51 -53 -74 -44 -36 -97
-47 -232 -51 -46 -1 -50 -3 -50 -26 0 -23 4 -25 52 -28 29 -2 67 1 85 6 18 4
48 5 66 1 26 -5 38 -2 60 17 90 78 92 78 91 32 -1 -45 -55 -118 -108 -144 -44
-22 -140 -31 -208 -18 -49 9 -40 25 11 18 27 -4 46 -2 50 5 4 6 30 11 57 11
37 0 51 4 56 16 10 26 -26 46 -69 40 -21 -3 -57 -8 -80 -11 -77 -10 -88 -14
-88 -35 0 -11 -4 -20 -9 -20 -5 0 -13 -10 -17 -22 -5 -16 0 -27 18 -42 17 -14
27 -35 30 -61 3 -22 15 -61 26 -85 11 -25 25 -65 32 -90 7 -25 26 -70 43 -101
25 -44 42 -61 86 -86 31 -17 75 -33 99 -37 40 -6 42 -5 42 20 0 37 22 25 37
-19 9 -28 10 -50 2 -91 -10 -49 -15 -56 -51 -72 -22 -10 -48 -28 -58 -41 -10
-13 -29 -23 -43 -23 -13 0 -40 -6 -58 -14 -52 -21 -287 -16 -322 7 -14 9 -33
17 -42 17 -42 0 -153 109 -153 150 -1 14 -3 36 -5 50 -6 32 16 99 49 147 16
25 23 45 19 60 -4 17 4 33 30 62 19 21 35 45 35 54 0 27 -21 30 -51 8 -15 -11
-31 -21 -34 -21 -10 0 -113 -79 -122 -93 -14 -22 -61 -47 -90 -47 -41 0 -76
21 -93 55 -31 60 -73 121 -111 160 -50 53 -99 152 -92 188 6 31 -6 35 -42 11
-28 -18 -32 -45 -11 -64 8 -6 20 -27 27 -47 20 -60 35 -82 96 -137 39 -36 66
-71 82 -107 13 -30 27 -61 30 -69 12 -23 73 -53 111 -54 31 -1 37 -6 57 -46
32 -65 30 -90 -6 -90 -60 0 -93 -13 -110 -41 -9 -16 -22 -29 -30 -29 -8 0 -30
-12 -49 -27 -20 -15 -57 -37 -83 -50 -27 -14 -68 -48 -95 -79 -45 -53 -114
-173 -114 -199 0 -6 -9 -22 -20 -35 -11 -13 -21 -35 -21 -49 -3 -46 -5 -55
-17 -98 -8 -25 -19 -43 -27 -43 -19 0 -18 -10 1 -35 9 -13 12 -30 8 -48 -8
-36 -11 -54 -25 -153 -9 -62 -8 -92 1 -130 6 -27 15 -87 20 -134 10 -117 17
-144 46 -170 13 -13 24 -32 24 -42 0 -11 24 -69 54 -131 30 -62 59 -128 65
-148 7 -20 26 -58 43 -85 17 -27 35 -63 39 -79 7 -23 28 -43 94 -85 81 -53 86
-57 106 -115 11 -33 25 -103 29 -156 4 -53 13 -121 20 -153 10 -51 10 -62 -8
-99 -10 -23 -22 -54 -26 -69 -4 -20 -26 -39 -83 -73 -84 -51 -91 -58 -124
-125 -12 -25 -28 -52 -34 -60 -7 -8 -45 -78 -85 -155 -39 -77 -85 -158 -100
-180 -16 -22 -50 -76 -76 -120 -26 -44 -67 -111 -93 -148 -59 -87 -100 -166
-101 -192 0 -11 -8 -36 -19 -55 -10 -19 -15 -43 -12 -52 9 -26 72 -68 101 -68
15 0 29 -3 32 -6 7 -6 -8 -54 -30 -100 -15 -31 -14 -34 16 -81 l31 -49 -28
-79 c-51 -144 -63 -182 -101 -320 -4 -16 -17 -52 -28 -80 -12 -27 -30 -84 -42
-125 -12 -41 -42 -135 -66 -208 -25 -73 -54 -178 -65 -234 -12 -56 -27 -111
-34 -123 -7 -11 -16 -33 -19 -49 -4 -15 -16 -41 -28 -56 -17 -23 -26 -28 -48
-23 -23 4 -29 1 -35 -17 -5 -16 -9 -19 -15 -10 -5 8 -19 11 -38 7 -21 -4 -34
-1 -46 12 -22 25 -20 90 4 121 22 29 26 63 8 77 -7 6 -30 13 -50 17 -35 6 -40
4 -75 -35 -40 -44 -99 -75 -164 -85 -34 -6 -42 -3 -68 25 -32 34 -47 38 -77
17 -35 -25 -98 -36 -211 -37 -100 -1 -121 3 -207 32 -71 23 -109 43 -141 72
-25 21 -45 44 -45 50 0 7 -14 41 -31 75 -40 82 -47 167 -16 200 11 12 26 22
33 22 6 0 17 7 24 15 10 12 9 19 -4 37 -60 84 -77 125 -89 219 -17 128 78 264
163 232 38 -14 44 -5 41 62 -2 50 -1 52 53 103 30 28 72 59 93 69 21 10 45 26
53 36 12 15 27 18 79 15 l65 -3 9 -35 c5 -19 13 -39 18 -44 5 -6 9 -18 9 -28
0 -12 8 -18 23 -18 13 0 28 -5 35 -12 8 -8 15 -8 26 1 21 17 36 5 36 -28 0
-36 21 -64 42 -56 18 7 24 20 32 68 7 39 19 51 73 77 70 33 177 30 235 -4 83
-50 98 -70 134 -171 21 -60 21 -60 1 -112 l-19 -52 23 -33 c19 -27 24 -44 22
-90 -2 -38 2 -60 12 -68 20 -17 52 3 59 37 7 31 -16 126 -35 149 -6 8 -8 18
-4 22 4 4 10 1 12 -5 6 -17 48 -16 62 1 15 18 79 28 102 15 10 -5 22 -24 27
-42 6 -25 14 -33 35 -35 28 -3 31 2 27 48 -3 37 -25 75 -56 95 -35 22 -120 15
-167 -14 l-33 -20 -1 47 c-1 145 -97 266 -246 312 -54 17 -74 19 -104 11 -21
-6 -54 -13 -74 -16 -23 -3 -54 -21 -83 -46 -42 -37 -47 -39 -62 -25 -8 9 -32
16 -53 16 -44 0 -56 11 -66 58 -16 77 -123 95 -227 40 -71 -38 -218 -172 -218
-198 0 -35 -12 -50 -39 -50 -38 0 -102 -69 -143 -155 -33 -69 -33 -71 -26
-172 4 -61 13 -114 22 -130 41 -76 40 -72 21 -93 -11 -12 -20 -26 -21 -33 -1
-7 -6 -30 -12 -53 -5 -22 -7 -56 -5 -75 4 -34 7 -40 39 -112 19 -43 16 -49
-37 -75 -50 -25 -60 -80 -30 -162 22 -61 21 -80 -4 -80 -7 0 -25 -14 -38 -32
-21 -27 -28 -30 -41 -19 -9 8 -39 11 -83 10 -37 -1 -78 1 -89 4 -25 9 -165
-33 -239 -71 -27 -14 -68 -44 -90 -67 -81 -83 -145 -163 -145 -182 0 -10 -4
-23 -8 -29 -11 -11 -48 -159 -59 -234 -8 -52 -4 -111 12 -189 4 -19 24 -68 46
-110 45 -87 129 -171 197 -197 23 -9 42 -20 42 -24 0 -4 -26 -14 -58 -23 -42
-11 -63 -24 -80 -46 -26 -36 -42 -39 -67 -11 -52 58 -246 141 -289 124 -18 -7
-22 65 -24 526 -1 184 -5 441 -8 570 -4 129 -6 282 -5 340 3 225 1 1030 -4
1125 -5 106 -14 1470 -15 2180 0 557 1 2616 2 2920 2 446 -1 820 -6 895 -3 41
-5 194 -5 340 1 259 1 325 -4 365 -2 19 4 20 83 19 47 -1 161 -5 254 -9 117
-5 189 -4 235 4 91 16 300 29 391 24 41 -2 210 -6 375 -8z m4802 -12 c-8 -38
-44 -192 -67 -283 -18 -72 -54 -271 -64 -355 -3 -22 -19 -103 -37 -180 -37
-165 -67 -311 -79 -378 -5 -26 -11 -56 -14 -65 -3 -9 -15 -57 -25 -107 -11
-49 -25 -108 -30 -130 -6 -22 -18 -85 -26 -140 -9 -55 -29 -170 -45 -255 -15
-85 -36 -200 -45 -255 -10 -55 -23 -122 -31 -149 -7 -27 -12 -52 -9 -56 3 -4
-2 -27 -9 -51 -8 -24 -19 -70 -26 -102 l-12 -59 -46 7 c-26 4 -51 11 -56 16
-6 5 -3 37 7 81 9 40 24 111 33 158 9 47 25 121 35 165 10 44 25 123 33 175 8
52 19 118 25 146 5 28 12 72 16 99 3 26 8 52 12 57 9 16 22 75 38 173 27 162
36 209 60 295 13 47 27 108 30 135 7 59 19 116 51 247 13 53 24 107 24 120 0
13 7 34 16 46 9 13 13 29 10 37 -5 13 42 217 104 451 17 61 30 120 30 132 0
43 10 52 57 52 44 0 45 -1 40 -27z m116 -3 c-2 -36 -19 -151 -36 -255 -8 -49
-20 -130 -27 -180 -6 -49 -18 -124 -25 -165 -8 -41 -18 -109 -24 -150 -6 -41
-15 -95 -20 -120 -14 -72 -39 -209 -51 -290 -6 -41 -16 -95 -21 -120 -15 -72
-29 -159 -39 -240 -5 -41 -14 -97 -19 -125 -11 -54 -21 -111 -46 -244 -8 -47
-19 -101 -25 -120 -5 -20 -14 -74 -19 -121 -9 -78 -27 -168 -79 -390 -12 -54
-21 -75 -32 -74 -13 2 -111 26 -118 30 -1 0 5 34 13 75 9 41 18 90 20 109 2
19 11 69 19 110 9 41 20 111 26 154 6 44 13 83 16 87 2 4 11 54 19 110 28 197
53 334 80 434 52 194 109 434 126 530 7 39 19 97 27 130 8 33 23 112 34 175
22 134 64 326 84 388 8 23 14 53 14 66 0 13 4 36 9 52 6 16 15 55 21 86 6 32
18 65 27 73 23 23 48 14 46 -15z m-1440 -1371 c34 -9 46 -26 31 -42 -4 -3 -20
1 -36 9 -20 10 -43 13 -76 9 l-47 -6 25 20 c28 23 49 25 103 10z m-15 -100 c2
-12 -7 -18 -36 -22 -21 -4 -54 -17 -73 -30 -28 -19 -34 -29 -34 -60 0 -31 -5
-40 -34 -58 -18 -11 -36 -18 -38 -15 -3 3 6 25 20 50 14 25 28 59 32 75 10 48
60 80 120 78 28 -1 41 -7 43 -18z m-938 -43 c0 -2 -7 -6 -15 -10 -8 -3 -15 -1
-15 4 0 6 7 10 15 10 8 0 15 -2 15 -4z m900 -41 c0 -16 -38 -40 -48 -30 -4 4
4 15 17 26 28 23 31 23 31 4z m-875 -23 c0 -20 -19 -18 -23 2 -3 12 1 17 10
14 7 -3 13 -10 13 -16z m-491 -27 c-4 -8 -11 -15 -17 -15 -6 0 -19 -7 -29 -17
-29 -26 -33 -7 -5 21 29 29 60 35 51 11z m436 -20 c7 -18 17 -25 35 -25 33 0
32 -19 -2 -51 -16 -15 -36 -38 -46 -53 -20 -29 -48 -34 -67 -11 -7 8 -20 15
-29 15 -9 0 -21 10 -26 23 -7 16 -20 23 -48 25 -43 4 -64 -9 -69 -40 -4 -28
-26 -35 -35 -11 -9 26 -24 33 -45 22 -11 -6 -18 -6 -18 0 0 13 30 22 53 15 14
-4 26 2 42 22 19 24 29 28 66 27 25 -1 54 -10 71 -23 37 -28 118 -29 118 -1 0
10 -10 25 -21 33 -16 10 -20 20 -15 36 10 29 24 28 36 -3z m1027 -35 c-12 -20
-78 -43 -89 -32 -4 4 4 24 19 45 26 36 26 36 53 20 23 -13 26 -19 17 -33z
m198 30 c3 -5 1 -10 -4 -10 -6 0 -11 5 -11 10 0 6 2 10 4 10 3 0 8 -4 11 -10z
m-1889 -15 c-21 -16 -32 -13 -21 4 3 6 14 11 23 11 15 -1 15 -2 -2 -15z m1474
-70 c0 -20 -36 -55 -56 -55 -11 0 -14 6 -9 23 12 39 65 66 65 32z m111 -48
c16 -9 29 -21 29 -27 0 -19 -29 -23 -45 -6 -9 9 -25 16 -35 16 -27 0 -30 11
-13 50 l16 35 10 -26 c5 -14 22 -32 38 -42z m-1661 17 c0 -14 -12 -19 -23 -8
-9 9 4 35 14 28 5 -3 9 -12 9 -20z m1260 3 c0 -40 -44 -65 -57 -32 -6 18 23
55 44 55 7 0 13 -10 13 -23z m164 4 c4 -5 -12 -32 -34 -60 -22 -28 -40 -54
-40 -58 0 -4 -20 -8 -45 -8 -25 0 -45 3 -45 8 0 7 41 27 68 33 21 4 41 24 48
47 12 40 36 59 48 38z m-1484 -72 c0 -11 -4 -19 -10 -19 -13 0 -32 38 -25 51
10 14 35 -9 35 -32z m1199 16 c3 -12 -13 -9 -17 4 -2 7 0 11 6 7 5 -3 10 -8
11 -11z m-1281 -117 c-18 -65 -44 -74 -41 -14 3 47 30 93 45 78 8 -8 6 -27 -4
-64z m1672 68 c0 -5 -79 -59 -110 -76 -18 -9 -20 -8 -20 15 0 17 7 28 23 34
69 26 107 36 107 27z m66 -31 c-11 -8 -27 -15 -35 -15 -11 0 -10 4 5 15 10 8
26 14 34 14 11 0 10 -3 -4 -14z m112 -7 c-7 -20 -48 -23 -48 -4 0 11 9 16 26
16 16 0 24 -5 22 -12z m-381 -82 c-9 -22 -56 -51 -67 -40 -16 16 1 53 29 62
29 11 47 1 38 -22z m153 -14 c0 -8 -43 -32 -55 -32 -14 0 -2 18 18 28 28 13
37 14 37 4z m130 -139 c0 -5 -18 -18 -40 -30 -46 -25 -52 -19 -12 14 27 22 52
30 52 16z m901 -488 c89 -6 208 -39 216 -61 10 -28 -11 -35 -58 -20 -81 25
-249 58 -274 54 -26 -5 -29 -1 -19 27 5 11 14 14 33 11 14 -3 60 -8 102 -11z
m-1178 -252 c11 -10 35 -18 56 -18 l36 0 -1 -58 c-2 -84 -40 -182 -94 -242
-35 -39 -54 -88 -47 -122 3 -16 18 -61 32 -102 39 -109 41 -256 4 -256 -10 0
-14 14 -15 47 -3 93 -51 212 -117 293 -24 29 -26 30 -59 16 -22 -10 -65 -14
-133 -13 -55 1 -125 -1 -156 -6 -61 -9 -153 13 -174 41 -5 8 -29 24 -52 36
-23 11 -55 37 -70 56 -15 19 -33 35 -39 35 -5 0 -22 13 -37 28 -15 16 -48 39
-72 51 -25 12 -45 25 -45 29 1 17 18 32 52 46 l37 16 90 -84 c69 -63 100 -85
127 -89 20 -3 45 -14 55 -23 15 -14 44 -17 176 -18 112 -1 166 2 185 11 15 7
36 13 47 13 10 0 38 15 60 34 23 19 54 37 69 41 23 5 31 15 48 63 19 58 24
129 10 170 -10 26 0 28 27 5z m1022 -12 c3 -6 27 -13 53 -16 50 -7 165 -29
222 -42 31 -8 35 -13 38 -46 3 -32 0 -37 -18 -37 -11 0 -39 12 -62 26 -29 18
-58 28 -93 29 -71 4 -135 16 -135 26 0 5 -8 9 -19 9 -28 0 -47 26 -31 45 14
17 36 20 45 6z m-783 -37 c34 -17 43 -33 29 -47 -6 -6 -11 -19 -11 -29 0 -23
38 -24 55 -1 18 24 43 10 61 -34 9 -21 23 -46 31 -55 17 -19 11 -24 -37 -30
-17 -2 -26 -10 -28 -26 -3 -22 -1 -23 35 -16 21 4 47 10 58 14 13 5 28 3 40
-6 10 -8 38 -14 61 -14 29 0 44 -5 48 -16 11 -29 6 -34 -29 -34 -25 0 -35 -4
-35 -15 0 -16 6 -19 52 -29 20 -5 30 -16 42 -53 21 -61 21 -61 -11 -65 -34 -4
-38 -32 -6 -36 12 -2 26 -9 32 -16 9 -11 4 -15 -20 -20 -22 -4 -30 -11 -27
-23 3 -14 11 -17 41 -15 46 4 52 -20 10 -40 -15 -7 -29 -22 -31 -32 -4 -19 6
-19 69 0 17 5 69 -31 69 -47 0 -18 -31 -22 -48 -6 -12 10 -24 12 -39 6 -24 -9
-31 -33 -13 -44 16 -10 12 -41 -10 -77 -18 -31 -43 -93 -86 -214 -9 -23 -24
-50 -35 -60 -18 -17 -19 -16 -19 14 0 19 8 39 21 51 24 22 18 41 -12 41 -12 0
-19 7 -19 20 0 13 7 20 20 20 15 0 20 7 20 26 0 23 -3 26 -26 21 -25 -4 -25
-4 -19 45 4 29 3 54 -3 61 -6 7 -18 82 -27 167 -11 106 -21 160 -31 170 -13
13 -16 13 -24 0 -12 -19 -12 -49 1 -130 6 -36 12 -75 14 -87 2 -12 8 -98 14
-190 6 -93 13 -193 16 -224 4 -46 1 -60 -14 -73 -23 -21 -55 -22 -47 0 16 42
-2 463 -22 502 -5 9 -15 46 -21 82 -7 35 -28 113 -47 173 -19 60 -34 127 -34
149 0 32 -3 39 -17 36 -10 -2 -22 -15 -27 -30 -8 -22 -2 -52 28 -145 59 -185
78 -274 100 -463 7 -63 11 -139 8 -168 l-4 -52 -41 2 c-37 3 -42 0 -45 -19 -3
-21 1 -23 38 -23 37 0 41 -2 38 -22 -2 -18 -10 -24 -40 -26 -67 -6 -77 -52
-12 -52 57 0 36 -20 -67 -65 -52 -22 -104 -46 -117 -53 -12 -7 -31 -10 -42 -7
-11 3 -28 2 -37 -4 -15 -8 -23 -4 -45 22 -26 31 -27 31 -109 30 -46 -1 -86 2
-89 6 -3 5 -34 32 -69 60 -54 43 -70 51 -106 51 -41 0 -43 1 -49 38 -4 25 -21
53 -51 85 -25 27 -45 52 -45 58 0 5 -23 35 -50 66 -28 32 -67 77 -88 101 -34
40 -106 82 -139 82 -8 0 -46 21 -85 46 -39 26 -87 48 -108 51 -33 5 -41 1 -71
-30 l-34 -36 -25 30 c-32 39 -52 32 -87 -32 -14 -27 -30 -49 -35 -49 -16 0 -8
-85 11 -117 17 -27 18 -33 5 -43 -8 -7 -14 -20 -14 -29 0 -9 -14 -36 -30 -61
-16 -25 -30 -55 -30 -67 0 -16 -7 -24 -25 -28 -79 -16 -72 -20 -80 43 -14 105
-9 212 14 276 17 50 20 73 15 142 -7 78 -6 83 18 106 13 13 32 50 42 83 28 94
85 172 166 227 39 27 53 30 112 30 79 -1 119 -19 166 -73 19 -22 42 -39 53
-39 11 0 24 -11 31 -25 6 -13 25 -31 42 -39 18 -8 40 -24 51 -36 10 -11 24
-20 30 -20 7 0 18 -7 25 -15 20 -24 114 -46 180 -41 34 2 63 6 65 8 2 2 48 0
101 -5 82 -7 99 -6 114 8 17 15 20 15 40 -7 38 -39 83 -147 88 -207 3 -43 10
-63 31 -84 23 -25 71 -57 85 -57 22 0 42 217 24 272 -5 18 -12 48 -14 67 -3
19 -9 42 -15 52 -16 30 -14 86 5 111 54 76 70 103 97 168 16 40 32 97 35 126
7 59 11 61 76 28z m453 -18 c55 -14 146 -33 203 -42 107 -18 132 -38 52 -40
-47 -2 -67 -18 -102 -82 -15 -28 -19 -30 -50 -22 -18 5 -77 16 -131 25 -59 11
-101 23 -104 31 -2 7 -18 16 -34 19 -16 4 -29 11 -29 16 0 8 17 82 26 118 5
16 32 13 169 -23z m775 -163 c8 -4 22 -7 30 -8 41 -2 183 -41 187 -52 2 -6 -3
-25 -11 -42 -9 -16 -16 -48 -16 -70 0 -22 -4 -42 -9 -45 -5 -3 -28 3 -52 13
-24 11 -62 22 -84 26 -22 4 -53 11 -68 17 -15 6 -38 11 -50 12 -19 1 -23 8
-28 54 -4 29 -14 64 -24 78 -28 44 -15 53 52 37 32 -8 65 -17 73 -20z m-756
-82 c5 -8 52 -19 104 -24 14 -1 22 -9 22 -20 0 -9 6 -26 13 -37 10 -17 9 -26
-5 -51 -21 -35 -23 -60 -7 -76 9 -9 8 -29 -5 -78 -9 -37 -14 -76 -11 -86 5
-15 0 -20 -22 -25 -41 -8 -46 -4 -66 51 -55 148 -96 322 -82 345 8 12 52 13
59 1z m211 -310 c8 -26 32 -34 40 -13 6 14 8 13 16 -7 13 -33 1 -42 -57 -44
-53 -2 -52 -3 -39 61 6 27 31 29 40 3z m124 -48 c0 -5 -3 -9 -9 -11 -5 -2 -10
4 -10 13 0 16 16 14 19 -2z m116 -3 c3 -10 1 -28 -4 -39 -6 -11 -11 -33 -11
-50 0 -17 -4 -31 -8 -31 -15 0 -32 24 -32 46 0 13 -4 26 -10 29 -18 11 -10 34
18 49 36 20 40 20 47 -4z m-125 -58 c58 -28 45 -43 -55 -64 -135 -27 -185 -46
-195 -73 -5 -13 -18 -26 -29 -30 -25 -8 -28 -33 -5 -42 20 -8 64 13 64 30 0
25 34 44 100 57 36 7 70 16 75 20 22 16 73 19 91 5 18 -13 18 -15 2 -31 -16
-16 -28 -20 -161 -48 -76 -15 -93 -26 -83 -51 4 -12 12 -15 24 -10 9 5 40 13
67 20 28 6 57 14 65 17 78 29 123 27 118 -5 -2 -16 -23 -27 -106 -55 -101 -33
-126 -52 -104 -74 9 -9 16 -7 29 4 10 9 43 23 73 31 30 9 65 19 77 22 28 9 40
-14 24 -43 -14 -27 -114 -65 -171 -66 l-45 -1 -6 -42 c-3 -27 -18 -58 -42 -89
-20 -26 -37 -52 -37 -58 0 -17 -112 -115 -160 -140 -25 -13 -59 -26 -77 -29
-26 -5 -33 -3 -38 14 -5 16 -12 19 -31 15 -22 -6 -24 -3 -25 31 -3 97 4 157
22 187 10 17 22 38 26 46 3 8 10 17 13 20 12 8 77 143 84 175 4 17 23 55 42
86 19 31 34 64 34 74 0 13 6 15 30 10 27 -6 30 -4 30 18 0 36 17 45 102 55 42
6 84 15 94 21 26 14 43 13 84 -7z m-2015 -52 c16 -16 35 -30 42 -30 7 0 13 -4
13 -9 0 -12 57 -38 109 -50 26 -5 53 -20 65 -34 125 -147 154 -191 136 -202
-6 -4 -10 -15 -10 -27 0 -26 60 -139 78 -145 7 -3 18 -16 23 -30 9 -23 45 -44
64 -36 6 2 16 17 22 33 15 39 47 39 93 1 l35 -29 -21 -24 c-30 -31 -41 -98
-33 -188 7 -67 10 -77 39 -103 38 -34 49 -25 51 38 1 61 11 79 45 80 27 0 29
4 35 45 9 61 -3 70 -52 42 -47 -27 -63 -21 -54 21 10 44 30 64 48 48 10 -7 43
-11 92 -9 66 3 79 0 89 -15 9 -15 7 -22 -14 -39 -33 -27 -60 -68 -60 -92 0
-23 28 -45 58 -46 19 0 22 -5 22 -42 0 -32 6 -49 27 -70 50 -52 66 -31 37 51
-20 59 -5 104 53 155 24 21 50 50 58 65 10 20 33 35 84 55 38 15 88 40 110 57
35 25 61 36 61 26 0 -1 -9 -20 -20 -42 -24 -47 -24 -51 -4 -112 23 -72 46
-112 69 -119 53 -16 135 -58 135 -70 0 -7 -8 -18 -19 -23 -14 -8 -22 -6 -35 8
-9 9 -16 23 -16 29 0 13 -10 15 -34 6 -9 -3 -16 -14 -16 -25 0 -27 -22 -70
-34 -66 -6 2 -10 16 -8 31 3 22 0 27 -14 24 -10 -2 -25 -16 -34 -31 -14 -26
-14 -29 4 -43 31 -22 74 -17 103 12 14 14 31 23 39 20 23 -9 16 -25 -20 -43
-18 -10 -51 -30 -72 -44 -21 -14 -66 -33 -99 -43 -68 -20 -234 -77 -282 -97
-38 -15 -52 -6 -35 21 16 26 15 45 -3 60 -12 10 -20 7 -44 -19 -29 -30 -30
-31 -40 -12 -16 28 -14 52 6 73 13 14 14 21 4 31 -17 17 -40 -1 -68 -56 l-25
-47 26 -44 c15 -25 36 -52 47 -60 37 -25 8 -61 -30 -37 -21 14 -39 3 -46 -29
-8 -36 -50 -55 -89 -40 -15 5 -41 10 -57 10 -35 0 -36 4 -4 55 13 22 25 43 25
47 0 13 -86 88 -102 88 -9 0 -38 -18 -63 -40 -46 -40 -69 -49 -80 -30 -3 6
-15 10 -26 10 -24 0 -26 -32 -3 -54 20 -20 78 -21 94 -1 7 8 18 15 26 15 7 0
18 9 24 20 13 24 28 25 51 4 16 -14 14 -19 -33 -67 -27 -29 -56 -65 -64 -80
-11 -21 -20 -27 -32 -22 -9 4 -44 10 -77 14 -63 7 -132 37 -175 75 -14 13 -32
26 -41 29 -9 3 -19 18 -22 34 -7 34 -61 105 -88 115 -10 4 -19 15 -19 25 0 10
-7 27 -15 37 -8 11 -15 26 -15 34 0 8 -12 41 -27 73 -26 56 -51 78 -73 64 -17
-10 -12 -33 24 -108 19 -40 39 -93 46 -120 7 -26 17 -50 21 -53 14 -8 10 -51
-4 -57 -8 -3 -33 10 -57 29 -23 19 -49 34 -56 34 -21 0 -72 74 -85 123 -6 26
-17 47 -24 47 -12 0 -65 120 -112 255 -21 60 -24 80 -18 140 6 62 10 73 41
103 19 18 34 42 34 53 0 25 15 54 41 80 10 10 19 31 19 45 0 14 9 37 20 51 23
30 26 87 5 123 -19 33 -19 59 1 67 9 3 21 -3 30 -16 23 -32 47 -25 84 24 19
25 41 45 50 45 9 0 29 -13 45 -30z m2149 -65 c3 -9 0 -15 -9 -15 -8 0 -15 7
-15 15 0 8 4 15 9 15 5 0 11 -7 15 -15z m-134 -293 c0 -5 -8 -33 -19 -63 -10
-30 -21 -71 -25 -91 -7 -36 -9 -38 -46 -38 l-39 0 4 -37 c2 -21 4 -41 4 -45 1
-5 12 -8 25 -8 41 0 50 -23 21 -54 -14 -15 -25 -34 -25 -42 0 -21 -47 -37 -71
-24 -10 6 -19 15 -19 20 0 5 -7 7 -15 4 -29 -11 -17 -43 23 -59 52 -22 98 -12
117 25 19 36 30 38 33 6 3 -37 -40 -59 -118 -60 -50 -1 -71 4 -93 19 -26 19
-27 24 -22 75 9 97 12 120 16 123 2 2 21 14 41 27 24 16 38 33 38 46 0 29 100
162 130 173 33 12 40 13 40 3z m-1540 -76 c-1 -21 -1 -21 -20 3 -11 13 -20 33
-20 45 1 21 1 21 20 -3 11 -13 20 -33 20 -45z m1791 2 c7 -46 -5 -78 -30 -78
-27 0 -36 17 -23 43 6 12 13 35 17 50 8 38 28 29 36 -15z m-91 -9 c0 -13 -38
-11 -46 2 -9 16 18 30 33 17 7 -6 13 -14 13 -19z m-2601 -56 c1 -7 -5 -13 -12
-13 -11 0 -16 39 -8 60 3 7 19 -32 20 -47z m2582 -22 c48 -28 77 -70 58 -82
-8 -5 -21 -9 -29 -9 -28 -1 -52 -27 -45 -49 4 -14 1 -23 -9 -27 -11 -4 -16
-19 -16 -50 0 -39 -17 -76 -57 -129 -19 -24 -31 -65 -26 -84 6 -25 -50 -161
-121 -290 -52 -95 -98 -141 -141 -141 -37 0 -50 -16 -38 -43 14 -30 8 -37 -28
-37 -21 0 -28 5 -31 22 -2 13 -11 24 -22 26 -24 5 -55 42 -49 59 4 10 12 9 39
-2 21 -9 36 -10 40 -4 8 13 -13 37 -39 45 -35 11 -67 47 -67 76 0 39 15 42 48
8 30 -29 72 -41 72 -19 0 6 -25 35 -56 65 -50 50 -55 59 -50 87 3 18 8 53 12
79 l6 47 33 -34 c19 -18 51 -44 72 -58 38 -23 150 -54 160 -43 15 15 -11 35
-56 45 -116 25 -228 146 -181 195 4 4 13 -2 20 -14 17 -32 69 -76 113 -96 30
-14 42 -15 63 -6 33 15 22 32 -20 32 -46 0 -123 62 -137 111 -7 21 -21 41 -33
47 -32 14 -24 79 11 93 35 13 45 11 42 -8 -6 -38 14 -84 54 -127 34 -37 51
-48 93 -55 85 -16 153 19 196 103 16 31 19 51 14 100 -3 33 -6 68 -7 76 -2 30
14 125 24 138 8 10 14 9 31 -6 12 -10 37 -29 57 -41z m52 -436 c20 -8 37 -19
37 -23 0 -4 -16 -18 -35 -30 -50 -35 -165 -163 -207 -233 -51 -84 -63 -146
-63 -329 0 -122 4 -165 18 -203 32 -89 68 -149 130 -217 34 -36 74 -83 89
-103 15 -19 44 -41 63 -48 19 -7 35 -18 35 -24 0 -6 -18 -22 -41 -35 -171
-104 -235 -185 -259 -331 -12 -76 -14 -198 -3 -259 10 -58 58 -145 109 -196
127 -127 213 -172 326 -171 49 0 62 -4 83 -25 21 -21 24 -30 16 -51 -11 -28 0
-123 19 -172 18 -47 97 -136 138 -156 94 -44 163 -66 222 -68 53 -2 66 2 95
23 19 15 38 26 42 26 5 0 33 -22 62 -50 29 -27 59 -50 66 -50 7 0 18 -6 24
-14 7 -8 37 -24 69 -36 31 -12 67 -27 79 -32 45 -22 299 10 368 46 17 8 47 35
68 61 21 25 42 45 47 45 19 0 79 -75 80 -99 0 -24 8 -25 51 -7 25 11 35 -45
31 -176 -4 -140 -11 -145 -92 -73 -91 80 -163 93 -244 44 -90 -55 -127 -117
-128 -211 0 -64 -2 -65 -63 -43 -91 32 -211 10 -307 -57 -47 -33 -59 -48 -72
-89 -31 -93 -31 -133 -3 -192 33 -67 77 -116 112 -126 23 -5 30 -16 39 -52 7
-25 22 -61 34 -81 24 -39 88 -88 115 -88 9 0 17 -4 17 -10 0 -5 23 -10 50 -10
38 0 55 5 72 22 16 16 23 18 26 8 11 -32 80 -86 125 -97 26 -7 47 -17 47 -22
0 -11 -57 -41 -77 -41 -8 0 -29 -16 -47 -36 -29 -32 -37 -36 -62 -29 -67 19
-172 18 -225 0 -23 -8 -43 -15 -44 -15 -1 0 -8 14 -15 30 -14 35 -43 45 -100
36 -40 -6 -40 -6 -40 27 0 25 -10 43 -40 74 -52 52 -89 60 -147 32 -52 -25
-62 -20 -35 18 61 87 69 226 21 379 -31 96 -34 101 -109 176 -82 80 -123 104
-230 134 -71 19 -250 22 -305 4 -16 -6 -59 -19 -94 -31 -78 -25 -146 -69 -166
-109 -12 -24 -23 -30 -50 -31 -45 -2 -44 -2 -81 -22 -37 -19 -44 -15 -44 30 0
19 -8 41 -19 52 -24 24 -88 43 -110 32 -9 -5 -34 -11 -56 -14 -22 -3 -66 -15
-97 -27 -49 -18 -63 -30 -94 -76 -33 -49 -40 -55 -68 -53 -41 4 -106 -8 -183
-32 -50 -16 -69 -29 -105 -71 -24 -28 -49 -62 -57 -77 -31 -56 -71 -178 -71
-214 0 -42 19 -129 30 -137 8 -5 40 -66 40 -75 0 -3 -16 -5 -36 -5 -20 0 -70
-12 -111 -27 -79 -28 -150 -83 -173 -133 -6 -14 -20 -41 -31 -60 -21 -38 -24
-85 -10 -123 8 -20 6 -29 -10 -43 -12 -11 -19 -30 -19 -53 0 -37 31 -99 56
-114 8 -5 14 -24 14 -46 0 -24 9 -52 25 -75 30 -44 30 -46 7 -46 -9 0 -38 -11
-63 -25 l-47 -24 -7 151 c-4 90 -13 165 -21 185 -8 18 -12 44 -8 58 4 16 0 32
-13 49 -19 23 -19 29 -6 108 8 46 18 112 23 148 15 106 29 162 48 188 44 64
65 111 88 198 13 52 28 102 33 112 29 54 78 214 161 527 16 61 38 135 48 166
11 30 23 75 27 100 4 24 11 49 15 54 4 6 10 24 13 40 3 17 14 59 25 95 18 61
21 65 51 68 18 2 38 -2 46 -8 10 -9 19 -8 36 0 12 7 34 10 49 7 17 -4 38 1 59
14 37 22 48 44 32 63 -8 10 -9 25 -3 48 8 31 10 33 58 34 34 1 57 -4 76 -17
27 -20 83 -26 92 -10 4 5 29 12 57 16 44 6 53 12 73 44 13 20 27 51 31 69 3
18 15 37 25 42 63 34 41 188 -51 356 -16 28 -33 73 -39 100 -27 131 -99 352
-125 382 -45 54 -97 165 -102 218 -5 44 -2 57 16 80 11 14 21 40 21 57 0 17 9
40 21 53 17 18 23 42 30 121 9 108 23 208 40 281 6 26 10 72 10 102 0 30 3 58
5 62 3 4 22 -10 43 -31 52 -52 99 -68 140 -46 30 15 33 20 35 55 1 8 21 25 46
37 63 31 100 78 165 206 31 61 62 116 70 121 7 6 15 25 18 41 8 45 38 158 44
168 3 5 17 -3 32 -17 14 -14 43 -32 64 -41z m-633 45 c0 -5 -4 -10 -10 -10 -5
0 -10 5 -10 10 0 6 5 10 10 10 6 0 10 -4 10 -10z m-100 -80 c0 -26 -12 -31
-35 -14 -19 14 -19 14 0 28 23 17 35 12 35 -14z m90 0 c0 -13 -7 -20 -20 -20
-13 0 -20 7 -20 20 0 13 7 20 20 20 13 0 20 -7 20 -20z m-235 -60 c3 -5 19
-10 35 -10 33 0 40 -14 40 -85 0 -76 -6 -85 -50 -85 -39 0 -71 -23 -54 -40 5
-4 23 -10 39 -12 26 -3 30 -7 30 -33 0 -27 -3 -30 -37 -33 -33 -3 -38 -6 -38
-29 0 -23 3 -25 35 -21 l35 4 0 -43 c0 -47 -2 -48 -28 -32 -24 15 -75 -5 -70
-29 3 -14 12 -16 47 -14 l43 4 -6 -103 c-4 -57 -12 -121 -18 -141 -11 -37 -30
-49 -43 -28 -8 12 -42 13 -49 1 -13 -21 7 -41 39 -41 33 0 34 -1 28 -37 -13
-91 -17 -98 -54 -99 -29 0 -34 -3 -34 -25 0 -17 6 -25 23 -27 13 -2 22 -10 22
-20 0 -31 -16 -44 -51 -40 -28 2 -35 -1 -37 -18 -2 -16 4 -23 23 -28 14 -4 23
-11 20 -16 -6 -10 -85 -10 -85 1 0 3 11 37 26 75 14 38 27 94 28 124 2 30 13
89 23 130 18 69 22 75 51 82 18 5 32 15 32 24 0 13 -7 18 -47 30 -7 2 -10 10
-7 19 4 10 19 15 45 15 27 0 42 5 46 15 8 21 1 26 -46 32 -23 3 -44 9 -47 14
-6 10 14 225 25 259 16 53 -11 77 -52 46 -9 -7 -28 -11 -41 -9 -16 3 -25 -1
-30 -12 -10 -26 11 -44 45 -38 28 4 30 2 27 -23 -2 -23 -9 -30 -36 -35 -64
-13 -69 -49 -6 -49 31 0 34 -2 34 -31 0 -26 -3 -30 -17 -24 -38 16 -58 11 -58
-15 0 -22 5 -25 38 -28 l37 -3 0 -78 c0 -92 -9 -106 -60 -91 -38 11 -50 6 -50
-21 0 -16 7 -19 45 -19 42 0 45 -2 45 -27 0 -73 -39 -133 -56 -88 -11 27 -36
17 -32 -12 2 -20 9 -29 26 -31 17 -3 22 -10 22 -33 0 -24 -4 -29 -23 -29 -13
0 -26 -3 -30 -6 -11 -11 5 -34 24 -34 23 0 24 -18 4 -47 -10 -14 -22 -19 -35
-16 -15 4 -20 0 -20 -14 0 -10 5 -24 11 -30 8 -8 8 -17 0 -32 -14 -25 -30 -27
-45 -5 -10 13 -16 13 -38 3 -21 -9 -34 -9 -58 1 -34 14 -36 21 -14 55 8 13 18
48 21 79 5 50 8 55 32 58 34 4 45 48 12 48 -28 0 -27 23 2 44 l22 16 -22 16
c-34 24 -30 54 6 54 28 0 29 -2 36 -64 7 -70 -2 -118 -41 -202 -28 -62 -29
-68 -10 -83 20 -17 43 20 68 107 16 52 21 105 23 237 2 94 8 191 14 217 6 25
13 109 16 185 3 76 8 148 10 160 11 48 -27 75 -44 31 -5 -13 -11 -102 -15
-199 -9 -218 -12 -235 -52 -231 -16 2 -31 6 -33 8 -13 12 2 132 24 190 19 50
22 70 15 85 -43 80 -95 -109 -84 -303 4 -72 2 -161 -5 -230 -20 -183 -17 -174
-60 -197 -67 -34 -102 -36 -159 -7 -28 14 -67 41 -88 60 -20 18 -54 39 -74 45
-21 6 -49 23 -62 36 -12 14 -36 32 -53 40 -64 32 -129 90 -137 123 -6 22 -14
32 -28 32 -11 0 -20 -4 -20 -10 0 -21 -30 -9 -43 18 -26 50 -30 72 -12 72 8 0
18 7 21 15 8 20 -13 45 -37 45 -22 0 -35 18 -21 32 6 6 17 5 31 -3 15 -10 23
-11 32 -2 16 16 -4 48 -40 63 -31 13 -50 45 -34 61 5 5 27 0 51 -13 30 -14 47
-17 54 -10 18 18 -9 49 -55 60 -46 12 -83 44 -72 61 4 7 18 5 43 -5 20 -9 48
-18 62 -20 14 -2 61 -15 105 -30 140 -45 146 -47 157 -36 6 6 25 8 44 5 39 -6
53 14 36 52 -18 38 8 51 60 30 71 -28 165 -7 217 49 14 14 35 26 47 26 14 0
34 13 51 35 15 19 33 35 39 35 6 0 19 10 30 21 22 25 130 79 157 79 10 0 20
-7 23 -15 8 -19 48 -20 63 -2 6 8 8 16 5 19 -6 6 53 58 66 58 5 0 12 -4 15
-10z m223 -27 c-3 -30 -25 -42 -34 -19 -6 17 11 46 28 46 5 0 8 -12 6 -27z
m-12 -88 c3 -8 0 -47 -6 -87 -7 -39 -13 -90 -15 -112 -5 -90 -28 -277 -47
-381 -11 -60 -22 -135 -25 -165 -3 -35 -12 -63 -25 -77 -12 -12 -23 -42 -25
-68 -7 -54 -33 -77 -62 -51 -16 14 -19 14 -34 -1 -16 -16 -17 -16 -17 4 0 11
7 39 15 62 8 22 19 69 25 104 6 34 19 98 30 142 10 44 21 127 25 185 3 58 10
134 15 170 6 36 11 94 13 130 3 56 6 65 23 65 18 0 19 -7 17 -101 -1 -56 -9
-132 -18 -169 -8 -36 -15 -81 -15 -99 0 -28 -11 -87 -61 -316 -22 -101 -23
-120 -6 -120 19 0 35 51 77 249 36 172 67 380 75 511 3 52 8 105 11 118 5 25
22 29 30 7z m-1480 -91 c-3 -8 -1 -24 5 -35 7 -14 7 -24 0 -33 -10 -12 1 -116
21 -186 5 -19 8 -57 6 -83 -3 -44 -5 -47 -21 -35 -14 11 -19 37 -26 148 -4 75
-13 145 -19 157 -17 31 -15 54 6 69 23 18 35 17 28 -2z m970 -430 c8 -31 -6
-47 -37 -42 -19 2 -25 10 -27 36 -3 30 -1 32 27 32 25 0 32 -5 37 -26z m-976
-174 c22 -6 61 -37 107 -82 39 -40 80 -80 89 -88 34 -28 175 -120 184 -120 6
0 39 -18 74 -39 35 -22 82 -45 103 -50 21 -6 63 -26 94 -45 31 -18 71 -36 90
-39 19 -4 59 -11 89 -17 84 -17 200 -19 230 -3 23 11 77 19 185 26 21 1 30 -3
33 -15 3 -15 -4 -18 -32 -18 -30 0 -36 -4 -36 -21 0 -18 5 -20 43 -17 36 3 42
0 42 -17 0 -14 -8 -21 -30 -25 -18 -3 -31 -12 -33 -23 -3 -14 4 -17 41 -17 41
0 46 -3 56 -31 9 -27 8 -32 -9 -36 -13 -3 -20 -14 -20 -28 0 -19 5 -23 31 -21
31 1 32 1 59 -94 57 -193 91 -281 126 -321 22 -25 74 -207 74 -259 0 -51 -10
-65 -69 -94 -44 -21 -117 -22 -125 -1 -4 11 -21 15 -66 15 -33 0 -60 4 -60 10
0 16 48 23 98 15 68 -10 124 -6 150 11 48 32 22 39 -125 35 l-140 -3 -5 26
c-6 32 13 50 44 40 37 -11 152 -5 167 10 23 24 4 35 -48 29 -27 -3 -78 -2
-114 1 l-65 7 -17 67 c-25 98 -25 101 -36 172 -5 36 -18 124 -30 195 -11 72
-25 163 -30 204 -12 95 -22 134 -36 138 -15 5 -20 -31 -11 -92 18 -121 40
-267 54 -355 21 -137 21 -140 -1 -140 -25 0 -18 -38 7 -42 16 -2 24 -12 29
-35 7 -38 4 -43 -28 -43 -20 0 -24 -5 -21 -22 2 -17 11 -24 33 -26 58 -7 64
-57 8 -65 -21 -3 -45 -8 -53 -11 -13 -5 -15 10 -17 96 -3 135 -21 310 -37 373
-8 28 -16 94 -20 147 -4 70 -11 109 -26 138 -22 42 -29 47 -47 29 -9 -9 -7
-24 8 -61 14 -35 19 -73 19 -135 0 -69 5 -96 22 -132 20 -41 22 -67 30 -335 4
-170 12 -302 19 -318 6 -15 9 -30 6 -35 -8 -14 12 -53 27 -53 8 0 19 14 25 30
9 27 14 30 50 30 39 0 41 -2 41 -29 0 -31 -4 -33 -68 -46 -44 -9 -102 2 -102
20 0 22 -18 27 -55 15 -36 -12 -68 -4 -45 10 24 15 2 38 -52 56 -43 14 -49 19
-33 25 43 16 73 10 95 -21 48 -67 69 -7 28 79 -16 34 -19 46 -9 49 11 4 11 6
1 12 -14 9 -19 107 -23 505 -3 200 -6 246 -20 279 -9 21 -14 42 -11 48 10 15
-5 58 -21 58 -18 0 -38 -37 -31 -56 3 -8 0 -23 -6 -34 -10 -16 -8 -23 16 -45
30 -28 30 -51 -2 -48 -23 3 -44 -18 -34 -33 4 -5 19 -15 35 -21 15 -7 27 -20
27 -31 0 -27 -9 -32 -38 -21 -16 6 -29 6 -35 0 -13 -13 9 -41 32 -41 28 0 53
-24 45 -43 -5 -14 -14 -16 -48 -10 -51 8 -58 17 -51 73 3 25 7 103 7 173 1
104 -1 131 -14 144 -15 14 -17 13 -28 -7 -9 -18 -8 -25 6 -41 13 -15 15 -22 6
-31 -7 -7 -12 -31 -12 -53 0 -23 -5 -79 -11 -124 -8 -59 -8 -99 0 -144 6 -34
13 -152 16 -262 3 -110 8 -219 11 -243 10 -67 -21 -262 -43 -269 -16 -6 -43
54 -43 94 0 18 -7 50 -16 71 -17 39 -21 195 -9 296 4 29 8 71 10 92 24 269 37
402 48 469 15 95 12 137 -12 133 -11 -2 -18 -18 -22 -58 -6 -59 -27 -200 -35
-237 -4 -21 -5 -22 -34 -5 -27 15 -32 15 -40 2 -16 -24 -5 -35 33 -35 34 0 37
-2 37 -29 0 -30 -5 -31 -76 -10 -24 6 -38 -15 -27 -42 5 -12 14 -15 44 -10 28
5 40 2 47 -9 13 -25 -23 -334 -41 -347 -6 -3 -21 -2 -34 3 -14 5 -38 9 -54 9
-22 0 -29 -5 -29 -20 0 -26 33 -42 77 -38 25 2 39 -2 46 -13 14 -23 1 -53 -20
-45 -36 14 -130 19 -137 7 -11 -18 13 -41 43 -41 14 0 39 -7 55 -15 15 -8 37
-15 47 -15 24 0 39 -29 39 -76 0 -21 4 -51 10 -68 5 -17 12 -42 14 -56 9 -41
52 -80 90 -80 44 0 56 17 62 82 6 67 10 78 29 78 17 0 21 -25 5 -35 -12 -8
-13 -35 0 -55 7 -12 12 -11 30 5 23 21 57 22 77 2 9 -9 7 -26 -9 -72 -11 -33
-24 -65 -30 -72 -5 -7 -21 -54 -34 -105 -13 -50 -29 -97 -34 -102 -6 -6 -10
-22 -10 -37 0 -15 -4 -31 -10 -34 -5 -3 -10 -17 -10 -30 0 -14 -14 -66 -31
-117 -17 -51 -41 -135 -54 -186 -13 -51 -33 -116 -44 -145 -30 -80 -50 -142
-80 -259 -19 -74 -38 -123 -63 -160 -46 -70 -53 -96 -78 -273 -11 -82 -25
-170 -30 -195 -23 -110 -23 -118 -1 -129 29 -16 27 -56 -3 -76 -13 -9 -63 -20
-112 -26 -71 -8 -101 -7 -157 6 -158 36 -227 131 -227 313 0 84 21 178 45 197
7 6 22 29 34 53 12 23 25 42 30 42 4 0 25 29 46 65 21 36 42 68 47 71 4 3 8
20 8 39 0 19 4 36 9 40 5 3 15 21 21 41 10 29 9 39 -6 62 -12 18 -17 43 -15
82 1 30 -3 183 -9 340 -16 429 -16 441 6 475 10 17 54 71 98 120 44 50 83 94
87 98 13 16 98 18 122 3 14 -9 44 -14 82 -13 57 2 60 3 60 27 0 23 -4 25 -63
32 -35 4 -70 12 -77 18 -8 7 -31 11 -52 10 -21 -2 -57 -2 -80 -1 -41 1 -43 3
-43 31 0 34 -14 38 -43 13 -20 -18 -20 -17 -12 37 4 30 7 60 7 65 -2 65 -6
102 -12 110 -60 88 -63 396 -4 633 14 57 23 110 20 118 -8 20 -33 7 -44 -24
-19 -54 -45 -209 -49 -297 -2 -49 -8 -139 -12 -198 -9 -108 -7 -130 23 -199
11 -25 16 -67 16 -127 0 -89 -9 -113 -33 -93 -15 12 -114 34 -184 39 -44 4
-57 10 -79 36 -19 23 -36 32 -62 34 -49 3 -69 24 -54 58 7 14 12 47 12 73 0
26 5 76 10 112 6 36 13 89 16 118 4 29 14 83 23 120 19 73 34 85 78 61 29 -15
48 -1 39 29 -4 13 -19 22 -43 27 -34 6 -35 7 -30 42 8 45 20 58 42 45 25 -13
55 -3 55 18 0 19 -19 30 -51 30 -16 0 -20 6 -17 28 2 19 8 26 21 25 9 -2 25
-4 35 -5 12 -2 17 4 17 22 0 20 -6 26 -28 28 -20 3 -27 8 -25 20 3 13 14 17
47 17 56 0 64 19 16 42 -50 24 -43 49 13 45 51 -3 56 16 13 48 -21 14 -31 31
-33 53 -5 52 -31 40 -49 -23 -60 -203 -73 -249 -80 -280 -3 -19 -26 -107 -49
-195 -24 -90 -47 -208 -54 -270 l-11 -110 -50 -6 c-60 -8 -73 1 -80 59 -5 37
-3 42 14 42 11 0 23 -4 26 -10 13 -20 35 -10 35 16 0 19 -7 28 -30 37 -16 6
-30 15 -30 19 0 14 22 20 33 9 18 -18 37 -12 37 12 0 13 -9 32 -20 42 -26 23
-26 45 0 45 26 0 35 22 20 50 -9 16 -9 29 -2 44 6 11 15 35 20 51 5 19 16 31
30 33 24 4 31 39 12 58 -7 7 -1 32 19 80 16 38 51 123 79 189 80 190 118 269
136 284 34 28 7 141 -34 141 -27 0 -35 -18 -16 -39 27 -30 16 -57 -11 -30 -13
13 -43 5 -43 -10 0 -12 25 -38 41 -43 11 -4 -29 -101 -87 -213 -9 -16 -22 -50
-30 -75 -8 -25 -23 -61 -33 -80 -26 -49 -93 -217 -134 -335 -19 -55 -39 -111
-45 -125 -45 -115 -46 -123 -30 -294 3 -27 1 -29 -29 -29 -18 1 -37 2 -42 2
-6 1 -11 16 -13 34 -2 25 -8 33 -27 35 -32 5 -44 -17 -25 -45 14 -22 13 -23
-19 -23 -42 0 -49 7 -35 34 6 11 11 34 10 50 -2 16 0 37 3 47 6 17 9 16 32
-11 33 -40 73 -41 73 -2 -1 21 -8 31 -35 43 -25 12 -37 13 -46 5 -9 -8 -10 -4
-4 19 8 38 12 42 27 27 7 -7 27 -12 46 -12 30 0 33 2 30 28 -3 23 -8 27 -41
30 -30 3 -37 7 -35 20 4 17 25 20 66 7 19 -6 22 -4 22 19 0 19 -7 29 -26 36
-14 6 -30 8 -35 4 -12 -7 -11 13 2 39 17 32 17 32 36 9 10 -11 28 -23 41 -27
19 -5 22 -3 22 19 0 18 -9 30 -30 41 -35 18 -35 18 -14 51 15 22 18 23 29 8
15 -22 45 -12 45 15 0 11 -8 28 -18 38 -10 10 -19 36 -21 58 -6 82 -45 102
-48 24 -1 -24 -2 -53 -2 -64 -1 -11 -24 -56 -53 -100 -28 -44 -55 -96 -58
-115 -5 -27 -10 -35 -26 -33 -12 1 -25 -9 -36 -28 -17 -29 -44 -47 -54 -36 -9
9 36 140 61 179 14 21 25 40 25 43 0 3 15 26 34 52 19 27 48 75 66 108 44 85
91 159 120 192 14 15 31 39 39 53 14 27 71 140 90 180 21 44 62 114 76 130 8
8 18 27 24 42 7 18 29 37 68 57 64 33 81 36 133 21z m1379 -518 c11 -21 26
-44 35 -51 21 -17 68 -172 96 -311 13 -69 36 -145 57 -190 19 -41 40 -88 48
-105 21 -47 35 -96 35 -123 0 -35 -14 -17 -29 38 -16 55 -57 146 -69 154 -13
8 -53 110 -93 236 -31 100 -59 175 -100 265 -16 36 -23 77 -20 113 2 24 21 12
40 -26z m-496 -438 c3 -4 2 -15 -3 -24 -12 -23 -63 -12 -68 13 -3 13 4 17 31
17 18 0 37 -3 40 -6z m2 -104 c0 -10 -9 -14 -29 -13 -33 2 -51 16 -42 31 9 15
71 -1 71 -18z m-27 -66 c25 -7 30 -34 6 -34 -23 0 -55 20 -49 31 7 11 12 11
43 3z m8 -95 c52 -32 40 -56 -22 -45 -27 6 -34 12 -34 30 0 41 10 44 56 15z
m-1164 -94 c-14 -84 -15 -81 20 -114 18 -17 48 -34 67 -37 19 -4 44 -18 56
-32 15 -17 37 -28 71 -33 147 -22 179 -29 220 -49 25 -12 56 -20 69 -18 19 4
26 -1 36 -23 11 -27 8 -33 -60 -113 -68 -80 -147 -191 -176 -245 -7 -14 -34
-48 -59 -75 -25 -26 -46 -54 -46 -61 0 -7 -17 -24 -39 -38 -24 -16 -52 -49
-75 -91 -20 -35 -57 -89 -82 -118 -25 -29 -54 -69 -65 -88 -24 -42 -63 -97
-90 -126 -10 -11 -19 -23 -19 -27 0 -3 -10 -17 -22 -31 -13 -13 -33 -37 -44
-53 -13 -16 -43 -36 -72 -46 -57 -21 -77 -40 -88 -82 -11 -46 -51 -103 -83
-120 -62 -32 -83 -105 -36 -127 30 -14 31 -22 5 -58 -11 -16 -23 -43 -26 -62
-7 -41 -67 -167 -92 -194 -10 -10 -31 -40 -45 -65 -15 -26 -56 -76 -91 -111
-50 -52 -71 -67 -102 -72 -36 -6 -103 9 -120 27 -4 4 -15 7 -24 7 -23 0 -120
102 -128 136 -38 158 94 501 233 602 51 37 133 82 150 82 22 0 72 68 94 129
11 31 25 101 30 157 11 100 60 283 101 371 11 24 20 50 20 58 0 14 25 112 69
270 38 135 131 390 148 403 9 6 22 12 29 12 6 0 17 7 24 15 12 14 17 12 42
-15 18 -20 34 -30 44 -26 9 3 31 6 50 6 36 0 40 5 67 83 9 25 43 18 39 -8z
m1198 -25 c0 -25 -29 -33 -56 -15 -35 22 -30 33 16 33 32 1 40 -3 40 -18z
m304 -56 c15 -38 -1 -73 -20 -43 -4 7 -22 9 -45 6 -27 -4 -39 -1 -43 10 -11
27 -6 32 37 36 23 2 47 4 53 5 7 1 15 -5 18 -14z m-290 -41 c10 -26 -13 -38
-66 -34 -18 1 -25 31 -11 44 14 14 71 7 77 -10z m306 -64 l0 -30 -60 3 c-55 2
-60 4 -60 25 0 21 5 23 44 23 25 0 48 5 51 10 11 18 25 0 25 -31z m-1150 -541
c0 -24 5 -169 11 -323 9 -217 9 -301 0 -375 -22 -173 -30 -199 -77 -264 -56
-76 -129 -225 -143 -291 -6 -27 -9 -75 -6 -106 6 -55 6 -55 -32 -80 -54 -34
-65 -65 -65 -178 -1 -146 18 -272 48 -316 11 -17 24 -39 30 -50 6 -11 20 -24
32 -30 13 -6 22 -19 22 -31 0 -17 -8 -23 -34 -28 -19 -4 -45 -15 -59 -26 -24
-19 -26 -19 -30 -3 -2 10 -5 32 -6 48 -2 53 -79 136 -151 163 -50 20 -147 41
-168 37 -9 -2 -51 -9 -92 -16 -41 -7 -79 -15 -85 -19 -5 -4 -25 -10 -43 -13
-33 -7 -115 -57 -162 -99 -43 -39 -90 -105 -90 -126 0 -31 -17 -36 -49 -13
-16 12 -34 21 -40 21 -21 0 -33 42 -27 91 4 29 2 50 -4 54 -7 4 -4 17 7 36 16
26 22 29 50 24 29 -5 35 -2 59 34 19 30 27 57 30 103 6 83 27 156 75 252 23
45 37 86 34 96 -3 11 5 34 19 55 30 44 60 105 116 240 23 55 48 107 54 115 7
8 30 46 51 84 21 39 58 89 82 112 23 23 43 45 43 48 0 3 34 50 76 104 42 53
83 111 90 127 7 17 22 39 34 50 12 11 29 33 37 48 7 15 41 65 73 111 33 46 60
87 60 92 0 5 26 38 58 74 32 36 69 83 82 105 31 52 73 105 83 105 4 0 7 -19 7
-42z m3687 -78 c26 -9 35 -21 45 -52 13 -46 46 -65 80 -47 11 6 22 8 25 5 3
-3 7 -128 9 -278 1 -150 6 -335 9 -410 6 -130 6 -138 -12 -139 -10 -1 -25 -2
-33 -3 -149 -17 -168 -17 -221 -3 -79 21 -116 42 -134 76 -13 26 -19 29 -54
26 -21 -1 -43 -5 -49 -9 -16 -10 -125 16 -151 36 -13 10 -35 33 -48 51 -24 32
-24 32 -4 48 18 14 25 36 22 66 0 6 -24 14 -52 18 -103 14 -169 124 -139 232
28 98 116 145 264 140 89 -3 89 -3 121 -40 39 -44 55 -47 55 -8 0 16 6 31 15
35 17 6 21 61 5 71 -13 8 -6 60 16 115 16 40 51 73 89 83 30 7 106 1 142 -13z
m-1302 -276 c17 -4 35 -11 42 -16 7 -5 17 -7 23 -3 15 9 71 -25 141 -86 73
-64 126 -164 135 -256 9 -82 -11 -176 -48 -227 -22 -31 -27 -46 -22 -72 10
-54 -29 -104 -98 -125 -21 -7 -39 -17 -40 -23 0 -6 -2 -15 -3 -21 -2 -5 -3
-16 -4 -24 -1 -10 -10 -12 -38 -7 -21 4 -69 11 -107 16 -62 7 -72 12 -102 45
-40 46 -70 45 -68 -2 3 -54 61 -112 137 -137 34 -11 16 -23 -35 -23 -57 1
-117 -24 -173 -71 l-30 -25 -5 24 c-7 28 -40 39 -40 14 0 -10 -13 -45 -29 -79
-25 -51 -37 -65 -78 -86 -26 -14 -59 -33 -73 -42 -29 -20 -145 -48 -198 -48
-20 0 -66 8 -102 19 -212 60 -298 164 -302 364 -2 120 17 181 77 238 45 43 58
68 45 89 -22 35 -127 -62 -162 -148 -18 -48 -22 -75 -22 -167 1 -116 17 -182
56 -238 19 -26 18 -65 -1 -53 -16 10 -135 -16 -183 -40 -66 -33 -175 -148
-198 -208 -5 -15 -7 -38 -4 -51 4 -17 -1 -27 -17 -39 -21 -15 -25 -14 -44 4
-13 13 -29 18 -39 14 -19 -7 -77 14 -89 33 -4 7 -13 13 -19 13 -34 0 -49 70
-23 107 20 28 9 53 -23 53 -28 0 -62 25 -62 47 0 7 11 18 25 23 30 11 32 36 9
97 -15 39 -15 45 0 77 9 19 16 37 16 41 0 8 11 21 69 81 39 40 113 76 172 82
41 4 48 1 67 -23 12 -15 26 -24 32 -20 15 9 12 61 -5 75 -9 7 -15 29 -15 52 0
21 -7 53 -16 70 -22 43 -24 155 -2 199 9 19 24 54 34 78 16 39 94 130 113 132
9 1 28 5 103 25 82 21 103 11 94 -44 -6 -37 7 -82 24 -82 18 0 38 62 32 99 -3
25 3 50 24 92 27 54 34 60 97 88 60 27 76 30 128 24 53 -5 62 -9 75 -35 17
-33 12 -48 -18 -48 -48 0 -108 -67 -108 -123 0 -6 -23 -21 -52 -32 -67 -26
-93 -60 -81 -106 6 -23 16 -35 30 -37 19 -3 22 2 25 40 3 42 4 43 47 50 29 5
49 4 58 -3 23 -20 46 9 40 51 -6 45 21 74 90 99 85 31 186 15 246 -37 16 -14
19 -14 28 -2 15 22 3 90 -18 105 -17 13 -17 16 -3 42 17 30 58 53 165 94 66
25 223 32 300 13z m-4718 -130 c31 -26 68 -46 90 -50 21 -3 45 -12 53 -19 25
-21 178 -44 295 -43 91 0 116 4 142 20 32 19 33 19 60 0 30 -20 43 -23 110
-22 44 0 131 39 146 65 15 28 24 15 30 -41 7 -66 42 -119 94 -141 20 -8 34
-15 32 -17 -2 -1 -30 -26 -61 -55 l-57 -53 -28 33 c-57 66 -109 111 -158 137
-44 23 -64 27 -166 30 -96 3 -130 0 -193 -17 -96 -26 -104 -26 -108 2 -3 20
-8 22 -53 19 -30 -2 -61 -11 -77 -22 -15 -11 -30 -20 -33 -20 -3 0 -14 20 -25
44 -16 39 -23 45 -59 51 -23 4 -63 4 -89 0 -47 -6 -48 -6 -60 28 -26 73 -7
132 40 119 13 -3 46 -25 75 -48z m59 -191 c4 -15 2 -39 -4 -55 -14 -37 -1 -83
23 -83 13 0 21 10 27 33 5 17 14 32 21 32 7 0 29 9 50 20 44 24 46 17 7 -30
-17 -19 -30 -39 -30 -45 0 -6 -9 -27 -20 -48 -12 -22 -16 -37 -9 -37 17 0 105
67 122 93 28 43 142 82 268 93 114 10 163 0 204 -42 20 -19 40 -32 45 -29 13
8 46 -29 65 -70 7 -17 23 -39 34 -49 12 -11 21 -23 21 -27 0 -4 -15 -34 -34
-66 -31 -52 -41 -78 -60 -165 -5 -20 -18 -32 -51 -47 -46 -20 -58 -44 -34 -68
9 -9 4 -19 -17 -41 -19 -19 -41 -64 -65 -133 -51 -146 -68 -253 -47 -297 9
-18 8 -25 -4 -35 -9 -6 -21 -30 -28 -52 -7 -22 -16 -44 -20 -50 -5 -5 -14 -38
-20 -73 -14 -68 -26 -84 -45 -59 -16 22 -43 22 -67 0 -26 -23 -131 -28 -173
-9 -56 27 -95 90 -95 154 0 59 -21 71 -73 41 -53 -29 -124 -30 -190 -1 -38 17
-47 26 -47 46 0 26 -1 26 -74 26 -81 0 -111 -15 -86 -45 7 -8 19 -15 26 -15 8
0 14 -6 14 -13 0 -24 -24 -37 -66 -37 -45 0 -56 -12 -44 -45 14 -38 37 -49 75
-38 18 6 37 7 42 3 4 -5 37 -24 72 -42 36 -18 78 -50 95 -71 29 -37 31 -44 31
-123 0 -47 -4 -88 -10 -92 -13 -9 -31 -37 -55 -87 -17 -35 -17 -42 -4 -56 8
-9 12 -24 8 -33 -7 -19 14 -66 30 -66 5 0 19 8 30 19 23 20 78 41 110 41 12 0
38 -5 58 -10 31 -9 39 -17 48 -48 10 -35 9 -39 -24 -67 -33 -30 -66 -85 -66
-112 0 -8 -15 -33 -33 -56 -18 -23 -42 -59 -52 -80 -11 -21 -33 -49 -48 -63
-42 -38 -61 -89 -46 -125 16 -40 35 -36 44 8 4 25 20 50 44 73 21 20 50 60 66
89 16 29 41 61 56 71 21 16 27 30 31 71 5 45 11 56 44 86 22 18 55 40 76 49
24 10 48 33 72 70 20 29 36 57 36 62 0 4 22 22 50 40 33 21 52 42 56 60 4 15
22 58 40 95 19 37 34 74 34 80 0 7 15 50 34 95 19 46 37 95 41 110 10 48 40
76 79 77 20 1 36 -2 36 -7 0 -21 -23 -49 -35 -44 -24 9 -85 -130 -85 -191 0
-50 27 -116 55 -135 17 -13 43 -9 49 8 7 18 -11 91 -28 113 -8 11 -8 13 0 8
19 -11 36 19 29 52 -5 24 -2 32 14 41 12 6 21 17 21 25 0 20 14 19 31 -1 10
-13 10 -17 -2 -25 -8 -5 -20 -9 -27 -9 -8 0 -12 -9 -10 -22 3 -20 69 -65 133
-92 6 -2 3 -11 -6 -20 -14 -16 -19 -15 -70 8 -53 25 -54 25 -63 6 -11 -25 7
-48 52 -67 17 -7 32 -18 32 -23 0 -13 -17 -13 -25 0 -9 14 -62 13 -71 -2 -5
-7 7 -24 29 -43 37 -32 39 -45 7 -45 -22 0 -44 -52 -36 -85 7 -27 -6 -53 -63
-122 -29 -35 -35 -51 -35 -92 -1 -58 -9 -70 -36 -53 -30 19 -43 15 -80 -23
l-35 -36 22 -39 c14 -24 20 -46 16 -57 -10 -24 -64 -83 -77 -83 -6 0 -38 -26
-72 -58 -90 -85 -174 -152 -190 -152 -8 0 -36 -11 -63 -25 l-49 -24 -67 27
c-41 16 -71 34 -77 47 -5 11 -25 31 -44 44 l-35 24 -42 -23 c-23 -13 -56 -34
-72 -46 -23 -17 -34 -20 -48 -13 -17 10 -76 -4 -104 -24 -7 -5 -25 -6 -42 -2
-25 5 -33 1 -56 -29 -41 -54 -57 -48 -49 17 7 57 40 132 85 188 31 39 38 69
15 69 -15 0 -54 -36 -73 -66 -6 -10 -12 -14 -12 -8 -2 22 59 99 81 104 27 7
39 50 13 50 -23 0 -67 -24 -91 -52 -30 -32 -62 -107 -78 -181 l-14 -62 -2 45
c-5 89 2 156 21 222 11 37 24 70 29 73 6 3 5 15 -1 29 -10 21 -6 28 36 67 58
54 59 54 87 35 24 -17 103 -22 113 -7 7 13 76 2 96 -15 26 -23 58 -17 65 11 6
25 9 26 74 24 75 -2 90 3 90 31 0 29 -31 40 -109 40 -67 0 -87 9 -58 27 17 11
46 78 39 90 -11 16 -36 21 -55 11 -34 -17 -116 1 -153 35 -34 29 -36 30 -87
19 -92 -20 -132 -26 -147 -23 -8 1 -35 6 -60 10 -37 6 -41 9 -25 16 11 5 55
33 98 62 67 46 94 58 180 79 172 41 187 46 198 65 5 11 16 19 23 19 20 0 27
25 11 46 -13 18 -16 18 -100 0 -48 -9 -89 -15 -92 -12 -13 12 9 57 32 66 26
10 33 34 14 46 -24 14 -88 13 -124 -2 -34 -14 -39 -14 -54 0 -25 22 -37 20
-119 -19 l-73 -35 -11 25 c-6 14 -15 25 -20 25 -5 0 -33 -16 -62 -35 -29 -19
-58 -35 -64 -35 -7 0 -24 -18 -39 -41 -31 -48 -47 -149 -34 -213 5 -22 11 -59
12 -81 l3 -40 -39 2 c-34 3 -45 -2 -82 -39 -55 -54 -56 -83 -7 -134 29 -31 38
-36 52 -27 9 5 19 19 21 29 3 21 20 44 30 44 27 -1 35 -23 37 -98 1 -43 7 -89
13 -100 8 -15 10 -62 7 -139 -5 -125 -10 -153 -31 -153 -7 0 -20 -3 -29 -6
-11 -4 -19 2 -26 20 -12 31 -32 33 -94 6 -25 -10 -46 -16 -46 -12 1 45 -11
413 -15 462 -2 36 -6 229 -7 430 l-3 365 45 -1 c25 0 61 -7 80 -15 42 -16 170
-107 170 -120 0 -11 79 -7 98 4 6 5 12 18 12 30 1 49 51 77 128 71 29 -2 62
-9 74 -15 41 -22 61 46 26 88 -13 16 -61 40 -116 59 -24 9 -51 23 -61 32 -10
9 -37 34 -59 55 -23 21 -42 45 -42 53 0 8 -8 22 -17 32 -29 28 -54 150 -54
252 0 50 3 95 6 100 3 5 15 44 26 87 32 124 122 253 219 316 63 41 263 71 338
51 12 -4 29 -19 38 -35 25 -49 74 -29 74 30 0 38 74 91 145 106 61 13 101 -2
111 -42z m5138 -382 c22 -24 15 -38 -32 -57 -71 -30 -110 -115 -73 -163 27
-35 51 -22 51 27 0 64 65 99 130 72 23 -10 34 -10 43 -1 19 19 44 12 70 -19
14 -16 27 -35 29 -41 3 -9 11 -10 24 -4 10 5 26 10 34 11 8 1 28 7 43 13 42
16 114 13 192 -8 54 -15 77 -28 103 -56 18 -19 37 -33 42 -30 12 8 85 -30 133
-69 73 -58 117 -214 94 -337 -13 -72 -4 -107 28 -115 29 -7 30 -12 10 -38 -9
-12 -15 -42 -15 -79 0 -63 -6 -80 -56 -145 -47 -61 -38 -81 35 -81 31 0 70 0
86 0 l30 -1 -2 -413 c-1 -226 -2 -420 -2 -429 -1 -25 -118 -36 -157 -15 -100
53 -122 61 -174 61 -60 1 -149 -35 -184 -73 -24 -27 -46 -27 -46 0 0 13 -11
25 -32 34 -18 7 -44 25 -57 39 -44 46 -105 44 -163 -6 -87 -73 -286 -198 -317
-198 -4 0 -23 14 -41 31 -28 27 -36 30 -64 23 -47 -13 -297 -10 -322 4 -12 6
-36 14 -55 17 -18 3 -47 12 -64 20 -66 30 -148 28 -175 -4 -22 -26 -191 -87
-281 -101 -116 -18 -127 -19 -254 -25 -66 -3 -125 -8 -132 -10 -6 -2 -31 5
-54 17 -42 20 -44 20 -121 3 -44 -9 -82 -15 -85 -12 -3 3 -10 32 -17 64 -12
64 0 55 -132 94 -17 5 -53 9 -81 9 -44 0 -56 5 -89 35 -22 19 -48 38 -58 41
-11 4 -47 26 -80 51 -34 24 -82 51 -108 61 -52 18 -57 29 -30 61 15 18 22 19
57 11 31 -7 43 -6 54 5 13 13 12 21 -8 64 -24 49 -24 49 -5 100 15 44 25 55
66 76 26 14 67 27 91 30 38 5 49 1 82 -25 21 -17 43 -29 49 -27 18 6 19 55 2
104 -29 85 -19 175 29 263 10 19 29 55 42 80 36 72 110 149 167 175 99 44 207
75 265 75 42 0 122 -36 153 -70 11 -11 23 -20 28 -20 5 0 18 -17 29 -38 37
-72 70 -77 86 -14 9 36 33 62 58 62 22 0 67 -36 67 -54 0 -16 42 -56 60 -56 9
0 26 11 38 25 29 34 46 31 57 -7 9 -30 13 -33 44 -30 44 3 61 18 61 50 0 28
-34 89 -62 112 -14 12 -19 30 -19 75 -1 78 23 159 74 248 43 75 54 89 102 138
51 53 167 94 179 63 8 -21 43 -9 83 28 55 53 178 46 228 -13 26 -32 46 -36 65
-14 7 8 21 15 32 15 16 0 19 6 16 33 -3 29 -6 32 -38 32 -19 1 -55 11 -80 23
-25 12 -53 22 -62 22 -10 0 -18 4 -18 10 0 12 13 23 73 61 26 17 54 43 61 58
8 14 29 41 46 59 39 39 96 45 124 13z m996 -5 c0 -9 -16 -17 -41 -21 -30 -5
-39 -11 -36 -23 2 -10 9 -16 16 -14 23 5 61 -27 60 -51 -1 -12 0 -150 0 -306
2 -222 -1 -286 -11 -292 -23 -15 -30 8 -32 108 -2 62 -10 127 -23 177 -18 66
-28 86 -60 115 -56 52 -125 91 -160 91 -13 0 -32 10 -43 23 -12 12 -28 30 -36
39 -26 27 -21 31 125 94 31 14 36 13 67 -8 19 -13 34 -26 34 -30 0 -5 11 -8
24 -8 31 0 42 36 15 53 -24 15 -25 37 0 37 10 0 32 7 47 15 36 19 54 19 54 1z
m-5445 -285 c-7 -33 17 -125 39 -150 52 -60 118 -120 138 -126 13 -4 41 -16
64 -26 38 -17 45 -17 107 -3 45 11 76 25 97 44 34 32 37 24 14 -43 -12 -37
-21 -47 -38 -47 -12 0 -37 -15 -54 -33 -29 -29 -34 -43 -41 -110 -12 -102 -17
-108 -95 -100 -66 7 -111 30 -160 82 -17 17 -35 31 -42 31 -7 0 -17 8 -23 17
-5 10 -18 18 -27 18 -11 0 -20 10 -24 25 -3 14 -16 30 -29 35 -25 11 -25 -5
-1 185 10 77 34 162 61 211 15 28 21 23 14 -10z m1390 -191 c15 -6 32 -24 40
-44 19 -45 86 -90 177 -117 74 -22 86 -22 327 -7 53 3 55 2 63 -27 11 -41 13
-138 4 -202 -8 -51 -7 -53 18 -63 25 -9 29 -14 29 -45 0 -28 -3 -31 -38 -48
-47 -23 -55 -21 -55 7 0 18 6 25 23 28 16 2 23 11 25 31 4 31 2 31 -66 16 -30
-7 -77 -9 -126 -4 -74 7 -77 8 -90 38 -8 19 -10 39 -5 48 9 17 -6 86 -23 106
-15 18 -73 26 -97 14 -18 -10 -21 -21 -21 -70 0 -66 -14 -85 -73 -102 -41 -11
-84 2 -94 28 -3 10 -14 27 -23 38 -31 36 -59 222 -52 334 4 54 10 59 57 41z
m1533 -69 c24 -6 55 -19 69 -28 28 -19 73 -104 73 -140 0 -29 13 -35 45 -23
28 11 29 15 13 105 -3 22 13 24 92 8 47 -9 138 4 175 25 11 7 39 16 62 22 23
6 49 18 58 26 23 23 27 13 15 -37 -29 -112 -32 -170 -15 -264 l7 -41 -40 -2
c-32 -2 -42 2 -55 22 -9 13 -36 32 -61 41 -41 16 -47 16 -77 1 -36 -18 -56
-20 -61 -7 -7 19 -127 69 -183 77 -77 11 -87 10 -170 -6 -60 -11 -153 -49
-235 -95 -41 -23 -135 -126 -168 -186 -17 -30 -40 -64 -52 -74 -14 -12 -18
-25 -14 -42 4 -15 0 -30 -10 -42 -12 -14 -17 -39 -18 -96 l-1 -77 -39 5 c-55
7 -90 -5 -146 -52 -53 -45 -91 -111 -99 -172 -3 -21 -10 -39 -14 -39 -5 0 -27
-16 -49 -36 -21 -20 -44 -33 -50 -29 -5 3 -10 37 -10 74 0 38 -4 90 -9 117 -5
27 -13 91 -16 142 l-8 92 24 -2 c22 -3 24 2 30 52 8 70 27 110 51 110 11 0 28
5 38 10 13 7 27 6 45 -2 22 -10 28 -9 36 3 11 18 3 58 -18 81 -26 29 -12 97
28 137 l34 34 63 -11 c41 -7 73 -19 88 -33 19 -18 26 -20 39 -9 8 7 15 27 15
44 l1 31 20 -25 c19 -22 22 -23 33 -8 6 8 20 17 31 19 17 4 21 15 25 65 3 34
12 70 20 80 80 103 113 129 142 113 12 -7 21 -2 36 18 30 41 108 50 210 24z
m-2488 -196 c0 -14 -7 -28 -15 -32 -22 -8 -28 2 -21 32 8 33 36 33 36 0z
m-1350 -97 c69 -32 159 -40 186 -17 19 16 36 0 53 -48 7 -21 31 -57 53 -80 33
-34 50 -43 91 -48 77 -11 130 -13 152 -5 11 4 33 10 49 14 28 7 28 6 22 -26
-3 -18 -26 -73 -51 -122 -35 -71 -52 -94 -81 -110 -36 -20 -72 -70 -95 -128
-15 -39 -24 -35 -46 17 -16 41 -23 47 -67 60 -60 18 -109 19 -153 3 -18 -6
-35 -9 -38 -7 -3 3 6 28 21 54 44 84 52 119 44 193 -10 97 -37 151 -96 194
-27 20 -66 43 -86 51 -21 9 -38 20 -38 26 0 15 24 20 35 6 6 -6 26 -19 45 -27z
m2575 2 c8 -37 -2 -70 -22 -70 -10 0 -13 6 -9 16 3 9 6 31 6 50 0 42 16 45 25
4z m-593 -49 c32 -16 71 -39 87 -50 35 -26 61 -87 61 -147 0 -46 23 -94 45
-94 7 0 25 14 40 32 15 17 43 40 63 51 33 18 37 18 48 3 7 -11 12 -59 13 -128
1 -90 5 -114 18 -123 15 -11 14 -14 -5 -33 -26 -26 -28 -61 -7 -103 9 -16 13
-34 10 -39 -14 -22 -23 -109 -15 -150 5 -30 3 -67 -7 -115 -8 -40 -12 -89 -9
-115 4 -25 6 -76 6 -115 0 -78 9 -94 75 -139 48 -33 116 -34 206 -6 78 25 161
22 264 -10 73 -23 119 -30 327 -50 90 -8 141 -9 175 -2 30 7 52 7 58 1 15 -15
40 -11 68 11 33 26 45 25 59 -6 10 -21 17 -25 40 -20 15 3 49 -1 75 -8 27 -8
76 -19 111 -25 34 -7 86 -19 115 -28 52 -17 137 -69 137 -85 0 -8 74 -45 137
-68 26 -10 34 -20 39 -47 4 -18 3 -37 0 -41 -10 -9 -186 -3 -226 8 -18 5 -41
17 -51 26 -14 13 -26 14 -56 7 -41 -10 -45 -22 -29 -89 l7 -31 -82 -16 c-46
-9 -90 -12 -102 -8 -12 4 -69 6 -126 5 -79 -3 -111 0 -137 12 -19 9 -59 17
-89 18 -37 1 -59 7 -67 18 -14 18 -128 68 -154 68 -10 0 -35 8 -56 17 -45 20
-52 45 -10 38 15 -3 54 -9 86 -15 83 -14 94 -13 106 10 19 36 2 60 -65 91 -35
16 -66 33 -69 38 -8 13 -152 45 -165 36 -6 -3 -19 -2 -28 3 -10 5 -133 12
-273 15 -140 3 -262 8 -271 12 -9 3 -19 22 -23 43 -4 29 -13 41 -41 56 -41 22
-45 36 -10 36 28 0 33 21 10 40 -8 7 -53 15 -99 19 -67 5 -90 11 -108 28 -47
45 -184 78 -281 69 l-70 -6 26 21 c16 12 27 30 27 45 l0 24 40 -25 c26 -16 54
-25 82 -25 24 0 81 -14 128 -30 47 -16 96 -30 110 -30 14 0 36 -7 50 -15 14
-8 42 -14 63 -15 36 0 38 2 35 27 -3 23 -12 30 -81 54 -42 15 -89 30 -105 33
-15 2 -58 12 -97 20 -38 9 -79 16 -91 16 -11 0 -42 14 -69 31 -27 17 -83 49
-123 71 -70 37 -77 38 -160 37 -48 -1 -105 -8 -127 -15 -22 -7 -67 -17 -100
-23 -62 -10 -81 -15 -223 -50 -46 -12 -89 -21 -95 -21 -8 0 -13 19 -14 51 -1
36 -7 57 -21 72 -12 12 -25 35 -31 50 -14 36 -14 104 -1 112 6 3 10 21 10 38
0 25 11 44 45 80 42 45 47 47 97 47 31 -1 61 -7 72 -15 40 -30 75 -5 64 45 -2
10 10 16 37 20 62 9 65 13 62 96 -2 64 1 77 17 86 10 6 28 20 40 32 11 11 25
21 31 21 5 0 19 14 30 30 43 62 136 153 177 172 142 67 253 78 340 34z m4378
-68 c0 -10 3 -34 6 -54 5 -28 2 -37 -11 -42 -37 -15 -74 31 -41 50 8 4 15 13
15 18 2 22 13 45 22 45 5 0 9 -8 9 -17z m-3870 -68 c-9 -56 -8 -76 6 -117 9
-27 26 -55 39 -64 73 -47 91 39 50 231 l-7 30 19 -22 c17 -21 99 -43 178 -47
l30 -1 -5 -85 c-7 -125 -6 -327 4 -470 7 -95 13 -133 28 -157 11 -18 24 -33
29 -33 5 0 17 -15 26 -34 15 -32 48 -56 76 -56 21 0 254 -165 295 -208 20 -21
30 -24 70 -19 26 3 76 0 112 -7 54 -10 66 -16 68 -33 4 -25 -36 -37 -110 -34
-26 1 -55 -2 -65 -7 -11 -6 -65 -4 -148 5 -71 8 -143 16 -160 17 -30 2 -51 9
-92 29 -13 6 -26 8 -29 4 -3 -3 -23 0 -43 8 -68 24 -170 26 -226 4 -83 -32
-147 -35 -195 -8 -22 13 -42 32 -45 44 -10 53 -12 136 -2 195 5 36 11 108 12
160 4 168 17 314 31 342 19 37 17 75 -3 87 -14 8 -20 34 -29 143 -7 85 -7 138
-1 146 5 6 24 12 43 12 18 0 36 5 39 11 14 22 15 0 5 -66z m-1295 43 c2 -7 9
-33 15 -57 7 -26 24 -56 42 -73 30 -28 30 -30 19 -66 -7 -21 -11 -51 -9 -67 1
-17 -1 -32 -7 -34 -29 -10 -65 -33 -65 -41 0 -5 -17 -12 -37 -15 -62 -10 -165
-65 -205 -109 -48 -52 -62 -94 -63 -181 0 -67 2 -73 48 -143 67 -101 67 -103
20 -91 -21 6 -52 16 -68 24 -21 9 -56 12 -114 9 -82 -4 -83 -3 -78 19 18 70
32 96 56 99 21 3 28 15 56 99 31 97 50 134 86 170 16 16 20 31 17 72 -3 49 -2
51 22 52 20 0 25 5 25 27 1 15 9 36 20 48 10 11 23 28 29 39 16 27 67 103 88
131 10 14 29 42 43 63 25 37 52 48 60 25z m-175 -23 c17 -21 11 -24 -28 -13
-18 5 -30 13 -27 18 9 15 41 12 55 -5z m1540 -86 c0 -20 -15 -26 -25 -9 -9 15
3 43 15 35 5 -3 10 -15 10 -26z m-3042 -116 c-3 -16 -131 -93 -156 -93 -22 0
-9 34 18 47 14 7 36 23 50 37 28 31 94 38 88 9z m-132 -192 c-8 -13 -36 -15
-36 -3 0 4 5 13 12 20 14 14 34 0 24 -17z m174 -149 c0 -5 -11 -19 -25 -32
-24 -22 -25 -22 -25 -4 0 11 5 25 12 32 14 14 38 16 38 4z m-129 -72 c-6 -42
-7 -43 -14 -17 -8 30 1 83 13 70 4 -4 5 -28 1 -53z m-71 -191 c3 -30 9 -60 13
-67 5 -7 10 -53 11 -103 l3 -90 -31 3 -31 3 2 140 c1 77 2 148 3 158 0 10 6
17 13 15 7 -3 14 -28 17 -59z m2294 -6 c40 -19 49 -38 13 -29 -108 27 -211 13
-205 -27 2 -18 -3 -23 -29 -25 -20 -2 -37 -11 -43 -23 -10 -18 -21 -19 -131
-18 -66 0 -125 -3 -132 -8 -23 -17 -82 -30 -139 -32 -31 -1 -72 -8 -92 -16
-19 -8 -49 -15 -67 -15 -22 0 -32 -5 -36 -20 -7 -25 -5 -25 -49 5 -29 19 -45
24 -68 20 -44 -9 -209 -66 -221 -76 -6 -6 -3 -20 9 -39 19 -33 18 -34 -44 -44
-66 -12 -289 -134 -355 -195 -27 -25 -64 -58 -81 -72 -44 -36 -86 -106 -79
-129 4 -12 -3 -27 -22 -44 -33 -31 -68 -34 -83 -7 -5 11 -34 32 -64 47 l-55
28 -56 -28 c-31 -15 -58 -33 -61 -40 -8 -21 -124 -107 -158 -118 -17 -5 -53
-11 -81 -14 -27 -3 -61 -9 -75 -14 -74 -27 -112 -31 -161 -19 -50 13 -109 52
-97 64 13 13 157 10 170 -3 17 -17 81 -15 125 3 19 8 48 15 63 15 43 0 111 34
157 79 23 23 43 44 45 48 4 9 76 57 98 65 8 3 44 1 80 -4 84 -11 106 -5 127
36 40 76 155 176 203 176 34 0 66 69 39 85 -13 9 -133 -32 -179 -61 -29 -17
-116 -107 -139 -142 -3 -5 -42 -14 -85 -21 -58 -8 -93 -20 -126 -41 -26 -17
-51 -30 -56 -30 -5 0 -34 -26 -64 -59 -54 -57 -57 -59 -130 -71 -61 -10 -88
-10 -140 0 -36 7 -85 14 -110 14 -26 1 -43 5 -40 11 3 6 12 10 20 10 8 0 32 6
53 14 21 7 49 10 62 7 12 -3 46 -1 75 4 40 8 55 7 65 -4 10 -10 25 -11 54 -6
31 5 54 21 97 64 32 32 70 64 86 72 15 8 31 24 34 37 11 40 71 81 122 83 l44
2 38 73 c20 40 43 75 51 78 7 2 21 12 32 21 10 10 41 22 69 28 45 8 55 7 86
-11 24 -14 56 -22 100 -23 36 -2 70 -8 75 -13 15 -15 25 -14 54 9 14 11 37 20
52 21 14 0 46 8 70 17 36 14 46 23 53 49 5 17 17 34 27 38 10 3 36 22 57 42
48 47 116 93 127 86 4 -2 24 3 43 12 23 11 39 13 50 7 10 -6 33 -6 57 0 39 9
92 3 112 -12 34 -25 109 -20 260 17 76 19 132 32 254 57 13 3 38 10 55 15 73
23 134 21 190 -6z m3992 -133 c15 -6 34 -20 41 -30 8 -11 28 -23 46 -28 34 -9
42 -29 17 -43 -57 -32 -391 -149 -425 -149 -8 0 -19 -8 -24 -18 -5 -10 -31
-27 -58 -39 -95 -41 -166 -57 -275 -59 -60 -2 -112 -5 -117 -9 -6 -3 -108 -6
-228 -6 -120 0 -264 -3 -321 -6 -97 -6 -104 -8 -112 -29 -9 -23 -10 -23 -47
-8 -21 9 -42 20 -47 24 -15 15 38 35 99 38 130 6 327 14 466 18 81 2 180 10
220 19 41 8 93 15 116 15 23 0 45 5 48 10 3 6 20 10 37 10 35 0 254 106 287
139 12 12 27 21 34 21 17 0 179 106 189 125 11 18 18 18 54 5z m-3932 -26 c26
-10 18 -24 -14 -24 -29 0 -38 9 -23 23 8 9 17 9 37 1z m4398 -29 c65 -44 115
-56 181 -43 32 6 60 9 62 6 8 -8 14 -338 6 -338 -4 0 -31 6 -61 14 -136 35
-335 59 -460 56 -98 -3 -102 -3 -142 5 -28 6 -57 1 -115 -18 -43 -14 -100 -27
-128 -30 -27 -3 -79 -10 -115 -17 -157 -27 -325 -43 -363 -36 -18 4 -114 9
-213 12 -157 4 -182 3 -187 -10 -8 -21 27 -40 51 -27 10 5 47 7 82 5 157 -10
389 -11 435 -3 50 10 168 21 215 20 14 0 53 7 88 15 47 12 66 13 77 4 10 -9
26 -4 69 19 43 23 63 28 93 24 21 -3 117 -9 213 -13 96 -4 189 -11 205 -15 17
-4 65 -13 107 -20 43 -6 83 -17 90 -23 7 -5 24 -12 38 -14 24 -3 25 -6 28 -84
3 -93 17 -80 -138 -129 -79 -26 -93 -27 -210 -22 -120 6 -190 20 -190 37 0 5
68 6 150 3 140 -6 152 -5 165 13 8 10 15 31 15 45 0 21 -8 30 -41 45 -33 14
-67 18 -169 19 -113 0 -130 -2 -149 -19 -18 -17 -21 -27 -15 -62 l6 -42 -138
5 c-97 4 -148 10 -169 21 -130 67 -124 65 -168 49 -129 -47 -166 -58 -218 -66
-67 -11 -151 -5 -194 13 -16 8 -86 25 -155 39 -69 14 -154 33 -190 43 -36 9
-114 19 -174 23 l-110 6 -8 32 c-5 18 -20 40 -34 49 -44 30 -59 28 321 38 127
3 264 9 305 13 41 4 78 6 83 5 40 -11 125 0 207 26 52 17 107 33 122 36 14 3
39 17 55 30 29 24 192 86 298 113 65 17 207 83 295 138 71 44 137 48 192 10z
m-4551 -8 c-13 -13 -26 -3 -16 12 3 6 11 8 17 5 6 -4 6 -10 -1 -17z m-145 -22
c20 -25 27 -28 42 -19 12 8 24 9 36 2 9 -5 63 -7 124 -4 59 2 125 1 147 -4 22
-5 53 -12 68 -15 16 -3 27 -11 25 -16 -7 -21 -154 -64 -253 -75 -27 -3 -74
-10 -104 -15 l-53 -11 6 -39 c5 -33 3 -41 -18 -54 -20 -14 -41 -14 -167 -4
-79 6 -176 9 -216 7 -67 -5 -71 -4 -60 14 9 13 9 23 1 36 -13 18 -18 18 -78 3
-24 -6 -48 -6 -64 0 -15 6 -36 6 -56 0 -17 -6 -65 -20 -106 -32 -41 -12 -79
-26 -85 -30 -5 -4 -46 -21 -90 -38 -108 -41 -205 -108 -317 -216 -130 -124
-235 -197 -363 -250 -112 -47 -154 -52 -182 -26 -12 12 -29 21 -37 21 -9 0
-84 -23 -168 -51 -153 -52 -153 -52 -221 -40 -37 6 -91 11 -120 11 -58 0 -102
18 -102 40 0 16 7 16 79 -1 41 -9 63 -9 120 5 39 8 98 20 130 26 62 11 160 52
188 79 9 9 27 24 40 34 12 9 37 28 53 40 59 46 88 41 143 -24 17 -21 33 -29
57 -29 19 0 37 5 40 10 3 6 14 10 24 10 30 0 131 81 137 109 19 87 36 111 135
193 92 76 123 93 269 152 30 13 79 33 108 47 51 23 52 25 50 63 -3 43 1 45 80
51 41 3 42 2 42 -30 0 -34 13 -45 52 -45 13 0 24 10 31 29 10 26 15 30 50 28
29 -1 43 4 53 18 13 18 27 20 120 20 104 0 106 1 127 28 l22 27 118 -2 c119
-3 119 -3 143 -33z m3221 -41 c21 -9 56 -25 78 -34 22 -10 54 -23 70 -29 59
-20 262 -14 328 11 29 11 57 -2 57 -27 0 -21 -130 -63 -222 -71 -29 -2 -88 -8
-130 -14 -43 -5 -104 -7 -135 -5 -91 7 -194 4 -398 -9 -55 -4 -134 -3 -175 2
-61 8 -78 7 -92 -6 -15 -13 -22 -13 -58 2 -22 9 -49 16 -60 16 -11 0 -20 4
-20 8 0 4 37 9 83 10 45 1 100 5 123 8 22 3 54 7 70 8 35 3 128 23 169 38 17
6 48 15 70 20 22 5 76 27 120 49 43 21 80 39 82 39 1 0 19 -7 40 -16z m-4900
-111 c-30 -47 -40 -55 -99 -77 -36 -13 -54 -28 -77 -63 -17 -25 -46 -57 -66
-70 -19 -13 -39 -32 -45 -43 -6 -11 -16 -20 -21 -20 -6 0 -22 -10 -35 -22 -21
-21 -33 -23 -141 -24 -75 -1 -138 -8 -172 -18 -29 -8 -57 -13 -62 -10 -5 3 -9
27 -9 54 0 57 26 90 71 90 14 0 59 14 100 31 81 34 137 38 157 12 18 -24 86
-20 126 8 17 12 48 48 69 80 37 57 40 59 82 59 26 0 47 6 56 16 17 21 83 54
87 44 2 -5 -8 -26 -21 -47z m2437 38 c9 -13 -39 -22 -82 -15 -38 6 -236 -20
-281 -38 -14 -5 -31 -17 -38 -27 -8 -12 -31 -21 -64 -25 -60 -8 -89 -21 -89
-40 0 -22 38 -49 76 -53 41 -4 74 -19 74 -32 0 -15 -82 -52 -99 -45 -35 14
-257 23 -326 12 -79 -11 -105 -22 -105 -43 0 -24 64 -65 101 -65 19 0 47 -7
62 -15 46 -24 194 -38 270 -25 48 7 269 -9 307 -23 8 -3 44 -8 80 -11 64 -5
218 -54 247 -77 47 -39 91 -92 87 -104 -3 -7 -25 -15 -52 -17 -36 -3 -50 1
-62 15 -59 71 -88 87 -195 108 -88 18 -139 19 -192 3 -75 -21 -67 -35 17 -29
61 4 77 1 117 -21 26 -13 65 -27 87 -31 51 -7 76 -20 76 -37 0 -16 38 -51 46
-43 4 3 21 0 39 -7 21 -9 55 -12 101 -9 54 4 78 1 102 -11 18 -9 37 -14 42
-11 5 3 24 -2 42 -12 18 -10 40 -19 48 -20 41 -6 137 -36 149 -46 7 -6 25 -12
40 -13 14 0 36 -2 47 -2 12 -1 44 -22 71 -46 26 -24 64 -52 84 -62 20 -11 52
-28 72 -38 27 -14 37 -26 37 -43 0 -15 9 -27 25 -35 14 -6 25 -14 25 -18 0
-11 130 -97 160 -105 14 -5 50 -9 80 -10 30 -1 80 -10 110 -19 30 -10 87 -19
125 -22 228 -14 285 -36 257 -99 -12 -26 -13 -26 -95 -22 -52 3 -97 12 -117
22 -19 10 -48 15 -71 13 -30 -3 -40 1 -47 17 -12 24 -114 68 -197 83 -33 7
-125 16 -205 22 -166 13 -310 40 -384 74 -95 42 -257 85 -406 106 -41 6 -124
19 -185 30 -60 11 -138 22 -172 26 -55 5 -65 10 -87 39 -14 18 -35 35 -48 38
-13 3 -48 15 -78 27 -30 12 -91 30 -135 39 -82 18 -92 21 -158 48 -20 9 -54
19 -74 22 -20 3 -36 11 -37 16 -2 16 71 17 96 1 34 -21 243 -42 271 -27 18 10
29 9 52 -3 17 -9 37 -16 45 -16 9 0 26 -8 39 -17 18 -12 47 -17 111 -17 82 -1
88 1 122 29 44 36 50 76 16 100 -74 52 -286 78 -327 41 -25 -23 -41 -14 -17 9
37 37 21 46 -129 71 -22 4 -62 16 -90 27 -41 16 -95 23 -196 27 -3 0 -4 11 -2
24 7 34 -31 56 -115 67 -37 5 -87 13 -112 18 -46 10 -155 -5 -195 -26 -11 -6
-33 -9 -48 -6 -23 5 -29 1 -34 -16 -3 -12 -13 -21 -23 -21 -18 0 -22 -7 -34
-61 -5 -23 -13 -27 -76 -38 -39 -7 -73 -11 -75 -9 -2 2 21 19 51 38 55 35 70
65 37 77 -10 3 -26 13 -35 21 -40 34 -212 -2 -293 -61 -16 -12 -47 -31 -69
-42 -21 -10 -57 -43 -79 -72 -23 -29 -44 -53 -47 -53 -3 0 -33 -26 -66 -59
-36 -34 -73 -60 -90 -64 -16 -3 -71 -17 -122 -31 -51 -14 -116 -30 -145 -35
-80 -15 -134 -30 -222 -63 -117 -43 -173 -53 -194 -34 -28 25 -111 21 -154 -8
-43 -29 -111 -35 -185 -17 l-53 13 3 42 3 41 55 -2 c30 0 82 -2 115 -3 43 -2
82 5 137 24 42 14 86 26 96 26 24 0 82 46 82 65 0 8 15 17 36 21 28 5 39 2 55
-15 11 -11 24 -21 29 -21 5 0 12 -9 15 -20 3 -11 16 -22 29 -26 22 -5 154 34
178 53 7 6 31 16 53 23 56 18 193 115 292 207 47 43 92 82 99 86 8 4 14 14 14
22 0 14 9 21 123 97 31 21 67 48 81 61 13 13 48 29 77 37 28 8 67 26 85 41 31
25 100 47 111 36 2 -3 0 -14 -6 -25 -17 -31 6 -54 47 -46 29 6 32 10 32 41 0
30 2 34 15 23 8 -7 15 -21 15 -31 0 -18 12 -19 233 -18 302 1 370 15 419 85
25 37 30 40 105 51 43 6 112 21 153 33 41 12 89 25 105 30 41 11 272 12 279 1z
m-2788 -22 c11 -18 -13 -34 -31 -19 -8 7 -15 16 -15 21 0 13 38 11 46 -2z
m-166 -56 c-1 -20 -30 -41 -83 -62 -31 -13 -60 -27 -63 -32 -7 -12 -44 -12
-44 0 0 14 50 51 69 51 9 0 36 11 61 25 49 26 60 29 60 18z m2830 -26 c12 -8
30 -13 40 -10 13 3 29 -6 50 -28 16 -18 40 -34 52 -35 13 -1 34 -4 48 -8 60
-15 406 -33 510 -26 55 4 195 -5 232 -15 42 -11 23 -25 -34 -25 l-51 0 6 -50
c3 -28 9 -55 13 -61 9 -15 88 -48 157 -66 32 -8 73 -24 92 -36 18 -12 60 -38
91 -57 l58 -35 -59 -5 -60 -5 3 -32 c2 -29 -1 -33 -23 -33 -13 0 -86 20 -162
44 -133 43 -246 64 -396 73 -87 6 -117 -1 -117 -27 0 -28 -21 -24 -44 6 -18
26 -18 26 14 57 42 41 51 67 39 110 -11 41 -11 41 -138 67 -99 20 -175 48
-221 81 -19 14 -53 19 -145 24 -66 4 -128 9 -137 11 -22 6 -24 24 -3 24 9 0
23 16 32 34 11 25 24 36 42 38 47 6 90 0 111 -15z m-55 -223 c44 -22 89 -37
120 -39 136 -10 241 -33 273 -58 6 -5 12 -18 12 -29 0 -15 -4 -18 -17 -13
-102 41 -164 59 -258 76 -209 39 -237 40 -407 27 -151 -12 -199 -6 -246 28
-30 22 -8 24 93 9 143 -22 190 -20 228 9 60 45 98 43 202 -10z m4032 -75 c32
1 75 -17 68 -29 -4 -6 -55 -10 -131 -9 -111 1 -125 3 -122 17 4 20 65 32 123
25 22 -3 50 -5 62 -4z m-1474 -16 c31 -19 -43 -36 -108 -25 -27 5 -41 13 -43
26 -4 17 1 18 70 11 40 -4 76 -9 81 -12z m851 -35 c44 -44 88 -57 191 -57 88
1 116 -3 104 -16 -3 -2 -31 -7 -64 -10 -84 -8 -107 -33 -66 -74 18 -18 108
-34 201 -35 23 -1 36 -6 38 -17 3 -19 -33 -29 -107 -30 -25 0 -55 -4 -66 -8
-22 -9 -67 4 -150 43 -147 69 -196 86 -255 86 -19 1 -46 7 -60 15 -14 8 -37
14 -52 15 -26 0 -46 16 -34 27 3 3 27 10 53 15 95 17 123 25 178 49 52 24 61
24 89 -3z m-1177 -1 c6 -6 20 -66 30 -124 4 -28 9 -33 33 -33 28 0 69 -14 150
-53 27 -13 71 -23 110 -25 36 -1 100 -5 143 -8 55 -4 83 -2 93 7 21 17 414 32
469 17 22 -5 56 -12 75 -14 68 -7 106 -16 168 -40 34 -14 67 -22 72 -19 5 3
23 -4 40 -16 22 -17 49 -24 107 -28 86 -7 106 -15 101 -39 -2 -13 -15 -17 -48
-18 -85 -2 -128 -14 -134 -37 -10 -40 -6 -93 9 -113 15 -19 15 -19 30 0 8 11
15 36 15 57 0 43 11 54 65 63 34 6 44 3 60 -14 18 -19 18 -26 6 -93 -7 -40
-15 -93 -18 -120 -3 -26 -9 -49 -13 -52 -4 -2 -33 1 -65 8 -44 9 -59 17 -66
34 -10 28 -28 36 -144 64 -103 24 -149 46 -185 84 -14 14 -41 33 -60 42 -19 9
-44 24 -55 34 -21 18 -132 45 -142 35 -4 -3 -16 0 -27 7 -40 26 -249 39 -406
25 -52 -4 -115 -9 -139 -11 -24 -2 -62 0 -85 5 -22 5 -104 21 -180 36 l-139
27 -12 45 c-6 25 -23 63 -38 84 -32 46 -33 52 -7 66 11 6 20 21 20 34 0 15 7
26 21 29 11 3 25 19 32 36 11 29 14 31 59 27 27 -2 51 -6 55 -9z m-2993 -16
c73 -6 97 -25 47 -36 -30 -6 -44 -25 -35 -48 3 -10 -20 -12 -111 -10 -63 1
-138 -2 -167 -7 -61 -9 -71 -6 -41 15 13 9 23 29 25 48 2 26 8 33 33 38 38 8
160 8 249 0z m3112 -26 c32 -25 41 -26 196 -30 236 -7 405 -28 461 -57 14 -7
24 -5 38 8 18 16 22 16 82 0 34 -10 77 -24 95 -32 18 -8 44 -14 57 -14 14 0
25 -3 25 -7 0 -5 -102 -7 -227 -5 -194 3 -237 1 -286 -14 -49 -15 -65 -16
-105 -6 -26 7 -79 12 -119 11 -61 -1 -81 3 -140 31 -37 18 -78 37 -90 43 -32
14 -58 97 -31 97 6 0 26 -11 44 -25z m264 15 c0 -5 -7 -10 -15 -10 -8 0 -15 5
-15 10 0 6 7 10 15 10 8 0 15 -4 15 -10z m-3982 -21 c-54 -40 -67 -55 -73 -81
-10 -39 20 -52 75 -33 24 8 50 15 59 14 20 0 -16 -17 -129 -60 -47 -17 -101
-45 -120 -61 -31 -25 -33 -31 -22 -48 10 -17 10 -21 -3 -26 -8 -4 -21 -4 -29
-1 -7 3 -31 -5 -52 -18 -26 -16 -48 -22 -69 -18 -39 6 -203 -65 -258 -112 -22
-19 -47 -35 -54 -35 -8 0 -40 -9 -72 -20 -32 -10 -75 -20 -97 -21 -43 -2 -203
-50 -245 -74 -14 -8 -46 -17 -70 -20 -24 -4 -61 -13 -81 -21 -33 -12 -46 -12
-95 1 -32 8 -69 16 -83 16 -26 2 -123 -15 -151 -26 -26 -10 -49 22 -49 65 0
39 0 39 33 33 17 -3 45 -13 61 -22 22 -12 30 -13 33 -3 13 36 36 45 105 38 37
-3 100 -9 138 -12 84 -8 177 13 258 57 28 16 52 27 52 25 0 -3 39 13 86 34 47
22 90 40 96 40 5 0 24 7 41 15 50 23 180 65 202 65 21 0 108 41 160 75 37 24
105 93 105 106 0 16 72 79 110 96 52 23 133 52 150 52 9 0 5 -7 -12 -20z
m5744 -29 c3 -17 -1 -35 -7 -40 -7 -5 -72 -12 -146 -16 -74 -3 -189 -8 -257
-11 l-124 -5 4 28 c3 29 4 29 68 28 36 0 106 -3 156 -6 82 -4 100 -2 190 27
54 17 102 30 105 28 4 -1 9 -16 11 -33z m-2447 -43 c7 -20 24 -52 37 -70 14
-17 30 -47 36 -66 7 -18 23 -45 37 -59 14 -13 25 -29 25 -33 0 -5 18 -9 39 -9
22 0 61 -4 88 -10 26 -5 74 -14 106 -19 32 -6 73 -18 92 -26 26 -13 55 -15
127 -12 51 2 102 8 113 13 26 11 271 12 281 1 16 -15 -21 -27 -88 -27 -37 0
-79 -5 -95 -11 -103 -40 -251 -58 -320 -40 -21 6 -69 15 -107 20 -37 5 -75 16
-85 24 -9 8 -50 22 -91 32 -41 9 -82 22 -90 30 -20 17 -102 44 -157 52 -34 4
-47 11 -53 28 -5 13 -14 26 -19 30 -23 14 -52 96 -49 138 l3 42 60 6 c92 9 96
8 110 -34z m-2394 9 c19 -8 38 -18 42 -23 5 -4 29 -15 55 -23 45 -15 78 -52
65 -73 -10 -16 -107 0 -165 26 -47 22 -61 24 -104 16 -54 -10 -74 -6 -74 14 0
8 -13 17 -30 21 -35 6 -40 26 -7 26 12 1 33 7 47 15 32 18 128 19 171 1z
m4265 -1 c12 -31 -16 -48 -68 -41 -27 4 -60 11 -74 17 -22 8 -24 12 -14 24 18
21 148 21 156 0z m-2089 -67 c18 -98 25 -122 39 -131 15 -9 19 -37 6 -37 -15
0 -32 24 -32 46 0 13 -4 25 -9 28 -5 3 -12 25 -15 50 -4 24 -13 52 -21 62 -20
26 -18 44 3 44 14 0 20 -13 29 -62z m-2491 -9 c3 -5 -7 -14 -21 -21 -56 -25
-7 -64 121 -93 39 -9 75 -15 80 -14 5 1 31 -7 57 -19 60 -27 137 -49 202 -58
28 -3 80 -20 118 -37 60 -27 67 -33 67 -58 0 -38 22 -48 116 -50 43 -1 102 -7
129 -15 28 -7 64 -15 80 -18 17 -3 50 -10 75 -16 25 -6 72 -14 105 -20 90 -14
235 -51 281 -71 22 -11 48 -19 57 -19 9 0 18 -4 21 -8 12 -21 297 -74 381 -72
195 5 435 -50 435 -100 0 -11 -391 -4 -450 8 -30 7 -162 13 -292 15 l-236 3
-106 52 -105 52 -118 5 c-128 4 -151 8 -201 38 -22 13 -42 17 -62 14 -21 -5
-33 -2 -42 11 -48 63 -292 195 -413 222 -119 27 -300 56 -449 74 -117 13 -235
3 -244 -22 -2 -8 -14 -11 -35 -7 -43 8 -230 -52 -290 -93 -24 -17 -80 -45
-123 -62 -44 -18 -103 -43 -132 -56 -29 -13 -57 -24 -63 -24 -16 0 -92 -41
-115 -62 -15 -14 -41 -21 -85 -24 -35 -2 -100 -8 -144 -14 -78 -9 -184 -20
-255 -25 -96 -8 -145 -17 -153 -28 -7 -9 -10 -9 -14 1 -2 6 -18 12 -34 12 -16
0 -45 8 -64 19 l-35 19 37 8 c21 4 67 9 103 9 109 3 248 16 283 26 17 6 60 12
93 15 46 3 78 13 125 39 35 19 76 39 91 45 15 7 31 23 35 36 11 33 98 69 187
77 36 3 82 15 103 25 100 51 141 77 181 115 30 30 42 36 42 24 0 -9 -4 -17 -8
-17 -5 0 -15 -11 -22 -25 -10 -18 -61 -48 -175 -105 -122 -60 -165 -86 -173
-105 -24 -52 -7 -63 21 -15 10 17 30 33 45 36 15 4 46 17 70 30 23 13 47 24
53 24 13 0 140 62 189 92 19 12 41 30 48 39 18 25 141 105 187 122 40 14 112
35 193 57 23 6 47 8 53 5 5 -4 18 -3 27 1 65 30 150 31 168 3z m1334 14 c51
-20 120 -63 99 -63 -18 0 -161 58 -173 71 -16 15 24 11 74 -8z m866 2 c6 -2
17 -25 24 -52 18 -67 37 -101 59 -108 10 -3 22 -17 25 -30 4 -14 17 -32 31
-41 14 -9 25 -20 25 -25 0 -38 -214 42 -264 99 -30 34 -55 102 -56 150 0 23 2
23 73 17 39 -4 77 -8 83 -10z m2962 -56 c3 -65 2 -67 -25 -74 -41 -10 -483 -3
-490 8 -3 6 2 16 12 23 18 14 247 10 345 -5 28 -4 51 -4 52 0 5 34 3 34 -207
39 -201 5 -210 6 -210 25 0 25 39 32 280 43 264 14 239 20 243 -59z m-4148 51
c0 -5 -4 -10 -10 -10 -5 0 -10 5 -10 10 0 6 5 10 10 10 6 0 10 -4 10 -10z
m1408 -46 c9 -28 10 -45 3 -61 -14 -31 -6 -47 37 -75 55 -36 67 -40 182 -54
58 -7 136 -20 175 -28 38 -9 80 -16 91 -16 12 0 33 -9 47 -20 14 -11 32 -20
41 -20 9 0 16 -4 16 -10 0 -10 -34 -15 -75 -12 -106 8 -160 15 -215 27 -36 9
-112 26 -170 39 -62 13 -119 33 -140 46 l-35 24 -3 94 c-1 51 0 98 4 103 11
18 29 3 42 -37z m-788 -10 c36 -14 76 -36 90 -48 14 -12 50 -33 80 -46 30 -14
73 -39 95 -56 22 -18 54 -36 70 -40 17 -4 51 -26 77 -50 26 -24 52 -44 58 -44
7 0 39 -13 73 -28 66 -31 237 -76 275 -74 13 1 55 -7 95 -19 51 -14 124 -23
249 -29 98 -5 187 -14 199 -20 20 -11 175 -54 254 -70 22 -5 65 -14 95 -20 30
-7 93 -14 138 -17 69 -4 87 -2 103 12 10 10 24 15 32 12 7 -3 43 -2 79 2 37 4
76 4 87 0 10 -4 50 -12 88 -18 86 -13 195 -44 253 -71 l45 -21 -445 6 c-245 3
-481 5 -525 4 -44 0 -107 -1 -140 -1 -49 -1 -72 5 -121 31 -33 17 -84 34 -112
38 -37 4 -53 11 -57 23 -9 28 -97 51 -253 66 -79 7 -147 16 -152 19 -22 14
-124 35 -166 35 -41 0 -104 25 -104 41 0 13 -119 99 -138 99 -13 0 -23 9 -28
23 -9 29 -31 54 -74 83 -19 13 -55 38 -80 55 -38 27 -105 51 -204 74 -25 6
-33 15 -14 15 9 0 21 6 27 14 9 11 6 18 -16 36 -31 24 -27 23 67 -16z m-820 0
l55 -16 -25 -20 c-19 -15 -33 -18 -60 -14 -19 4 -59 9 -87 13 -53 6 -64 18
-41 41 17 17 95 15 158 -4z m970 6 c0 -5 -7 -7 -15 -4 -8 4 -15 8 -15 10 0 2
7 4 15 4 8 0 15 -4 15 -10z m2810 -56 c0 -10 -15 -14 -57 -14 -67 0 -101 14
-66 27 35 13 123 4 123 -13z m-2622 -34 c6 -11 30 -31 52 -45 22 -14 40 -32
40 -40 0 -19 -63 23 -93 62 -12 15 -26 31 -32 35 -6 5 -4 8 5 8 8 0 21 -9 28
-20z m3190 -64 l3 -38 -168 6 c-92 3 -207 9 -255 12 -83 6 -88 8 -88 28 0 13
3 25 6 28 3 3 116 5 252 5 l247 -2 3 -39z m-2976 -76 c7 0 26 -7 41 -15 16 -8
56 -17 88 -20 33 -3 68 -10 77 -15 34 -19 108 -49 132 -53 98 -19 188 -43 205
-54 18 -12 16 -13 -21 -13 -22 0 -60 6 -85 14 -24 7 -89 24 -144 36 -191 43
-286 78 -382 140 -42 27 -23 31 27 5 27 -14 55 -25 62 -25z m2717 20 c105 -6
189 -14 197 -21 7 -6 22 -8 33 -4 28 8 32 -15 29 -150 l-3 -110 -95 -8 c-123
-11 -405 5 -424 24 -6 5 -3 50 8 117 9 59 14 115 10 125 -11 31 3 50 34 43 15
-4 110 -11 211 -16z m-5054 -14 c74 -15 151 -40 170 -56 6 -5 43 -25 83 -44
39 -20 76 -45 82 -55 5 -11 34 -31 62 -45 61 -30 88 -49 88 -63 0 -12 -61 7
-123 39 -51 26 -141 57 -185 64 -18 3 -50 13 -70 22 -30 13 -79 17 -247 19
-253 3 -297 -5 -360 -71 -60 -62 -75 -84 -69 -100 6 -16 -73 -43 -171 -57 -33
-4 -89 -21 -125 -35 -57 -24 -80 -28 -180 -29 -166 -2 -168 -2 -175 -25 -6
-19 -15 -20 -160 -20 -180 0 -200 4 -151 31 28 15 56 19 141 18 57 0 109 2
114 5 5 4 51 9 103 12 107 7 174 32 250 95 41 34 177 99 207 99 6 0 11 4 11 8
0 4 17 14 38 21 20 7 55 25 77 40 54 38 101 60 160 78 28 8 73 21 100 30 109
34 222 41 330 19z m4111 -24 c21 -11 67 -45 102 -76 52 -46 76 -59 145 -80 45
-14 104 -27 130 -29 26 -3 49 -6 51 -8 3 -2 8 -20 13 -39 9 -33 12 -35 54 -37
120 -6 134 -9 143 -37 11 -30 32 -34 41 -7 7 24 84 34 162 20 95 -17 326 -28
340 -17 16 13 30 -59 15 -74 -9 -9 -273 -23 -327 -18 -5 0 -71 3 -145 5 -319
11 -433 32 -645 115 -67 26 -244 60 -311 60 -19 0 -34 6 -37 15 -5 12 -41 13
-236 9 -186 -4 -241 -2 -281 10 -27 8 -50 13 -50 11 0 -3 -11 0 -24 5 -21 7
-91 19 -217 35 -17 2 -36 8 -43 14 -7 6 -37 17 -67 25 -73 19 -90 27 -84 36 3
5 20 4 38 -1 68 -21 198 -30 279 -19 56 7 85 7 94 -1 29 -24 377 -27 432 -3
41 17 278 36 302 24 24 -12 131 -30 142 -24 18 11 -13 32 -73 49 -95 26 -234
19 -403 -19 -45 -11 -73 -13 -79 -7 -19 19 114 57 234 66 48 4 92 11 100 15
25 16 163 4 205 -18z m-1343 -49 c-7 -2 -19 -2 -25 0 -7 3 -2 5 12 5 14 0 19
-2 13 -5z m-2251 -45 c40 -17 80 -36 88 -42 8 -6 37 -22 65 -36 27 -14 74 -48
104 -77 40 -38 60 -51 75 -47 12 3 41 -2 66 -11 25 -9 97 -20 160 -25 82 -5
128 -14 160 -29 l45 -20 -185 3 c-121 1 -218 8 -280 20 -52 9 -111 19 -130 22
-41 5 -66 33 -74 84 -7 45 -42 78 -123 119 -68 34 -83 49 -62 62 18 11 8 14
91 -23z m-469 -97 c34 -10 96 -27 137 -37 68 -16 124 -39 157 -66 16 -12 132
-48 159 -48 19 0 73 -49 56 -51 -31 -4 -113 -6 -267 -6 -307 -1 -917 -10 -993
-16 -29 -2 -55 -1 -57 3 -5 8 187 50 225 50 27 0 110 74 110 98 0 6 7 27 16
45 16 34 17 35 118 48 120 17 249 9 339 -20z m3642 -61 c-48 -13 -89 -17 -135
-14 -171 13 -132 33 65 32 l140 0 -70 -18z m-5694 -152 c42 -22 43 -23 17 -26
-33 -4 -68 13 -68 33 0 19 -2 19 51 -7z m362 -83 c20 -4 37 -13 37 -20 0 -18
21 -24 43 -13 10 5 39 5 70 1 60 -10 333 -10 343 -1 3 4 14 2 24 -4 13 -8 60
-7 176 3 88 7 212 14 276 15 65 0 121 4 125 7 11 12 185 8 219 -5 18 -6 39 -8
50 -3 11 5 35 10 54 12 93 8 1013 -3 1058 -12 18 -4 45 -3 60 3 67 26 1061 38
1172 14 30 -6 139 -14 242 -17 173 -4 188 -3 211 15 24 19 38 19 363 14 639
-10 1778 -10 1802 0 16 7 33 6 53 -1 16 -6 41 -8 55 -4 14 3 63 3 107 -2 45
-4 136 -10 202 -12 107 -3 121 -5 133 -24 10 -15 21 -19 41 -15 27 6 28 4 33
-43 3 -26 7 -212 7 -413 1 -201 5 -375 8 -387 3 -13 4 -23 2 -24 -2 0 -224 -2
-494 -5 -269 -2 -528 -6 -575 -10 -123 -9 -322 -9 -675 0 -505 12 -826 10
-870 -4 -30 -10 -46 -10 -78 0 -43 13 -136 13 -532 4 -226 -5 -564 -7 -575 -4
-3 1 -45 3 -95 6 -49 2 -115 6 -145 8 -30 2 -185 4 -345 4 -159 0 -306 2 -325
3 -19 1 -42 1 -50 1 -226 -8 -345 -15 -385 -22 -68 -14 -184 -15 -340 -5 -71
5 -173 9 -225 8 -289 -2 -860 -12 -1019 -18 -284 -10 -564 -10 -612 0 -28 6
-26 -5 -29 160 -1 35 -2 211 -4 637 -1 82 3 131 10 138 23 23 301 33 397 15z"/>
<path d="M6855 10075 c-95 -36 -149 -70 -200 -126 -31 -35 -33 -41 -23 -64 16
-35 31 -31 62 14 15 22 42 47 59 56 18 8 48 24 67 35 19 11 43 20 53 20 10 0
28 5 40 11 32 18 228 12 267 -7 39 -20 117 -98 146 -146 21 -35 54 -158 54
-207 1 -14 -14 -56 -32 -93 -29 -57 -39 -69 -75 -83 -71 -28 -142 -93 -143
-132 0 -8 13 -13 34 -13 24 0 38 6 49 23 8 13 53 42 99 64 68 33 92 40 136 39
28 -1 52 1 52 5 0 4 17 5 38 3 66 -10 131 -37 166 -70 31 -29 38 -32 63 -22
23 9 37 7 78 -12 57 -25 95 -57 95 -78 0 -8 11 -36 24 -62 18 -37 25 -68 27
-127 4 -108 -14 -180 -62 -252 -43 -62 -46 -86 -16 -105 28 -16 68 37 100 133
52 153 28 342 -64 489 -31 51 -138 106 -187 96 -19 -3 -35 2 -55 20 -35 31
-105 45 -216 45 -46 0 -86 2 -89 5 -3 3 3 15 13 27 41 44 9 220 -64 359 -13
25 -51 71 -84 102 -69 65 -99 75 -245 81 -73 3 -91 0 -167 -28z"/>
<path d="M7826 8696 c-15 -9 -37 -16 -47 -16 -11 0 -36 -15 -55 -33 l-36 -33
16 -33 c20 -38 47 -38 56 -1 11 46 149 83 241 65 47 -9 61 16 23 42 -36 23
-160 29 -198 9z"/>
<path d="M7616 8448 c-24 -34 -21 -117 6 -168 21 -39 96 -110 116 -110 5 0 13
7 16 16 4 11 -10 30 -43 60 -43 39 -50 50 -56 96 -7 46 -5 54 15 70 28 23 23
52 -12 56 -18 2 -31 -4 -42 -20z"/>
<path d="M7412 7282 c-7 -5 -10 -16 -6 -26 10 -25 59 -18 59 9 0 22 -31 31
-53 17z"/>
<path d="M7334 7270 c-31 -12 -141 -127 -169 -177 -33 -60 -48 -151 -38 -233
7 -57 11 -65 30 -68 22 -3 23 -1 22 80 -1 137 10 171 76 246 46 52 90 92 107
98 21 6 25 49 6 57 -7 2 -22 1 -34 -3z"/>
<path d="M7785 7250 c-10 -16 4 -30 50 -50 55 -24 117 -105 140 -182 10 -34
22 -58 30 -58 19 0 8 101 -16 156 -39 87 -177 178 -204 134z"/>
<path d="M7370 7105 c0 -8 5 -15 10 -15 6 0 10 7 10 15 0 8 -4 15 -10 15 -5 0
-10 -7 -10 -15z"/>
<path d="M3082 13468 c-18 -18 -14 -31 18 -56 24 -19 33 -21 50 -12 28 15 27
60 -1 60 -11 0 -28 4 -38 10 -12 6 -22 5 -29 -2z"/>
<path d="M3704 13365 c-10 -8 -38 -15 -60 -15 -59 0 -64 -22 -11 -53 41 -25
67 -26 67 -2 0 6 9 20 20 30 35 31 20 67 -16 40z"/>
<path d="M3920 13353 c1 -10 14 -33 30 -52 29 -34 30 -35 51 -15 30 27 62 74
55 81 -3 3 -21 -2 -40 -12 -33 -18 -36 -18 -54 -2 -24 22 -42 22 -42 0z"/>
<path d="M2640 13333 c-13 -17 -32 -28 -48 -29 -38 -1 -41 -31 -5 -45 26 -10
30 -7 65 33 21 24 36 47 35 52 -6 20 -26 16 -47 -11z"/>
<path d="M2460 13216 c0 -8 -12 -17 -27 -21 -64 -16 -74 -55 -14 -55 36 0 40
3 55 40 20 49 20 50 1 50 -8 0 -15 -6 -15 -14z"/>
<path d="M4097 13210 c-14 -12 -40 -20 -61 -20 -44 0 -45 -11 -4 -50 35 -34
48 -34 64 -2 6 12 18 30 27 40 34 38 13 63 -26 32z"/>
<path d="M4301 13211 c-41 -7 -48 -21 -23 -45 18 -16 21 -15 61 10 63 42 52
51 -38 35z"/>
<path d="M3240 13070 c-11 -11 -30 -19 -42 -17 -31 3 -36 -29 -8 -55 l22 -20
27 28 c15 16 36 34 47 40 16 10 17 13 5 28 -18 21 -27 20 -51 -4z"/>
<path d="M2587 13011 c-3 -12 -1 -21 3 -21 15 0 23 21 12 32 -6 6 -11 2 -15
-11z"/>
<path d="M2581 12876 c-13 -14 -38 -26 -55 -28 -22 -2 -32 -9 -34 -23 -2 -18
3 -20 48 -21 27 -1 50 2 51 5 3 26 8 49 14 69 9 28 4 28 -24 -2z"/>
<path d="M2852 12837 c-17 -29 -24 -33 -51 -29 -23 3 -32 0 -37 -13 -9 -21 11
-35 53 -35 25 0 35 7 52 36 22 36 28 74 12 74 -5 0 -18 -15 -29 -33z"/>
<path d="M2697 12092 c-44 -28 -74 -110 -45 -128 7 -4 16 0 22 10 29 48 44 59
82 60 32 2 40 6 42 24 3 18 -4 26 -32 37 -19 8 -37 15 -38 14 -2 0 -15 -8 -31
-17z"/>
<path d="M2320 12006 c-30 -7 -68 -20 -85 -28 -16 -9 -49 -21 -72 -27 -23 -6
-48 -17 -55 -24 -7 -7 -27 -19 -45 -26 -31 -13 -183 -160 -183 -178 0 -5 -17
-28 -39 -50 -62 -67 -97 -128 -125 -216 -15 -45 -30 -89 -35 -97 -34 -62 -38
-285 -8 -425 31 -145 64 -209 176 -343 70 -86 97 -110 156 -143 82 -45 138
-53 133 -17 -2 17 -13 24 -58 32 -64 13 -90 31 -145 98 -22 27 -46 56 -53 64
-115 123 -172 291 -179 528 l-4 128 47 122 c48 121 93 196 120 196 7 0 20 15
28 34 21 49 97 142 128 156 15 6 34 21 44 31 24 26 185 104 259 125 75 21 167
23 223 5 53 -18 75 -4 42 27 -44 40 -159 52 -270 28z"/>
<path d="M4467 11973 c-103 -35 -132 -41 -148 -32 -25 13 -69 4 -69 -14 0 -18
21 -37 41 -37 11 0 19 -9 21 -22 4 -27 60 -57 93 -50 18 3 24 -1 27 -19 2 -16
11 -25 26 -27 18 -3 22 -10 22 -40 0 -20 4 -43 9 -51 16 -25 41 6 41 50 0 22
5 39 10 39 11 0 13 -55 4 -124 -5 -33 -11 -46 -23 -46 -9 0 -22 -4 -30 -9 -12
-8 -12 -13 3 -35 9 -14 24 -26 34 -26 26 0 60 59 68 118 3 28 8 52 11 52 2 0
14 -7 27 -15 20 -14 28 -13 79 4 31 11 57 18 57 16 0 -10 59 18 64 30 8 21
-19 43 -47 38 -20 -4 -24 -1 -23 19 1 25 -2 25 -71 14 -53 -8 -56 7 -8 30 25
12 35 23 35 40 0 36 -18 38 -54 6 -36 -32 -98 -57 -119 -49 -6 3 16 18 51 33
54 25 62 32 62 56 0 33 -14 43 -33 24 -8 -8 -50 -27 -93 -41 -86 -30 -166 -44
-149 -27 13 13 128 52 153 52 41 0 94 68 65 82 -5 2 -66 -15 -136 -39z m63
-143 c0 -5 -9 -10 -20 -10 -11 0 -20 5 -20 10 0 6 9 10 20 10 11 0 20 -4 20
-10z m180 -79 c0 -13 -28 -22 -35 -11 -3 4 1 11 7 13 20 8 28 8 28 -2z"/>
<path d="M4035 11828 c-33 -11 -65 -22 -72 -23 -18 -6 -46 -53 -40 -69 6 -16
100 -41 122 -32 8 3 15 14 15 25 0 27 29 42 53 29 14 -7 23 -6 34 5 12 12 12
18 -5 48 -10 19 -25 35 -33 36 -8 1 -41 -8 -74 -19z"/>
<path d="M4051 11681 c-8 -15 -7 -20 8 -24 26 -6 45 8 38 27 -9 22 -34 20 -46
-3z"/>
<path d="M3963 11464 c-48 -37 -41 -74 13 -74 48 0 97 79 58 94 -26 10 -38 7
-71 -20z"/>
<path d="M4124 11412 c-36 -2 -57 -9 -69 -22 -10 -11 -26 -20 -35 -20 -25 0
-47 -45 -30 -65 18 -22 44 -19 77 9 15 13 45 31 65 39 34 14 67 52 51 59 -5 2
-31 2 -59 0z"/>
<path d="M4062 11288 c-16 -16 -15 -48 2 -48 22 0 60 35 52 48 -9 15 -39 15
-54 0z"/>
<path d="M2197 10403 c-13 -12 -7 -41 9 -47 23 -9 24 -8 24 13 0 21 -23 45
-33 34z"/>
<path d="M2256 10263 c-14 -28 -8 -66 20 -115 11 -20 126 -108 170 -131 64
-33 172 -50 273 -43 52 4 98 9 102 12 5 3 9 17 9 31 0 24 -2 25 -37 17 -115
-27 -316 6 -375 61 -15 14 -31 25 -36 25 -24 0 -92 97 -92 132 0 38 -17 43
-34 11z"/>
<path d="M2874 10019 c-3 -6 -8 -30 -10 -52 -2 -23 -7 -67 -10 -98 -5 -53 -4
-59 25 -92 17 -19 31 -38 31 -42 0 -11 51 -48 95 -69 60 -27 143 -45 248 -52
85 -6 101 -4 153 17 33 12 68 31 80 41 29 25 51 95 36 110 -16 16 -78 -14 -87
-41 -3 -11 -26 -32 -51 -46 -43 -26 -51 -27 -147 -22 -161 7 -238 38 -302 121
-31 41 -36 54 -31 81 4 18 13 38 20 44 12 10 11 20 -7 61 -21 51 -30 59 -43
39z"/>
<path d="M5406 10824 c-4 -10 -2 -22 3 -27 12 -12 54 10 48 26 -6 19 -44 20
-51 1z"/>
<path d="M5493 10700 c-27 -11 -29 -23 -8 -40 17 -14 51 -5 59 16 12 32 -8 41
-51 24z"/>
<path d="M5569 10584 c-11 -13 -10 -27 4 -82 16 -65 29 -165 44 -347 7 -81 10
-90 28 -90 18 0 20 8 23 88 1 49 -2 114 -9 145 -6 31 -15 82 -19 112 -5 30
-12 76 -15 102 -7 43 -6 47 15 50 13 1 25 9 28 17 3 10 -3 12 -27 6 -20 -4
-31 -3 -31 4 0 16 -26 13 -41 -5z"/>
<path d="M5221 10397 c-20 -20 -12 -134 19 -282 12 -58 16 -251 6 -310 -7 -45
4 -71 27 -62 15 6 27 74 28 162 1 43 -16 217 -31 325 -5 36 -10 88 -10 116 0
53 -16 74 -39 51z"/>
<path d="M5334 10326 c-8 -21 3 -36 27 -36 15 0 20 6 17 22 -4 27 -35 37 -44
14z"/>
<path d="M5347 10224 c-10 -10 -9 -42 2 -48 18 -11 42 6 39 28 -3 21 -28 33
-41 20z"/>
<path d="M5363 10113 c-7 -2 -13 -16 -13 -30 0 -20 4 -24 23 -21 16 2 22 10
22 27 0 25 -11 33 -32 24z"/>
<path d="M5173 9988 c-16 -21 -4 -305 13 -312 25 -10 32 28 29 163 -2 100 -6
137 -17 148 -12 11 -17 12 -25 1z"/>
<path d="M5345 9980 c-8 -25 1 -40 24 -40 28 0 46 26 31 45 -18 21 -48 19 -55
-5z"/>
<path d="M5913 9993 c-15 -6 -17 -29 -3 -38 18 -11 60 7 60 26 0 19 -27 25
-57 12z"/>
<path d="M3869 9801 c-42 -33 -61 -107 -57 -218 3 -88 6 -101 30 -134 15 -19
35 -53 44 -74 9 -22 29 -59 45 -82 16 -23 38 -62 48 -86 30 -70 71 -101 71
-53 0 28 -32 132 -55 175 -10 19 -17 68 -21 129 -10 198 -36 280 -78 249 -16
-12 -17 -19 -7 -66 13 -63 15 -161 2 -161 -14 0 -19 26 -22 105 -3 108 -1 121
27 154 25 30 30 71 8 78 -6 2 -22 -5 -35 -16z"/>
<path d="M5122 9428 c-18 -18 -15 -36 9 -49 26 -14 42 0 37 32 -3 27 -27 36
-46 17z"/>
<path d="M5337 9292 c-21 -23 -22 -71 -2 -78 27 -11 61 5 74 33 11 25 10 29
-9 45 -28 23 -43 23 -63 0z"/>
<path d="M5215 9251 c-50 -21 -69 -72 -34 -94 30 -19 67 0 78 39 16 57 2 74
-44 55z"/>
<path d="M5730 9157 c0 -39 46 -94 92 -111 106 -40 129 -11 28 34 -49 22 -68
36 -77 58 -16 38 -43 50 -43 19z"/>
<path d="M5416 9093 c-10 -25 10 -37 57 -34 21 1 23 37 1 45 -28 11 -52 6 -58
-11z"/>
<path d="M5256 9034 c-13 -34 46 -64 84 -44 26 14 16 36 -22 49 -42 15 -55 14
-62 -5z"/>
<path d="M5100 8716 c0 -24 26 -38 40 -22 6 9 9 20 5 26 -9 15 -45 12 -45 -4z"/>
<path d="M5220 8615 c0 -21 5 -25 29 -25 37 0 50 19 26 37 -31 22 -55 16 -55
-12z"/>
<path d="M4952 8568 c2 -13 8 -23 13 -23 6 0 11 10 13 23 2 15 -2 22 -13 22
-11 0 -15 -7 -13 -22z"/>
<path d="M4932 8458 c-15 -15 -3 -38 19 -38 12 0 19 7 19 19 0 22 -23 34 -38
19z"/>
<path d="M5245 8440 c-3 -4 -2 -15 1 -24 5 -13 9 -14 20 -5 8 6 14 15 14 19 0
12 -29 20 -35 10z"/>
<path d="M4890 8360 c0 -21 34 -40 71 -40 35 0 17 31 -26 46 -22 7 -41 14 -42
14 -2 0 -3 -9 -3 -20z"/>
<path d="M5342 8308 c2 -15 10 -23 23 -23 30 0 27 39 -3 43 -20 3 -23 0 -20
-20z"/>
<path d="M4835 8291 c-11 -19 8 -37 63 -59 71 -27 82 -27 82 -2 0 11 -2 20 -4
20 -2 0 -33 11 -69 25 -37 13 -69 21 -72 16z"/>
<path d="M4754 8245 c-9 -22 12 -43 49 -51 18 -3 37 -10 42 -14 16 -13 68 -16
71 -5 6 17 -9 29 -69 58 -65 31 -85 33 -93 12z"/>
<path d="M4000 8185 c-16 -19 -4 -48 22 -53 24 -5 29 24 10 49 -17 20 -19 20
-32 4z"/>
<path d="M3866 8003 c-11 -11 -6 -23 9 -23 8 0 15 4 15 9 0 13 -16 22 -24 14z"/>
<path d="M3820 7890 c0 -21 4 -30 13 -27 6 2 12 14 12 27 0 13 -6 25 -12 28
-9 2 -13 -7 -13 -28z"/>
<path d="M3759 7853 c-6 -16 -21 -47 -32 -70 -20 -41 -21 -44 -4 -60 16 -16
19 -16 45 -1 25 15 27 22 30 87 2 59 0 71 -13 71 -8 0 -20 -12 -26 -27z"/>
<path d="M5296 7841 c-5 -8 17 -113 44 -212 6 -20 10 -47 10 -60 0 -13 11 -58
24 -99 20 -62 29 -77 52 -86 16 -7 34 -10 41 -7 19 8 16 31 -6 38 -13 4 -17
12 -13 30 3 18 0 25 -12 25 -21 0 -31 24 -56 145 -12 55 -23 109 -25 119 -3
11 -12 41 -21 68 -15 46 -27 58 -38 39z"/>
<path d="M3736 7674 c-8 -21 -8 -20 10 -38 21 -21 31 -20 39 4 12 37 -35 70
-49 34z"/>
<path d="M4411 7518 c-16 -40 -41 -194 -41 -251 0 -76 64 -355 87 -378 22 -22
34 2 30 55 -2 29 -6 57 -9 62 -4 5 -18 53 -32 107 -30 111 -33 205 -11 290 20
77 20 137 0 137 -9 0 -19 -10 -24 -22z"/>
<path d="M4003 7403 c-8 -19 22 -43 54 -43 26 0 29 9 11 32 -19 23 -58 30 -65
11z"/>
<path d="M4693 7345 c-9 -25 4 -42 37 -47 38 -6 69 12 48 29 -7 5 -28 15 -46
21 -27 9 -34 9 -39 -3z"/>
<path d="M5435 7320 c-35 -3 -50 -9 -50 -20 0 -11 14 -16 49 -18 67 -4 98 4
94 26 -4 18 -16 20 -93 12z"/>
<path d="M3996 7304 c-8 -20 -1 -30 24 -37 26 -7 34 7 20 33 -13 24 -35 26
-44 4z"/>
<path d="M4680 7240 c-7 -4 -10 -16 -8 -26 4 -26 85 -33 94 -9 4 9 4 18 1 21
-11 11 -75 21 -87 14z"/>
<path d="M4007 7224 c-15 -15 -7 -45 11 -42 9 2 17 12 17 22 0 20 -16 31 -28
20z"/>
<path d="M5420 7161 c0 -14 10 -20 43 -26 86 -14 143 -15 162 -1 33 24 8 36
-66 33 -39 -2 -72 0 -75 5 -3 4 -18 8 -35 8 -22 0 -29 -5 -29 -19z"/>
<path d="M4664 7155 c-21 -15 -7 -45 20 -45 13 0 26 3 30 7 4 4 17 8 29 8 13
0 22 6 22 15 0 19 -79 31 -101 15z"/>
<path d="M3967 7137 c-7 -19 29 -52 65 -61 21 -5 30 -2 38 14 8 16 6 22 -13
35 -36 23 -83 30 -90 12z"/>
<path d="M3981 7046 c-15 -18 5 -39 51 -55 42 -14 58 -9 58 19 0 32 -88 61
-109 36z"/>
<path d="M4590 6837 c0 -35 12 -47 47 -47 19 0 47 -7 63 -16 34 -21 83 -12 78
14 -8 39 -188 87 -188 49z"/>
<path d="M3277 5643 c-3 -5 -12 -35 -22 -68 -9 -33 -26 -79 -37 -102 -33 -66
-7 -122 35 -75 9 10 28 49 42 87 13 38 29 73 35 79 11 11 13 46 4 70 -6 16
-49 22 -57 9z"/>
<path d="M3723 5599 c-36 -10 -44 -40 -20 -72 10 -15 17 -15 44 -5 43 16 100
-4 152 -53 51 -50 58 -85 36 -188 -16 -70 -24 -88 -70 -143 -45 -55 -60 -66
-120 -87 -38 -14 -93 -25 -124 -25 -63 -1 -79 -21 -42 -53 25 -21 38 -78 22
-97 -6 -7 -9 -21 -5 -30 7 -19 -20 -22 -62 -6 -29 11 -127 -4 -151 -23 -17
-12 -16 -47 1 -69 17 -23 33 -23 41 1 8 27 80 36 127 17 45 -19 96 -69 104
-103 4 -13 4 -48 1 -77 -10 -95 23 -113 66 -36 24 43 27 56 21 102 -9 66 -24
89 -81 127 l-46 30 32 18 c37 22 56 66 40 95 -14 26 -6 31 69 48 47 10 67 21
110 63 94 91 134 169 146 287 13 127 -59 248 -164 275 -62 17 -81 17 -127 4z"/>
<path d="M1472 3355 c-45 -44 -46 -46 -28 -60 11 -8 22 -15 25 -15 3 1 28 21
55 45 33 29 47 49 43 59 -11 28 -47 17 -95 -29z"/>
<path d="M4280 4012 c-48 -24 -61 -64 -32 -95 27 -29 27 -37 2 -79 -11 -19
-24 -64 -29 -102 -9 -62 -8 -72 16 -126 20 -47 23 -65 16 -87 -6 -15 -7 -36
-4 -46 7 -19 63 -57 86 -57 21 0 47 56 43 93 -3 29 -19 45 -63 60 -6 2 -6 9 1
18 18 23 36 166 29 230 -6 54 -5 61 17 78 22 19 23 21 8 62 -21 59 -46 74 -90
51z m34 -73 c-3 -5 -10 -7 -15 -3 -5 3 -7 10 -3 15 3 5 10 7 15 3 5 -3 7 -10
3 -15z m-20 -226 c-17 -50 -31 -38 -20 18 9 44 12 48 20 29 6 -13 6 -31 0 -47z"/>
<path d="M2975 3236 c-33 -7 -51 -17 -53 -29 -3 -13 3 -17 27 -17 47 0 82 -20
79 -44 -4 -26 20 -28 36 -4 8 13 8 23 -2 38 -18 30 -5 44 24 26 13 -9 26 -16
29 -16 12 0 4 21 -15 40 -22 22 -51 24 -125 6z"/>
<path d="M2985 3140 c-4 -6 -3 -16 3 -22 6 -6 12 -6 17 2 4 6 3 16 -3 22 -6 6
-12 6 -17 -2z"/>
<path d="M3352 2654 c2 -11 8 -18 13 -16 15 3 12 25 -3 30 -9 3 -13 -2 -10
-14z"/>
<path d="M8055 2391 c-3 -5 -1 -12 5 -16 5 -3 10 1 10 9 0 18 -6 21 -15 7z"/>
<path d="M7754 2105 c-3 -8 -1 -30 6 -50 9 -27 17 -35 36 -35 46 0 81 59 52
88 -17 17 -87 15 -94 -3z"/>
<path d="M7333 1445 c-59 -25 -86 -96 -59 -158 10 -25 21 -37 35 -37 11 0 25
-9 31 -20 8 -14 21 -20 46 -20 24 0 53 -11 85 -32 47 -30 49 -33 49 -77 0 -26
-7 -56 -16 -69 -13 -20 -24 -22 -95 -22 l-79 0 0 43 c0 53 -11 70 -41 65 -21
-3 -25 -10 -29 -57 -5 -44 -11 -58 -38 -82 -18 -16 -32 -32 -32 -37 0 -4 24
-8 53 -8 28 0 112 -2 185 -5 103 -4 135 -3 143 8 6 7 17 13 24 13 29 0 61 169
35 185 -5 3 -10 19 -10 36 0 16 -4 29 -9 29 -5 0 -13 9 -16 21 -4 11 -23 28
-43 36 -21 8 -43 20 -51 26 -8 7 -40 11 -75 9 -81 -3 -93 5 -78 56 7 24 21 42
34 48 32 14 111 -6 134 -33 11 -12 28 -23 39 -25 17 -3 19 3 21 50 1 60 -12
75 -58 61 -16 -4 -35 -6 -41 -4 -41 12 -115 13 -144 0z"/>
<path d="M6270 1441 c-40 -7 -53 -36 -21 -46 26 -8 32 -32 29 -115 -1 -36 2
-113 6 -172 7 -100 6 -108 -13 -127 -12 -12 -21 -26 -21 -31 0 -12 108 -9 128
4 8 5 12 43 12 130 0 116 1 124 20 129 30 8 43 -11 75 -106 37 -112 87 -166
158 -172 59 -5 62 11 11 62 -35 35 -94 146 -94 177 0 8 13 34 29 58 31 47 51
99 51 133 0 26 -36 61 -70 69 -39 9 -261 14 -300 7z m215 -42 c5 -5 10 -38 10
-74 1 -53 -2 -65 -14 -66 -9 0 -25 -2 -36 -4 -47 -10 -55 2 -55 75 0 55 3 71
18 79 18 10 60 5 77 -10z"/>
<path d="M6753 1443 c-18 -7 -16 -33 1 -33 8 0 18 -5 22 -11 8 -14 15 -396 7
-416 -3 -7 -11 -13 -19 -13 -18 0 -18 -14 0 -29 21 -18 224 -8 264 13 17 9 37
16 45 16 14 0 64 51 89 91 9 14 19 59 23 101 18 187 -71 269 -295 273 -52 1
-102 4 -110 8 -8 3 -21 3 -27 0z m141 -82 c3 -4 28 -11 54 -15 76 -10 103 -51
104 -160 1 -68 -2 -78 -37 -134 -26 -42 -46 -64 -68 -71 -38 -14 -84 -14 -92
-1 -8 13 -16 371 -9 382 7 11 41 10 48 -1z"/>
<path d="M4967 1434 c-2 -3 -37 -7 -77 -9 -40 -2 -77 -8 -83 -14 -20 -20 2
-38 55 -44 63 -8 73 -18 87 -98 5 -33 22 -85 36 -114 14 -30 25 -59 25 -66 0
-28 44 -135 63 -151 22 -21 63 -23 81 -5 6 6 33 59 59 117 25 58 50 106 55
108 9 3 112 -160 112 -177 0 -21 53 -71 76 -71 28 0 37 15 74 124 15 45 46
135 69 201 22 66 41 121 41 122 0 2 16 9 35 17 24 10 35 22 35 35 0 18 -7 21
-47 23 -114 4 -149 -8 -120 -40 29 -32 20 -76 -52 -235 -25 -55 -48 -60 -65
-12 -6 17 -30 58 -54 93 -34 50 -42 69 -37 90 12 51 30 65 98 71 4 1 7 8 7 16
0 13 -19 15 -112 15 -62 0 -140 1 -173 3 -47 2 -60 -1 -63 -13 -2 -10 10 -20
31 -28 27 -10 42 -26 66 -71 17 -32 31 -65 31 -73 0 -8 -12 -39 -26 -68 -14
-30 -30 -65 -35 -78 -15 -39 -31 -20 -49 57 -10 40 -32 100 -49 133 -17 34
-31 74 -31 89 0 21 -7 32 -29 43 -16 9 -31 13 -34 10z"/>
<path d="M5906 1429 c-73 -11 -118 -43 -151 -109 -62 -123 -54 -241 21 -317
23 -24 49 -43 58 -43 9 0 27 -6 39 -14 51 -34 147 -37 205 -7 20 11 55 38 76
60 36 37 40 47 44 102 6 77 -12 158 -49 228 -21 39 -26 58 -19 71 13 25 0 33
-22 14 -16 -16 -21 -15 -69 5 -28 11 -57 20 -63 20 -6 -1 -37 -5 -70 -10z
m107 -72 c51 -22 69 -69 64 -165 -3 -46 -11 -91 -21 -110 -9 -18 -15 -36 -12
-41 11 -17 -22 -43 -62 -51 -53 -9 -101 12 -121 55 -9 18 -15 64 -15 115 -1
68 4 97 23 143 13 31 31 62 40 67 18 12 55 7 104 -13z"/>
<path d="M835 1393 c3 -21 6 -132 9 -246 4 -153 2 -214 -7 -228 -10 -16 -9
-22 3 -30 17 -11 160 -3 174 11 5 5 1 18 -8 31 -12 17 -16 47 -16 111 l0 88
44 0 c48 0 89 12 111 33 7 6 23 19 35 27 36 24 52 74 40 119 -5 21 -19 46 -30
56 -31 28 -120 44 -223 39 -76 -4 -96 -2 -107 11 -20 25 -29 17 -25 -22z m243
-60 c2 -15 8 -20 18 -16 21 8 13 -37 -15 -94 -21 -43 -47 -54 -78 -35 -13 8
-17 118 -7 155 9 28 78 20 82 -10z"/>
<path d="M2330 1422 c-38 -6 -44 -18 -22 -40 22 -22 26 -75 23 -343 l-1 -146
32 -14 c29 -12 132 -14 278 -5 24 1 25 4 30 86 4 68 2 87 -10 97 -8 7 -18 13
-22 13 -16 0 -38 -34 -40 -63 0 -18 -2 -36 -3 -42 -2 -5 -3 -16 -4 -22 -1 -9
-18 -13 -52 -13 -78 0 -99 24 -99 115 0 42 5 76 12 83 20 20 46 13 60 -15 9
-19 22 -29 41 -31 26 -3 27 -1 28 40 3 71 -2 113 -15 120 -23 16 -44 7 -55
-22 -8 -24 -16 -30 -40 -30 l-31 0 0 80 c0 90 8 100 77 100 46 0 59 -8 72 -43
22 -58 77 -11 64 56 -4 20 -13 28 -37 32 -41 7 -254 12 -286 7z"/>
<path d="M4660 1420 c-14 -4 -51 -8 -82 -9 -31 -1 -60 -5 -63 -11 -3 -5 -25
-14 -48 -21 -53 -14 -74 -33 -88 -79 -14 -47 7 -94 48 -105 15 -3 38 -16 51
-28 15 -14 37 -21 64 -22 38 -1 43 -4 54 -36 7 -18 13 -55 13 -82 1 -42 -2
-49 -25 -57 -35 -14 -104 -2 -132 23 -12 11 -27 37 -32 57 -15 55 -33 74 -62
67 -23 -6 -26 -12 -31 -79 -3 -40 -8 -82 -12 -93 -3 -11 1 -29 9 -40 14 -19
15 -19 44 -2 29 17 32 17 64 -2 23 -14 54 -21 104 -22 39 -1 75 1 80 4 5 2 30
8 56 11 79 11 86 17 90 86 5 78 -3 108 -39 154 -49 62 -96 86 -172 86 -60 0
-60 0 -56 28 2 15 7 44 10 66 l6 38 57 -7 c56 -6 82 -23 82 -52 0 -7 9 -13 19
-13 11 0 23 -4 26 -10 16 -27 25 -3 25 69 0 63 -3 80 -16 85 -9 3 -16 6 -17 5
-1 -1 -13 -5 -27 -9z"/>
<path d="M1363 1403 c-51 -5 -56 -24 -12 -40 37 -14 37 -23 -6 -178 -15 -55
-34 -131 -42 -170 -15 -73 -27 -95 -49 -95 -17 0 -46 -29 -39 -41 6 -9 168 -4
185 6 19 12 10 25 -16 25 -23 0 -26 3 -21 28 3 15 10 52 15 82 6 30 15 68 21
83 11 27 13 28 58 21 27 -3 50 -8 52 -10 10 -9 62 -149 67 -184 7 -42 38 -65
67 -49 11 7 24 6 38 -1 12 -7 32 -9 47 -4 15 4 36 7 47 8 21 1 25 6 25 32 0
13 -7 15 -37 11 -21 -4 -43 -3 -50 1 -9 6 -51 100 -58 132 -1 3 -11 27 -23 53
-12 27 -22 52 -22 57 0 23 -65 197 -79 212 -17 18 -98 28 -168 21z m119 -205
c3 -29 0 -33 -25 -36 -42 -5 -45 22 -10 118 7 20 32 -38 35 -82z"/>
<path d="M1915 1389 c-74 -40 -97 -62 -121 -113 -29 -63 -31 -123 -4 -202 24
-70 59 -108 142 -153 53 -28 65 -30 150 -29 51 0 98 5 104 9 8 7 9 24 3 56 -5
26 -7 61 -4 78 8 46 -6 59 -77 66 -35 3 -70 9 -78 12 -8 4 -21 3 -29 -2 -12
-8 -12 -14 -1 -41 18 -45 -1 -62 -34 -31 -49 46 -57 140 -19 238 13 37 21 44
57 54 49 13 67 4 78 -39 9 -32 44 -60 58 -45 4 4 10 33 14 64 8 78 -8 91 -117
96 -70 4 -88 1 -122 -18z"/>
<path d="M3502 1363 c-46 -22 -57 -55 -37 -111 10 -32 12 -49 4 -58 -7 -9 -3
-19 16 -38 22 -22 25 -34 25 -93 0 -75 -24 -153 -59 -189 -31 -32 -26 -39 24
-42 39 -1 47 2 68 31 14 17 34 55 46 82 19 42 21 60 16 118 l-7 67 39 0 c50 0
78 19 69 47 -9 27 -49 37 -94 22 -31 -10 -37 -9 -49 7 -7 10 -13 26 -13 35 0
10 -4 21 -10 24 -5 3 -10 13 -10 21 0 11 5 12 20 4 11 -5 29 -15 40 -20 40
-20 55 14 21 44 -11 10 -21 28 -23 40 -4 27 -42 32 -86 9z"/>
<path d="M3210 1153 c-44 -31 -59 -57 -60 -98 0 -51 36 -106 85 -129 20 -10
40 -28 45 -42 15 -39 58 -32 105 16 34 35 39 46 43 99 4 53 1 64 -24 99 -37
52 -52 61 -116 67 -41 4 -59 1 -78 -12z m123 -53 c4 -4 10 -23 14 -44 11 -69
-36 -112 -85 -80 -20 13 -24 22 -19 53 3 20 10 48 16 64 9 24 15 27 38 21 16
-4 32 -10 36 -14z"/>
<path d="M7855 1014 c-11 -12 -14 -25 -10 -43 10 -41 24 -52 47 -40 10 6 32 7
49 4 22 -5 29 -3 29 9 0 23 -20 70 -33 78 -21 13 -65 9 -82 -8z"/>
<path d="M3376 852 c-3 -6 -1 -14 5 -17 15 -10 25 3 12 16 -7 7 -13 7 -17 1z"/>
<path d="M610 3410 c0 -5 5 -10 10 -10 6 0 10 5 10 10 0 6 -4 10 -10 10 -5 0
-10 -4 -10 -10z"/>
</g>
</svg>
