<?xml version="1.0" standalone="no"?>
<!DOCTYPE svg PUBLIC "-//W3C//DTD SVG 20010904//EN"
 "http://www.w3.org/TR/2001/REC-SVG-20010904/DTD/svg10.dtd">
<svg version="1.0" xmlns="http://www.w3.org/2000/svg"
 width="878.000000pt" height="1402.000000pt" viewBox="0 0 878.000000 1402.000000"
 preserveAspectRatio="xMidYMid meet">
<metadata>
Created by potrace 1.16, written by Peter Selinger 2001-2019
</metadata>
<g transform="translate(0.000000,1402.000000) scale(0.100000,-0.100000)"
fill="#000000" stroke="none">
<path d="M3310 13915 c0 -8 7 -15 16 -15 14 0 14 3 4 15 -7 8 -14 15 -16 15
-2 0 -4 -7 -4 -15z"/>
<path d="M634 13656 c-68 -25 -85 -65 -75 -172 4 -43 3 -103 -2 -134 -5 -31
-6 -571 -2 -1260 4 -663 8 -1491 10 -1840 2 -376 7 -658 13 -692 6 -33 7 -81
3 -115 -13 -96 -3 -528 19 -843 6 -85 11 -175 11 -200 -1 -554 -11 -1481 -16
-1595 -13 -298 -14 -341 -4 -395 5 -31 11 -319 13 -640 7 -876 19 -1610 28
-1735 0 -5 -2 -210 -6 -455 -4 -273 -3 -458 3 -478 7 -23 6 -48 -4 -85 -8 -31
-10 -56 -4 -63 10 -13 12 -139 6 -542 -3 -175 -1 -305 4 -308 5 -3 6 -10 3
-16 -12 -18 -16 -110 -16 -343 1 -181 7 -497 12 -560 1 -5 -4 -102 -10 -215
-6 -113 -11 -209 -11 -215 -2 -69 18 -213 33 -230 6 -6 101 -11 241 -12 238
-1 385 -6 657 -18 220 -10 571 -10 665 -1 90 9 82 9 150 0 54 -7 83 10 72 40
-11 28 -110 35 -482 35 -203 0 -491 3 -640 7 -148 4 -348 7 -444 8 l-174 1 -2
855 c-1 470 -5 891 -9 935 -8 71 -6 83 11 104 20 25 15 24 216 22 49 -1 86 -5
83 -10 -3 -4 -62 -11 -132 -14 -116 -5 -159 -15 -140 -34 4 -4 89 -8 189 -9
187 -2 503 -13 534 -18 10 -2 59 -7 108 -11 158 -11 179 -14 230 -23 28 -5 57
-10 65 -10 91 -4 216 -15 259 -23 29 -5 57 -6 62 -4 4 3 187 8 406 10 482 5
751 12 858 22 108 11 319 7 430 -7 90 -11 255 -14 287 -4 31 9 56 -29 63 -101
6 -57 5 -73 -12 -104 -15 -27 -18 -43 -12 -65 7 -24 3 -36 -19 -65 -42 -54
-58 -83 -66 -116 -9 -36 -76 -103 -131 -130 -52 -26 -185 -159 -209 -210 -11
-22 -22 -42 -25 -45 -3 -3 -16 -26 -29 -52 -12 -27 -32 -68 -44 -93 -17 -36
-19 -47 -8 -60 24 -29 135 -17 227 26 23 10 53 18 65 17 13 -1 41 5 63 12 22
8 48 13 57 11 10 -1 39 7 64 19 26 11 49 18 52 16 2 -3 49 18 104 46 102 52
149 89 186 149 33 53 72 83 137 104 67 21 120 57 140 95 16 31 8 116 -19 200
-35 108 -38 122 -31 180 7 61 0 86 -38 127 l-20 23 24 8 c13 5 64 8 114 7 49
-2 140 -3 202 -4 111 -1 113 -1 148 -32 20 -18 43 -45 51 -61 14 -27 68 -83
158 -165 21 -20 46 -33 61 -33 33 0 116 -20 131 -32 7 -5 59 -8 116 -7 64 1
113 -3 126 -10 12 -7 28 -9 34 -5 7 5 26 7 42 6 16 -2 40 5 53 14 32 21 26 57
-22 130 -19 29 -35 59 -35 66 0 22 -39 50 -114 83 -62 27 -70 34 -83 70 -7 22
-22 47 -33 56 -10 9 -27 36 -36 60 -10 24 -26 56 -36 71 -10 14 -18 38 -18 52
0 15 -8 31 -20 38 -13 9 -20 24 -20 46 0 25 -6 35 -25 44 -15 7 -24 18 -23 27
2 12 27 18 103 27 124 14 209 50 294 126 33 29 79 68 103 87 24 18 71 60 106
92 34 32 69 59 77 59 8 0 21 11 30 23 8 13 37 38 63 55 26 17 71 54 100 82 53
50 136 95 196 106 16 3 35 9 42 14 20 18 187 41 239 35 150 -20 286 -78 420
-180 81 -61 275 -248 275 -265 0 -32 103 -101 212 -141 70 -25 94 -29 184 -30
57 0 108 2 114 6 12 7 18 -21 23 -112 4 -74 -4 -91 -34 -72 -8 5 -48 9 -89 9
-41 0 -98 6 -126 14 -64 17 -238 99 -267 126 -11 11 -25 20 -30 20 -19 0 -100
66 -200 163 -165 158 -256 209 -471 266 -69 18 -190 -14 -356 -93 -124 -60
-170 -97 -368 -299 -45 -47 -101 -94 -125 -106 -23 -12 -64 -37 -90 -56 -54
-38 -95 -52 -177 -61 -114 -11 -122 -13 -118 -37 3 -19 9 -22 48 -22 106 0
206 31 298 93 15 10 50 34 77 52 28 18 75 57 105 87 30 29 103 99 161 155 58
57 121 111 140 120 207 102 331 141 395 122 16 -4 34 -9 39 -9 6 -1 17 -4 25
-7 8 -3 40 -13 70 -23 71 -23 128 -55 215 -122 135 -104 145 -115 145 -145 0
-23 4 -27 23 -26 24 2 192 -103 216 -135 7 -10 19 -16 26 -13 7 2 26 -4 43
-14 50 -30 221 -80 297 -85 87 -7 97 -7 115 -3 12 2 15 -10 15 -67 l0 -70
-435 -4 c-239 -2 -496 -4 -570 -5 -74 -1 -187 4 -250 10 -63 6 -137 10 -164 9
-33 -2 -45 0 -38 7 36 36 281 62 323 35 25 -16 168 -42 177 -32 20 20 -52 45
-221 77 -70 13 -164 -3 -327 -56 -85 -27 -126 -35 -212 -38 -60 -3 -108 -2
-108 1 0 3 37 24 81 46 45 22 98 56 119 75 104 95 197 131 334 131 86 1 99 -2
169 -35 41 -20 78 -36 82 -36 4 0 42 -21 84 -46 87 -53 168 -84 220 -84 20 0
45 -6 56 -14 23 -15 176 -33 160 -18 -5 5 -67 20 -136 35 -120 24 -229 63
-244 87 -3 5 -21 17 -38 25 -18 8 -39 19 -47 24 -59 37 -141 80 -173 91 -41
13 -175 16 -228 5 -112 -23 -141 -38 -280 -144 -90 -68 -169 -111 -207 -111
-15 0 -26 -7 -29 -20 -6 -23 -17 -23 -319 -20 -153 2 -172 0 -178 -15 -14 -38
5 -41 246 -39 363 1 710 14 735 26 18 9 27 8 40 -3 30 -25 211 -28 953 -17
200 2 378 2 395 -2 24 -4 30 -11 30 -30 l0 -25 -325 -3 c-179 -2 -698 -5
-1155 -6 -456 -1 -836 -3 -842 -4 -19 -3 -15 -40 5 -46 9 -2 251 -5 537 -4
286 0 606 -1 712 -2 106 -1 197 1 202 5 6 3 19 2 28 -3 12 -6 41 -4 83 5 62
13 236 16 630 10 l125 -2 0 -175 c0 -406 -16 -1654 -22 -1663 -3 -5 -22 -6
-43 -3 -21 3 -92 8 -159 11 -67 3 -133 10 -146 15 -32 12 -545 -3 -567 -16 -8
-5 -77 -5 -623 2 -187 3 -394 6 -460 7 -66 1 -138 0 -160 -1 -22 -1 -175 -3
-340 -4 -165 -1 -325 -2 -355 -3 -209 -6 -267 -5 -366 4 -178 18 -720 29
-1019 22 -82 -2 -238 1 -345 8 -151 9 -206 9 -245 -1 -59 -14 -72 -14 -146 -4
-32 5 -87 3 -130 -3 -41 -5 -128 -13 -194 -16 -66 -3 -121 -7 -122 -9 -2 -1
-6 -17 -9 -36 l-7 -33 104 8 c164 13 220 13 226 -1 7 -19 42 -24 57 -8 18 18
27 18 20 1 -6 -16 62 -22 71 -7 10 15 42 12 49 -5 4 -11 13 -14 33 -9 16 4 29
11 31 15 2 5 10 3 17 -5 10 -10 45 -12 142 -10 70 2 157 3 193 4 36 1 70 6 77
12 7 6 13 7 13 3 0 -4 6 -3 13 3 14 11 57 -2 57 -18 0 -5 8 -10 18 -10 15 1
15 2 -2 15 -29 22 -11 30 36 18 25 -7 49 -8 58 -3 35 19 436 34 447 17 2 -4
13 -2 24 4 11 6 32 8 47 5 15 -3 70 -8 122 -11 52 -2 167 -9 255 -14 88 -5
205 -8 260 -5 55 2 127 3 160 3 74 -3 89 -2 195 4 64 3 90 1 107 -10 17 -12
26 -13 37 -4 17 15 304 25 320 12 8 -7 20 -6 37 2 27 14 292 15 464 2 117 -9
135 -9 235 -5 47 2 89 -2 113 -11 24 -8 41 -10 45 -4 8 12 7 12 357 18 154 3
307 8 340 11 128 14 161 13 198 -2 25 -10 41 -11 45 -5 8 11 340 9 435 -3 54
-6 59 -5 64 15 3 11 8 21 12 21 5 0 9 191 12 615 1 61 1 226 0 368 -1 142 1
262 4 267 3 4 5 50 4 101 0 108 -9 654 -10 684 -1 11 1 202 5 425 11 644 12
868 6 968 -3 52 -2 96 2 98 3 2 3 172 0 377 -4 204 -6 444 -5 532 1 135 15
2341 14 2400 -2 365 1 877 5 930 15 201 21 1036 15 1850 -2 204 -5 606 -7 895
-1 289 -5 615 -8 725 -4 110 -8 281 -11 380 -3 99 -7 223 -10 275 -2 52 -6
331 -8 620 -2 390 -6 531 -15 548 -24 42 -69 51 -305 60 -122 5 -307 7 -412 6
-104 -1 -212 2 -240 7 -71 13 -802 9 -925 -6 -129 -16 -229 -17 -680 -11 -347
5 -720 16 -829 25 -109 9 -357 6 -496 -7 -60 -5 -141 -8 -180 -6 -38 2 -165 5
-281 7 -116 2 -216 7 -223 11 -6 4 -14 0 -17 -9 -6 -14 -18 -16 -83 -11 -42 3
-206 8 -366 12 -159 3 -366 7 -460 9 -533 13 -694 14 -700 5 -3 -5 -15 -6 -28
-1 -12 5 -168 7 -347 6 -629 -6 -815 -7 -830 -2 -8 2 -29 -1 -46 -7z m2596
-36 c0 -5 -2 -10 -4 -10 -3 0 -8 5 -11 10 -3 6 -1 10 4 10 6 0 11 -4 11 -10z
m-2390 -31 c63 2 180 4 260 6 243 6 861 6 1120 0 345 -7 829 -14 1357 -20 305
-2 459 -8 473 -15 15 -8 31 -8 53 -1 86 26 319 40 447 26 25 -3 61 -5 80 -4
76 2 109 1 200 -5 88 -5 710 -19 755 -17 63 4 417 0 453 -5 24 -4 48 -2 55 4
10 9 160 15 262 11 58 -2 476 11 483 15 5 3 67 -1 138 -8 71 -7 208 -12 304
-10 110 1 180 -2 188 -8 8 -8 34 -7 85 0 63 9 142 10 395 4 73 -2 88 -19 52
-57 -23 -24 -23 -29 -21 -231 1 -114 4 -211 6 -214 3 -4 7 -183 9 -396 6 -443
14 -802 22 -919 3 -44 7 -188 9 -320 3 -132 5 -244 6 -250 0 -5 0 -86 -1 -180
-2 -234 -3 -743 -2 -780 6 -146 5 -1380 -1 -1980 -7 -773 -10 -1942 -9 -3795
0 -976 -1 -1207 -10 -1450 l-3 -85 -110 3 c-60 1 -136 9 -169 17 -82 21 -167
77 -218 143 -104 135 -369 412 -394 412 -3 0 -23 14 -44 30 -21 17 -42 30 -48
30 -5 0 -31 10 -58 22 -74 33 -160 48 -235 41 l-65 -6 -23 62 c-26 73 -21 122
18 164 24 27 26 34 24 115 -3 87 19 224 40 250 7 9 22 11 47 7 32 -5 39 -3 53
19 22 32 21 35 -3 29 -11 -3 -27 0 -35 7 -8 6 -23 9 -33 6 -11 -4 -24 0 -31 8
-27 32 -71 -23 -71 -88 0 -29 -5 -38 -30 -51 -16 -8 -33 -15 -37 -15 -4 0 -19
21 -33 47 -21 39 -34 51 -87 75 -72 32 -90 34 -120 13 -30 -21 -19 -45 21 -45
50 0 131 -61 161 -121 22 -42 25 -58 19 -96 -5 -33 -3 -47 7 -54 23 -14 -13
-62 -53 -72 -18 -4 -43 -13 -55 -19 -12 -6 -37 -8 -56 -4 -43 8 -70 -14 -65
-52 3 -23 -4 -30 -57 -55 -33 -16 -73 -41 -88 -55 -23 -22 -29 -24 -37 -12 -5
8 -10 21 -10 28 0 21 -37 85 -69 119 -20 23 -39 33 -59 33 -49 0 -44 12 16 42
32 15 81 48 108 73 37 35 54 45 71 40 28 -7 78 -90 78 -130 0 -23 5 -31 22
-33 17 -3 22 3 28 35 7 46 -2 73 -44 130 -36 49 -84 73 -149 73 -70 0 -113
-50 -55 -65 l27 -6 -30 -27 c-16 -15 -45 -38 -63 -51 l-34 -24 7 27 c9 38 -9
65 -60 86 -24 11 -44 26 -44 34 0 20 99 103 133 111 23 6 28 3 37 -19 15 -41
36 -42 78 -4 20 18 67 51 104 71 71 39 92 64 78 87 -6 10 -18 7 -55 -18 -47
-31 -69 -34 -59 -8 3 8 -2 28 -10 45 -9 16 -16 39 -16 51 0 21 24 28 35 10 3
-6 19 -10 35 -10 23 0 35 9 57 43 16 23 38 43 50 45 11 2 29 12 39 23 18 20
18 21 0 34 -10 8 -25 11 -34 8 -53 -16 -72 -27 -77 -43 -3 -10 -12 -24 -20
-30 -12 -10 -18 -8 -34 11 l-18 23 -29 -20 c-16 -10 -42 -19 -59 -19 -30 0
-30 0 -28 -55 2 -42 7 -58 23 -69 11 -7 20 -20 20 -27 0 -7 11 -21 25 -30 26
-17 33 -34 15 -34 -6 0 -24 -10 -40 -22 l-30 -22 -23 22 c-24 23 -71 30 -82
12 -9 -15 -35 -12 -35 3 0 7 15 20 33 28 44 19 48 52 8 69 -16 6 -35 9 -40 5
-15 -8 -14 11 1 38 7 12 20 53 30 91 15 59 16 72 4 95 -39 76 -76 159 -82 184
-3 15 -10 27 -14 27 -5 0 -14 16 -20 35 -6 19 -15 35 -20 35 -4 0 -24 33 -43
73 -20 41 -57 97 -82 125 -43 47 -45 53 -31 68 22 21 20 47 -4 69 -20 19 -20
19 8 31 16 6 45 28 65 48 l37 36 -17 43 c-21 52 -27 57 -81 57 -43 0 -59 12
-128 92 -16 19 -36 27 -78 32 -30 4 -61 4 -66 1 -18 -11 20 -45 50 -45 20 0
43 -17 93 -70 60 -64 70 -70 106 -70 73 0 73 -57 0 -75 -19 -5 -36 1 -64 19
-28 20 -50 26 -89 26 -79 0 -101 -39 -49 -84 24 -20 25 -26 14 -40 -7 -9 -20
-16 -28 -16 -20 0 -61 47 -68 79 -10 46 -40 71 -85 71 -33 0 -43 6 -65 34 -28
37 -57 51 -121 60 -48 7 -63 -6 -84 -73 -13 -40 -12 -46 10 -88 13 -24 37 -55
54 -69 54 -42 96 -88 96 -104 0 -8 -19 -23 -41 -34 -36 -16 -46 -17 -79 -6
-33 11 -41 10 -63 -6 -47 -35 -52 -55 -27 -120 33 -91 34 -93 15 -100 -18 -7
-108 31 -127 53 -6 8 -32 13 -62 13 -28 0 -56 4 -62 8 -6 4 -14 37 -17 74 -7
74 -24 109 -63 126 -38 18 -50 15 -90 -20 -31 -27 -35 -36 -30 -62 4 -17 14
-42 24 -56 26 -37 22 -161 -8 -217 -18 -35 -20 -51 -15 -96 5 -42 4 -56 -9
-66 -11 -9 -20 -10 -28 -4 -23 18 -54 21 -79 7 -36 -20 -46 -17 -52 16 -5 23
-12 30 -30 30 -17 0 -27 9 -38 33 -9 20 -22 33 -37 35 -30 5 -53 52 -60 126
-3 35 -13 72 -23 87 -10 14 -21 44 -25 67 -3 23 -16 50 -29 62 l-23 21 -40
-20 c-22 -11 -43 -25 -47 -30 -3 -5 4 -28 16 -50 24 -47 22 -85 -9 -173 -30
-83 -39 -96 -81 -118 -34 -17 -41 -18 -51 -5 -18 22 -31 19 -56 -12 l-21 -27
-32 54 c-17 30 -31 64 -31 74 0 11 -12 37 -27 59 -25 36 -26 41 -13 70 15 33
18 142 6 191 -7 28 -58 66 -89 66 -27 0 -77 -54 -77 -84 0 -14 11 -36 27 -50
l26 -25 -18 -48 c-20 -51 -64 -103 -88 -103 -8 0 -22 -9 -32 -20 -13 -15 -27
-19 -44 -16 -31 7 -56 -11 -70 -47 -6 -15 -14 -27 -18 -27 -5 0 -23 23 -42 51
-32 47 -33 52 -22 88 13 44 7 82 -26 165 -27 70 -29 98 -8 130 8 12 18 43 21
68 6 40 4 47 -17 62 -34 24 -98 21 -126 -6 -17 -16 -23 -32 -23 -66 0 -36 -5
-49 -30 -72 -33 -31 -38 -56 -15 -86 16 -21 19 -72 6 -93 -12 -19 -60 -21 -94
-4 -15 8 -37 11 -49 7 -18 -5 -20 -3 -15 21 5 28 -26 100 -60 137 -14 16 -14
20 0 50 27 58 62 223 77 361 10 95 67 341 106 454 13 39 24 80 24 90 0 29 96
208 152 283 12 17 30 30 40 30 10 0 21 7 24 15 9 22 32 18 66 -10 16 -14 42
-28 56 -31 15 -3 70 -21 122 -40 52 -20 116 -42 143 -51 26 -8 47 -19 47 -25
0 -6 -18 -31 -40 -55 -78 -84 -102 -191 -59 -260 19 -30 21 -44 15 -99 -6 -58
-11 -69 -41 -96 -19 -16 -35 -36 -35 -44 0 -26 23 -64 39 -64 15 0 91 84 91
101 0 4 9 10 20 14 10 3 29 22 41 41 17 29 21 50 21 111 -1 48 3 79 11 87 54
49 125 100 182 131 68 37 69 37 98 20 18 -11 54 -19 86 -20 31 -1 65 -4 75 -6
15 -3 26 7 44 40 l25 43 84 -4 c81 -4 151 5 240 32 l43 13 59 -56 c33 -32 65
-57 71 -57 6 0 33 -18 59 -40 26 -22 52 -40 58 -40 6 0 36 -24 66 -53 138
-131 174 -163 200 -177 16 -8 35 -26 43 -41 7 -15 20 -33 27 -41 7 -7 39 -52
70 -100 31 -49 60 -88 65 -88 4 0 24 6 46 14 36 12 37 14 14 19 -23 6 -98 103
-98 127 0 5 -4 10 -10 10 -5 0 -10 5 -10 11 0 6 -16 29 -36 51 -19 22 -33 42
-30 45 3 3 23 -4 46 -16 22 -11 45 -21 50 -21 6 0 75 -32 154 -70 80 -39 147
-70 151 -70 3 0 27 -9 52 -21 55 -25 143 -50 243 -68 79 -15 192 -41 201 -47
26 -15 103 -20 189 -11 36 4 97 10 135 12 68 5 147 28 230 65 92 43 156 70
161 70 4 0 27 14 53 32 25 17 78 53 116 79 82 54 215 203 215 240 0 6 18 34
40 61 22 28 45 69 50 92 6 22 15 49 20 58 6 10 10 24 10 32 0 7 10 35 22 62
14 33 22 74 24 126 2 42 8 86 13 97 20 37 11 217 -16 310 -13 47 -30 112 -37
143 -7 32 -21 69 -30 82 -9 14 -16 30 -16 37 0 6 -11 33 -25 61 -14 27 -25 55
-25 62 0 20 -43 97 -88 156 -22 29 -43 64 -47 77 -3 13 -20 37 -38 54 -27 26
-176 131 -211 150 -6 3 -27 14 -46 24 -19 10 -54 31 -77 46 -24 16 -62 33 -85
39 -24 7 -56 18 -73 25 -16 8 -63 25 -103 38 -40 14 -76 27 -79 31 -4 3 -17 6
-30 6 -24 0 -105 18 -138 30 -36 14 -185 41 -194 36 -5 -3 -31 -2 -57 3 -111
21 -395 32 -508 20 -43 -5 -113 -11 -156 -14 -75 -6 -79 -5 -91 16 -7 13 -29
45 -51 72 -21 27 -38 54 -38 59 0 6 -9 29 -19 52 -11 23 -33 71 -50 109 -18
37 -36 67 -41 67 -6 0 -10 8 -10 18 0 10 -4 22 -9 28 -6 5 -12 32 -15 59 -8
92 -22 126 -68 167 -24 21 -55 45 -70 53 -16 9 -28 21 -28 28 0 13 -37 45 -93
80 -15 9 -42 17 -60 17 -18 0 -57 9 -87 20 -30 11 -75 20 -100 20 -25 0 -56 0
-70 0 -14 1 -55 -1 -92 -2 -87 -4 -94 4 -78 74 7 29 14 87 14 128 l1 75 30 -3
c88 -8 124 7 155 64 19 36 40 96 40 115 0 8 12 39 26 67 19 38 37 58 64 72 20
10 45 31 55 47 10 15 29 41 44 56 24 26 26 35 26 121 0 101 -11 127 -62 147
-13 5 -23 17 -23 27 0 28 -26 57 -52 57 -16 0 -28 10 -40 35 -10 19 -35 51
-55 71 -21 20 -46 48 -55 62 -10 14 -36 33 -58 43 -22 10 -40 21 -40 25 0 13
-145 77 -200 88 -45 9 -58 17 -72 41 -9 16 -28 32 -42 36 -19 4 -26 13 -26 29
0 30 13 38 62 38 31 0 44 6 64 30 29 34 26 38 -38 51 -58 13 -12 46 63 46 32
0 39 3 39 20 0 17 -7 20 -41 20 -64 0 -44 24 23 28 35 2 61 9 69 18 17 21 -2
37 -41 36 -16 0 -30 4 -30 9 0 13 45 29 81 29 32 0 74 34 63 52 -4 6 -27 8
-60 5 -30 -3 -54 -3 -54 -1 0 13 93 43 118 38 32 -7 58 16 48 42 -5 13 -15 15
-59 9 -69 -9 -53 7 33 33 44 13 66 25 69 37 3 16 -3 17 -50 11 -38 -5 -51 -4
-43 3 13 14 117 51 143 51 10 0 21 6 24 14 7 18 -15 38 -34 32 -38 -12 -69
-15 -69 -8 0 12 57 40 108 52 32 8 42 15 40 28 -3 13 -13 16 -43 15 l-40 -3
47 25 c26 14 49 29 53 35 3 5 17 10 31 10 26 0 32 18 12 38 -9 9 -9 12 2 13 8
1 18 1 22 0 21 -3 58 21 58 38 0 29 -24 45 -49 31 -12 -6 -21 -7 -21 -2 0 14
48 32 99 38 25 3 50 9 55 14 14 14 -1 40 -24 40 -11 0 -20 5 -20 10 0 10 23
14 72 10 19 -1 28 5 33 19 8 25 56 29 75 6 28 -33 67 -10 48 28 -14 27 -3 32
26 13 14 -9 33 -16 43 -16 10 0 42 -24 70 -52 47 -47 53 -59 57 -106 3 -29 0
-76 -6 -105 -6 -29 -10 -73 -9 -99 3 -69 -33 -200 -85 -308 -25 -52 -49 -102
-55 -110 -5 -8 -14 -26 -20 -40 -7 -14 -24 -52 -40 -85 -50 -107 -119 -269
-119 -281 0 -13 -31 -86 -88 -204 -38 -79 -53 -162 -32 -175 18 -11 36 14 54
77 14 49 140 310 164 342 5 6 16 36 23 66 7 30 24 70 36 89 13 19 23 42 23 52
0 10 4 20 10 24 5 3 17 31 27 63 10 31 32 83 50 115 18 33 33 63 33 67 0 5 9
24 19 42 25 44 54 180 52 245 -1 28 5 79 14 111 16 65 20 158 6 166 -4 3 -11
19 -14 36 -9 41 -78 114 -146 151 -53 29 -83 35 -163 30 -10 -1 -31 0 -46 1
-32 2 -188 -62 -246 -101 -22 -14 -47 -38 -55 -52 -9 -15 -36 -53 -61 -85 -52
-69 -83 -113 -93 -134 -16 -34 -66 -103 -124 -174 -35 -42 -63 -79 -63 -84 0
-4 -13 -23 -29 -42 -15 -19 -40 -59 -55 -89 -15 -29 -38 -65 -51 -79 -13 -14
-36 -50 -51 -80 -16 -31 -45 -71 -64 -88 -20 -18 -47 -55 -59 -83 -15 -31 -33
-54 -50 -61 -14 -6 -48 -30 -76 -55 -27 -24 -56 -45 -63 -45 -7 0 -26 -14 -42
-32 -25 -27 -33 -30 -52 -21 -66 29 -167 -63 -187 -170 -8 -47 -3 -65 31 -101
26 -28 23 -41 -16 -71 -57 -43 -69 -111 -35 -193 12 -28 12 -34 -1 -42 -26
-17 -47 -11 -78 21 -29 30 -31 30 -41 11 -15 -28 -1 -62 38 -90 17 -13 29 -27
26 -33 -8 -12 -45 -12 -45 1 0 6 -7 10 -15 10 -8 0 -15 -4 -15 -10 0 -5 -7
-10 -15 -10 -41 0 -40 -92 2 -125 14 -12 31 -37 37 -55 8 -25 19 -37 41 -43
17 -5 43 -13 59 -17 27 -9 28 -8 22 23 -4 22 -1 40 9 52 13 19 14 17 15 -22 0
-46 13 -63 59 -83 37 -15 41 -46 9 -60 -37 -15 -100 -64 -112 -85 -5 -11 -18
-32 -28 -47 -10 -15 -18 -39 -18 -53 0 -41 -26 -92 -57 -111 -15 -9 -44 -27
-63 -40 -60 -39 -84 -40 -109 -6 -11 17 -21 35 -21 42 0 6 -13 31 -29 54 -17
24 -41 68 -56 99 -14 31 -31 60 -38 64 -12 8 -24 25 -52 75 -8 15 -38 58 -66
95 -28 37 -55 77 -59 88 -7 18 -143 150 -315 307 -169 155 -482 361 -573 378
-26 5 -90 21 -142 35 -141 38 -246 56 -330 54 -85 -2 -297 -40 -362 -66 -88
-34 -298 -195 -298 -228 0 -6 -16 -26 -35 -45 -19 -18 -41 -48 -50 -67 -31
-64 -36 -38 -30 165 3 108 5 205 5 215 0 9 1 29 1 45 2 100 2 378 0 487 -1 72
0 222 3 334 7 261 7 663 -1 1661 -8 1098 -9 1055 40 1028 13 -7 65 -10 137 -9z
m3238 -3495 c42 -9 100 -27 127 -40 82 -38 205 -123 214 -148 10 -24 65 -76
82 -76 5 0 9 -7 9 -15 0 -9 8 -18 18 -22 9 -4 26 -18 37 -32 38 -49 75 -82 84
-77 17 11 35 -58 33 -119 -3 -43 -9 -66 -23 -81 -10 -11 -19 -25 -19 -31 0
-14 -47 -49 -85 -63 l-28 -11 6 38 c8 44 -3 79 -55 189 -25 53 -53 93 -81 118
-23 21 -61 55 -84 77 -23 21 -47 39 -54 39 -7 0 -20 6 -28 14 -22 19 -147 63
-251 87 -89 21 -211 21 -345 -1 -42 -7 -61 -6 -66 1 -10 17 -26 3 -39 -36 -6
-19 -18 -35 -26 -35 -18 0 -18 19 1 41 11 11 14 26 9 43 -7 30 -21 33 -40 9
-19 -25 -18 0 1 37 26 50 71 66 245 84 50 6 120 22 128 31 10 10 142 -1 230
-21z m-2503 -124 c122 -10 246 -34 300 -59 23 -11 61 -24 85 -31 25 -7 50 -16
55 -20 6 -4 37 -23 70 -41 33 -17 76 -44 95 -59 19 -15 45 -32 57 -38 12 -7
27 -18 35 -24 7 -7 42 -35 78 -62 80 -61 110 -89 258 -239 65 -65 130 -137
145 -160 15 -23 34 -47 42 -53 14 -10 60 -75 129 -179 43 -66 146 -252 146
-265 0 -10 -73 -60 -88 -60 -8 0 -86 102 -123 160 -9 14 -30 41 -47 60 -18 19
-32 38 -32 43 0 5 -12 24 -27 42 -16 19 -44 55 -63 81 -19 26 -47 61 -62 77
-16 16 -28 32 -28 36 0 17 -238 255 -287 288 -29 19 -53 40 -53 47 0 7 -19 24
-42 39 -24 15 -60 43 -81 62 -40 37 -150 105 -170 105 -7 0 -32 16 -57 36 -80
64 -154 102 -268 140 -78 25 -116 34 -124 26 -7 -7 -18 -6 -35 3 -38 20 -173
9 -272 -22 -125 -39 -204 -87 -296 -178 -134 -134 -182 -224 -221 -420 -24
-119 8 -340 69 -480 14 -33 33 -83 42 -110 9 -28 31 -67 50 -88 19 -20 47 -54
62 -74 72 -96 205 -242 241 -263 15 -9 38 -33 52 -53 14 -20 49 -51 78 -69 29
-18 86 -53 125 -78 155 -99 311 -169 422 -190 22 -4 52 -12 68 -18 15 -7 27
-9 27 -6 0 3 15 -3 33 -13 42 -25 174 -60 291 -78 12 -2 50 -8 86 -14 36 -5
110 -15 165 -22 55 -6 111 -16 125 -21 33 -12 399 -70 418 -66 4 1 32 -2 62
-6 30 -3 78 -9 105 -11 77 -7 187 -24 221 -35 17 -6 38 -8 47 -4 13 4 17 1 17
-15 0 -11 16 -42 35 -67 20 -26 34 -52 32 -58 -7 -19 -361 -4 -538 23 -35 6
-93 13 -129 16 -36 3 -105 18 -155 32 -49 13 -106 29 -125 33 -19 5 -100 27
-180 50 -133 38 -195 51 -395 81 -38 6 -74 15 -80 20 -5 5 -25 9 -45 9 -19 1
-53 9 -75 20 -22 11 -45 19 -52 20 -13 0 -111 45 -308 140 -77 37 -155 73
-172 80 -18 7 -33 16 -33 21 0 4 -9 11 -20 14 -29 9 -168 103 -177 120 -5 8
-44 44 -88 80 -44 37 -93 85 -110 109 -16 23 -46 62 -66 86 -34 43 -109 181
-109 201 0 5 -10 26 -23 47 -50 80 -66 178 -69 422 -3 190 0 231 13 265 9 22
24 65 33 95 9 30 29 78 44 107 113 217 162 269 324 350 l103 51 130 8 c71 4
141 10 155 15 14 4 32 5 40 2 8 -3 60 -9 115 -13z m36 -129 c68 -23 174 -75
196 -96 8 -8 20 -15 26 -15 17 0 112 -106 161 -180 129 -193 143 -462 35 -666
-23 -43 -46 -80 -50 -82 -5 -2 -9 -9 -9 -16 0 -30 -227 -216 -265 -216 -6 0
-16 -5 -23 -12 -7 -7 -54 -12 -119 -13 -65 -1 -118 -7 -133 -15 -28 -15 -130
-7 -205 17 -136 44 -296 158 -340 243 -8 16 -19 30 -24 30 -11 0 -58 99 -81
170 -23 74 -34 251 -19 315 6 28 13 64 15 80 12 95 72 192 190 305 76 73 102
91 179 124 49 21 112 42 140 46 85 13 259 2 326 -19z m2383 -26 c-1 -11 -11
-44 -22 -73 l-19 -54 -22 28 c-24 30 -26 40 -10 50 6 3 18 22 25 41 16 38 50
43 48 8z m-104 -25 c0 -5 -2 -10 -4 -10 -3 0 -8 5 -11 10 -3 6 -1 10 4 10 6 0
11 -4 11 -10z m248 -12 c17 -17 15 -48 -5 -71 -17 -18 -17 -20 2 -33 30 -22
66 -28 86 -15 10 6 25 11 33 11 7 0 16 9 19 20 10 40 64 21 72 -25 7 -51 40
-100 67 -103 33 -4 38 -19 33 -102 -9 -133 -16 -163 -59 -224 -23 -32 -54 -82
-69 -110 -16 -28 -36 -60 -46 -71 -10 -11 -32 -40 -49 -65 -38 -58 -119 -105
-165 -96 -44 9 -136 58 -142 76 -3 8 -21 32 -40 53 -29 32 -38 37 -50 27 -8
-7 -15 -16 -15 -20 0 -5 25 -38 56 -74 56 -66 89 -89 144 -101 25 -6 29 -10
26 -34 -4 -35 -46 -91 -97 -132 -21 -16 -41 -39 -44 -50 -5 -13 -14 -19 -27
-17 -25 4 -29 12 -57 104 -31 102 -55 119 -205 144 -37 6 -79 18 -92 27 -13 8
-24 12 -24 9 0 -8 -71 43 -82 59 -12 17 -10 23 28 65 52 58 65 54 58 -19 -5
-59 4 -82 24 -58 5 6 14 46 20 87 10 75 12 87 32 170 26 106 33 125 51 138 24
17 24 28 -1 49 -25 21 -25 44 -3 86 l18 32 5 -50 c6 -55 24 -68 52 -38 9 10
28 30 42 45 15 17 31 25 40 22 11 -4 24 8 43 40 26 44 30 46 63 41 21 -3 41 0
50 8 35 28 70 80 70 103 0 36 35 66 73 62 27 -2 33 1 35 20 4 25 12 28 30 10z
m72 -39 c0 -5 -4 -9 -10 -9 -5 0 -10 7 -10 16 0 8 5 12 10 9 6 -3 10 -10 10
-16z m-775 -41 c-4 -36 -4 -38 -15 -38 -11 0 -14 43 -3 53 13 13 20 7 18 -15z
m450 -27 c0 -16 -41 -46 -48 -34 -3 4 -1 18 4 31 10 25 44 27 44 3z m-165 -50
c0 -23 -28 -48 -39 -35 -13 13 6 54 24 54 8 0 15 -8 15 -19z m-1586 -78 c30
-27 74 -63 98 -80 57 -43 155 -138 193 -188 17 -21 42 -53 57 -69 44 -50 115
-141 119 -153 2 -6 45 -60 94 -119 50 -59 95 -114 100 -123 6 -9 21 -32 36
-51 60 -83 60 -82 -16 -152 -38 -35 -85 -73 -105 -85 -20 -12 -42 -34 -50 -50
-8 -15 -30 -50 -48 -78 -44 -68 -73 -166 -61 -208 5 -20 5 -35 -1 -41 -6 -6
-10 -30 -10 -54 0 -24 -5 -53 -11 -64 -8 -16 -8 -23 2 -30 9 -6 -5 -7 -40 -2
-29 3 -61 14 -70 23 -14 13 -75 63 -99 81 -4 3 -17 18 -29 33 -12 15 -52 53
-90 83 -81 66 -210 200 -219 226 -3 10 -8 18 -12 18 -4 0 -19 11 -34 25 -15
13 -45 32 -67 41 -23 9 -41 20 -41 24 0 5 18 21 41 37 22 15 54 39 70 52 59
47 189 252 189 297 0 7 4 15 8 18 18 11 33 119 34 238 1 124 -12 198 -48 266
-8 15 -14 32 -14 37 0 6 -11 27 -25 46 -20 31 -23 49 -8 49 1 0 27 -21 57 -47z
m1656 7 c0 -5 -4 -10 -10 -10 -5 0 -10 5 -10 10 0 6 5 10 10 10 6 0 10 -4 10
-10z m-302 -76 l-3 -29 -13 23 c-8 13 -11 31 -7 39 9 26 27 0 23 -33z m-75
-31 c6 -33 -3 -46 -26 -37 -20 7 -22 35 -5 52 18 18 25 15 31 -15z m-98 -33
c15 -16 16 -22 5 -35 -12 -14 -15 -14 -30 0 -10 9 -16 24 -13 36 7 24 15 24
38 -1z m65 -121 c0 -5 -9 -9 -20 -9 -19 0 -27 20 -13 33 7 8 33 -11 33 -24z
m4720 -14 c0 -8 -4 -15 -10 -15 -5 0 -10 7 -10 15 0 8 5 15 10 15 6 0 10 -7
10 -15z m-4665 -395 c22 -19 95 -48 134 -53 27 -4 38 -21 22 -32 -16 -9 -13
-35 3 -35 29 0 56 -55 56 -113 0 -45 4 -57 23 -70 l22 -15 -22 -41 c-34 -59
-26 -101 18 -101 30 0 44 30 44 94 0 52 3 61 19 64 16 3 18 0 12 -19 -15 -53
-19 -139 -6 -154 22 -27 57 -19 69 16 15 42 14 102 -1 117 -8 8 -9 15 -2 22
13 13 35 -11 53 -57 14 -36 8 -54 -43 -118 -56 -70 -48 -175 14 -197 34 -11
36 -21 17 -69 -12 -29 -12 -42 0 -82 14 -48 29 -60 97 -82 18 -5 18 -6 -1 -28
-31 -33 -43 -62 -43 -101 0 -43 28 -72 88 -89 l43 -13 -26 -24 c-24 -23 -36
-25 -140 -28 l-114 -4 -15 29 c-8 16 -22 36 -31 43 -9 8 -28 37 -42 64 -14 28
-36 64 -49 79 -13 16 -24 33 -24 39 0 5 -19 33 -43 61 -48 57 -67 87 -123 192
-20 39 -40 72 -43 75 -3 3 -14 21 -24 40 -9 19 -37 69 -62 110 -24 41 -52 91
-60 110 -9 19 -20 42 -25 50 -6 8 -16 26 -22 40 -7 14 -21 38 -31 53 -24 35
-17 54 27 72 19 8 40 20 48 27 7 7 31 23 53 35 40 21 56 43 75 96 10 29 18 29
55 -3z m795 -35 c0 -8 -5 -15 -10 -15 -6 0 -25 -22 -42 -49 -21 -35 -39 -52
-59 -56 -44 -10 -110 -44 -156 -82 -24 -19 -43 -29 -43 -23 0 15 57 67 95 87
35 19 92 62 152 115 46 41 63 47 63 23z m-520 -61 c23 -12 39 -32 55 -68 26
-58 21 -70 -32 -79 -36 -7 -49 5 -45 40 3 21 -7 67 -23 106 -9 21 3 22 45 1z
m600 -79 c35 -12 49 -13 77 -3 56 20 193 -3 273 -46 36 -20 72 -36 80 -36 22
0 132 -93 141 -119 6 -14 17 -21 33 -21 53 0 62 -42 57 -269 -1 -61 -19 -121
-36 -121 -7 0 -17 35 -24 82 -16 105 -25 122 -52 105 -24 -14 -21 -51 13 -177
15 -57 18 -88 12 -130 -4 -30 -6 -76 -5 -103 2 -63 14 -59 -274 -101 -49 -8
-135 -23 -190 -34 -55 -12 -109 -22 -120 -22 -67 -1 -154 -9 -179 -15 -27 -7
-28 -6 -23 17 8 32 -17 68 -48 68 -13 0 -38 12 -55 26 -39 33 -35 60 16 111
19 19 34 42 32 51 -2 10 -25 25 -57 36 -43 15 -56 26 -67 52 -12 28 -11 38 1
68 8 19 15 49 15 66 0 26 -5 31 -30 36 -38 8 -50 23 -52 66 -1 38 12 66 55
121 26 31 31 47 32 94 0 31 5 58 11 60 5 2 20 -10 32 -27 18 -23 30 -30 57
-30 29 0 36 4 42 28 7 29 8 74 2 107 -3 16 2 21 30 23 36 4 37 1 15 -75 -10
-37 73 -75 104 -48 15 13 19 82 6 117 -22 62 -4 71 76 43z m-3360 -94 c0 -15
-19 -14 -33 2 -66 67 -77 118 -12 54 25 -25 45 -50 45 -56z m2208 -19 c69
-127 112 -203 162 -287 26 -44 51 -91 55 -105 4 -14 11 -27 15 -30 4 -3 28
-41 54 -85 50 -84 108 -180 126 -205 6 -8 49 -69 96 -135 47 -66 95 -136 106
-155 24 -41 127 -197 145 -220 6 -8 28 -35 47 -58 20 -24 36 -47 36 -50 0 -7
12 -22 65 -84 11 -12 22 -28 25 -34 3 -7 43 -52 90 -101 47 -49 102 -113 123
-143 21 -30 58 -84 83 -120 44 -64 207 -235 321 -337 106 -94 286 -231 298
-227 7 3 19 -1 27 -9 8 -8 29 -22 47 -31 17 -9 35 -24 38 -32 3 -8 26 -29 52
-46 25 -17 49 -37 53 -44 4 -6 22 -17 40 -25 18 -7 38 -18 44 -24 6 -6 31 -17
55 -24 67 -20 158 -63 185 -87 13 -12 41 -32 64 -45 22 -12 40 -26 40 -31 0
-4 7 -8 16 -8 8 0 34 -8 57 -19 69 -31 140 -58 182 -70 22 -6 72 -20 110 -31
43 -12 104 -20 155 -21 107 -1 207 5 216 13 3 4 12 4 20 1 19 -7 151 24 200
48 23 11 66 28 95 38 29 11 55 24 57 30 2 6 9 11 16 11 13 0 109 60 114 71 2
4 16 20 31 37 16 16 32 36 37 44 5 8 18 21 30 29 11 8 51 49 87 91 59 67 66
79 58 101 -8 20 -3 33 28 79 66 94 103 194 122 324 11 82 11 103 -5 190 -10
55 -27 119 -37 143 -11 24 -19 52 -19 62 0 10 -4 20 -9 24 -6 3 -24 29 -40 58
-35 59 -91 120 -175 191 -78 66 -98 76 -266 136 -19 7 -46 19 -60 27 -36 20
-100 49 -140 63 -19 6 -48 17 -65 22 -16 6 -41 15 -55 21 -86 35 -165 60 -230
72 -41 8 -127 26 -190 40 -62 15 -125 24 -139 22 -14 -3 -68 1 -121 8 -214 28
-363 15 -412 -37 -15 -17 -28 -31 -28 -33 0 -1 17 -2 37 -1 46 1 53 -11 88
-149 26 -103 50 -173 84 -242 12 -23 21 -59 21 -81 0 -53 19 -74 71 -81 39 -5
44 -9 50 -37 3 -17 21 -50 38 -72 27 -33 31 -43 22 -60 -16 -30 -14 -38 15
-68 20 -20 33 -25 54 -20 l27 5 5 -137 c4 -89 11 -149 20 -172 32 -74 31 -88
-6 -123 -33 -31 -66 -107 -66 -153 0 -22 -37 -41 -51 -26 -12 12 17 102 41
127 21 22 21 25 6 31 -24 9 -43 -12 -65 -76 -14 -40 -25 -55 -38 -55 -22 0
-21 40 2 65 18 20 20 53 3 48 -7 -3 -18 -15 -24 -27 -15 -30 -32 -46 -40 -38
-4 3 1 13 10 22 18 18 22 70 6 80 -16 10 -40 -14 -40 -39 0 -12 -9 -27 -20
-34 -30 -19 -24 -48 20 -96 48 -52 94 -76 145 -76 26 0 35 -4 31 -12 -3 -7 -9
-21 -12 -30 -7 -19 -24 -25 -24 -8 0 6 -10 10 -23 10 -12 0 -33 8 -46 17 -23
16 -25 15 -47 -12 -27 -33 -44 -27 -25 9 8 13 10 29 7 35 -10 16 -36 13 -42
-4 -6 -15 -44 -22 -44 -7 0 4 9 13 20 20 11 7 20 19 20 27 0 23 -28 30 -49 11
-22 -20 -37 -20 -45 -1 -4 10 5 20 29 29 32 14 44 34 29 48 -3 3 -23 -1 -45
-10 -21 -8 -42 -12 -46 -8 -4 3 -6 36 -6 71 0 37 -4 65 -10 65 -5 0 -25 -9
-43 -21 -36 -22 -45 -53 -20 -73 7 -6 16 -22 19 -36 6 -23 3 -25 -28 -25 -43
0 -52 10 -30 35 19 21 14 50 -8 50 -8 0 -24 -9 -37 -20 l-22 -19 -29 27 c-16
15 -29 34 -29 43 0 9 -9 38 -21 64 -20 44 -21 65 -21 326 0 205 -3 279 -11
279 -48 -1 -57 -59 -57 -356 0 -213 1 -236 21 -290 12 -33 38 -75 56 -95 l35
-36 -29 -6 c-40 -7 -83 18 -83 48 0 18 -5 25 -19 25 -56 0 -81 124 -86 435 -1
55 -5 148 -10 206 -5 75 -5 108 3 113 11 6 16 -8 24 -59 6 -36 32 -22 42 21 6
30 3 73 -13 159 -11 65 -23 120 -25 122 -2 3 -14 0 -25 -7 -25 -13 -25 -14 -6
63 8 34 23 98 33 142 l18 80 56 -3 c41 -2 65 2 83 14 16 10 36 14 54 11 45 -9
100 10 111 39 5 13 16 24 25 24 8 0 15 4 15 10 0 12 -43 11 -87 -2 -18 -5 -52
-11 -75 -14 -63 -6 -170 -23 -273 -44 -49 -11 -118 -21 -153 -24 -34 -3 -66
-7 -70 -10 -5 -3 -35 -8 -68 -11 -32 -3 -72 -9 -89 -12 -16 -4 -37 -8 -45 -9
-8 -1 -53 -10 -100 -19 -126 -24 -187 -31 -270 -29 -41 1 -101 2 -133 3 -49 1
-62 5 -82 27 -39 42 -33 49 48 48 39 0 95 4 122 9 79 13 236 36 285 41 52 6
112 20 130 31 10 6 9 11 -3 20 -13 9 -27 9 -64 0 -57 -15 -241 -30 -231 -19 9
8 178 40 293 55 117 14 194 28 245 44 96 28 234 56 308 60 42 3 103 10 136 16
32 6 97 12 145 14 47 3 120 9 161 14 91 12 376 8 483 -8 42 -6 110 -15 150
-20 39 -5 106 -20 147 -34 78 -27 197 -50 211 -41 5 3 19 -2 31 -10 12 -9 29
-16 36 -16 8 0 30 -7 50 -16 21 -9 46 -19 57 -24 11 -4 49 -21 85 -38 36 -18
74 -32 85 -32 12 0 51 -22 87 -50 37 -27 69 -50 73 -50 3 0 17 -13 31 -29 13
-16 46 -46 74 -67 33 -25 50 -46 50 -60 0 -11 15 -41 33 -65 18 -24 39 -60 47
-79 7 -19 30 -60 50 -90 43 -67 97 -199 105 -260 4 -25 13 -74 22 -109 14 -59
25 -178 24 -246 -1 -46 -41 -241 -62 -302 -10 -31 -19 -65 -19 -77 0 -11 -17
-45 -39 -76 -21 -30 -41 -67 -45 -82 -3 -14 -26 -44 -51 -66 -26 -22 -59 -59
-76 -81 -23 -32 -36 -41 -59 -41 -21 0 -36 -9 -56 -35 -14 -19 -32 -35 -39
-35 -7 0 -23 -8 -36 -19 -40 -30 -180 -86 -269 -106 -30 -7 -80 -19 -110 -28
-159 -45 -315 -49 -490 -12 -255 53 -321 79 -708 281 -56 30 -111 54 -121 54
-11 0 -21 3 -23 8 -1 4 -39 32 -82 62 -43 30 -100 74 -126 98 -26 23 -51 42
-57 42 -5 0 -34 24 -64 53 -30 29 -70 64 -89 78 -19 15 -50 40 -68 57 -19 17
-61 52 -94 77 -33 25 -90 78 -126 117 -37 40 -97 104 -134 142 -38 38 -68 73
-68 77 0 8 -29 43 -133 162 -23 26 -47 60 -52 75 -12 31 -35 75 -44 82 -35 28
-262 323 -351 453 -29 43 -59 81 -66 84 -7 2 -20 22 -28 44 -9 21 -31 60 -49
86 -18 27 -39 62 -46 80 -7 17 -21 39 -32 49 -10 9 -19 22 -19 28 0 6 -11 28
-25 48 -14 20 -25 46 -25 57 0 11 -8 25 -18 30 -18 9 -32 34 -146 253 -66 126
-76 145 -105 193 -29 47 -64 110 -100 180 l-26 50 45 21 c25 12 50 19 56 17 6
-2 29 -39 52 -81z m1046 23 c8 -22 -3 -45 -19 -39 -16 7 -27 32 -19 45 8 14
31 11 38 -6z m-1258 -37 c15 -24 58 -90 97 -148 38 -58 84 -130 100 -160 69
-126 80 -146 97 -170 9 -14 34 -58 55 -97 21 -40 42 -73 46 -73 5 0 13 -19 20
-42 6 -24 21 -57 34 -73 31 -42 67 -124 61 -141 -3 -8 -17 -12 -38 -10 -82 9
-130 20 -132 30 -17 67 -77 230 -114 306 -44 92 -125 200 -149 200 -6 0 -13 4
-15 8 -1 5 -33 25 -70 46 -36 20 -73 47 -82 60 -21 33 -77 50 -142 43 -42 -4
-54 -2 -54 8 0 28 26 70 65 105 22 19 65 61 95 92 68 71 90 74 126 16z m1099
2 c3 -5 4 -14 0 -20 -8 -13 -35 -1 -35 16 0 16 26 19 35 4z m-3314 -82 c24
-40 56 -88 71 -106 15 -18 28 -36 28 -41 0 -5 14 -24 30 -42 17 -19 38 -46 47
-61 9 -15 28 -32 42 -38 14 -6 61 -44 105 -85 43 -40 95 -82 115 -92 20 -10
43 -23 51 -30 9 -6 119 -64 245 -128 127 -64 236 -121 243 -127 6 -6 12 -8 12
-4 0 3 17 -3 37 -14 21 -11 43 -20 50 -20 20 0 25 -39 19 -141 -11 -208 -5
-342 15 -355 5 -3 9 -14 9 -25 0 -10 9 -28 20 -39 11 -11 20 -24 20 -30 0 -5
13 -16 29 -24 16 -9 31 -22 34 -31 4 -8 16 -15 27 -15 12 0 20 -7 20 -17 0
-10 9 -33 20 -51 11 -18 20 -39 20 -46 0 -19 57 -143 70 -151 5 -3 10 -14 10
-24 0 -10 6 -24 14 -30 8 -7 17 -24 21 -39 13 -57 134 -131 245 -150 119 -20
170 -21 170 -3 0 13 2 13 9 2 17 -26 119 -23 318 10 61 10 106 39 135 89 11
19 31 51 44 70 13 20 31 66 40 103 17 67 33 87 35 45 3 -53 7 -70 18 -81 6 -6
11 -20 11 -30 0 -28 27 -80 61 -118 16 -18 29 -44 29 -59 0 -44 -29 -126 -51
-146 -28 -25 -96 -125 -110 -161 -5 -15 -28 -63 -49 -108 -40 -83 -90 -229
-90 -264 0 -11 -4 -30 -9 -43 -42 -106 -76 -258 -91 -409 -14 -141 -38 -249
-65 -289 -27 -39 -25 -68 7 -109 10 -13 18 -29 18 -36 0 -7 7 -15 15 -19 22
-8 19 -31 -11 -82 -25 -43 -26 -46 -9 -64 22 -24 58 -25 95 -3 24 14 34 15 55
5 37 -17 60 -15 107 9 47 24 58 17 58 -41 0 -19 9 -60 21 -90 11 -30 25 -68
31 -85 9 -29 118 -258 141 -300 6 -11 24 -44 39 -74 16 -29 43 -74 61 -100 17
-25 37 -55 43 -66 6 -11 21 -38 34 -60 13 -22 41 -76 62 -120 22 -44 44 -88
49 -97 5 -10 9 -25 9 -34 0 -9 8 -28 19 -42 10 -15 31 -56 46 -92 16 -36 37
-75 48 -87 13 -15 17 -27 11 -35 -17 -23 -3 -119 34 -230 16 -48 26 -90 23
-95 -3 -4 -51 -30 -106 -57 -55 -27 -119 -62 -142 -78 -23 -15 -45 -28 -49
-28 -3 0 -32 -17 -64 -39 -31 -21 -81 -51 -111 -66 -30 -14 -65 -33 -79 -40
-92 -50 -209 -88 -270 -88 -83 0 -217 20 -226 34 -3 5 -15 9 -28 9 -26 0 -106
37 -106 49 0 16 31 34 68 40 31 5 37 10 37 31 0 27 -2 27 -76 16 -38 -6 -46
-4 -57 15 -12 18 -12 27 1 58 8 20 27 68 42 106 14 39 37 91 51 118 27 53 32
97 9 97 -8 0 -30 -33 -50 -77 -53 -113 -62 -133 -80 -186 -9 -26 -23 -47 -31
-47 -22 0 -17 25 25 108 21 42 41 88 44 101 9 39 -17 78 -58 85 -39 8 -44 16
-16 33 12 7 21 29 26 59 3 26 14 61 22 79 17 36 12 65 -11 65 -10 0 -21 -21
-32 -57 -10 -32 -24 -65 -31 -74 -7 -8 -13 -28 -13 -43 0 -28 -24 -46 -41 -29
-6 6 -2 27 11 56 22 49 20 67 -6 67 -14 0 -67 -101 -61 -118 3 -10 -14 -13
-36 -6 -29 9 -67 -4 -67 -24 0 -9 -16 -30 -35 -45 -41 -33 -48 -79 -15 -97 11
-6 20 -17 20 -25 0 -19 0 -19 -67 11 -105 46 -255 77 -373 77 -55 0 -188 -17
-252 -33 -75 -18 -155 -66 -252 -152 -37 -33 -218 -140 -321 -191 -22 -11 -47
-26 -55 -32 -8 -7 -33 -11 -55 -10 -22 2 -73 3 -112 4 -71 1 -73 2 -89 33 -14
27 -16 52 -10 163 7 132 7 164 8 620 0 258 -1 381 -3 400 0 6 0 78 0 160 1 83
-1 319 -3 525 -3 206 -5 537 -5 735 0 198 -1 421 -2 495 -2 205 -3 1455 0
1540 2 83 -6 939 -9 955 -6 25 1 76 9 71 5 -3 28 -38 52 -78z m311 45 c24 -55
49 -81 118 -123 l71 -43 102 51 c153 76 259 90 324 43 37 -26 118 -38 126 -18
3 9 -7 20 -31 32 l-37 18 30 13 c43 19 47 18 73 -20 36 -53 36 -155 -1 -225
-29 -56 -28 -71 3 -71 20 0 50 45 50 75 0 8 7 15 15 15 11 0 13 -8 9 -30 -5
-22 -3 -30 8 -30 39 0 51 59 17 82 -19 12 -21 20 -15 61 9 60 36 66 36 8 0
-38 20 -68 39 -57 17 11 39 -5 52 -35 6 -17 32 -44 57 -61 56 -38 70 -50 136
-113 28 -27 71 -66 95 -85 75 -61 96 -86 129 -150 38 -73 34 -82 -36 -68 -97
19 -218 40 -255 45 -23 3 -43 13 -52 26 -13 18 -18 20 -35 10 -15 -10 -26 -9
-54 2 -20 9 -36 18 -36 22 0 4 13 21 30 38 20 21 27 34 20 44 -12 21 -58 -11
-72 -50 -11 -33 -26 -36 -68 -14 -37 19 -40 45 -5 45 28 0 115 73 115 96 0 29
-23 24 -66 -16 -43 -40 -64 -44 -64 -14 0 8 20 39 45 70 25 30 45 64 45 74 0
30 -33 25 -48 -7 -7 -16 -23 -41 -37 -56 -21 -24 -28 -26 -46 -16 -30 15 -45
-4 -52 -65 -4 -45 -3 -49 24 -65 16 -9 29 -20 29 -24 0 -12 -58 1 -100 22 -19
10 -57 23 -84 30 -27 7 -67 25 -90 40 -23 15 -58 36 -78 46 -21 9 -38 21 -38
26 0 5 -4 9 -9 9 -5 0 -40 20 -78 44 -137 89 -139 93 -58 132 47 22 69 26 148
26 99 0 150 -14 187 -54 28 -30 50 -76 50 -104 0 -16 10 -28 34 -39 40 -19 61
-13 47 14 -6 10 -8 27 -5 38 8 28 -97 134 -160 162 -66 30 -215 33 -301 6 -33
-11 -63 -24 -66 -29 -14 -19 -76 16 -132 76 -79 84 -117 168 -76 168 5 0 15
-12 21 -27z m104 -38 c10 -8 29 -15 41 -15 51 0 94 -40 52 -48 -18 -3 -129 56
-129 69 0 13 13 11 36 -6z m2564 -20 c0 -8 -4 -15 -10 -15 -5 0 -10 7 -10 15
0 8 5 15 10 15 6 0 10 -7 10 -15z m100 -15 c0 -10 -5 -22 -10 -25 -13 -8 -24
20 -16 41 8 20 26 9 26 -16z m-995 -201 c16 -16 -30 -10 -51 6 -18 14 -17 15
11 9 17 -4 34 -11 40 -15z m-99 -24 c18 -15 17 -15 -15 -11 -18 3 -38 9 -44
15 -18 18 36 13 59 -4z m131 -50 c23 -13 52 -21 65 -18 15 3 29 -2 37 -11 9
-11 10 -16 2 -16 -22 0 -10 -30 18 -45 30 -15 34 -23 46 -83 8 -41 38 -41 43
1 2 15 8 27 13 27 11 0 69 -88 69 -106 0 -6 9 -23 21 -38 12 -15 28 -52 36
-84 8 -31 21 -69 30 -85 8 -16 12 -31 9 -35 -9 -8 -89 -3 -214 13 -59 8 -125
17 -147 19 -76 10 -200 29 -203 32 -2 1 1 11 7 23 9 16 7 24 -7 38 -10 10 -33
41 -50 70 -25 41 -30 59 -25 87 3 20 8 36 10 36 11 0 49 -24 56 -37 4 -7 24
-20 44 -28 31 -13 39 -13 50 -2 15 15 8 47 -11 47 -6 0 -31 18 -56 40 -25 22
-55 40 -67 40 -12 0 -25 5 -28 11 -10 15 36 108 55 112 16 3 113 -45 142 -70
17 -15 48 -12 48 5 0 14 -54 60 -74 64 -11 1 -21 9 -23 15 -6 18 51 5 104 -22z
m2213 -37 c12 -35 26 -67 31 -72 14 -15 11 -36 -6 -36 -22 0 -51 -48 -37 -62
9 -9 18 -6 37 12 20 19 27 21 40 10 20 -17 19 -33 -5 -48 -11 -7 -20 -19 -20
-28 0 -9 9 -18 20 -21 11 -3 20 -9 20 -14 0 -5 5 -9 10 -9 6 0 8 11 4 26 -5
20 -3 25 7 22 18 -6 46 -55 36 -64 -10 -10 -227 -42 -232 -35 -2 3 0 50 4 103
8 99 19 128 52 128 29 0 44 38 24 60 -19 21 -32 90 -18 90 6 0 20 -28 33 -62z
m-2514 -252 c1 0 18 -25 38 -55 20 -30 44 -60 54 -68 15 -11 11 -12 -28 -7
-43 6 -80 27 -80 46 0 5 -8 27 -19 48 -10 21 -16 42 -13 45 4 4 43 -3 48 -9z
m-600 -265 c-13 -14 -14 -45 -11 -186 2 -94 6 -183 10 -200 26 -132 14 -158
-26 -57 -21 53 -23 73 -23 265 -1 115 1 210 2 212 2 2 17 -1 33 -7 27 -9 29
-12 15 -27z m57 12 c4 -3 17 -8 30 -10 91 -12 208 -33 237 -42 19 -6 48 -11
64 -11 16 0 43 -4 60 -10 17 -5 81 -21 141 -36 61 -14 148 -37 195 -50 78 -22
181 -36 365 -50 39 -3 74 -10 79 -14 11 -11 -2 -80 -15 -80 -5 0 -23 10 -39
22 -23 16 -33 19 -41 11 -9 -9 -5 -20 15 -44 16 -19 26 -40 23 -51 -3 -11 3
-24 15 -32 19 -14 20 -20 12 -93 -5 -43 -9 -91 -9 -108 -2 -52 -5 -65 -14 -65
-4 0 -11 15 -14 34 -7 47 -69 176 -84 176 -23 0 -22 -18 6 -76 36 -75 47 -142
27 -169 -13 -17 -18 -18 -35 -7 -30 18 -32 16 -29 -29 1 -22 -3 -43 -8 -47
-15 -10 -44 -55 -44 -68 0 -45 85 6 110 66 13 31 37 43 26 13 -4 -9 -12 -47
-18 -85 -7 -37 -17 -68 -23 -68 -5 0 -28 -20 -50 -45 -33 -38 -51 -49 -99 -61
-44 -11 -66 -13 -88 -5 -17 6 -34 8 -39 5 -13 -7 -69 25 -69 40 0 7 9 21 20
31 22 20 26 50 9 60 -13 9 -48 -22 -60 -52 -6 -15 -14 -20 -29 -16 -34 9 -34
23 -1 57 33 34 41 70 17 79 -12 5 -42 -25 -77 -76 -9 -13 -49 2 -49 18 0 8 16
31 35 52 39 42 43 58 19 67 -12 5 -31 -8 -61 -40 -48 -49 -67 -51 -83 -9 -13
33 -37 42 -58 21 -27 -27 8 -78 92 -133 39 -26 73 -51 77 -55 3 -4 29 -20 59
-35 64 -33 78 -55 27 -43 -19 4 -40 11 -46 15 -7 3 -24 -1 -38 -10 -26 -17
-26 -17 -19 8 4 16 1 29 -9 37 -19 16 -45 6 -52 -20 -4 -14 -14 -20 -34 -20
-35 0 -46 16 -25 39 21 24 20 38 -4 46 -25 8 -39 0 -50 -31 -6 -14 -18 -24
-30 -24 -28 0 -25 18 10 48 33 29 39 59 13 69 -11 4 -27 -5 -50 -30 -18 -21
-40 -37 -48 -37 -26 0 -16 16 30 49 49 35 52 42 31 60 -17 14 -41 5 -70 -28
-24 -27 -46 -27 -46 -1 0 12 14 29 35 42 24 16 34 29 33 43 -4 24 -30 22 -71
-7 -46 -33 -45 -10 0 28 26 22 40 40 36 49 -8 21 -40 18 -64 -6 -23 -23 -42
-21 -47 4 -2 12 4 17 20 17 27 1 58 22 58 40 0 13 -48 10 -84 -5 -14 -6 -18
-5 -14 5 2 8 20 19 39 25 19 7 35 19 37 28 4 21 -30 30 -61 16 -14 -6 -32 -9
-39 -6 -19 7 -39 75 -49 162 -4 39 -12 95 -18 125 -5 30 -7 98 -4 150 8 141 7
149 -12 170 -15 16 -15 20 -3 20 8 0 18 -3 21 -7z m2127 -23 c0 -5 -10 -10
-22 -10 -19 0 -20 2 -8 10 19 13 30 13 30 0z m-92 -9 c18 -11 -43 -21 -135
-21 -106 0 -89 19 20 23 50 1 94 4 97 5 3 1 11 -2 18 -7z m1802 -26 c30 -3 80
-9 110 -14 30 -6 83 -15 118 -21 35 -6 82 -13 104 -16 23 -3 59 -12 82 -20 23
-8 57 -20 76 -26 19 -5 46 -16 60 -23 14 -7 45 -19 69 -27 65 -21 61 -34 -11
-41 -88 -7 -209 -49 -298 -101 -73 -42 -170 -131 -211 -192 -10 -16 -30 -43
-43 -61 -13 -17 -33 -63 -46 -102 -24 -76 -41 -88 -62 -43 -7 15 -23 28 -36
30 -17 3 -22 10 -22 31 0 35 -44 137 -62 143 -7 3 -25 2 -40 -3 -34 -9 -38 -5
-38 48 0 29 -9 59 -24 86 -14 23 -45 105 -71 181 -26 76 -54 150 -63 164 l-16
25 184 -7 c102 -3 210 -8 240 -11z m-985 -96 c0 -15 -6 -24 -15 -24 -29 -1
-74 -41 -67 -60 4 -10 13 -15 22 -11 8 3 22 9 30 12 11 5 15 -1 15 -19 0 -18
-10 -31 -35 -46 -22 -13 -35 -28 -35 -41 0 -22 28 -28 48 -8 9 9 13 7 18 -7
11 -27 -9 -49 -51 -56 -44 -7 -61 -28 -40 -48 11 -12 19 -12 39 -3 31 14 40 3
26 -33 -5 -14 -10 -37 -10 -51 0 -17 -6 -24 -19 -24 -10 0 -26 -11 -35 -25 -9
-13 -31 -28 -49 -33 -17 -4 -33 -16 -35 -25 -4 -20 16 -22 66 -8 31 9 33 8 30
-12 -2 -18 -11 -23 -48 -27 -56 -7 -70 -15 -70 -42 0 -17 4 -19 25 -14 14 3
36 9 50 12 20 5 25 3 25 -13 0 -26 -25 -59 -34 -45 -7 12 -99 5 -128 -10 -22
-11 -23 -37 -4 -44 8 -3 39 1 70 10 30 9 57 16 61 16 4 0 4 -19 0 -42 -4 -24
-8 -55 -9 -69 -3 -35 -15 -51 -32 -45 -19 7 -30 -22 -15 -37 13 -13 15 -57 1
-57 -10 0 -113 102 -172 172 -20 23 -42 48 -49 55 -9 9 -8 18 5 37 23 36 20
67 -10 100 -24 25 -31 27 -71 21 -42 -6 -48 -4 -79 26 -19 18 -34 38 -34 44 0
6 -12 22 -27 37 -59 56 -92 118 -63 118 13 0 40 54 40 83 0 27 -17 47 -41 47
-9 0 -28 9 -43 21 -34 27 -37 84 -4 92 30 8 38 1 38 -36 0 -53 25 -73 100 -79
43 -3 46 -2 63 34 17 34 17 39 2 67 -18 35 -27 30 100 52 39 6 79 13 90 15 91
18 335 52 350 49 6 -1 10 -13 10 -26z m-850 -79 c19 0 23 -6 29 -50 7 -54 33
-90 64 -90 10 0 27 -6 37 -14 17 -12 18 -18 7 -40 -6 -14 -17 -26 -25 -26 -13
0 -167 203 -167 221 0 6 7 8 16 5 9 -3 26 -6 39 -6z m-372 -47 c18 -25 49 -65
70 -88 48 -54 83 -103 99 -136 16 -32 96 -133 173 -219 92 -102 125 -141 137
-164 6 -12 19 -29 29 -38 37 -36 80 -109 75 -126 -9 -26 10 -113 25 -123 8 -5
24 -8 36 -7 11 2 30 -5 41 -15 13 -12 22 -15 27 -8 12 20 25 11 19 -13 -9 -37
4 -51 27 -30 23 21 35 13 20 -14 -6 -11 -25 -22 -45 -25 -42 -7 -134 13 -167
36 -35 25 -96 21 -155 -9 l-52 -26 -34 25 c-18 14 -49 28 -68 31 -34 5 -61 15
-160 58 -46 20 -65 28 -113 47 -15 6 -42 11 -60 11 -18 0 -52 9 -76 20 -24 11
-53 20 -65 20 -29 0 -76 22 -76 36 0 5 -14 20 -30 33 -17 12 -44 50 -61 84
-29 60 -65 217 -60 267 1 14 3 70 5 125 3 115 26 285 38 285 11 0 10 -9 -7
-122 -18 -123 -11 -220 20 -256 22 -26 45 -24 45 4 0 8 -11 32 -25 52 -25 37
-33 76 -16 86 4 3 11 36 14 73 4 38 10 91 13 120 l6 52 160 0 159 0 32 -46z
m617 28 c5 -11 10 -24 10 -30 0 -15 -33 -14 -55 3 -16 12 -17 16 -6 30 18 21
38 20 51 -3z m2383 -66 c66 -7 124 -18 130 -24 6 -6 18 -11 27 -11 8 0 38 -13
66 -28 140 -75 236 -168 293 -285 55 -110 70 -165 77 -277 5 -78 2 -110 -15
-178 -36 -146 -76 -223 -161 -311 -100 -104 -177 -152 -331 -206 -72 -24 -81
-21 -73 23 4 20 13 49 20 64 16 32 8 88 -13 88 -8 0 -28 -14 -45 -30 -37 -38
-48 -32 -35 20 8 30 8 43 -1 52 -25 25 -152 -60 -152 -103 0 -10 -5 -30 -11
-46 l-12 -28 -9 43 c-8 38 -12 42 -39 42 -21 0 -41 -11 -66 -35 -38 -37 -61
-39 -91 -9 -7 8 -19 14 -27 14 -19 0 -157 138 -191 191 -34 52 -49 84 -77 164
-18 50 -21 84 -22 205 0 151 13 215 62 310 32 61 136 180 181 206 23 14 42 28
42 33 0 7 65 41 165 87 17 7 57 18 89 24 33 5 61 11 63 13 6 7 39 5 156 -8z
m-1726 -182 c-3 -10 -5 -2 -5 17 0 19 2 27 5 18 2 -10 2 -26 0 -35z m-41 -195
c-3 -66 -5 -73 -25 -76 -11 -2 -21 0 -21 3 0 13 42 145 46 145 2 0 2 -33 0
-72z m-476 -79 c7 -11 9 -23 6 -26 -8 -9 -36 17 -36 33 0 21 18 17 30 -7z
m480 -59 c0 -5 1 -13 3 -17 1 -5 -14 -10 -33 -13 -28 -4 -36 -10 -38 -29 -4
-23 -2 -23 36 -17 42 6 58 -7 48 -43 -2 -9 -7 -28 -10 -44 -6 -25 -10 -27 -41
-24 -37 4 -62 -8 -67 -33 -2 -12 8 -15 52 -15 48 0 55 -2 55 -20 0 -16 -7 -20
-36 -20 -38 0 -69 -18 -69 -41 0 -22 17 -25 54 -7 47 22 58 11 63 -61 4 -62
-7 -76 -38 -47 -19 18 -19 20 -3 29 11 6 15 16 10 27 -5 14 -14 16 -46 11 -50
-8 -55 2 -64 117 -6 86 -4 93 27 88 16 -3 87 22 87 30 0 18 -42 31 -66 20 -21
-9 -24 -8 -24 12 0 41 20 96 38 100 32 9 62 7 62 -3z m-573 -282 c38 -37 41
-48 14 -48 -21 0 -61 44 -61 66 0 21 11 17 47 -18z m-931 -23 c10 -8 31 -15
47 -15 15 0 35 -4 45 -10 26 -14 110 -40 132 -40 26 0 86 -22 210 -78 25 -11
67 -23 93 -27 27 -4 47 -10 45 -15 -2 -5 -38 -26 -81 -48 l-78 -39 -36 29
c-20 15 -44 28 -55 28 -10 0 -36 9 -56 19 -20 10 -59 27 -87 36 -145 51 -170
63 -183 89 -7 14 -20 26 -28 26 -9 0 -14 11 -14 30 0 33 15 38 46 15z m1167
-198 c31 -29 57 -57 57 -63 0 -16 -116 -34 -214 -34 l-86 0 0 40 c0 33 -3 40
-20 40 -11 0 -20 5 -20 10 0 6 24 10 53 10 38 0 67 7 98 24 24 14 51 25 59 25
8 0 41 -23 73 -52z m-359 30 c10 -7 22 -35 27 -63 8 -44 21 -63 53 -79 7 -3 7
-7 -2 -11 -7 -3 -17 -17 -22 -30 -9 -22 -15 -24 -78 -24 l-68 0 -1 38 c0 20
-4 58 -8 84 -6 37 -4 53 9 73 18 28 60 34 90 12z m1711 -24 c11 -15 9 -22 -19
-49 -33 -32 -46 -68 -46 -130 0 -25 -4 -34 -16 -34 -31 0 4 165 44 213 19 21
22 21 37 0z m-1861 -96 l7 -68 -38 -15 c-93 -36 -179 -95 -216 -146 -35 -49
-53 -46 -88 14 l-27 46 30 41 c16 23 33 41 37 41 5 0 28 16 52 35 24 19 52 35
61 35 9 0 20 5 24 11 3 6 26 19 49 29 24 10 53 28 65 40 12 12 25 18 30 14 4
-5 10 -40 14 -77z m1956 -43 c0 -6 25 -31 56 -55 31 -24 64 -51 73 -59 9 -9
37 -26 64 -38 66 -32 62 -52 -9 -52 -63 0 -90 12 -173 79 -30 24 -70 50 -88
58 -27 11 -33 19 -33 44 0 16 9 48 21 70 l20 41 34 -39 c19 -21 34 -43 35 -49z
m-750 -24 c35 -38 62 -38 93 -1 18 22 27 27 36 18 6 -6 11 -16 11 -23 0 -6 18
-32 40 -57 40 -45 56 -83 24 -56 -9 7 -29 12 -44 11 -33 -3 -45 10 -32 35 11
20 5 43 -10 43 -5 0 -18 -10 -27 -21 -17 -21 -18 -21 -52 -4 -51 27 -89 57
-89 72 0 22 20 15 50 -17z m1295 -17 c-22 -174 -58 -252 -110 -239 -15 4 -37
0 -56 -10 -18 -9 -43 -14 -58 -11 -15 3 -33 1 -41 -4 -25 -16 17 -39 70 -38
25 1 55 -4 66 -11 16 -10 27 -9 55 3 30 12 38 12 54 1 22 -16 48 -11 87 17 28
19 149 31 165 16 19 -20 -70 -60 -157 -72 -39 -5 -60 -13 -72 -28 -18 -24 -70
-31 -218 -29 -215 3 -306 17 -343 54 -10 10 -28 18 -41 18 -25 0 -106 26 -145
47 -15 7 -36 13 -47 13 -12 0 -27 7 -34 15 -7 8 -19 15 -26 15 -28 0 -103 45
-104 62 0 26 16 31 100 29 77 -2 78 -1 111 34 40 42 90 48 132 15 14 -11 30
-20 35 -20 6 0 21 -13 35 -30 14 -16 45 -37 69 -46 57 -21 83 -32 113 -46 17
-8 37 -9 62 -2 39 9 46 22 60 114 6 41 19 60 41 60 12 0 14 -11 9 -61 -4 -49
-2 -61 11 -66 22 -9 89 70 97 115 9 49 46 120 64 125 9 3 17 5 19 6 2 0 0 -20
-3 -46z m551 -11 c-35 -67 -176 -172 -213 -158 -17 7 -17 26 0 26 22 0 158 96
184 129 30 38 48 41 29 3z m-439 -41 c-4 -52 -40 -109 -72 -117 -14 -3 -29 -4
-32 0 -9 8 37 104 65 138 30 35 44 27 39 -21z m-1112 -90 c7 -12 -12 -24 -25
-16 -11 7 -4 25 10 25 5 0 11 -4 15 -9z m1282 -58 c36 -6 69 -36 58 -52 -4 -8
-13 -7 -28 1 -12 6 -60 13 -107 14 -64 2 -86 6 -88 16 -3 16 79 39 113 31 11
-2 34 -6 52 -10z m-229 -30 c4 -26 -28 -39 -58 -23 -17 9 -18 14 -9 31 15 28
63 23 67 -8z m-2898 7 c0 -5 -4 -10 -10 -10 -5 0 -10 5 -10 10 0 6 5 10 10 10
6 0 10 -4 10 -10z m40 -120 c0 -11 -7 -23 -15 -27 -21 -8 -28 1 -20 26 8 27
35 27 35 1z m1503 -542 c17 -12 49 -25 71 -28 42 -5 50 -14 77 -88 22 -61 107
-78 152 -31 17 19 37 18 37 -1 0 -5 38 -46 83 -92 57 -57 88 -96 97 -123 14
-42 48 -102 72 -126 23 -23 83 -159 97 -220 8 -31 11 -71 8 -90 -14 -82 -37
-165 -61 -215 -14 -30 -26 -61 -26 -68 0 -18 -25 -77 -66 -158 -19 -37 -34
-73 -34 -80 0 -7 -11 -25 -24 -39 -13 -14 -27 -36 -31 -49 -4 -12 -23 -50 -42
-83 -20 -33 -41 -80 -48 -106 -13 -45 -32 -96 -60 -156 -44 -94 -64 -144 -70
-170 -4 -17 -17 -52 -30 -80 -51 -111 -57 -130 -66 -184 -5 -31 -12 -95 -15
-143 -6 -73 -4 -88 8 -88 8 0 23 -7 34 -16 18 -15 18 -15 0 -10 -12 4 -26 -1
-37 -13 -23 -24 -106 -39 -128 -22 -9 6 -37 22 -63 36 -26 14 -55 34 -65 44
-10 11 -35 22 -55 26 -49 9 -67 30 -39 45 16 8 21 21 21 49 0 21 9 64 20 96
29 84 23 215 -13 297 -25 56 -49 159 -43 183 4 14 -2 32 -15 49 -18 23 -19 34
-14 98 4 40 14 102 22 138 8 36 18 81 22 101 11 50 81 149 131 184 23 17 59
44 79 60 70 59 81 61 142 25 30 -17 68 -48 85 -67 21 -25 36 -34 47 -30 47 18
-18 107 -112 154 -66 33 -144 86 -185 126 -15 15 -45 40 -65 55 -20 15 -45 35
-56 45 -11 10 -36 27 -56 38 -20 10 -64 40 -97 66 -32 26 -93 73 -135 103 -47
34 -80 66 -86 84 -13 35 -13 36 -1 36 5 0 16 -13 25 -30 18 -35 64 -50 120
-41 31 5 52 0 105 -25 101 -49 138 -47 160 7 11 26 9 38 -17 107 -17 42 -28
83 -25 90 3 9 17 12 41 9 41 -5 81 10 81 30 0 9 13 13 40 13 44 0 80 27 80 59
0 11 -15 32 -34 46 -19 14 -39 39 -46 54 -6 16 -23 34 -37 40 -22 10 -24 16
-19 43 3 17 6 37 6 44 0 20 17 17 53 -8z m362 -58 c3 -5 1 -10 -4 -10 -6 0
-11 5 -11 10 0 6 2 10 4 10 3 0 8 -4 11 -10z m-2385 -169 c0 -16 12 -55 26
-87 22 -50 25 -68 20 -117 -6 -63 5 -96 50 -150 16 -19 24 -41 24 -68 0 -32 3
-39 20 -39 27 0 58 37 71 83 l10 39 50 -6 c47 -6 50 -6 60 21 6 15 25 40 43
55 18 15 45 52 60 83 25 53 38 63 63 47 9 -6 9 -18 -3 -52 -15 -43 -14 -45 14
-99 16 -31 34 -73 41 -93 16 -49 67 -118 88 -118 9 0 30 4 47 10 17 5 48 12
69 15 20 3 47 16 58 28 33 35 69 95 69 116 0 13 8 21 22 23 13 2 29 15 36 31
19 39 42 35 42 -7 0 -19 -4 -38 -10 -41 -5 -3 -10 -21 -10 -39 0 -24 7 -38 24
-49 23 -15 24 -23 31 -154 4 -76 14 -167 22 -202 7 -35 14 -95 13 -135 -1
-129 9 -309 19 -335 5 -14 12 -54 15 -88 3 -35 12 -78 20 -97 16 -39 54 -77
76 -75 33 3 40 -2 56 -38 8 -21 26 -101 39 -177 16 -93 29 -142 38 -148 12 -6
14 -24 11 -85 -3 -43 -9 -96 -16 -118 -15 -54 -13 -479 2 -548 7 -29 25 -80
41 -115 23 -49 27 -67 19 -82 -6 -11 -15 -20 -20 -20 -5 0 -15 -12 -22 -27 -9
-18 -40 -42 -92 -69 -72 -38 -82 -41 -100 -28 -11 8 -28 14 -36 14 -13 0 -19
21 -29 107 -14 123 -71 355 -106 428 -26 56 -70 152 -85 187 -6 13 -19 37 -30
53 -35 55 -117 210 -125 235 -4 14 -11 30 -16 35 -28 36 -102 335 -86 351 9 9
63 -24 80 -49 29 -45 112 -117 135 -117 37 0 26 34 -30 93 -29 30 -64 69 -76
86 -13 17 -38 39 -55 47 -44 22 -87 64 -87 85 0 9 -6 22 -14 28 -8 7 -17 24
-21 39 -14 55 -174 371 -226 447 -30 43 -58 85 -64 94 -5 9 -22 35 -38 59 -15
23 -49 85 -75 138 -26 53 -55 110 -64 127 -28 53 -86 229 -92 280 -3 26 -12
61 -21 77 -17 33 -19 87 -5 125 12 32 30 24 30 -14z m1496 -348 c75 -65 111
-93 122 -93 6 0 36 -23 67 -52 31 -28 68 -58 83 -65 15 -8 38 -25 52 -37 14
-13 39 -31 55 -39 46 -24 132 -107 117 -113 -31 -14 -124 -90 -199 -165 -69
-69 -83 -88 -88 -123 -4 -22 -10 -54 -15 -71 -14 -45 -14 -200 -1 -285 15
-100 33 -170 66 -260 33 -89 43 -215 23 -299 -20 -84 -35 -86 -110 -15 -64 59
-216 149 -253 149 -15 0 -19 8 -21 40 0 22 -5 52 -9 65 -5 14 -9 36 -11 50 -6
56 -66 178 -114 230 -18 19 -43 59 -56 88 -13 29 -30 52 -39 52 -20 0 -31 59
-40 230 -2 36 -6 106 -9 155 -3 50 -6 105 -6 123 0 19 -6 53 -14 75 -8 23 -15
85 -17 137 -5 116 10 128 56 48 26 -45 36 -54 63 -56 22 -2 34 2 38 12 8 21
27 20 74 -4 22 -11 44 -20 50 -20 19 0 50 40 50 64 0 13 6 26 13 29 8 2 12 30
13 88 1 119 -3 116 60 62z m1222 -520 c2 -14 -7 -28 -28 -43 -35 -25 -52 -20
-27 8 10 10 17 29 17 41 0 29 34 25 38 -6z m702 -142 c0 -44 -12 -72 -26 -58
-8 8 8 107 17 107 5 0 9 -22 9 -49z m-778 -20 c2 -19 13 -28 46 -39 53 -17 74
-52 49 -80 -10 -10 -17 -24 -17 -30 0 -7 -4 -12 -9 -12 -13 0 -23 -32 -13 -42
4 -4 35 -12 67 -16 52 -6 62 -11 82 -40 27 -40 23 -52 -24 -77 -35 -19 -36
-19 -47 -1 -36 60 -54 72 -138 90 -16 4 -28 13 -28 21 0 8 12 26 28 41 66 66
100 124 73 124 -17 0 -101 -89 -152 -162 -20 -28 -20 -30 -4 -49 10 -10 28
-19 41 -19 22 0 51 -9 102 -33 12 -6 22 -19 22 -29 0 -24 -41 -24 -57 1 -20
31 -49 32 -93 0 -22 -16 -44 -29 -48 -29 -10 0 -62 -53 -62 -63 0 -13 76 -85
110 -104 22 -12 39 -32 46 -51 16 -49 28 -57 64 -42 29 12 33 11 64 -19 29
-28 37 -31 54 -22 53 28 75 -14 25 -46 -30 -19 -76 -64 -158 -154 -50 -54
-240 -189 -267 -189 -8 0 -18 -4 -24 -9 -5 -5 -38 -19 -74 -31 -36 -12 -71
-29 -78 -38 -58 -75 -13 275 53 413 13 28 37 86 54 130 26 70 70 164 114 245
40 74 67 132 67 144 0 12 58 147 80 188 6 10 10 24 10 31 0 18 22 39 31 30 4
-5 9 -19 11 -32z m749 -134 c-8 -8 -11 -7 -11 4 0 20 13 34 18 19 3 -7 -1 -17
-7 -23z m-171 -117 c0 -11 -7 -20 -15 -20 -8 0 -15 9 -15 20 0 11 7 20 15 20
8 0 15 -9 15 -20z m-82 -63 c2 -11 -3 -17 -16 -17 -26 0 -34 11 -20 27 14 17
32 12 36 -10z m-87 -34 c0 -5 2 -19 3 -31 2 -15 -3 -26 -13 -29 -9 -3 -37 -13
-63 -24 -55 -23 -82 -16 -115 29 l-23 31 22 7 c16 5 27 0 44 -20 30 -34 43
-33 84 9 32 33 59 45 61 28z m83 -87 c21 -40 14 -60 -17 -50 -29 9 -34 19 -29
54 6 40 23 38 46 -4z m-353 -37 c-13 -11 -26 -17 -29 -14 -8 8 20 35 37 35 12
-1 11 -5 -8 -21z m882 10 c52 -14 48 -31 -5 -22 -24 5 -82 8 -130 8 -133 -1
-90 17 57 23 22 1 57 -3 78 -9z m-667 -60 c10 -16 -15 -29 -56 -29 -20 0 -41
-5 -48 -12 -19 -19 -27 0 -8 21 24 26 99 40 112 20z m-3795 -161 c6 -11 8 -41
3 -74 -4 -37 -3 -54 5 -54 6 0 11 -4 11 -10 0 -23 -28 -7 -63 35 -37 44 -38
46 -25 83 7 20 17 40 22 44 13 9 35 -2 47 -24z m146 -12 c10 -9 10 -20 3 -46
-6 -19 -11 -51 -12 -71 0 -41 -16 -73 -25 -51 -9 24 -35 42 -58 42 -23 0 -23
1 -8 31 9 17 18 51 21 76 5 43 5 44 36 37 17 -3 37 -11 43 -18z m3583 -53 c3
-3 -8 -15 -24 -27 -53 -39 -111 -87 -166 -140 -131 -124 -300 -226 -372 -226
-31 1 -29 3 28 28 33 15 72 35 87 45 14 9 29 17 32 17 8 0 116 82 170 130 22
19 62 61 90 94 57 68 101 99 130 90 11 -4 22 -9 25 -11z m-4100 -36 c99 -22
191 -56 224 -83 17 -13 61 -52 97 -87 63 -60 155 -136 203 -167 71 -46 106
-74 106 -81 0 -5 6 -9 14 -9 7 0 27 -7 42 -15 16 -8 39 -15 50 -15 12 0 41 -7
64 -15 61 -21 236 -22 335 0 79 17 186 56 215 79 8 6 27 18 42 25 14 7 40 26
58 42 17 16 46 36 63 45 18 9 43 26 57 39 33 29 102 55 148 55 44 0 62 14 62
47 0 38 -23 40 -102 8 -10 -4 -18 -3 -18 3 0 9 67 41 118 57 19 6 25 0 42 -42
11 -26 29 -64 40 -83 21 -36 84 -153 122 -225 11 -22 24 -47 29 -55 5 -8 14
-26 20 -40 5 -14 21 -47 35 -74 30 -62 32 -96 4 -96 -13 0 -20 7 -20 19 0 49
-119 52 -209 6 -50 -25 -55 -25 -238 -24 -104 1 -208 2 -233 2 -25 0 -90 -3
-145 -7 -121 -8 -837 -13 -952 -6 -52 3 -78 9 -72 15 15 15 10 44 -9 54 -10 5
-46 14 -81 21 -34 6 -79 20 -100 31 -92 48 -249 51 -341 6 -31 -14 -91 -38
-135 -52 -44 -15 -84 -29 -90 -33 -5 -4 -183 -7 -395 -7 l-385 1 -3 41 c-4 52
4 55 148 59 101 4 223 17 261 29 13 4 19 1 19 -9 0 -23 7 -20 60 24 26 22 51
40 56 40 15 0 160 94 189 123 30 30 131 81 221 112 72 25 129 27 255 10 108
-13 121 -18 254 -84 245 -122 391 -191 401 -191 5 0 39 -15 74 -33 36 -19 100
-46 143 -61 75 -26 86 -28 210 -23 175 7 253 14 340 31 40 8 106 20 147 27 41
6 86 19 100 29 14 9 49 29 78 43 30 15 77 42 105 60 98 63 106 67 142 67 23 0
38 6 41 15 9 22 -14 45 -46 45 -33 0 -149 -60 -201 -104 -79 -67 -221 -127
-309 -131 -25 -1 -92 -10 -150 -20 -60 -10 -156 -18 -225 -18 -138 0 -219 20
-338 81 -40 21 -94 46 -122 57 -27 11 -67 30 -90 43 -22 12 -83 43 -135 67
-52 25 -125 61 -161 80 -98 52 -251 88 -374 89 -95 0 -105 -2 -199 -41 -107
-46 -162 -80 -204 -127 -26 -29 -144 -96 -170 -96 -7 0 -17 -9 -24 -20 -9 -14
-24 -20 -48 -20 -19 -1 -62 -8 -95 -17 -38 -10 -115 -18 -207 -20 l-148 -4 0
45 c0 25 6 48 13 53 6 4 44 8 82 8 136 3 179 16 351 112 121 67 193 115 250
165 66 59 165 108 264 132 79 18 281 15 380 -7z m2661 -96 c84 -40 209 -139
209 -166 0 -7 -9 -23 -19 -36 l-20 -24 -38 36 c-60 57 -160 127 -193 134 -16
4 -32 11 -35 16 -5 8 4 79 10 79 1 0 40 -18 86 -39z m-1011 -35 c0 -2 -7 -7
-16 -10 -8 -3 -12 -2 -9 4 6 10 25 14 25 6z m-120 -66 c0 -5 -8 -10 -17 -10
-15 0 -16 2 -3 10 19 12 20 12 20 0z m1102 -43 c31 -16 60 -36 63 -46 3 -11
33 -36 66 -57 74 -46 87 -73 63 -126 -9 -21 -20 -38 -25 -38 -10 0 -29 -58
-29 -92 0 -24 6 -32 34 -43 97 -41 27 -61 -137 -41 -52 6 -87 -6 -87 -29 0 -8
12 -18 28 -22 44 -12 339 -8 354 4 10 9 21 3 46 -27 17 -21 28 -41 24 -44 -5
-3 -107 -5 -228 -5 -120 0 -230 -1 -244 -3 -29 -4 -27 -19 -33 215 -3 124 0
170 8 173 12 5 124 -55 157 -83 39 -34 54 29 16 65 -30 27 -121 72 -147 72
-19 0 -21 6 -21 61 0 58 14 104 28 97 4 -2 33 -16 64 -31z m-1193 -27 c-31
-26 -130 -86 -158 -95 -14 -4 -21 -2 -21 7 1 7 33 29 73 48 40 19 83 43 96 53
32 23 40 13 10 -13z m-189 -94 c0 -14 -78 -46 -109 -46 -12 1 75 48 107 59 1
1 2 -5 2 -13z m1784 -58 c39 -23 88 -49 108 -59 20 -11 40 -23 43 -29 9 -14
47 -12 88 5 19 8 37 11 41 8 3 -4 6 -24 6 -46 0 -24 8 -51 21 -69 20 -27 20
-33 9 -69 -15 -45 -3 -69 36 -69 17 0 28 -8 34 -25 10 -26 42 -33 70 -15 21
13 39 -6 46 -51 8 -48 19 -57 127 -105 98 -43 116 -58 145 -126 16 -38 18 -49
7 -58 -7 -6 -20 -8 -29 -4 -9 3 -23 1 -31 -6 -12 -10 -15 -9 -15 4 0 9 -6 16
-12 17 -7 0 -60 2 -118 4 -122 3 -225 21 -242 42 -10 12 -7 13 14 8 31 -8 45
17 22 40 -21 21 -39 19 -57 -7 -18 -28 -28 -20 -34 26 -3 33 -2 35 29 38 25 2
33 8 33 23 0 13 -8 21 -21 23 -23 3 -94 -34 -94 -49 0 -16 -28 -10 -34 8 -9
22 14 43 50 47 21 2 29 9 29 22 0 28 -36 28 -77 0 -20 -13 -39 -22 -42 -18
-13 12 -5 42 14 54 11 7 20 18 20 25 0 16 -37 17 -42 2 -5 -16 -48 -1 -48 17
0 8 7 14 16 14 20 0 43 28 44 53 0 25 -30 21 -61 -9 l-26 -25 -21 35 c-11 19
-24 56 -28 81 -5 37 -10 45 -23 40 -19 -8 -20 -8 -48 -6 -26 1 -31 26 -8 35
19 7 20 36 2 36 -8 0 -24 -11 -37 -25 -13 -14 -30 -25 -38 -25 -12 0 -10 6 6
23 28 30 28 41 -3 57 -20 11 -27 11 -40 0 -9 -8 -15 -8 -15 -2 0 6 4 14 10 17
5 3 14 25 20 48 22 85 31 99 58 92 13 -3 56 -24 96 -47z m364 -115 c-5 -25
-28 -28 -28 -4 0 12 6 21 16 21 9 0 14 -7 12 -17z m-3503 -58 c22 -3 54 -12
70 -19 79 -36 107 -46 127 -46 29 0 88 -22 88 -33 0 -4 -35 -5 -77 -2 -43 4
-105 8 -138 9 -39 1 -70 8 -88 20 -23 15 -38 17 -85 12 -112 -14 -232 -19
-232 -10 0 21 232 86 280 78 8 -1 33 -5 55 -9z m-220 -124 c50 -1 104 2 121 5
18 3 60 -3 100 -14 98 -29 257 -39 589 -36 160 2 358 3 440 3 179 0 153 -1
345 6 85 3 207 6 270 6 334 0 487 0 505 1 74 3 85 -1 85 -30 l0 -28 -107 3
c-60 2 -169 10 -243 19 -162 20 -287 20 -452 0 -150 -18 -471 -28 -503 -16
-15 6 -25 5 -27 -1 -2 -7 -92 -11 -258 -11 -140 0 -295 -3 -344 -7 -49 -4
-121 -3 -160 1 -283 32 -350 39 -416 43 -41 3 -85 7 -96 10 -29 7 -319 21
-481 24 -35 1 -63 5 -63 10 0 14 61 16 350 14 140 -1 296 -2 345 -2z m3815
-11 c0 -5 -2 -10 -4 -10 -3 0 -8 5 -11 10 -3 6 -1 10 4 10 6 0 11 -4 11 -10z
m-886 -372 c21 -34 71 -187 63 -195 -4 -3 -14 2 -22 13 -11 15 -18 17 -31 8
-37 -22 -39 -40 -9 -83 36 -53 23 -68 -17 -18 -16 20 -34 37 -39 37 -13 0 -11
-37 3 -60 18 -28 -1 -39 -22 -12 -10 12 -23 22 -29 22 -14 0 -15 -37 -1 -45
17 -11 11 -33 -10 -40 -12 -4 -27 -1 -35 5 -20 17 -38 2 -32 -28 7 -38 -49
-133 -92 -156 -66 -36 -140 -69 -181 -82 -25 -8 -53 -19 -62 -24 -10 -6 -34
-10 -54 -10 -19 0 -43 -4 -52 -9 -10 -5 -38 -11 -64 -14 -25 -3 -55 -10 -66
-16 -18 -10 -71 -23 -134 -35 -15 -2 -30 0 -34 5 -7 12 95 197 133 241 58 67
87 88 119 88 31 0 94 28 94 42 0 4 6 13 13 20 7 7 38 65 69 128 30 63 61 120
69 126 8 6 36 9 62 6 51 -4 58 -12 71 -74 4 -16 13 -28 21 -28 16 0 39 36 31
48 -7 12 30 65 57 82 13 8 42 27 64 42 22 14 51 28 64 31 13 2 27 5 31 6 4 0
14 -9 22 -21z m66 -250 c0 -16 -3 -19 -11 -11 -6 6 -8 16 -5 22 11 17 16 13
16 -11z"/>
<path d="M4420 13412 c0 -4 -12 -7 -27 -7 -16 0 -29 -4 -30 -10 -2 -5 4 -9 12
-9 8 1 31 2 51 3 31 1 35 3 24 16 -13 16 -30 20 -30 7z"/>
<path d="M4528 13412 c-32 -2 -58 -7 -58 -12 0 -9 126 -7 136 2 9 10 -20 13
-78 10z"/>
<path d="M4300 13394 l-25 -14 29 2 c16 2 31 9 34 16 5 16 -7 15 -38 -4z"/>
<path d="M4140 13370 c-38 -38 -22 -53 59 -54 l56 -1 -2 -149 c-1 -109 -5
-151 -14 -157 -7 -4 -43 -5 -80 -2 -62 5 -67 4 -74 -16 -15 -47 25 -63 180
-68 66 -3 152 -4 190 -2 69 3 83 2 169 -2 52 -2 66 5 66 35 0 35 -22 47 -99
56 -38 4 -73 10 -79 14 -6 3 -11 60 -11 135 l-2 129 32 16 c21 10 45 13 75 9
50 -7 74 7 74 43 0 27 -12 28 -175 13 -108 -10 -127 -19 -102 -46 11 -13 13
-23 6 -35 -7 -13 -4 -18 11 -23 11 -3 20 -11 20 -16 0 -6 5 -7 10 -4 15 9 8
-18 -8 -30 -7 -6 -12 -38 -13 -85 -1 -62 -5 -78 -23 -97 -22 -24 -51 -29 -76
-13 -22 14 -24 242 -3 288 9 18 13 36 9 39 -12 12 -48 14 -61 3 -7 -6 -15 -7
-17 -3 -4 11 -67 43 -84 43 -8 0 -23 -9 -34 -20z"/>
<path d="M4350 13330 c0 -5 5 -10 10 -10 6 0 10 5 10 10 0 6 -4 10 -10 10 -5
0 -10 -4 -10 -10z"/>
<path d="M1423 9688 c-6 -7 -29 -71 -53 -143 -23 -71 -51 -150 -62 -174 l-19
-43 -97 5 c-53 3 -128 2 -165 -1 -80 -6 -85 -21 -21 -61 23 -14 61 -40 85 -58
24 -18 59 -43 76 -55 38 -27 39 -39 14 -110 -15 -42 -68 -205 -86 -265 -9 -27
16 -21 58 14 56 47 113 93 147 115 14 10 41 28 60 42 l35 24 45 -26 c25 -14
68 -46 95 -70 60 -54 134 -102 156 -102 9 0 19 7 22 15 6 15 -60 229 -88 282
-21 42 -9 66 48 94 23 12 53 31 67 44 14 12 44 31 68 41 48 21 57 50 17 60
-13 3 -81 4 -150 3 -118 -4 -125 -3 -125 15 0 11 -9 45 -20 75 -28 83 -62 202
-65 235 -4 37 -28 62 -42 44z m27 -131 c0 -13 11 -61 25 -107 33 -111 33 -130
-2 -131 -41 -2 -117 2 -125 8 -4 2 -1 21 8 41 22 53 64 182 64 198 0 8 7 14
15 14 9 0 15 -9 15 -23z m-202 -267 c6 0 12 -8 12 -17 0 -28 -23 -82 -37 -87
-17 -7 -153 82 -153 100 0 11 18 13 83 9 45 -2 88 -4 95 -5z m288 -50 c7 -25
15 -54 19 -65 5 -16 -4 -28 -42 -55 -47 -34 -103 -69 -113 -70 -3 0 -17 10
-32 23 -15 12 -44 33 -63 47 -33 23 -35 28 -30 62 3 20 14 52 25 71 l20 34
102 -1 102 -1 12 -45z m137 40 c26 0 47 -4 47 -10 0 -12 -98 -90 -114 -90 -14
0 -41 85 -31 100 4 7 17 9 29 6 11 -3 42 -6 69 -6z m-338 -276 c0 -11 -88 -84
-102 -84 -3 0 -15 -7 -25 -17 -10 -9 -21 -14 -24 -10 -7 6 18 85 48 156 l18
43 43 -38 c23 -21 42 -44 42 -50z m260 59 c3 -16 14 -50 25 -78 47 -129 45
-147 -11 -89 -19 19 -54 47 -79 61 -45 27 -70 47 -70 57 0 9 104 76 117 76 7
0 15 -12 18 -27z"/>
<path d="M4017 9589 c-22 -13 -13 -29 16 -29 12 0 36 -9 52 -20 40 -26 55 -25
55 4 0 40 -81 69 -123 45z"/>
<path d="M3992 9508 c-21 -21 -13 -30 18 -23 26 6 30 4 30 -14 0 -23 -16 -36
-25 -21 -9 15 -35 12 -35 -4 0 -23 29 -46 59 -46 61 0 84 77 31 105 -35 18
-62 19 -78 3z"/>
<path d="M4303 9472 c-34 -27 -83 -157 -83 -223 0 -46 -17 -54 -60 -27 -28 17
-35 17 -47 5 -16 -16 -6 -50 13 -43 7 3 16 -3 19 -13 3 -10 16 -23 29 -29 32
-14 62 8 86 64 18 41 21 43 61 42 45 0 59 12 59 52 0 31 -8 44 -37 59 -13 6
-23 21 -23 32 0 35 43 20 55 -18 10 -37 17 -40 35 -18 18 22 5 74 -27 107 -31
32 -49 35 -80 10z m2 -152 c0 -22 -29 -18 -33 3 -3 14 1 18 15 15 10 -2 18
-10 18 -18z"/>
<path d="M4040 9149 c-42 -17 -49 -49 -11 -49 10 0 24 -6 30 -14 7 -8 33 -24
58 -36 37 -17 48 -19 54 -8 11 17 12 58 1 58 -4 0 -16 14 -25 30 -14 24 -25
30 -50 29 -18 0 -43 -5 -57 -10z"/>
<path d="M4040 9030 c0 -22 43 -55 60 -45 17 10 11 33 -12 49 -30 22 -48 20
-48 -4z"/>
<path d="M3940 8414 c-22 -20 -43 -47 -46 -60 -7 -29 11 -54 38 -54 10 0 30
-12 44 -27 l25 -28 20 25 c57 71 60 101 18 155 -28 34 -52 32 -99 -11z m67
-50 c8 -20 -8 -36 -26 -25 -15 10 -8 41 9 41 6 0 13 -7 17 -16z"/>
<path d="M4023 8135 c-41 -41 -42 -78 -2 -107 21 -16 35 -18 72 -13 44 7 48
10 59 46 14 48 0 85 -38 99 -41 16 -54 12 -91 -25z m75 -38 c14 -17 -2 -42
-22 -34 -20 8 -21 47 -2 47 7 0 18 -6 24 -13z"/>
<path d="M4076 7928 c-60 -53 -32 -134 48 -140 31 -2 42 2 57 22 32 44 33 73
4 108 -32 39 -72 42 -109 10z m70 -49 c10 -17 -23 -46 -37 -32 -7 7 -9 19 -6
27 7 18 33 21 43 5z"/>
<path d="M5134 6695 c-4 -9 -2 -21 4 -27 15 -15 44 -1 40 19 -4 23 -36 29 -44
8z"/>
<path d="M5158 6603 c-9 -2 -19 -10 -22 -18 -8 -22 16 -34 54 -26 26 5 35 12
35 26 0 20 -30 29 -67 18z"/>
<path d="M5160 6525 c-14 -17 -7 -45 12 -45 22 1 61 36 54 49 -10 16 -51 14
-66 -4z"/>
<path d="M5154 6435 c-9 -22 4 -35 36 -35 27 0 46 22 34 41 -9 15 -64 10 -70
-6z"/>
<path d="M5203 6355 c-24 -17 -31 -49 -13 -60 15 -10 72 35 68 53 -4 23 -29
26 -55 7z"/>
<path d="M2645 8172 c-9 -9 -6 -54 4 -48 4 3 17 -1 27 -9 23 -17 50 -19 59 -4
15 23 -70 81 -90 61z"/>
<path d="M2042 7323 c2 -31 7 -39 26 -41 25 -4 29 13 10 53 -18 39 -40 32 -36
-12z"/>
<path d="M3040 7280 c0 -6 8 -25 17 -43 10 -18 22 -50 28 -71 13 -51 31 -56
39 -13 7 40 -6 82 -36 115 -22 23 -48 29 -48 12z"/>
<path d="M2060 7225 c-18 -21 -5 -45 25 -45 33 0 45 28 20 46 -24 18 -30 17
-45 -1z"/>
<path d="M2097 7124 c-10 -11 -9 -42 3 -49 20 -12 51 6 48 28 -3 22 -36 35
-51 21z"/>
<path d="M2334 7005 c-7 -18 3 -35 21 -35 21 0 28 19 15 35 -16 19 -29 19 -36
0z"/>
<path d="M2375 6946 c-20 -14 -15 -46 8 -46 24 0 48 25 41 43 -7 21 -24 22
-49 3z"/>
<path d="M2461 6889 c-30 -53 -16 -71 29 -39 24 17 30 28 28 48 -5 42 -31 38
-57 -9z"/>
<path d="M2757 6712 c-20 -21 -23 -62 -5 -62 6 0 22 10 34 21 18 17 21 26 13
40 -12 24 -22 24 -42 1z"/>
<path d="M2815 6670 c-3 -4 -2 -16 1 -25 8 -19 49 -16 49 4 0 16 -42 34 -50
21z"/>
<path d="M4257 7177 c-33 -44 -41 -77 -23 -100 16 -20 83 -47 101 -41 18 8 55
73 55 98 0 28 -35 66 -61 66 -10 0 -24 2 -32 5 -8 4 -24 -8 -40 -28z m78 -62
c0 -24 -24 -30 -49 -12 -25 18 -12 39 22 35 19 -2 27 -9 27 -23z"/>
<path d="M4741 7130 c-16 -9 -6 -30 15 -30 15 0 20 25 6 34 -4 2 -14 1 -21 -4z"/>
<path d="M4587 6743 c-4 -3 -7 -15 -7 -25 0 -14 8 -18 35 -18 38 0 59 25 34
41 -17 10 -53 12 -62 2z"/>
<path d="M3230 6992 c0 -21 124 -102 136 -89 11 11 -12 35 -62 65 -57 33 -74
38 -74 24z"/>
<path d="M3230 6919 c0 -28 128 -128 144 -111 7 7 -116 121 -131 122 -7 0 -13
-5 -13 -11z"/>
<path d="M3260 6819 c0 -10 38 -49 71 -74 8 -6 27 -20 43 -33 33 -25 46 -28
46 -9 0 8 -21 29 -47 47 -27 19 -57 44 -68 57 -22 24 -45 31 -45 12z"/>
<path d="M3310 6685 c0 -14 48 -45 70 -45 21 0 9 26 -21 43 -37 21 -49 22 -49
2z"/>
<path d="M6522 7158 c-6 -6 -12 -20 -12 -29 0 -9 -7 -22 -15 -29 -8 -7 -15
-23 -15 -36 0 -14 -4 -32 -9 -42 -5 -9 -23 -53 -39 -97 l-31 -80 -148 0 c-211
0 -213 -1 -213 -28 0 -15 11 -29 33 -41 17 -11 62 -39 98 -62 37 -24 73 -44
80 -44 7 0 25 -12 40 -26 l28 -27 -34 -65 c-19 -36 -35 -71 -35 -79 0 -8 -10
-33 -22 -56 -35 -68 -38 -76 -38 -97 0 -11 6 -23 13 -26 19 -7 136 56 194 104
26 22 65 50 87 62 35 19 40 20 60 5 11 -8 51 -35 88 -60 36 -24 82 -59 101
-77 36 -35 103 -75 111 -67 21 20 -8 153 -62 289 -32 80 -32 96 0 106 11 3 59
30 106 59 86 52 133 97 118 112 -9 9 -150 10 -249 3 -41 -4 -74 -2 -82 5 -8 5
-23 42 -35 80 -12 39 -26 81 -32 95 -6 14 -16 54 -22 90 -9 53 -15 66 -31 68
-11 1 -26 -3 -33 -10z m36 -180 c27 -46 47 -127 35 -139 -6 -6 -33 -7 -66 -3
-65 8 -70 19 -38 82 10 20 21 49 25 65 8 36 20 34 44 -5z m362 -187 c-1 -8
-86 -71 -97 -71 -4 0 -19 -9 -33 -20 -30 -23 -60 -26 -60 -5 0 8 -9 32 -20 52
-11 20 -19 38 -17 39 1 1 42 5 92 9 49 3 91 8 93 10 5 5 42 -7 42 -14z m-328
-1 c39 0 40 -1 69 -65 36 -80 36 -88 2 -106 -16 -7 -45 -24 -65 -36 -49 -30
-57 -29 -109 12 -24 19 -51 35 -60 35 -9 0 -22 7 -29 15 -10 12 -6 22 19 54
17 21 31 44 31 50 0 6 9 20 21 32 16 16 29 20 51 15 17 -3 48 -6 70 -6z m-222
-28 c0 -10 -7 -27 -15 -39 -13 -19 -18 -20 -47 -9 -42 16 -98 49 -98 59 0 4
36 7 80 7 70 0 80 -2 80 -18z m362 -219 c25 -48 56 -159 46 -168 -3 -3 -16 0
-29 7 -37 19 -169 120 -169 128 0 14 92 77 116 79 6 1 22 -20 36 -46z m-303 2
c23 -14 41 -29 41 -34 0 -5 -23 -24 -51 -43 -29 -18 -65 -41 -80 -51 -44 -29
-50 -13 -22 56 14 34 29 73 34 86 10 26 18 25 78 -14z"/>
<path d="M4127 6312 c-38 -42 -29 -122 13 -122 11 0 20 3 21 8 0 4 2 34 2 66
2 64 -9 78 -36 48z"/>
<path d="M1835 2904 c-127 -11 -317 -86 -415 -163 -46 -37 -84 -55 -145 -70
-82 -21 -106 -32 -103 -50 4 -19 61 -27 92 -13 12 5 46 20 76 31 30 12 71 32
90 45 89 58 121 76 133 76 7 0 17 4 22 9 28 26 165 64 250 68 100 5 228 -20
295 -58 8 -5 44 -23 80 -40 36 -17 79 -42 96 -55 17 -13 34 -24 37 -24 3 0 23
-11 43 -25 20 -14 46 -25 58 -25 12 0 31 -6 42 -14 11 -8 56 -21 100 -29 43
-8 86 -17 94 -21 9 -4 24 0 34 7 24 18 15 47 -15 47 -44 0 -286 87 -321 116
-16 13 -37 25 -48 29 -11 3 -20 10 -20 15 0 5 -21 16 -47 26 -27 10 -57 23
-68 30 -34 22 -157 62 -220 73 -33 6 -69 12 -80 14 -11 2 -38 2 -60 1z"/>
<path d="M3890 2736 c-25 -7 -61 -20 -81 -29 -20 -9 -39 -13 -43 -10 -3 4 -6
2 -6 -4 0 -13 -125 -78 -179 -93 -48 -13 -51 -24 -15 -43 23 -12 31 -12 65 5
21 10 43 18 48 18 6 0 37 14 68 32 32 17 77 42 101 54 30 17 56 23 88 21 50
-2 73 15 61 47 -8 19 -44 20 -107 2z"/>
<path d="M4583 2653 c-24 -9 -13 -24 35 -44 26 -11 57 -25 70 -31 31 -16 48 1
33 31 -19 35 -99 60 -138 44z"/>
<path d="M4239 1978 c-7 -14 -8 -23 -2 -25 21 -7 48 -32 42 -38 -4 -3 -23 0
-42 9 -31 13 -36 13 -41 -1 -12 -29 -6 -42 24 -48 20 -4 32 -14 36 -30 9 -37
-2 -54 -14 -23 -17 43 -47 45 -86 6 -33 -33 -56 -69 -56 -87 0 -22 33 -41 71
-41 75 0 138 84 153 202 6 51 -10 81 -51 93 -16 4 -25 0 -34 -17z m-23 -217
c-9 -14 -43 -14 -52 1 -4 6 1 17 12 25 15 11 20 11 32 -1 8 -8 11 -19 8 -25z"/>
<path d="M4380 1675 c-13 -16 -6 -35 15 -35 15 0 24 19 17 38 -6 16 -17 15
-32 -3z"/>
<path d="M6690 3110 c-114 -15 -163 -36 -316 -133 -77 -49 -193 -157 -194
-182 -1 -12 -87 -80 -161 -128 -30 -19 -96 -47 -147 -62 -51 -16 -92 -34 -92
-40 0 -39 65 -41 107 -3 12 11 38 21 60 22 83 5 192 87 333 252 40 46 94 91
136 112 22 11 64 36 94 56 30 20 64 36 75 36 12 0 25 4 31 10 12 12 51 15 85
6 16 -5 29 -3 33 3 12 19 153 -15 206 -50 14 -9 41 -21 60 -28 35 -11 88 -61
190 -177 49 -56 149 -124 182 -124 6 0 51 -19 102 -41 118 -54 316 -86 316
-51 0 4 -43 13 -95 19 -69 8 -112 20 -162 44 -37 17 -94 42 -126 55 -59 23
-157 89 -157 104 0 16 -181 185 -218 204 -20 10 -46 26 -57 35 -24 21 -135 58
-190 64 -22 3 -65 1 -95 -3z"/>
<path d="M7553 1891 c-12 -3 -31 -18 -43 -34 -12 -15 -26 -24 -31 -21 -6 4 -6
11 2 20 9 11 8 14 -9 14 -15 0 -21 -8 -25 -37 -2 -21 0 -42 4 -47 12 -13 11
-53 -1 -75 -7 -14 -31 -22 -92 -31 -111 -17 -148 -34 -148 -64 0 -26 21 -48
42 -45 7 1 46 1 86 0 55 -1 74 -5 79 -16 8 -23 1 -26 -74 -35 -103 -12 -147
-30 -151 -61 -5 -43 25 -51 214 -59 16 0 27 -31 15 -43 -5 -5 -31 -11 -58 -13
-185 -11 -212 -24 -176 -84 9 -17 23 -30 29 -30 7 0 19 -3 28 -6 27 -10 31 24
5 45 l-24 19 30 12 c17 7 49 9 74 6 25 -4 49 -2 57 5 29 24 42 -30 52 -226 6
-104 10 -205 9 -224 -2 -40 12 -48 41 -24 22 19 22 39 -4 213 -8 50 -4 244 4
252 4 3 61 9 127 12 227 11 289 40 250 116 -17 33 -64 43 -169 35 -189 -14
-214 -14 -221 3 -11 31 14 36 167 37 134 0 153 2 156 17 4 19 -13 32 -29 23
-6 -4 -76 -9 -155 -11 -145 -4 -145 -4 -142 18 4 28 33 36 151 41 71 2 92 7
92 18 0 11 -21 14 -105 14 -124 1 -130 2 -108 19 11 8 43 12 95 10 70 -3 81 0
106 21 15 13 27 25 27 27 0 2 -49 2 -110 0 l-110 -3 0 35 c0 19 -4 46 -10 60
-8 21 -6 28 13 41 22 16 122 21 131 7 6 -10 -8 -34 -20 -31 -5 1 -26 1 -47 0
-48 -1 -45 -22 4 -33 105 -22 193 75 91 101 -61 15 -96 19 -119 12z m54 -207
c-3 -3 -12 -4 -19 -1 -8 3 -5 6 6 6 11 1 17 -2 13 -5z m-189 -55 c2 -13 -6
-18 -35 -20 -51 -5 -93 0 -93 12 0 5 12 9 28 9 15 0 34 5 42 10 21 14 54 8 58
-11z m1 -148 c22 -14 5 -41 -26 -42 -15 -1 -47 -2 -70 -3 -23 -1 -49 4 -59 11
-16 11 -15 13 7 21 57 22 124 28 148 13z m394 -59 c24 -21 21 -37 -10 -51 -37
-17 -176 -33 -258 -29 -61 3 -70 5 -73 23 -4 38 13 47 119 59 154 17 201 17
222 -2z"/>
<path d="M3610 1265 c0 -10 10 -15 28 -15 26 1 26 1 8 15 -25 19 -36 19 -36 0z"/>
<path d="M7562 1238 c3 -25 25 -33 47 -19 21 14 5 41 -24 41 -22 0 -26 -4 -23
-22z"/>
<path d="M721 1114 c0 -11 3 -14 6 -6 3 7 2 16 -1 19 -3 4 -6 -2 -5 -13z"/>
<path d="M2502 511 c-25 -19 -20 -31 14 -31 25 0 38 24 21 39 -9 6 -19 4 -35
-8z"/>
<path d="M8735 180 c3 -5 8 -10 11 -10 2 0 4 5 4 10 0 6 -5 10 -11 10 -5 0 -7
-4 -4 -10z"/>
</g>
</svg>
