<?xml version="1.0" standalone="no"?>
<!DOCTYPE svg PUBLIC "-//W3C//DTD SVG 20010904//EN"
 "http://www.w3.org/TR/2001/REC-SVG-20010904/DTD/svg10.dtd">
<svg version="1.0" xmlns="http://www.w3.org/2000/svg"
 width="870.000000pt" height="1437.000000pt" viewBox="0 0 870.000000 1437.000000"
 preserveAspectRatio="xMidYMid meet">
<metadata>
Created by potrace 1.16, written by Peter Selinger 2001-2019
</metadata>
<g transform="translate(0.000000,1437.000000) scale(0.100000,-0.100000)"
fill="#000000" stroke="none">
<path d="M4377 13824 c-2 -2 -98 -5 -214 -7 -158 -2 -215 -6 -227 -16 -12 -10
-20 -11 -29 -3 -9 8 -74 10 -198 7 -366 -9 -1122 -14 -2024 -14 -1103 0 -1056
1 -1073 -14 -10 -8 -12 -24 -7 -56 8 -61 9 -124 1 -191 -5 -46 -7 -618 -3
-865 1 -38 0 -131 -2 -205 -5 -234 -1 -547 9 -790 6 -129 10 -419 9 -645 -3
-593 -2 -712 6 -732 11 -27 13 -153 2 -160 -5 -3 -6 -62 -1 -147 4 -77 8 -184
9 -236 0 -53 5 -101 9 -108 4 -7 1 -23 -7 -35 -12 -19 -14 -117 -11 -682 3
-563 9 -908 17 -1003 1 -12 8 -27 16 -32 11 -6 12 -12 4 -22 -22 -25 -36 -148
-28 -237 4 -47 7 -144 6 -216 -1 -71 -3 -346 -6 -610 -2 -264 -5 -516 -6 -560
-2 -68 -2 -174 0 -335 0 -19 0 -82 1 -140 0 -58 5 -118 10 -135 5 -16 10 -43
11 -60 3 -69 -13 -313 -22 -343 -8 -24 -8 -51 1 -95 8 -45 10 -214 5 -617 -3
-305 -6 -573 -7 -595 0 -22 2 -134 5 -250 4 -115 7 -268 7 -340 0 -71 4 -147
9 -167 6 -27 4 -46 -8 -75 -15 -33 -16 -55 -8 -168 4 -71 6 -175 4 -230 -2
-55 1 -136 8 -180 7 -48 8 -92 3 -110 -7 -26 -12 -527 -8 -1005 1 -156 -9
-430 -15 -441 -3 -3 -5 -51 -6 -107 -2 -70 2 -106 11 -116 10 -13 40 -16 164
-16 989 -1 2854 -10 3231 -15 264 -4 485 -6 490 -6 6 0 66 0 135 0 69 0 148 0
175 0 50 1 817 11 865 11 14 0 126 1 250 2 252 3 234 3 570 0 451 -3 1050 7
1071 19 15 7 24 7 35 -2 10 -8 46 -10 118 -7 75 3 111 1 128 -8 15 -9 57 -13
117 -13 85 1 96 3 116 25 42 46 45 75 38 519 -8 545 -8 456 1 2100 9 1516 11
2342 7 2630 0 11 0 56 0 100 2 303 -3 1664 -6 1810 -2 99 -4 275 -4 390 0 270
-1 358 -7 366 -5 9 -6 616 -2 1809 2 848 -4 1341 -19 1655 -4 77 -8 313 -9
525 -2 537 -15 1038 -29 1060 -3 5 -1 28 4 52 9 37 7 46 -8 62 -15 15 -22 16
-40 6 -17 -8 -31 -8 -58 1 -24 8 -69 9 -137 5 -85 -5 -154 -6 -336 -4 -14 0
-68 0 -120 -1 -52 -1 -250 1 -440 4 -364 7 -2548 14 -2553 9z m3485 -38 c7 4
8 2 4 -5 -9 -13 -26 -5 -25 12 0 9 2 8 6 -1 2 -6 10 -9 15 -6z m-6248 -35 c3
-5 -1 -11 -9 -15 -9 -3 -15 0 -15 9 0 16 16 20 24 6z m-54 -5 c0 -3 -4 -8 -10
-11 -5 -3 -10 -1 -10 4 0 6 5 11 10 11 6 0 10 -2 10 -4z m6429 -11 c10 -10 14
-82 25 -495 3 -107 8 -262 11 -345 3 -82 8 -213 10 -290 3 -77 7 -192 10 -255
4 -121 18 -1452 17 -1675 0 -71 0 -202 0 -290 0 -88 -1 -169 -1 -180 -3 -30
-3 -267 -2 -465 2 -382 2 -1587 0 -1620 -2 -19 -3 -57 -2 -85 12 -493 15 -915
16 -2207 1 -845 -1 -1540 -5 -1544 -10 -9 -87 14 -105 32 -8 8 -32 14 -53 14
-22 0 -43 6 -47 13 -12 20 -55 47 -74 47 -9 0 -42 -25 -74 -55 -36 -33 -68
-55 -81 -55 -13 0 -26 -5 -30 -11 -8 -13 -82 -4 -110 13 -7 5 -11 54 -12 132
-1 120 -3 127 -31 173 -47 75 -72 81 -230 55 -63 -10 -91 -37 -91 -86 0 -35
24 -76 44 -76 27 0 35 24 25 69 -5 24 -7 46 -4 50 18 17 190 15 222 -4 6 -3
25 -191 28 -280 10 -263 17 -361 26 -369 17 -18 9 -42 -32 -101 -34 -49 -39
-62 -30 -77 6 -10 11 -34 11 -53 0 -19 5 -35 11 -35 8 0 9 -21 5 -67 -4 -38
-9 -98 -12 -135 -6 -70 -12 -79 -34 -53 -8 10 -21 13 -34 9 -29 -9 -29 -9 -12
-42 12 -24 22 -30 43 -29 l28 2 -1 -200 c-2 -204 -12 -375 -23 -375 -13 -1
-429 -1 -467 0 -37 0 -43 4 -54 30 -15 36 -2 57 38 62 41 5 32 23 -13 26 -54
4 -64 16 -37 45 20 22 21 25 7 37 -14 12 -14 15 5 35 11 11 20 32 20 46 -5
436 -8 521 -21 530 -11 6 -11 13 -3 26 10 16 27 18 128 17 114 -1 127 3 108
32 -4 6 -19 14 -33 17 -20 5 -26 13 -27 34 -1 16 -4 70 -8 121 -4 63 -2 98 5
105 6 6 11 7 11 1 0 -5 4 -15 9 -23 7 -11 13 -9 30 8 l21 21 -20 20 c-11 11
-20 24 -20 29 0 15 24 29 49 27 34 -2 41 -36 32 -154 -8 -102 -2 -137 31 -184
13 -19 28 -28 46 -28 15 0 22 4 16 8 -19 12 -27 71 -29 202 0 69 -2 211 -4
316 -2 105 -1 197 4 203 4 7 14 10 22 7 20 -8 43 11 43 35 0 11 7 19 15 19 9
0 15 -9 15 -25 0 -14 7 -28 15 -31 26 -10 45 16 45 62 0 37 -4 45 -28 58 -15
8 -40 12 -55 9 -28 -6 -67 -45 -67 -69 0 -8 -10 -14 -22 -14 -13 0 -28 -4 -35
-8 -16 -10 -35 -61 -27 -74 7 -11 -74 -98 -91 -98 -8 0 -12 29 -14 83 -1 45
-4 102 -7 127 -7 72 -10 281 -2 286 12 8 -5 89 -23 110 -11 11 -19 31 -19 45
0 33 -21 98 -43 134 -22 36 -86 70 -116 60 -34 -11 -24 -33 29 -66 51 -31 62
-52 35 -63 -8 -3 -15 -16 -15 -30 0 -14 -4 -27 -8 -30 -13 -8 -82 5 -82 15 0
5 11 7 24 3 31 -7 43 25 26 66 -14 33 -26 40 -61 33 -42 -8 -71 -37 -74 -74
-5 -48 -7 -49 -14 -9 -5 27 -11 36 -30 38 -36 5 -47 -12 -27 -43 12 -19 14
-30 6 -44 -5 -11 -10 -29 -10 -40 0 -27 36 -28 58 -2 14 16 35 20 120 24 93 4
119 -1 93 -18 -11 -6 -5 -94 9 -158 4 -20 4 -39 0 -42 -9 -6 -5 -308 4 -323 3
-5 5 -106 5 -223 -1 -285 0 -326 7 -381 5 -45 4 -48 -21 -58 -14 -5 -37 -10
-51 -10 -38 0 -60 -75 -31 -105 14 -14 31 -151 21 -167 -9 -14 -207 -7 -304 9
-47 8 -112 14 -144 14 -69 -1 -122 27 -133 69 -17 69 -67 98 -138 79 -56 -16
-87 -51 -84 -97 2 -21 -1 -43 -5 -51 -5 -7 -3 -18 3 -24 22 -22 12 -38 -21
-35 -29 3 -33 7 -35 38 -2 19 -5 40 -7 47 -3 6 0 13 5 15 6 2 11 30 12 63 3
73 8 82 59 105 35 16 46 16 94 5 71 -16 127 -56 164 -116 31 -51 39 -56 57
-38 8 8 18 6 36 -6 29 -18 67 -12 67 10 0 19 -32 35 -68 35 -23 0 -32 6 -41
28 -7 16 -25 43 -42 61 -29 33 -36 59 -20 77 6 5 6 65 1 149 -12 194 -12 393
0 416 7 12 21 19 41 19 18 0 28 4 24 10 -3 6 -17 10 -31 10 -16 0 -24 6 -24
18 0 16 10 18 82 17 l83 -1 7 -49 c4 -28 10 -158 13 -290 3 -132 8 -252 11
-266 3 -15 1 -30 -5 -33 -6 -4 -11 -30 -11 -58 0 -39 6 -57 25 -80 14 -16 25
-38 25 -48 0 -26 14 -32 35 -16 17 12 17 18 5 82 -7 38 -13 94 -14 124 -1 51
1 56 28 69 27 12 31 12 43 -5 20 -27 12 -57 -19 -72 -16 -7 -28 -16 -28 -20 0
-15 16 -30 35 -33 13 -3 21 -14 23 -31 4 -33 24 -51 47 -42 17 7 17 23 11 233
-9 304 -15 624 -13 691 1 30 2 117 1 193 -1 145 -7 167 -44 147 -15 -8 -17
-33 -20 -182 -2 -95 -4 -184 -4 -198 0 -14 3 -89 8 -167 l7 -142 -30 -15 c-55
-29 -59 -23 -67 108 -3 50 -11 107 -17 126 -6 19 -10 39 -9 43 6 20 2 56 -11
107 -15 62 -42 74 -63 31 -25 -50 -68 -46 -62 5 2 22 8 29 25 29 19 0 63 42
63 60 0 4 -11 5 -25 3 -29 -6 -32 0 -8 17 23 17 8 38 -18 24 -11 -5 -32 -9
-47 -7 -23 2 -27 7 -25 30 1 21 -3 28 -17 28 -40 0 -68 -19 -81 -55 -9 -23
-21 -38 -37 -42 -30 -7 -72 -73 -72 -113 0 -34 8 -36 50 -15 17 9 30 12 30 8
0 -16 -52 -81 -75 -93 -17 -9 -25 -22 -25 -40 0 -36 21 -53 55 -44 25 6 27 5
20 -15 -4 -12 -2 -27 3 -34 9 -10 32 -193 32 -248 0 -12 -15 -22 -52 -33 -53
-15 -67 -11 -68 22 0 6 -4 12 -9 12 -6 0 -11 23 -13 52 -2 28 -8 53 -14 55
-12 4 -31 -37 -36 -77 -2 -14 -9 -25 -18 -25 -13 0 -15 28 -14 194 0 170 2
194 17 203 11 6 17 22 17 43 0 24 7 39 25 53 19 15 25 29 25 58 0 51 -10 84
-24 84 -14 0 -99 81 -146 139 -51 64 -105 102 -151 108 -22 3 -44 13 -48 22
-5 9 -14 75 -20 146 -12 140 -31 221 -57 239 -24 18 -15 80 12 84 48 7 84 83
80 167 -3 54 7 85 28 85 8 0 19 6 25 14 7 8 31 18 54 21 83 14 78 -4 76 271
-2 227 -1 246 17 266 10 13 25 27 31 31 27 17 63 119 73 205 21 170 29 302 19
334 -5 18 -9 50 -9 71 0 42 -74 288 -97 324 -8 12 -13 27 -12 35 3 27 -1 38
-16 38 -22 0 -18 24 9 49 29 27 24 58 -22 141 -17 30 -40 74 -52 97 -11 23
-25 45 -30 48 -6 3 -10 17 -10 29 0 13 -7 29 -16 37 -8 7 -24 29 -34 48 -17
34 -75 92 -109 110 -9 5 -42 5 -74 0 -64 -10 -75 -5 -92 44 -8 22 -30 39 -95
74 l-85 44 -49 -17 c-44 -15 -49 -15 -57 -1 -5 9 -31 30 -57 48 -45 30 -49 31
-87 19 -41 -13 -53 -14 -241 -10 -60 2 -120 -1 -132 -4 -32 -11 -30 27 3 42
14 6 25 20 25 30 0 24 19 42 46 42 26 0 35 18 22 43 -6 12 -16 15 -33 11 -18
-5 -25 -2 -25 9 0 20 18 26 51 17 37 -11 52 1 43 36 -9 40 -22 54 -50 54 -27
0 -34 34 -9 44 22 8 19 68 -6 115 -18 36 -24 40 -50 34 -21 -4 -29 -2 -29 8 0
26 80 242 95 259 17 19 20 85 5 95 -6 4 -47 9 -93 13 -75 7 -82 9 -80 28 1 11
29 49 63 84 107 111 171 278 175 457 4 192 -53 342 -184 488 -155 172 -384
261 -604 236 -107 -13 -283 -70 -319 -103 -7 -7 -31 -26 -52 -42 -73 -54 -121
-110 -183 -211 -31 -51 -70 -145 -83 -204 -18 -77 -9 -314 14 -366 36 -83 48
-111 57 -127 5 -10 9 -24 9 -31 0 -8 20 -36 45 -63 24 -27 45 -52 45 -55 0 -3
29 -27 65 -54 36 -27 65 -53 65 -56 0 -7 -49 -18 -109 -24 -47 -5 -126 -40
-129 -58 -2 -9 3 -31 12 -49 21 -46 54 -157 58 -193 3 -26 0 -30 -24 -33 -34
-4 -36 -18 -6 -42 l23 -18 -19 -37 c-17 -31 -18 -41 -8 -68 9 -24 9 -39 0 -63
-10 -28 -9 -39 7 -74 10 -22 29 -55 42 -72 12 -18 23 -45 23 -60 0 -28 22 -39
35 -18 13 21 25 9 25 -24 0 -40 28 -66 70 -66 21 0 30 -8 43 -39 26 -58 6
-115 -28 -82 -6 6 -32 13 -60 16 -42 6 -53 3 -71 -13 -36 -34 -94 -108 -94
-121 0 -13 -26 -15 -153 -11 -39 2 -127 -29 -134 -46 -3 -8 -11 -14 -19 -14
-8 0 -14 -4 -14 -8 0 -5 -18 -29 -41 -53 -23 -24 -53 -59 -66 -76 -14 -18 -33
-33 -43 -33 -18 0 -98 -80 -119 -118 -8 -15 -8 -34 0 -72 8 -38 8 -55 0 -63
-16 -16 -13 -74 5 -102 21 -32 11 -56 -33 -80 -27 -15 -37 -26 -35 -40 1 -11
7 -52 12 -92 5 -40 13 -80 18 -90 5 -10 12 -38 15 -63 3 -25 13 -50 23 -57 14
-11 15 -18 5 -58 -6 -25 -14 -66 -16 -93 -3 -26 -10 -81 -17 -122 -13 -87 -16
-283 -6 -352 4 -26 13 -62 21 -80 34 -75 37 -97 21 -141 -8 -23 -18 -49 -21
-59 -2 -9 7 -36 21 -60 14 -25 26 -52 26 -61 0 -16 -55 -62 -103 -87 -38 -19
-91 -74 -130 -134 -35 -55 -37 -76 -23 -256 10 -122 12 -128 43 -132 26 -3 27
-4 30 -87 4 -90 -4 -111 -42 -111 -55 0 -78 -25 -134 -146 -30 -65 -54 -130
-53 -146 0 -16 -5 -43 -13 -61 -17 -40 -9 -83 21 -124 17 -23 24 -45 24 -78 0
-62 -17 -56 -54 18 -19 38 -35 57 -47 57 -10 0 -21 5 -24 10 -9 15 -108 12
-129 -3 -14 -10 -19 -31 -22 -87 -2 -40 -7 -76 -10 -79 -3 -3 -23 -6 -45 -7
-22 0 -45 -6 -52 -13 -8 -8 -12 -56 -13 -152 -1 -77 -5 -155 -8 -173 -7 -35 0
-66 15 -66 18 0 32 92 31 218 0 131 0 132 24 138 40 10 54 -1 54 -45 0 -48 8
-71 25 -71 9 0 14 40 19 147 5 95 12 150 19 155 16 11 90 -1 99 -16 4 -6 8
-66 8 -133 0 -108 2 -125 19 -142 14 -14 21 -37 23 -78 3 -55 4 -58 30 -61 26
-3 28 -7 28 -46 0 -24 3 -64 6 -90 6 -41 5 -46 -12 -46 -11 0 -39 17 -63 38
-39 33 -44 43 -49 90 -4 42 -8 52 -23 52 -14 0 -19 -7 -19 -28 0 -19 -11 -39
-36 -63 -20 -18 -57 -61 -82 -93 l-46 -59 -25 51 c-23 47 -28 52 -58 52 -26 0
-34 5 -39 25 -3 14 -3 33 0 42 11 28 -5 153 -20 153 -17 0 -21 -34 -12 -91 5
-26 4 -57 -1 -70 l-9 -24 -10 26 c-6 15 -8 37 -5 49 5 20 3 22 -24 16 -24 -6
-32 -3 -37 10 -11 29 -23 180 -32 402 -3 94 -9 141 -19 156 -8 13 -13 25 -10
28 3 3 0 10 -7 16 -24 19 -90 53 -95 48 -3 -2 -13 4 -24 15 -21 21 -67 19
-119 -5 -28 -13 -27 3 -18 -248 4 -99 10 -153 18 -163 11 -13 9 -19 -9 -36
-19 -18 -20 -26 -15 -89 l7 -70 -35 0 c-23 0 -38 -6 -42 -15 -11 -28 -23 -15
-30 32 -4 27 -15 93 -24 147 -15 84 -22 102 -43 115 -13 9 -25 19 -27 24 -6
13 -139 8 -150 -6 -6 -6 -9 -39 -7 -72 7 -123 5 -359 -3 -367 -13 -13 -38 0
-57 28 -19 30 -34 134 -23 165 6 16 4 27 -6 37 -13 13 -16 11 -29 -20 -9 -21
-13 -53 -10 -84 5 -51 -16 -114 -37 -114 -6 0 -13 -1 -17 -2 -5 -2 -10 15 -13
37 l-5 40 -70 5 -70 5 -8 135 c-4 74 -5 169 -2 210 3 41 1 90 -4 108 -13 44
-2 172 15 179 18 7 68 -33 74 -60 6 -23 40 -34 125 -38 38 -2 50 0 50 11 0 11
-15 17 -50 20 -40 4 -51 9 -53 25 -6 27 -21 45 -41 45 -9 0 -33 18 -54 40 -20
22 -44 40 -52 40 -10 0 -15 10 -15 27 0 26 -1 26 -17 10 -16 -15 -26 -62 -38
-177 -3 -25 -11 -56 -17 -69 -11 -20 -9 -26 15 -47 37 -32 37 -66 0 -64 -74 5
-82 -13 -33 -76 24 -29 30 -46 28 -73 -4 -41 -28 -56 -28 -17 0 33 -17 33 -32
1 -9 -19 -8 -38 0 -76 7 -28 12 -64 12 -80 0 -25 4 -29 29 -29 31 0 34 -5 46
-92 6 -38 4 -49 -8 -54 -27 -10 -57 14 -57 47 0 34 -34 53 -78 43 -38 -9 -50
-21 -57 -55 -4 -16 -13 -29 -21 -29 -12 0 -13 40 -9 261 2 143 7 265 10 270 4
5 11 7 16 4 5 -4 13 5 18 18 14 37 30 42 55 18 27 -26 33 -26 46 -2 20 39 3
52 -66 50 -35 -1 -66 0 -69 3 -2 2 -5 188 -4 414 0 225 -2 508 -3 629 -3 237
1 2331 4 2480 1 50 -2 272 -7 495 -9 397 -13 1768 -6 1925 6 129 -10 1305 -19
1360 -4 27 -6 408 -4 845 4 835 8 1062 19 1080 7 12 319 5 483 -11 117 -11
518 -13 536 -2 13 9 320 12 1701 16 578 2 1136 7 1240 10 428 15 1482 26 1720
18 109 -3 1077 7 1081 12 1 1 122 2 268 2 169 0 269 -4 275 -10z m-3679 -3684
c92 -32 136 -56 210 -119 76 -63 106 -101 156 -197 40 -76 52 -126 61 -249 8
-117 -12 -196 -90 -355 -25 -51 -162 -176 -237 -215 -81 -43 -74 -42 -282 -51
-170 -8 -222 2 -328 65 -87 51 -193 161 -238 245 -58 108 -88 295 -63 390 5
22 15 59 21 83 44 178 224 356 415 412 89 26 287 21 375 -9z m414 -1212 c5 -4
3 -18 -6 -31 -15 -23 -67 -175 -88 -256 -8 -31 -15 -42 -25 -38 -21 8 -218 20
-315 20 -205 -1 -519 -27 -599 -50 -68 -19 -104 -13 -96 19 3 12 -8 76 -25
141 -33 128 -33 130 20 141 14 3 51 12 83 21 32 8 62 12 68 9 5 -4 9 -26 9
-51 0 -55 21 -99 52 -108 58 -15 150 0 170 28 3 5 4 33 1 62 l-6 52 99 7 c55
3 128 10 164 15 38 4 69 4 75 -1 5 -5 12 -33 15 -62 l5 -52 100 1 100 0 -4 62
c-2 35 2 68 8 75 12 15 179 12 195 -4z m-248 -34 c10 -42 -1 -57 -43 -53 -50
4 -59 39 -16 62 40 21 52 20 59 -9z m-628 -5 c9 -5 29 -14 43 -19 18 -6 28
-19 32 -38 7 -39 2 -43 -50 -39 -52 4 -73 24 -73 66 0 40 14 49 48 30z m312
-345 c0 -32 17 -32 52 2 l29 27 6 -22 c7 -28 36 -28 56 1 l16 22 23 -28 c16
-19 32 -27 53 -26 17 1 44 -1 60 -4 17 -3 36 -6 43 -6 23 -2 12 -31 -14 -37
-26 -7 -27 -13 -8 -58 7 -19 5 -18 -29 3 -35 22 -42 22 -117 12 -120 -16 -132
-25 -136 -99 -3 -64 0 -70 41 -78 20 -4 26 1 31 23 10 43 15 46 35 24 23 -25
47 -27 56 -5 4 11 13 13 35 9 27 -6 29 -5 26 17 -2 17 -10 24 -31 26 -36 4
-33 36 4 40 19 2 36 -8 68 -40 27 -27 45 -38 48 -30 8 22 22 13 23 -15 5 -109
0 -147 -24 -182 -20 -29 -25 -53 -30 -124 -3 -49 -10 -95 -16 -103 -7 -7 -33
-25 -58 -40 -26 -14 -59 -40 -73 -57 l-26 -31 -64 22 c-56 19 -73 20 -138 12
-56 -8 -78 -7 -90 3 -25 19 -60 37 -72 37 -20 0 -73 71 -97 129 -12 30 -33 67
-47 81 -23 25 -24 27 -15 122 12 122 38 181 77 176 35 -4 39 -22 8 -36 -50
-23 -24 -62 27 -41 27 11 32 10 44 -6 13 -17 15 -16 41 14 35 40 51 39 69 -4
17 -42 28 -44 50 -10 14 22 15 32 5 65 -13 45 -61 75 -115 71 -118 -8 -176
-10 -176 -5 0 3 15 23 32 45 29 36 36 40 64 35 24 -5 52 4 130 44 54 27 104
50 111 50 7 0 13 -11 13 -25z m570 -581 c0 -8 -4 -12 -10 -9 -5 3 -10 10 -10
16 0 5 5 9 10 9 6 0 10 -7 10 -16z m475 -84 c3 -5 2 -10 -4 -10 -5 0 -13 5
-16 10 -3 6 -2 10 4 10 5 0 13 -4 16 -10z m42 -102 c-3 -8 -6 -5 -6 6 -1 11 2
17 5 13 3 -3 4 -12 1 -19z m-789 -5 c-4 -22 -48 -31 -48 -10 0 19 10 27 32 27
13 0 18 -6 16 -17z m-343 -13 c3 -5 25 -7 50 -3 34 4 55 0 92 -17 132 -61 124
-51 93 -117 -21 -47 -55 -63 -96 -44 -14 6 -33 11 -43 11 -12 0 -21 10 -25 25
-9 35 -20 31 -55 -17 -41 -58 -72 -88 -92 -88 -9 0 -42 -11 -73 -25 -31 -14
-61 -25 -67 -25 -26 0 -97 -42 -129 -76 -19 -20 -54 -49 -78 -64 -72 -47 -79
-62 -81 -174 -1 -55 -4 -103 -7 -108 -9 -15 -34 -8 -34 10 0 9 -7 35 -14 57
-8 22 -17 66 -21 97 -6 49 -4 62 15 93 13 20 45 54 73 76 64 51 107 105 107
135 0 34 -25 30 -40 -7 -13 -30 -76 -87 -86 -77 -5 5 39 93 59 118 22 27 96
80 111 80 9 0 16 4 16 9 0 5 16 15 35 21 19 6 35 15 35 19 0 8 57 35 160 75
72 28 86 31 95 16z m1065 -7 c0 -8 -14 -13 -40 -13 -36 0 -49 8 -35 21 11 11
75 4 75 -8z m-460 -13 c0 -5 -12 -10 -26 -10 -14 0 -23 4 -19 10 3 6 15 10 26
10 10 0 19 -4 19 -10z m-250 -60 c21 -21 21 -36 -6 -112 -7 -21 -11 -39 -9
-39 3 -1 10 -2 17 -3 13 -1 33 -54 24 -64 -4 -3 -21 2 -38 13 -17 10 -50 23
-72 30 -50 15 -60 45 -23 69 13 9 30 35 37 59 23 71 36 81 70 47z m194 -15
c52 9 141 9 186 1 19 -4 60 -11 90 -15 72 -11 173 -42 182 -55 4 -6 8 -21 8
-33 0 -27 -1 -27 40 -6 32 16 35 15 71 -5 25 -14 55 -22 87 -22 73 0 110 -16
114 -48 2 -23 8 -27 33 -27 45 -1 58 -10 111 -78 79 -100 99 -145 125 -282 16
-89 -17 -201 -59 -193 -18 3 -19 22 -6 68 l7 25 -21 -25 c-29 -36 -37 -19 -10
22 13 19 30 53 38 77 12 38 12 45 -3 71 -9 15 -17 35 -17 44 0 10 -9 16 -25
16 -18 0 -25 -5 -25 -19 0 -11 4 -22 9 -26 5 -3 12 -18 16 -33 7 -33 -33 -112
-69 -135 -18 -12 -22 -22 -18 -45 4 -28 1 -31 -34 -41 -56 -16 -64 -14 -64 14
0 16 11 32 30 47 17 12 30 27 30 33 0 7 11 29 25 50 38 55 20 57 -31 2 -25
-27 -60 -55 -78 -62 -29 -12 -32 -17 -29 -47 l4 -33 -20 25 c-24 30 -27 50 -6
50 18 0 19 23 3 50 -10 15 -10 22 0 32 23 23 12 31 -13 8 -28 -27 -46 -19 -26
11 23 38 0 35 -31 -3 -28 -36 -58 -50 -58 -28 0 5 13 34 30 64 18 35 25 58 19
62 -12 7 -32 -17 -50 -58 -6 -16 -15 -28 -20 -28 -14 0 -11 35 6 66 33 63 10
73 -29 14 -44 -67 -77 -48 -45 27 10 22 15 44 12 47 -8 8 -33 -14 -33 -29 0
-17 -37 -48 -48 -41 -6 3 -2 21 9 42 18 36 17 54 -1 54 -5 0 -19 -18 -30 -40
-11 -22 -27 -40 -35 -40 -8 0 -15 1 -15 3 0 1 7 24 15 51 17 56 5 88 -16 43
-18 -40 -38 -34 -35 9 2 19 8 40 15 47 13 13 15 47 2 47 -5 0 -14 -7 -21 -15
-11 -13 -14 -13 -25 2 -12 16 -15 14 -31 -20 l-18 -39 24 -19 25 -19 -25 0
c-50 0 -65 40 -30 80 22 25 25 36 11 44 -5 3 -19 -10 -32 -29 -26 -38 -35 -39
-55 -9 -11 16 -9 26 7 58 36 75 18 92 -21 21 -21 -38 -29 -45 -50 -43 -34 4
-38 38 -10 83 12 19 19 39 15 45 -10 16 -23 3 -50 -50 -18 -36 -29 -48 -41
-43 -11 4 -14 12 -9 27 23 72 11 91 -22 36 -17 -29 -43 -41 -43 -20 0 6 9 29
21 52 15 29 18 43 10 51 -8 8 -15 5 -25 -8 -12 -17 -17 -18 -40 -7 -30 13 -32
23 -12 60 8 15 17 35 20 45 5 17 8 17 37 1 23 -11 43 -14 73 -9z m685 -69 c9
-10 8 -15 -1 -18 -22 -7 -81 6 -86 20 -5 17 72 16 87 -2z m219 -83 c39 -40 20
-46 -31 -11 -18 13 -34 24 -36 25 -2 1 -1 10 3 19 7 18 19 12 64 -33z m-1198
-84 c27 -32 47 -35 114 -18 40 10 48 8 102 -19 79 -41 184 -119 184 -137 0 -8
4 -15 10 -15 13 0 101 -136 127 -197 47 -113 54 -157 50 -299 l-4 -134 -39
-29 c-68 -51 -101 -86 -122 -134 -11 -25 -18 -54 -16 -64 7 -27 -28 -67 -99
-114 -123 -82 -227 -123 -302 -119 -16 1 -65 1 -108 1 -99 -1 -202 20 -262 53
-25 14 -54 26 -64 26 -21 0 -142 113 -195 183 -121 159 -158 339 -112 549 17
77 31 107 99 207 65 95 114 142 207 196 106 62 181 87 275 92 44 2 81 6 84 9
10 10 47 -10 71 -37z m-857 -308 c10 -38 17 -78 17 -89 0 -11 7 -27 15 -36 13
-13 14 -27 4 -105 l-12 -90 -59 -21 c-34 -12 -58 -27 -58 -36 0 -19 12 -18 59
7 22 11 45 18 50 15 5 -3 12 -30 16 -59 4 -28 13 -67 21 -86 29 -71 7 -98 -93
-115 -49 -8 -68 -15 -68 -26 0 -24 108 -23 136 1 25 21 44 20 44 -2 0 -8 -23
-22 -55 -32 -59 -20 -78 -37 -54 -50 19 -11 70 0 111 23 31 18 31 18 53 -5 21
-22 21 -24 3 -33 -10 -5 -47 -15 -83 -21 -137 -26 -172 -49 -112 -72 19 -7 38
-7 63 0 43 13 76 14 83 3 3 -5 -1 -30 -9 -57 -19 -61 -19 -63 3 -61 10 0 16
-5 13 -14 -13 -50 -13 -60 1 -60 9 0 23 27 36 69 21 65 44 93 57 71 4 -6 -8
-39 -26 -75 -17 -36 -29 -71 -25 -80 11 -30 29 -10 46 51 23 80 35 101 63 108
29 7 87 -19 87 -39 0 -8 -8 -29 -19 -47 -27 -48 -35 -88 -17 -88 9 0 20 16 26
39 6 22 18 49 28 60 l17 21 29 -23 30 -24 -22 -28 c-12 -15 -22 -34 -22 -41 0
-23 27 -4 40 27 9 20 19 29 36 29 20 0 24 -5 24 -30 0 -36 27 -42 32 -7 4 29
38 33 144 17 56 -8 93 -9 117 -2 24 7 49 7 74 0 21 -5 50 -12 65 -15 15 -3 34
-13 43 -23 14 -15 14 -20 0 -46 -8 -16 -20 -53 -27 -82 -13 -59 -22 -70 -44
-51 -9 7 -18 8 -24 3 -10 -11 -50 -128 -50 -148 0 -23 -62 -37 -75 -16 -5 9
24 91 67 188 20 46 16 71 -8 51 -8 -6 -14 -16 -14 -21 0 -5 -13 -38 -29 -71
-28 -62 -34 -78 -45 -130 -6 -24 -11 -28 -34 -25 -41 5 -39 36 8 123 40 74 46
118 10 73 -33 -43 -78 -125 -85 -157 -5 -23 -12 -31 -23 -29 -39 7 -21 106 30
163 18 21 28 41 24 51 -3 8 -10 13 -16 9 -22 -14 -72 -99 -89 -152 -10 -31
-24 -59 -31 -61 -18 -6 -7 47 25 117 16 34 22 58 16 64 -13 13 -69 -87 -77
-136 -6 -32 -27 -57 -48 -57 -14 0 -4 54 19 106 28 64 31 84 11 84 -14 0 -19
-11 -56 -112 -22 -59 -40 -76 -40 -37 0 12 7 37 16 56 12 24 14 37 6 45 -8 8
-18 -4 -36 -43 -13 -30 -27 -62 -30 -71 -3 -10 -11 -18 -17 -18 -19 0 -1 65
36 129 14 24 10 51 -7 51 -5 0 -27 -38 -49 -85 -25 -55 -45 -85 -55 -85 -13 0
-15 7 -9 42 4 24 14 60 21 82 16 46 18 66 4 66 -18 0 -41 -47 -57 -119 -19
-80 -41 -93 -68 -41 -14 27 -14 33 6 75 15 32 19 49 11 57 -16 16 -29 2 -48
-50 -9 -26 -24 -54 -31 -62 -13 -13 -14 -8 -12 36 3 62 -8 85 -28 59 -7 -11
-13 -31 -13 -45 0 -39 -22 -64 -48 -55 -20 6 -22 13 -20 58 4 65 -18 71 -39
12 -20 -59 -30 -64 -57 -31 -24 31 -46 29 -46 -5 0 -12 -5 -19 -12 -17 -24 8
-19 46 12 97 17 28 28 55 25 61 -9 15 -31 -4 -62 -53 -25 -41 -50 -45 -45 -8
2 12 21 52 42 89 23 40 35 71 29 76 -10 11 -29 -10 -59 -66 -22 -41 -21 -41
-44 -32 -18 7 -21 35 -7 49 24 25 59 105 48 112 -6 3 -13 1 -15 -5 -6 -20 -34
-43 -46 -39 -6 2 -10 19 -8 40 4 38 -5 46 -26 25 -25 -25 -12 17 18 55 16 22
26 45 23 53 -7 18 -31 5 -46 -26 -7 -13 -18 -25 -24 -28 -24 -7 -13 26 22 72
40 53 44 71 15 79 -14 4 -20 14 -20 32 0 15 -8 33 -17 40 -15 11 -15 18 -4 71
15 67 35 104 56 104 8 0 19 9 25 20 13 25 40 26 40 2 0 -11 -7 -34 -16 -52
-19 -37 -19 -41 -5 -197 7 -77 17 -125 31 -152 32 -63 82 -88 128 -62 23 12
24 16 17 84 -7 69 -17 97 -36 97 -15 0 -10 -43 8 -62 13 -14 14 -21 5 -30 -7
-7 -12 -22 -12 -35 0 -29 -22 -30 -60 -3 -24 17 -29 30 -39 97 -16 109 -17
219 -3 278 31 128 45 264 30 282 -14 18 9 50 82 114 33 30 60 59 60 65 0 6 18
32 40 57 22 25 40 52 40 61 0 39 18 10 33 -53z m1477 5 c0 -3 -4 -8 -10 -11
-5 -3 -10 -1 -10 4 0 6 5 11 10 11 6 0 10 -2 10 -4z m84 -35 c3 -5 -1 -14 -8
-20 -16 -13 -32 2 -21 19 8 12 22 13 29 1z m76 -50 c0 -27 -20 -47 -34 -34 -8
8 -8 48 1 56 16 17 33 5 33 -22z m-34 -93 c-4 -82 -6 -90 -18 -86 -16 6 -16
68 0 101 7 15 15 27 17 27 1 0 2 -19 1 -42z m104 33 c0 -14 -18 -23 -30 -16
-6 4 -8 11 -5 16 8 12 35 12 35 0z m70 -9 c0 -5 -3 -12 -7 -16 -5 -4 -8 -17
-8 -29 0 -11 -6 -22 -12 -24 -14 -5 -19 58 -6 70 9 10 33 9 33 -1z m-62 -129
c25 22 39 22 47 -3 9 -27 -3 -42 -26 -35 -10 4 -26 2 -36 -3 -22 -13 -63 13
-63 38 0 27 23 31 42 7 16 -20 17 -21 36 -4z m160 -5 c2 -9 -7 -26 -20 -38
l-23 -21 -3 26 c-2 15 -1 33 2 42 8 19 40 13 44 -9z m-2161 -22 c-4 -9 -13
-16 -22 -16 -18 0 -19 5 -4 32 13 24 35 9 26 -16z m2385 -12 c3 -3 -1 -23 -10
-45 -11 -29 -21 -39 -37 -39 -28 0 -49 -24 -41 -46 4 -10 16 -14 38 -12 32 3
33 2 30 -32 -4 -39 -19 -63 -36 -57 -6 3 -19 0 -28 -5 -22 -11 -24 -58 -3 -58
27 0 26 -23 -3 -80 -20 -38 -38 -59 -60 -69 -33 -15 -43 -46 -21 -68 8 -8 6
-17 -11 -35 l-21 -23 -18 22 c-10 12 -26 21 -36 20 -27 -3 -48 72 -33 114 18
53 -9 176 -50 222 -14 15 -13 20 4 52 22 41 10 64 -24 46 -22 -12 -32 -6 -32
21 0 17 5 19 30 13 17 -4 69 -12 115 -19 98 -15 115 -10 166 48 28 33 65 46
81 30z m-144 -16 c-6 -18 -28 -21 -28 -4 0 9 7 16 16 16 9 0 14 -5 12 -12z
m-2250 -70 c-2 -28 -8 -34 -30 -36 -33 -4 -38 20 -11 50 26 29 45 23 41 -14z
m1941 4 c18 -25 20 -44 20 -151 -1 -68 -5 -137 -10 -154 -11 -38 -7 -42 23
-25 35 20 37 27 31 94 -3 34 -3 70 1 80 6 16 8 16 25 0 28 -25 40 -91 30 -161
-15 -113 -15 -110 4 -107 21 4 22 7 -7 -80 -22 -68 -32 -81 -133 -188 -61 -63
-137 -144 -171 -180 l-60 -64 -59 2 c-155 8 -193 16 -194 45 -3 58 3 105 17
134 18 40 34 51 34 24 0 -11 -4 -23 -10 -26 -5 -3 -10 -15 -10 -26 0 -25 30
-25 37 1 3 11 9 20 13 20 5 0 20 20 35 45 26 46 26 46 24 195 -1 38 37 225 51
250 20 37 63 69 93 70 15 0 27 -5 27 -11 0 -16 -33 -69 -43 -69 -17 0 -37 -68
-28 -93 18 -46 54 -48 114 -7 25 17 51 30 58 30 8 1 24 9 36 19 22 18 22 24
17 147 -3 71 -7 141 -9 156 -5 31 3 58 15 58 5 0 18 -13 29 -28z m-2089 -283
c0 -19 -5 -29 -15 -29 -15 0 -20 26 -9 54 9 24 24 9 24 -25z m30 -98 c0 -12
-20 -25 -27 -18 -7 7 6 27 18 27 5 0 9 -4 9 -9z m2668 -68 c2 -8 -5 -13 -17
-13 -12 0 -21 6 -21 16 0 18 31 15 38 -3z m-2133 -43 c-3 -5 -11 -10 -16 -10
-6 0 -7 5 -4 10 3 6 11 10 16 10 6 0 7 -4 4 -10z m1721 -31 c23 -25 9 -53 -30
-57 -29 -4 -33 9 -16 52 12 31 21 32 46 5z m-726 -114 c0 -21 -138 -177 -150
-170 -24 15 49 149 90 164 28 10 60 14 60 6z m650 -17 c-1 -13 -45 -68 -55
-68 -11 0 -4 23 16 51 21 30 39 38 39 17z m-592 -15 c-5 -25 -28 -28 -28 -4 0
12 6 21 16 21 9 0 14 -7 12 -17z m762 -33 c-11 -20 -30 -28 -30 -12 0 11 22
32 32 32 5 0 4 -9 -2 -20z m-816 -62 c-4 -18 -8 -79 -9 -135 0 -109 -9 -128
-41 -92 -27 30 -36 115 -16 169 26 75 83 125 66 58z m496 -68 c0 -5 -4 -10
-10 -10 -5 0 -10 5 -10 10 0 6 5 10 10 10 6 0 10 -4 10 -10z m-602 -105 c6
-27 14 -60 17 -72 6 -19 3 -23 -12 -23 -11 0 -28 9 -38 20 -10 11 -26 20 -35
20 -24 0 -39 20 -42 56 -3 40 9 57 36 50 11 -3 28 -1 36 4 20 13 27 3 38 -55z
m756 36 c3 -5 -1 -14 -9 -21 -13 -10 -15 -9 -15 9 0 21 14 28 24 12z m-901
-57 c9 -10 -4 -34 -19 -34 -8 0 -14 6 -14 13 0 22 19 35 33 21z m337 -29 c0
-27 -9 -32 -27 -14 -14 14 -6 39 13 39 8 0 14 -10 14 -25z m-1140 -175 c0 -5
-7 -10 -15 -10 -8 0 -15 5 -15 10 0 6 7 10 15 10 8 0 15 -4 15 -10z m304 -87
c6 -15 -8 -32 -26 -33 -14 0 -19 22 -8 35 16 19 26 19 34 -2z m313 -48 c17 -2
49 -15 70 -29 21 -14 46 -26 56 -26 10 0 20 -7 23 -15 4 -8 15 -15 25 -15 10
0 19 -4 19 -10 0 -5 8 -11 18 -11 13 -1 13 -2 2 -5 -8 -3 -69 9 -134 26 -65
16 -129 30 -141 30 -12 0 -36 5 -54 11 -27 9 -30 14 -19 26 18 22 50 33 78 27
14 -4 39 -7 57 -9z m-277 -20 c0 -8 -7 -15 -15 -15 -26 0 -18 20 13 29 1 1 2
-6 2 -14z m1305 5 c37 -14 21 -30 -31 -30 -46 0 -57 12 -26 29 22 13 25 13 57
1z m215 -24 c0 -8 -4 -17 -9 -21 -12 -7 -24 12 -16 25 9 15 25 12 25 -4z
m-1600 -10 c0 -9 -30 -14 -35 -6 -4 6 3 10 14 10 12 0 21 -2 21 -4z m225 -30
c56 -25 72 -46 34 -46 -32 0 -119 41 -119 56 0 20 22 17 85 -10z m1263 6 c2
-7 -6 -12 -17 -12 -21 0 -27 11 -14 24 9 9 26 2 31 -12z m-2017 -3 c58 -12
139 -50 159 -74 7 -8 16 -15 21 -15 5 0 44 -28 87 -62 80 -64 105 -80 202
-130 30 -15 62 -32 70 -38 51 -34 143 -78 176 -84 21 -4 62 -18 89 -30 75 -35
175 -68 220 -72 57 -5 108 -15 120 -24 6 -4 34 -13 63 -20 56 -13 67 -31 31
-51 -15 -8 -18 -14 -10 -22 7 -7 16 -5 31 8 19 17 22 17 59 0 39 -17 39 -18
39 -74 -1 -84 19 -256 31 -280 7 -12 19 -21 28 -21 14 0 15 15 9 141 -3 78 -9
152 -12 165 -7 28 15 33 40 9 8 -8 25 -19 37 -23 22 -8 22 -12 18 -143 -2 -74
-4 -192 -4 -264 0 -113 2 -130 17 -133 14 -3 17 15 23 145 3 81 7 191 8 243 2
78 5 95 18 98 14 2 17 -13 24 -100 4 -57 8 -164 10 -238 2 -74 8 -164 14 -199
12 -73 9 -82 -22 -77 -12 3 -30 5 -39 5 -13 1 -18 12 -20 48 -2 36 -7 49 -20
51 -16 3 -18 -8 -17 -110 0 -62 -2 -120 -5 -128 -9 -22 9 -44 29 -36 15 5 17
15 12 56 -7 56 -1 63 54 64 l37 1 6 -50 c10 -85 7 -172 -6 -182 -7 -6 -25 -13
-40 -17 -18 -4 -30 -15 -34 -31 -7 -29 -24 -33 -24 -6 0 34 -23 43 -76 30 -27
-6 -62 -12 -78 -14 -15 -3 -36 -7 -46 -10 -26 -8 -32 7 -46 110 -12 87 -12 91
9 113 26 28 75 50 121 55 18 2 38 7 44 11 16 10 15 35 -1 42 -19 7 -106 -13
-144 -33 -22 -12 -36 -14 -43 -7 -8 8 -24 158 -33 314 -2 40 -4 45 -24 43 -20
-2 -23 2 -23 31 0 19 -7 47 -16 63 -24 41 -12 104 19 100 19 -2 22 2 19 33 -4
56 -12 80 -24 80 -6 0 -20 8 -30 17 -14 13 -25 15 -46 7 -22 -8 -29 -19 -38
-62 -11 -46 -10 -55 6 -75 19 -24 50 -128 50 -167 0 -13 8 -24 19 -27 21 -5
21 -9 24 -138 1 -85 -9 -234 -17 -242 -3 -3 -7 9 -8 28 -1 26 -2 23 -7 -16 -5
-45 -9 -50 -31 -51 -14 0 -32 -3 -40 -7 -76 -31 -124 -40 -230 -40 -96 -1
-123 2 -165 20 -27 12 -77 24 -110 28 -33 3 -79 8 -102 12 -41 5 -43 4 -43
-20 0 -29 14 -36 86 -41 27 -2 83 -14 124 -26 118 -35 150 -39 225 -34 71 6
173 28 211 46 12 5 32 8 45 6 22 -3 25 -9 32 -78 4 -41 6 -95 5 -120 -3 -37
-7 -45 -23 -46 -11 -1 -25 -2 -32 -3 -6 -1 -14 -10 -18 -21 -13 -40 -162 -51
-275 -21 -97 27 -135 32 -254 31 l-98 0 -35 36 c-40 43 -50 38 -68 -32 -15
-62 -33 -73 -82 -54 -21 8 -69 15 -108 15 l-70 0 -8 40 c-5 22 -12 72 -17 110
-5 39 -16 115 -24 170 -8 55 -17 138 -20 185 -3 47 -10 144 -15 215 -25 307
-22 746 4 925 6 40 -8 71 -25 54 -19 -19 -31 -238 -31 -559 0 -274 13 -553 27
-594 3 -8 7 -48 10 -88 5 -72 5 -73 -19 -73 -45 0 -132 20 -176 41 -24 11 -49
18 -57 15 -7 -3 -15 -2 -18 2 -19 31 -23 1001 -5 1217 14 172 5 159 108 151
51 -3 92 -2 101 4 19 12 19 12 81 -1z m1506 -72 c-1 -5 -15 -16 -29 -25 -26
-15 -29 -15 -50 4 -13 12 -44 31 -70 43 -45 21 -55 31 -43 42 7 8 195 -55 192
-64z m-1822 -4 c-3 -38 -10 -102 -15 -143 -8 -69 -9 -170 -10 -760 0 -118 4
-249 9 -291 8 -72 5 -300 -5 -328 -5 -17 -108 -11 -127 8 -12 12 -24 221 -13
221 4 0 18 -7 31 -16 34 -23 77 -11 73 19 -2 17 -15 25 -55 37 -52 15 -53 15
-54 55 0 22 -2 119 -3 215 -2 96 -6 193 -9 215 -3 22 -9 178 -12 346 -6 308
-2 359 29 359 17 0 76 65 76 85 0 19 39 45 68 45 22 0 22 -2 17 -67z m931 0
c28 -10 11 -38 -21 -35 -42 4 -115 33 -115 45 0 9 105 2 136 -10z m673 -52
c90 -22 96 -46 10 -37 -79 9 -201 44 -194 56 7 11 103 1 184 -19z m-414 -38
c39 -18 46 -33 15 -33 -22 0 -70 20 -70 30 0 7 11 20 16 20 2 0 19 -8 39 -17z
m-176 -31 c3 -5 18 -12 34 -16 15 -3 27 -13 27 -21 0 -17 -35 -21 -45 -5 -3 6
-15 10 -26 10 -27 0 -79 28 -79 42 0 13 80 4 89 -10z m501 -12 c0 -5 -7 -10
-15 -10 -8 0 -15 5 -15 10 0 6 7 10 15 10 8 0 15 -4 15 -10z m97 -14 c3 -3 3
-12 0 -20 -5 -13 -10 -14 -39 -2 -48 21 -50 41 -3 33 21 -3 40 -8 42 -11z
m163 -9 c19 -7 45 -18 57 -25 12 -7 29 -12 38 -12 25 0 206 -91 212 -107 8
-20 -2 -26 -24 -15 -22 11 -49 21 -220 81 -96 33 -133 50 -133 62 0 32 16 36
70 16z m-666 -23 c20 -19 11 -40 -10 -23 -13 10 -20 39 -10 39 3 0 12 -7 20
-16z m1451 -76 c-9 -39 -11 -42 -24 -34 -6 4 -8 14 -5 24 3 9 8 23 10 30 2 6
8 12 14 12 8 0 9 -11 5 -32z m-1255 -8 c0 -5 -2 -10 -4 -10 -3 0 -8 5 -11 10
-3 6 -1 10 4 10 6 0 11 -4 11 -10z m1239 -98 c-1 -54 -22 -125 -38 -130 -11
-4 -13 5 -7 44 3 26 11 53 16 58 6 6 10 25 10 44 0 19 4 31 10 27 6 -3 10 -23
9 -43z m320 -11 c31 -39 42 -86 19 -79 -16 5 -87 108 -87 126 -1 21 33 -3 68
-47z m-3089 -26 c3 -28 3 -68 0 -90 l-5 -40 -63 0 c-35 0 -68 5 -73 11 -11 14
43 121 78 152 39 35 57 26 63 -33z m2130 31 c62 -19 150 -62 180 -87 l25 -20
-37 6 c-73 12 -137 36 -160 60 -12 14 -33 25 -45 25 -14 0 -23 6 -23 15 0 18
3 18 60 1z m1091 -148 c34 -20 39 -27 37 -53 -2 -24 -8 -31 -30 -33 -19 -2
-28 -10 -30 -25 -2 -16 -10 -22 -28 -22 -23 0 -25 5 -35 73 -6 40 -9 75 -6 77
11 12 55 3 92 -17z m-477 -50 c7 -12 5 -24 -8 -44 l-19 -27 -12 23 c-9 18 -10
30 -2 47 11 26 25 26 41 1z m-2749 -19 c3 -3 8 -33 11 -66 4 -42 1 -63 -8 -70
-20 -17 -97 -26 -170 -20 -42 3 -46 23 -16 83 32 66 55 80 121 79 31 0 58 -3
62 -6z m-944 -45 c14 -17 15 -39 20 -384 1 -63 6 -121 12 -128 7 -9 -3 -26
-34 -61 -53 -60 -77 -71 -97 -45 -11 15 -12 45 -7 154 12 225 13 363 2 409 -8
36 -7 46 5 55 26 19 83 19 99 0z m4077 -65 c9 -14 20 -18 34 -13 20 6 21 4 13
-67 -5 -41 -9 -148 -10 -239 -1 -91 -6 -226 -11 -300 -4 -74 -8 -155 -7 -180
2 -141 0 -476 -3 -545 -3 -44 -5 -91 -4 -105 0 -14 1 -73 3 -132 1 -60 0 -108
-4 -108 -4 0 -26 7 -49 15 -23 8 -46 12 -51 10 -5 -3 -22 1 -40 10 -17 9 -38
14 -46 10 -9 -3 -44 3 -77 13 -85 27 -152 42 -181 42 -36 0 -31 21 15 64 40
37 40 37 38 109 -3 137 0 157 22 157 11 0 29 -9 40 -20 45 -45 58 -17 51 114
-2 44 0 51 33 81 24 22 36 42 37 61 3 101 2 138 -5 212 -8 82 -8 82 15 82 16
0 35 13 54 38 30 37 30 38 31 167 1 72 -3 175 -8 230 -20 222 -21 257 -7 282
25 46 88 52 117 12z m-568 3 c0 -14 -23 -32 -42 -32 -11 0 -18 7 -18 20 0 16
7 20 30 20 17 0 30 -4 30 -8z m1120 -21 c0 -10 -30 -24 -37 -17 -3 3 -2 9 2
15 8 13 35 15 35 2z m-1996 -23 c11 -42 7 -55 -9 -34 -16 22 -20 56 -6 56 5 0
11 -10 15 -22z m561 -83 c4 -38 11 -92 16 -120 5 -27 17 -99 25 -160 9 -60 22
-137 29 -170 17 -71 9 -84 -36 -61 -21 10 -36 13 -42 7 -14 -14 0 -42 23 -48
11 -3 20 -9 20 -13 0 -4 11 -11 25 -14 23 -6 25 -11 26 -69 1 -34 1 -76 0 -93
-2 -35 18 -57 44 -48 14 6 16 15 11 46 -4 22 -9 66 -13 99 -6 64 2 73 43 45
17 -12 22 -12 39 0 10 8 29 14 40 14 20 0 23 -7 28 -84 8 -94 -5 -185 -28
-202 -11 -8 -28 -9 -53 -3 -20 5 -72 9 -114 9 l-78 0 -15 36 c-9 22 -15 68
-15 118 0 44 -6 135 -12 201 -12 129 -13 179 -4 265 3 31 -1 91 -9 135 -17 99
-22 186 -12 203 6 9 14 8 32 -5 19 -15 24 -31 30 -88z m-2245 24 c0 -5 -9 -9
-20 -9 -22 0 -27 16 -7 23 15 5 27 -1 27 -14z m2339 -21 c11 -18 51 -61 90
-96 76 -68 92 -102 71 -153 -9 -20 -9 -33 -2 -42 6 -6 12 -59 13 -117 3 -92 1
-109 -16 -132 -20 -28 -49 -36 -60 -18 -3 6 -19 10 -36 10 -27 0 -29 3 -29 38
0 20 -4 53 -10 72 -5 19 -14 69 -19 110 -6 41 -17 109 -25 150 -8 41 -16 105
-18 143 -4 77 8 87 41 35z m-2446 7 c-4 -15 -36 -12 -41 3 -3 9 3 13 19 10 13
-1 23 -7 22 -13z m114 -40 c10 -3 13 -77 11 -327 -1 -178 2 -333 6 -345 10
-32 70 -63 120 -63 52 0 69 -13 85 -66 12 -37 17 -42 67 -57 30 -9 64 -17 75
-17 25 0 120 -46 131 -63 4 -7 8 -24 8 -40 0 -15 5 -36 12 -46 14 -23 -2 -48
-39 -62 -24 -9 -31 -43 -15 -77 5 -9 17 -35 28 -57 12 -26 27 -41 42 -43 25
-4 29 -29 8 -57 -12 -16 -40 -23 -158 -36 -261 -31 -378 -52 -427 -78 -31 -17
-55 -13 -70 11 -11 18 -15 84 -17 298 -2 151 -6 289 -9 305 -3 17 -5 61 -6 99
0 37 -5 79 -10 93 -6 16 -5 30 3 42 8 14 8 47 0 134 -7 63 -10 122 -7 130 4 8
7 77 8 153 2 135 3 139 24 142 12 2 25 12 28 23 5 16 13 18 48 13 23 -3 48 -7
54 -9z m5043 -4 c5 -11 20 -23 32 -27 13 -3 31 -13 40 -21 9 -8 32 -16 50 -18
18 -2 54 -11 81 -20 47 -17 56 -30 55 -80 0 -11 1 -110 2 -220 2 -223 -6 -325
-25 -325 -7 0 -26 5 -44 11 -38 14 -40 46 -2 41 22 -4 23 -2 16 35 -4 21 -9
121 -11 222 -3 173 -6 196 -22 196 -4 0 -18 8 -32 17 -22 14 -90 22 -161 19
-29 -2 -51 -66 -51 -147 0 -41 -2 -74 -5 -74 -8 0 -42 42 -69 88 -27 43 -27
49 -8 140 5 24 3 32 -8 32 -22 0 -38 -22 -38 -53 0 -16 -6 -34 -12 -42 -7 -7
-29 -38 -47 -69 -19 -31 -41 -56 -48 -56 -14 0 -14 -3 -15 143 -1 115 2 118
69 96 33 -11 38 -10 54 10 10 12 34 27 53 32 20 5 53 27 73 48 44 44 58 48 73
22z m-669 -43 c2 -58 -2 -165 -7 -180 -4 -13 -16 -18 -39 -18 -61 0 -65 5 -58
73 6 55 11 67 47 104 47 48 56 52 57 21z m-5693 -36 c21 -14 32 -73 32 -180 0
-67 5 -115 14 -137 l15 -35 -41 -32 c-23 -18 -57 -48 -76 -66 -35 -33 -62 -36
-62 -8 0 8 4 17 9 21 6 3 8 94 6 225 l-5 220 48 0 c26 0 53 -4 60 -8z m1099
-94 c-3 -7 -5 -2 -5 12 0 14 2 19 5 13 2 -7 2 -19 0 -25z m5370 -46 c18 -12
29 -482 11 -493 -7 -5 -37 -9 -66 -9 -64 0 -68 7 -53 91 9 56 8 64 -15 114
-21 44 -24 57 -14 75 7 12 11 52 10 89 -2 36 -2 83 -1 104 l1 37 58 0 c31 0
62 -4 69 -8z m-5357 -11 c0 -6 -4 -13 -10 -16 -5 -3 -10 1 -10 9 0 9 5 16 10
16 6 0 10 -4 10 -9z m2790 -32 c0 -5 -7 -12 -15 -15 -8 -3 -17 -21 -21 -40 -7
-37 -24 -47 -24 -14 0 38 28 90 44 84 9 -3 16 -10 16 -15z m1270 -6 c0 -34
-57 -74 -71 -51 -18 27 -10 56 19 66 44 16 52 14 52 -15z m-4700 -43 c0 -5 -7
-10 -16 -10 -8 0 -12 5 -9 10 3 6 10 10 16 10 5 0 9 -4 9 -10z m4105 -20 c3
-5 3 -15 -1 -22 -4 -7 -6 -30 -5 -52 2 -23 4 -75 5 -116 1 -41 6 -84 10 -95 6
-17 1 -24 -29 -38 -20 -9 -42 -17 -50 -17 -20 0 -19 24 1 41 10 8 14 23 11 43
-5 30 8 198 18 244 6 23 29 30 40 12z m1639 -79 c31 -46 56 -90 56 -98 0 -14
-2 -14 -100 -17 -36 0 -69 -4 -75 -7 -21 -14 -93 -20 -100 -10 -6 11 23 59 57
93 10 10 18 24 18 32 0 19 63 96 76 93 7 -1 37 -40 68 -86z m-5750 32 c3 -10
28 -42 56 -71 27 -29 50 -57 50 -63 0 -5 9 -9 20 -9 24 0 26 -22 3 -41 -10 -9
-43 -14 -95 -14 -73 0 -78 1 -78 22 0 12 -14 33 -32 49 -61 50 -63 59 -27 104
26 32 39 40 65 40 22 0 34 -6 38 -17z m3642 6 c9 -15 -11 -33 -30 -26 -9 4
-13 13 -10 22 7 17 30 20 40 4z m641 -6 c5 -15 -28 -26 -41 -13 -8 8 -7 14 4
20 17 11 32 8 37 -7z m-780 -5 c14 -19 10 -43 -7 -43 -9 0 -16 11 -18 28 -3
28 9 36 25 15z m1181 -4 c13 -4 22 -14 22 -25 0 -15 -7 -19 -40 -19 -33 0 -40
3 -40 19 0 17 11 28 30 30 3 0 15 -2 28 -5z m-4946 -41 c62 -99 59 -92 39
-103 -17 -9 -73 -15 -210 -23 -58 -3 -63 15 -14 47 21 14 61 45 88 70 28 25
55 45 62 46 6 0 22 -17 35 -37z m-615 -19 c14 -4 26 -19 34 -42 l12 -36 -63
-58 c-91 -85 -117 -96 -122 -51 -2 14 -8 28 -15 30 -22 8 -33 -34 -26 -97 7
-67 22 -83 52 -56 30 27 38 19 44 -46 8 -87 -1 -94 -84 -72 -10 3 -20 19 -23
38 -10 54 -36 70 -101 62 l-55 -6 0 114 c0 111 0 114 24 120 21 5 31 21 50 79
9 27 36 21 36 -8 0 -43 57 -84 75 -54 5 7 13 5 25 -6 16 -15 19 -14 44 15 14
17 26 42 26 56 0 25 20 31 67 18z m5117 -4 c22 -8 26 -16 26 -52 0 -85 -10
-116 -38 -121 -29 -6 -52 1 -52 14 0 5 8 9 19 9 23 0 47 25 31 35 -5 3 -15 3
-20 0 -14 -8 -42 14 -34 27 3 5 17 13 30 18 34 13 33 50 -1 50 -24 0 -32 10
-18 23 9 10 27 9 57 -3z m-4923 -32 c15 -28 29 -45 59 -71 109 -97 108 -133
-6 -123 -137 12 -267 5 -280 -15 -6 -10 -44 -12 -44 -3 0 17 24 46 50 59 16 8
37 28 47 45 9 16 22 30 29 30 6 0 31 22 55 49 49 54 72 62 90 29z m4233 6 c20
-19 20 -65 1 -148 -20 -84 -25 -96 -40 -96 -14 0 -25 43 -25 96 0 24 5 34 21
39 26 9 23 52 -3 47 -38 -6 -11 66 29 77 1 1 9 -6 17 -15z m-2397 -34 c4 0 24
-10 43 -21 31 -19 56 -24 155 -32 34 -2 32 1 59 -162 9 -49 14 -99 12 -109 -4
-28 -23 -31 -31 -5 -7 23 -8 23 -22 -4 -16 -32 -22 -33 -65 -8 -18 11 -59 27
-90 35 -69 18 -95 31 -106 54 -11 21 -16 268 -6 284 5 7 13 4 25 -10 9 -12 21
-22 26 -22z m3551 8 c-3 -20 -8 -23 -43 -20 -46 4 -49 6 -42 27 4 10 20 15 47
15 37 0 41 -2 38 -22z m-4208 -17 c0 -15 97 -109 117 -113 14 -3 17 -11 15
-33 -2 -17 -5 -31 -6 -32 -3 -3 -133 -4 -156 -1 -8 0 -40 -2 -72 -6 -65 -8
-84 6 -41 30 15 9 48 50 72 90 25 41 51 74 58 74 7 0 13 -4 13 -9z m2089 -46
c30 -31 33 -39 27 -74 -4 -29 -2 -44 9 -55 20 -20 24 -60 6 -61 -8 0 -18 -13
-22 -28 -8 -30 -26 -57 -39 -57 -4 0 -10 55 -14 123 -4 67 -9 137 -12 155 -8
41 3 40 45 -3z m-2353 -3 c7 -4 14 -34 17 -67 3 -33 11 -84 18 -113 22 -88 31
-85 -318 -87 -164 -1 -302 -4 -308 -6 -17 -7 -17 14 0 56 20 52 48 85 77 90
13 3 64 5 113 6 83 0 171 1 285 3 66 1 86 19 55 49 -13 14 -12 19 12 46 29 33
32 35 49 23z m-418 -49 c3 -44 0 -48 -42 -43 -11 1 -39 -1 -63 -5 -36 -5 -46
-12 -54 -33 -6 -15 -31 -58 -55 -95 -47 -70 -50 -97 -14 -97 18 0 19 -3 10
-20 -8 -15 -6 -32 7 -70 13 -38 15 -52 6 -61 -9 -9 -17 -7 -31 11 -24 30 -45
18 -37 -20 7 -31 -12 -52 -26 -29 -12 20 -10 244 2 277 5 15 20 35 32 44 21
17 22 18 5 48 -18 32 -23 75 -12 104 4 11 19 16 45 16 36 0 40 -3 46 -30 7
-37 21 -39 29 -2 12 47 58 59 68 17 9 -35 26 -31 26 6 0 27 3 30 28 27 24 -3
27 -7 30 -45z m5912 28 c0 -5 -7 -11 -15 -15 -8 -3 -15 -13 -15 -23 0 -13 3
-14 12 -5 13 13 90 17 101 5 4 -3 2 -12 -4 -19 -8 -10 -16 -11 -30 -3 -35 18
-81 -26 -49 -46 6 -4 17 -1 25 5 22 18 60 8 63 -17 3 -17 10 -23 28 -23 14 0
24 -6 24 -15 0 -12 25 -15 143 -17 l142 -3 3 -234 c2 -129 0 -246 -4 -260 -6
-24 -7 -25 -14 -6 -5 11 -9 57 -9 103 -1 81 -1 83 -32 101 -18 11 -39 18 -48
16 -35 -7 -107 -39 -127 -57 -24 -22 -62 -23 -108 -4 -40 17 -86 10 -104 -16
-7 -10 -19 -18 -26 -18 -16 0 -26 -22 -26 -55 0 -12 -7 -28 -15 -35 -8 -7 -15
-27 -15 -46 0 -18 -5 -44 -11 -58 -10 -21 -7 -29 17 -60 29 -36 77 -60 111
-54 15 3 18 -4 18 -47 l0 -50 -115 0 -115 0 -3 27 c-2 15 4 41 13 58 9 17 13
35 10 40 -7 11 -16 820 -9 831 7 12 184 12 184 0z m-5740 -61 c0 -5 -4 -10
-10 -10 -5 0 -10 5 -10 10 0 6 5 10 10 10 6 0 10 -4 10 -10z m-652 -73 c9 -6
9 -14 2 -27 -7 -13 -6 -27 2 -45 17 -37 33 -25 36 28 2 33 7 47 18 47 7 0 14
-5 14 -11 0 -5 14 -15 30 -20 34 -12 41 -39 10 -39 -23 0 -27 -15 -5 -24 21
-8 19 -24 -5 -31 -28 -9 -25 -25 5 -25 14 0 25 -4 25 -10 0 -5 -7 -10 -15 -10
-19 0 -19 -16 0 -24 11 -4 14 -23 13 -91 -2 -48 -6 -89 -10 -91 -14 -9 -8 -26
6 -21 20 8 38 -17 34 -45 -3 -21 -8 -23 -58 -24 -55 -1 -100 -16 -100 -34 0
-15 38 -12 64 5 18 12 41 15 90 12 49 -4 68 -1 77 10 7 8 21 12 33 9 11 -3 25
-2 30 3 11 7 129 0 216 -14 25 -4 64 -16 88 -27 35 -16 41 -24 36 -40 -4 -14
3 -30 27 -54 31 -32 33 -49 6 -49 -7 0 -13 -8 -15 -17 -4 -21 18 -24 36 -6 9
9 19 4 46 -25 26 -28 35 -48 40 -91 8 -69 0 -75 -84 -66 -71 8 -100 17 -100
31 0 17 -32 9 -51 -13 -18 -21 -20 -22 -29 -5 -13 20 -41 22 -59 5 -10 -11
-141 -20 -141 -11 0 2 5 12 12 23 18 29 2 36 -37 17 -47 -22 -58 -21 -50 3 5
16 2 20 -15 20 -16 0 -20 -4 -16 -16 12 -32 -7 -34 -41 -4 -23 21 -39 28 -46
22 -24 -19 -79 -24 -105 -11 -22 13 -26 12 -40 -9 -8 -13 -25 -22 -39 -22 -41
0 -23 32 37 64 30 16 49 31 42 34 -7 2 -19 -2 -28 -9 -10 -8 -18 -9 -25 -2 -7
7 -2 16 15 27 15 9 26 23 26 31 0 20 -114 13 -138 -8 -9 -8 -48 -26 -85 -41
-53 -21 -72 -25 -83 -16 -20 17 -1 46 35 53 33 7 192 112 205 136 5 9 15 22
24 28 24 20 8 25 -24 8 -16 -8 -39 -15 -51 -15 -13 0 -24 -8 -28 -21 -4 -11
-17 -24 -29 -28 -12 -5 -46 -29 -76 -53 -76 -61 -128 -91 -145 -84 -26 10 -42
-4 -60 -52 -19 -51 -47 -82 -75 -82 -23 0 -32 24 -20 56 6 14 10 44 10 67 0
63 11 75 52 58 64 -26 78 -26 80 0 6 99 -8 143 -54 164 -18 8 -40 19 -48 24
-8 5 -23 12 -33 15 -17 6 -18 16 -15 110 3 93 6 107 27 129 13 14 29 23 36 21
7 -3 27 2 44 10 31 16 58 15 113 -6 22 -8 36 -6 73 12 45 22 59 40 30 40 -9 0
-15 10 -15 26 0 18 5 25 18 23 29 -3 42 1 42 11 0 6 -14 10 -31 10 -27 0 -30
2 -19 15 7 8 26 15 43 15 29 0 29 1 13 19 -16 18 -16 20 0 29 20 11 163 10
182 -1z m1207 -17 c3 -5 29 -10 56 -10 31 0 48 -4 44 -10 -3 -5 -26 -10 -51
-10 -45 0 -50 -5 -35 -28 8 -13 23 -15 71 -10 17 2 25 -3 28 -15 3 -16 -3 -18
-42 -16 -52 3 -65 -5 -49 -29 8 -12 22 -16 49 -15 38 3 56 -10 47 -33 -3 -9
-20 -11 -60 -7 -50 6 -55 4 -51 -13 2 -14 16 -21 56 -28 45 -8 52 -13 52 -33
0 -21 -4 -22 -47 -20 -42 2 -48 0 -48 -18 0 -17 7 -20 42 -20 45 0 50 -2 53
-25 5 -31 -1 -40 -24 -40 -27 0 -51 -24 -41 -40 4 -7 16 -10 26 -7 23 6 50
-18 43 -38 -3 -7 -24 -17 -47 -21 -71 -12 -105 -62 -77 -115 12 -21 54 -26 67
-6 4 6 13 30 18 51 11 43 30 57 37 29 9 -36 -4 -133 -18 -133 -37 0 -131 33
-153 53 -14 13 -34 27 -44 30 -26 10 -32 35 -17 76 15 41 15 163 0 192 -7 12
-21 19 -40 19 -34 0 -32 -12 -30 155 1 71 6 122 12 126 6 4 40 7 75 7 36 0 67
3 71 6 8 9 20 7 27 -4z m2925 -65 l5 -70 40 0 c54 -1 77 11 73 38 -2 18 -9 22
-35 21 -40 -2 -42 14 -9 46 30 27 53 21 62 -17 4 -15 15 -44 24 -63 10 -19 19
-60 21 -90 4 -47 1 -56 -17 -65 -11 -5 -28 -18 -38 -28 -24 -24 -66 -22 -73 3
-6 23 -35 27 -51 7 -6 -7 -9 -22 -6 -34 8 -28 -31 -42 -53 -20 -20 20 -18 165
3 215 9 21 12 48 8 69 -8 42 1 65 23 61 15 -3 19 -17 23 -73z m765 3 c14 -6
28 -23 31 -37 10 -45 13 -51 31 -57 10 -3 26 -10 35 -15 10 -5 31 -9 48 -9 34
0 38 -14 13 -42 -21 -23 -35 -23 -75 2 -18 11 -43 20 -56 20 -12 0 -38 7 -57
14 -33 14 -35 18 -35 63 0 45 12 73 32 73 4 0 19 -5 33 -12z m-3905 -8 c0 -5
-2 -10 -4 -10 -3 0 -8 5 -11 10 -3 6 -1 10 4 10 6 0 11 -4 11 -10z m-60 -36
c0 -20 -24 -44 -45 -44 -31 0 -32 22 -2 36 25 13 47 17 47 8z m-290 -23 c69
-3 142 -4 163 0 20 3 37 3 37 -2 0 -15 -34 -26 -83 -27 -26 -1 -57 -8 -70 -16
-30 -20 -55 -65 -52 -96 1 -16 -9 -37 -26 -58 -17 -18 -29 -44 -29 -60 0 -42
-15 -60 -37 -44 -10 7 -26 15 -35 18 -12 5 -16 16 -15 47 2 36 -1 42 -20 45
-14 2 -23 -3 -28 -17 -11 -37 -65 -16 -65 24 0 28 -3 30 -30 13 -10 -7 -21
-10 -24 -8 -2 3 -7 39 -11 81 -10 103 -3 109 113 108 48 0 143 -4 212 -8z
m2105 -36 c50 -7 108 -18 130 -24 70 -18 157 -13 244 15 97 31 116 28 107 -20
-5 -24 -1 -39 13 -58 16 -19 19 -34 14 -63 -5 -29 -2 -40 10 -47 10 -5 17 -16
17 -25 0 -36 -43 -139 -66 -156 -28 -22 -30 -52 -9 -104 9 -20 14 -42 11 -48
-2 -6 -26 -20 -53 -30 -26 -10 -61 -29 -76 -42 -16 -12 -33 -23 -37 -23 -5 0
-29 -26 -52 -57 -24 -32 -46 -60 -50 -63 -3 -3 -9 -22 -13 -43 l-7 -38 -46 3
c-45 3 -47 4 -49 36 -4 43 -22 76 -77 138 -28 31 -64 59 -90 70 l-45 19 2 60
c2 59 1 62 -50 127 -29 36 -53 70 -53 76 0 6 8 24 17 40 16 27 15 32 -6 103
-12 41 -28 90 -35 109 -21 63 -16 67 77 62 45 -2 123 -10 172 -17z m1263 12
c6 -4 6 -28 0 -64 -13 -78 6 -213 35 -249 17 -22 21 -42 21 -110 1 -95 8 -90
-94 -73 -36 6 -94 11 -130 12 -63 2 -64 3 -71 32 -4 17 -13 50 -19 74 -8 33
-8 64 1 120 11 79 29 111 61 111 12 0 18 7 18 25 0 34 -21 75 -38 75 -20 0
-52 29 -52 48 0 13 19 14 129 10 71 -3 133 -8 139 -11z m-566 -32 c67 -7 80
-25 38 -55 -36 -26 -38 -50 -9 -134 29 -80 45 -94 108 -91 27 2 54 6 59 9 11
7 15 55 10 126 -1 14 -1 44 0 68 2 42 2 42 40 42 26 0 45 -7 57 -20 19 -21 18
-24 -29 -78 -17 -19 -20 -39 -22 -130 -3 -112 -2 -115 53 -227 14 -29 22 -57
18 -67 -4 -10 1 -31 13 -50 11 -18 23 -53 26 -78 15 -102 28 -130 75 -158 56
-35 93 -70 89 -84 -7 -21 -87 -36 -176 -33 -97 3 -147 23 -253 102 -46 34 -58
50 -72 93 -9 29 -17 66 -18 84 -1 66 -57 134 -126 151 -44 11 -49 15 -65 59
-16 46 -16 47 8 76 25 29 74 141 74 167 0 8 7 16 15 19 21 8 19 44 -4 68 -20
22 -71 113 -71 127 0 5 13 9 29 9 17 0 33 5 36 10 4 6 14 9 23 6 10 -2 42 -7
74 -11z m-2647 -50 c0 -30 22 -28 28 3 8 37 38 47 69 21 68 -57 69 -57 62 -85
-12 -47 -108 -71 -146 -37 -20 18 -32 12 -52 -29 -8 -17 -21 -24 -50 -26 l-38
-3 6 -41 c7 -41 6 -41 -16 -26 -38 26 -44 43 -26 82 14 29 21 34 50 33 24 -2
33 3 36 17 2 10 -3 23 -12 28 -19 11 -21 58 -3 80 26 34 92 22 92 -17z m4635
10 c25 -3 62 -6 83 -8 38 -4 55 -12 45 -23 -3 -3 -61 -6 -128 -7 -125 -2 -160
6 -160 38 0 14 10 14 160 0z m-2969 -40 c4 -16 13 -50 20 -74 12 -43 12 -44
-20 -70 -35 -29 -40 -54 -13 -73 10 -7 27 -26 37 -43 10 -16 36 -47 58 -67
l41 -37 -14 -42 c-17 -50 -55 -99 -78 -100 -29 -1 -106 -64 -129 -104 -12 -22
-36 -79 -53 -127 -17 -48 -36 -90 -41 -93 -5 -4 -9 -14 -9 -23 0 -9 -15 -26
-33 -36 -96 -57 -208 -108 -255 -117 -71 -14 -142 -45 -142 -63 0 -18 28 -25
57 -15 23 9 60 -1 130 -32 24 -10 49 -19 56 -19 7 0 17 -4 23 -9 5 -4 32 -14
59 -21 28 -8 55 -20 61 -28 6 -8 34 -17 62 -20 l52 -5 0 33 c0 21 -8 41 -22
55 -13 12 -45 53 -72 90 -38 53 -46 69 -35 76 8 5 26 17 42 27 40 24 72 75
121 193 59 143 59 144 114 167 28 12 53 29 56 38 6 15 8 15 24 2 9 -8 33 -21
52 -28 60 -23 76 -38 109 -100 34 -66 37 -97 16 -183 -14 -62 -26 -83 -88
-161 -35 -45 -186 -176 -202 -176 -4 0 -40 -20 -79 -45 -40 -25 -78 -45 -84
-45 -12 0 -270 -82 -347 -110 -131 -49 -365 -90 -503 -90 -111 0 -309 18 -329
30 -10 5 -49 22 -88 38 -93 39 -122 58 -177 117 -84 91 -106 154 -87 246 12
60 75 185 117 232 60 69 123 127 159 147 21 12 49 27 63 35 27 16 114 54 170
76 19 7 46 21 60 31 14 9 54 21 90 27 36 5 103 18 150 29 178 43 275 57 374
54 77 -2 91 -12 72 -51 -7 -14 -19 -53 -26 -86 -7 -33 -16 -63 -20 -68 -9 -11
-42 28 -57 68 -7 19 -19 51 -26 70 -7 19 -16 38 -20 41 -13 13 -85 -18 -95
-40 -5 -13 -38 -45 -72 -72 -34 -27 -91 -72 -126 -101 l-65 -52 -137 1 c-139
1 -254 -6 -272 -17 -30 -18 31 -53 168 -95 70 -22 72 -23 59 -44 -16 -24 -90
-81 -124 -96 -13 -5 -23 -13 -23 -18 0 -9 -116 -105 -173 -142 -29 -19 -37
-31 -35 -50 2 -14 10 -26 21 -28 21 -4 141 32 193 58 21 11 51 20 66 20 15 0
29 4 32 9 9 14 168 88 206 96 19 4 57 16 83 27 40 17 56 19 100 12 l52 -9 -3
-46 c-3 -50 15 -76 44 -65 12 5 15 14 10 37 -7 39 11 109 34 130 10 8 20 24
22 35 2 10 13 20 25 22 13 2 32 19 45 40 12 20 36 49 53 63 21 19 35 45 44 80
8 30 22 67 32 84 11 16 19 45 19 63 0 33 24 102 35 102 4 0 18 -9 32 -20 30
-24 46 -25 62 -6 9 11 6 18 -15 35 -15 12 -37 21 -50 21 -28 0 -28 3 -11 50
21 61 24 63 82 55 72 -9 84 6 55 73 -18 41 -20 54 -10 72 9 17 17 21 38 15 65
-15 67 -14 68 40 2 81 3 83 39 101 20 9 38 21 41 26 13 20 48 3 55 -27z m2510
1 c48 -20 61 -72 30 -113 -12 -14 -21 -31 -21 -38 0 -8 -18 -16 -42 -20 -24
-4 -53 -16 -65 -28 -18 -16 -25 -18 -37 -8 -18 15 -59 5 -53 -12 2 -7 12 -14
23 -16 39 -7 46 -52 13 -87 -44 -47 8 -114 114 -148 10 -3 17 -15 17 -31 0
-20 -5 -25 -25 -25 -16 0 -25 6 -25 15 0 19 -9 19 -29 1 -10 -9 -44 -16 -86
-18 l-70 -3 -1 65 c-2 73 8 110 31 110 22 0 18 27 -5 33 -20 5 -24 23 -23 87
1 43 2 45 34 57 24 9 30 17 27 35 -2 15 -11 24 -25 26 -28 4 -30 22 -3 22 11
0 20 4 20 9 0 5 13 16 28 23 22 11 44 12 105 5 42 -6 80 -7 84 -4 3 4 -2 16
-12 28 -17 18 -30 20 -105 18 -48 -1 -97 -7 -112 -15 -29 -15 -42 -6 -32 20 6
15 45 22 101 17 12 -1 24 3 28 9 8 13 69 6 116 -14z m154 -13 c29 -33 34 -83
8 -83 -26 0 -63 41 -63 70 0 48 20 53 55 13z m91 9 c3 -9 18 -25 34 -34 27
-15 29 -21 28 -75 0 -32 3 -74 7 -93 5 -29 3 -39 -14 -54 -12 -11 -21 -30 -21
-43 0 -24 -14 -31 -25 -13 -11 17 -42 11 -57 -12 -16 -24 -38 -18 -38 11 0 9
-11 27 -25 39 -28 25 -40 61 -31 97 7 28 27 32 46 10 29 -34 61 -7 67 58 6 63
6 80 -2 105 -6 17 -3 22 10 22 9 0 19 -8 21 -18z m344 -52 c6 -11 10 -52 8
-92 -3 -59 -6 -73 -23 -82 -11 -6 -37 -21 -57 -33 -30 -19 -46 -22 -79 -17
-39 7 -40 6 -34 -18 6 -22 0 -29 -55 -61 -101 -61 -109 -46 -20 36 59 55 60
57 60 109 0 30 -6 60 -12 66 -16 16 -11 84 7 98 8 5 54 11 104 12 81 2 91 0
101 -18z m-4508 -75 c-6 -71 -52 -88 -52 -20 0 49 9 67 34 63 18 -3 21 -9 18
-43z m5672 22 c19 -14 13 -42 -12 -52 -22 -8 -45 18 -37 44 7 24 23 27 49 8z
m-4656 -40 c2 -22 -1 -37 -8 -37 -14 0 -32 49 -25 68 9 25 30 6 33 -31z
m-1190 -5 c3 -18 -2 -22 -22 -22 -19 0 -26 5 -26 19 0 36 43 38 48 3z m72 -11
c0 -15 3 -55 6 -88 6 -55 5 -60 -14 -65 -18 -5 -20 -3 -11 19 6 15 5 31 -1 43
-11 21 -14 103 -3 113 14 14 23 6 23 -22z m5530 21 c0 -5 17 -13 38 -18 l37
-9 3 -85 c3 -82 2 -86 -27 -117 -33 -37 -41 -38 -91 -20 -51 18 -80 40 -80 58
0 24 27 42 52 36 29 -8 58 9 58 34 0 18 -4 20 -26 15 -72 -18 -84 -19 -84 -3
0 9 9 19 20 22 20 6 29 45 10 45 -17 0 -11 28 8 39 21 12 82 14 82 3z m248
-88 c-4 -23 -34 -30 -41 -10 -8 20 22 51 35 38 6 -6 8 -18 6 -28z m-6004 10
c10 -26 -3 -54 -25 -54 -22 0 -27 38 -7 58 16 16 25 15 32 -4z m5916 -5 c0
-24 -23 -21 -28 4 -2 10 3 17 12 17 10 0 16 -9 16 -21z m-5788 -13 c6 -14 8
-32 5 -40 -5 -13 -11 -14 -32 -4 -27 12 -33 36 -13 56 18 18 27 15 40 -12z
m4117 0 c7 -8 27 -17 45 -20 41 -8 52 -20 58 -66 7 -47 -21 -87 -67 -96 -44
-8 -85 2 -85 21 0 8 -9 15 -20 15 -24 0 -27 25 -4 34 9 4 32 4 50 0 26 -5 35
-2 40 10 9 22 -23 56 -53 56 -18 0 -23 5 -23 24 0 34 38 48 59 22z m-795 -29
c27 -20 16 -50 -21 -58 -36 -7 -47 7 -37 47 7 27 30 31 58 11z m1396 -26 c0
-10 -11 -30 -25 -45 -16 -18 -25 -37 -23 -53 2 -14 -3 -28 -9 -30 -9 -3 -13 6
-13 26 0 36 -22 42 -52 14 -14 -13 -21 -14 -31 -4 -18 18 1 39 73 77 75 39 80
40 80 15z m-4540 -22 c0 -10 -4 -19 -10 -19 -5 0 -10 12 -10 26 0 14 4 23 10
19 6 -3 10 -15 10 -26z m5778 -115 l-3 -109 -143 0 c-169 0 -174 2 -145 73 23
56 37 60 41 12 6 -60 36 -66 47 -10 6 30 12 35 27 23 7 -5 28 -8 46 -7 17 1
50 2 72 3 45 1 53 20 23 53 -15 17 -15 19 0 36 10 10 17 27 17 37 0 13 3 16
10 9 7 -7 10 -54 8 -120z m-169 64 c1 -10 -6 -18 -15 -18 -12 0 -15 6 -10 23
3 12 6 29 7 37 1 20 17 -18 18 -42z m68 -10 c-3 -7 -5 -2 -5 12 0 14 2 19 5
13 2 -7 2 -19 0 -25z m-5582 -5 c12 -14 30 -27 41 -28 10 -1 26 -5 34 -8 8 -3
34 -11 57 -17 66 -17 67 -40 4 -57 -16 -4 -28 -1 -36 11 -7 9 -20 16 -30 16
-13 0 -16 -5 -11 -25 5 -21 0 -29 -32 -50 -32 -21 -49 -25 -106 -24 -63 1 -68
3 -77 27 -17 45 6 102 58 145 54 44 70 46 98 10z m4260 -16 c4 -13 5 -48 3
-78 l-3 -54 -68 -3 c-64 -3 -68 -2 -77 23 -6 15 -10 30 -10 35 0 7 32 30 93
66 10 7 24 17 30 23 17 17 26 13 32 -12z m-5445 -22 c0 -8 -11 -22 -24 -31
-14 -8 -34 -31 -45 -50 -17 -29 -26 -34 -58 -34 -21 0 -47 -7 -57 -15 -27 -20
-125 -20 -154 1 -49 34 -18 59 77 63 65 2 173 33 216 61 36 24 45 25 45 5z
m5220 -5 c0 -11 -8 -23 -17 -26 -10 -3 -30 -12 -45 -20 -34 -18 -58 -18 -58 1
0 9 23 26 53 39 65 30 67 30 67 6z m-1230 -16 c31 -3 93 -12 195 -28 42 -7
161 -32 218 -45 26 -6 100 -29 165 -51 64 -22 123 -40 129 -40 17 0 141 -86
164 -113 27 -33 105 -188 112 -222 6 -32 -15 -137 -35 -177 -29 -55 -80 -109
-98 -103 -13 4 -22 -2 -32 -22 -11 -23 -21 -29 -63 -34 -60 -7 -153 -27 -165
-34 -18 -11 -180 -35 -279 -41 -121 -7 -370 11 -424 32 -20 8 -51 14 -67 14
-16 0 -44 6 -62 14 -18 8 -69 24 -113 37 -44 12 -87 26 -95 30 -8 4 -44 18
-80 30 -147 49 -288 146 -326 224 -26 51 -52 97 -63 108 -16 16 -13 136 5 186
28 81 52 101 188 157 58 23 61 24 103 8 56 -22 89 -66 96 -129 3 -28 8 -62 12
-77 l7 -27 -76 6 c-73 6 -76 5 -76 -15 0 -15 8 -23 28 -28 46 -10 125 -35 159
-50 17 -8 36 -14 42 -14 21 0 111 -54 111 -66 0 -15 -39 -90 -68 -131 -37 -53
-54 -95 -48 -119 6 -22 10 -24 44 -19 55 10 129 40 309 127 95 45 175 78 193
78 17 0 70 -11 118 -24 105 -28 175 -44 222 -51 19 -2 64 -13 100 -25 36 -11
78 -20 93 -20 16 0 37 -5 49 -11 11 -6 30 -8 43 -5 42 11 36 33 -23 90 -59 56
-146 125 -160 127 -13 1 -95 64 -99 76 -4 12 88 63 112 63 6 0 20 6 30 14 16
11 17 17 7 29 -11 12 -40 15 -155 15 -151 -1 -180 6 -221 51 -11 12 -23 21
-29 21 -13 0 -104 74 -128 104 -15 19 -30 26 -54 26 -27 0 -37 -6 -54 -35 -11
-19 -24 -35 -30 -35 -11 0 -21 25 -21 53 0 11 -7 28 -15 37 -9 10 -13 24 -9
34 6 14 14 16 43 10 20 -4 52 -8 71 -10z m-3035 -27 c11 -57 3 -92 -22 -95
-21 -3 -23 1 -23 40 0 57 9 88 26 88 7 0 16 -15 19 -33z m4255 -42 c0 -8 -6
-15 -14 -15 -17 0 -28 14 -19 24 12 12 33 6 33 -9z m-3301 -81 c23 -26 40 -51
38 -58 -2 -6 -30 -14 -63 -17 -162 -18 -194 -20 -194 -11 0 15 142 132 160
132 10 0 36 -21 59 -46z m2136 6 c16 -17 51 -45 77 -61 27 -17 48 -35 48 -40
0 -5 -34 -10 -75 -10 -41 -1 -90 -2 -107 -3 -36 -2 -58 9 -58 30 0 21 60 114
74 114 7 0 25 -14 41 -30z m2185 -4 c272 -1 528 -4 568 -4 l72 -2 0 -56 0 -56
-202 6 c-364 10 -865 18 -1291 20 l-418 2 -32 25 c-18 14 -47 34 -65 43 -17 9
-32 20 -32 25 0 5 201 7 453 5 248 -2 675 -6 947 -8z m-6500 -17 c52 0 266 1
475 2 379 1 825 -8 835 -18 5 -5 -25 -32 -76 -67 -24 -17 -42 -18 -178 -15
-83 2 -182 2 -221 1 -38 -1 -74 -2 -80 -2 -5 0 -219 2 -475 4 -256 2 -473 4
-482 5 -14 1 -18 10 -18 44 0 24 3 47 7 51 4 4 33 5 63 1 30 -3 98 -6 150 -6z
m2250 -107 c0 -5 -14 -21 -31 -38 -17 -16 -39 -46 -50 -66 -18 -35 -61 -60
-76 -44 -4 3 -17 -1 -31 -10 -57 -37 -81 -37 -184 3 -107 41 -119 57 -70 91
40 28 69 34 286 51 65 6 121 12 124 15 8 9 32 7 32 -2z m-1490 -25 c0 -11 38
-14 200 -12 139 1 200 -2 200 -9 0 -6 -18 -37 -40 -68 -66 -96 -88 -148 -98
-229 -11 -85 -4 -144 21 -180 10 -13 17 -31 17 -41 0 -20 54 -103 90 -137 49
-46 100 -75 112 -63 8 8 17 5 34 -13 13 -14 34 -25 49 -25 14 0 28 -6 31 -14
12 -32 127 -58 254 -58 100 0 401 25 418 35 4 3 52 13 107 22 62 10 116 26
142 41 23 13 53 24 67 24 15 0 34 5 44 10 22 13 129 50 164 57 15 3 35 14 44
24 9 10 27 19 40 19 13 0 39 11 59 24 20 14 68 41 108 60 69 35 192 129 210
162 5 9 29 36 53 61 47 50 75 116 72 175 -1 20 5 44 12 53 14 17 65 20 75 5 4
-6 10 -47 15 -91 8 -83 19 -106 99 -206 14 -18 35 -44 46 -58 25 -32 89 -75
112 -75 10 0 38 -12 63 -26 25 -15 62 -32 83 -40 20 -7 52 -20 70 -27 55 -25
153 -57 173 -57 10 -1 37 -9 59 -20 22 -11 54 -19 72 -20 17 0 65 -7 105 -16
40 -8 150 -19 243 -23 94 -4 182 -9 198 -9 15 -1 35 -2 45 -3 9 -1 64 1 122 4
77 5 124 13 175 32 39 15 82 30 96 34 80 26 149 76 233 173 83 94 94 125 98
266 0 35 5 65 10 68 13 8 -2 85 -24 123 -10 19 -17 39 -15 45 3 7 39 10 103 9
55 0 396 -4 759 -8 363 -5 674 -9 690 -10 17 -1 83 -2 149 -3 l119 -2 -7 -57
c-3 -32 -6 -110 -6 -173 0 -63 0 -180 0 -260 -1 -214 -8 -724 -11 -730 -3 -7
-6 -82 -14 -320 -4 -113 -8 -206 -9 -207 -10 -11 -1806 -23 -3486 -24 -393 0
-726 -1 -740 -1 -128 -4 -2650 3 -2667 7 -19 4 -24 0 -32 -27 -5 -18 -10 -25
-10 -15 -1 9 0 20 2 25 3 10 -131 22 -228 20 -91 -1 -136 0 -141 4 -1 2 -3 35
-4 73 -1 39 -4 98 -7 133 -5 52 -9 62 -21 57 -12 -4 -11 0 4 16 18 20 19 38
19 368 0 190 -2 522 -5 736 l-5 390 375 -1 c206 0 422 -2 480 -3 69 -2 106 1
108 8 5 16 22 14 22 -2z m3715 -8 c79 -3 150 -58 98 -75 -47 -16 -173 -78
-173 -86 0 -13 -47 -9 -59 6 -7 8 -9 25 -5 40 4 16 -1 43 -10 68 -20 49 -15
54 51 51 26 -1 70 -3 98 -4z m209 5 c20 -8 20 -20 1 -28 -21 -8 -45 3 -45 20
0 15 18 18 44 8z m-2938 -15 c3 -6 0 -17 -8 -26 -13 -12 -21 -12 -56 -1 -23 7
-42 16 -42 20 0 4 19 9 43 11 23 2 45 4 49 5 4 1 10 -3 14 -9z m2972 -134
c117 -78 152 -105 152 -120 0 -11 -5 -12 -25 -5 -14 5 -51 14 -83 20 -31 5
-79 15 -107 21 -27 6 -79 16 -114 23 -36 6 -66 16 -68 21 -5 18 117 80 165 84
7 1 43 -19 80 -44z m-2898 -7 c39 -17 67 -34 63 -38 -4 -4 -37 -15 -73 -25
-56 -15 -117 -41 -195 -82 -34 -19 -149 -63 -162 -63 -7 0 -13 4 -13 9 0 14
88 91 104 91 8 0 19 6 23 13 4 7 26 26 48 43 22 16 52 41 67 56 33 36 52 35
138 -4z m2354 -43 c36 -2 71 -7 76 -10 15 -9 12 -22 -7 -28 -32 -10 -258 -104
-291 -121 -38 -20 -62 -21 -62 -2 0 8 23 49 51 91 46 69 54 76 78 71 14 -3 33
-2 41 4 8 5 22 7 31 5 9 -3 46 -7 83 -10z m-1688 -92 c9 -15 28 -39 41 -53 13
-14 23 -28 23 -32 0 -15 -15 -10 -142 45 -16 7 -28 19 -28 28 0 15 39 36 71
38 9 1 25 -11 35 -26z m-166 -13 c0 -5 -7 -10 -16 -10 -8 0 -12 5 -9 10 3 6
10 10 16 10 5 0 9 -4 9 -10z"/>
<path d="M4498 13534 c-3 -2 -163 -6 -358 -8 -194 -3 -357 -9 -362 -14 -16
-16 4 -41 39 -48 19 -4 79 -4 133 -1 135 8 131 12 134 -183 l2 -150 -90 6
c-50 3 -93 7 -96 9 -14 7 -50 -17 -50 -33 0 -38 23 -44 127 -36 54 5 112 7
128 6 126 -7 698 -3 706 5 7 7 6 17 -3 32 -14 23 -36 26 -145 21 -73 -2 -76 3
-43 76 11 24 23 59 26 77 3 17 17 64 31 104 l25 72 68 -6 c77 -5 105 5 112 40
l5 24 -172 2 c-95 1 -181 3 -192 6 -12 2 -23 2 -25 -1z m127 -82 c3 -9 -3 -28
-15 -44 -11 -15 -20 -37 -20 -49 0 -38 -33 -129 -46 -129 -12 0 -34 58 -34 90
0 9 -16 40 -35 70 -19 30 -35 60 -35 67 0 8 21 13 58 15 82 4 120 -2 127 -20z
m-319 8 c36 0 44 -4 49 -22 4 -13 17 -45 30 -73 12 -27 28 -68 35 -90 7 -22
24 -57 38 -77 41 -62 31 -68 -112 -68 -69 0 -127 4 -131 9 -3 6 -8 83 -12 172
l-6 162 33 -6 c18 -4 52 -7 76 -7z"/>
<path d="M6773 5263 c-16 -6 -17 -75 -2 -90 12 -12 40 -6 51 11 13 19 -12 88
-31 85 -3 0 -12 -3 -18 -6z"/>
<path d="M6706 5139 c-14 -11 -26 -25 -26 -30 0 -5 -10 -23 -22 -39 -16 -22
-19 -33 -11 -41 23 -23 59 -1 87 55 37 73 25 97 -28 55z"/>
<path d="M6759 4844 c-11 -14 -10 -18 6 -30 38 -28 102 -5 89 31 -8 21 -78 20
-95 -1z"/>
<path d="M6767 4739 c-21 -12 -23 -67 -3 -94 21 -28 46 -3 46 45 0 44 -17 63
-43 49z"/>
<path d="M7302 4343 c2 -10 8 -18 13 -18 5 0 11 8 13 18 2 10 -3 17 -13 17
-10 0 -15 -7 -13 -17z"/>
<path d="M747 4334 c-8 -8 3 -34 14 -34 5 0 9 9 9 20 0 19 -11 26 -23 14z"/>
<path d="M2365 4300 c-9 -15 5 -52 18 -47 15 5 16 49 0 54 -6 2 -14 -1 -18 -7z"/>
<path d="M6353 4249 c-26 -8 -33 -15 -33 -35 0 -30 15 -37 55 -26 24 7 31 14
33 40 4 35 -1 37 -55 21z"/>
<path d="M7268 4223 c-10 -2 -18 -11 -18 -19 0 -11 9 -13 43 -8 56 8 67 11 67
24 0 10 -58 12 -92 3z"/>
<path d="M2368 4174 c-10 -9 4 -44 17 -44 15 0 28 27 19 41 -6 10 -28 12 -36
3z"/>
<path d="M7291 4156 c-9 -11 -6 -15 18 -18 18 -3 32 0 35 8 10 26 -33 34 -53
10z"/>
<path d="M6338 4149 c-29 -16 -21 -27 23 -31 26 -2 44 1 51 10 22 26 -37 43
-74 21z"/>
<path d="M6775 4139 c-9 -27 -1 -33 41 -36 38 -2 45 14 16 40 -25 23 -49 21
-57 -4z"/>
<path d="M735 4040 c-3 -5 -4 -19 0 -29 8 -27 47 -16 43 13 -3 23 -32 34 -43
16z"/>
<path d="M7254 4036 c-4 -10 -2 -22 4 -28 8 -8 13 -7 18 6 4 10 2 22 -4 28 -8
8 -13 7 -18 -6z"/>
<path d="M2373 3994 c-3 -8 1 -23 10 -32 15 -14 17 -14 23 1 8 21 -1 47 -16
47 -6 0 -13 -7 -17 -16z"/>
<path d="M6775 3976 c-17 -12 -18 -17 -7 -41 7 -16 18 -25 26 -22 7 3 18 1 24
-5 20 -20 27 22 9 50 -19 33 -28 36 -52 18z"/>
<path d="M7307 3864 c-15 -15 -7 -45 11 -42 9 2 17 12 17 22 0 20 -16 31 -28
20z"/>
<path d="M6770 3803 c0 -28 15 -44 33 -37 18 7 20 14 11 38 -8 22 -44 21 -44
-1z"/>
<path d="M6607 3553 c-12 -12 -7 -41 7 -46 19 -7 40 18 32 38 -6 15 -28 20
-39 8z"/>
<path d="M7142 3553 c-38 -15 -34 -75 7 -86 23 -6 31 10 31 59 0 33 -8 39 -38
27z"/>
<path d="M6967 3543 c-9 -8 -9 -46 -1 -67 8 -22 41 -20 54 3 20 39 -24 93 -53
64z"/>
<path d="M6675 3520 c-11 -18 5 -50 26 -50 16 0 20 6 17 27 -3 28 -31 43 -43
23z"/>
<path d="M6767 3523 c-4 -3 -7 -19 -7 -35 0 -36 26 -38 42 -2 10 21 9 27 -3
35 -17 11 -24 11 -32 2z"/>
<path d="M6610 3446 c0 -15 24 -28 34 -19 13 14 5 33 -14 33 -11 0 -20 -6 -20
-14z"/>
<path d="M7242 3438 c-20 -20 -15 -66 10 -79 18 -10 24 -8 35 7 20 28 13 78
-12 82 -11 1 -26 -3 -33 -10z"/>
<path d="M7224 3125 c-19 -19 -39 -35 -45 -35 -6 0 -8 -14 -4 -35 3 -19 8 -51
11 -71 l5 -36 -32 7 c-22 5 -30 4 -27 -5 2 -6 27 -13 56 -15 46 -3 52 -2 48
13 -5 15 3 17 70 15 l77 -3 -7 78 c-6 65 -10 80 -32 100 -37 33 -78 29 -120
-13z m99 -91 c8 -8 -3 -34 -14 -34 -5 0 -9 9 -9 20 0 19 11 26 23 14z"/>
<path d="M6958 3124 c-53 -28 -62 -79 -24 -134 18 -28 30 -35 61 -37 20 -1 45
-9 55 -18 15 -14 18 -14 32 2 9 10 18 41 21 68 2 28 8 57 11 66 4 9 -2 27 -14
42 -18 23 -29 27 -68 27 -26 -1 -59 -7 -74 -16z"/>
<path d="M4076 9966 c-9 -14 -16 -32 -16 -40 0 -15 -19 -63 -45 -116 -7 -14
-15 -38 -19 -55 -17 -76 -25 -85 -75 -85 -25 1 -95 7 -156 14 -122 14 -145 12
-145 -14 0 -17 31 -46 135 -124 27 -21 67 -53 88 -71 l39 -33 -37 -114 c-66
-205 -82 -288 -52 -288 39 1 186 98 285 189 18 17 36 31 40 31 8 0 74 -53 108
-86 13 -12 37 -32 56 -44 18 -13 44 -33 58 -45 28 -25 76 -40 84 -26 7 11 -78
276 -99 308 -15 23 -13 63 4 63 4 0 16 8 27 18 10 9 56 48 102 86 46 39 81 76
80 84 -2 9 -17 16 -38 18 -19 2 -51 6 -70 8 -20 3 -49 2 -65 -3 -17 -4 -37 -4
-45 0 -8 4 -33 11 -54 16 -21 4 -42 15 -47 23 -6 13 -70 215 -88 280 -9 34
-35 36 -55 6z m44 -120 c0 -7 11 -49 25 -92 14 -43 25 -80 25 -81 0 -8 -68
-13 -100 -8 -49 8 -51 21 -10 107 16 34 30 69 30 76 0 6 7 12 15 12 8 0 15 -6
15 -14z m-267 -227 c40 -6 75 -16 78 -21 11 -17 -21 -98 -38 -98 -9 0 -30 12
-48 28 -18 15 -49 40 -69 55 -63 48 -48 55 77 36z m294 -19 c34 0 55 -5 57
-12 2 -7 14 -46 27 -86 l23 -73 -33 -26 c-18 -15 -47 -39 -64 -55 -18 -15 -36
-28 -41 -28 -5 0 -34 20 -64 45 -30 25 -60 45 -67 45 -6 0 -19 8 -29 18 -15
18 -14 24 16 101 l33 83 44 -6 c24 -3 68 -6 98 -6z m273 -26 c6 -6 -9 -24 -42
-49 -81 -62 -76 -61 -98 -13 -33 73 -31 77 55 74 42 -1 80 -7 85 -12z m-440
-206 c21 -18 50 -41 64 -51 14 -10 26 -24 26 -31 0 -8 -30 -35 -67 -61 -38
-25 -88 -62 -112 -81 -52 -42 -69 -34 -51 23 21 62 92 233 97 233 3 0 23 -15
43 -32z m336 -92 c18 -55 34 -105 34 -113 0 -22 -22 -15 -69 25 -25 21 -61 48
-78 61 -18 12 -33 30 -32 39 0 19 86 95 101 90 5 -2 25 -48 44 -102z"/>
<path d="M4290 8156 c0 -18 43 -39 69 -34 9 2 17 11 19 21 3 13 -3 17 -26 17
-17 0 -37 3 -46 6 -11 4 -16 1 -16 -10z"/>
<path d="M3910 8131 c0 -16 39 -33 68 -29 47 5 32 30 -20 35 -28 2 -48 -1 -48
-6z"/>
<path d="M4202 7979 c-32 -21 -34 -21 -65 -4 -35 19 -68 18 -74 -2 -4 -12 31
-32 65 -37 7 -1 17 -7 23 -13 17 -17 -69 -59 -91 -45 -27 17 -79 -22 -80 -60
0 -21 18 -23 44 -3 34 25 185 37 284 22 69 -10 88 -3 78 30 -9 29 -42 45 -64
32 -12 -8 -30 -9 -48 -4 -16 5 -37 7 -46 6 -27 -3 -22 25 8 46 17 13 23 24 18
36 -8 22 -12 21 -52 -4z"/>
<path d="M4240 7808 c-14 -5 -51 -7 -82 -4 -62 6 -71 -2 -47 -45 8 -16 17 -18
42 -14 18 3 44 7 60 9 29 3 80 43 71 57 -6 11 -12 11 -44 -3z"/>
<path d="M5390 7035 c-7 -9 -11 -18 -8 -20 3 -3 11 1 18 10 7 9 11 18 8 20 -3
3 -11 -1 -18 -10z"/>
<path d="M5442 7003 c-23 -25 -40 -48 -37 -51 7 -7 87 77 83 88 -2 5 -22 -12
-46 -37z"/>
<path d="M4206 7143 c-22 -65 -48 -142 -59 -171 -11 -29 -23 -67 -26 -85 l-7
-32 -119 0 c-66 0 -139 3 -163 7 -54 9 -72 2 -72 -26 0 -26 18 -46 40 -46 9 0
35 -17 57 -37 22 -21 70 -60 106 -88 37 -27 67 -57 67 -65 0 -8 -9 -40 -20
-70 -11 -30 -20 -63 -20 -74 0 -11 -6 -27 -14 -35 -8 -9 -20 -41 -26 -71 -28
-131 -13 -151 74 -99 32 19 69 40 82 47 13 7 32 24 40 38 9 13 22 24 30 24 7
0 36 20 64 45 30 27 56 43 63 38 7 -4 44 -27 82 -52 39 -25 78 -49 87 -53 9
-4 43 -24 75 -46 78 -53 89 -55 113 -30 25 27 25 43 0 61 -11 7 -34 47 -51 88
-17 41 -35 79 -39 84 -18 24 -43 116 -34 123 37 34 177 142 212 165 23 15 42
31 42 35 -1 31 -12 32 -351 41 -26 1 -46 33 -64 101 -4 14 -25 64 -46 113 -21
48 -39 102 -39 121 0 46 -9 66 -29 66 -12 0 -26 -30 -55 -117z m45 -56 c17 -6
79 -178 79 -218 0 -17 -8 -19 -80 -19 -61 0 -80 3 -80 14 0 19 48 167 61 191
9 14 9 20 0 23 -6 2 -11 11 -11 20 0 11 3 13 8 6 4 -6 14 -13 23 -17z m-162
-293 c8 -8 -31 -113 -44 -117 -12 -5 -155 108 -155 123 0 9 189 4 199 -6z
m293 -31 c9 -21 19 -45 22 -53 4 -8 16 -31 27 -50 l21 -35 -21 -15 c-12 -8
-47 -34 -78 -57 -31 -24 -60 -43 -64 -43 -27 0 -199 118 -194 133 24 78 48
153 51 158 2 4 52 5 111 4 l108 -4 17 -38z m288 37 c0 -13 -146 -120 -165
-120 -8 0 -17 11 -21 25 -3 13 -12 29 -20 36 -8 6 -14 24 -14 40 l0 29 110 0
c64 0 110 -4 110 -10z m-500 -276 c39 -25 70 -49 70 -54 0 -4 -13 -16 -29 -27
-63 -40 -117 -80 -151 -110 -61 -57 -79 -42 -45 37 12 30 28 75 35 100 19 70
32 100 42 100 5 0 40 -21 78 -46z m324 6 c7 -19 29 -63 49 -98 37 -62 46 -92
28 -92 -9 0 -119 58 -151 80 -8 6 -25 15 -37 22 -13 6 -23 18 -23 27 0 20 90
101 108 98 8 -1 19 -18 26 -37z"/>
<path d="M3450 6876 c0 -31 10 -56 21 -56 10 0 12 40 3 64 -9 24 -24 19 -24
-8z"/>
<path d="M3345 6872 c-6 -4 -11 -47 -11 -97 -1 -52 -8 -113 -18 -145 -26 -89
-56 -232 -50 -241 3 -5 11 -9 18 -9 9 0 19 32 31 98 10 53 24 115 32 137 16
47 30 265 17 265 -5 0 -14 -4 -19 -8z"/>
<path d="M3448 6774 c-16 -8 -28 -21 -28 -29 0 -11 11 -9 50 8 27 12 50 25 50
30 0 12 -43 7 -72 -9z"/>
<path d="M3452 6589 c-20 -8 -27 -26 -12 -31 10 -3 80 26 80 34 0 11 -39 9
-68 -3z"/>
<path d="M3460 6490 c0 -5 6 -10 14 -10 8 0 21 -3 30 -6 11 -4 16 -1 16 10 0
11 -9 16 -30 16 -16 0 -30 -4 -30 -10z"/>
<path d="M3538 6155 c-10 -13 -18 -29 -18 -34 0 -18 27 -12 33 7 2 9 8 25 12
35 10 25 -7 20 -27 -8z"/>
<path d="M3761 6096 c-22 -36 -28 -80 -10 -74 15 5 49 97 39 103 -5 3 -18 -10
-29 -29z"/>
<path d="M5453 6589 c-27 -10 -28 -18 -9 -44 15 -21 43 -15 53 11 9 24 -17 44
-44 33z"/>
<path d="M5316 6564 c-13 -13 -14 -19 -5 -31 20 -23 54 -12 54 17 0 30 -26 38
-49 14z"/>
<path d="M5383 6463 c-17 -6 -16 -28 1 -42 12 -10 17 -9 24 6 16 31 4 48 -25
36z"/>
<path d="M5437 6373 c-9 -9 -8 -25 2 -42 7 -10 13 -11 30 -2 29 16 28 51 -2
51 -13 0 -27 -3 -30 -7z"/>
<path d="M5373 6293 c-7 -3 -13 -16 -13 -30 0 -18 5 -24 17 -21 19 4 30 35 16
48 -4 4 -14 5 -20 3z"/>
<path d="M4515 4367 c-4 -10 -5 -21 -1 -24 10 -10 18 4 13 24 -4 17 -4 17 -12
0z"/>
<path d="M4491 4334 c0 -11 3 -14 6 -6 3 7 2 16 -1 19 -3 4 -6 -2 -5 -13z"/>
<path d="M4444 4034 c2 -69 7 -128 10 -131 3 -4 6 53 6 125 0 86 -4 132 -11
132 -7 0 -9 -41 -5 -126z"/>
<path d="M3602 3797 c-6 -7 -38 -21 -70 -31 -59 -17 -61 -17 -100 3 -57 29
-73 5 -26 -42 22 -22 32 -25 78 -22 78 4 156 26 167 47 22 41 -21 79 -49 45z"/>
<path d="M1763 4504 c-7 -18 11 -39 26 -30 17 11 13 46 -4 46 -9 0 -18 -7 -22
-16z"/>
<path d="M1777 4393 c-4 -3 -7 -12 -7 -20 0 -17 26 -17 33 1 8 21 -11 35 -26
19z"/>
<path d="M1777 4214 c-8 -8 1 -24 14 -24 5 0 9 7 9 15 0 15 -12 20 -23 9z"/>
<path d="M1380 4190 c0 -11 7 -20 15 -20 8 0 15 9 15 20 0 11 -7 20 -15 20 -8
0 -15 -9 -15 -20z"/>
<path d="M7840 4035 c-27 -32 15 -58 64 -39 14 5 13 10 -6 30 -27 28 -41 30
-58 9z"/>
<path d="M7860 3845 c-7 -8 -10 -21 -6 -30 8 -22 36 -6 36 21 0 27 -12 31 -30
9z"/>
<path d="M7542 3698 c-14 -14 -16 -57 -3 -77 8 -12 12 -12 24 -3 20 17 26 43
16 70 -9 25 -19 28 -37 10z"/>
<path d="M7735 3560 c-3 -5 1 -10 10 -10 9 0 13 5 10 10 -3 6 -8 10 -10 10 -2
0 -7 -4 -10 -10z"/>
<path d="M7748 3493 c6 -2 18 -2 25 0 6 3 1 5 -13 5 -14 0 -19 -2 -12 -5z"/>
<path d="M7826 3468 c-18 -58 -6 -93 30 -86 15 3 19 12 19 48 -1 39 -4 45 -23
48 -12 2 -24 -3 -26 -10z"/>
<path d="M8027 3454 c-8 -8 1 -24 14 -24 5 0 9 7 9 15 0 15 -12 20 -23 9z"/>
<path d="M7735 3420 c-3 -5 6 -12 20 -16 29 -7 41 -1 30 15 -8 14 -42 14 -50
1z"/>
<path d="M1104 3506 c-8 -22 3 -49 19 -43 6 2 12 14 12 27 0 27 -22 39 -31 16z"/>
<path d="M987 3373 c-16 -15 -5 -24 25 -21 41 4 50 28 11 28 -17 0 -33 -3 -36
-7z"/>
<path d="M1010 3301 c0 -6 5 -13 10 -16 6 -3 10 1 10 9 0 9 -4 16 -10 16 -5 0
-10 -4 -10 -9z"/>
<path d="M1006 3252 c-3 -6 -1 -14 5 -17 15 -10 25 3 12 16 -7 7 -13 7 -17 1z"/>
<path d="M1832 3058 c-7 -7 -12 -20 -12 -31 0 -24 33 -19 38 7 5 24 -11 39
-26 24z"/>
<path d="M1755 3030 c-8 -13 13 -40 31 -40 8 0 14 10 14 25 0 18 -5 25 -19 25
-11 0 -23 -5 -26 -10z"/>
<path d="M1387 3003 c-14 -13 -6 -28 24 -46 30 -17 49 -15 49 4 0 5 -8 12 -17
16 -10 3 -25 12 -34 20 -9 7 -19 10 -22 6z"/>
<path d="M1844 2978 c-8 -12 5 -28 22 -28 8 0 14 8 14 18 0 19 -26 26 -36 10z"/>
<path d="M1567 2972 c-9 -13 43 -64 58 -58 24 9 17 40 -12 54 -31 14 -40 15
-46 4z"/>
<path d="M1490 2924 c0 -9 5 -14 12 -12 18 6 21 28 4 28 -9 0 -16 -7 -16 -16z"/>
<path d="M1374 2909 c-4 -6 -20 -8 -39 -5 -35 7 -57 -7 -28 -18 27 -11 103 4
103 20 0 17 -26 19 -36 3z"/>
<path d="M1917 2903 c-14 -13 -6 -33 13 -33 13 0 20 7 20 20 0 19 -20 27 -33
13z"/>
<path d="M1504 2879 c-10 -17 13 -36 27 -22 12 12 4 33 -11 33 -5 0 -12 -5
-16 -11z"/>
<path d="M1607 2883 c-16 -16 -5 -33 21 -33 35 0 45 9 31 27 -12 14 -41 18
-52 6z"/>
<path d="M1726 2855 c-3 -9 1 -18 10 -22 19 -7 28 2 21 22 -8 19 -23 19 -31 0z"/>
<path d="M1676 2823 c-9 -22 10 -41 25 -26 13 13 5 43 -10 43 -5 0 -12 -8 -15
-17z"/>
<path d="M2334 3526 c-9 -24 0 -51 18 -54 19 -4 42 33 34 54 -7 18 -45 18 -52
0z"/>
<path d="M2390 3230 c0 -15 5 -20 18 -18 9 2 17 10 17 18 0 8 -8 16 -17 18
-13 2 -18 -3 -18 -18z"/>
<path d="M2386 3161 c-10 -16 6 -42 23 -39 9 2 17 13 19 26 3 16 -2 22 -17 22
-11 0 -22 -4 -25 -9z"/>
<path d="M2380 3075 c-10 -12 -10 -18 1 -31 12 -15 15 -14 31 6 10 12 15 26
12 31 -8 14 -30 11 -44 -6z"/>
<path d="M5489 3401 c-22 -18 -17 -51 8 -51 26 0 53 20 53 39 0 26 -36 33 -61
12z"/>
<path d="M5350 3395 c-15 -18 -9 -49 11 -53 17 -3 43 43 34 59 -9 14 -31 11
-45 -6z"/>
<path d="M1645 3419 c-11 -16 4 -59 20 -59 10 0 15 11 15 35 0 35 -20 49 -35
24z"/>
<path d="M1742 3407 c-14 -17 -4 -57 14 -57 20 0 34 32 23 53 -12 20 -23 22
-37 4z"/>
<path d="M4657 3373 c-13 -12 -7 -44 9 -50 18 -7 34 12 34 40 0 17 -30 24 -43
10z"/>
<path d="M4677 3185 c-9 -23 3 -45 25 -45 15 0 19 6 16 27 -3 31 -32 43 -41
18z"/>
<path d="M4788 3089 c-10 -5 -18 -19 -18 -30 0 -19 4 -20 63 -13 76 8 80 10
67 35 -8 14 -21 19 -53 19 -23 0 -50 -5 -59 -11z"/>
<path d="M4821 2986 c-19 -23 -2 -46 34 -46 49 0 65 9 65 36 0 22 -4 24 -44
24 -25 0 -48 -6 -55 -14z"/>
<path d="M1985 3340 c-3 -5 -1 -19 5 -30 19 -35 44 -21 33 18 -6 23 -27 29
-38 12z"/>
<path d="M2115 3310 c-3 -5 -1 -19 6 -31 10 -19 12 -20 26 -6 9 9 13 23 10 31
-7 18 -32 21 -42 6z"/>
<path d="M3524 3146 c-9 -24 3 -46 26 -46 17 0 21 5 18 27 -3 31 -34 44 -44
19z"/>
<path d="M3380 2971 c0 -20 44 -42 68 -34 18 7 14 31 -7 43 -32 17 -61 12 -61
-9z"/>
<path d="M6065 3210 c-3 -11 -3 -24 0 -30 10 -16 45 8 45 30 0 27 -37 26 -45
0z"/>
<path d="M6147 3223 c-14 -13 -6 -33 13 -33 13 0 20 7 20 20 0 19 -20 27 -33
13z"/>
<path d="M6010 3060 c-12 -8 -12 -10 2 -15 19 -7 38 1 38 16 0 12 -21 11 -40
-1z"/>
<path d="M6005 2929 c-4 -6 -5 -12 -2 -15 7 -7 37 7 37 17 0 13 -27 11 -35 -2z"/>
<path d="M6010 2861 c0 -26 17 -36 35 -21 18 15 8 40 -16 40 -12 0 -19 -7 -19
-19z"/>
<path d="M6085 2849 c-10 -15 1 -23 20 -15 9 3 13 10 10 16 -8 13 -22 13 -30
-1z"/>
<path d="M6727 3233 c-12 -11 -8 -40 8 -53 18 -15 45 2 45 30 0 23 -37 39 -53
23z"/>
<path d="M6645 3186 c-16 -12 -18 -17 -7 -28 15 -15 47 0 47 22 0 20 -18 22
-40 6z"/>
<path d="M6710 3115 c0 -9 9 -15 25 -15 16 0 25 6 25 15 0 9 -9 15 -25 15 -16
0 -25 -6 -25 -15z"/>
<path d="M2326 2832 c-9 -15 9 -30 39 -33 40 -4 60 8 44 27 -12 15 -74 19 -83
6z"/>
<path d="M7595 2186 c-46 -11 -51 -15 -61 -51 -7 -22 -10 -56 -7 -76 5 -37 5
-37 -38 -43 -24 -3 -66 -8 -94 -11 -57 -6 -91 -32 -81 -62 8 -26 42 -40 127
-55 42 -7 73 -17 76 -25 8 -20 0 -24 -49 -29 -102 -9 -137 -17 -153 -34 -19
-21 -17 -49 5 -61 48 -26 91 -39 140 -41 47 -3 55 -6 55 -23 0 -16 -7 -20 -35
-20 -109 -1 -144 -44 -103 -130 22 -47 38 -39 38 19 0 53 12 66 63 66 26 0 34
-5 42 -26 6 -14 8 -29 5 -33 -6 -11 -7 -112 -1 -184 3 -41 10 -63 23 -72 13
-10 20 -10 25 -2 4 7 5 81 1 165 -5 144 -5 152 13 153 11 1 62 1 114 0 52 -1
139 4 192 10 l97 12 15 36 c13 32 13 37 -2 49 -9 6 -32 12 -51 13 -262 4 -351
8 -360 14 -6 3 -11 16 -11 27 0 19 4 20 43 14 86 -14 145 -15 164 -1 10 7 15
16 12 19 -9 9 -117 26 -166 26 -42 0 -63 13 -42 26 6 3 58 7 116 8 100 2 122
8 123 37 0 6 -85 17 -194 25 -55 3 -61 7 -53 29 7 18 42 19 141 5 54 -8 71 -8
78 2 18 30 -5 39 -127 53 -85 10 -98 14 -85 30 8 9 29 12 71 10 81 -4 95 1
114 42 15 31 15 36 1 58 -15 22 -26 27 -111 39 -11 2 -42 -2 -70 -8z m112 -68
c-2 -8 -20 -13 -42 -13 -22 0 -40 5 -43 13 -2 8 10 12 43 12 33 0 45 -4 42
-12z m-187 -167 c0 -15 -16 -22 -34 -15 -25 9 -19 24 9 24 14 0 25 -4 25 -9z
m-5 -186 c0 -18 -6 -20 -45 -17 -85 6 -111 27 -42 35 68 7 87 4 87 -18z m423
-84 c27 -15 -48 -24 -208 -25 -123 -1 -145 1 -145 14 0 12 19 16 85 20 109 7
247 2 268 -9z"/>
<path d="M6480 1880 c0 -5 5 -10 10 -10 6 0 10 5 10 10 0 6 -4 10 -10 10 -5 0
-10 -4 -10 -10z"/>
<path d="M7682 1541 c-8 -5 -12 -21 -10 -37 3 -27 6 -29 43 -29 37 0 40 2 43
29 4 31 -10 46 -43 46 -11 0 -26 -4 -33 -9z"/>
<path d="M7547 1234 c-13 -13 -8 -92 7 -97 28 -11 51 43 25 58 -6 4 -14 16
-18 26 -4 11 -10 17 -14 13z"/>
<path d="M5265 839 c-10 -15 3 -25 16 -12 7 7 7 13 1 17 -6 3 -14 1 -17 -5z"/>
<path d="M1003 833 c9 -2 23 -2 30 0 6 3 -1 5 -18 5 -16 0 -22 -2 -12 -5z"/>
<path d="M351 9685 c0 -31 2 -36 9 -23 6 10 7 25 1 40 -9 20 -10 18 -10 -17z"/>
</g>
</svg>
