<?xml version="1.0" standalone="no"?>
<!DOCTYPE svg PUBLIC "-//W3C//DTD SVG 20010904//EN"
 "http://www.w3.org/TR/2001/REC-SVG-20010904/DTD/svg10.dtd">
<svg version="1.0" xmlns="http://www.w3.org/2000/svg"
 width="940.000000pt" height="1507.000000pt" viewBox="0 0 940.000000 1507.000000"
 preserveAspectRatio="xMidYMid meet">
<metadata>
Created by potrace 1.16, written by Peter Selinger 2001-2019
</metadata>
<g transform="translate(0.000000,1507.000000) scale(0.100000,-0.100000)"
fill="#000000" stroke="none">
<path d="M1820 14667 c-3 -3 -250 -8 -550 -12 -410 -4 -546 -9 -552 -18 -4 -7
-6 -77 -3 -157 15 -450 21 -3371 9 -4545 -4 -363 -5 -671 -4 -685 10 -89 -5
-2759 -19 -3525 -8 -398 -5 -2495 4 -3010 2 -132 7 -638 10 -1125 3 -487 8
-904 11 -927 3 -23 10 -46 17 -51 7 -6 109 -8 267 -6 675 10 1330 13 3755 15
1441 0 2942 -2 3335 -6 586 -5 718 -4 732 7 16 12 18 58 26 523 5 281 8 559 8
618 -1 60 2 114 6 120 4 6 3 18 -1 26 -4 9 -5 46 -2 84 4 37 3 67 -1 67 -4 0
-8 309 -9 688 -2 883 0 1020 11 1061 6 23 6 39 -1 47 -11 14 -13 35 -12 169 0
50 1 140 1 200 1 61 2 480 2 933 1 697 3 822 15 822 15 0 41 39 28 41 -4 1
-15 2 -23 3 -18 1 -17 -61 -25 1026 -7 830 -10 3007 -7 4445 0 402 -1 827 -3
945 -3 118 -7 476 -10 795 -3 319 -9 621 -14 670 -5 50 -8 236 -7 414 2 316 1
323 -19 331 -11 4 -209 6 -441 5 l-421 -1 -36 -28 c-30 -23 -37 -25 -37 -12 0
31 -48 37 -227 32 -95 -2 -177 -7 -182 -10 -5 -4 -21 -2 -35 4 -25 9 -46 -2
-26 -15 15 -9 12 -25 -5 -25 -9 0 -15 10 -15 26 0 24 -3 25 -27 18 -16 -4 -66
-8 -113 -9 -47 -2 -92 -6 -102 -10 -9 -3 -29 0 -45 8 -24 12 -136 13 -708 10
-1634 -10 -3308 -2 -4265 22 -157 4 -287 4 -290 2z m190 -85 c107 0 445 0 750
0 346 0 572 -4 600 -11 30 -6 436 -8 1235 -5 2596 11 2660 10 2661 -6 0 -8 4
-30 8 -48 7 -27 3 -40 -19 -73 -15 -21 -31 -39 -34 -39 -4 0 -15 -16 -25 -35
-11 -19 -27 -35 -37 -35 -9 0 -49 -13 -89 -29 -457 -186 -658 -711 -440 -1151
40 -79 162 -222 248 -290 85 -67 304 -150 395 -150 25 0 39 -6 46 -18 6 -11
13 -72 16 -138 3 -65 8 -148 10 -184 l4 -66 -67 -23 c-281 -98 -454 -275 -548
-561 -36 -112 -37 -118 -37 -265 0 -121 4 -165 21 -226 24 -89 85 -214 137
-285 107 -141 321 -290 471 -327 l49 -12 -5 -40 c-3 -22 -5 -111 -4 -197 l0
-156 -45 -13 c-139 -38 -287 -130 -385 -238 -17 -19 -39 -43 -48 -53 -134
-139 -230 -431 -214 -652 9 -126 31 -206 88 -316 91 -175 142 -242 256 -334
65 -52 93 -68 237 -138 l70 -34 3 -132 c2 -120 1 -133 -15 -138 -40 -13 -159
-74 -178 -91 -11 -10 -46 -40 -78 -67 -111 -94 -205 -251 -247 -411 -49 -189
-12 -465 85 -632 31 -54 137 -169 210 -229 24 -19 86 -56 138 -82 l95 -47 6
-335 c3 -184 8 -344 11 -355 5 -17 -4 -25 -56 -50 -116 -55 -244 -164 -312
-266 -47 -71 -108 -205 -132 -289 -27 -96 -25 -297 3 -405 45 -167 156 -345
276 -440 61 -48 181 -122 213 -130 l23 -5 -1 -278 c0 -153 2 -295 6 -315 6
-33 5 -37 -14 -37 -14 0 -22 8 -27 28 -3 15 -7 33 -10 40 -2 8 -27 12 -76 13
-40 0 -98 2 -128 4 -30 2 -103 5 -162 7 -59 2 -108 5 -108 6 0 2 7 28 15 56
14 47 14 60 1 108 -27 104 -55 141 -141 186 -43 22 -66 26 -166 30 -76 3 -123
0 -137 -7 -29 -15 -29 1 0 40 18 24 23 45 24 107 1 43 5 92 8 109 5 21 2 42
-9 63 -9 17 -15 41 -15 53 6 63 0 76 -38 96 -20 10 -64 22 -96 26 l-58 8 7 99
c5 72 3 103 -5 113 -16 19 -119 20 -144 2 -28 -20 -31 -84 -7 -147 26 -67 26
-89 4 -96 -10 -3 -27 -10 -38 -14 -11 -5 -58 -18 -105 -29 -119 -29 -220 -27
-220 5 0 7 -13 20 -30 29 -16 8 -36 28 -45 44 -9 19 -26 32 -45 36 -37 8 -41
15 -45 75 -8 106 -57 189 -135 228 -22 11 -35 24 -35 37 -1 32 -26 125 -35
125 -4 0 -13 -7 -20 -15 -11 -14 -10 -44 7 -112 4 -18 0 -22 -29 -25 -28 -2
-34 -7 -36 -31 -3 -23 -42 -61 -42 -40 1 53 82 233 105 233 19 0 74 66 81 97
4 14 2 34 -4 44 -14 22 -5 102 15 142 17 34 9 82 -17 100 -22 15 -30 78 -13
99 5 7 27 67 47 133 20 66 48 149 61 185 13 36 29 84 35 107 8 33 16 43 40 52
17 5 38 7 46 4 41 -15 154 46 172 95 30 75 32 104 11 133 -24 34 -139 92 -180
91 -23 0 -32 5 -39 23 -7 18 -19 25 -54 30 -24 4 -54 4 -66 0 -14 -4 -28 -1
-41 11 -21 19 -113 21 -135 3 -21 -17 -64 -111 -64 -138 0 -65 58 -131 114
-131 30 0 32 -7 12 -36 -8 -11 -19 -40 -26 -64 -6 -25 -24 -76 -40 -115 -15
-38 -31 -86 -35 -105 -20 -99 -53 -179 -75 -180 -9 0 -30 79 -30 116 0 34 -23
82 -77 163 -13 19 -23 42 -23 52 0 36 -59 164 -91 197 -32 32 -32 34 -17 60 9
15 48 43 90 64 73 38 75 40 106 111 35 78 74 113 106 95 11 -6 21 -6 30 1 6 5
21 8 33 5 26 -7 78 19 120 60 18 17 44 41 58 53 29 26 32 60 11 120 -12 33
-12 43 0 64 17 30 18 73 2 98 -10 16 -7 24 15 51 40 47 31 124 -18 150 -18 10
-25 22 -25 42 0 82 -122 192 -205 186 -28 -3 -30 -1 -35 38 -4 30 -16 55 -45
87 -53 59 -133 88 -260 91 -49 2 -103 8 -118 15 -61 24 -186 2 -268 -48 -37
-23 -159 -132 -159 -143 0 -5 -9 -18 -19 -29 -16 -18 -22 -19 -41 -9 -18 10
-31 9 -61 0 -52 -18 -72 -42 -79 -97 -4 -41 -10 -50 -50 -78 -25 -17 -51 -45
-59 -61 -8 -16 -22 -39 -32 -52 -14 -19 -16 -28 -7 -55 6 -18 10 -48 9 -68 -1
-20 3 -48 8 -61 10 -27 65 -58 103 -58 16 0 29 -9 37 -24 7 -13 24 -29 37 -35
31 -14 30 -26 -5 -62 -34 -33 -44 -35 -107 -13 -33 11 -56 13 -83 7 -31 -8
-39 -15 -56 -59 -22 -55 -57 -104 -74 -104 -6 0 -11 13 -11 29 0 34 -15 49
-58 57 -37 7 -36 6 -17 63 9 24 13 52 10 62 -9 28 -45 47 -80 44 -16 -2 -37
-3 -46 -4 -35 -2 -51 -27 -58 -87 l-6 -59 -53 -5 c-41 -4 -58 -11 -73 -30 -10
-14 -19 -30 -19 -37 0 -6 -13 -16 -30 -22 -33 -11 -37 -22 -15 -41 27 -22 77
0 97 42 10 20 22 39 28 43 16 10 37 -12 42 -43 3 -15 8 -34 12 -43 6 -13 -1
-18 -35 -23 -42 -7 -178 -67 -201 -89 -7 -7 -31 -25 -53 -41 -22 -16 -45 -36
-52 -44 -6 -8 -27 -31 -45 -51 -32 -36 -41 -49 -76 -103 -21 -35 -28 -35 -37
-1 -18 75 -100 68 -119 -10 -8 -35 -31 -44 -55 -23 -24 22 -89 23 -134 1 -30
-14 -37 -23 -37 -45 0 -39 54 -84 119 -100 28 -6 53 -15 56 -19 2 -4 1 -21 -4
-37 l-7 -28 -24 27 c-41 47 -93 35 -120 -28 -17 -39 -21 -43 -65 -47 -50 -6
-72 -19 -61 -37 15 -24 160 -3 184 27 10 14 12 13 12 -6 0 -33 24 -37 59 -11
17 12 33 20 37 17 6 -6 -27 -77 -56 -118 -9 -14 -23 -42 -30 -64 -7 -21 -35
-63 -62 -93 -54 -60 -79 -109 -97 -193 -6 -30 -17 -79 -23 -107 -6 -29 -15
-53 -20 -53 -4 0 -8 5 -8 11 0 6 -16 9 -37 7 -34 -3 -40 -8 -58 -45 -17 -37
-24 -43 -50 -43 -36 -1 -95 -50 -95 -80 0 -10 14 -35 31 -55 31 -35 56 -44 75
-25 6 6 15 5 24 -1 12 -8 12 -12 2 -16 -7 -3 -26 -16 -41 -29 -34 -29 -44 -29
-82 -7 -25 15 -31 15 -55 3 -30 -17 -49 -51 -41 -74 9 -23 44 -20 57 5 10 17
17 20 51 14 29 -5 47 -2 64 9 31 20 32 20 31 -5 -1 -35 24 -34 37 0 6 17 16
30 22 28 14 -6 7 -84 -11 -119 -9 -16 -13 -33 -10 -36 4 -3 -6 -18 -20 -33
-23 -24 -26 -34 -20 -67 4 -31 2 -44 -14 -62 -11 -13 -25 -42 -31 -64 -6 -23
-16 -52 -21 -66 -6 -14 -14 -34 -19 -45 -4 -11 -10 -42 -13 -68 -4 -37 -16
-62 -50 -105 -24 -31 -51 -77 -60 -102 -16 -45 -43 -187 -72 -375 -8 -55 -22
-119 -29 -142 -8 -23 -12 -48 -10 -55 6 -18 -15 -48 -21 -31 -3 7 -16 28 -29
48 -23 34 -25 44 -30 252 -6 232 -17 308 -47 335 -11 10 -17 21 -14 26 11 18
-20 45 -42 38 -26 -9 -29 -41 -5 -55 27 -15 13 -21 -60 -24 -65 -4 -66 -4 -76
25 -9 25 -13 28 -30 19 -18 -10 -19 -20 -17 -108 2 -54 1 -174 -3 -268 l-6
-169 -49 3 c-27 1 -65 11 -85 22 -20 10 -50 19 -67 19 -30 0 -31 2 -38 53 -10
91 -7 121 14 140 34 28 26 41 -40 64 -65 23 -102 16 -114 -24 -4 -13 -11 -23
-15 -23 -5 0 -8 -18 -8 -40 0 -22 -3 -43 -5 -46 -3 -2 -24 -2 -46 2 -37 6 -42
10 -48 40 -3 19 -3 41 0 50 9 23 -12 44 -44 44 -34 0 -90 18 -111 36 -8 8 -26
14 -38 14 -20 0 -23 -4 -18 -26 3 -16 0 -28 -9 -31 -8 -3 -14 -17 -14 -30 0
-19 17 -42 62 -83 l62 -58 -30 -28 c-17 -16 -45 -40 -63 -54 -33 -25 -33 -25
-15 -48 18 -22 26 -23 161 -25 l142 -1 11 -30 c5 -16 10 -42 10 -58 0 -16 5
-49 11 -74 16 -60 5 -68 -58 -44 -28 10 -82 22 -120 26 -37 3 -72 12 -78 19
-5 6 -20 17 -32 24 -13 6 -23 16 -23 22 0 16 -42 47 -73 54 -23 6 -34 1 -63
-29 -19 -20 -47 -39 -62 -42 -15 -3 -48 -12 -74 -20 -27 -7 -48 -10 -49 -6 -1
4 0 87 1 185 2 197 -6 227 -56 227 l-25 0 1 358 c1 196 1 447 1 557 -1 109 1
247 4 305 3 58 7 224 10 370 2 146 7 402 10 570 3 168 10 512 15 765 5 253 8
1110 5 1905 -2 795 -3 1780 -2 2190 3 1720 2 2662 -4 3095 -3 253 -3 465 -1
472 5 15 132 19 647 16 209 -1 468 -1 575 -1z m5711 -7 c-2 -6 -11 -26 -19
-45 -8 -19 -18 -74 -22 -123 -4 -48 -10 -90 -13 -94 -4 -3 -26 -2 -49 3 -30 6
-44 15 -46 29 -3 10 -29 48 -58 83 -30 35 -54 67 -54 71 0 5 7 14 16 22 10 8
13 21 9 36 -4 16 -1 23 10 23 11 0 15 -12 15 -49 0 -81 44 -92 49 -12 2 44 15
59 54 63 62 6 112 3 108 -7z m105 4 c3 -5 -4 -24 -15 -42 -13 -22 -22 -59 -27
-120 -5 -63 -10 -87 -20 -87 -8 0 -14 -4 -14 -10 0 -5 -9 -19 -20 -30 -17 -17
-21 -18 -26 -6 -3 8 -1 23 4 33 5 10 10 52 11 93 2 64 7 94 26 167 4 13 73 15
81 2z m84 -4 c0 -2 -9 -23 -19 -48 -21 -48 -39 -150 -36 -200 1 -18 2 -53 3
-79 1 -35 6 -48 17 -48 23 0 35 33 25 76 -4 21 -7 59 -6 84 2 49 34 149 53
165 6 6 13 19 15 30 3 18 12 20 93 23 l90 2 23 -51 c13 -28 27 -77 32 -108 17
-112 47 -673 34 -628 -3 10 -13 17 -22 15 -15 -3 -17 -18 -15 -118 1 -86 -1
-103 -7 -69 -29 162 -99 328 -175 415 -23 27 -54 68 -69 92 -14 23 -34 42 -43
42 -9 0 -31 11 -49 25 -18 14 -39 25 -47 25 -23 0 -29 28 -8 39 15 9 19 27 23
113 3 72 10 113 23 137 13 26 15 39 7 52 -6 9 -9 19 -6 21 4 5 64 -2 64 -7z
m-562 -23 c4 -24 -7 -29 -25 -11 -14 14 -5 41 11 36 6 -2 12 -13 14 -25z m935
-9 c28 -66 40 -138 39 -243 0 -25 5 -112 10 -195 12 -166 19 -341 19 -425 0
-30 0 -163 1 -295 2 -284 2 -622 -1 -905 -2 -140 3 -237 13 -305 8 -55 17
-143 21 -195 6 -101 23 -256 31 -279 3 -10 7 -11 18 -2 10 8 13 27 10 64 -2
29 -9 113 -14 187 -5 74 -14 164 -21 200 -6 39 -10 170 -8 330 5 648 -10 1274
-41 1675 -12 148 -9 409 3 422 4 3 17 1 30 -4 l24 -11 3 -234 c1 -128 2 -251
1 -273 -1 -22 4 -71 10 -110 12 -72 25 -614 18 -740 -8 -140 -3 -589 10 -945
14 -373 10 -839 -8 -997 -8 -69 -16 -91 -45 -134 -29 -43 -33 -56 -24 -72 8
-16 7 -28 -8 -55 -17 -32 -18 -32 -26 -12 -11 31 -31 20 -42 -24 -6 -26 -5
-45 4 -61 10 -19 9 -25 -12 -46 -33 -33 -76 -176 -81 -269 -2 -41 1 -120 8
-175 22 -175 60 -280 127 -347 33 -33 44 -38 86 -38 60 0 72 9 116 90 32 60
36 75 42 178 5 81 4 112 -4 112 -12 0 -14 -6 -32 -115 -15 -94 -64 -186 -105
-197 -99 -26 -172 120 -189 377 -12 168 17 297 81 361 19 18 31 40 31 56 0 29
30 89 48 95 6 2 14 -10 17 -26 7 -35 45 -53 59 -27 13 23 26 20 41 -11 24 -47
29 -101 28 -271 -1 -140 1 -164 15 -169 9 -3 19 -1 23 5 3 5 7 79 9 164 4 175
-13 279 -54 341 -22 34 -29 38 -54 32 -26 -6 -30 -3 -36 20 -3 14 -15 30 -26
36 -18 10 -18 11 3 46 24 38 34 102 45 298 9 158 10 829 2 949 -13 185 -17
659 -7 780 9 101 8 126 -5 160 -12 33 -14 54 -6 106 13 87 12 364 -1 470 -12
105 -21 507 -13 613 7 76 7 77 35 77 15 0 30 -4 33 -9 4 -5 8 -148 11 -318 3
-169 7 -357 9 -418 8 -232 7 -327 -4 -340 -6 -7 -12 -33 -13 -57 -2 -37 1 -43
18 -43 17 0 20 8 23 50 2 27 8 55 14 62 10 12 13 267 3 283 -2 4 -6 182 -7
396 l-3 389 39 0 39 0 1 -200 c0 -110 -4 -317 -8 -460 -8 -236 -8 -261 7 -274
10 -7 18 -10 18 -5 3 16 9 355 11 643 3 248 5 285 19 294 9 6 24 7 33 4 16 -6
17 -43 14 -487 l-3 -480 -32 -11 c-37 -12 -81 -72 -115 -158 -19 -46 -23 -76
-23 -171 0 -98 3 -122 22 -162 13 -28 29 -48 38 -48 9 0 21 -13 26 -29 6 -17
26 -39 45 -50 l35 -21 0 -247 c-1 -311 7 -435 26 -447 13 -7 14 -122 8 -890
-4 -484 -9 -883 -11 -885 -2 -2 -7 -1 -11 3 -11 10 -10 266 0 341 7 54 6 61
-12 77 -18 14 -21 28 -21 92 0 47 -6 91 -15 114 -14 31 -14 47 -4 107 14 79
17 1009 4 1255 -4 80 -8 177 -10 215 -7 205 -31 319 -64 313 -18 -4 -18 -1 -2
-153 6 -55 13 -136 15 -180 2 -44 8 -161 14 -260 13 -219 9 -1115 -6 -1165 -6
-19 -16 -49 -22 -65 -11 -27 -10 -34 14 -69 22 -33 26 -49 25 -105 l-1 -66
-16 48 c-10 26 -35 68 -57 95 l-41 47 28 50 c15 28 28 66 28 86 0 20 6 56 13
80 9 30 11 54 5 74 -5 17 -11 120 -12 230 -5 317 -23 832 -32 920 -3 22 -7
112 -11 200 -6 166 -15 217 -35 197 -18 -18 -21 -105 -9 -220 26 -245 27 -267
34 -547 3 -104 8 -278 11 -385 3 -107 7 -271 8 -365 l3 -170 -38 -75 c-49 -98
-48 -113 7 -145 31 -18 48 -36 55 -58 28 -87 44 -309 45 -622 1 -147 -1 -164
-22 -208 -13 -27 -21 -55 -18 -62 7 -20 46 -6 55 19 17 44 19 231 9 584 -6
176 -5 193 10 190 15 -3 17 -30 20 -243 4 -341 3 -682 -3 -880 -7 -238 -5
-683 3 -855 9 -156 8 -268 -5 -675 -8 -247 -9 -262 -31 -297 -13 -21 -35 -43
-50 -50 -18 -9 -32 -29 -44 -62 -17 -43 -17 -60 -7 -155 6 -58 8 -144 4 -191
-4 -55 -3 -96 5 -114 7 -20 12 -185 16 -495 4 -494 12 -601 44 -601 14 0 20
11 25 43 4 23 16 61 27 84 20 39 23 42 57 39 l36 -4 2 -86 c1 -47 -2 -86 -6
-86 -4 0 -13 15 -19 34 -14 38 -38 52 -58 35 -18 -15 -54 -138 -61 -208 -6
-60 -36 -121 -59 -121 -11 0 -14 16 -15 68 -6 292 -27 818 -39 947 -5 55 -7
174 -4 265 3 91 7 221 9 290 2 69 4 167 4 218 1 102 0 100 83 167 25 20 25 23
22 156 -1 75 -5 174 -9 222 -7 77 -5 89 14 120 19 31 21 51 23 238 3 222 -15
665 -38 934 -17 205 -18 258 -2 324 9 40 9 54 0 63 -44 44 -76 -150 -52 -312
13 -85 43 -594 56 -971 6 -175 6 -177 -17 -209 -23 -31 -24 -37 -21 -193 1
-89 4 -197 6 -240 l3 -77 -39 -31 c-69 -55 -71 -66 -76 -329 -8 -398 -2 -846
12 -868 2 -4 7 -156 10 -337 7 -378 12 -461 32 -492 19 -30 58 -30 89 1 25 25
55 111 55 156 0 40 30 131 40 125 6 -4 10 -28 10 -56 0 -52 19 -67 39 -31 7
12 10 -25 11 -130 0 -127 -2 -148 -16 -148 -8 0 -24 -19 -35 -42 -11 -24 -28
-56 -39 -73 -21 -33 -26 -135 -11 -195 13 -49 24 -349 12 -330 -10 16 -40 146
-50 222 -4 25 -13 53 -20 62 -10 12 -11 47 -6 155 7 134 9 141 32 156 14 9 32
33 40 53 8 20 29 56 46 79 25 36 28 45 17 58 -12 14 -16 13 -37 -7 -14 -13
-36 -47 -49 -76 -16 -36 -29 -52 -38 -49 -8 3 -23 -1 -34 -9 -19 -13 -20 -26
-22 -156 -2 -205 -2 -210 9 -221 6 -6 11 -30 11 -54 0 -23 4 -52 9 -65 20 -50
40 -168 46 -273 3 -60 10 -150 14 -200 8 -89 4 -718 -4 -743 -2 -6 -16 -12
-30 -12 -24 0 -25 2 -26 68 0 37 -2 117 -3 177 -2 61 -4 206 -5 323 -2 196 -5
223 -32 345 l-30 132 5 327 c6 321 5 328 -14 338 -30 16 -34 -5 -26 -139 4
-64 9 -228 10 -366 3 -264 11 -382 29 -403 8 -10 13 -562 7 -764 0 -5 -16 -8
-35 -8 -33 0 -41 9 -36 42 0 3 1 130 3 281 1 221 -1 279 -12 292 -11 14 -11
27 6 88 26 97 26 313 0 406 -15 56 -17 109 -17 420 0 195 -4 392 -9 436 -5 44
-15 132 -21 195 -7 63 -13 243 -14 400 0 157 -4 291 -9 298 -24 38 -29 -4 -32
-258 -1 -177 2 -305 12 -385 27 -238 34 -345 39 -632 3 -181 2 -293 -4 -293
-5 0 -21 20 -34 45 -19 33 -24 54 -20 78 3 18 0 73 -7 123 -6 49 -13 206 -16
349 -3 143 -9 323 -13 400 -4 77 -7 228 -6 335 l2 195 34 81 c19 44 39 79 45
77 19 -6 34 144 35 355 0 116 -3 217 -6 223 -4 6 -1 56 6 111 12 98 14 101 45
120 42 24 61 67 72 157 17 141 -17 255 -105 348 -34 37 -45 44 -56 35 -11 -9
-18 -8 -32 8 -9 10 -32 24 -50 30 -41 13 -58 5 -100 -52 l-30 -40 -6 84 c-5
66 -3 87 9 101 23 26 32 21 32 -17 0 -35 24 -66 39 -50 20 22 20 62 0 88 l-20
26 27 35 c14 19 30 35 35 35 5 0 9 -38 9 -85 0 -68 3 -87 15 -92 25 -9 28 1
35 100 6 71 4 96 -6 108 -18 20 -18 21 8 64 18 32 22 34 31 20 5 -9 10 -89 11
-178 2 -138 5 -162 19 -165 24 -5 30 30 30 178 -1 143 -6 224 -18 253 -7 17
34 187 46 187 10 0 19 -209 19 -436 0 -160 3 -215 13 -229 34 -46 38 -11 31
303 -6 298 -10 422 -15 432 -1 3 -3 100 -5 215 -5 300 -16 535 -25 535 -5 0
-12 -12 -15 -27 -4 -16 -12 -37 -18 -48 -10 -18 -11 -15 -16 25 -4 36 -10 47
-37 62 -38 23 -50 10 -23 -25 17 -21 19 -40 19 -142 l-1 -117 -51 86 c-50 83
-151 199 -212 243 -25 18 -27 23 -16 37 10 12 11 36 5 103 -4 48 -7 111 -6
138 1 28 -2 106 -8 175 -6 69 -12 161 -14 205 -4 78 -4 81 27 113 17 17 34 32
38 32 4 0 1 -21 -7 -46 -21 -71 -25 -299 -7 -449 9 -77 13 -162 9 -207 -5 -71
-3 -80 16 -98 24 -22 38 -18 38 10 0 26 17 34 25 11 3 -11 19 -36 35 -56 23
-28 27 -43 23 -69 -3 -23 0 -38 12 -50 21 -21 41 -15 37 10 -2 10 -6 39 -9 64
-4 33 -16 57 -46 92 -23 27 -47 46 -54 44 -19 -8 -33 26 -33 81 0 27 -6 100
-14 164 -14 112 -15 321 -1 420 4 27 16 60 26 73 14 17 18 33 13 51 -4 18 0
34 18 58 107 141 183 408 163 577 -11 98 -36 212 -58 259 -11 25 -22 64 -23
86 -2 22 -5 87 -9 145 -3 58 -9 168 -14 245 -4 77 -7 158 -7 180 1 30 -3 40
-14 39 -14 -1 -15 54 -13 485 1 267 5 521 7 564 5 76 -8 108 -18 45 -6 -35
-17 -520 -17 -753 0 -77 -4 -183 -9 -235 -6 -73 -5 -97 5 -105 8 -7 15 -58 20
-160 l7 -150 -21 24 c-15 18 -21 38 -21 75 -1 28 -3 92 -6 141 -3 50 -9 141
-13 204 -4 66 -1 181 6 275 15 212 16 206 -2 206 -8 0 -15 -6 -15 -12 0 -7 -5
-42 -10 -78 -13 -88 -13 -355 1 -585 6 -104 10 -210 9 -235 -2 -25 -3 -64 -4
-87 0 -24 -1 -43 -2 -43 -1 0 -23 20 -50 45 -38 36 -43 45 -27 45 13 0 23 8
27 23 11 41 5 162 -10 202 -12 35 -12 79 1 360 9 177 23 359 32 408 15 81 15
90 0 104 -15 15 -17 14 -25 -8 -22 -56 -32 -134 -37 -289 -3 -91 -7 -190 -10
-220 -11 -113 -13 -138 -20 -280 -3 -82 -2 -177 4 -220 5 -41 9 -76 7 -77 -1
-1 -17 11 -35 27 l-32 30 1 118 c1 64 1 205 1 312 0 107 3 234 7 282 4 50 3
96 -2 108 -7 15 -4 27 11 48 72 97 143 308 143 423 0 27 4 38 11 33 8 -5 10
-48 5 -150 -5 -100 -3 -144 4 -149 6 -4 13 -5 16 -2 2 2 5 105 5 228 0 142 4
216 9 202 5 -13 14 -23 21 -23 8 0 10 93 6 348 -4 299 -8 362 -26 452 -11 58
-23 115 -27 128 -6 19 -3 22 23 22 25 0 33 -6 46 -37z m-945 -123 c15 -12 22
-28 20 -42 -3 -20 -10 -23 -55 -26 -61 -3 -65 4 -30 55 25 38 33 40 65 13z
m124 -2 c8 -13 23 -36 34 -52 l18 -29 -39 7 c-52 10 -56 14 -48 59 7 43 15 46
35 15z m8 -202 c78 -13 188 -48 200 -65 3 -3 17 -12 33 -19 15 -6 33 -23 39
-37 9 -20 17 -25 34 -21 17 5 34 -7 82 -59 219 -233 261 -565 107 -840 -51
-90 -191 -219 -285 -262 -146 -67 -244 -87 -370 -74 -287 31 -514 210 -612
482 -19 55 -23 83 -23 204 0 156 11 208 72 325 102 200 328 354 548 373 80 7
91 7 175 -7z m767 -498 c-2 -13 -4 -5 -4 17 -1 22 1 32 4 23 2 -10 2 -28 0
-40z m531 -205 c2 -8 -5 -13 -16 -13 -25 0 -46 -25 -73 -85 -19 -42 -21 -61
-17 -141 6 -102 28 -159 63 -159 25 0 31 28 10 48 -20 21 -39 121 -31 170 8
51 33 97 51 97 20 0 20 -76 0 -110 -19 -34 -18 -59 3 -100 13 -25 19 -59 20
-123 0 -49 -2 -87 -6 -85 -4 2 -19 10 -33 17 -15 7 -32 24 -38 37 -6 13 -17
24 -25 24 -23 0 -56 92 -56 157 1 104 34 215 78 266 18 20 63 20 70 0z m-784
-895 c-1 -200 -2 -370 -3 -380 -1 -15 -4 -15 -38 2 -21 9 -55 23 -75 31 -37
13 -52 39 -23 39 27 0 31 34 22 165 -13 187 -15 395 -5 401 14 9 23 -4 24 -34
5 -219 18 -454 25 -458 5 -3 9 -17 9 -32 0 -36 14 -56 34 -49 18 7 21 48 7 76
-9 16 -27 351 -26 487 1 57 22 114 43 114 4 0 7 -163 6 -362z m-190 186 c3 -9
6 -41 6 -73 0 -31 4 -92 9 -136 15 -128 18 -240 5 -240 -6 0 -23 14 -37 31
-26 30 -27 37 -33 201 -6 146 -4 173 10 201 18 35 31 40 40 16z m-98 -184 c7
-116 6 -124 -9 -111 -10 7 -17 19 -17 27 0 7 -10 20 -21 28 -19 13 -21 22 -17
91 3 62 7 80 23 91 10 8 22 11 26 7 4 -5 11 -64 15 -133z m-176 66 c0 -6 5
-17 12 -24 15 -15 37 2 39 32 1 11 5 3 8 -19 9 -55 3 -72 -25 -78 -27 -5 -49
15 -41 37 3 7 -1 23 -9 35 -8 12 -12 26 -9 31 8 13 25 3 25 -14z m-60 7 c0 -5
-14 -21 -30 -37 -26 -25 -30 -27 -30 -10 0 24 10 39 30 47 22 8 30 8 30 0z
m-23 -115 c4 -7 6 -40 5 -73 -2 -33 1 -71 6 -84 10 -28 -6 -83 -23 -78 -11 4
-30 210 -21 233 7 17 22 18 33 2z m259 -175 c14 -52 -6 -43 -37 17 -46 88 -46
91 -5 45 20 -22 39 -50 42 -62z m-92 -23 l36 -50 -40 0 c-39 0 -40 1 -40 33 0
18 -5 38 -11 44 -12 12 -3 37 11 28 4 -3 24 -28 44 -55z m150 -55 c4 -11 -1
-15 -19 -15 -29 0 -34 16 -7 23 9 3 18 5 18 6 1 0 4 -6 8 -14z m-29 -125 c138
-34 345 -152 345 -196 0 -8 6 -14 13 -14 29 0 127 -132 168 -227 51 -118 72
-264 57 -401 -18 -169 -87 -313 -207 -433 -115 -115 -199 -163 -357 -204 -146
-38 -299 -32 -446 18 -43 15 -139 65 -148 78 -3 3 -19 14 -37 22 -43 23 -132
113 -178 183 -80 120 -112 207 -138 377 -7 43 11 201 29 264 68 236 276 453
499 521 123 37 279 42 400 12z m569 -137 c4 -43 9 -95 11 -115 3 -21 4 -38 2
-38 -3 0 -21 25 -41 56 -27 41 -35 59 -27 67 6 6 11 27 11 47 0 33 14 60 31
60 4 0 10 -35 13 -77z m-210 -1388 c9 -104 26 -588 21 -593 -12 -12 -24 17
-30 73 -4 33 -13 98 -20 145 -7 47 -14 152 -14 234 -1 82 -4 153 -7 158 -8 13
26 62 36 52 5 -5 11 -36 14 -69z m-70 -212 c3 -117 11 -236 17 -264 14 -64 3
-79 -40 -53 -17 10 -31 23 -31 29 0 5 -5 50 -10 99 -5 50 -12 156 -16 237 l-6
148 33 20 c25 15 35 17 40 8 3 -6 9 -108 13 -224z m-113 80 c0 -60 6 -162 13
-228 7 -66 12 -123 10 -127 -8 -13 -46 5 -53 26 -5 11 -11 102 -15 201 -4 99
-9 187 -12 196 -4 14 24 36 49 38 4 1 7 -47 8 -106z m-75 -148 l7 -170 -26 23
c-23 22 -26 33 -32 130 -3 59 -8 130 -10 157 -4 54 1 69 25 77 23 8 29 -30 36
-217z m-102 197 c2 -4 6 -41 10 -82 3 -41 9 -103 12 -137 4 -37 2 -63 -3 -63
-16 0 -53 40 -57 63 -8 36 -17 207 -12 215 6 10 44 13 50 4z m-243 -14 c3 -37
-3 -343 -7 -347 -23 -24 -36 105 -27 267 4 68 9 92 19 92 8 0 15 -6 15 -12z
m156 -74 l2 -79 -16 35 c-29 67 -30 137 0 128 8 -3 13 -31 14 -84z m-77 33 c0
-40 -13 -67 -32 -67 -10 0 -11 94 -1 103 19 20 33 5 33 -36z m-20 -156 c0 -11
4 -23 10 -26 6 -4 4 -17 -5 -36 -19 -35 -37 -29 -31 9 2 15 5 37 5 50 1 27 21
30 21 3z m48 -113 c19 -19 14 -28 -18 -28 -16 0 -30 4 -30 8 0 9 21 32 30 32
3 0 11 -5 18 -12z m152 -30 c0 -13 -27 -9 -40 7 -19 23 -1 39 21 19 10 -9 19
-21 19 -26z m-50 -138 c133 -13 177 -26 281 -86 239 -138 409 -424 409 -685
-1 -381 -267 -703 -645 -780 -80 -16 -261 -14 -333 5 -187 48 -363 165 -468
312 -30 42 -84 141 -84 154 0 7 -6 26 -14 43 -42 95 -58 257 -39 382 51 322
298 585 618 657 44 9 98 15 120 13 22 -2 92 -9 155 -15z m1079 -292 c-2 -80
-3 -86 -9 -43 -4 28 -10 57 -14 66 -7 15 8 69 19 69 3 0 4 -42 4 -92z m-275
-31 c11 -127 15 -387 7 -387 -5 0 -11 26 -15 58 -4 31 -16 90 -27 129 -16 58
-18 77 -8 94 6 12 9 40 6 61 -4 28 -1 41 9 45 19 7 18 23 -1 23 -17 0 -18 4
-8 50 5 30 7 31 19 16 7 -10 15 -50 18 -89z m275 -422 c0 -124 -5 -227 -10
-231 -5 -3 -9 86 -9 219 0 197 3 237 17 237 2 0 3 -101 2 -225z m-3 -285 c-5
-54 -16 -63 -16 -13 0 35 6 53 17 53 1 0 1 -18 -1 -40z m-1 -80 c3 -5 1 -10
-4 -10 -6 0 -11 5 -11 10 0 6 2 10 4 10 3 0 8 -4 11 -10z m-1 -205 c-4 -8 -8
-15 -10 -15 -2 0 -4 7 -4 15 0 8 4 15 10 15 5 0 7 -7 4 -15z m-603 -393 c4
-114 12 -250 18 -302 6 -52 7 -97 3 -101 -4 -4 -29 13 -55 37 -27 24 -44 44
-38 44 9 0 11 47 8 168 -5 216 5 339 30 357 10 7 20 11 23 8 3 -2 8 -98 11
-211z m614 -362 c4 -316 8 -577 10 -580 6 -10 17 -970 11 -970 -3 0 -20 15
-36 33 l-30 32 -25 -28 c-14 -15 -25 -34 -25 -41 0 -8 -6 -19 -14 -25 -21 -17
-27 103 -31 559 -3 396 -11 682 -19 735 -8 47 14 104 45 120 15 8 39 35 54 61
34 57 42 145 35 369 -4 131 5 324 15 313 1 -2 6 -262 10 -578z m-707 280 c2
-238 2 -240 -18 -228 -35 22 -43 79 -35 263 5 132 10 174 23 188 8 9 18 17 22
17 4 0 8 -108 8 -240z m296 166 c30 -40 34 -62 9 -51 -57 24 -82 -7 -90 -109
-4 -52 -2 -66 19 -96 29 -43 60 -50 82 -18 23 33 20 71 -9 98 -19 18 -28 21
-37 12 -9 -9 -8 -16 5 -30 20 -22 22 -52 4 -52 -33 0 -45 105 -17 149 23 38
90 -49 90 -117 0 -38 16 -50 26 -20 11 33 5 68 -17 107 -21 35 -19 84 4 98 17
11 65 -56 87 -121 41 -126 21 -286 -37 -294 -12 -2 -27 -9 -33 -17 -16 -20
-29 -130 -31 -271 -1 -65 -5 -128 -10 -139 -9 -20 -4 159 7 318 4 54 3 77 -5
77 -18 0 -20 -14 -25 -164 -3 -76 -7 -141 -10 -144 -3 -3 -14 14 -25 37 -15
35 -17 48 -8 72 8 21 8 43 -2 86 -8 32 -16 77 -18 101 -5 42 -5 42 27 42 45 0
123 78 139 138 7 23 9 47 6 53 -9 14 -35 -9 -35 -31 0 -23 -45 -77 -83 -101
-22 -13 -35 -15 -51 -8 -26 12 -63 65 -82 116 -18 52 -18 157 2 194 8 16 12
39 9 50 -10 31 20 69 54 69 21 0 36 -9 55 -34z m-380 -158 c-4 -101 -8 -184
-9 -186 -2 -2 -18 4 -35 13 -27 14 -31 21 -27 44 3 15 9 86 13 157 5 100 10
132 22 142 40 31 42 20 36 -170z m-97 2 c-4 -72 -9 -135 -12 -140 -3 -4 -14
-6 -26 -3 -19 5 -20 11 -16 130 3 127 8 142 46 143 12 0 13 -22 8 -130z m-87
10 c0 -42 -3 -80 -7 -83 -3 -4 -17 3 -30 15 -20 18 -23 31 -23 89 0 56 3 68
18 71 33 8 42 -12 42 -92z m-345 1 c4 -89 -6 -131 -29 -131 -16 0 -24 70 -18
163 4 51 7 58 24 55 18 -3 20 -12 23 -87z m85 70 c0 -5 -6 -11 -12 -14 -10 -3
-10 -11 -1 -36 8 -23 9 -41 1 -64 -20 -61 -28 -51 -28 36 0 80 2 87 20 87 11
0 20 -4 20 -9z m154 -7 c11 -28 -4 -35 -35 -17 -37 22 -37 33 0 33 17 0 31 -6
35 -16z m-76 -129 c18 -39 15 -45 -23 -45 -40 0 -40 1 -20 40 19 37 28 38 43
5z m579 -22 c-3 -10 -5 -4 -5 12 0 17 2 24 5 18 2 -7 2 -21 0 -30z m-481 -30
c-11 -12 -36 7 -36 29 l0 22 21 -23 c12 -12 19 -25 15 -28z m553 -136 c26 -38
30 -53 36 -147 4 -61 3 -101 -2 -95 -5 6 -27 32 -49 60 l-39 49 -6 121 c-4 66
-10 129 -13 140 -4 11 4 -4 18 -33 14 -29 38 -71 55 -95z m-519 -30 c108 -16
255 -102 349 -204 198 -215 237 -521 100 -785 -36 -68 -116 -164 -174 -208
-40 -31 -131 -79 -200 -106 -121 -47 -345 -41 -475 12 -163 66 -303 205 -372
369 -58 135 -64 338 -15 473 81 224 263 392 486 447 54 13 218 15 301 2z
m-2761 -449 c46 -27 61 -46 61 -75 0 -27 -1 -27 -45 -9 -19 8 -35 22 -35 30 0
8 -12 28 -26 45 -22 26 -23 31 -9 31 10 0 34 -10 54 -22z m-109 -10 c0 -7 -5
-20 -10 -28 -12 -19 -35 2 -27 24 7 19 37 21 37 4z m-157 -62 c3 -17 4 -32 3
-32 0 -1 -11 -5 -23 -8 -19 -6 -23 -3 -23 13 0 15 -9 23 -32 29 l-33 9 25 11
c14 5 37 10 52 9 21 0 27 -5 31 -31z m207 14 c0 -5 -4 -10 -10 -10 -5 0 -10 5
-10 10 0 6 5 10 10 10 6 0 10 -4 10 -10z m-129 -40 c10 -6 19 -21 19 -35 0
-18 -7 -25 -31 -30 -17 -4 -32 -5 -34 -3 -3 3 -8 57 -6 71 1 10 29 9 52 -3z
m-314 -26 c5 -14 -35 -54 -53 -54 -20 0 -28 24 -16 47 11 20 63 25 69 7z m488
-10 c30 -20 32 -54 5 -79 -23 -20 -52 -13 -49 12 2 10 -1 28 -5 40 -14 42 8
54 49 27z m-365 -14 c-19 -13 -30 -13 -30 0 0 6 10 10 23 10 18 0 19 -2 7 -10z
m-304 -77 c-7 -53 -54 -74 -76 -33 -19 35 8 67 58 69 20 1 22 -3 18 -36z m383
7 c34 -36 32 -70 -5 -70 -28 0 -30 3 -39 58 -8 51 3 54 44 12z m-81 -31 c4
-23 -25 -49 -53 -49 -35 0 -39 17 -10 46 27 27 58 29 63 3z m186 4 c9 -23 -12
-43 -24 -23 -5 8 -10 21 -10 28 0 18 27 15 34 -5z m620 -29 c4 -9 -3 -18 -17
-23 -28 -11 -31 -8 -23 23 7 27 30 27 40 0z m-544 -28 c0 -7 -6 -19 -14 -25
-8 -7 -13 -19 -11 -29 1 -9 0 -11 -2 -4 -3 6 -8 12 -13 12 -12 0 -20 28 -14
45 8 19 54 20 54 1z m186 2 c9 -14 -23 -38 -51 -38 -28 0 -60 24 -51 38 4 7
27 12 51 12 24 0 47 -5 51 -12z m-586 -37 c16 -39 5 -71 -24 -71 -35 0 -50 23
-35 52 29 56 42 60 59 19z m730 -11 c0 -10 -9 -21 -19 -25 -13 -4 -18 -12 -14
-28 2 -12 -3 -6 -12 13 -13 28 -14 39 -4 57 9 18 16 20 30 12 11 -5 19 -18 19
-29z m-884 -5 c8 -31 -10 -55 -42 -55 -42 0 -42 23 1 45 6 3 5 7 -2 11 -22 10
-14 24 12 24 18 0 26 -7 31 -25z m294 -28 c0 -30 -58 -67 -71 -46 -20 32 5 69
47 69 18 0 24 -5 24 -23z m-439 -14 c14 -37 0 -58 -37 -58 -22 0 -30 5 -32 22
-8 57 49 87 69 36z m783 10 c4 -9 0 -23 -8 -32 -14 -13 -16 -13 -22 2 -7 20 1
47 15 47 5 0 12 -8 15 -17z m-277 -29 c-9 -9 -28 6 -21 18 4 6 10 6 17 -1 6
-6 8 -13 4 -17z m385 -1 c39 -35 12 -107 -31 -83 -26 13 -26 19 -3 37 16 13
16 14 -5 29 -13 9 -23 20 -23 25 0 15 42 10 62 -8z m-280 -30 c-2 -16 -17 -41
-32 -58 -15 -16 -33 -40 -39 -51 -13 -27 -72 -40 -100 -22 -11 7 -25 25 -32
39 -23 57 36 97 63 42 19 -38 37 -40 49 -3 8 23 19 33 41 37 18 4 33 14 35 25
8 29 21 21 15 -9z m86 -12 c17 -54 15 -64 -12 -90 -28 -27 -61 -24 -61 4 0 16
6 19 28 17 21 -3 27 1 27 17 0 11 -8 24 -17 30 -14 8 -15 13 -5 35 16 36 27
33 40 -13z m616 14 c7 -20 -3 -45 -19 -45 -7 0 -18 7 -25 15 -10 12 -10 18 0
30 7 8 18 15 25 15 7 0 15 -7 19 -15z m-1197 -51 c8 -21 -13 -34 -54 -34 -34
0 -43 16 -21 38 18 18 68 15 75 -4z m685 -9 c22 -48 91 -52 132 -6 27 30 52
13 59 -42 8 -60 27 -97 47 -97 29 0 43 -25 30 -50 -17 -32 11 -70 50 -70 30 0
30 0 16 -27 -8 -16 -21 -36 -28 -47 -14 -17 -16 -17 -46 14 -25 24 -37 30 -54
24 -33 -9 -48 -24 -48 -44 0 -10 -7 -23 -15 -30 -8 -7 -15 -17 -15 -23 0 -14
-91 -167 -100 -167 -4 0 -10 13 -13 29 -6 31 -29 45 -58 36 -37 -12 -12 -67
33 -76 16 -4 16 -6 -1 -28 -14 -18 -23 -22 -37 -16 -11 4 -25 7 -33 6 -8 -2
-31 17 -51 41 -34 39 -40 42 -65 33 -57 -20 -60 -75 -5 -75 16 0 30 -4 30 -10
0 -18 51 -45 93 -49 4 -1 7 -8 7 -16 0 -12 -5 -13 -26 -4 -21 7 -32 6 -52 -7
-22 -14 -24 -21 -19 -59 l6 -42 -42 -1 c-35 0 -48 6 -82 38 -116 111 -156 154
-161 176 -4 17 -13 24 -30 24 -21 0 -23 3 -14 20 6 10 13 46 16 78 5 47 3 60
-8 65 -24 8 -35 -5 -41 -48 -3 -22 -9 -61 -12 -86 -5 -30 -3 -49 4 -53 6 -4
11 -18 11 -31 0 -13 4 -26 9 -29 4 -3 16 -33 25 -66 10 -34 28 -77 42 -97 25
-37 25 -56 -1 -123 -7 -19 -16 -43 -19 -52 -3 -11 -15 -18 -31 -18 -26 0 -26
1 -23 63 2 62 -26 224 -43 242 -5 5 -9 17 -9 26 0 32 -89 189 -135 241 -25 28
-45 53 -45 58 0 15 135 140 151 140 10 0 27 10 39 22 15 16 20 18 20 7 0 -23
46 -63 64 -56 22 9 20 46 -4 65 -22 19 -40 102 -21 102 6 0 11 -6 11 -14 0
-16 22 -27 37 -18 5 4 12 15 16 25 12 32 24 9 20 -40 -2 -26 -1 -58 2 -71 5
-20 10 -22 34 -17 17 3 32 2 36 -4 11 -18 75 -12 106 10 26 18 29 26 29 75 0
51 1 54 19 44 11 -5 29 -10 41 -10 31 0 77 51 85 93 6 32 16 41 48 46 4 0 12
-10 19 -24z m261 -39 c-3 -13 2 -30 12 -40 21 -20 14 -30 -13 -22 -30 10 -45
90 -19 99 17 6 25 -10 20 -37z m-747 -22 c-3 -8 -10 -12 -16 -9 -14 9 -12 42
3 48 14 5 21 -17 13 -39z m-320 -6 c8 -26 -6 -39 -33 -32 -22 6 -39 36 -29 53
10 15 55 0 62 -21z m123 -34 c2 -2 1 -10 -3 -19 -9 -24 -40 -14 -44 14 -3 20
-1 22 20 16 13 -4 25 -9 27 -11z m1051 -15 c0 -15 -4 -19 -16 -15 -9 3 -18 6
-20 6 -2 0 -4 7 -4 15 0 8 9 15 20 15 14 0 20 -7 20 -21z m-620 -24 c0 -19
-36 -38 -60 -30 -25 8 -26 32 -2 38 37 10 62 7 62 -8z m3571 -82 c1 -21 2 -92
3 -158 9 -476 19 -772 32 -909 9 -87 14 -160 12 -162 -2 -2 -21 12 -42 30
l-39 33 -8 144 c-4 79 -10 281 -13 449 -3 168 -8 357 -12 421 -7 117 -7 117
21 153 15 20 31 36 36 36 5 0 9 -17 10 -37z m-4549 -108 c-14 -36 -29 -65 -33
-65 -18 0 -18 65 1 107 17 38 22 43 38 34 19 -10 19 -12 -6 -76z m1718 49 c0
-13 -21 -44 -30 -44 -14 0 -12 24 2 38 13 13 28 16 28 6z m2724 -156 c4 -68 9
-208 11 -313 3 -104 7 -280 11 -390 l6 -199 -34 27 c-18 15 -58 40 -88 57 -81
43 -90 51 -60 48 20 -3 24 1 20 17 -2 11 -3 148 -2 305 2 179 -1 317 -9 372
-9 71 -9 91 1 103 7 9 17 12 21 8 8 -9 15 -113 24 -353 7 -191 23 -415 31
-458 13 -63 49 -47 40 18 -11 72 -26 313 -36 569 l-11 264 22 23 c40 43 46 32
53 -98z m-2824 86 c13 -32 -2 -54 -30 -47 -24 6 -25 21 -4 51 19 28 22 28 34
-4z m-1197 -62 c22 -20 50 -60 62 -88 13 -28 40 -73 60 -100 23 -31 50 -90 74
-161 35 -107 37 -114 27 -182 -9 -69 -9 -73 15 -96 30 -31 76 -45 107 -34 12
5 32 28 43 52 15 30 33 50 55 61 21 9 34 23 34 34 0 10 11 29 24 41 19 18 31
21 53 17 l29 -7 -39 -41 c-49 -52 -57 -74 -64 -180 -4 -53 -10 -89 -17 -90 -6
-1 -30 -2 -53 -3 -53 -2 -83 -27 -83 -69 -1 -43 -16 -106 -30 -120 -16 -16
-30 11 -30 61 0 23 -7 58 -16 77 -14 28 -24 35 -56 40 -46 7 -58 2 -58 -24 0
-21 40 -52 61 -48 9 2 15 -14 20 -49 9 -71 14 -82 44 -93 31 -12 33 -30 2 -30
-17 0 -30 11 -45 39 -13 22 -36 51 -54 66 -17 14 -42 48 -57 74 -14 27 -36 67
-49 90 -26 47 -14 55 18 11 24 -33 38 -38 46 -15 8 21 -15 75 -32 75 -7 0 -18
19 -23 43 -6 23 -18 62 -26 87 -26 71 -45 190 -38 237 8 59 -17 98 -58 89 -32
-6 -31 -8 -33 77 -1 43 -5 52 -39 80 -37 31 -38 33 -27 67 7 19 14 41 16 49 3
10 16 12 51 7 36 -5 57 -15 86 -44z m1046 2 c-16 -20 -39 -17 -39 4 0 27 10
33 32 21 15 -8 17 -13 7 -25z m-1369 -4 c0 -24 -25 -60 -42 -60 -23 0 -23 11
3 44 21 26 39 34 39 16z m4153 -96 c9 -66 13 -316 9 -528 -2 -138 -3 -140 -22
-120 -10 10 -30 49 -44 87 l-25 67 26 -6 26 -7 -7 69 c-26 247 -29 480 -5 495
25 16 34 4 42 -57z m-104 -129 c5 -83 13 -195 16 -250 l5 -100 -25 30 c-14 17
-31 36 -37 44 -7 9 -12 83 -15 213 -3 198 -3 199 19 207 13 5 24 8 25 7 1 -1
6 -69 12 -151z m-3907 83 c3 -7 21 -46 40 -85 31 -70 35 -73 67 -73 31 0 33
-2 28 -27 -3 -16 -1 -49 5 -76 13 -64 6 -78 -19 -35 -11 19 -28 43 -36 54 -9
10 -27 35 -40 54 -12 19 -28 36 -35 36 -7 1 -16 2 -22 3 -5 0 -10 16 -10 34
-1 54 -18 111 -39 128 -11 9 -18 19 -15 22 8 8 68 -19 76 -35z m3476 -40 c0
-46 5 -146 10 -223 8 -110 7 -333 -2 -342 0 0 -12 -3 -25 -5 -23 -3 -25 1 -28
42 -5 81 -4 573 2 591 4 11 15 19 25 19 16 0 18 -9 18 -82z m322 26 l0 -56
-25 30 c-25 30 -25 58 -1 74 22 15 26 7 26 -48z m-225 36 c21 0 23 -4 22 -42
0 -24 2 -95 6 -158 4 -63 10 -176 13 -250 3 -74 8 -138 10 -141 4 -8 -31 -19
-61 -19 -19 0 -20 7 -22 223 -2 256 -6 354 -18 381 -7 16 -5 18 9 13 10 -4 28
-7 41 -7z m135 -13 c0 -13 5 -28 12 -35 8 -8 5 -14 -14 -21 -44 -17 -45 -91
-2 -91 8 0 14 -11 14 -26 0 -14 9 -42 19 -62 37 -72 50 -110 44 -133 -9 -34
-89 -183 -101 -187 -11 -3 -19 89 -28 328 -3 80 -7 155 -10 168 -2 12 -6 33
-9 46 -5 25 -2 27 63 35 6 0 12 -9 12 -22z m-2295 -61 c19 -8 35 -22 35 -30 0
-8 12 -28 26 -45 21 -25 34 -31 65 -31 33 0 41 4 55 31 11 23 19 28 27 20 6
-6 24 -11 39 -11 35 0 36 -17 3 -66 -14 -20 -25 -50 -25 -65 0 -19 -5 -29 -15
-29 -28 0 -180 42 -194 53 -7 7 -26 10 -42 9 -39 -5 -72 15 -66 39 3 11 -1 23
-10 27 -13 8 -13 13 1 47 30 70 41 76 101 51z m151 -27 c8 -13 -15 -30 -36
-26 -8 1 -16 10 -18 20 -3 12 3 17 22 17 14 0 28 -5 32 -11z m2243 -79 c13
-81 1 -96 -23 -29 -16 43 -17 54 -6 75 8 13 15 23 16 21 2 -1 8 -32 13 -67z
m-2027 -73 c-7 -18 -12 -41 -12 -50 0 -18 -48 -47 -67 -40 -34 12 4 117 46
131 36 13 48 -1 33 -41z m-313 -71 c7 -8 23 -17 36 -20 24 -6 32 -25 18 -40
-5 -4 -8 -15 -8 -24 -1 -20 -22 -99 -35 -127 -23 -53 -102 -304 -104 -330 -3
-29 -5 -30 -66 -37 -35 -4 -66 -5 -68 -3 -2 2 1 19 8 37 6 18 20 67 31 108 24
88 78 251 89 265 4 6 13 28 19 50 17 55 53 135 61 135 4 0 13 -6 19 -14z
m-2366 -53 c3 -32 0 -57 -9 -76 -19 -36 -38 -25 -29 17 3 17 9 48 12 69 7 51
19 46 26 -10z m-152 -14 c31 -31 10 -47 -30 -23 -32 19 -36 26 -24 37 12 13
33 7 54 -14z m886 -49 c60 -26 159 -129 173 -179 6 -20 13 -67 16 -106 3 -38
12 -83 20 -99 8 -16 14 -37 14 -47 0 -10 5 -30 12 -44 10 -23 10 -28 -5 -36
-28 -16 -40 -87 -41 -251 l-1 -156 -27 -4 c-15 -3 -44 1 -64 8 -43 15 -68 7
-107 -31 -54 -55 -50 -130 13 -187 22 -20 40 -43 40 -50 0 -7 -33 -48 -74 -90
-47 -48 -85 -100 -105 -140 -33 -69 -56 -177 -49 -236 3 -24 -2 -51 -15 -78
-21 -44 -19 -74 7 -109 20 -28 71 -11 71 25 0 20 -5 25 -22 23 -28 -3 -29 6
-2 51 17 29 19 45 14 93 -9 85 23 201 72 262 54 67 174 181 189 181 19 0 46
44 39 63 -4 10 1 18 16 22 13 4 31 17 40 29 9 11 23 21 31 22 7 0 23 2 36 2
14 1 26 11 31 26 9 23 29 36 57 36 21 0 17 -28 -6 -35 -28 -9 -129 -104 -177
-167 -36 -47 -97 -156 -130 -232 -7 -15 -18 -61 -24 -101 -12 -67 -11 -74 8
-101 11 -16 25 -45 32 -64 14 -42 48 -80 73 -80 18 0 22 -16 19 -67 -1 -11 3
-24 8 -28 6 -3 11 -14 11 -25 0 -25 -50 -41 -90 -30 -44 13 -100 49 -100 65 0
27 23 65 40 65 19 0 40 19 40 37 0 17 -33 33 -57 27 -20 -6 -59 -61 -49 -71 3
-3 -2 -19 -10 -35 -8 -16 -12 -38 -9 -49 9 -26 -18 -35 -47 -15 -20 15 -24 14
-45 -6 -19 -18 -26 -19 -51 -9 -39 16 -92 69 -92 91 0 10 -7 23 -15 30 -8 7
-15 29 -15 49 0 21 -7 46 -15 57 -21 27 -18 98 5 143 10 21 24 68 30 104 12
75 42 152 71 182 44 46 67 83 84 135 10 30 24 64 31 74 14 20 9 63 -8 81 -13
14 -48 -31 -49 -64 -1 -48 -34 -122 -79 -176 -24 -30 -46 -52 -48 -51 -1 2 2
34 8 72 17 107 18 303 3 322 -24 32 -34 -6 -27 -108 7 -112 -21 -301 -61 -413
-14 -38 -24 -79 -23 -91 1 -11 -1 -76 -6 -143 l-8 -123 -27 6 c-41 9 -76 39
-79 68 -2 17 -12 31 -26 38 -13 5 -33 29 -44 51 l-22 42 25 3 c17 2 25 10 25
23 0 10 -4 19 -10 19 -19 0 -10 29 16 53 37 34 47 93 33 189 -6 44 -9 98 -7
122 6 54 55 162 83 184 21 17 42 82 61 185 5 31 13 42 40 54 40 19 51 46 57
136 4 51 10 74 26 91 28 30 27 56 -1 56 -38 0 -70 -58 -73 -133 -2 -71 -8 -87
-34 -87 -23 0 -41 -19 -41 -44 0 -11 -4 -33 -10 -50 -5 -17 -20 -65 -32 -106
-12 -41 -36 -95 -54 -120 -47 -67 -57 -116 -50 -250 7 -135 2 -162 -28 -158
-16 2 -22 13 -28 48 -13 73 -1 279 24 391 12 57 21 115 21 129 -13 239 -9 278
39 374 70 139 143 216 203 216 29 0 43 25 28 49 -7 10 -24 16 -51 16 -80 0
-80 38 -1 109 30 27 64 48 85 52 19 3 37 10 40 15 10 17 160 2 211 -21z m4011
-34 c20 -10 35 -34 55 -86 15 -40 26 -74 24 -76 -2 -2 -23 2 -48 9 -42 13 -44
14 -41 48 4 46 -23 74 -37 38 -5 -13 -10 -33 -12 -44 -4 -19 -49 -36 -49 -18
-1 15 65 143 73 143 4 0 20 -6 35 -14z m-4952 -123 c-10 -10 -19 5 -10 18 6
11 8 11 12 0 2 -7 1 -15 -2 -18z m2177 0 c25 -29 49 -104 52 -168 2 -33 6 -74
10 -91 5 -27 1 -35 -27 -55 -18 -14 -56 -35 -85 -48 -29 -13 -54 -30 -57 -37
-3 -8 -14 -14 -26 -14 -21 0 -34 -18 -110 -150 -64 -111 -205 -250 -228 -225
-4 4 -1 10 7 13 26 9 51 42 51 68 0 17 15 42 40 71 64 69 128 239 136 361 6
95 42 172 98 213 61 44 110 77 117 78 3 1 13 -7 22 -16z m-2013 -181 c0 -55
-18 -121 -40 -147 -10 -11 -20 -39 -23 -62 -3 -23 -17 -67 -31 -99 -14 -31
-29 -82 -32 -113 -9 -73 -19 -91 -52 -91 -15 -1 -38 -7 -52 -15 -37 -21 -90
-20 -90 3 0 18 41 176 67 255 14 44 18 48 39 43 20 -5 26 -1 35 21 25 66 124
259 138 270 23 18 41 -10 41 -65z m1599 68 c14 0 -16 -45 -72 -106 -15 -18
-35 -40 -43 -50 -15 -18 -15 -18 -9 1 4 11 11 45 17 75 12 60 40 93 73 85 11
-3 26 -5 34 -5z m3221 -30 c366 -109 587 -450 535 -825 -23 -165 -102 -310
-234 -430 -139 -127 -311 -185 -524 -179 -280 8 -516 167 -637 427 -42 91 -71
226 -66 304 11 142 21 203 46 264 97 235 291 398 540 454 91 21 244 14 340
-15z m949 -442 c2 -303 0 -408 -9 -408 -8 0 -11 24 -9 74 2 79 -3 98 -26 90
-11 -5 -13 -22 -10 -77 2 -40 9 -153 15 -252 12 -196 6 -512 -11 -641 -6 -45
-8 -117 -5 -160 5 -84 13 -278 20 -508 4 -127 3 -142 -15 -164 -17 -23 -18
-27 -4 -42 8 -9 15 -21 15 -27 0 -6 7 -16 15 -23 17 -14 20 -30 6 -30 -8 0
-87 113 -110 157 -15 29 -41 19 -41 -14 0 -24 44 -101 105 -182 14 -19 25 -47
25 -63 0 -16 6 -35 13 -43 10 -10 14 -59 15 -202 0 -103 -2 -196 -4 -205 -6
-22 -35 -23 -74 -3 -16 8 -35 14 -42 13 -10 -2 -13 22 -11 107 1 61 5 134 8
163 6 46 9 52 30 52 l24 0 0 -156 c0 -86 3 -159 6 -162 12 -12 24 16 29 68 3
30 8 110 11 176 l7 121 -44 6 c-24 3 -103 6 -176 7 -142 1 -156 -4 -132 -49 7
-14 7 -21 0 -21 -5 0 -10 -6 -10 -14 0 -7 -7 -19 -15 -26 -14 -11 -23 -6 -63
32 -26 25 -58 51 -72 58 -14 7 -43 28 -65 45 -80 65 -137 85 -279 101 -185 21
-301 9 -443 -45 -121 -47 -201 -99 -290 -188 -46 -45 -85 -78 -88 -73 -2 4 4
19 15 33 38 48 33 49 -142 42 -90 -4 -193 -11 -229 -15 -73 -9 -1012 -4 -1229
6 -74 4 -154 7 -177 8 -39 0 -44 3 -54 34 -6 18 -17 36 -24 38 -7 3 -15 33
-19 76 -4 38 -13 81 -19 95 -14 30 -86 103 -161 162 -31 24 -56 50 -56 57 0 7
18 18 41 24 55 15 145 105 155 154 8 44 20 54 28 23 6 -22 6 -22 29 6 15 17
32 27 50 27 15 0 27 -3 27 -6 0 -11 -34 -64 -41 -64 -4 0 -19 -25 -33 -57 -20
-41 -29 -79 -33 -139 -6 -80 -5 -84 26 -131 45 -67 113 -107 227 -134 l94 -21
112 21 c98 18 188 37 265 57 19 5 26 -2 50 -55 l27 -60 256 6 c140 4 369 5
509 4 340 -4 363 -1 423 52 25 23 65 72 87 110 42 68 48 87 32 87 -12 0 -14
290 -2 308 7 11 39 12 167 6 194 -9 252 -9 614 5 156 6 296 11 311 11 22 0 33
-10 60 -57 19 -32 37 -65 40 -73 4 -8 17 -25 29 -38 11 -12 28 -38 36 -57 16
-39 39 -46 49 -15 10 31 -3 75 -31 100 -27 26 -31 40 -10 40 16 0 24 59 20
155 -9 208 -8 406 2 413 6 4 13 15 17 25 3 9 13 17 20 17 12 0 16 -42 21 -227
4 -126 12 -293 18 -373 5 -80 11 -158 12 -175 1 -20 7 -31 20 -33 18 -4 19 1
12 89 -16 238 -26 617 -26 1099 0 289 -1 554 -3 590 -1 47 1 64 10 63 26 -5
34 40 34 175 -1 75 -3 150 -5 167 -3 16 -10 65 -17 107 l-12 77 34 67 c32 63
34 65 39 38 3 -16 7 -212 9 -436z m-3489 214 c0 -8 -81 -32 -175 -52 -89 -19
-101 -23 -117 -38 -20 -17 -24 -47 -7 -57 5 -4 19 1 29 10 11 10 34 19 52 21
43 4 64 9 154 34 76 20 124 19 124 -5 0 -27 -31 -45 -78 -45 -44 0 -146 -31
-165 -50 -15 -14 3 -50 27 -56 14 -3 43 3 70 16 54 24 101 22 101 -4 0 -13
-24 -27 -89 -53 -49 -19 -97 -32 -107 -30 -10 3 -24 -2 -31 -10 -10 -12 -9
-18 7 -29 27 -20 44 -18 117 15 35 16 81 33 102 36 36 7 38 6 34 -16 -2 -19
-23 -35 -93 -72 -49 -26 -99 -50 -110 -53 -52 -14 -74 -27 -79 -47 -3 -12 -27
-43 -53 -68 -51 -50 -114 -76 -207 -86 -28 -3 -59 -13 -69 -21 -16 -14 -16
-17 -2 -38 20 -31 19 -44 -3 -44 -29 0 -61 -28 -55 -49 4 -14 -15 -35 -80 -86
-131 -105 -307 -199 -388 -207 l-47 -5 -7 76 c-11 102 -7 152 16 219 10 32 19
63 19 71 0 7 14 42 31 77 26 52 38 65 65 74 19 7 34 15 34 18 0 4 13 7 29 8
16 1 41 11 56 23 18 13 42 21 67 21 57 0 154 49 224 114 44 39 82 89 129 168
73 123 110 168 136 168 9 0 38 10 65 21 26 12 71 25 98 29 72 11 176 12 176 2z
m-2684 -421 c-27 -27 -39 0 -20 45 l17 39 9 -34 c7 -26 6 -37 -6 -50z m-106
-18 c-1 -36 -2 -37 -15 -19 -16 21 -19 39 -8 49 15 16 23 5 23 -30z m1403 -14
c55 0 95 -13 67 -23 -8 -2 -26 -7 -40 -10 -14 -3 -40 -19 -59 -36 -18 -16 -39
-30 -45 -30 -19 0 -36 22 -36 47 0 27 36 67 51 57 6 -3 34 -6 62 -5z m1269
-67 c-6 -15 -13 -45 -17 -67 -4 -22 -21 -66 -37 -98 -28 -51 -30 -60 -16 -73
20 -20 40 -10 63 34 18 33 24 37 53 34 18 -2 40 2 48 9 18 14 61 -1 61 -23 0
-7 3 -25 6 -39 5 -21 2 -28 -19 -37 -39 -18 -89 -15 -109 8 -23 25 -48 9 -39
-25 8 -31 -4 -36 -54 -23 -34 8 -46 7 -66 -5 -25 -17 -36 -13 -36 10 0 7 9 13
21 13 16 0 20 5 17 27 -2 21 -13 33 -43 49 -29 15 -41 27 -43 47 -3 23 3 30
45 49 39 19 53 33 77 79 23 42 37 58 60 65 36 10 42 3 28 -34z m-2419 -152
c30 -81 35 -127 23 -202 -8 -54 -21 -60 -66 -28 -22 16 -33 18 -61 10 -53 -15
-66 -12 -79 19 -16 39 -9 67 15 63 10 -2 25 4 32 13 10 14 9 23 -3 47 -14 27
-14 35 2 81 9 29 18 58 20 65 3 9 18 12 46 10 l42 -3 29 -75z m1417 44 c0 -3
-16 -38 -34 -77 -43 -90 -57 -187 -42 -292 19 -137 11 -297 -19 -344 -9 -16
-31 -13 -49 5 -17 16 -15 59 4 78 15 15 12 54 -5 63 -18 10 -7 107 30 260 14
57 25 118 25 136 0 37 34 131 58 160 15 17 32 23 32 11z m-93 -36 c-18 -27
-38 -111 -39 -159 0 -19 -5 -42 -10 -52 -5 -10 -21 -78 -34 -150 -13 -72 -28
-135 -33 -140 -17 -17 -39 1 -61 50 -20 43 -21 54 -11 114 14 87 76 221 141
304 50 63 78 83 47 33z m4700 10 c-3 -8 -6 -5 -6 6 -1 11 2 17 5 13 3 -3 4
-12 1 -19z m-3340 -30 c13 -12 23 -29 23 -39 0 -10 5 -21 10 -24 11 -7 14 -65
3 -65 -10 0 -93 91 -93 102 0 10 23 48 29 48 3 0 15 -10 28 -22z m-533 -6 c8
-13 -5 -52 -18 -52 -13 -1 -70 -74 -104 -134 -28 -48 -45 -130 -43 -200 l2
-49 -37 6 c-55 9 -144 105 -144 154 0 5 21 26 48 46 83 65 192 173 192 190 0
9 8 17 18 17 9 0 26 7 36 15 22 17 42 19 50 7z m1256 -78 c0 -21 -3 -25 -17
-18 -10 4 -28 8 -40 8 -22 1 -30 16 -16 29 3 4 21 7 40 7 29 0 33 -3 33 -26z
m-1198 -46 c-1 -14 4 -31 13 -38 12 -10 11 -17 -14 -48 -27 -36 -53 -95 -66
-155 -5 -24 -8 -27 -21 -16 -30 25 -33 44 -18 103 29 110 115 235 106 154z
m431 -48 c15 -12 27 -30 27 -40 0 -22 58 -80 80 -80 8 -1 43 -27 78 -59 54
-51 62 -63 62 -94 0 -20 4 -38 9 -41 16 -10 39 5 45 30 4 15 14 24 26 24 10 0
22 5 25 10 4 6 16 8 26 5 15 -5 29 2 50 25 24 24 37 31 62 28 39 -3 136 29
144 48 3 8 14 14 24 14 25 0 39 -37 39 -105 0 -43 -4 -55 -18 -59 -27 -9 -77
-1 -102 17 -31 22 -80 5 -80 -28 0 -13 5 -27 12 -31 15 -10 122 -9 173 0 22 4
58 10 79 12 21 2 47 6 58 9 41 14 14 -15 -44 -48 -43 -23 -77 -35 -108 -36
-63 -2 -104 -17 -115 -43 -16 -36 -74 -36 -127 -1 -24 15 -69 41 -101 58 -54
28 -58 28 -74 12 -21 -21 -16 -26 71 -72 38 -20 82 -45 97 -55 15 -11 38 -20
52 -20 38 0 127 32 127 45 0 7 8 19 18 28 15 14 23 15 44 5 23 -11 26 -20 31
-78 2 -36 8 -73 12 -82 4 -11 3 -18 -5 -18 -6 0 -14 9 -17 19 -6 23 -31 35
-47 22 -7 -6 -18 -4 -30 5 -12 8 -32 11 -54 8 -20 -3 -60 -3 -90 1 -45 6 -62
14 -95 46 -36 34 -47 39 -92 40 -117 3 -268 36 -343 75 -15 8 -32 14 -38 14
-6 0 -17 6 -23 14 -13 15 -89 39 -136 42 -65 4 -115 17 -130 34 -14 15 -13 23
6 82 11 36 30 79 42 96 24 32 98 94 135 114 12 6 22 16 22 22 0 7 20 11 49 11
35 0 58 6 78 21 l28 21 5 -22 c3 -13 17 -33 33 -45z m3026 -45 c-4 -38 -8
-163 -8 -276 l-1 -207 -24 -4 c-14 -3 -29 -2 -34 1 -6 4 -9 80 -7 195 2 117
-1 196 -7 206 -8 13 -1 34 32 94 23 43 46 74 50 69 4 -4 4 -39 -1 -78z m-3377
-22 c-24 -25 -47 -65 -61 -104 -13 -35 -25 -71 -28 -79 -4 -9 -10 4 -15 28 -8
38 -6 50 18 98 15 30 48 74 73 97 41 37 46 40 49 22 2 -13 -12 -36 -36 -62z
m-1842 22 c0 -13 -20 -35 -32 -35 -4 0 -8 16 -8 35 0 33 1 34 20 23 11 -7 20
-18 20 -23z m-182 -21 c3 -29 -27 -75 -56 -85 -14 -5 -1 -61 16 -67 6 -2 18
12 26 31 16 40 36 57 36 31 0 -26 -40 -84 -58 -84 -9 0 -42 7 -72 16 -30 9
-77 20 -105 26 -27 5 -57 16 -66 24 -19 17 -48 18 -147 7 -91 -11 -106 -1 -77
55 11 20 20 39 22 41 1 2 9 -4 18 -13 17 -17 47 -20 79 -7 20 8 146 -38 176
-64 14 -12 34 -12 97 1 14 3 25 16 33 41 27 84 72 111 78 47z m1792 -36 c-7
-66 -6 -105 5 -143 11 -44 -14 -17 -31 32 -13 36 -12 50 11 151 10 43 21 13
15 -40z m-1353 30 c-3 -8 -6 -5 -6 6 -1 11 2 17 5 13 3 -3 4 -12 1 -19z m2853
-58 c6 -11 16 -19 23 -17 21 4 9 -53 -19 -95 -22 -31 -25 -41 -14 -48 15 -9
40 -2 40 11 0 5 9 9 20 9 42 0 20 -86 -37 -148 -36 -39 -132 -104 -144 -96
-19 12 -7 36 41 82 47 44 51 50 53 101 2 47 -1 56 -19 65 -18 10 -19 14 -8 41
19 44 17 55 -11 55 -18 0 -25 5 -25 20 0 38 82 54 100 20z m1990 -248 c0 -208
-6 -241 -34 -201 -9 13 -16 29 -16 36 0 7 -5 13 -10 13 -6 0 -30 18 -54 40
-54 50 -81 51 -137 4 -61 -51 -78 -72 -104 -129 -30 -67 -35 -81 -45 -141 -9
-55 10 -198 29 -217 6 -6 11 -25 11 -43 0 -35 -13 -44 -61 -44 l-29 0 0 88 c0
48 -5 168 -11 267 -7 107 -8 198 -3 223 9 42 10 43 76 66 l67 24 -5 -27 c-4
-18 0 -32 10 -40 37 -31 64 23 30 60 -15 16 -13 19 25 38 42 22 45 21 55 -21
7 -30 33 -38 42 -13 3 8 1 29 -5 47 -10 29 -9 34 16 55 38 30 43 29 43 -11 0
-63 11 -96 32 -96 19 0 20 6 17 89 -4 83 -2 91 20 115 13 14 28 23 32 20 5 -3
9 -94 9 -202z m-3863 91 c-9 -135 -65 -223 -143 -223 -34 0 -34 0 -19 24 9 13
23 27 30 30 23 8 87 155 90 205 2 25 4 47 4 49 1 1 11 2 22 2 21 0 22 -3 16
-87z m-1897 61 c14 -3 50 -1 80 5 48 8 60 7 99 -11 24 -12 60 -24 80 -28 54
-11 153 -39 159 -45 11 -11 -8 -16 -69 -20 -35 -2 -84 -8 -108 -13 -38 -9 -61
-5 -165 24 -120 34 -146 49 -146 87 0 15 5 18 23 13 12 -4 33 -9 47 -12z
m1810 -22 c0 -5 -16 -13 -35 -19 -38 -12 -45 -7 -17 13 19 15 52 18 52 6z
m-150 -82 c0 -16 45 -19 67 -5 22 15 63 21 63 10 0 -15 -35 -73 -59 -98 -36
-40 -78 -60 -108 -52 -24 6 -25 9 -19 52 3 25 6 66 6 90 l0 43 25 -16 c14 -9
25 -20 25 -24z m-1710 -17 c14 -6 45 -16 68 -23 39 -10 43 -14 38 -35 -13 -51
25 -232 50 -242 22 -8 28 3 26 50 l-2 42 36 -65 c20 -36 46 -74 57 -86 46 -43
157 -193 157 -211 0 -7 12 -19 28 -27 15 -8 53 -40 84 -70 75 -73 218 -166
299 -195 35 -13 84 -34 109 -46 59 -31 176 -36 234 -11 22 10 65 22 97 27 63
10 137 38 160 61 20 20 129 71 224 104 69 24 94 28 185 27 95 -1 113 -4 180
-32 41 -18 83 -39 92 -48 15 -13 22 -14 41 -5 12 7 38 12 57 13 55 2 143 21
168 37 18 12 28 12 48 3 37 -16 80 -14 124 9 52 27 62 48 66 149 7 139 58 306
106 342 25 20 32 49 12 49 -19 0 -18 16 1 24 8 3 15 14 15 25 0 27 15 34 41
20 20 -10 21 -17 16 -84 -3 -46 -16 -99 -35 -146 -38 -97 -120 -354 -130 -411
-5 -25 -21 -62 -37 -82 -25 -32 -29 -35 -40 -20 -9 13 -20 15 -43 11 -19 -4
-32 -2 -32 3 0 6 5 10 10 10 6 0 10 9 10 20 0 37 -84 18 -99 -24 -7 -17 -20
-25 -48 -30 -53 -8 -38 -8 -258 -1 -185 7 -206 6 -283 -14 -46 -12 -91 -26
-100 -31 -9 -5 -42 -17 -72 -26 -90 -28 -231 -98 -297 -148 -35 -26 -63 -51
-63 -55 0 -15 -140 -146 -176 -164 -20 -10 -39 -28 -42 -39 -5 -22 4 -23 -157
11 -108 23 -160 43 -168 65 -3 8 -27 19 -54 24 -41 9 -53 8 -84 -10 -39 -21
-59 -53 -59 -91 0 -13 -7 -33 -16 -46 -15 -21 -22 -23 -73 -18 -31 3 -76 14
-101 25 -25 11 -83 26 -130 32 -65 9 -93 18 -120 38 -19 15 -49 34 -66 42 -64
33 -140 109 -163 164 -22 50 -37 341 -21 395 5 19 12 111 15 205 3 94 10 189
16 211 21 78 22 95 7 95 -8 0 -24 -21 -37 -47 -20 -42 -23 -65 -28 -237 -2
-105 -8 -207 -12 -226 -4 -19 -8 -109 -9 -198 -2 -153 -1 -167 20 -204 19 -33
20 -40 8 -48 -35 -22 -120 2 -139 38 -24 45 -5 321 34 497 11 46 34 156 49
230 50 242 70 293 122 324 24 14 35 29 40 56 3 20 9 34 13 33 3 -2 17 -9 31
-15z m3880 -113 c0 -58 -153 -191 -183 -161 -14 14 50 84 153 170 32 26 30 26
30 -9z m1083 -76 c4 -54 8 -190 10 -302 l2 -203 -25 3 -25 3 -3 290 c-1 159 0
296 3 303 3 8 11 12 18 10 8 -3 15 -39 20 -104z m123 73 c1 -1 -3 -58 -7 -127
-10 -147 -10 -341 0 -379 6 -19 14 -26 32 -26 20 0 23 4 21 25 -8 59 -8 341
-1 405 6 44 5 73 -1 79 -19 19 -10 26 29 26 l40 0 -2 -77 c-1 -43 2 -159 7
-258 15 -281 16 -260 -19 -259 -16 1 -59 4 -95 8 l-65 7 0 152 c-1 84 -3 216
-6 295 l-5 143 36 -6 c19 -4 35 -8 36 -8z m216 -117 c3 -69 9 -205 13 -303 l6
-178 -27 3 c-25 3 -28 7 -30 43 0 22 -4 153 -8 290 -5 138 -8 252 -8 255 -1
17 4 21 25 18 21 -3 22 -8 29 -128z m-2275 49 c17 -5 48 -9 70 -8 59 2 108
-20 128 -58 17 -30 17 -34 0 -75 -44 -112 -136 -215 -192 -217 -66 -3 -97 -10
-108 -24 -11 -15 -14 -15 -24 -3 -10 12 -4 29 29 87 25 45 40 82 38 98 -6 52
-33 27 -84 -79 -28 -57 -53 -100 -56 -95 -3 6 1 47 7 91 10 69 19 91 54 141
22 32 41 64 41 71 0 15 -22 16 -38 0 -16 -16 -20 -8 -15 29 4 22 9 30 19 26 9
-3 14 2 14 14 0 34 10 35 117 2z m-3487 -220 c3 -162 9 -241 18 -256 7 -12 12
-26 11 -30 -5 -32 6 -52 42 -76 22 -15 47 -27 54 -27 23 0 24 -13 10 -136 -8
-65 -15 -122 -15 -125 0 -12 -67 55 -80 80 -8 15 -13 65 -13 128 0 88 -3 103
-16 101 -19 -4 -35 -80 -24 -114 5 -15 4 -49 -1 -80 -10 -53 -11 -54 -46 -55
-19 0 -49 -1 -66 -2 -31 -2 -32 -1 -27 30 10 57 -4 96 -43 123 -20 13 -45 23
-56 23 -29 -3 -67 -41 -85 -86 -9 -21 -18 -36 -22 -34 -59 31 -112 48 -146 45
l-40 -3 -7 45 c-18 104 -21 170 -9 184 19 22 157 33 179 13 18 -16 214 -43
232 -32 12 7 13 38 3 49 -4 4 -8 108 -8 231 l-1 225 30 5 c43 7 99 12 111 10
6 -1 12 -91 15 -236z m6173 181 c37 -33 55 -68 68 -133 16 -83 10 -320 -9
-339 -21 -21 -29 5 -36 109 -3 59 -11 152 -18 205 -10 87 -14 101 -41 128 -29
29 -68 39 -93 22 -6 -4 -27 -34 -45 -67 -32 -57 -34 -66 -38 -172 -2 -84 -7
-113 -16 -113 -18 0 -25 22 -31 104 -4 56 -1 83 14 128 23 64 95 166 127 178
24 9 78 -14 118 -50z m-1574 -63 c9 -8 26 -18 38 -21 41 -13 81 -76 88 -142 6
-50 3 -69 -15 -112 -26 -59 -112 -143 -239 -232 -97 -68 -423 -247 -496 -274
-27 -10 -59 -21 -70 -26 -11 -5 -29 -11 -40 -13 -11 -3 -69 -19 -130 -37 -155
-45 -310 -52 -409 -18 -83 28 -105 53 -113 129 -10 106 27 178 167 320 118
119 221 191 405 281 50 25 99 49 110 56 24 13 108 39 151 47 30 5 32 3 38 -33
13 -80 11 -86 -51 -114 -40 -19 -61 -24 -70 -17 -21 18 -145 58 -162 52 -38
-12 -61 -27 -61 -41 0 -9 -5 -44 -11 -79 l-11 -64 -62 -28 c-33 -16 -108 -45
-166 -66 -81 -29 -113 -45 -138 -73 -61 -65 -34 -75 138 -50 69 10 131 16 138
13 10 -4 9 -13 -4 -42 -9 -21 -23 -60 -31 -88 -8 -27 -24 -67 -35 -89 -36 -71
17 -71 119 2 28 20 85 60 125 89 40 28 102 76 138 107 74 64 91 70 250 84 191
17 200 20 200 57 0 30 -31 52 -100 70 -29 8 -55 16 -58 19 -7 7 120 131 186
181 81 61 81 112 0 100 -20 -3 -70 -18 -110 -35 l-73 -29 -3 24 c-5 39 60 98
122 110 65 13 223 1 245 -18z m2138 -4 c-3 -10 -5 -4 -5 12 0 17 2 24 5 18 2
-7 2 -21 0 -30z m-2749 4 c2 -12 -3 -17 -18 -17 -12 0 -33 -9 -47 -20 -14 -11
-34 -20 -45 -20 -10 0 -40 -11 -66 -24 -26 -13 -57 -26 -69 -30 l-22 -7 17 63
17 63 84 -2 c47 -1 92 2 100 7 23 14 45 8 49 -13z m2494 -12 c11 4 17 -1 20
-17 8 -48 9 -493 1 -483 -25 28 -63 85 -63 94 0 7 -28 11 -75 11 l-74 0 0 168
c0 96 -4 179 -10 195 -15 40 -14 62 2 49 7 -6 30 -12 52 -14 l40 -3 3 -176 c2
-141 5 -179 17 -189 12 -10 18 -10 31 1 13 11 15 38 9 208 -5 191 -5 195 13
173 11 -14 24 -21 34 -17z m-368 3 c8 -13 22 -63 30 -113 17 -95 22 -295 8
-295 -5 0 -14 46 -21 103 -22 176 -24 182 -50 182 -36 0 -54 -60 -47 -155 3
-41 8 -86 12 -99 6 -19 4 -22 -12 -19 -25 4 -31 39 -33 183 -1 113 1 123 24
157 14 20 25 41 25 45 0 13 22 33 37 33 7 0 19 -10 27 -22z m-1864 8 c0 -8
-64 -66 -72 -66 -20 0 -5 30 25 49 31 20 47 26 47 17z m-5030 -106 c11 -11 20
-29 20 -41 0 -18 -4 -20 -26 -15 -26 7 -31 11 -68 54 l-19 22 36 0 c24 0 44
-7 57 -20z m275 -22 c-3 -18 -2 -63 3 -101 7 -57 6 -69 -8 -82 -19 -17 -66
-20 -75 -4 -4 6 -14 7 -24 4 -14 -6 -82 -8 -181 -5 -14 0 -32 5 -40 10 -12 8
-9 15 18 40 37 34 74 40 153 27 46 -8 47 -7 68 26 12 19 21 50 21 70 0 36 9
45 48 46 20 1 22 -2 17 -31z m4805 -55 c-30 -27 -59 -48 -64 -48 -6 0 -12 12
-14 28 -3 24 0 27 27 27 16 0 33 5 36 11 7 11 42 27 60 28 5 1 -15 -20 -45
-46z m-5576 -85 c-1 -154 -3 -168 -20 -168 -13 0 -15 18 -11 143 3 78 6 144 6
147 1 3 7 -5 14 -17 7 -12 12 -57 11 -105z m7370 -35 c4 -43 3 -73 -2 -73 -12
0 -22 59 -22 125 1 71 16 37 24 -52z m-1979 56 c19 -37 16 -43 -16 -30 -13 5
-33 12 -44 16 -19 6 -19 7 5 25 33 26 37 25 55 -11z m-231 1 c11 -11 -1 -30
-19 -30 -8 0 -31 -9 -51 -20 -20 -12 -39 -19 -41 -16 -3 2 -2 23 2 46 l7 42
47 -7 c25 -4 50 -10 55 -15z m169 -76 c26 -14 47 -28 47 -33 0 -15 -89 -91
-107 -91 -19 0 -187 -18 -214 -23 -10 -2 -24 -8 -32 -15 -12 -10 -16 -8 -21
13 -13 53 12 91 74 109 30 9 105 42 140 61 28 16 44 13 113 -21z m1916 -77 c1
-10 -3 -15 -9 -12 -5 3 -10 21 -9 38 0 27 2 29 9 12 5 -11 9 -28 9 -38z m-954
18 c55 -2 115 -4 133 -5 44 0 41 -21 -8 -61 -22 -18 -42 -41 -46 -51 -4 -15
-9 -17 -19 -8 -8 6 -38 11 -67 10 -169 -5 -358 1 -358 11 0 7 19 33 42 58 38
41 48 47 98 52 30 3 71 4 90 2 19 -2 80 -5 135 -8z m-762 -17 c15 -6 27 -14
27 -18 0 -8 -160 -23 -168 -15 -3 3 5 17 19 31 20 21 30 24 59 19 19 -3 47
-11 63 -17z m-576 -53 c-3 -21 -2 -33 4 -30 11 7 11 3 3 -19 -3 -9 -10 -16
-16 -16 -5 0 -7 4 -4 9 3 5 -3 11 -14 14 -11 3 -18 1 -14 -4 3 -5 1 -9 -5 -9
-5 0 -12 4 -15 9 -3 4 -29 6 -57 3 -37 -3 -50 -2 -45 7 4 6 15 11 24 11 9 0
40 13 67 30 68 39 79 39 72 -5z m-4637 -65 c11 -11 20 -24 20 -29 0 -5 13 -14
29 -21 16 -6 37 -20 45 -29 12 -13 30 -17 78 -15 35 2 72 -1 83 -6 11 -5 43
-18 70 -30 28 -11 62 -27 76 -35 20 -11 43 -13 87 -9 54 6 61 5 71 -15 10 -17
16 -19 31 -11 24 13 40 13 40 0 0 -5 -7 -10 -16 -10 -39 0 -85 -33 -104 -76
-11 -23 -20 -47 -20 -51 0 -18 -60 -73 -87 -79 -15 -3 -60 -15 -100 -25 l-71
-20 -33 30 c-45 42 -84 49 -114 21 -28 -26 -43 -10 -21 22 20 29 20 72 0 103
-9 13 -13 28 -10 34 10 15 -15 60 -36 67 -10 3 -32 3 -48 -1 -25 -6 -30 -4
-30 13 0 30 -24 44 -72 40 -37 -3 -45 -7 -58 -34 -8 -18 -30 -45 -47 -62 -38
-34 -44 -85 -17 -127 15 -23 14 -24 -18 -41 -18 -9 -41 -23 -50 -32 -17 -14
-18 -11 -19 54 0 38 -2 116 -3 174 -3 115 0 130 18 104 12 -16 14 -15 32 3 10
10 39 25 64 32 116 34 139 43 155 61 23 25 50 25 75 0z m-325 -40 c-8 -36 -17
-33 -21 7 -4 32 5 48 18 35 6 -6 7 -24 3 -42z m5215 40 c0 -5 -10 -15 -22 -21
-13 -6 -34 -22 -48 -35 -14 -12 -29 -24 -35 -24 -5 -1 -21 -10 -35 -21 -140
-107 -170 -124 -170 -95 0 22 36 123 59 166 5 10 31 17 75 22 38 3 70 8 72 11
8 8 104 5 104 -3z m-280 -10 c0 -5 -2 -10 -4 -10 -3 0 -8 5 -11 10 -3 6 -1 10
4 10 6 0 11 -4 11 -10z m959 -21 c16 -20 26 -20 219 -20 111 0 207 3 213 7 7
4 9 0 5 -12 -11 -35 20 -301 38 -329 16 -25 16 -28 1 -52 l-17 -26 -232 8
c-127 4 -238 7 -246 7 -8 0 -146 -4 -306 -8 -291 -6 -292 -6 -299 15 -12 38 5
56 103 103 260 127 429 234 479 302 22 31 21 31 42 5z m-1955 -87 c32 -5 76
-7 97 -6 29 3 42 -1 56 -19 10 -12 36 -31 57 -42 22 -11 61 -39 87 -62 26 -24
52 -43 57 -43 6 0 15 -7 19 -15 5 -8 28 -35 52 -60 45 -48 60 -88 61 -163 0
-48 13 -79 42 -102 11 -9 25 -43 34 -80 8 -36 25 -96 38 -135 13 -38 27 -83
31 -99 3 -16 34 -70 67 -120 82 -121 102 -154 125 -201 53 -109 132 -250 189
-335 69 -106 168 -220 190 -220 22 0 17 33 -11 71 -13 19 -32 45 -41 59 -10
14 -23 30 -29 35 -6 6 -30 38 -53 72 -23 33 -46 63 -51 65 -5 1 -27 37 -48 78
-116 222 -158 298 -189 344 l-34 51 92 7 c122 10 399 9 417 -2 8 -4 26 -4 40
2 31 11 351 0 368 -14 8 -6 20 -5 34 3 14 7 79 13 168 15 213 4 332 14 364 30
32 17 32 16 11 -78 -21 -91 -15 -305 11 -388 44 -144 122 -268 241 -387 96
-95 203 -154 369 -203 93 -27 109 -29 235 -25 105 3 148 8 195 25 33 12 78 26
100 32 57 16 193 100 240 148 39 40 39 40 48 18 5 -13 10 -43 12 -68 1 -25 14
-79 28 -120 13 -41 28 -94 32 -118 5 -32 13 -45 30 -52 13 -5 26 -13 29 -19 3
-5 25 -12 49 -16 23 -4 50 -11 60 -17 13 -6 26 -2 50 16 18 14 51 28 72 31
l40 7 -3 -249 c-2 -261 -13 -408 -30 -425 -6 -6 -23 -12 -39 -14 -63 -9 -780
-1 -1193 12 -135 5 -837 6 -1560 4 -1643 -5 -3667 -3 -4200 3 -223 3 -537 6
-697 7 l-293 1 0 202 c0 111 -2 240 -5 287 -8 169 -16 1467 -10 1493 7 27 8
27 84 26 42 -1 209 -1 371 0 162 0 321 -1 353 -3 32 -3 80 -6 108 -7 54 -3 67
-12 49 -34 -15 -19 -17 -92 -2 -107 7 -7 52 -16 103 -19 49 -4 92 -9 95 -11 8
-8 -35 -274 -52 -321 -19 -52 -64 -228 -94 -362 -12 -55 -35 -143 -51 -196
-16 -53 -29 -103 -29 -110 0 -7 -12 -50 -26 -96 -34 -108 -28 -165 18 -189 19
-10 42 -14 62 -10 18 4 46 2 62 -4 23 -8 40 -7 73 5 24 8 55 15 70 15 25 0 27
4 39 68 7 37 24 99 37 137 13 39 35 115 50 170 39 152 41 155 84 155 20 0 42
-5 48 -11 6 -6 44 -13 85 -16 62 -5 80 -2 113 15 58 30 135 122 135 161 0 12
6 56 14 98 8 43 22 124 30 181 15 97 57 240 85 290 12 23 16 24 90 17 148 -13
835 -20 853 -9 16 10 518 16 518 7 0 -18 -31 -52 -48 -51 -9 1 -33 -6 -53 -14
-45 -19 -56 -54 -34 -102 15 -32 15 -34 -19 -91 -20 -32 -43 -66 -52 -77 -16
-17 -16 -20 -2 -34 14 -14 18 -13 42 8 14 13 38 48 53 78 25 50 31 55 58 52
17 -1 51 8 77 20 56 25 69 19 45 -21 -21 -36 -14 -55 30 -86 29 -19 40 -21 63
-14 31 11 56 50 46 74 -3 9 -1 25 4 35 5 10 7 25 4 34 -5 14 -9 13 -31 -1 -19
-13 -24 -23 -21 -52 2 -27 -1 -36 -14 -39 -28 -5 -51 23 -39 47 6 10 17 21 24
24 9 3 12 16 9 37 -5 32 -5 32 -53 27 -26 -3 -62 -13 -80 -22 -19 -10 -35 -13
-41 -7 -10 10 6 59 29 85 14 15 18 15 32 3 10 -9 46 -17 91 -20 41 -2 76 -5
78 -5 1 -1 2 -7 2 -15 0 -8 18 -31 40 -52 23 -22 40 -47 40 -60 0 -12 10 -35
23 -51 13 -15 27 -36 30 -47 5 -13 13 -17 31 -12 29 7 55 -25 75 -91 8 -30 17
-43 29 -43 10 0 23 -5 30 -12 12 -12 116 -29 203 -32 44 -2 95 -29 178 -94 33
-26 22 -52 -21 -52 -67 -1 -156 -12 -248 -31 -62 -13 -97 -16 -104 -9 -6 6
-31 10 -56 10 -49 0 -135 24 -160 45 -8 7 -26 15 -40 18 -14 3 -45 13 -69 22
-36 13 -66 15 -155 10 -109 -7 -131 -3 -181 27 -100 63 -125 81 -125 95 0 8
14 28 31 44 31 29 34 59 5 59 -20 0 -86 -88 -86 -114 0 -23 42 -67 100 -106
19 -13 42 -32 51 -43 21 -26 103 -37 173 -24 28 6 80 11 116 11 57 1 76 -4
155 -43 68 -33 104 -45 145 -47 30 -1 67 -7 82 -12 20 -8 44 -6 105 10 99 26
206 37 326 33 103 -3 89 3 274 -108 87 -51 157 -121 212 -211 l31 -51 -26 -50
c-23 -45 -25 -57 -19 -119 4 -46 14 -81 30 -105 30 -47 63 -81 78 -81 7 0 22
-20 35 -44 13 -24 35 -49 48 -55 64 -29 301 1 368 46 56 38 77 49 112 57 16 4
55 20 86 37 31 16 64 29 71 29 8 0 25 8 38 19 13 10 42 24 64 31 22 7 49 19
60 26 11 6 36 15 55 19 39 9 99 35 151 68 65 40 200 162 206 185 3 12 21 34
39 49 34 26 60 87 50 121 -2 9 -7 29 -10 45 -6 25 -10 27 -60 27 -29 0 -73 7
-96 15 -52 18 -144 25 -185 13 -16 -5 -46 -11 -66 -13 -20 -3 -67 -16 -104
-31 -48 -17 -79 -23 -104 -19 -20 3 -76 2 -125 -3 -60 -5 -89 -5 -91 2 -20 78
-29 99 -54 125 -26 28 -35 31 -89 31 -72 0 -115 -26 -96 -57 7 -11 21 -17 35
-15 13 2 43 0 67 -3 59 -9 83 -47 81 -130 -2 -84 -1 -87 19 -83 11 2 17 13 17
28 l0 25 145 1 c138 2 149 3 225 34 120 47 240 57 319 25 10 -5 40 -9 65 -9
39 -1 46 -4 49 -23 2 -14 -9 -36 -31 -60 -19 -21 -37 -47 -41 -59 -7 -22 -38
-53 -114 -112 -41 -32 -42 -32 -42 -10 0 35 -16 56 -31 41 -12 -12 -11 -17 19
-74 2 -5 -50 -29 -64 -29 -2 0 -4 13 -4 28 0 16 -6 37 -14 47 -13 18 -14 17
-30 -14 -16 -31 -16 -34 0 -52 20 -22 20 -21 -23 -43 -43 -21 -43 -21 -43 18
0 39 -14 53 -35 36 -20 -16 -19 -39 1 -61 16 -17 15 -19 -10 -29 -39 -14 -41
-14 -51 23 -7 23 -17 33 -34 35 -23 4 -24 2 -18 -45 5 -41 3 -51 -14 -61 -31
-20 -37 -14 -26 28 10 34 9 43 -6 57 -38 38 -78 -37 -41 -78 17 -18 16 -20 -2
-34 -25 -19 -54 -19 -54 0 0 23 -27 29 -46 10 -13 -13 -15 -21 -6 -41 11 -23
10 -24 -19 -24 -16 0 -39 -8 -50 -19 -31 -28 -110 -69 -149 -75 -19 -3 -53
-10 -75 -16 -51 -12 -185 7 -185 27 0 8 11 18 24 22 26 11 41 40 28 53 -6 6
-25 5 -49 -1 -37 -10 -62 -9 -104 4 -21 7 -58 79 -66 132 -6 32 11 83 28 83 4
0 12 -13 17 -29 5 -15 29 -47 52 -71 38 -39 44 -41 78 -35 20 4 41 10 46 15
17 16 -3 40 -33 40 -46 0 -61 10 -61 39 0 14 -6 38 -14 53 -8 14 -19 42 -26
62 -6 20 -31 60 -54 89 -59 72 -79 114 -72 149 6 32 -14 49 -37 30 -9 -8 -23
-1 -51 24 -21 19 -50 37 -65 41 -14 3 -42 13 -61 21 -19 9 -38 15 -41 14 -4
-1 -40 23 -80 53 -41 30 -105 76 -144 102 -38 26 -74 52 -80 58 -5 7 -27 22
-47 34 -53 32 -123 117 -162 197 -35 74 -57 139 -111 333 -35 127 -72 195
-103 189 -25 -5 -24 -24 3 -56 46 -55 28 -58 -32 -4 -25 22 -66 45 -100 56
-32 10 -103 35 -158 56 -55 20 -161 56 -235 79 -199 63 -310 115 -310 144 0
12 45 64 136 158 61 63 91 84 176 126 149 74 329 137 413 146 48 5 215 -2 279
-11z m-3726 -65 c6 -7 10 -26 10 -43 -1 -17 6 -42 16 -55 9 -13 16 -33 16 -45
0 -58 34 -72 68 -29 17 21 42 34 42 21 0 -16 -14 -36 -25 -36 -17 0 -28 -34
-20 -60 5 -14 0 -26 -16 -38 -19 -16 -20 -21 -9 -41 10 -19 9 -29 -6 -56 -36
-68 21 -91 75 -30 36 42 44 43 66 9 9 -14 22 -24 28 -21 7 2 22 1 35 -4 17 -6
22 -16 22 -41 0 -62 16 -59 -255 -53 -82 2 -178 6 -212 10 l-61 7 -4 39 c-5
50 -1 58 22 52 29 -8 35 20 13 57 l-18 31 33 30 c40 36 57 37 74 2 10 -22 21
-29 51 -31 46 -4 58 18 34 60 -9 17 -17 36 -17 45 0 8 -18 31 -40 50 -22 20
-40 44 -40 53 0 24 22 40 46 34 27 -7 49 19 36 43 -7 11 -7 24 -1 35 11 21 23
23 37 5z m6192 3 c0 -5 -4 -10 -10 -10 -5 0 -10 5 -10 10 0 6 5 10 10 10 6 0
10 -4 10 -10z m105 -39 c-3 -12 -11 -21 -16 -21 -10 0 -12 43 -2 54 12 12 25
-11 18 -33z m-5411 14 c22 -17 23 -17 -24 -40 -19 -10 -63 -45 -98 -78 -49
-48 -64 -69 -69 -99 -6 -38 -9 -41 -88 -79 -46 -21 -92 -39 -103 -39 -23 0
-48 -21 -57 -48 -9 -30 -85 -27 -108 4 -35 47 6 77 158 115 71 17 108 49 145
122 32 64 82 107 124 107 8 0 23 11 32 25 19 29 58 33 88 10z m175 -31 c17 -4
31 -13 31 -20 0 -10 -6 -11 -22 -5 -33 12 -102 -12 -133 -45 -28 -32 -75 -116
-75 -136 0 -7 -14 -26 -30 -42 -17 -16 -30 -35 -30 -42 0 -7 -14 -30 -32 -50
-29 -33 -31 -38 -20 -67 10 -27 9 -34 -7 -50 -24 -24 -41 -15 -41 22 0 34 -35
81 -60 81 -66 0 -65 34 3 64 62 28 89 55 91 93 3 61 181 198 262 202 17 0 46
-2 63 -5z m-949 -8 c0 -16 -14 -36 -26 -36 -14 0 -19 22 -7 33 7 8 33 10 33 3z
m1100 -126 c52 -56 75 -64 166 -58 65 4 66 4 91 -29 14 -18 30 -33 35 -33 5 0
28 -13 51 -29 116 -79 134 -88 194 -90 86 -4 101 -7 185 -36 68 -23 82 -25
113 -15 20 7 46 25 58 42 30 41 50 47 131 37 46 -6 74 -5 82 2 9 7 38 7 96 -2
46 -6 116 -11 156 -12 56 0 75 -4 82 -16 8 -14 12 -14 30 -3 19 11 25 10 56
-18 19 -16 40 -30 46 -30 6 0 9 -3 5 -6 -12 -12 -909 -16 -1027 -5 -63 7 -182
14 -265 17 -82 3 -193 13 -245 21 -52 8 -128 16 -168 18 -61 2 -77 6 -94 25
-18 19 -27 21 -73 15 -29 -3 -56 -2 -59 3 -3 5 9 25 26 46 30 37 30 37 88 30
52 -6 58 -4 63 15 4 15 16 22 46 27 30 5 41 11 41 25 0 16 -9 17 -100 14 -55
-1 -102 1 -105 5 -6 10 24 50 39 50 7 0 18 11 24 24 10 23 14 24 99 20 l88 -5
45 -49z m-950 -95 c30 -16 37 -38 20 -65 -8 -12 -12 -11 -32 6 -13 12 -31 24
-42 28 -18 6 -18 7 -1 26 22 24 19 24 55 5z m6730 -78 c63 -21 173 -72 190
-88 8 -8 34 -27 57 -43 42 -28 110 -98 148 -152 119 -169 160 -380 114 -595
-29 -137 -152 -320 -269 -402 -244 -170 -569 -180 -818 -25 -167 104 -271 244
-323 433 -18 68 -21 97 -16 200 4 105 9 132 39 216 70 191 205 335 395 418
118 51 173 61 313 56 70 -2 145 -10 170 -18z m648 -91 c2 -27 0 -52 -5 -57 -4
-4 -6 -56 -3 -114 4 -93 3 -109 -12 -122 -46 -42 -10 -61 102 -57 l85 4 0
-495 c0 -272 -3 -495 -6 -495 -12 0 -52 164 -85 350 -2 14 -9 45 -14 70 -27
120 -53 274 -62 360 -5 52 -18 126 -29 164 -12 38 -19 80 -16 94 4 18 -3 32
-22 51 -15 14 -42 52 -60 85 l-32 58 22 24 c16 17 20 31 16 52 -6 30 1 72 12
72 3 0 6 -50 6 -110 1 -74 5 -114 13 -122 23 -23 31 11 30 118 0 56 3 107 7
114 4 6 17 10 28 8 19 -3 22 -11 25 -52z m-7084 28 c9 -8 16 -24 16 -34 0 -28
19 -34 40 -15 16 15 22 15 35 5 18 -15 20 -36 4 -46 -14 -8 -127 -13 -161 -7
-27 5 -28 10 -6 81 7 24 15 32 33 32 13 0 31 -7 39 -16z m-132 -77 c14 -22 8
-27 -26 -27 -38 0 -51 12 -42 37 7 17 55 10 68 -10z m480 -27 c-4 -45 -6 -50
-28 -50 -22 0 -24 4 -24 43 0 49 5 57 34 57 19 0 21 -5 18 -50z m86 38 c7 -7
12 -27 12 -45 0 -30 -3 -33 -30 -33 -29 0 -30 2 -30 45 0 37 3 45 18 45 10 0
23 -5 30 -12z m6482 -26 c0 -24 -1 -25 -16 -10 -10 9 -14 24 -10 33 9 23 26 9
26 -23z m-6274 16 c4 -4 1 -15 -7 -24 -10 -12 -16 -57 -19 -148 l-5 -131 -30
0 c-16 0 -30 5 -30 10 4 66 21 154 33 168 11 12 13 21 6 25 -6 4 -14 24 -18
45 -4 20 -9 37 -12 37 -16 0 -44 -23 -44 -36 0 -33 -25 -6 -28 30 l-3 38 75
-4 c41 -2 78 -7 82 -10z m4776 -139 c-3 -122 -11 -163 -28 -147 -14 14 -24 89
-24 180 0 84 2 97 18 101 35 9 37 2 34 -134z m88 132 c0 -6 -5 -13 -10 -16 -6
-4 -3 -16 10 -32 11 -14 20 -31 20 -39 0 -25 -51 -114 -62 -108 -11 7 -6 154
7 187 7 18 35 24 35 8z m-4744 -139 c1 -79 6 -128 13 -135 22 -22 31 14 30
113 -1 135 7 150 78 150 41 0 42 0 37 -32 -14 -98 -19 -176 -14 -198 9 -36 35
-32 35 5 1 17 5 72 9 123 l9 93 81 -3 81 -3 -3 -30 c-1 -16 -4 -75 -5 -131 -2
-95 -3 -100 -24 -102 -22 -2 -22 1 -25 121 -3 107 -5 122 -20 125 -16 3 -18
-8 -18 -122 l0 -126 -57 -1 c-32 0 -118 -3 -191 -5 l-133 -5 6 78 c3 43 8 110
11 148 l5 71 47 -6 46 -5 2 -123z m4557 21 c3 -65 8 -128 12 -139 5 -17 2 -23
-21 -28 -15 -4 -31 -3 -37 3 -11 11 -13 253 -2 271 3 6 14 10 24 10 17 0 19
-13 24 -117z m-1518 97 c9 -14 -4 -52 -16 -45 -12 8 -12 55 0 55 6 0 13 -5 16
-10z m98 -2 c-9 -12 -34 -145 -39 -208 -2 -38 -4 -38 -20 5 -12 32 -13 54 -4
115 14 99 15 100 46 100 20 0 24 -3 17 -12z m62 -125 c0 -129 -4 -144 -31
-125 -31 21 -36 52 -23 158 12 97 14 105 33 102 20 -3 21 -9 21 -135z m274 -9
c-2 -120 -4 -134 -19 -134 -12 0 -20 11 -24 31 -8 39 -8 234 0 241 3 3 14 4
25 1 18 -5 19 -14 18 -139z m78 6 c-2 -121 -4 -140 -18 -140 -20 0 -30 73 -23
168 7 93 12 112 29 112 12 0 14 -24 12 -140z m90 24 c2 -63 7 -123 12 -132 11
-23 3 -42 -19 -42 -25 0 -39 88 -32 203 4 72 7 87 21 87 14 0 16 -17 18 -116z
m93 109 c5 -95 4 -283 -2 -283 -30 0 -54 209 -33 278 5 13 35 17 35 5z m190
-12 c32 -60 24 -262 -11 -269 -13 -2 -17 15 -25 107 -12 143 5 219 36 162z
m110 -88 c0 -60 3 -125 6 -145 6 -36 5 -38 -20 -38 -27 0 -27 0 -26 73 1 39
-2 102 -6 139 -7 69 -6 70 39 77 4 0 7 -47 7 -106z m212 47 c4 -30 10 -94 13
-142 l7 -88 -27 0 c-22 0 -25 4 -20 19 3 11 -3 42 -14 68 -21 52 -45 178 -36
192 3 5 20 8 37 7 32 -1 33 -2 40 -56z m207 -65 c0 -68 2 -129 5 -134 6 -9
-22 -31 -39 -31 -4 0 -4 13 0 29 4 19 1 38 -8 53 -9 14 -17 60 -20 116 l-4 92
33 0 34 0 -1 -125z m-4008 80 c11 -49 10 -233 -1 -240 -5 -3 -21 5 -35 19 -27
28 -31 60 -18 189 5 62 8 68 27 65 14 -2 23 -13 27 -33z m85 -46 c1 -35 6 -92
9 -127 l6 -63 -28 3 -28 3 -5 125 c-3 69 -4 128 -2 132 1 4 12 4 24 -1 18 -6
21 -17 24 -72z m506 72 c4 -1 7 -56 6 -123 -1 -68 2 -134 6 -147 9 -23 8 -23
-35 -16 -24 4 -46 9 -48 11 -2 2 1 37 6 79 6 47 6 78 0 82 -9 5 -3 95 7 112 4
7 14 7 58 2z m103 1 c6 -4 10 -55 10 -122 0 -95 3 -115 15 -115 12 0 15 20 16
113 1 112 7 139 25 112 8 -13 12 -267 4 -280 -2 -3 -27 -4 -57 -2 -52 4 -55 5
-67 39 -13 36 -16 171 -5 231 5 24 11 32 28 32 11 0 26 -4 31 -8z m155 1 c0
-72 9 -235 15 -258 6 -29 5 -30 -30 -30 l-36 0 2 134 c0 74 3 140 6 148 5 14
43 19 43 6z m117 -2 c20 -1 21 -4 11 -37 -5 -20 -10 -82 -11 -138 -2 -101 -2
-101 -28 -104 -23 -3 -27 2 -42 57 -32 114 -17 235 28 226 11 -2 30 -4 42 -4z
m105 -41 c-2 -25 4 -79 12 -120 24 -115 23 -120 -23 -120 -43 0 -47 5 -57 78
-6 45 9 183 22 204 3 5 16 8 27 6 19 -3 22 -8 19 -48z m1778 -19 c0 -112 -11
-191 -27 -191 -19 0 -21 9 -27 143 l-5 117 29 0 30 0 0 -69z m86 -63 c-3 -133
-3 -133 -27 -133 l-24 0 -1 133 0 132 28 0 27 0 -3 -132z m452 -8 c2 -118 0
-140 -12 -140 -8 0 -18 5 -21 10 -12 19 -14 221 -3 246 24 53 33 25 36 -116z
m289 95 c5 -66 25 -168 40 -202 l13 -33 -30 0 c-43 0 -53 31 -56 168 -2 99 0
113 14 110 11 -2 17 -16 19 -43z m217 18 c3 -16 5 -53 5 -83 0 -30 7 -77 16
-103 18 -54 14 -67 -21 -67 -18 0 -24 5 -24 23 0 12 -5 67 -10 122 -6 55 -7
108 -4 117 8 27 32 21 38 -9z m-3610 -25 c-5 -24 -8 -85 -6 -135 2 -92 2 -93
-21 -93 -21 0 -25 6 -31 46 -8 62 -8 209 1 217 3 4 20 7 36 7 29 0 30 0 21
-42z m101 -83 c4 -68 5 -130 2 -138 -2 -7 -18 -12 -33 -12 -27 2 -29 5 -37 56
-13 99 10 219 43 219 16 0 19 -13 25 -125z m106 108 c4 -46 -1 -202 -6 -231
-5 -27 -10 -33 -28 -30 -19 3 -23 11 -28 68 -4 36 -7 98 -8 138 l-1 72 35 0
c26 0 35 -4 36 -17z m672 0 c10 -12 15 -38 16 -78 0 -32 3 -72 7 -88 3 -16 3
-44 0 -63 -6 -28 -11 -33 -29 -30 -19 2 -24 13 -33 67 -13 72 -17 192 -7 202
11 12 29 8 46 -10z m-979 -65 c16 -212 17 -198 -9 -198 -13 0 -27 5 -30 11 -9
14 -27 230 -20 247 2 6 15 12 29 12 23 0 25 -4 30 -72z m-1231 40 c9 -5 17
-19 17 -31 l0 -22 -477 0 -478 0 0 24 c0 30 -18 28 285 36 156 4 244 3 288 -6
55 -10 66 -9 79 4 13 12 37 14 142 10 69 -3 134 -10 144 -15z m2305 13 c9 -5
14 -41 16 -117 2 -60 5 -113 7 -119 5 -12 -3 -15 -36 -15 -21 0 -25 4 -23 23
1 12 -1 66 -6 119 -4 53 -5 102 -1 108 7 12 25 13 43 1z m90 -27 c21 -6 22
-11 22 -116 l0 -109 -27 3 c-25 3 -28 7 -29 43 -1 22 -3 65 -4 95 -3 98 -5 95
38 84z m108 -32 c8 -5 10 -36 7 -100 -6 -92 -6 -93 -30 -90 -24 3 -25 5 -24
86 0 45 0 89 1 97 0 16 27 20 46 7z m-2142 -94 c-3 -40 -8 -76 -10 -79 -2 -4
-15 -6 -29 -6 -19 0 -24 4 -21 16 2 9 10 44 16 79 10 50 16 62 32 62 18 0 19
-5 12 -72z m2235 53 c10 -7 14 -30 14 -83 l0 -73 -43 -3 c-40 -3 -42 -2 -36
20 4 13 9 41 12 63 11 88 18 98 53 76z m-2318 -13 c1 -7 1 -17 0 -22 -1 -4 -2
-28 -3 -53 0 -39 -3 -44 -22 -41 -18 3 -21 11 -24 66 -3 61 -2 62 23 62 14 0
26 -6 26 -12z m-90 -51 c3 -27 3 -49 0 -51 -4 -1 -33 0 -66 3 -57 6 -60 7 -57
31 8 70 9 71 65 68 l52 -3 6 -48z m2524 29 c31 -13 34 -17 30 -53 -1 -21 -3
-48 -4 -61 -1 -20 -5 -22 -23 -16 -13 4 -33 7 -45 6 -22 -2 -23 2 -23 68 0 78
4 81 65 56z m125 -82 c0 -17 -28 -44 -47 -44 -12 0 -14 7 -8 37 4 21 9 42 12
46 6 11 43 -22 43 -39z m58 -24 c10 -17 10 -21 -4 -27 -18 -7 -35 13 -27 34 7
18 16 16 31 -7z m-2318 -50 c0 -5 -4 -10 -10 -10 -5 0 -10 5 -10 10 0 6 5 10
10 10 6 0 10 -4 10 -10z m2159 -25 c75 -1 143 2 153 6 12 7 18 2 27 -22 18
-52 -27 -119 -79 -117 -14 0 -33 -3 -42 -7 -11 -4 -18 -3 -18 3 0 15 -30 20
-63 11 -23 -6 -30 -3 -44 18 -19 29 -52 44 -111 48 -54 4 -76 20 -59 45 12 20
49 30 81 22 11 -2 81 -5 155 -7z m-1880 -29 c14 -17 0 -29 -23 -20 -17 7 -20
16 -9 27 10 11 19 8 32 -7z m-151 -8 c9 -9 18 -9 37 0 34 16 68 15 63 0 -5
-15 -138 -24 -138 -10 0 22 20 28 38 10z m-294 -20 c24 -33 5 -43 -49 -26 -51
17 -50 17 -60 -33 -9 -47 6 -56 44 -28 21 15 37 20 55 15 37 -9 34 -41 -4 -55
-16 -5 -30 -15 -30 -20 0 -12 55 -43 85 -48 30 -5 37 -17 22 -37 -10 -14 -18
-16 -31 -9 -28 15 -60 4 -74 -25 -17 -38 -16 -40 28 -52 27 -7 40 -16 40 -28
0 -31 -15 -44 -45 -36 -18 4 -30 2 -36 -7 -10 -17 8 -39 33 -39 17 0 19 -5 13
-32 -11 -49 -19 -53 -76 -39 -27 7 -53 11 -56 8 -14 -14 9 -37 49 -48 60 -17
63 -22 49 -69 l-12 -41 -20 25 c-23 29 -78 36 -98 13 -19 -24 9 -46 64 -49 49
-3 50 -4 47 -33 -5 -60 -12 -77 -29 -71 -18 7 -53 -20 -53 -41 0 -7 7 -16 15
-19 23 -9 18 -57 -14 -166 -34 -111 -44 -133 -67 -142 -43 -17 -51 14 -24 95
15 43 18 65 11 72 -16 16 -24 3 -61 -91 -18 -46 -39 -86 -45 -88 -14 -6 -85
34 -85 47 0 18 51 225 66 264 19 52 47 158 85 325 17 74 37 146 44 160 8 14
28 100 45 190 18 91 34 167 35 170 2 3 30 6 63 8 53 2 63 -1 76 -20z m363 -62
c-2 -6 -20 -11 -39 -11 -43 0 -52 -7 -43 -34 5 -18 14 -21 61 -21 65 0 72 -10
54 -78 -17 -60 -26 -72 -59 -72 -35 0 -54 -14 -49 -36 4 -19 34 -24 83 -13 16
3 19 -1 17 -20 -3 -34 -6 -36 -62 -33 -52 2 -64 -6 -54 -33 5 -13 14 -15 39
-11 38 8 60 -12 50 -44 -6 -17 -12 -20 -32 -15 -16 4 -29 1 -33 -6 -12 -18 0
-48 21 -54 21 -7 25 -20 9 -30 -6 -4 -8 -15 -5 -25 11 -34 -65 -65 -102 -42
-11 7 -8 40 11 112 7 30 -6 55 -26 47 -10 -3 -20 -34 -28 -80 -14 -75 -14 -75
-47 -79 -43 -5 -49 -1 -56 44 -4 26 2 58 23 115 26 71 41 115 87 253 9 25 24
75 36 112 l20 67 51 3 c60 4 78 0 73 -16z m50 -18 c-3 -8 -6 -5 -6 6 -1 11 2
17 5 13 3 -3 4 -12 1 -19z m2138 -30 c4 -18 16 -49 26 -68 9 -19 32 -66 51
-103 18 -38 41 -75 50 -84 30 -27 23 -43 -14 -32 -18 5 -45 9 -60 9 -48 0 -93
31 -113 78 -19 46 -20 41 26 122 13 23 18 48 15 73 -5 46 10 49 19 5z m-2458
-7 c10 -15 9 -22 -1 -30 -18 -15 -49 9 -40 32 8 22 26 22 41 -2z m2299 -48
l22 -28 11 28 c7 17 18 27 31 27 28 0 35 -25 16 -56 -21 -31 -44 -41 -65 -26
-9 7 -26 16 -38 22 -15 6 -23 18 -23 35 0 33 19 32 46 -2z m4144 -194 c0 -26
87 -430 100 -464 7 -17 8 -46 4 -70 -9 -47 -6 -75 8 -93 13 -15 -26 -62 -50
-62 -22 0 -52 30 -52 50 0 10 -7 20 -15 24 -8 3 -15 15 -15 27 0 19 -4 21 -32
14 -92 -20 -84 -21 -66 6 12 18 23 23 47 21 23 -2 31 1 31 12 0 8 9 20 21 26
13 7 19 19 17 33 -3 19 -9 22 -48 20 -25 0 -53 -4 -62 -8 -23 -9 -33 16 -19
44 7 13 20 20 34 18 14 -1 22 3 22 13 0 11 -14 16 -55 18 -30 2 -58 7 -63 11
-15 15 19 41 58 44 28 2 40 7 40 18 0 9 13 30 28 48 28 33 35 67 16 73 -7 2
-7 12 2 31 10 23 10 30 -4 45 -19 21 -21 35 -8 60 12 21 25 74 22 86 -1 5 1
16 4 25 5 12 10 8 21 -18 8 -18 14 -42 14 -52z m-150 -289 c0 -5 -5 -10 -11
-10 -5 0 -7 5 -4 10 3 6 8 10 11 10 2 0 4 -4 4 -10z m-40 -10 c0 -5 -4 -10
-10 -10 -5 0 -10 5 -10 10 0 6 5 10 10 10 6 0 10 -4 10 -10z m330 -326 c0 -8
-4 -12 -10 -9 -5 3 -10 10 -10 16 0 5 5 9 10 9 6 0 10 -7 10 -16z m-146 -59
c-4 -8 -10 -15 -15 -15 -5 0 -9 7 -9 15 0 8 7 15 15 15 9 0 12 -6 9 -15z"/>
<path d="M4885 14368 c-264 -10 -660 -20 -763 -18 -97 1 -122 -7 -122 -40 0
-9 9 -25 20 -35 16 -15 31 -17 85 -12 52 5 65 3 65 -8 0 -19 84 -157 137 -225
23 -30 40 -56 38 -58 -2 -3 -51 -4 -108 -3 -84 2 -106 -1 -117 -14 -11 -13 -8
-20 21 -46 30 -27 37 -29 79 -22 46 7 101 8 720 17 190 3 353 6 362 6 21 0 40
31 29 48 -4 7 -32 14 -62 15 -74 4 -79 9 -67 56 6 24 6 61 1 98 -5 33 -7 76
-5 96 4 33 7 36 43 42 21 4 41 11 44 16 3 4 24 13 45 19 29 8 40 16 40 30 0
11 -6 21 -12 21 -7 1 -26 3 -43 5 -32 3 -152 13 -220 17 -22 1 -116 -1 -210
-5z m-290 -90 c8 -7 -9 -37 -92 -165 -30 -46 -60 -83 -67 -83 -8 0 -21 11 -29
24 -9 13 -32 41 -52 62 -33 36 -105 144 -105 157 0 12 333 17 345 5z m189 -45
c5 -39 6 -251 2 -254 0 0 -66 -3 -145 -6 l-143 -5 65 94 c35 52 79 122 96 156
31 62 31 62 75 62 l44 0 6 -47z m151 19 c3 -15 7 -76 9 -135 4 -117 -3 -137
-48 -137 -22 0 -23 4 -29 113 -12 193 -13 187 27 187 30 0 35 -4 41 -28z m179
-113 c-1 -77 -6 -145 -12 -151 -5 -5 -25 -8 -43 -6 l-34 3 3 75 c2 41 -1 103
-8 138 -6 34 -8 67 -5 72 3 6 27 10 53 10 l47 0 -1 -141z"/>
<path d="M1975 4499 c-4 -5 -4 -21 -1 -35 4 -14 0 -37 -9 -54 -8 -16 -15 -38
-15 -48 0 -11 -10 -26 -22 -34 -26 -17 -17 -38 16 -38 36 0 53 37 61 133 6 75
5 87 -8 87 -9 0 -19 -5 -22 -11z"/>
<path d="M1060 4153 c0 -11 -13 -32 -30 -48 l-30 -29 -22 21 c-45 40 -66 -1
-27 -51 l21 -27 -31 -37 c-17 -20 -41 -56 -53 -79 -20 -38 -20 -46 -8 -83 10
-30 11 -54 4 -94 -11 -58 -1 -106 22 -106 8 0 14 6 15 13 2 29 6 65 13 113 6
38 3 61 -8 89 -18 43 -18 44 41 106 24 25 53 61 65 80 11 19 34 49 50 67 34
40 34 75 1 80 -17 3 -23 -2 -23 -15z"/>
<path d="M838 4102 c-53 -52 -73 -92 -48 -92 5 0 31 19 58 43 27 23 57 47 67
52 15 9 16 14 6 33 -6 12 -15 22 -19 22 -4 0 -33 -26 -64 -58z"/>
<path d="M857 3998 c-6 -19 11 -48 29 -48 11 0 14 8 12 27 -3 29 -32 44 -41
21z"/>
<path d="M1070 3955 c-17 -20 -8 -50 15 -50 15 0 21 8 23 33 4 35 -16 44 -38
17z"/>
<path d="M1260 3671 c0 -39 9 -61 25 -61 18 0 28 35 21 66 -10 37 -46 33 -46
-5z"/>
<path d="M1385 3650 c-9 -15 5 -52 18 -47 19 6 21 57 3 57 -8 0 -18 -5 -21
-10z"/>
<path d="M7626 14518 c-14 -44 -14 -77 -1 -88 12 -10 16 -9 19 1 2 8 8 28 14
44 11 36 6 55 -14 55 -8 0 -16 -6 -18 -12z"/>
<path d="M7982 14526 c-24 -25 -32 -44 -32 -69 0 -20 -4 -47 -10 -61 -10 -27
13 -101 29 -92 4 3 11 39 14 79 5 75 21 117 44 117 33 0 95 -103 78 -130 -4
-6 -1 -18 6 -26 15 -18 18 -187 6 -306 -7 -66 -6 -78 7 -78 22 0 27 14 31 78
14 228 -4 404 -47 464 -18 26 -65 58 -85 58 -5 0 -23 -15 -41 -34z"/>
<path d="M8024 14385 c-4 -8 -1 -21 4 -28 6 -7 11 -22 11 -32 0 -42 12 -211
17 -232 2 -13 9 -23 14 -23 11 0 13 92 3 233 -5 86 -8 97 -25 97 -10 0 -21 -7
-24 -15z"/>
<path d="M7960 14226 c0 -46 28 -116 47 -116 28 0 -4 138 -34 148 -9 2 -13 -8
-13 -32z"/>
<path d="M8159 13918 c-1 -45 2 -92 7 -97 12 -13 26 23 28 70 1 43 -2 54 -16
57 -14 3 -18 -4 -19 -30z"/>
<path d="M8524 13286 c-3 -14 -2 -74 3 -133 6 -86 11 -108 23 -108 11 0 16 15
18 60 6 130 -24 257 -44 181z"/>
<path d="M8414 10863 c-3 -10 -12 -29 -19 -43 -49 -85 -57 -115 -64 -224 -8
-128 1 -302 17 -362 9 -30 21 -46 46 -59 18 -10 40 -15 49 -12 25 10 68 111
78 187 12 84 19 204 18 324 -1 106 -19 152 -74 185 -44 25 -44 25 -51 4z m73
-80 c19 -29 25 -139 13 -228 l-7 -50 -2 50 c-4 85 -15 129 -34 133 -62 12 -77
-304 -15 -324 27 -8 38 10 38 64 0 24 4 41 9 38 26 -17 -24 -219 -59 -241 -38
-24 -64 82 -62 255 1 145 21 248 52 269 11 7 20 24 20 37 0 32 25 31 47 -3z"/>
<path d="M7305 14054 c-21 -32 -44 -76 -51 -98 -8 -23 -25 -63 -38 -91 -14
-27 -29 -62 -35 -77 l-10 -27 -108 6 c-133 7 -156 8 -216 5 -44 -2 -48 -4 -45
-24 3 -20 97 -96 121 -97 7 -1 87 -51 97 -61 3 -3 17 -13 33 -23 43 -27 42
-31 -64 -254 -39 -80 -49 -113 -49 -153 0 -34 4 -50 13 -50 18 0 142 67 157
85 7 8 18 15 25 15 14 0 150 95 183 128 12 12 26 22 31 22 12 0 109 -66 142
-96 14 -13 29 -24 34 -24 9 0 76 -48 130 -92 35 -30 101 -39 111 -15 5 14 -20
85 -81 227 -75 176 -71 162 -49 177 21 16 162 101 200 121 28 15 48 48 38 63
-3 6 -17 14 -30 19 -25 10 -189 22 -287 22 -57 0 -59 1 -72 32 -7 17 -23 67
-35 112 -21 80 -77 195 -97 201 -7 3 -28 -22 -48 -53z m79 -121 c10 -38 21
-76 27 -85 5 -10 9 -26 9 -36 0 -10 5 -23 12 -30 6 -6 10 -14 7 -16 -5 -5 -59
-8 -136 -7 -70 1 -77 10 -47 66 9 17 27 59 41 94 47 124 59 126 87 14z m-237
-236 c2 -2 -6 -25 -17 -50 l-20 -46 -53 31 c-28 18 -62 38 -74 45 -13 7 -23
17 -23 21 0 8 179 6 187 -1z m364 -76 c22 -40 39 -75 39 -76 0 -2 -26 -18 -57
-35 -32 -18 -69 -41 -82 -51 -25 -20 -66 -25 -75 -10 -3 4 -44 34 -91 65 l-85
56 19 48 c10 26 21 55 24 65 6 16 20 17 138 15 l132 -3 38 -74z m192 69 c42 0
57 -4 55 -12 -6 -18 -146 -91 -162 -85 -13 5 -56 84 -56 102 0 4 24 5 53 1 28
-3 78 -6 110 -6z m-497 -227 c82 -62 82 -80 -1 -139 -33 -24 -64 -43 -68 -43
-5 -1 -33 -17 -63 -37 -30 -20 -57 -34 -60 -31 -3 3 2 20 11 38 20 38 85 204
92 237 3 12 10 22 16 22 5 0 38 -21 73 -47z m420 -108 c14 -38 33 -83 41 -98
8 -16 12 -31 10 -34 -6 -6 -80 32 -98 50 -8 7 -40 32 -71 56 -32 24 -58 47
-58 52 0 5 -7 9 -15 9 -28 0 -15 17 33 43 26 15 58 36 72 46 l25 20 17 -37 c9
-20 29 -68 44 -107z"/>
<path d="M7960 13790 c0 -5 5 -10 10 -10 6 0 10 5 10 10 0 6 -4 10 -10 10 -5
0 -10 -4 -10 -10z"/>
<path d="M7524 12068 c-25 -38 -87 -185 -140 -331 l-29 -79 -169 6 c-167 5
-206 0 -206 -27 0 -25 97 -107 190 -159 72 -41 95 -59 93 -73 -2 -29 -65 -208
-103 -293 -28 -61 -31 -76 -22 -97 15 -33 40 -31 82 5 19 16 40 29 47 30 6 0
24 11 40 23 15 13 57 39 93 58 36 18 87 49 115 68 l49 34 31 -18 c16 -10 66
-38 110 -62 143 -79 169 -95 207 -124 20 -16 42 -29 48 -29 16 0 39 61 30 79
-5 9 -16 43 -25 76 -10 33 -26 78 -35 100 -59 132 -70 158 -70 165 0 5 48 41
107 82 132 91 153 110 153 143 l0 27 -176 -3 -175 -3 -23 54 c-13 30 -42 96
-65 145 -24 50 -47 101 -53 115 -29 69 -48 95 -71 98 -14 2 -29 -3 -33 -10z
m66 -140 c12 -29 43 -97 68 -151 25 -53 43 -99 41 -101 -2 -2 -61 -6 -131 -9
-98 -4 -128 -2 -128 8 0 6 8 36 18 66 93 272 95 274 132 187z m162 -378 c14
-36 27 -70 27 -75 1 -6 -14 -19 -31 -29 -60 -35 -143 -89 -164 -108 -21 -18
-22 -18 -73 14 -28 18 -72 46 -97 62 -25 16 -48 35 -51 42 -3 8 5 45 18 82
l24 67 50 6 c28 3 99 5 160 5 l110 -1 27 -65z m238 60 c0 -6 -14 -19 -31 -28
-17 -9 -51 -30 -75 -46 -51 -32 -69 -30 -77 11 -3 15 -9 36 -12 45 -6 15 3 18
87 21 51 1 96 4 101 5 4 1 7 -3 7 -8z m-660 -20 c0 -21 -20 -82 -30 -94 -5 -4
-29 6 -53 23 -25 17 -49 31 -54 31 -18 0 -74 41 -68 50 4 6 49 10 106 9 87 -1
99 -3 99 -19z m33 -222 c12 -7 24 -15 27 -18 3 -3 27 -18 53 -34 27 -15 46
-33 44 -39 -5 -16 -120 -97 -132 -93 -5 2 -39 -21 -75 -51 -86 -71 -101 -69
-57 10 19 34 40 80 47 102 21 66 52 135 61 135 5 0 19 -6 32 -12z m477 -45
c62 -158 77 -203 70 -208 -5 -3 -37 14 -72 37 -89 60 -169 108 -179 108 -5 0
-9 6 -9 14 0 15 85 76 105 76 7 0 18 7 25 15 22 27 37 16 60 -42z"/>
<path d="M7643 9858 c-11 -18 -22 -40 -25 -48 -3 -8 -40 -73 -81 -144 l-75
-129 -171 1 c-94 1 -176 4 -183 8 -13 8 -48 -31 -48 -54 0 -19 34 -49 149
-132 50 -36 92 -70 95 -76 2 -7 -26 -59 -63 -115 -37 -57 -78 -122 -91 -145
-13 -22 -41 -53 -62 -69 -48 -37 -58 -69 -30 -98 l22 -21 72 36 c40 21 102 50
138 66 36 16 105 53 154 81 49 28 94 51 101 51 11 0 63 -42 135 -109 104 -97
279 -201 315 -188 21 9 7 112 -25 177 -14 30 -35 84 -45 120 -9 36 -26 90 -36
121 -11 30 -19 62 -19 71 0 8 26 29 58 47 31 17 98 53 147 80 111 61 152 116
110 151 -17 14 -261 18 -352 5 l-52 -7 -12 44 c-6 23 -15 59 -20 78 -27 118
-50 214 -55 222 -11 17 -33 7 -51 -24z m42 -160 c9 -35 21 -76 26 -92 18 -59
17 -61 -79 -64 -48 -2 -93 -8 -99 -14 -24 -20 -14 13 23 76 68 113 96 156 103
156 5 0 16 -28 26 -62z m62 -220 c6 -7 20 -53 32 -102 25 -101 29 -92 -64
-141 -27 -14 -70 -37 -94 -51 -24 -13 -49 -24 -55 -24 -7 0 -32 18 -56 40 -24
22 -47 40 -51 40 -3 0 -21 13 -40 29 l-33 30 28 59 c50 104 59 111 151 121
122 13 171 12 182 -1z m353 -4 c9 -9 4 -15 -17 -26 -15 -8 -57 -32 -93 -53
-142 -83 -137 -83 -161 -10 -23 75 -24 92 -1 98 34 10 261 2 272 -9z m-683 -7
c5 -6 -55 -115 -69 -123 -5 -3 -22 5 -36 19 -15 13 -43 32 -62 42 -36 18 -72
54 -64 66 4 7 223 3 231 -4z m40 -310 c39 -30 55 -57 34 -57 -6 0 -74 -31
-153 -69 -79 -37 -145 -64 -147 -59 -2 5 24 55 58 109 34 55 61 103 61 106 0
4 10 17 22 30 l21 23 31 -25 c17 -14 50 -40 73 -58z m397 -44 c20 -71 48 -155
61 -187 14 -33 23 -61 21 -63 -11 -11 -159 99 -266 195 -53 49 -54 51 -37 70
10 11 44 34 75 50 31 17 66 38 77 46 11 8 23 16 26 16 4 0 23 -57 43 -127z"/>
<path d="M8701 7803 c-6 -38 -10 -99 -9 -138 1 -38 -3 -132 -10 -209 -9 -103
-10 -142 -1 -152 27 -33 40 -194 33 -430 -5 -178 -4 -233 5 -239 7 -4 17 -3
21 1 5 5 10 146 12 314 3 289 2 308 -18 355 -19 45 -20 61 -12 170 4 66 8 155
8 198 0 43 5 98 10 122 11 48 5 75 -15 75 -9 0 -17 -24 -24 -67z"/>
<path d="M7557 7895 c-24 -42 -64 -124 -88 -181 l-44 -105 -147 2 c-122 1
-152 -1 -173 -15 -35 -23 -31 -50 13 -83 20 -15 43 -36 50 -45 7 -9 42 -36 77
-59 70 -45 76 -58 50 -112 -52 -113 -99 -237 -100 -267 -1 -19 -5 -43 -9 -52
-4 -9 -5 -22 -1 -28 15 -25 79 -2 147 52 18 14 82 56 141 92 l108 66 51 -35
c28 -20 65 -42 82 -50 17 -8 47 -29 66 -46 69 -60 106 -80 161 -85 81 -7 89 2
57 73 -28 62 -62 152 -73 193 -4 14 -18 43 -30 65 -13 22 -26 54 -30 71 -6 29
-2 35 42 68 113 87 160 118 186 123 30 6 38 42 13 62 -15 13 -265 17 -312 5
-21 -5 -26 0 -47 47 -12 30 -38 101 -56 159 -59 190 -69 196 -134 85z m63 -49
c0 -2 18 -54 40 -117 22 -63 40 -118 40 -124 0 -7 -35 -7 -105 -1 -121 11
-116 2 -62 116 43 90 67 130 78 130 5 0 9 -2 9 -4z m-235 -315 c4 -7 -29 -97
-41 -110 -2 -3 -14 5 -27 17 -13 12 -27 22 -31 22 -13 0 -86 61 -82 68 6 10
175 12 181 3z m284 -4 l65 -2 22 -50 c37 -82 42 -74 -101 -175 -38 -28 -75
-50 -81 -50 -17 0 -184 113 -184 125 0 5 10 34 21 65 12 30 26 66 31 79 8 23
11 23 86 16 42 -3 106 -7 141 -8z m301 3 c0 -5 -6 -10 -13 -10 -7 0 -35 -20
-63 -44 -28 -25 -55 -41 -62 -37 -15 9 -34 61 -28 77 7 19 166 32 166 14z
m-150 -211 c0 -5 12 -36 26 -67 57 -125 94 -219 94 -239 0 -20 -68 14 -125 61
-63 54 -140 106 -155 106 -26 0 -1 34 65 90 68 57 95 71 95 49z m-429 -25 c7
-9 37 -31 66 -50 49 -31 67 -54 42 -54 -5 0 -58 -32 -116 -70 -58 -39 -108
-68 -112 -65 -6 6 4 35 60 173 19 45 37 82 40 82 4 0 13 -7 20 -16z"/>
<path d="M4900 6960 c0 -17 41 -33 53 -21 9 9 8 14 -3 21 -20 13 -50 13 -50 0z"/>
<path d="M4983 6943 c-17 -6 -16 -23 1 -42 14 -16 30 -81 20 -81 -3 0 -23 18
-45 40 -24 24 -49 40 -64 40 -25 0 -25 -10 4 -82 6 -15 8 -35 5 -43 -9 -22 23
-30 41 -11 9 9 25 16 36 16 11 0 22 7 26 16 3 8 12 13 21 9 20 -7 49 3 55 20
10 24 -13 83 -40 105 -26 20 -37 23 -60 13z"/>
<path d="M7687 6263 c-3 -5 -7 -26 -9 -48 -3 -34 0 -40 18 -43 17 -2 23 4 28
28 8 44 -20 91 -37 63z"/>
<path d="M7678 5728 c-18 -28 -118 -254 -143 -323 -25 -69 -36 -76 -114 -69
-169 14 -219 13 -236 -6 -11 -12 -14 -24 -8 -33 10 -18 148 -145 213 -195 l24
-20 -18 -58 c-10 -33 -24 -72 -31 -89 -30 -67 -76 -217 -77 -246 -1 -20 6 -37
17 -45 26 -19 30 -18 72 20 21 18 83 67 138 108 55 41 113 87 128 102 15 14
32 26 37 26 7 0 106 -70 231 -166 71 -53 162 -104 186 -104 43 0 45 22 12 111
-17 46 -37 104 -44 129 -7 25 -29 88 -49 140 -20 52 -36 100 -36 106 0 6 36
38 81 70 163 119 179 136 163 178 -5 14 -22 15 -133 9 -69 -4 -144 -8 -166 -8
l-40 0 -40 81 c-55 110 -70 147 -95 232 -24 78 -44 93 -72 50z m28 -105 c13
-41 57 -142 87 -200 17 -34 28 -65 24 -69 -12 -12 -227 -18 -238 -7 -9 9 38
150 71 211 4 9 14 32 20 50 14 35 28 41 36 15z m404 -328 c-1 -10 -135 -107
-155 -113 -6 -1 -19 21 -28 50 -15 47 -15 54 -2 64 19 14 185 13 185 -1z
m-239 -75 c33 -85 35 -100 14 -100 -8 0 -15 -4 -15 -9 0 -5 -15 -16 -32 -25
-18 -10 -55 -35 -83 -56 -49 -39 -78 -49 -89 -31 -3 5 -42 30 -86 56 -92 54
-94 60 -56 160 l23 60 107 7 c59 3 111 9 114 13 3 3 21 5 40 3 32 -3 35 -7 63
-78z m-398 35 c-3 -39 -28 -95 -42 -95 -19 0 -132 100 -125 112 3 5 42 8 87 6
75 -3 82 -5 80 -23z m462 -192 c4 -10 18 -47 30 -83 13 -36 37 -103 54 -149
17 -47 28 -87 25 -90 -9 -9 -82 38 -168 108 -45 36 -92 73 -106 82 l-24 16 56
41 c31 23 69 53 84 67 32 30 39 31 49 8z m-322 -118 c17 -12 14 -17 -39 -57
-187 -142 -191 -144 -199 -136 -7 7 70 224 90 254 l16 24 57 -36 c31 -20 65
-42 75 -49z"/>
<path d="M8399 3383 c-9 -61 -4 -94 22 -145 16 -32 36 -58 44 -58 26 0 29 47
6 85 -29 50 -27 65 9 65 20 0 33 -6 37 -17 4 -10 19 -33 35 -51 38 -44 37 -62
-6 -62 -36 0 -62 -21 -53 -43 3 -9 22 -14 52 -15 39 0 47 3 55 23 5 13 14 26
19 30 19 11 12 50 -18 97 -16 25 -32 54 -35 65 -4 14 -19 22 -44 27 -51 8
-122 8 -123 -1z"/>
<path d="M5070 5405 c-18 -21 -6 -45 19 -38 14 3 21 14 21 29 0 27 -21 32 -40
9z"/>
<path d="M7917 4233 c-15 -54 -16 -75 -7 -93 18 -34 30 -12 28 50 -2 58 -12
78 -21 43z"/>
<path d="M2495 4295 c-34 -33 -34 -81 -1 -96 23 -11 24 -15 20 -81 -2 -38 -11
-90 -19 -115 -9 -26 -18 -96 -22 -157 -5 -107 -4 -114 26 -195 17 -46 38 -120
45 -165 19 -109 45 -216 59 -246 22 -43 86 -79 192 -105 55 -14 112 -25 128
-25 15 0 36 -6 47 -12 17 -11 22 -10 29 1 10 16 4 47 -13 59 -6 5 -54 15 -106
22 -103 13 -211 57 -235 94 -15 24 -60 180 -70 245 -4 24 -20 82 -36 129 -18
53 -29 107 -29 141 0 66 19 181 32 198 6 7 15 70 20 140 8 114 8 132 -8 161
-21 38 -28 39 -59 7z"/>
<path d="M2694 4015 c-7 -17 22 -122 35 -127 14 -6 120 -137 146 -181 23 -40
132 -147 148 -147 10 0 93 -59 107 -75 13 -16 40 -21 40 -7 0 16 -76 85 -119
107 -64 33 -130 99 -176 175 -21 36 -41 67 -44 70 -29 25 -78 104 -91 144 -17
52 -36 69 -46 41z"/>
<path d="M3980 3522 c-8 -3 -31 -17 -50 -32 -19 -15 -76 -50 -125 -78 -50 -27
-121 -73 -159 -101 -106 -80 -114 -83 -177 -65 -41 12 -58 13 -77 4 -15 -6
-21 -15 -16 -20 13 -12 112 -50 132 -50 16 0 99 53 208 132 27 19 74 48 104
63 80 40 190 116 190 131 0 17 -11 23 -30 16z"/>
<path d="M3176 3261 c-31 -6 -46 -28 -24 -35 7 -2 41 -7 76 -10 52 -5 64 -3
69 11 13 34 -44 51 -121 34z"/>
<path d="M1967 4173 c-10 -9 -8 -76 2 -92 15 -24 39 -4 46 38 4 22 4 45 0 51
-7 11 -38 14 -48 3z"/>
<path d="M1956 3884 c-10 -27 -7 -54 7 -54 20 0 37 22 37 47 0 27 -34 33 -44
7z"/>
<path d="M1580 3635 c0 -37 22 -49 34 -19 12 32 6 54 -14 54 -16 0 -20 -7 -20
-35z"/>
<path d="M5984 1736 c-8 -21 32 -131 49 -134 9 -2 18 6 22 17 17 54 -52 168
-71 117z"/>
<path d="M3010 1697 c-3 -2 -52 -7 -110 -11 -138 -9 -326 -33 -370 -49 -19 -6
-64 -26 -100 -44 -142 -70 -195 -153 -178 -275 5 -35 10 -77 12 -94 2 -16 13
-41 25 -55 11 -13 35 -44 53 -69 29 -40 114 -95 208 -136 83 -36 108 -44 140
-44 21 0 57 -7 81 -15 24 -9 73 -20 109 -26 36 -5 92 -14 125 -19 33 -5 120
-14 192 -19 280 -22 638 42 761 136 69 53 172 216 172 274 0 35 -45 118 -80
149 -74 66 -114 91 -221 143 -112 54 -248 96 -384 119 -115 18 -426 44 -435
35z m318 -83 c131 -16 197 -30 232 -48 14 -7 48 -19 75 -25 65 -16 206 -85
272 -133 83 -61 132 -141 118 -195 -10 -40 -81 -128 -123 -154 -57 -33 -129
-59 -180 -64 -368 -38 -510 -35 -762 17 -30 6 -69 10 -86 9 -54 -3 -217 46
-312 93 -218 110 -296 199 -262 300 13 41 100 124 139 132 14 3 46 14 71 24
75 30 131 43 225 50 166 12 476 9 593 -6z"/>
<path d="M3215 1533 c-96 -49 -181 -72 -225 -62 -22 5 -84 14 -138 19 -53 6
-112 15 -130 21 -35 11 -62 0 -62 -26 0 -14 121 -85 145 -85 27 0 26 -20 -2
-31 -15 -6 -65 -29 -109 -49 -67 -32 -83 -44 -92 -69 -17 -48 9 -56 139 -42
131 13 321 26 376 25 45 -1 108 -29 181 -78 26 -18 80 -48 120 -66 66 -30 74
-32 88 -18 14 14 11 24 -31 104 -54 101 -52 107 38 119 29 4 61 9 72 12 25 6
50 10 97 18 38 6 56 29 38 50 -7 8 -52 16 -122 20 -61 4 -145 13 -187 19 l-75
12 -17 64 c-19 76 -29 81 -104 43z m55 -62 c17 -34 11 -41 -32 -41 -42 0 -83
17 -63 26 6 2 21 11 35 18 35 20 48 19 60 -3z m-355 -41 c17 -7 15 -9 -12 -9
-18 -1 -33 4 -33 9 0 12 17 12 45 0z m275 -35 c86 -11 108 -18 123 -36 34 -42
20 -52 -78 -55 -87 -3 -92 -2 -162 34 -40 20 -73 41 -73 45 0 10 39 26 65 26
11 0 67 -6 125 -14z m310 -44 c0 -10 -88 -23 -101 -15 -23 14 -4 24 46 24 30
0 55 -4 55 -9z m-550 -14 c47 -17 80 -36 80 -46 0 -4 -46 -11 -102 -15 -57 -3
-127 -9 -156 -12 -80 -10 -59 15 46 53 103 38 89 36 132 20z m439 -116 c13
-27 22 -54 20 -59 -2 -6 -35 10 -73 35 -64 42 -68 47 -51 59 10 8 33 14 50 14
28 0 34 -6 54 -49z"/>
<path d="M5567 1643 c-12 -11 -8 -33 6 -33 6 0 19 5 27 10 13 9 13 11 0 20
-18 12 -24 12 -33 3z"/>
<path d="M5635 1580 c-8 -27 10 -49 26 -33 13 13 8 45 -8 50 -6 2 -14 -6 -18
-17z"/>
<path d="M6023 1568 c-5 -7 -15 -27 -22 -44 -7 -17 -32 -45 -56 -62 -51 -36
-87 -88 -111 -162 -12 -38 -14 -54 -6 -62 18 -18 49 17 56 62 4 27 18 51 45
77 21 21 55 54 74 72 l36 35 11 -26 c7 -14 23 -32 36 -39 26 -14 30 -38 13
-87 -10 -30 -86 -95 -160 -139 -16 -10 -29 -26 -29 -36 0 -16 5 -19 32 -13 43
8 198 134 198 161 0 6 9 27 19 46 25 46 18 73 -25 98 -48 28 -42 41 16 41 38
0 52 4 57 16 13 36 -43 72 -70 45 -17 -17 -41 -13 -70 9 -30 24 -32 24 -44 8z"/>
<path d="M6795 1510 c-7 -12 2 -30 16 -30 5 0 9 9 9 20 0 21 -15 27 -25 10z"/>
<path d="M5686 1488 c-18 -25 -21 -58 -7 -58 14 0 41 41 41 62 0 25 -16 23
-34 -4z"/>
<path d="M8178 1465 c-2 -2 -24 -5 -50 -8 -61 -7 -126 -27 -138 -42 -6 -7 -8
-20 -4 -29 7 -18 29 -21 39 -6 9 15 25 12 25 -5 0 -8 -6 -15 -12 -16 -7 -1
-24 -2 -38 -2 -18 -2 -26 -9 -28 -26 -3 -19 0 -22 14 -17 23 9 54 -2 54 -19 0
-9 -19 -16 -57 -20 -78 -9 -117 -22 -139 -46 -17 -19 -17 -20 3 -41 19 -18 32
-21 103 -20 79 2 81 1 78 -20 -2 -19 -12 -24 -56 -30 -68 -10 -162 -48 -176
-71 -9 -15 -7 -22 12 -37 18 -15 34 -18 90 -14 37 2 77 6 88 9 29 6 52 -21 37
-43 -8 -13 -26 -17 -80 -18 -76 -1 -146 -26 -151 -56 -4 -18 53 -78 74 -78 6
0 18 7 25 16 12 14 10 19 -15 39 l-28 23 35 11 c21 7 55 9 86 5 l51 -7 2 -41
c1 -22 2 -59 3 -81 0 -30 4 -41 17 -43 25 -5 38 36 38 120 0 55 3 69 14 65 16
-6 297 18 386 34 96 17 110 24 110 57 0 24 -7 32 -39 47 -22 9 -48 14 -59 11
-11 -4 -56 -9 -99 -11 -43 -2 -129 -7 -192 -11 -118 -7 -134 -2 -124 35 4 14
18 16 114 13 122 -4 159 1 159 23 0 11 -16 13 -77 10 -111 -4 -193 5 -193 21
0 23 48 29 223 29 129 0 167 3 167 13 0 22 -36 27 -167 22 -166 -6 -213 -3
-213 16 0 16 10 17 101 15 48 -2 69 2 78 13 25 29 3 37 -83 30 -55 -4 -85 -3
-90 4 -9 16 8 23 69 29 41 4 55 10 56 22 0 10 2 12 6 4 2 -7 13 -13 23 -13 9
0 22 6 27 13 13 17 17 94 4 101 -11 7 -99 25 -103 21z m43 -65 c41 -22 15 -39
-71 -45 -47 -4 -50 -2 -50 20 0 13 6 26 13 28 22 9 88 7 108 -3z m-197 -166
c9 -3 16 -13 16 -21 0 -11 -7 -13 -27 -9 -16 3 -47 7 -70 8 -75 4 -48 20 44
26 12 1 28 -1 37 -4z m4 -177 l3 -27 -80 0 c-43 0 -86 3 -95 6 -38 15 -7 32
74 40 24 3 46 7 49 9 2 3 13 3 25 1 14 -2 22 -11 24 -29z m501 -43 c19 -19
-100 -42 -324 -61 -128 -11 -130 -10 -133 14 -4 30 28 42 132 49 45 3 83 8 85
10 6 5 234 -6 240 -12z"/>
<path d="M5860 1137 c-31 -16 -39 -47 -12 -47 24 0 45 23 40 44 -2 13 -7 14
-28 3z"/>
<path d="M8170 872 c-18 -14 -21 -25 -17 -44 8 -32 37 -40 74 -21 37 19 43 32
30 60 -13 29 -55 31 -87 5z"/>
<path d="M7767 2938 c-31 -41 -59 -100 -77 -158 -7 -25 -17 -50 -22 -56 -5 -7
-21 -47 -37 -90 l-29 -78 -155 1 c-169 2 -185 -2 -173 -52 4 -17 23 -34 57
-53 28 -15 78 -45 111 -66 68 -46 68 -44 24 -161 -15 -38 -31 -90 -37 -115 -6
-25 -23 -71 -40 -103 -32 -64 -35 -80 -16 -95 10 -9 47 11 158 84 79 53 147
100 150 106 6 9 28 24 66 43 6 4 42 -13 80 -38 37 -24 95 -61 128 -83 33 -21
71 -44 85 -50 14 -6 31 -23 39 -37 8 -15 22 -29 33 -33 10 -3 18 -9 18 -14 0
-18 41 4 46 24 7 29 -5 73 -70 261 -31 88 -53 167 -51 176 3 8 20 23 38 32 17
9 64 39 103 67 51 38 83 53 119 58 51 7 73 28 61 57 -5 15 -14 17 -64 11 -195
-22 -231 -24 -354 -16 -5 0 -8 7 -8 15 0 8 -18 68 -41 132 -41 118 -48 141
-69 221 -14 52 -39 56 -73 10z m58 -150 c9 -29 20 -62 25 -73 14 -33 50 -144
50 -155 0 -12 -226 -14 -234 -2 -2 4 4 25 14 47 10 22 32 74 49 115 61 144 70
150 96 68z m-255 -303 c0 -26 -31 -85 -44 -85 -7 0 -19 7 -26 16 -8 8 -33 27
-57 41 -24 13 -43 29 -43 33 0 5 38 8 85 8 61 0 85 -4 85 -13z m360 -2 c4 -4
15 -28 25 -53 9 -25 19 -50 22 -56 4 -11 -197 -154 -216 -154 -10 0 -175 129
-179 141 -2 5 6 26 17 46 11 21 25 49 30 63 l9 25 142 -2 c78 0 145 -5 150
-10z m208 -8 c-21 -14 -44 -25 -53 -25 -9 0 -27 -7 -41 -16 -28 -19 -39 -13
-49 28 -8 31 0 33 109 36 l70 2 -36 -25z m-111 -227 c11 -35 33 -98 49 -140
15 -43 25 -80 22 -84 -4 -3 -27 8 -52 26 -25 17 -63 39 -84 48 -50 23 -132 85
-128 97 3 12 146 112 161 114 6 1 20 -27 32 -61z m-396 -9 c38 -29 69 -55 69
-59 0 -8 -75 -60 -86 -60 -4 0 -21 -10 -38 -23 -29 -22 -104 -67 -110 -67 -6
0 34 136 53 180 11 25 22 53 25 63 3 9 8 17 12 17 3 0 37 -23 75 -51z"/>
<path d="M2366 2272 c-12 -12 -5 -42 12 -50 9 -4 35 -8 57 -7 30 0 40 4 43 19
2 10 -1 23 -6 28 -11 11 -97 20 -106 10z"/>
<path d="M8901 4731 c-10 -6 -10 -10 -1 -16 13 -8 24 -1 19 14 -3 6 -10 7 -18
2z"/>
<path d="M7582 348 c-17 -17 -15 -28 6 -28 24 0 32 8 25 26 -6 17 -15 18 -31
2z"/>
</g>
</svg>
